<?xml version="1.0" encoding="utf-8" standalone="no"?>
<!DOCTYPE svg PUBLIC "-//W3C//DTD SVG 1.1//EN"
  "http://www.w3.org/Graphics/SVG/1.1/DTD/svg11.dtd">
<svg xmlns:xlink="http://www.w3.org/1999/xlink" width="1243.703125pt" height="373.39625pt" viewBox="0 0 1243.703125 373.39625" xmlns="http://www.w3.org/2000/svg" version="1.1">
 <metadata>
  <rdf:RDF xmlns:dc="http://purl.org/dc/elements/1.1/" xmlns:cc="http://creativecommons.org/ns#" xmlns:rdf="http://www.w3.org/1999/02/22-rdf-syntax-ns#">
   <cc:Work>
    <dc:type rdf:resource="http://purl.org/dc/dcmitype/StillImage"/>
    <dc:date>2023-05-01T18:10:36.853451</dc:date>
    <dc:format>image/svg+xml</dc:format>
    <dc:creator>
     <cc:Agent>
      <dc:title>Matplotlib v3.7.1, https://matplotlib.org/</dc:title>
     </cc:Agent>
    </dc:creator>
   </cc:Work>
  </rdf:RDF>
 </metadata>
 <defs>
  <style type="text/css">*{stroke-linejoin: round; stroke-linecap: butt}</style>
 </defs>
 <g id="figure_1">
  <g id="patch_1">
   <path d="M 0 373.39625 
L 1243.703125 373.39625 
L 1243.703125 0 
L 0 0 
z
" style="fill: #ffffff"/>
  </g>
  <g id="axes_1">
   <g id="patch_2">
    <path d="M 343.703125 339.84 
L 1236.503125 339.84 
L 1236.503125 7.2 
L 343.703125 7.2 
z
" style="fill: #ffffff"/>
   </g>
   <g id="matplotlib.axis_1">
    <g id="xtick_1">
     <g id="line2d_1">
      <path d="M 343.703125 339.84 
L 343.703125 7.2 
" clip-path="url(#p539f9c7fc7)" style="fill: none; stroke: #dddddd; stroke-width: 0.8; stroke-linecap: square"/>
     </g>
     <g id="line2d_2">
      <defs>
       <path id="m55f48fef34" d="M 0 0 
L 0 3.5 
" style="stroke: #000000; stroke-width: 0.8"/>
      </defs>
      <g>
       <use xlink:href="#m55f48fef34" x="343.703125" y="339.84" style="stroke: #000000; stroke-width: 0.8"/>
      </g>
     </g>
     <g id="text_1">
      <!-- 0 -->
      <g transform="translate(337.340625 362.036875) scale(0.2 -0.2)">
       <defs>
        <path id="DejaVuSans-30" d="M 2034 4250 
Q 1547 4250 1301 3770 
Q 1056 3291 1056 2328 
Q 1056 1369 1301 889 
Q 1547 409 2034 409 
Q 2525 409 2770 889 
Q 3016 1369 3016 2328 
Q 3016 3291 2770 3770 
Q 2525 4250 2034 4250 
z
M 2034 4750 
Q 2819 4750 3233 4129 
Q 3647 3509 3647 2328 
Q 3647 1150 3233 529 
Q 2819 -91 2034 -91 
Q 1250 -91 836 529 
Q 422 1150 422 2328 
Q 422 3509 836 4129 
Q 1250 4750 2034 4750 
z
" transform="scale(0.015625)"/>
       </defs>
       <use xlink:href="#DejaVuSans-30"/>
      </g>
     </g>
    </g>
    <g id="xtick_2">
     <g id="line2d_3">
      <path d="M 437.319519 339.84 
L 437.319519 7.2 
" clip-path="url(#p539f9c7fc7)" style="fill: none; stroke: #dddddd; stroke-width: 0.8; stroke-linecap: square"/>
     </g>
     <g id="line2d_4">
      <g>
       <use xlink:href="#m55f48fef34" x="437.319519" y="339.84" style="stroke: #000000; stroke-width: 0.8"/>
      </g>
     </g>
     <g id="text_2">
      <!-- 400 -->
      <g transform="translate(418.232019 362.036875) scale(0.2 -0.2)">
       <defs>
        <path id="DejaVuSans-34" d="M 2419 4116 
L 825 1625 
L 2419 1625 
L 2419 4116 
z
M 2253 4666 
L 3047 4666 
L 3047 1625 
L 3713 1625 
L 3713 1100 
L 3047 1100 
L 3047 0 
L 2419 0 
L 2419 1100 
L 313 1100 
L 313 1709 
L 2253 4666 
z
" transform="scale(0.015625)"/>
       </defs>
       <use xlink:href="#DejaVuSans-34"/>
       <use xlink:href="#DejaVuSans-30" x="63.623047"/>
       <use xlink:href="#DejaVuSans-30" x="127.246094"/>
      </g>
     </g>
    </g>
    <g id="xtick_3">
     <g id="line2d_5">
      <path d="M 530.935914 339.84 
L 530.935914 7.2 
" clip-path="url(#p539f9c7fc7)" style="fill: none; stroke: #dddddd; stroke-width: 0.8; stroke-linecap: square"/>
     </g>
     <g id="line2d_6">
      <g>
       <use xlink:href="#m55f48fef34" x="530.935914" y="339.84" style="stroke: #000000; stroke-width: 0.8"/>
      </g>
     </g>
     <g id="text_3">
      <!-- 800 -->
      <g transform="translate(511.848414 362.036875) scale(0.2 -0.2)">
       <defs>
        <path id="DejaVuSans-38" d="M 2034 2216 
Q 1584 2216 1326 1975 
Q 1069 1734 1069 1313 
Q 1069 891 1326 650 
Q 1584 409 2034 409 
Q 2484 409 2743 651 
Q 3003 894 3003 1313 
Q 3003 1734 2745 1975 
Q 2488 2216 2034 2216 
z
M 1403 2484 
Q 997 2584 770 2862 
Q 544 3141 544 3541 
Q 544 4100 942 4425 
Q 1341 4750 2034 4750 
Q 2731 4750 3128 4425 
Q 3525 4100 3525 3541 
Q 3525 3141 3298 2862 
Q 3072 2584 2669 2484 
Q 3125 2378 3379 2068 
Q 3634 1759 3634 1313 
Q 3634 634 3220 271 
Q 2806 -91 2034 -91 
Q 1263 -91 848 271 
Q 434 634 434 1313 
Q 434 1759 690 2068 
Q 947 2378 1403 2484 
z
M 1172 3481 
Q 1172 3119 1398 2916 
Q 1625 2713 2034 2713 
Q 2441 2713 2670 2916 
Q 2900 3119 2900 3481 
Q 2900 3844 2670 4047 
Q 2441 4250 2034 4250 
Q 1625 4250 1398 4047 
Q 1172 3844 1172 3481 
z
" transform="scale(0.015625)"/>
       </defs>
       <use xlink:href="#DejaVuSans-38"/>
       <use xlink:href="#DejaVuSans-30" x="63.623047"/>
       <use xlink:href="#DejaVuSans-30" x="127.246094"/>
      </g>
     </g>
    </g>
    <g id="xtick_4">
     <g id="line2d_7">
      <path d="M 624.552308 339.84 
L 624.552308 7.2 
" clip-path="url(#p539f9c7fc7)" style="fill: none; stroke: #dddddd; stroke-width: 0.8; stroke-linecap: square"/>
     </g>
     <g id="line2d_8">
      <g>
       <use xlink:href="#m55f48fef34" x="624.552308" y="339.84" style="stroke: #000000; stroke-width: 0.8"/>
      </g>
     </g>
     <g id="text_4">
      <!-- 1200 -->
      <g transform="translate(599.102308 362.036875) scale(0.2 -0.2)">
       <defs>
        <path id="DejaVuSans-31" d="M 794 531 
L 1825 531 
L 1825 4091 
L 703 3866 
L 703 4441 
L 1819 4666 
L 2450 4666 
L 2450 531 
L 3481 531 
L 3481 0 
L 794 0 
L 794 531 
z
" transform="scale(0.015625)"/>
        <path id="DejaVuSans-32" d="M 1228 531 
L 3431 531 
L 3431 0 
L 469 0 
L 469 531 
Q 828 903 1448 1529 
Q 2069 2156 2228 2338 
Q 2531 2678 2651 2914 
Q 2772 3150 2772 3378 
Q 2772 3750 2511 3984 
Q 2250 4219 1831 4219 
Q 1534 4219 1204 4116 
Q 875 4013 500 3803 
L 500 4441 
Q 881 4594 1212 4672 
Q 1544 4750 1819 4750 
Q 2544 4750 2975 4387 
Q 3406 4025 3406 3419 
Q 3406 3131 3298 2873 
Q 3191 2616 2906 2266 
Q 2828 2175 2409 1742 
Q 1991 1309 1228 531 
z
" transform="scale(0.015625)"/>
       </defs>
       <use xlink:href="#DejaVuSans-31"/>
       <use xlink:href="#DejaVuSans-32" x="63.623047"/>
       <use xlink:href="#DejaVuSans-30" x="127.246094"/>
       <use xlink:href="#DejaVuSans-30" x="190.869141"/>
      </g>
     </g>
    </g>
    <g id="xtick_5">
     <g id="line2d_9">
      <path d="M 718.168703 339.84 
L 718.168703 7.2 
" clip-path="url(#p539f9c7fc7)" style="fill: none; stroke: #dddddd; stroke-width: 0.8; stroke-linecap: square"/>
     </g>
     <g id="line2d_10">
      <g>
       <use xlink:href="#m55f48fef34" x="718.168703" y="339.84" style="stroke: #000000; stroke-width: 0.8"/>
      </g>
     </g>
     <g id="text_5">
      <!-- 1600 -->
      <g transform="translate(692.718703 362.036875) scale(0.2 -0.2)">
       <defs>
        <path id="DejaVuSans-36" d="M 2113 2584 
Q 1688 2584 1439 2293 
Q 1191 2003 1191 1497 
Q 1191 994 1439 701 
Q 1688 409 2113 409 
Q 2538 409 2786 701 
Q 3034 994 3034 1497 
Q 3034 2003 2786 2293 
Q 2538 2584 2113 2584 
z
M 3366 4563 
L 3366 3988 
Q 3128 4100 2886 4159 
Q 2644 4219 2406 4219 
Q 1781 4219 1451 3797 
Q 1122 3375 1075 2522 
Q 1259 2794 1537 2939 
Q 1816 3084 2150 3084 
Q 2853 3084 3261 2657 
Q 3669 2231 3669 1497 
Q 3669 778 3244 343 
Q 2819 -91 2113 -91 
Q 1303 -91 875 529 
Q 447 1150 447 2328 
Q 447 3434 972 4092 
Q 1497 4750 2381 4750 
Q 2619 4750 2861 4703 
Q 3103 4656 3366 4563 
z
" transform="scale(0.015625)"/>
       </defs>
       <use xlink:href="#DejaVuSans-31"/>
       <use xlink:href="#DejaVuSans-36" x="63.623047"/>
       <use xlink:href="#DejaVuSans-30" x="127.246094"/>
       <use xlink:href="#DejaVuSans-30" x="190.869141"/>
      </g>
     </g>
    </g>
    <g id="xtick_6">
     <g id="line2d_11">
      <path d="M 811.785097 339.84 
L 811.785097 7.2 
" clip-path="url(#p539f9c7fc7)" style="fill: none; stroke: #dddddd; stroke-width: 0.8; stroke-linecap: square"/>
     </g>
     <g id="line2d_12">
      <g>
       <use xlink:href="#m55f48fef34" x="811.785097" y="339.84" style="stroke: #000000; stroke-width: 0.8"/>
      </g>
     </g>
     <g id="text_6">
      <!-- 2000 -->
      <g transform="translate(786.335097 362.036875) scale(0.2 -0.2)">
       <use xlink:href="#DejaVuSans-32"/>
       <use xlink:href="#DejaVuSans-30" x="63.623047"/>
       <use xlink:href="#DejaVuSans-30" x="127.246094"/>
       <use xlink:href="#DejaVuSans-30" x="190.869141"/>
      </g>
     </g>
    </g>
    <g id="xtick_7">
     <g id="line2d_13">
      <path d="M 905.401492 339.84 
L 905.401492 7.2 
" clip-path="url(#p539f9c7fc7)" style="fill: none; stroke: #dddddd; stroke-width: 0.8; stroke-linecap: square"/>
     </g>
     <g id="line2d_14">
      <g>
       <use xlink:href="#m55f48fef34" x="905.401492" y="339.84" style="stroke: #000000; stroke-width: 0.8"/>
      </g>
     </g>
     <g id="text_7">
      <!-- 2400 -->
      <g transform="translate(879.951492 362.036875) scale(0.2 -0.2)">
       <use xlink:href="#DejaVuSans-32"/>
       <use xlink:href="#DejaVuSans-34" x="63.623047"/>
       <use xlink:href="#DejaVuSans-30" x="127.246094"/>
       <use xlink:href="#DejaVuSans-30" x="190.869141"/>
      </g>
     </g>
    </g>
    <g id="xtick_8">
     <g id="line2d_15">
      <path d="M 999.017886 339.84 
L 999.017886 7.2 
" clip-path="url(#p539f9c7fc7)" style="fill: none; stroke: #dddddd; stroke-width: 0.8; stroke-linecap: square"/>
     </g>
     <g id="line2d_16">
      <g>
       <use xlink:href="#m55f48fef34" x="999.017886" y="339.84" style="stroke: #000000; stroke-width: 0.8"/>
      </g>
     </g>
     <g id="text_8">
      <!-- 2800 -->
      <g transform="translate(973.567886 362.036875) scale(0.2 -0.2)">
       <use xlink:href="#DejaVuSans-32"/>
       <use xlink:href="#DejaVuSans-38" x="63.623047"/>
       <use xlink:href="#DejaVuSans-30" x="127.246094"/>
       <use xlink:href="#DejaVuSans-30" x="190.869141"/>
      </g>
     </g>
    </g>
    <g id="xtick_9">
     <g id="line2d_17">
      <path d="M 1092.63428 339.84 
L 1092.63428 7.2 
" clip-path="url(#p539f9c7fc7)" style="fill: none; stroke: #dddddd; stroke-width: 0.8; stroke-linecap: square"/>
     </g>
     <g id="line2d_18">
      <g>
       <use xlink:href="#m55f48fef34" x="1092.63428" y="339.84" style="stroke: #000000; stroke-width: 0.8"/>
      </g>
     </g>
     <g id="text_9">
      <!-- 3200 -->
      <g transform="translate(1067.18428 362.036875) scale(0.2 -0.2)">
       <defs>
        <path id="DejaVuSans-33" d="M 2597 2516 
Q 3050 2419 3304 2112 
Q 3559 1806 3559 1356 
Q 3559 666 3084 287 
Q 2609 -91 1734 -91 
Q 1441 -91 1130 -33 
Q 819 25 488 141 
L 488 750 
Q 750 597 1062 519 
Q 1375 441 1716 441 
Q 2309 441 2620 675 
Q 2931 909 2931 1356 
Q 2931 1769 2642 2001 
Q 2353 2234 1838 2234 
L 1294 2234 
L 1294 2753 
L 1863 2753 
Q 2328 2753 2575 2939 
Q 2822 3125 2822 3475 
Q 2822 3834 2567 4026 
Q 2313 4219 1838 4219 
Q 1578 4219 1281 4162 
Q 984 4106 628 3988 
L 628 4550 
Q 988 4650 1302 4700 
Q 1616 4750 1894 4750 
Q 2613 4750 3031 4423 
Q 3450 4097 3450 3541 
Q 3450 3153 3228 2886 
Q 3006 2619 2597 2516 
z
" transform="scale(0.015625)"/>
       </defs>
       <use xlink:href="#DejaVuSans-33"/>
       <use xlink:href="#DejaVuSans-32" x="63.623047"/>
       <use xlink:href="#DejaVuSans-30" x="127.246094"/>
       <use xlink:href="#DejaVuSans-30" x="190.869141"/>
      </g>
     </g>
    </g>
    <g id="xtick_10">
     <g id="line2d_19">
      <path d="M 1186.250675 339.84 
L 1186.250675 7.2 
" clip-path="url(#p539f9c7fc7)" style="fill: none; stroke: #dddddd; stroke-width: 0.8; stroke-linecap: square"/>
     </g>
     <g id="line2d_20">
      <g>
       <use xlink:href="#m55f48fef34" x="1186.250675" y="339.84" style="stroke: #000000; stroke-width: 0.8"/>
      </g>
     </g>
     <g id="text_10">
      <!-- 3600 -->
      <g transform="translate(1160.800675 362.036875) scale(0.2 -0.2)">
       <use xlink:href="#DejaVuSans-33"/>
       <use xlink:href="#DejaVuSans-36" x="63.623047"/>
       <use xlink:href="#DejaVuSans-30" x="127.246094"/>
       <use xlink:href="#DejaVuSans-30" x="190.869141"/>
      </g>
     </g>
    </g>
    <g id="xtick_11">
     <g id="line2d_21">
      <path d="M 362.426404 339.84 
L 362.426404 7.2 
" clip-path="url(#p539f9c7fc7)" style="fill: none; stroke: #eeeeee; stroke-width: 0.5; stroke-linecap: square"/>
     </g>
     <g id="line2d_22">
      <defs>
       <path id="ma61cdbec31" d="M 0 0 
L 0 2 
" style="stroke: #000000; stroke-width: 0.6"/>
      </defs>
      <g>
       <use xlink:href="#ma61cdbec31" x="362.426404" y="339.84" style="stroke: #000000; stroke-width: 0.6"/>
      </g>
     </g>
    </g>
    <g id="xtick_12">
     <g id="line2d_23">
      <path d="M 381.149683 339.84 
L 381.149683 7.2 
" clip-path="url(#p539f9c7fc7)" style="fill: none; stroke: #eeeeee; stroke-width: 0.5; stroke-linecap: square"/>
     </g>
     <g id="line2d_24">
      <g>
       <use xlink:href="#ma61cdbec31" x="381.149683" y="339.84" style="stroke: #000000; stroke-width: 0.6"/>
      </g>
     </g>
    </g>
    <g id="xtick_13">
     <g id="line2d_25">
      <path d="M 399.872962 339.84 
L 399.872962 7.2 
" clip-path="url(#p539f9c7fc7)" style="fill: none; stroke: #eeeeee; stroke-width: 0.5; stroke-linecap: square"/>
     </g>
     <g id="line2d_26">
      <g>
       <use xlink:href="#ma61cdbec31" x="399.872962" y="339.84" style="stroke: #000000; stroke-width: 0.6"/>
      </g>
     </g>
    </g>
    <g id="xtick_14">
     <g id="line2d_27">
      <path d="M 418.596241 339.84 
L 418.596241 7.2 
" clip-path="url(#p539f9c7fc7)" style="fill: none; stroke: #eeeeee; stroke-width: 0.5; stroke-linecap: square"/>
     </g>
     <g id="line2d_28">
      <g>
       <use xlink:href="#ma61cdbec31" x="418.596241" y="339.84" style="stroke: #000000; stroke-width: 0.6"/>
      </g>
     </g>
    </g>
    <g id="xtick_15">
     <g id="line2d_29">
      <path d="M 456.042798 339.84 
L 456.042798 7.2 
" clip-path="url(#p539f9c7fc7)" style="fill: none; stroke: #eeeeee; stroke-width: 0.5; stroke-linecap: square"/>
     </g>
     <g id="line2d_30">
      <g>
       <use xlink:href="#ma61cdbec31" x="456.042798" y="339.84" style="stroke: #000000; stroke-width: 0.6"/>
      </g>
     </g>
    </g>
    <g id="xtick_16">
     <g id="line2d_31">
      <path d="M 474.766077 339.84 
L 474.766077 7.2 
" clip-path="url(#p539f9c7fc7)" style="fill: none; stroke: #eeeeee; stroke-width: 0.5; stroke-linecap: square"/>
     </g>
     <g id="line2d_32">
      <g>
       <use xlink:href="#ma61cdbec31" x="474.766077" y="339.84" style="stroke: #000000; stroke-width: 0.6"/>
      </g>
     </g>
    </g>
    <g id="xtick_17">
     <g id="line2d_33">
      <path d="M 493.489356 339.84 
L 493.489356 7.2 
" clip-path="url(#p539f9c7fc7)" style="fill: none; stroke: #eeeeee; stroke-width: 0.5; stroke-linecap: square"/>
     </g>
     <g id="line2d_34">
      <g>
       <use xlink:href="#ma61cdbec31" x="493.489356" y="339.84" style="stroke: #000000; stroke-width: 0.6"/>
      </g>
     </g>
    </g>
    <g id="xtick_18">
     <g id="line2d_35">
      <path d="M 512.212635 339.84 
L 512.212635 7.2 
" clip-path="url(#p539f9c7fc7)" style="fill: none; stroke: #eeeeee; stroke-width: 0.5; stroke-linecap: square"/>
     </g>
     <g id="line2d_36">
      <g>
       <use xlink:href="#ma61cdbec31" x="512.212635" y="339.84" style="stroke: #000000; stroke-width: 0.6"/>
      </g>
     </g>
    </g>
    <g id="xtick_19">
     <g id="line2d_37">
      <path d="M 549.659193 339.84 
L 549.659193 7.2 
" clip-path="url(#p539f9c7fc7)" style="fill: none; stroke: #eeeeee; stroke-width: 0.5; stroke-linecap: square"/>
     </g>
     <g id="line2d_38">
      <g>
       <use xlink:href="#ma61cdbec31" x="549.659193" y="339.84" style="stroke: #000000; stroke-width: 0.6"/>
      </g>
     </g>
    </g>
    <g id="xtick_20">
     <g id="line2d_39">
      <path d="M 568.382472 339.84 
L 568.382472 7.2 
" clip-path="url(#p539f9c7fc7)" style="fill: none; stroke: #eeeeee; stroke-width: 0.5; stroke-linecap: square"/>
     </g>
     <g id="line2d_40">
      <g>
       <use xlink:href="#ma61cdbec31" x="568.382472" y="339.84" style="stroke: #000000; stroke-width: 0.6"/>
      </g>
     </g>
    </g>
    <g id="xtick_21">
     <g id="line2d_41">
      <path d="M 587.10575 339.84 
L 587.10575 7.2 
" clip-path="url(#p539f9c7fc7)" style="fill: none; stroke: #eeeeee; stroke-width: 0.5; stroke-linecap: square"/>
     </g>
     <g id="line2d_42">
      <g>
       <use xlink:href="#ma61cdbec31" x="587.10575" y="339.84" style="stroke: #000000; stroke-width: 0.6"/>
      </g>
     </g>
    </g>
    <g id="xtick_22">
     <g id="line2d_43">
      <path d="M 605.829029 339.84 
L 605.829029 7.2 
" clip-path="url(#p539f9c7fc7)" style="fill: none; stroke: #eeeeee; stroke-width: 0.5; stroke-linecap: square"/>
     </g>
     <g id="line2d_44">
      <g>
       <use xlink:href="#ma61cdbec31" x="605.829029" y="339.84" style="stroke: #000000; stroke-width: 0.6"/>
      </g>
     </g>
    </g>
    <g id="xtick_23">
     <g id="line2d_45">
      <path d="M 643.275587 339.84 
L 643.275587 7.2 
" clip-path="url(#p539f9c7fc7)" style="fill: none; stroke: #eeeeee; stroke-width: 0.5; stroke-linecap: square"/>
     </g>
     <g id="line2d_46">
      <g>
       <use xlink:href="#ma61cdbec31" x="643.275587" y="339.84" style="stroke: #000000; stroke-width: 0.6"/>
      </g>
     </g>
    </g>
    <g id="xtick_24">
     <g id="line2d_47">
      <path d="M 661.998866 339.84 
L 661.998866 7.2 
" clip-path="url(#p539f9c7fc7)" style="fill: none; stroke: #eeeeee; stroke-width: 0.5; stroke-linecap: square"/>
     </g>
     <g id="line2d_48">
      <g>
       <use xlink:href="#ma61cdbec31" x="661.998866" y="339.84" style="stroke: #000000; stroke-width: 0.6"/>
      </g>
     </g>
    </g>
    <g id="xtick_25">
     <g id="line2d_49">
      <path d="M 680.722145 339.84 
L 680.722145 7.2 
" clip-path="url(#p539f9c7fc7)" style="fill: none; stroke: #eeeeee; stroke-width: 0.5; stroke-linecap: square"/>
     </g>
     <g id="line2d_50">
      <g>
       <use xlink:href="#ma61cdbec31" x="680.722145" y="339.84" style="stroke: #000000; stroke-width: 0.6"/>
      </g>
     </g>
    </g>
    <g id="xtick_26">
     <g id="line2d_51">
      <path d="M 699.445424 339.84 
L 699.445424 7.2 
" clip-path="url(#p539f9c7fc7)" style="fill: none; stroke: #eeeeee; stroke-width: 0.5; stroke-linecap: square"/>
     </g>
     <g id="line2d_52">
      <g>
       <use xlink:href="#ma61cdbec31" x="699.445424" y="339.84" style="stroke: #000000; stroke-width: 0.6"/>
      </g>
     </g>
    </g>
    <g id="xtick_27">
     <g id="line2d_53">
      <path d="M 736.891982 339.84 
L 736.891982 7.2 
" clip-path="url(#p539f9c7fc7)" style="fill: none; stroke: #eeeeee; stroke-width: 0.5; stroke-linecap: square"/>
     </g>
     <g id="line2d_54">
      <g>
       <use xlink:href="#ma61cdbec31" x="736.891982" y="339.84" style="stroke: #000000; stroke-width: 0.6"/>
      </g>
     </g>
    </g>
    <g id="xtick_28">
     <g id="line2d_55">
      <path d="M 755.61526 339.84 
L 755.61526 7.2 
" clip-path="url(#p539f9c7fc7)" style="fill: none; stroke: #eeeeee; stroke-width: 0.5; stroke-linecap: square"/>
     </g>
     <g id="line2d_56">
      <g>
       <use xlink:href="#ma61cdbec31" x="755.61526" y="339.84" style="stroke: #000000; stroke-width: 0.6"/>
      </g>
     </g>
    </g>
    <g id="xtick_29">
     <g id="line2d_57">
      <path d="M 774.338539 339.84 
L 774.338539 7.2 
" clip-path="url(#p539f9c7fc7)" style="fill: none; stroke: #eeeeee; stroke-width: 0.5; stroke-linecap: square"/>
     </g>
     <g id="line2d_58">
      <g>
       <use xlink:href="#ma61cdbec31" x="774.338539" y="339.84" style="stroke: #000000; stroke-width: 0.6"/>
      </g>
     </g>
    </g>
    <g id="xtick_30">
     <g id="line2d_59">
      <path d="M 793.061818 339.84 
L 793.061818 7.2 
" clip-path="url(#p539f9c7fc7)" style="fill: none; stroke: #eeeeee; stroke-width: 0.5; stroke-linecap: square"/>
     </g>
     <g id="line2d_60">
      <g>
       <use xlink:href="#ma61cdbec31" x="793.061818" y="339.84" style="stroke: #000000; stroke-width: 0.6"/>
      </g>
     </g>
    </g>
    <g id="xtick_31">
     <g id="line2d_61">
      <path d="M 830.508376 339.84 
L 830.508376 7.2 
" clip-path="url(#p539f9c7fc7)" style="fill: none; stroke: #eeeeee; stroke-width: 0.5; stroke-linecap: square"/>
     </g>
     <g id="line2d_62">
      <g>
       <use xlink:href="#ma61cdbec31" x="830.508376" y="339.84" style="stroke: #000000; stroke-width: 0.6"/>
      </g>
     </g>
    </g>
    <g id="xtick_32">
     <g id="line2d_63">
      <path d="M 849.231655 339.84 
L 849.231655 7.2 
" clip-path="url(#p539f9c7fc7)" style="fill: none; stroke: #eeeeee; stroke-width: 0.5; stroke-linecap: square"/>
     </g>
     <g id="line2d_64">
      <g>
       <use xlink:href="#ma61cdbec31" x="849.231655" y="339.84" style="stroke: #000000; stroke-width: 0.6"/>
      </g>
     </g>
    </g>
    <g id="xtick_33">
     <g id="line2d_65">
      <path d="M 867.954934 339.84 
L 867.954934 7.2 
" clip-path="url(#p539f9c7fc7)" style="fill: none; stroke: #eeeeee; stroke-width: 0.5; stroke-linecap: square"/>
     </g>
     <g id="line2d_66">
      <g>
       <use xlink:href="#ma61cdbec31" x="867.954934" y="339.84" style="stroke: #000000; stroke-width: 0.6"/>
      </g>
     </g>
    </g>
    <g id="xtick_34">
     <g id="line2d_67">
      <path d="M 886.678213 339.84 
L 886.678213 7.2 
" clip-path="url(#p539f9c7fc7)" style="fill: none; stroke: #eeeeee; stroke-width: 0.5; stroke-linecap: square"/>
     </g>
     <g id="line2d_68">
      <g>
       <use xlink:href="#ma61cdbec31" x="886.678213" y="339.84" style="stroke: #000000; stroke-width: 0.6"/>
      </g>
     </g>
    </g>
    <g id="xtick_35">
     <g id="line2d_69">
      <path d="M 924.12477 339.84 
L 924.12477 7.2 
" clip-path="url(#p539f9c7fc7)" style="fill: none; stroke: #eeeeee; stroke-width: 0.5; stroke-linecap: square"/>
     </g>
     <g id="line2d_70">
      <g>
       <use xlink:href="#ma61cdbec31" x="924.12477" y="339.84" style="stroke: #000000; stroke-width: 0.6"/>
      </g>
     </g>
    </g>
    <g id="xtick_36">
     <g id="line2d_71">
      <path d="M 942.848049 339.84 
L 942.848049 7.2 
" clip-path="url(#p539f9c7fc7)" style="fill: none; stroke: #eeeeee; stroke-width: 0.5; stroke-linecap: square"/>
     </g>
     <g id="line2d_72">
      <g>
       <use xlink:href="#ma61cdbec31" x="942.848049" y="339.84" style="stroke: #000000; stroke-width: 0.6"/>
      </g>
     </g>
    </g>
    <g id="xtick_37">
     <g id="line2d_73">
      <path d="M 961.571328 339.84 
L 961.571328 7.2 
" clip-path="url(#p539f9c7fc7)" style="fill: none; stroke: #eeeeee; stroke-width: 0.5; stroke-linecap: square"/>
     </g>
     <g id="line2d_74">
      <g>
       <use xlink:href="#ma61cdbec31" x="961.571328" y="339.84" style="stroke: #000000; stroke-width: 0.6"/>
      </g>
     </g>
    </g>
    <g id="xtick_38">
     <g id="line2d_75">
      <path d="M 980.294607 339.84 
L 980.294607 7.2 
" clip-path="url(#p539f9c7fc7)" style="fill: none; stroke: #eeeeee; stroke-width: 0.5; stroke-linecap: square"/>
     </g>
     <g id="line2d_76">
      <g>
       <use xlink:href="#ma61cdbec31" x="980.294607" y="339.84" style="stroke: #000000; stroke-width: 0.6"/>
      </g>
     </g>
    </g>
    <g id="xtick_39">
     <g id="line2d_77">
      <path d="M 1017.741165 339.84 
L 1017.741165 7.2 
" clip-path="url(#p539f9c7fc7)" style="fill: none; stroke: #eeeeee; stroke-width: 0.5; stroke-linecap: square"/>
     </g>
     <g id="line2d_78">
      <g>
       <use xlink:href="#ma61cdbec31" x="1017.741165" y="339.84" style="stroke: #000000; stroke-width: 0.6"/>
      </g>
     </g>
    </g>
    <g id="xtick_40">
     <g id="line2d_79">
      <path d="M 1036.464444 339.84 
L 1036.464444 7.2 
" clip-path="url(#p539f9c7fc7)" style="fill: none; stroke: #eeeeee; stroke-width: 0.5; stroke-linecap: square"/>
     </g>
     <g id="line2d_80">
      <g>
       <use xlink:href="#ma61cdbec31" x="1036.464444" y="339.84" style="stroke: #000000; stroke-width: 0.6"/>
      </g>
     </g>
    </g>
    <g id="xtick_41">
     <g id="line2d_81">
      <path d="M 1055.187723 339.84 
L 1055.187723 7.2 
" clip-path="url(#p539f9c7fc7)" style="fill: none; stroke: #eeeeee; stroke-width: 0.5; stroke-linecap: square"/>
     </g>
     <g id="line2d_82">
      <g>
       <use xlink:href="#ma61cdbec31" x="1055.187723" y="339.84" style="stroke: #000000; stroke-width: 0.6"/>
      </g>
     </g>
    </g>
    <g id="xtick_42">
     <g id="line2d_83">
      <path d="M 1073.911001 339.84 
L 1073.911001 7.2 
" clip-path="url(#p539f9c7fc7)" style="fill: none; stroke: #eeeeee; stroke-width: 0.5; stroke-linecap: square"/>
     </g>
     <g id="line2d_84">
      <g>
       <use xlink:href="#ma61cdbec31" x="1073.911001" y="339.84" style="stroke: #000000; stroke-width: 0.6"/>
      </g>
     </g>
    </g>
    <g id="xtick_43">
     <g id="line2d_85">
      <path d="M 1111.357559 339.84 
L 1111.357559 7.2 
" clip-path="url(#p539f9c7fc7)" style="fill: none; stroke: #eeeeee; stroke-width: 0.5; stroke-linecap: square"/>
     </g>
     <g id="line2d_86">
      <g>
       <use xlink:href="#ma61cdbec31" x="1111.357559" y="339.84" style="stroke: #000000; stroke-width: 0.6"/>
      </g>
     </g>
    </g>
    <g id="xtick_44">
     <g id="line2d_87">
      <path d="M 1130.080838 339.84 
L 1130.080838 7.2 
" clip-path="url(#p539f9c7fc7)" style="fill: none; stroke: #eeeeee; stroke-width: 0.5; stroke-linecap: square"/>
     </g>
     <g id="line2d_88">
      <g>
       <use xlink:href="#ma61cdbec31" x="1130.080838" y="339.84" style="stroke: #000000; stroke-width: 0.6"/>
      </g>
     </g>
    </g>
    <g id="xtick_45">
     <g id="line2d_89">
      <path d="M 1148.804117 339.84 
L 1148.804117 7.2 
" clip-path="url(#p539f9c7fc7)" style="fill: none; stroke: #eeeeee; stroke-width: 0.5; stroke-linecap: square"/>
     </g>
     <g id="line2d_90">
      <g>
       <use xlink:href="#ma61cdbec31" x="1148.804117" y="339.84" style="stroke: #000000; stroke-width: 0.6"/>
      </g>
     </g>
    </g>
    <g id="xtick_46">
     <g id="line2d_91">
      <path d="M 1167.527396 339.84 
L 1167.527396 7.2 
" clip-path="url(#p539f9c7fc7)" style="fill: none; stroke: #eeeeee; stroke-width: 0.5; stroke-linecap: square"/>
     </g>
     <g id="line2d_92">
      <g>
       <use xlink:href="#ma61cdbec31" x="1167.527396" y="339.84" style="stroke: #000000; stroke-width: 0.6"/>
      </g>
     </g>
    </g>
    <g id="xtick_47">
     <g id="line2d_93">
      <path d="M 1204.973954 339.84 
L 1204.973954 7.2 
" clip-path="url(#p539f9c7fc7)" style="fill: none; stroke: #eeeeee; stroke-width: 0.5; stroke-linecap: square"/>
     </g>
     <g id="line2d_94">
      <g>
       <use xlink:href="#ma61cdbec31" x="1204.973954" y="339.84" style="stroke: #000000; stroke-width: 0.6"/>
      </g>
     </g>
    </g>
    <g id="xtick_48">
     <g id="line2d_95">
      <path d="M 1223.697233 339.84 
L 1223.697233 7.2 
" clip-path="url(#p539f9c7fc7)" style="fill: none; stroke: #eeeeee; stroke-width: 0.5; stroke-linecap: square"/>
     </g>
     <g id="line2d_96">
      <g>
       <use xlink:href="#ma61cdbec31" x="1223.697233" y="339.84" style="stroke: #000000; stroke-width: 0.6"/>
      </g>
     </g>
    </g>
   </g>
   <g id="matplotlib.axis_2">
    <g id="ytick_1">
     <g id="line2d_97">
      <path d="M 343.703125 309.212308 
L 1236.503125 309.212308 
" clip-path="url(#p539f9c7fc7)" style="fill: none; stroke: #dddddd; stroke-width: 0.8; stroke-linecap: square"/>
     </g>
     <g id="line2d_98">
      <defs>
       <path id="m0b416f7815" d="M 0 0 
L -3.5 0 
" style="stroke: #000000; stroke-width: 0.8"/>
      </defs>
      <g>
       <use xlink:href="#m0b416f7815" x="343.703125" y="309.212308" style="stroke: #000000; stroke-width: 0.8"/>
      </g>
     </g>
     <g id="text_11">
      <!-- TBB_AFFINITY -->
      <g transform="translate(199.1625 316.53262) scale(0.2 -0.2)">
       <defs>
        <path id="DejaVuSans-54" d="M -19 4666 
L 3928 4666 
L 3928 4134 
L 2272 4134 
L 2272 0 
L 1638 0 
L 1638 4134 
L -19 4134 
L -19 4666 
z
" transform="scale(0.015625)"/>
        <path id="DejaVuSans-42" d="M 1259 2228 
L 1259 519 
L 2272 519 
Q 2781 519 3026 730 
Q 3272 941 3272 1375 
Q 3272 1813 3026 2020 
Q 2781 2228 2272 2228 
L 1259 2228 
z
M 1259 4147 
L 1259 2741 
L 2194 2741 
Q 2656 2741 2882 2914 
Q 3109 3088 3109 3444 
Q 3109 3797 2882 3972 
Q 2656 4147 2194 4147 
L 1259 4147 
z
M 628 4666 
L 2241 4666 
Q 2963 4666 3353 4366 
Q 3744 4066 3744 3513 
Q 3744 3084 3544 2831 
Q 3344 2578 2956 2516 
Q 3422 2416 3680 2098 
Q 3938 1781 3938 1306 
Q 3938 681 3513 340 
Q 3088 0 2303 0 
L 628 0 
L 628 4666 
z
" transform="scale(0.015625)"/>
        <path id="DejaVuSans-5f" d="M 3263 -1063 
L 3263 -1509 
L -63 -1509 
L -63 -1063 
L 3263 -1063 
z
" transform="scale(0.015625)"/>
        <path id="DejaVuSans-41" d="M 2188 4044 
L 1331 1722 
L 3047 1722 
L 2188 4044 
z
M 1831 4666 
L 2547 4666 
L 4325 0 
L 3669 0 
L 3244 1197 
L 1141 1197 
L 716 0 
L 50 0 
L 1831 4666 
z
" transform="scale(0.015625)"/>
        <path id="DejaVuSans-46" d="M 628 4666 
L 3309 4666 
L 3309 4134 
L 1259 4134 
L 1259 2759 
L 3109 2759 
L 3109 2228 
L 1259 2228 
L 1259 0 
L 628 0 
L 628 4666 
z
" transform="scale(0.015625)"/>
        <path id="DejaVuSans-49" d="M 628 4666 
L 1259 4666 
L 1259 0 
L 628 0 
L 628 4666 
z
" transform="scale(0.015625)"/>
        <path id="DejaVuSans-4e" d="M 628 4666 
L 1478 4666 
L 3547 763 
L 3547 4666 
L 4159 4666 
L 4159 0 
L 3309 0 
L 1241 3903 
L 1241 0 
L 628 0 
L 628 4666 
z
" transform="scale(0.015625)"/>
        <path id="DejaVuSans-59" d="M -13 4666 
L 666 4666 
L 1959 2747 
L 3244 4666 
L 3922 4666 
L 2272 2222 
L 2272 0 
L 1638 0 
L 1638 2222 
L -13 4666 
z
" transform="scale(0.015625)"/>
       </defs>
       <use xlink:href="#DejaVuSans-54"/>
       <use xlink:href="#DejaVuSans-42" x="61.083984"/>
       <use xlink:href="#DejaVuSans-42" x="129.6875"/>
       <use xlink:href="#DejaVuSans-5f" x="198.291016"/>
       <use xlink:href="#DejaVuSans-41" x="248.291016"/>
       <use xlink:href="#DejaVuSans-46" x="316.699219"/>
       <use xlink:href="#DejaVuSans-46" x="374.21875"/>
       <use xlink:href="#DejaVuSans-49" x="431.738281"/>
       <use xlink:href="#DejaVuSans-4e" x="461.230469"/>
       <use xlink:href="#DejaVuSans-49" x="536.035156"/>
       <use xlink:href="#DejaVuSans-54" x="565.527344"/>
       <use xlink:href="#DejaVuSans-59" x="626.611328"/>
      </g>
     </g>
    </g>
    <g id="ytick_2">
     <g id="line2d_99">
      <path d="M 343.703125 270.443077 
L 1236.503125 270.443077 
" clip-path="url(#p539f9c7fc7)" style="fill: none; stroke: #dddddd; stroke-width: 0.8; stroke-linecap: square"/>
     </g>
     <g id="line2d_100">
      <g>
       <use xlink:href="#m0b416f7815" x="343.703125" y="270.443077" style="stroke: #000000; stroke-width: 0.8"/>
      </g>
     </g>
     <g id="text_12">
      <!-- TBB_SIMPLE -->
      <g transform="translate(215.35 277.864952) scale(0.2 -0.2)">
       <defs>
        <path id="DejaVuSans-53" d="M 3425 4513 
L 3425 3897 
Q 3066 4069 2747 4153 
Q 2428 4238 2131 4238 
Q 1616 4238 1336 4038 
Q 1056 3838 1056 3469 
Q 1056 3159 1242 3001 
Q 1428 2844 1947 2747 
L 2328 2669 
Q 3034 2534 3370 2195 
Q 3706 1856 3706 1288 
Q 3706 609 3251 259 
Q 2797 -91 1919 -91 
Q 1588 -91 1214 -16 
Q 841 59 441 206 
L 441 856 
Q 825 641 1194 531 
Q 1563 422 1919 422 
Q 2459 422 2753 634 
Q 3047 847 3047 1241 
Q 3047 1584 2836 1778 
Q 2625 1972 2144 2069 
L 1759 2144 
Q 1053 2284 737 2584 
Q 422 2884 422 3419 
Q 422 4038 858 4394 
Q 1294 4750 2059 4750 
Q 2388 4750 2728 4690 
Q 3069 4631 3425 4513 
z
" transform="scale(0.015625)"/>
        <path id="DejaVuSans-4d" d="M 628 4666 
L 1569 4666 
L 2759 1491 
L 3956 4666 
L 4897 4666 
L 4897 0 
L 4281 0 
L 4281 4097 
L 3078 897 
L 2444 897 
L 1241 4097 
L 1241 0 
L 628 0 
L 628 4666 
z
" transform="scale(0.015625)"/>
        <path id="DejaVuSans-50" d="M 1259 4147 
L 1259 2394 
L 2053 2394 
Q 2494 2394 2734 2622 
Q 2975 2850 2975 3272 
Q 2975 3691 2734 3919 
Q 2494 4147 2053 4147 
L 1259 4147 
z
M 628 4666 
L 2053 4666 
Q 2838 4666 3239 4311 
Q 3641 3956 3641 3272 
Q 3641 2581 3239 2228 
Q 2838 1875 2053 1875 
L 1259 1875 
L 1259 0 
L 628 0 
L 628 4666 
z
" transform="scale(0.015625)"/>
        <path id="DejaVuSans-4c" d="M 628 4666 
L 1259 4666 
L 1259 531 
L 3531 531 
L 3531 0 
L 628 0 
L 628 4666 
z
" transform="scale(0.015625)"/>
        <path id="DejaVuSans-45" d="M 628 4666 
L 3578 4666 
L 3578 4134 
L 1259 4134 
L 1259 2753 
L 3481 2753 
L 3481 2222 
L 1259 2222 
L 1259 531 
L 3634 531 
L 3634 0 
L 628 0 
L 628 4666 
z
" transform="scale(0.015625)"/>
       </defs>
       <use xlink:href="#DejaVuSans-54"/>
       <use xlink:href="#DejaVuSans-42" x="61.083984"/>
       <use xlink:href="#DejaVuSans-42" x="129.6875"/>
       <use xlink:href="#DejaVuSans-5f" x="198.291016"/>
       <use xlink:href="#DejaVuSans-53" x="248.291016"/>
       <use xlink:href="#DejaVuSans-49" x="311.767578"/>
       <use xlink:href="#DejaVuSans-4d" x="341.259766"/>
       <use xlink:href="#DejaVuSans-50" x="427.539062"/>
       <use xlink:href="#DejaVuSans-4c" x="487.841797"/>
       <use xlink:href="#DejaVuSans-45" x="543.554688"/>
      </g>
     </g>
    </g>
    <g id="ytick_3">
     <g id="line2d_101">
      <path d="M 343.703125 231.673846 
L 1236.503125 231.673846 
" clip-path="url(#p539f9c7fc7)" style="fill: none; stroke: #dddddd; stroke-width: 0.8; stroke-linecap: square"/>
     </g>
     <g id="line2d_102">
      <g>
       <use xlink:href="#m0b416f7815" x="343.703125" y="231.673846" style="stroke: #000000; stroke-width: 0.8"/>
      </g>
     </g>
     <g id="text_13">
      <!-- TBB_AUTO -->
      <g transform="translate(230.765625 239.095721) scale(0.2 -0.2)">
       <defs>
        <path id="DejaVuSans-55" d="M 556 4666 
L 1191 4666 
L 1191 1831 
Q 1191 1081 1462 751 
Q 1734 422 2344 422 
Q 2950 422 3222 751 
Q 3494 1081 3494 1831 
L 3494 4666 
L 4128 4666 
L 4128 1753 
Q 4128 841 3676 375 
Q 3225 -91 2344 -91 
Q 1459 -91 1007 375 
Q 556 841 556 1753 
L 556 4666 
z
" transform="scale(0.015625)"/>
        <path id="DejaVuSans-4f" d="M 2522 4238 
Q 1834 4238 1429 3725 
Q 1025 3213 1025 2328 
Q 1025 1447 1429 934 
Q 1834 422 2522 422 
Q 3209 422 3611 934 
Q 4013 1447 4013 2328 
Q 4013 3213 3611 3725 
Q 3209 4238 2522 4238 
z
M 2522 4750 
Q 3503 4750 4090 4092 
Q 4678 3434 4678 2328 
Q 4678 1225 4090 567 
Q 3503 -91 2522 -91 
Q 1538 -91 948 565 
Q 359 1222 359 2328 
Q 359 3434 948 4092 
Q 1538 4750 2522 4750 
z
" transform="scale(0.015625)"/>
       </defs>
       <use xlink:href="#DejaVuSans-54"/>
       <use xlink:href="#DejaVuSans-42" x="61.083984"/>
       <use xlink:href="#DejaVuSans-42" x="129.6875"/>
       <use xlink:href="#DejaVuSans-5f" x="198.291016"/>
       <use xlink:href="#DejaVuSans-41" x="248.291016"/>
       <use xlink:href="#DejaVuSans-55" x="316.699219"/>
       <use xlink:href="#DejaVuSans-54" x="389.892578"/>
       <use xlink:href="#DejaVuSans-4f" x="450.976562"/>
      </g>
     </g>
    </g>
    <g id="ytick_4">
     <g id="line2d_103">
      <path d="M 343.703125 192.904615 
L 1236.503125 192.904615 
" clip-path="url(#p539f9c7fc7)" style="fill: none; stroke: #dddddd; stroke-width: 0.8; stroke-linecap: square"/>
     </g>
     <g id="line2d_104">
      <g>
       <use xlink:href="#m0b416f7815" x="343.703125" y="192.904615" style="stroke: #000000; stroke-width: 0.8"/>
      </g>
     </g>
     <g id="text_14">
      <!-- OMP_STATIC -->
      <g transform="translate(214.06875 200.32649) scale(0.2 -0.2)">
       <defs>
        <path id="DejaVuSans-43" d="M 4122 4306 
L 4122 3641 
Q 3803 3938 3442 4084 
Q 3081 4231 2675 4231 
Q 1875 4231 1450 3742 
Q 1025 3253 1025 2328 
Q 1025 1406 1450 917 
Q 1875 428 2675 428 
Q 3081 428 3442 575 
Q 3803 722 4122 1019 
L 4122 359 
Q 3791 134 3420 21 
Q 3050 -91 2638 -91 
Q 1578 -91 968 557 
Q 359 1206 359 2328 
Q 359 3453 968 4101 
Q 1578 4750 2638 4750 
Q 3056 4750 3426 4639 
Q 3797 4528 4122 4306 
z
" transform="scale(0.015625)"/>
       </defs>
       <use xlink:href="#DejaVuSans-4f"/>
       <use xlink:href="#DejaVuSans-4d" x="78.710938"/>
       <use xlink:href="#DejaVuSans-50" x="164.990234"/>
       <use xlink:href="#DejaVuSans-5f" x="225.292969"/>
       <use xlink:href="#DejaVuSans-53" x="275.292969"/>
       <use xlink:href="#DejaVuSans-54" x="338.769531"/>
       <use xlink:href="#DejaVuSans-41" x="392.103516"/>
       <use xlink:href="#DejaVuSans-54" x="452.761719"/>
       <use xlink:href="#DejaVuSans-49" x="513.845703"/>
       <use xlink:href="#DejaVuSans-43" x="543.337891"/>
      </g>
     </g>
    </g>
    <g id="ytick_5">
     <g id="line2d_105">
      <path d="M 343.703125 154.135385 
L 1236.503125 154.135385 
" clip-path="url(#p539f9c7fc7)" style="fill: none; stroke: #dddddd; stroke-width: 0.8; stroke-linecap: square"/>
     </g>
     <g id="line2d_106">
      <g>
       <use xlink:href="#m0b416f7815" x="343.703125" y="154.135385" style="stroke: #000000; stroke-width: 0.8"/>
      </g>
     </g>
     <g id="text_15">
      <!-- OMP_GUIDED_MONOTONIC -->
      <g transform="translate(65.678125 161.55726) scale(0.2 -0.2)">
       <defs>
        <path id="DejaVuSans-47" d="M 3809 666 
L 3809 1919 
L 2778 1919 
L 2778 2438 
L 4434 2438 
L 4434 434 
Q 4069 175 3628 42 
Q 3188 -91 2688 -91 
Q 1594 -91 976 548 
Q 359 1188 359 2328 
Q 359 3472 976 4111 
Q 1594 4750 2688 4750 
Q 3144 4750 3555 4637 
Q 3966 4525 4313 4306 
L 4313 3634 
Q 3963 3931 3569 4081 
Q 3175 4231 2741 4231 
Q 1884 4231 1454 3753 
Q 1025 3275 1025 2328 
Q 1025 1384 1454 906 
Q 1884 428 2741 428 
Q 3075 428 3337 486 
Q 3600 544 3809 666 
z
" transform="scale(0.015625)"/>
        <path id="DejaVuSans-44" d="M 1259 4147 
L 1259 519 
L 2022 519 
Q 2988 519 3436 956 
Q 3884 1394 3884 2338 
Q 3884 3275 3436 3711 
Q 2988 4147 2022 4147 
L 1259 4147 
z
M 628 4666 
L 1925 4666 
Q 3281 4666 3915 4102 
Q 4550 3538 4550 2338 
Q 4550 1131 3912 565 
Q 3275 0 1925 0 
L 628 0 
L 628 4666 
z
" transform="scale(0.015625)"/>
       </defs>
       <use xlink:href="#DejaVuSans-4f"/>
       <use xlink:href="#DejaVuSans-4d" x="78.710938"/>
       <use xlink:href="#DejaVuSans-50" x="164.990234"/>
       <use xlink:href="#DejaVuSans-5f" x="225.292969"/>
       <use xlink:href="#DejaVuSans-47" x="275.292969"/>
       <use xlink:href="#DejaVuSans-55" x="352.783203"/>
       <use xlink:href="#DejaVuSans-49" x="425.976562"/>
       <use xlink:href="#DejaVuSans-44" x="455.46875"/>
       <use xlink:href="#DejaVuSans-45" x="532.470703"/>
       <use xlink:href="#DejaVuSans-44" x="595.654297"/>
       <use xlink:href="#DejaVuSans-5f" x="672.65625"/>
       <use xlink:href="#DejaVuSans-4d" x="722.65625"/>
       <use xlink:href="#DejaVuSans-4f" x="808.935547"/>
       <use xlink:href="#DejaVuSans-4e" x="887.646484"/>
       <use xlink:href="#DejaVuSans-4f" x="962.451172"/>
       <use xlink:href="#DejaVuSans-54" x="1041.162109"/>
       <use xlink:href="#DejaVuSans-4f" x="1102.246094"/>
       <use xlink:href="#DejaVuSans-4e" x="1180.957031"/>
       <use xlink:href="#DejaVuSans-49" x="1255.761719"/>
       <use xlink:href="#DejaVuSans-43" x="1285.253906"/>
      </g>
     </g>
    </g>
    <g id="ytick_6">
     <g id="line2d_107">
      <path d="M 343.703125 115.366154 
L 1236.503125 115.366154 
" clip-path="url(#p539f9c7fc7)" style="fill: none; stroke: #dddddd; stroke-width: 0.8; stroke-linecap: square"/>
     </g>
     <g id="line2d_108">
      <g>
       <use xlink:href="#m0b416f7815" x="343.703125" y="115.366154" style="stroke: #000000; stroke-width: 0.8"/>
      </g>
     </g>
     <g id="text_16">
      <!-- OMP_DYNAMIC_NONMONOTONIC -->
      <g transform="translate(7.2 122.788029) scale(0.2 -0.2)">
       <use xlink:href="#DejaVuSans-4f"/>
       <use xlink:href="#DejaVuSans-4d" x="78.710938"/>
       <use xlink:href="#DejaVuSans-50" x="164.990234"/>
       <use xlink:href="#DejaVuSans-5f" x="225.292969"/>
       <use xlink:href="#DejaVuSans-44" x="275.292969"/>
       <use xlink:href="#DejaVuSans-59" x="346.794922"/>
       <use xlink:href="#DejaVuSans-4e" x="407.878906"/>
       <use xlink:href="#DejaVuSans-41" x="482.683594"/>
       <use xlink:href="#DejaVuSans-4d" x="551.091797"/>
       <use xlink:href="#DejaVuSans-49" x="637.371094"/>
       <use xlink:href="#DejaVuSans-43" x="666.863281"/>
       <use xlink:href="#DejaVuSans-5f" x="736.6875"/>
       <use xlink:href="#DejaVuSans-4e" x="786.6875"/>
       <use xlink:href="#DejaVuSans-4f" x="861.492188"/>
       <use xlink:href="#DejaVuSans-4e" x="940.203125"/>
       <use xlink:href="#DejaVuSans-4d" x="1015.007812"/>
       <use xlink:href="#DejaVuSans-4f" x="1101.287109"/>
       <use xlink:href="#DejaVuSans-4e" x="1179.998047"/>
       <use xlink:href="#DejaVuSans-4f" x="1254.802734"/>
       <use xlink:href="#DejaVuSans-54" x="1333.513672"/>
       <use xlink:href="#DejaVuSans-4f" x="1394.597656"/>
       <use xlink:href="#DejaVuSans-4e" x="1473.308594"/>
       <use xlink:href="#DejaVuSans-49" x="1548.113281"/>
       <use xlink:href="#DejaVuSans-43" x="1577.605469"/>
      </g>
     </g>
    </g>
    <g id="ytick_7">
     <g id="line2d_109">
      <path d="M 343.703125 76.596923 
L 1236.503125 76.596923 
" clip-path="url(#p539f9c7fc7)" style="fill: none; stroke: #dddddd; stroke-width: 0.8; stroke-linecap: square"/>
     </g>
     <g id="line2d_110">
      <g>
       <use xlink:href="#m0b416f7815" x="343.703125" y="76.596923" style="stroke: #000000; stroke-width: 0.8"/>
      </g>
     </g>
     <g id="text_17">
      <!-- OMP_GUIDED_NONMONOTONIC -->
      <g transform="translate(20.009375 84.018798) scale(0.2 -0.2)">
       <use xlink:href="#DejaVuSans-4f"/>
       <use xlink:href="#DejaVuSans-4d" x="78.710938"/>
       <use xlink:href="#DejaVuSans-50" x="164.990234"/>
       <use xlink:href="#DejaVuSans-5f" x="225.292969"/>
       <use xlink:href="#DejaVuSans-47" x="275.292969"/>
       <use xlink:href="#DejaVuSans-55" x="352.783203"/>
       <use xlink:href="#DejaVuSans-49" x="425.976562"/>
       <use xlink:href="#DejaVuSans-44" x="455.46875"/>
       <use xlink:href="#DejaVuSans-45" x="532.470703"/>
       <use xlink:href="#DejaVuSans-44" x="595.654297"/>
       <use xlink:href="#DejaVuSans-5f" x="672.65625"/>
       <use xlink:href="#DejaVuSans-4e" x="722.65625"/>
       <use xlink:href="#DejaVuSans-4f" x="797.460938"/>
       <use xlink:href="#DejaVuSans-4e" x="876.171875"/>
       <use xlink:href="#DejaVuSans-4d" x="950.976562"/>
       <use xlink:href="#DejaVuSans-4f" x="1037.255859"/>
       <use xlink:href="#DejaVuSans-4e" x="1115.966797"/>
       <use xlink:href="#DejaVuSans-4f" x="1190.771484"/>
       <use xlink:href="#DejaVuSans-54" x="1269.482422"/>
       <use xlink:href="#DejaVuSans-4f" x="1330.566406"/>
       <use xlink:href="#DejaVuSans-4e" x="1409.277344"/>
       <use xlink:href="#DejaVuSans-49" x="1484.082031"/>
       <use xlink:href="#DejaVuSans-43" x="1513.574219"/>
      </g>
     </g>
    </g>
    <g id="ytick_8">
     <g id="line2d_111">
      <path d="M 343.703125 37.827692 
L 1236.503125 37.827692 
" clip-path="url(#p539f9c7fc7)" style="fill: none; stroke: #dddddd; stroke-width: 0.8; stroke-linecap: square"/>
     </g>
     <g id="line2d_112">
      <g>
       <use xlink:href="#m0b416f7815" x="343.703125" y="37.827692" style="stroke: #000000; stroke-width: 0.8"/>
      </g>
     </g>
     <g id="text_18">
      <!-- OMP_DYNAMIC_MONOTONIC -->
      <g transform="translate(52.86875 45.249567) scale(0.2 -0.2)">
       <use xlink:href="#DejaVuSans-4f"/>
       <use xlink:href="#DejaVuSans-4d" x="78.710938"/>
       <use xlink:href="#DejaVuSans-50" x="164.990234"/>
       <use xlink:href="#DejaVuSans-5f" x="225.292969"/>
       <use xlink:href="#DejaVuSans-44" x="275.292969"/>
       <use xlink:href="#DejaVuSans-59" x="346.794922"/>
       <use xlink:href="#DejaVuSans-4e" x="407.878906"/>
       <use xlink:href="#DejaVuSans-41" x="482.683594"/>
       <use xlink:href="#DejaVuSans-4d" x="551.091797"/>
       <use xlink:href="#DejaVuSans-49" x="637.371094"/>
       <use xlink:href="#DejaVuSans-43" x="666.863281"/>
       <use xlink:href="#DejaVuSans-5f" x="736.6875"/>
       <use xlink:href="#DejaVuSans-4d" x="786.6875"/>
       <use xlink:href="#DejaVuSans-4f" x="872.966797"/>
       <use xlink:href="#DejaVuSans-4e" x="951.677734"/>
       <use xlink:href="#DejaVuSans-4f" x="1026.482422"/>
       <use xlink:href="#DejaVuSans-54" x="1105.193359"/>
       <use xlink:href="#DejaVuSans-4f" x="1166.277344"/>
       <use xlink:href="#DejaVuSans-4e" x="1244.988281"/>
       <use xlink:href="#DejaVuSans-49" x="1319.792969"/>
       <use xlink:href="#DejaVuSans-43" x="1349.285156"/>
      </g>
     </g>
    </g>
   </g>
   <g id="patch_3">
    <path d="M 343.703125 339.84 
L 343.703125 7.2 
" style="fill: none; stroke: #000000; stroke-width: 0.8; stroke-linejoin: miter; stroke-linecap: square"/>
   </g>
   <g id="patch_4">
    <path d="M 1236.503125 339.84 
L 1236.503125 7.2 
" style="fill: none; stroke: #000000; stroke-width: 0.8; stroke-linejoin: miter; stroke-linecap: square"/>
   </g>
   <g id="patch_5">
    <path d="M 343.703125 339.84 
L 1236.503125 339.84 
" style="fill: none; stroke: #000000; stroke-width: 0.8; stroke-linejoin: miter; stroke-linecap: square"/>
   </g>
   <g id="patch_6">
    <path d="M 343.703125 7.2 
L 1236.503125 7.2 
" style="fill: none; stroke: #000000; stroke-width: 0.8; stroke-linejoin: miter; stroke-linecap: square"/>
   </g>
   <g id="patch_7">
    <path d="M 343.703125 324.72 
L 361.309833 324.72 
L 361.309833 293.704615 
L 343.703125 293.704615 
z
" clip-path="url(#p539f9c7fc7)" style="fill: #1f77b4"/>
   </g>
   <g id="patch_8">
    <path d="M 343.703125 285.950769 
L 369.007326 285.950769 
L 369.007326 254.935385 
L 343.703125 254.935385 
z
" clip-path="url(#p539f9c7fc7)" style="fill: #1f77b4"/>
   </g>
   <g id="patch_9">
    <path d="M 343.703125 247.181538 
L 369.532991 247.181538 
L 369.532991 216.166154 
L 343.703125 216.166154 
z
" clip-path="url(#p539f9c7fc7)" style="fill: #1f77b4"/>
   </g>
   <g id="patch_10">
    <path d="M 343.703125 208.412308 
L 1056.284839 208.412308 
L 1056.284839 177.396923 
L 343.703125 177.396923 
z
" clip-path="url(#p539f9c7fc7)" style="fill: #1f77b4"/>
   </g>
   <g id="patch_11">
    <path d="M 343.703125 169.643077 
L 1179.325542 169.643077 
L 1179.325542 138.627692 
L 343.703125 138.627692 
z
" clip-path="url(#p539f9c7fc7)" style="fill: #1f77b4"/>
   </g>
   <g id="patch_12">
    <path d="M 343.703125 130.873846 
L 1179.59843 130.873846 
L 1179.59843 99.858462 
L 343.703125 99.858462 
z
" clip-path="url(#p539f9c7fc7)" style="fill: #1f77b4"/>
   </g>
   <g id="patch_13">
    <path d="M 343.703125 92.104615 
L 1190.592418 92.104615 
L 1190.592418 61.089231 
L 343.703125 61.089231 
z
" clip-path="url(#p539f9c7fc7)" style="fill: #1f77b4"/>
   </g>
   <g id="patch_14">
    <path d="M 343.703125 53.335385 
L 1193.988839 53.335385 
L 1193.988839 22.32 
L 343.703125 22.32 
z
" clip-path="url(#p539f9c7fc7)" style="fill: #1f77b4"/>
   </g>
  </g>
 </g>
 <defs>
  <clipPath id="p539f9c7fc7">
   <rect x="343.703125" y="7.2" width="892.8" height="332.64"/>
  </clipPath>
 </defs>
</svg>
