<?xml version="1.0" encoding="utf-8" standalone="no"?>
<!DOCTYPE svg PUBLIC "-//W3C//DTD SVG 1.1//EN"
  "http://www.w3.org/Graphics/SVG/1.1/DTD/svg11.dtd">
<svg xmlns:xlink="http://www.w3.org/1999/xlink" width="1138.23125pt" height="411.870625pt" viewBox="0 0 1138.23125 411.870625" xmlns="http://www.w3.org/2000/svg" version="1.1">
 <metadata>
  <rdf:RDF xmlns:dc="http://purl.org/dc/elements/1.1/" xmlns:cc="http://creativecommons.org/ns#" xmlns:rdf="http://www.w3.org/1999/02/22-rdf-syntax-ns#">
   <cc:Work>
    <dc:type rdf:resource="http://purl.org/dc/dcmitype/StillImage"/>
    <dc:date>2023-02-12T17:13:26.785067</dc:date>
    <dc:format>image/svg+xml</dc:format>
    <dc:creator>
     <cc:Agent>
      <dc:title>Matplotlib v3.6.2, https://matplotlib.org/</dc:title>
     </cc:Agent>
    </dc:creator>
   </cc:Work>
  </rdf:RDF>
 </metadata>
 <defs>
  <style type="text/css">*{stroke-linejoin: round; stroke-linecap: butt}</style>
 </defs>
 <g id="figure_1">
  <g id="patch_1">
   <path d="M 0 411.870625 
L 1138.23125 411.870625 
L 1138.23125 0 
L 0 0 
z
" style="fill: #ffffff"/>
  </g>
  <g id="axes_1">
   <g id="patch_2">
    <path d="M 126.63125 354.958125 
L 1131.03125 354.958125 
L 1131.03125 22.318125 
L 126.63125 22.318125 
z
" style="fill: #ffffff"/>
   </g>
   <g id="matplotlib.axis_1">
    <g id="xtick_1">
     <g id="line2d_1">
      <defs>
       <path id="m0288833ad3" d="M 0 0 
L 0 3.5 
" style="stroke: #000000; stroke-width: 0.8"/>
      </defs>
      <g>
       <use xlink:href="#m0288833ad3" x="172.285795" y="354.958125" style="stroke: #000000; stroke-width: 0.8"/>
      </g>
     </g>
     <g id="text_1">
      <!-- 0 -->
      <g transform="translate(165.923295 377.155) scale(0.2 -0.2)">
       <defs>
        <path id="DejaVuSans-30" d="M 2034 4250 
Q 1547 4250 1301 3770 
Q 1056 3291 1056 2328 
Q 1056 1369 1301 889 
Q 1547 409 2034 409 
Q 2525 409 2770 889 
Q 3016 1369 3016 2328 
Q 3016 3291 2770 3770 
Q 2525 4250 2034 4250 
z
M 2034 4750 
Q 2819 4750 3233 4129 
Q 3647 3509 3647 2328 
Q 3647 1150 3233 529 
Q 2819 -91 2034 -91 
Q 1250 -91 836 529 
Q 422 1150 422 2328 
Q 422 3509 836 4129 
Q 1250 4750 2034 4750 
z
" transform="scale(0.015625)"/>
       </defs>
       <use xlink:href="#DejaVuSans-30"/>
      </g>
     </g>
    </g>
    <g id="xtick_2">
     <g id="line2d_2">
      <g>
       <use xlink:href="#m0288833ad3" x="317.22086" y="354.958125" style="stroke: #000000; stroke-width: 0.8"/>
      </g>
     </g>
     <g id="text_2">
      <!-- 10 -->
      <g transform="translate(304.49586 377.155) scale(0.2 -0.2)">
       <defs>
        <path id="DejaVuSans-31" d="M 794 531 
L 1825 531 
L 1825 4091 
L 703 3866 
L 703 4441 
L 1819 4666 
L 2450 4666 
L 2450 531 
L 3481 531 
L 3481 0 
L 794 0 
L 794 531 
z
" transform="scale(0.015625)"/>
       </defs>
       <use xlink:href="#DejaVuSans-31"/>
       <use xlink:href="#DejaVuSans-30" x="63.623047"/>
      </g>
     </g>
    </g>
    <g id="xtick_3">
     <g id="line2d_3">
      <g>
       <use xlink:href="#m0288833ad3" x="462.155925" y="354.958125" style="stroke: #000000; stroke-width: 0.8"/>
      </g>
     </g>
     <g id="text_3">
      <!-- 20 -->
      <g transform="translate(449.430925 377.155) scale(0.2 -0.2)">
       <defs>
        <path id="DejaVuSans-32" d="M 1228 531 
L 3431 531 
L 3431 0 
L 469 0 
L 469 531 
Q 828 903 1448 1529 
Q 2069 2156 2228 2338 
Q 2531 2678 2651 2914 
Q 2772 3150 2772 3378 
Q 2772 3750 2511 3984 
Q 2250 4219 1831 4219 
Q 1534 4219 1204 4116 
Q 875 4013 500 3803 
L 500 4441 
Q 881 4594 1212 4672 
Q 1544 4750 1819 4750 
Q 2544 4750 2975 4387 
Q 3406 4025 3406 3419 
Q 3406 3131 3298 2873 
Q 3191 2616 2906 2266 
Q 2828 2175 2409 1742 
Q 1991 1309 1228 531 
z
" transform="scale(0.015625)"/>
       </defs>
       <use xlink:href="#DejaVuSans-32"/>
       <use xlink:href="#DejaVuSans-30" x="63.623047"/>
      </g>
     </g>
    </g>
    <g id="xtick_4">
     <g id="line2d_4">
      <g>
       <use xlink:href="#m0288833ad3" x="607.09099" y="354.958125" style="stroke: #000000; stroke-width: 0.8"/>
      </g>
     </g>
     <g id="text_4">
      <!-- 30 -->
      <g transform="translate(594.36599 377.155) scale(0.2 -0.2)">
       <defs>
        <path id="DejaVuSans-33" d="M 2597 2516 
Q 3050 2419 3304 2112 
Q 3559 1806 3559 1356 
Q 3559 666 3084 287 
Q 2609 -91 1734 -91 
Q 1441 -91 1130 -33 
Q 819 25 488 141 
L 488 750 
Q 750 597 1062 519 
Q 1375 441 1716 441 
Q 2309 441 2620 675 
Q 2931 909 2931 1356 
Q 2931 1769 2642 2001 
Q 2353 2234 1838 2234 
L 1294 2234 
L 1294 2753 
L 1863 2753 
Q 2328 2753 2575 2939 
Q 2822 3125 2822 3475 
Q 2822 3834 2567 4026 
Q 2313 4219 1838 4219 
Q 1578 4219 1281 4162 
Q 984 4106 628 3988 
L 628 4550 
Q 988 4650 1302 4700 
Q 1616 4750 1894 4750 
Q 2613 4750 3031 4423 
Q 3450 4097 3450 3541 
Q 3450 3153 3228 2886 
Q 3006 2619 2597 2516 
z
" transform="scale(0.015625)"/>
       </defs>
       <use xlink:href="#DejaVuSans-33"/>
       <use xlink:href="#DejaVuSans-30" x="63.623047"/>
      </g>
     </g>
    </g>
    <g id="xtick_5">
     <g id="line2d_5">
      <g>
       <use xlink:href="#m0288833ad3" x="752.026055" y="354.958125" style="stroke: #000000; stroke-width: 0.8"/>
      </g>
     </g>
     <g id="text_5">
      <!-- 40 -->
      <g transform="translate(739.301055 377.155) scale(0.2 -0.2)">
       <defs>
        <path id="DejaVuSans-34" d="M 2419 4116 
L 825 1625 
L 2419 1625 
L 2419 4116 
z
M 2253 4666 
L 3047 4666 
L 3047 1625 
L 3713 1625 
L 3713 1100 
L 3047 1100 
L 3047 0 
L 2419 0 
L 2419 1100 
L 313 1100 
L 313 1709 
L 2253 4666 
z
" transform="scale(0.015625)"/>
       </defs>
       <use xlink:href="#DejaVuSans-34"/>
       <use xlink:href="#DejaVuSans-30" x="63.623047"/>
      </g>
     </g>
    </g>
    <g id="xtick_6">
     <g id="line2d_6">
      <g>
       <use xlink:href="#m0288833ad3" x="896.96112" y="354.958125" style="stroke: #000000; stroke-width: 0.8"/>
      </g>
     </g>
     <g id="text_6">
      <!-- 50 -->
      <g transform="translate(884.23612 377.155) scale(0.2 -0.2)">
       <defs>
        <path id="DejaVuSans-35" d="M 691 4666 
L 3169 4666 
L 3169 4134 
L 1269 4134 
L 1269 2991 
Q 1406 3038 1543 3061 
Q 1681 3084 1819 3084 
Q 2600 3084 3056 2656 
Q 3513 2228 3513 1497 
Q 3513 744 3044 326 
Q 2575 -91 1722 -91 
Q 1428 -91 1123 -41 
Q 819 9 494 109 
L 494 744 
Q 775 591 1075 516 
Q 1375 441 1709 441 
Q 2250 441 2565 725 
Q 2881 1009 2881 1497 
Q 2881 1984 2565 2268 
Q 2250 2553 1709 2553 
Q 1456 2553 1204 2497 
Q 953 2441 691 2322 
L 691 4666 
z
" transform="scale(0.015625)"/>
       </defs>
       <use xlink:href="#DejaVuSans-35"/>
       <use xlink:href="#DejaVuSans-30" x="63.623047"/>
      </g>
     </g>
    </g>
    <g id="xtick_7">
     <g id="line2d_7">
      <g>
       <use xlink:href="#m0288833ad3" x="1041.896185" y="354.958125" style="stroke: #000000; stroke-width: 0.8"/>
      </g>
     </g>
     <g id="text_7">
      <!-- 60 -->
      <g transform="translate(1029.171185 377.155) scale(0.2 -0.2)">
       <defs>
        <path id="DejaVuSans-36" d="M 2113 2584 
Q 1688 2584 1439 2293 
Q 1191 2003 1191 1497 
Q 1191 994 1439 701 
Q 1688 409 2113 409 
Q 2538 409 2786 701 
Q 3034 994 3034 1497 
Q 3034 2003 2786 2293 
Q 2538 2584 2113 2584 
z
M 3366 4563 
L 3366 3988 
Q 3128 4100 2886 4159 
Q 2644 4219 2406 4219 
Q 1781 4219 1451 3797 
Q 1122 3375 1075 2522 
Q 1259 2794 1537 2939 
Q 1816 3084 2150 3084 
Q 2853 3084 3261 2657 
Q 3669 2231 3669 1497 
Q 3669 778 3244 343 
Q 2819 -91 2113 -91 
Q 1303 -91 875 529 
Q 447 1150 447 2328 
Q 447 3434 972 4092 
Q 1497 4750 2381 4750 
Q 2619 4750 2861 4703 
Q 3103 4656 3366 4563 
z
" transform="scale(0.015625)"/>
       </defs>
       <use xlink:href="#DejaVuSans-36"/>
       <use xlink:href="#DejaVuSans-30" x="63.623047"/>
      </g>
     </g>
    </g>
    <g id="text_8">
     <!-- Index of thread (sorted by time of first task) -->
     <g transform="translate(408.710937 400.51125) scale(0.2 -0.2)">
      <defs>
       <path id="DejaVuSans-49" d="M 628 4666 
L 1259 4666 
L 1259 0 
L 628 0 
L 628 4666 
z
" transform="scale(0.015625)"/>
       <path id="DejaVuSans-6e" d="M 3513 2113 
L 3513 0 
L 2938 0 
L 2938 2094 
Q 2938 2591 2744 2837 
Q 2550 3084 2163 3084 
Q 1697 3084 1428 2787 
Q 1159 2491 1159 1978 
L 1159 0 
L 581 0 
L 581 3500 
L 1159 3500 
L 1159 2956 
Q 1366 3272 1645 3428 
Q 1925 3584 2291 3584 
Q 2894 3584 3203 3211 
Q 3513 2838 3513 2113 
z
" transform="scale(0.015625)"/>
       <path id="DejaVuSans-64" d="M 2906 2969 
L 2906 4863 
L 3481 4863 
L 3481 0 
L 2906 0 
L 2906 525 
Q 2725 213 2448 61 
Q 2172 -91 1784 -91 
Q 1150 -91 751 415 
Q 353 922 353 1747 
Q 353 2572 751 3078 
Q 1150 3584 1784 3584 
Q 2172 3584 2448 3432 
Q 2725 3281 2906 2969 
z
M 947 1747 
Q 947 1113 1208 752 
Q 1469 391 1925 391 
Q 2381 391 2643 752 
Q 2906 1113 2906 1747 
Q 2906 2381 2643 2742 
Q 2381 3103 1925 3103 
Q 1469 3103 1208 2742 
Q 947 2381 947 1747 
z
" transform="scale(0.015625)"/>
       <path id="DejaVuSans-65" d="M 3597 1894 
L 3597 1613 
L 953 1613 
Q 991 1019 1311 708 
Q 1631 397 2203 397 
Q 2534 397 2845 478 
Q 3156 559 3463 722 
L 3463 178 
Q 3153 47 2828 -22 
Q 2503 -91 2169 -91 
Q 1331 -91 842 396 
Q 353 884 353 1716 
Q 353 2575 817 3079 
Q 1281 3584 2069 3584 
Q 2775 3584 3186 3129 
Q 3597 2675 3597 1894 
z
M 3022 2063 
Q 3016 2534 2758 2815 
Q 2500 3097 2075 3097 
Q 1594 3097 1305 2825 
Q 1016 2553 972 2059 
L 3022 2063 
z
" transform="scale(0.015625)"/>
       <path id="DejaVuSans-78" d="M 3513 3500 
L 2247 1797 
L 3578 0 
L 2900 0 
L 1881 1375 
L 863 0 
L 184 0 
L 1544 1831 
L 300 3500 
L 978 3500 
L 1906 2253 
L 2834 3500 
L 3513 3500 
z
" transform="scale(0.015625)"/>
       <path id="DejaVuSans-20" transform="scale(0.015625)"/>
       <path id="DejaVuSans-6f" d="M 1959 3097 
Q 1497 3097 1228 2736 
Q 959 2375 959 1747 
Q 959 1119 1226 758 
Q 1494 397 1959 397 
Q 2419 397 2687 759 
Q 2956 1122 2956 1747 
Q 2956 2369 2687 2733 
Q 2419 3097 1959 3097 
z
M 1959 3584 
Q 2709 3584 3137 3096 
Q 3566 2609 3566 1747 
Q 3566 888 3137 398 
Q 2709 -91 1959 -91 
Q 1206 -91 779 398 
Q 353 888 353 1747 
Q 353 2609 779 3096 
Q 1206 3584 1959 3584 
z
" transform="scale(0.015625)"/>
       <path id="DejaVuSans-66" d="M 2375 4863 
L 2375 4384 
L 1825 4384 
Q 1516 4384 1395 4259 
Q 1275 4134 1275 3809 
L 1275 3500 
L 2222 3500 
L 2222 3053 
L 1275 3053 
L 1275 0 
L 697 0 
L 697 3053 
L 147 3053 
L 147 3500 
L 697 3500 
L 697 3744 
Q 697 4328 969 4595 
Q 1241 4863 1831 4863 
L 2375 4863 
z
" transform="scale(0.015625)"/>
       <path id="DejaVuSans-74" d="M 1172 4494 
L 1172 3500 
L 2356 3500 
L 2356 3053 
L 1172 3053 
L 1172 1153 
Q 1172 725 1289 603 
Q 1406 481 1766 481 
L 2356 481 
L 2356 0 
L 1766 0 
Q 1100 0 847 248 
Q 594 497 594 1153 
L 594 3053 
L 172 3053 
L 172 3500 
L 594 3500 
L 594 4494 
L 1172 4494 
z
" transform="scale(0.015625)"/>
       <path id="DejaVuSans-68" d="M 3513 2113 
L 3513 0 
L 2938 0 
L 2938 2094 
Q 2938 2591 2744 2837 
Q 2550 3084 2163 3084 
Q 1697 3084 1428 2787 
Q 1159 2491 1159 1978 
L 1159 0 
L 581 0 
L 581 4863 
L 1159 4863 
L 1159 2956 
Q 1366 3272 1645 3428 
Q 1925 3584 2291 3584 
Q 2894 3584 3203 3211 
Q 3513 2838 3513 2113 
z
" transform="scale(0.015625)"/>
       <path id="DejaVuSans-72" d="M 2631 2963 
Q 2534 3019 2420 3045 
Q 2306 3072 2169 3072 
Q 1681 3072 1420 2755 
Q 1159 2438 1159 1844 
L 1159 0 
L 581 0 
L 581 3500 
L 1159 3500 
L 1159 2956 
Q 1341 3275 1631 3429 
Q 1922 3584 2338 3584 
Q 2397 3584 2469 3576 
Q 2541 3569 2628 3553 
L 2631 2963 
z
" transform="scale(0.015625)"/>
       <path id="DejaVuSans-61" d="M 2194 1759 
Q 1497 1759 1228 1600 
Q 959 1441 959 1056 
Q 959 750 1161 570 
Q 1363 391 1709 391 
Q 2188 391 2477 730 
Q 2766 1069 2766 1631 
L 2766 1759 
L 2194 1759 
z
M 3341 1997 
L 3341 0 
L 2766 0 
L 2766 531 
Q 2569 213 2275 61 
Q 1981 -91 1556 -91 
Q 1019 -91 701 211 
Q 384 513 384 1019 
Q 384 1609 779 1909 
Q 1175 2209 1959 2209 
L 2766 2209 
L 2766 2266 
Q 2766 2663 2505 2880 
Q 2244 3097 1772 3097 
Q 1472 3097 1187 3025 
Q 903 2953 641 2809 
L 641 3341 
Q 956 3463 1253 3523 
Q 1550 3584 1831 3584 
Q 2591 3584 2966 3190 
Q 3341 2797 3341 1997 
z
" transform="scale(0.015625)"/>
       <path id="DejaVuSans-28" d="M 1984 4856 
Q 1566 4138 1362 3434 
Q 1159 2731 1159 2009 
Q 1159 1288 1364 580 
Q 1569 -128 1984 -844 
L 1484 -844 
Q 1016 -109 783 600 
Q 550 1309 550 2009 
Q 550 2706 781 3412 
Q 1013 4119 1484 4856 
L 1984 4856 
z
" transform="scale(0.015625)"/>
       <path id="DejaVuSans-73" d="M 2834 3397 
L 2834 2853 
Q 2591 2978 2328 3040 
Q 2066 3103 1784 3103 
Q 1356 3103 1142 2972 
Q 928 2841 928 2578 
Q 928 2378 1081 2264 
Q 1234 2150 1697 2047 
L 1894 2003 
Q 2506 1872 2764 1633 
Q 3022 1394 3022 966 
Q 3022 478 2636 193 
Q 2250 -91 1575 -91 
Q 1294 -91 989 -36 
Q 684 19 347 128 
L 347 722 
Q 666 556 975 473 
Q 1284 391 1588 391 
Q 1994 391 2212 530 
Q 2431 669 2431 922 
Q 2431 1156 2273 1281 
Q 2116 1406 1581 1522 
L 1381 1569 
Q 847 1681 609 1914 
Q 372 2147 372 2553 
Q 372 3047 722 3315 
Q 1072 3584 1716 3584 
Q 2034 3584 2315 3537 
Q 2597 3491 2834 3397 
z
" transform="scale(0.015625)"/>
       <path id="DejaVuSans-62" d="M 3116 1747 
Q 3116 2381 2855 2742 
Q 2594 3103 2138 3103 
Q 1681 3103 1420 2742 
Q 1159 2381 1159 1747 
Q 1159 1113 1420 752 
Q 1681 391 2138 391 
Q 2594 391 2855 752 
Q 3116 1113 3116 1747 
z
M 1159 2969 
Q 1341 3281 1617 3432 
Q 1894 3584 2278 3584 
Q 2916 3584 3314 3078 
Q 3713 2572 3713 1747 
Q 3713 922 3314 415 
Q 2916 -91 2278 -91 
Q 1894 -91 1617 61 
Q 1341 213 1159 525 
L 1159 0 
L 581 0 
L 581 4863 
L 1159 4863 
L 1159 2969 
z
" transform="scale(0.015625)"/>
       <path id="DejaVuSans-79" d="M 2059 -325 
Q 1816 -950 1584 -1140 
Q 1353 -1331 966 -1331 
L 506 -1331 
L 506 -850 
L 844 -850 
Q 1081 -850 1212 -737 
Q 1344 -625 1503 -206 
L 1606 56 
L 191 3500 
L 800 3500 
L 1894 763 
L 2988 3500 
L 3597 3500 
L 2059 -325 
z
" transform="scale(0.015625)"/>
       <path id="DejaVuSans-69" d="M 603 3500 
L 1178 3500 
L 1178 0 
L 603 0 
L 603 3500 
z
M 603 4863 
L 1178 4863 
L 1178 4134 
L 603 4134 
L 603 4863 
z
" transform="scale(0.015625)"/>
       <path id="DejaVuSans-6d" d="M 3328 2828 
Q 3544 3216 3844 3400 
Q 4144 3584 4550 3584 
Q 5097 3584 5394 3201 
Q 5691 2819 5691 2113 
L 5691 0 
L 5113 0 
L 5113 2094 
Q 5113 2597 4934 2840 
Q 4756 3084 4391 3084 
Q 3944 3084 3684 2787 
Q 3425 2491 3425 1978 
L 3425 0 
L 2847 0 
L 2847 2094 
Q 2847 2600 2669 2842 
Q 2491 3084 2119 3084 
Q 1678 3084 1418 2786 
Q 1159 2488 1159 1978 
L 1159 0 
L 581 0 
L 581 3500 
L 1159 3500 
L 1159 2956 
Q 1356 3278 1631 3431 
Q 1906 3584 2284 3584 
Q 2666 3584 2933 3390 
Q 3200 3197 3328 2828 
z
" transform="scale(0.015625)"/>
       <path id="DejaVuSans-6b" d="M 581 4863 
L 1159 4863 
L 1159 1991 
L 2875 3500 
L 3609 3500 
L 1753 1863 
L 3688 0 
L 2938 0 
L 1159 1709 
L 1159 0 
L 581 0 
L 581 4863 
z
" transform="scale(0.015625)"/>
       <path id="DejaVuSans-29" d="M 513 4856 
L 1013 4856 
Q 1481 4119 1714 3412 
Q 1947 2706 1947 2009 
Q 1947 1309 1714 600 
Q 1481 -109 1013 -844 
L 513 -844 
Q 928 -128 1133 580 
Q 1338 1288 1338 2009 
Q 1338 2731 1133 3434 
Q 928 4138 513 4856 
z
" transform="scale(0.015625)"/>
      </defs>
      <use xlink:href="#DejaVuSans-49"/>
      <use xlink:href="#DejaVuSans-6e" x="29.492188"/>
      <use xlink:href="#DejaVuSans-64" x="92.871094"/>
      <use xlink:href="#DejaVuSans-65" x="156.347656"/>
      <use xlink:href="#DejaVuSans-78" x="216.121094"/>
      <use xlink:href="#DejaVuSans-20" x="275.300781"/>
      <use xlink:href="#DejaVuSans-6f" x="307.087891"/>
      <use xlink:href="#DejaVuSans-66" x="368.269531"/>
      <use xlink:href="#DejaVuSans-20" x="403.474609"/>
      <use xlink:href="#DejaVuSans-74" x="435.261719"/>
      <use xlink:href="#DejaVuSans-68" x="474.470703"/>
      <use xlink:href="#DejaVuSans-72" x="537.849609"/>
      <use xlink:href="#DejaVuSans-65" x="576.712891"/>
      <use xlink:href="#DejaVuSans-61" x="638.236328"/>
      <use xlink:href="#DejaVuSans-64" x="699.515625"/>
      <use xlink:href="#DejaVuSans-20" x="762.992188"/>
      <use xlink:href="#DejaVuSans-28" x="794.779297"/>
      <use xlink:href="#DejaVuSans-73" x="833.792969"/>
      <use xlink:href="#DejaVuSans-6f" x="885.892578"/>
      <use xlink:href="#DejaVuSans-72" x="947.074219"/>
      <use xlink:href="#DejaVuSans-74" x="988.1875"/>
      <use xlink:href="#DejaVuSans-65" x="1027.396484"/>
      <use xlink:href="#DejaVuSans-64" x="1088.919922"/>
      <use xlink:href="#DejaVuSans-20" x="1152.396484"/>
      <use xlink:href="#DejaVuSans-62" x="1184.183594"/>
      <use xlink:href="#DejaVuSans-79" x="1247.660156"/>
      <use xlink:href="#DejaVuSans-20" x="1306.839844"/>
      <use xlink:href="#DejaVuSans-74" x="1338.626953"/>
      <use xlink:href="#DejaVuSans-69" x="1377.835938"/>
      <use xlink:href="#DejaVuSans-6d" x="1405.619141"/>
      <use xlink:href="#DejaVuSans-65" x="1503.03125"/>
      <use xlink:href="#DejaVuSans-20" x="1564.554688"/>
      <use xlink:href="#DejaVuSans-6f" x="1596.341797"/>
      <use xlink:href="#DejaVuSans-66" x="1657.523438"/>
      <use xlink:href="#DejaVuSans-20" x="1692.728516"/>
      <use xlink:href="#DejaVuSans-66" x="1724.515625"/>
      <use xlink:href="#DejaVuSans-69" x="1759.720703"/>
      <use xlink:href="#DejaVuSans-72" x="1787.503906"/>
      <use xlink:href="#DejaVuSans-73" x="1828.617188"/>
      <use xlink:href="#DejaVuSans-74" x="1880.716797"/>
      <use xlink:href="#DejaVuSans-20" x="1919.925781"/>
      <use xlink:href="#DejaVuSans-74" x="1951.712891"/>
      <use xlink:href="#DejaVuSans-61" x="1990.921875"/>
      <use xlink:href="#DejaVuSans-73" x="2052.201172"/>
      <use xlink:href="#DejaVuSans-6b" x="2104.300781"/>
      <use xlink:href="#DejaVuSans-29" x="2162.210938"/>
     </g>
    </g>
   </g>
   <g id="matplotlib.axis_2">
    <g id="ytick_1">
     <g id="line2d_8">
      <defs>
       <path id="m2dac1d8abe" d="M 0 0 
L -3.5 0 
" style="stroke: #000000; stroke-width: 0.8"/>
      </defs>
      <g>
       <use xlink:href="#m2dac1d8abe" x="126.63125" y="354.958125" style="stroke: #000000; stroke-width: 0.8"/>
      </g>
     </g>
     <g id="text_9">
      <!-- 0 -->
      <g transform="translate(106.90625 362.556563) scale(0.2 -0.2)">
       <use xlink:href="#DejaVuSans-30"/>
      </g>
     </g>
    </g>
    <g id="ytick_2">
     <g id="line2d_9">
      <g>
       <use xlink:href="#m2dac1d8abe" x="126.63125" y="298.915857" style="stroke: #000000; stroke-width: 0.8"/>
      </g>
     </g>
     <g id="text_10">
      <!-- 200000 -->
      <g transform="translate(43.28125 306.514295) scale(0.2 -0.2)">
       <use xlink:href="#DejaVuSans-32"/>
       <use xlink:href="#DejaVuSans-30" x="63.623047"/>
       <use xlink:href="#DejaVuSans-30" x="127.246094"/>
       <use xlink:href="#DejaVuSans-30" x="190.869141"/>
       <use xlink:href="#DejaVuSans-30" x="254.492188"/>
       <use xlink:href="#DejaVuSans-30" x="318.115234"/>
      </g>
     </g>
    </g>
    <g id="ytick_3">
     <g id="line2d_10">
      <g>
       <use xlink:href="#m2dac1d8abe" x="126.63125" y="242.87359" style="stroke: #000000; stroke-width: 0.8"/>
      </g>
     </g>
     <g id="text_11">
      <!-- 400000 -->
      <g transform="translate(43.28125 250.472027) scale(0.2 -0.2)">
       <use xlink:href="#DejaVuSans-34"/>
       <use xlink:href="#DejaVuSans-30" x="63.623047"/>
       <use xlink:href="#DejaVuSans-30" x="127.246094"/>
       <use xlink:href="#DejaVuSans-30" x="190.869141"/>
       <use xlink:href="#DejaVuSans-30" x="254.492188"/>
       <use xlink:href="#DejaVuSans-30" x="318.115234"/>
      </g>
     </g>
    </g>
    <g id="ytick_4">
     <g id="line2d_11">
      <g>
       <use xlink:href="#m2dac1d8abe" x="126.63125" y="186.831322" style="stroke: #000000; stroke-width: 0.8"/>
      </g>
     </g>
     <g id="text_12">
      <!-- 600000 -->
      <g transform="translate(43.28125 194.42976) scale(0.2 -0.2)">
       <use xlink:href="#DejaVuSans-36"/>
       <use xlink:href="#DejaVuSans-30" x="63.623047"/>
       <use xlink:href="#DejaVuSans-30" x="127.246094"/>
       <use xlink:href="#DejaVuSans-30" x="190.869141"/>
       <use xlink:href="#DejaVuSans-30" x="254.492188"/>
       <use xlink:href="#DejaVuSans-30" x="318.115234"/>
      </g>
     </g>
    </g>
    <g id="ytick_5">
     <g id="line2d_12">
      <g>
       <use xlink:href="#m2dac1d8abe" x="126.63125" y="130.789055" style="stroke: #000000; stroke-width: 0.8"/>
      </g>
     </g>
     <g id="text_13">
      <!-- 800000 -->
      <g transform="translate(43.28125 138.387492) scale(0.2 -0.2)">
       <defs>
        <path id="DejaVuSans-38" d="M 2034 2216 
Q 1584 2216 1326 1975 
Q 1069 1734 1069 1313 
Q 1069 891 1326 650 
Q 1584 409 2034 409 
Q 2484 409 2743 651 
Q 3003 894 3003 1313 
Q 3003 1734 2745 1975 
Q 2488 2216 2034 2216 
z
M 1403 2484 
Q 997 2584 770 2862 
Q 544 3141 544 3541 
Q 544 4100 942 4425 
Q 1341 4750 2034 4750 
Q 2731 4750 3128 4425 
Q 3525 4100 3525 3541 
Q 3525 3141 3298 2862 
Q 3072 2584 2669 2484 
Q 3125 2378 3379 2068 
Q 3634 1759 3634 1313 
Q 3634 634 3220 271 
Q 2806 -91 2034 -91 
Q 1263 -91 848 271 
Q 434 634 434 1313 
Q 434 1759 690 2068 
Q 947 2378 1403 2484 
z
M 1172 3481 
Q 1172 3119 1398 2916 
Q 1625 2713 2034 2713 
Q 2441 2713 2670 2916 
Q 2900 3119 2900 3481 
Q 2900 3844 2670 4047 
Q 2441 4250 2034 4250 
Q 1625 4250 1398 4047 
Q 1172 3844 1172 3481 
z
" transform="scale(0.015625)"/>
       </defs>
       <use xlink:href="#DejaVuSans-38"/>
       <use xlink:href="#DejaVuSans-30" x="63.623047"/>
       <use xlink:href="#DejaVuSans-30" x="127.246094"/>
       <use xlink:href="#DejaVuSans-30" x="190.869141"/>
       <use xlink:href="#DejaVuSans-30" x="254.492188"/>
       <use xlink:href="#DejaVuSans-30" x="318.115234"/>
      </g>
     </g>
    </g>
    <g id="ytick_6">
     <g id="line2d_13">
      <g>
       <use xlink:href="#m2dac1d8abe" x="126.63125" y="74.746787" style="stroke: #000000; stroke-width: 0.8"/>
      </g>
     </g>
     <g id="text_14">
      <!-- 1000000 -->
      <g transform="translate(30.55625 82.345225) scale(0.2 -0.2)">
       <use xlink:href="#DejaVuSans-31"/>
       <use xlink:href="#DejaVuSans-30" x="63.623047"/>
       <use xlink:href="#DejaVuSans-30" x="127.246094"/>
       <use xlink:href="#DejaVuSans-30" x="190.869141"/>
       <use xlink:href="#DejaVuSans-30" x="254.492188"/>
       <use xlink:href="#DejaVuSans-30" x="318.115234"/>
       <use xlink:href="#DejaVuSans-30" x="381.738281"/>
      </g>
     </g>
    </g>
    <g id="text_15">
     <!-- Cycles -->
     <g transform="translate(22.396875 221.17875) rotate(-90) scale(0.2 -0.2)">
      <defs>
       <path id="DejaVuSans-43" d="M 4122 4306 
L 4122 3641 
Q 3803 3938 3442 4084 
Q 3081 4231 2675 4231 
Q 1875 4231 1450 3742 
Q 1025 3253 1025 2328 
Q 1025 1406 1450 917 
Q 1875 428 2675 428 
Q 3081 428 3442 575 
Q 3803 722 4122 1019 
L 4122 359 
Q 3791 134 3420 21 
Q 3050 -91 2638 -91 
Q 1578 -91 968 557 
Q 359 1206 359 2328 
Q 359 3453 968 4101 
Q 1578 4750 2638 4750 
Q 3056 4750 3426 4639 
Q 3797 4528 4122 4306 
z
" transform="scale(0.015625)"/>
       <path id="DejaVuSans-63" d="M 3122 3366 
L 3122 2828 
Q 2878 2963 2633 3030 
Q 2388 3097 2138 3097 
Q 1578 3097 1268 2742 
Q 959 2388 959 1747 
Q 959 1106 1268 751 
Q 1578 397 2138 397 
Q 2388 397 2633 464 
Q 2878 531 3122 666 
L 3122 134 
Q 2881 22 2623 -34 
Q 2366 -91 2075 -91 
Q 1284 -91 818 406 
Q 353 903 353 1747 
Q 353 2603 823 3093 
Q 1294 3584 2113 3584 
Q 2378 3584 2631 3529 
Q 2884 3475 3122 3366 
z
" transform="scale(0.015625)"/>
       <path id="DejaVuSans-6c" d="M 603 4863 
L 1178 4863 
L 1178 0 
L 603 0 
L 603 4863 
z
" transform="scale(0.015625)"/>
      </defs>
      <use xlink:href="#DejaVuSans-43"/>
      <use xlink:href="#DejaVuSans-79" x="69.824219"/>
      <use xlink:href="#DejaVuSans-63" x="129.003906"/>
      <use xlink:href="#DejaVuSans-6c" x="183.984375"/>
      <use xlink:href="#DejaVuSans-65" x="211.767578"/>
      <use xlink:href="#DejaVuSans-73" x="273.291016"/>
     </g>
    </g>
   </g>
   <g id="line2d_14">
    <path d="M 172.285795 347.81778 
L 186.779302 258.689839 
L 201.272808 96.289435 
L 215.766315 86.120005 
L 230.259821 85.865013 
L 244.753328 81.701072 
L 259.246834 80.880053 
L 273.740341 80.618336 
L 288.233847 79.902115 
L 302.727354 73.871407 
L 317.22086 73.602964 
L 331.714367 73.470144 
L 346.207873 73.468463 
L 360.70138 73.416344 
L 375.194886 73.045344 
L 389.688393 72.968566 
L 404.181899 72.787549 
L 418.675406 70.863618 
L 433.168912 70.125542 
L 447.662419 43.231418 
L 462.155925 15.939955 
L 476.649432 15.758378 
L 491.142938 13.276266 
L 505.636445 12.577418 
L 520.129951 12.449082 
L 534.623458 12.125157 
L 549.116964 11.249217 
L 563.610471 11.111353 
L 578.103977 10.730265 
L 592.597484 10.622664 
L 607.09099 10.445571 
L 621.584497 9.194147 
L 636.078003 8.692008 
L 650.57151 8.479608 
L 665.065016 6.848778 
L 679.558523 6.379704 
L 694.052029 3.526592 
L 708.545536 2.988586 
L 723.039042 2.983543 
L 737.532549 2.659058 
L 752.026055 1.426688 
L 766.519562 0.202725 
L 781.013068 0.128189 
L 795.506575 -0.575702 
L 810.000081 -0.914757 
L 824.493588 -0.921483 
L 826.705569 -1 
" clip-path="url(#pddbe3a44f3)" style="fill: none; stroke: #008000; stroke-width: 1.5; stroke-linecap: square"/>
   </g>
   <g id="line2d_15">
    <path d="M 172.285795 346.16117 
L 186.779302 345.413006 
L 201.272808 345.210693 
L 215.766315 344.14533 
L 230.259821 343.968236 
L 244.753328 343.58883 
L 259.246834 342.95275 
L 273.740341 341.650889 
L 288.233847 286.025015 
L 302.727354 275.961505 
L 317.22086 268.192926 
L 331.714367 254.147613 
L 346.207873 253.699275 
L 360.70138 253.463337 
L 375.194886 250.300311 
L 389.688393 250.234181 
L 404.181899 250.047561 
L 418.675406 249.752218 
L 433.168912 249.246156 
L 447.662419 243.965854 
L 462.155925 240.772565 
L 476.649432 239.753717 
L 491.142938 239.365344 
L 505.636445 238.606532 
L 520.129951 237.271605 
L 534.623458 235.465923 
L 549.116964 235.247358 
L 563.610471 232.110112 
L 578.103977 225.166475 
L 592.597484 224.198065 
L 607.09099 223.995192 
L 621.584497 223.870217 
L 636.078003 223.644927 
L 650.57151 223.412352 
L 665.065016 222.302715 
L 679.558523 221.967582 
L 694.052029 221.709788 
L 708.545536 221.113498 
L 723.039042 220.467331 
L 737.532549 219.566171 
L 752.026055 218.900389 
L 766.519562 218.339966 
L 781.013068 218.218355 
L 795.506575 218.086655 
L 810.000081 218.031734 
L 824.493588 217.579473 
L 838.987094 216.991589 
L 853.480601 216.547735 
L 867.974107 214.67144 
L 882.467614 213.713117 
L 896.96112 213.123552 
L 911.454627 201.82431 
L 925.948133 199.674529 
L 940.44164 199.454843 
L 954.935146 199.237399 
L 969.428653 197.158231 
L 983.922159 196.775462 
L 998.415666 196.342816 
L 1012.909172 196.32152 
L 1027.402679 195.974058 
L 1041.896185 195.971816 
L 1056.389692 193.032399 
L 1070.883198 192.113866 
L 1085.376705 165.597468 
" clip-path="url(#pddbe3a44f3)" style="fill: none; stroke: #ff0000; stroke-width: 1.5; stroke-linecap: square"/>
   </g>
   <g id="line2d_16">
    <path d="M 172.285795 346.685165 
L 186.779302 346.184708 
L 201.272808 346.075986 
L 215.766315 345.688174 
L 230.259821 345.605791 
L 244.753328 344.380707 
L 259.246834 344.091529 
L 273.740341 293.049913 
L 288.233847 272.77214 
L 302.727354 268.473698 
L 317.22086 266.112077 
L 331.714367 265.356066 
L 346.207873 259.974888 
L 360.70138 259.639755 
L 375.194886 259.492924 
L 389.688393 257.938872 
L 404.181899 246.62562 
L 418.675406 244.687678 
L 433.168912 243.504065 
L 447.662419 239.285764 
L 462.155925 235.68729 
L 476.649432 234.38823 
L 491.142938 233.768963 
L 505.636445 231.105274 
L 520.129951 228.852935 
L 534.623458 227.939446 
L 549.116964 220.290237 
L 563.610471 208.717509 
L 578.103977 207.309727 
L 592.597484 202.184101 
L 607.09099 199.195928 
L 621.584497 194.116257 
L 636.078003 189.103276 
L 650.57151 186.773038 
L 665.065016 184.346408 
L 679.558523 180.783801 
L 694.052029 176.137337 
L 708.545536 171.204496 
L 723.039042 169.980533 
L 737.532549 169.85668 
L 752.026055 168.030262 
L 766.519562 167.219891 
L 781.013068 162.97581 
L 795.506575 161.22561 
L 810.000081 159.467564 
L 824.493588 158.670643 
L 838.987094 156.182927 
L 853.480601 151.821718 
L 867.974107 143.735939 
L 882.467614 135.881055 
L 896.96112 133.552499 
L 911.454627 130.777286 
L 925.948133 126.671069 
L 940.44164 126.446339 
L 954.935146 125.81026 
L 969.428653 121.506214 
L 983.922159 119.720146 
L 998.415666 103.161338 
L 1012.909172 99.4519 
L 1027.402679 79.283409 
L 1041.896185 76.588336 
L 1056.389692 64.887271 
L 1070.883198 57.797364 
L 1085.376705 57.698729 
" clip-path="url(#pddbe3a44f3)" style="fill: none; stroke: #00bfbf; stroke-width: 1.5; stroke-linecap: square"/>
   </g>
   <g id="line2d_17">
    <path d="M 172.285795 347.387375 
L 186.779302 347.065132 
L 201.272808 346.75802 
L 215.766315 346.669474 
L 230.259821 345.481378 
L 244.753328 344.690621 
L 259.246834 319.408833 
L 273.740341 268.458006 
L 288.233847 266.943183 
L 302.727354 254.738298 
L 317.22086 250.349068 
L 331.714367 245.290693 
L 346.207873 244.174331 
L 360.70138 240.083245 
L 375.194886 236.993635 
L 389.688393 233.758315 
L 404.181899 229.994516 
L 418.675406 227.764034 
L 433.168912 226.055305 
L 447.662419 224.402619 
L 462.155925 224.239536 
L 476.649432 222.270211 
L 491.142938 221.003095 
L 505.636445 218.797271 
L 520.129951 217.839509 
L 534.623458 217.353062 
L 549.116964 210.886905 
L 563.610471 210.5613 
L 578.103977 199.320902 
L 592.597484 197.510737 
L 607.09099 193.57713 
L 621.584497 190.617538 
L 636.078003 178.772444 
L 650.57151 167.568474 
L 665.065016 166.175824 
L 679.558523 165.183876 
L 694.052029 162.345335 
L 708.545536 162.133495 
L 723.039042 155.955956 
L 737.532549 154.99371 
L 752.026055 149.288607 
L 766.519562 146.589612 
L 781.013068 146.154163 
L 795.506575 144.153454 
L 810.000081 135.683226 
L 824.493588 135.255063 
L 838.987094 134.981016 
L 853.480601 134.358947 
L 867.974107 132.573441 
L 882.467614 131.778761 
L 896.96112 128.355699 
L 911.454627 104.370169 
L 925.948133 104.186351 
L 940.44164 99.357189 
L 954.935146 93.76361 
L 969.428653 85.089948 
L 983.922159 72.916447 
L 998.415666 58.783708 
L 1012.909172 56.527446 
L 1027.402679 55.955254 
L 1041.896185 55.131994 
L 1056.389692 33.137645 
L 1070.883198 31.390247 
L 1085.376705 22.318125 
" clip-path="url(#pddbe3a44f3)" style="fill: none; stroke: #bf00bf; stroke-width: 1.5; stroke-linecap: square"/>
   </g>
   <g id="line2d_18">
    <path d="M 172.285795 352.374576 
L 186.779302 352.073629 
L 201.272808 352.046729 
L 215.766315 352.027675 
L 230.259821 351.978918 
L 244.753328 351.91559 
L 259.246834 351.884767 
L 273.740341 351.851142 
L 288.233847 351.850581 
L 302.727354 351.838252 
L 317.22086 351.656115 
L 331.714367 351.431385 
L 346.207873 351.336674 
L 360.70138 351.288477 
L 375.194886 351.241402 
L 389.688393 351.240841 
L 404.181899 351.22627 
L 418.675406 351.214502 
L 433.168912 351.157338 
L 447.662419 351.153415 
L 462.155925 351.130999 
L 476.649432 351.108021 
L 491.142938 351.074396 
L 505.636445 351.072715 
L 520.129951 351.071594 
L 534.623458 351.06655 
L 549.116964 351.031804 
L 563.610471 350.992014 
L 578.103977 350.888336 
L 592.597484 350.675935 
L 607.09099 350.663046 
L 621.584497 350.488194 
L 636.078003 350.360978 
L 650.57151 349.85996 
L 665.065016 344.540428 
L 679.558523 344.485506 
L 694.052029 343.026166 
L 708.545536 341.105597 
L 723.039042 339.557149 
L 737.532549 338.497951 
L 752.026055 338.473292 
L 766.519562 338.240156 
L 781.013068 338.128072 
L 795.506575 337.216264 
L 810.000081 337.18432 
L 824.493588 336.510692 
L 838.987094 336.218151 
L 853.480601 335.27496 
L 867.974107 335.165117 
L 882.467614 335.004276 
L 896.96112 333.971417 
L 911.454627 332.814144 
L 925.948133 332.152845 
L 940.44164 332.091199 
L 954.935146 331.108217 
L 969.428653 329.689787 
L 983.922159 329.530627 
L 998.415666 328.060078 
L 1012.909172 326.689284 
L 1027.402679 326.075622 
L 1041.896185 325.678282 
L 1056.389692 325.254042 
L 1070.883198 321.781663 
L 1085.376705 318.018425 
" clip-path="url(#pddbe3a44f3)" style="fill: none; stroke: #000000; stroke-width: 1.5; stroke-linecap: square"/>
   </g>
   <g id="line2d_19">
    <path d="M 172.285795 354.286739 
L 186.779302 353.925266 
L 201.272808 353.667472 
L 215.766315 353.297032 
L 230.259821 353.043161 
L 244.753328 352.751181 
L 259.246834 352.677205 
L 273.740341 352.407081 
L 288.233847 352.039444 
L 302.727354 351.725607 
L 317.22086 351.667883 
L 331.714367 351.412891 
L 346.207873 351.154536 
L 360.70138 350.9214 
L 375.194886 350.879929 
L 389.688393 350.432712 
L 404.181899 350.335198 
L 418.675406 349.895827 
L 433.168912 349.854916 
L 447.662419 349.814566 
L 462.155925 349.518663 
L 476.649432 349.165036 
L 491.142938 349.063039 
L 505.636445 348.61414 
L 520.129951 348.481881 
L 534.623458 348.069409 
L 549.116964 348.053157 
L 563.610471 347.618269 
L 578.103977 347.610984 
L 592.597484 347.305553 
L 607.09099 347.088109 
L 621.584497 346.58485 
L 636.078003 346.16117 
L 650.57151 345.157453 
L 665.065016 344.453562 
L 679.558523 343.653839 
L 694.052029 342.155829 
L 708.545536 342.099227 
L 723.039042 341.505739 
L 737.532549 340.784475 
L 752.026055 340.266645 
L 766.519562 339.545381 
L 781.013068 338.833083 
L 795.506575 337.952659 
L 810.000081 337.398962 
L 824.493588 336.635106 
L 838.987094 336.275314 
L 853.480601 335.209951 
L 867.974107 334.669703 
L 882.467614 333.86998 
L 896.96112 333.330854 
L 911.454627 332.343949 
L 925.948133 332.110813 
L 940.44164 331.247762 
L 954.935146 330.501279 
L 969.428653 329.691469 
L 983.922159 329.194934 
L 998.415666 328.508416 
L 1012.909172 327.93006 
L 1027.402679 327.322002 
L 1041.896185 326.661824 
L 1056.389692 325.891243 
L 1070.883198 325.591977 
L 1085.376705 325.353237 
" clip-path="url(#pddbe3a44f3)" style="fill: none; stroke-dasharray: 5.55,2.4; stroke-dashoffset: 0; stroke: #0000ff; stroke-width: 1.5"/>
   </g>
   <g id="line2d_20">
    <path d="M 172.285795 352.769674 
L 186.779302 352.765191 
L 201.272808 352.742214 
L 215.766315 352.73717 
L 230.259821 352.712511 
L 244.753328 352.708588 
L 259.246834 352.665436 
L 273.740341 352.662073 
L 288.233847 352.636854 
L 302.727354 352.63125 
L 317.22086 352.628448 
L 331.714367 352.623965 
L 346.207873 352.606031 
L 360.70138 352.601548 
L 375.194886 352.574647 
L 389.688393 352.569604 
L 404.181899 352.567362 
L 418.675406 352.516363 
L 433.168912 352.514682 
L 447.662419 352.51188 
L 462.155925 352.486661 
L 476.649432 352.482738 
L 491.142938 352.481057 
L 505.636445 352.451354 
L 520.129951 352.447431 
L 534.623458 352.420531 
L 549.116964 352.417169 
L 563.610471 352.391389 
L 578.103977 352.35216 
L 592.597484 352.324138 
L 607.09099 352.295557 
L 621.584497 352.236152 
L 636.078003 352.221581 
L 650.57151 352.198604 
L 665.065016 352.194681 
L 679.558523 352.173945 
L 694.052029 352.152089 
L 708.545536 352.142001 
L 723.039042 352.138078 
L 737.532549 352.119024 
L 752.026055 352.088761 
L 766.519562 352.035521 
L 781.013068 352.035521 
L 795.506575 352.032719 
L 810.000081 352.031037 
L 824.493588 351.979478 
L 838.987094 351.974995 
L 853.480601 351.950336 
L 867.974107 351.921195 
L 882.467614 351.88813 
L 896.96112 351.859548 
L 911.454627 351.834889 
L 925.948133 351.779968 
L 940.44164 351.775485 
L 954.935146 351.741299 
L 969.428653 351.737376 
L 983.922159 351.723365 
L 998.415666 351.718882 
L 1012.909172 351.691421 
L 1027.402679 351.666763 
L 1041.896185 351.66284 
L 1056.389692 351.629214 
L 1070.883198 351.624731 
L 1085.376705 351.611841 
" clip-path="url(#pddbe3a44f3)" style="fill: none; stroke-dasharray: 5.55,2.4; stroke-dashoffset: 0; stroke: #008000; stroke-width: 1.5"/>
   </g>
   <g id="line2d_21">
    <path d="M 172.285795 353.313284 
L 186.779302 353.312164 
L 201.272808 353.300395 
L 215.766315 353.299274 
L 230.259821 353.297593 
L 244.753328 353.297593 
L 259.246834 353.296472 
L 273.740341 353.295911 
L 288.233847 353.29367 
L 302.727354 353.293109 
L 317.22086 353.292549 
L 331.714367 353.291988 
L 346.207873 353.291428 
L 360.70138 353.290307 
L 375.194886 353.289186 
L 389.688393 353.285824 
L 404.181899 353.276857 
L 418.675406 353.275176 
L 433.168912 353.271813 
L 447.662419 353.24155 
L 462.155925 353.239309 
L 476.649432 353.228661 
L 491.142938 353.228661 
L 505.636445 353.22754 
L 520.129951 353.21409 
L 534.623458 353.213529 
L 549.116964 353.212969 
L 563.610471 353.210727 
L 578.103977 353.186068 
L 592.597484 353.1743 
L 607.09099 353.1743 
L 621.584497 353.172618 
L 636.078003 353.156927 
L 650.57151 353.155806 
L 665.065016 353.086874 
L 679.558523 353.085753 
L 694.052029 353.079588 
L 708.545536 353.079028 
L 723.039042 353.078467 
L 737.532549 353.077347 
L 752.026055 353.073424 
L 766.519562 353.071742 
L 781.013068 353.071742 
L 795.506575 353.070061 
L 810.000081 353.067819 
L 824.493588 353.066698 
L 838.987094 353.064457 
L 853.480601 353.063896 
L 867.974107 353.063336 
L 882.467614 353.062215 
L 896.96112 353.062215 
L 911.454627 353.061094 
L 925.948133 353.060534 
L 940.44164 353.058853 
L 954.935146 353.058853 
L 969.428653 353.058853 
L 983.922159 353.057732 
L 998.415666 353.057732 
L 1012.909172 353.053809 
L 1027.402679 353.052688 
L 1041.896185 353.049325 
L 1056.389692 353.047084 
L 1070.883198 353.030271 
L 1085.376705 353.02859 
" clip-path="url(#pddbe3a44f3)" style="fill: none; stroke-dasharray: 5.55,2.4; stroke-dashoffset: 0; stroke: #ff0000; stroke-width: 1.5"/>
   </g>
   <g id="line2d_22">
    <path d="M 172.285795 352.770795 
L 186.779302 352.753422 
L 201.272808 352.711951 
L 215.766315 352.695699 
L 230.259821 352.667117 
L 244.753328 352.63181 
L 259.246834 352.616119 
L 273.740341 352.533176 
L 288.233847 352.513561 
L 302.727354 352.505715 
L 317.22086 352.479936 
L 331.714367 352.470409 
L 346.207873 352.452475 
L 360.70138 352.452475 
L 375.194886 352.424454 
L 389.688393 352.390829 
L 404.181899 352.347676 
L 418.675406 352.292194 
L 433.168912 352.265294 
L 447.662419 352.196922 
L 462.155925 352.173945 
L 476.649432 352.139199 
L 491.142938 352.105013 
L 505.636445 352.088761 
L 520.129951 352.062981 
L 534.623458 352.035521 
L 549.116964 352.019829 
L 563.610471 352.015906 
L 578.103977 351.987885 
L 592.597484 351.970512 
L 607.09099 351.863471 
L 621.584497 351.630896 
L 636.078003 351.576535 
L 650.57151 351.447077 
L 665.065016 351.071033 
L 679.558523 350.984168 
L 694.052029 350.923082 
L 708.545536 350.890017 
L 723.039042 350.766163 
L 737.532549 350.635585 
L 752.026055 350.548719 
L 766.519562 350.427668 
L 781.013068 350.389559 
L 795.506575 350.326792 
L 810.000081 350.294287 
L 824.493588 350.261783 
L 838.987094 350.190609 
L 853.480601 350.114952 
L 867.974107 350.001747 
L 882.467614 349.936177 
L 896.96112 349.874531 
L 911.454627 349.845389 
L 925.948133 349.783742 
L 940.44164 349.55453 
L 954.935146 349.473268 
L 969.428653 349.351096 
L 983.922159 349.288889 
L 998.415666 349.205947 
L 1012.909172 349.003634 
L 1027.402679 348.941427 
L 1041.896185 348.832705 
L 1056.389692 348.7464 
L 1070.883198 348.658414 
L 1085.376705 348.637678 
" clip-path="url(#pddbe3a44f3)" style="fill: none; stroke-dasharray: 5.55,2.4; stroke-dashoffset: 0; stroke: #00bfbf; stroke-width: 1.5"/>
   </g>
   <g id="line2d_23">
    <path d="M 172.285795 352.518045 
L 186.779302 352.489463 
L 201.272808 352.465365 
L 215.766315 352.460321 
L 230.259821 352.41885 
L 244.753328 352.410444 
L 259.246834 352.409883 
L 273.740341 352.403158 
L 288.233847 352.396993 
L 302.727354 352.386345 
L 317.22086 352.376258 
L 331.714367 352.354401 
L 346.207873 352.351039 
L 360.70138 352.337028 
L 375.194886 352.330863 
L 389.688393 352.324138 
L 404.181899 352.321897 
L 418.675406 352.298359 
L 433.168912 352.297799 
L 447.662419 352.289392 
L 462.155925 352.28659 
L 476.649432 352.281546 
L 491.142938 352.262492 
L 505.636445 352.23335 
L 520.129951 352.215416 
L 534.623458 352.215416 
L 549.116964 352.199725 
L 563.610471 352.184033 
L 578.103977 352.149847 
L 592.597484 352.143122 
L 607.09099 352.115101 
L 621.584497 352.042806 
L 636.078003 351.896536 
L 650.57151 351.862911 
L 665.065016 351.852263 
L 679.558523 351.852263 
L 694.052029 351.851142 
L 708.545536 351.850581 
L 723.039042 351.8489 
L 737.532549 351.846098 
L 752.026055 351.844977 
L 766.519562 351.841615 
L 781.013068 351.841054 
L 795.506575 351.840494 
L 810.000081 351.839933 
L 824.493588 351.839373 
L 838.987094 351.83545 
L 853.480601 351.834329 
L 867.974107 351.833208 
L 882.467614 351.831527 
L 896.96112 351.796781 
L 911.454627 351.791176 
L 925.948133 351.76876 
L 940.44164 351.749145 
L 954.935146 351.746343 
L 969.428653 351.728409 
L 983.922159 351.720563 
L 998.415666 351.709915 
L 1012.909172 351.708794 
L 1027.402679 351.680213 
L 1041.896185 351.652192 
L 1056.389692 351.628654 
L 1070.883198 351.620248 
L 1085.376705 351.576535 
" clip-path="url(#pddbe3a44f3)" style="fill: none; stroke-dasharray: 5.55,2.4; stroke-dashoffset: 0; stroke: #bf00bf; stroke-width: 1.5"/>
   </g>
   <g id="line2d_24">
    <path d="M 172.285795 352.822354 
L 186.779302 352.804421 
L 201.272808 352.773597 
L 215.766315 352.744455 
L 230.259821 352.715874 
L 244.753328 352.687853 
L 259.246834 352.627888 
L 273.740341 352.623404 
L 288.233847 352.593702 
L 302.727354 352.587537 
L 317.22086 352.585856 
L 331.714367 352.533737 
L 346.207873 352.519726 
L 360.70138 352.510759 
L 375.194886 352.47153 
L 389.688393 352.452475 
L 404.181899 352.433981 
L 418.675406 352.417169 
L 433.168912 352.368972 
L 447.662419 352.363368 
L 462.155925 352.356643 
L 476.649432 352.301161 
L 491.142938 352.288271 
L 505.636445 352.255767 
L 520.129951 352.241196 
L 534.623458 352.196922 
L 549.116964 352.194681 
L 563.610471 352.171143 
L 578.103977 352.066344 
L 592.597484 352.053454 
L 607.09099 351.830406 
L 621.584497 351.70263 
L 636.078003 351.457725 
L 650.57151 351.413452 
L 665.065016 351.390474 
L 679.558523 351.352366 
L 694.052029 351.317619 
L 708.545536 351.183678 
L 723.039042 350.892258 
L 737.532549 350.865919 
L 752.026055 350.705638 
L 766.519562 350.68154 
L 781.013068 350.520698 
L 795.506575 350.48315 
L 810.000081 350.406372 
L 824.493588 350.315023 
L 838.987094 350.223674 
L 853.480601 350.152501 
L 867.974107 350.124479 
L 882.467614 350.0718 
L 896.96112 349.912079 
L 911.454627 349.828576 
L 925.948133 349.750677 
L 940.44164 349.632428 
L 954.935146 349.485598 
L 969.428653 349.416666 
L 983.922159 349.352217 
L 998.415666 349.162794 
L 1012.909172 349.060797 
L 1027.402679 348.98458 
L 1041.896185 348.886506 
L 1056.389692 348.833826 
L 1070.883198 348.732389 
L 1085.376705 348.67971 
" clip-path="url(#pddbe3a44f3)" style="fill: none; stroke-dasharray: 5.55,2.4; stroke-dashoffset: 0; stroke: #000000; stroke-width: 1.5"/>
   </g>
   <g id="line2d_25">
    <path d="M 172.285795 354.096755 
L 186.779302 354.079943 
L 201.272808 353.616473 
L 215.766315 353.452269 
L 230.259821 353.269571 
L 244.753328 353.109291 
L 259.246834 353.103686 
L 273.740341 353.058853 
L 288.233847 352.999448 
L 302.727354 352.943405 
L 317.22086 352.911461 
L 331.714367 352.886242 
L 346.207873 352.627888 
L 360.70138 352.625085 
L 375.194886 352.532055 
L 389.688393 352.515243 
L 404.181899 352.497869 
L 418.675406 352.438465 
L 433.168912 352.430058 
L 447.662419 352.427817 
L 462.155925 352.32582 
L 476.649432 352.321897 
L 491.142938 352.124628 
L 505.636445 352.116782 
L 520.129951 352.092684 
L 534.623458 352.033839 
L 549.116964 351.996852 
L 563.610471 351.994049 
L 578.103977 351.909426 
L 592.597484 351.906063 
L 607.09099 351.879723 
L 621.584497 351.847219 
L 636.078003 351.834329 
L 650.57151 351.80967 
L 665.065016 351.746343 
L 679.558523 351.605677 
L 694.052029 351.580458 
L 708.545536 351.436989 
L 723.039042 351.382628 
L 737.532549 351.294642 
L 752.026055 351.218985 
L 766.519562 351.180876 
L 781.013068 351.174151 
L 795.506575 351.127636 
L 810.000081 351.116428 
L 824.493588 351.10634 
L 838.987094 351.070473 
L 853.480601 351.028441 
L 867.974107 351.012749 
L 882.467614 350.993695 
L 896.96112 350.94774 
L 911.454627 350.93429 
L 925.948133 350.846864 
L 940.44164 350.789701 
L 954.935146 350.76112 
L 969.428653 350.759438 
L 983.922159 350.645112 
L 998.415666 350.614849 
L 1012.909172 350.516215 
L 1027.402679 350.494919 
L 1041.896185 350.449525 
L 1056.389692 350.429349 
L 1070.883198 350.400768 
L 1085.376705 350.210785 
" clip-path="url(#pddbe3a44f3)" style="fill: none; stroke-dasharray: 9.6,2.4,1.5,2.4; stroke-dashoffset: 0; stroke: #0000ff; stroke-width: 1.5"/>
   </g>
   <g id="patch_3">
    <path d="M 126.63125 354.958125 
L 126.63125 22.318125 
" style="fill: none; stroke: #000000; stroke-width: 0.8; stroke-linejoin: miter; stroke-linecap: square"/>
   </g>
   <g id="patch_4">
    <path d="M 1131.03125 354.958125 
L 1131.03125 22.318125 
" style="fill: none; stroke: #000000; stroke-width: 0.8; stroke-linejoin: miter; stroke-linecap: square"/>
   </g>
   <g id="patch_5">
    <path d="M 126.63125 354.958125 
L 1131.03125 354.958125 
" style="fill: none; stroke: #000000; stroke-width: 0.8; stroke-linejoin: miter; stroke-linecap: square"/>
   </g>
   <g id="patch_6">
    <path d="M 126.63125 22.318125 
L 1131.03125 22.318125 
" style="fill: none; stroke: #000000; stroke-width: 0.8; stroke-linejoin: miter; stroke-linecap: square"/>
   </g>
   <g id="text_16">
    <!-- Scheduling time, all -->
    <g transform="translate(569.385312 16.318125) scale(0.12 -0.12)">
     <defs>
      <path id="DejaVuSans-53" d="M 3425 4513 
L 3425 3897 
Q 3066 4069 2747 4153 
Q 2428 4238 2131 4238 
Q 1616 4238 1336 4038 
Q 1056 3838 1056 3469 
Q 1056 3159 1242 3001 
Q 1428 2844 1947 2747 
L 2328 2669 
Q 3034 2534 3370 2195 
Q 3706 1856 3706 1288 
Q 3706 609 3251 259 
Q 2797 -91 1919 -91 
Q 1588 -91 1214 -16 
Q 841 59 441 206 
L 441 856 
Q 825 641 1194 531 
Q 1563 422 1919 422 
Q 2459 422 2753 634 
Q 3047 847 3047 1241 
Q 3047 1584 2836 1778 
Q 2625 1972 2144 2069 
L 1759 2144 
Q 1053 2284 737 2584 
Q 422 2884 422 3419 
Q 422 4038 858 4394 
Q 1294 4750 2059 4750 
Q 2388 4750 2728 4690 
Q 3069 4631 3425 4513 
z
" transform="scale(0.015625)"/>
      <path id="DejaVuSans-75" d="M 544 1381 
L 544 3500 
L 1119 3500 
L 1119 1403 
Q 1119 906 1312 657 
Q 1506 409 1894 409 
Q 2359 409 2629 706 
Q 2900 1003 2900 1516 
L 2900 3500 
L 3475 3500 
L 3475 0 
L 2900 0 
L 2900 538 
Q 2691 219 2414 64 
Q 2138 -91 1772 -91 
Q 1169 -91 856 284 
Q 544 659 544 1381 
z
M 1991 3584 
L 1991 3584 
z
" transform="scale(0.015625)"/>
      <path id="DejaVuSans-67" d="M 2906 1791 
Q 2906 2416 2648 2759 
Q 2391 3103 1925 3103 
Q 1463 3103 1205 2759 
Q 947 2416 947 1791 
Q 947 1169 1205 825 
Q 1463 481 1925 481 
Q 2391 481 2648 825 
Q 2906 1169 2906 1791 
z
M 3481 434 
Q 3481 -459 3084 -895 
Q 2688 -1331 1869 -1331 
Q 1566 -1331 1297 -1286 
Q 1028 -1241 775 -1147 
L 775 -588 
Q 1028 -725 1275 -790 
Q 1522 -856 1778 -856 
Q 2344 -856 2625 -561 
Q 2906 -266 2906 331 
L 2906 616 
Q 2728 306 2450 153 
Q 2172 0 1784 0 
Q 1141 0 747 490 
Q 353 981 353 1791 
Q 353 2603 747 3093 
Q 1141 3584 1784 3584 
Q 2172 3584 2450 3431 
Q 2728 3278 2906 2969 
L 2906 3500 
L 3481 3500 
L 3481 434 
z
" transform="scale(0.015625)"/>
      <path id="DejaVuSans-2c" d="M 750 794 
L 1409 794 
L 1409 256 
L 897 -744 
L 494 -744 
L 750 256 
L 750 794 
z
" transform="scale(0.015625)"/>
     </defs>
     <use xlink:href="#DejaVuSans-53"/>
     <use xlink:href="#DejaVuSans-63" x="63.476562"/>
     <use xlink:href="#DejaVuSans-68" x="118.457031"/>
     <use xlink:href="#DejaVuSans-65" x="181.835938"/>
     <use xlink:href="#DejaVuSans-64" x="243.359375"/>
     <use xlink:href="#DejaVuSans-75" x="306.835938"/>
     <use xlink:href="#DejaVuSans-6c" x="370.214844"/>
     <use xlink:href="#DejaVuSans-69" x="397.998047"/>
     <use xlink:href="#DejaVuSans-6e" x="425.78125"/>
     <use xlink:href="#DejaVuSans-67" x="489.160156"/>
     <use xlink:href="#DejaVuSans-20" x="552.636719"/>
     <use xlink:href="#DejaVuSans-74" x="584.423828"/>
     <use xlink:href="#DejaVuSans-69" x="623.632812"/>
     <use xlink:href="#DejaVuSans-6d" x="651.416016"/>
     <use xlink:href="#DejaVuSans-65" x="748.828125"/>
     <use xlink:href="#DejaVuSans-2c" x="810.351562"/>
     <use xlink:href="#DejaVuSans-20" x="842.138672"/>
     <use xlink:href="#DejaVuSans-61" x="873.925781"/>
     <use xlink:href="#DejaVuSans-6c" x="935.205078"/>
     <use xlink:href="#DejaVuSans-6c" x="962.988281"/>
    </g>
   </g>
   <g id="legend_1">
    <g id="patch_7">
     <path d="M 845.779062 316.370625 
L 1121.23125 316.370625 
Q 1124.03125 316.370625 1124.03125 313.570625 
L 1124.03125 63.705625 
Q 1124.03125 60.905625 1121.23125 60.905625 
L 845.779062 60.905625 
Q 842.979062 60.905625 842.979062 63.705625 
L 842.979062 313.570625 
Q 842.979062 316.370625 845.779062 316.370625 
z
" style="fill: #ffffff; opacity: 0.8; stroke: #cccccc; stroke-linejoin: miter"/>
    </g>
    <g id="line2d_26">
     <path d="M 848.579062 72.243437 
L 862.579062 72.243437 
L 876.579062 72.243437 
" style="fill: none; stroke: #008000; stroke-width: 1.5; stroke-linecap: square"/>
    </g>
    <g id="text_17">
     <!-- TBB_AFFINITY -->
     <g transform="translate(887.779063 77.143438) scale(0.14 -0.14)">
      <defs>
       <path id="DejaVuSans-54" d="M -19 4666 
L 3928 4666 
L 3928 4134 
L 2272 4134 
L 2272 0 
L 1638 0 
L 1638 4134 
L -19 4134 
L -19 4666 
z
" transform="scale(0.015625)"/>
       <path id="DejaVuSans-42" d="M 1259 2228 
L 1259 519 
L 2272 519 
Q 2781 519 3026 730 
Q 3272 941 3272 1375 
Q 3272 1813 3026 2020 
Q 2781 2228 2272 2228 
L 1259 2228 
z
M 1259 4147 
L 1259 2741 
L 2194 2741 
Q 2656 2741 2882 2914 
Q 3109 3088 3109 3444 
Q 3109 3797 2882 3972 
Q 2656 4147 2194 4147 
L 1259 4147 
z
M 628 4666 
L 2241 4666 
Q 2963 4666 3353 4366 
Q 3744 4066 3744 3513 
Q 3744 3084 3544 2831 
Q 3344 2578 2956 2516 
Q 3422 2416 3680 2098 
Q 3938 1781 3938 1306 
Q 3938 681 3513 340 
Q 3088 0 2303 0 
L 628 0 
L 628 4666 
z
" transform="scale(0.015625)"/>
       <path id="DejaVuSans-5f" d="M 3263 -1063 
L 3263 -1509 
L -63 -1509 
L -63 -1063 
L 3263 -1063 
z
" transform="scale(0.015625)"/>
       <path id="DejaVuSans-41" d="M 2188 4044 
L 1331 1722 
L 3047 1722 
L 2188 4044 
z
M 1831 4666 
L 2547 4666 
L 4325 0 
L 3669 0 
L 3244 1197 
L 1141 1197 
L 716 0 
L 50 0 
L 1831 4666 
z
" transform="scale(0.015625)"/>
       <path id="DejaVuSans-46" d="M 628 4666 
L 3309 4666 
L 3309 4134 
L 1259 4134 
L 1259 2759 
L 3109 2759 
L 3109 2228 
L 1259 2228 
L 1259 0 
L 628 0 
L 628 4666 
z
" transform="scale(0.015625)"/>
       <path id="DejaVuSans-4e" d="M 628 4666 
L 1478 4666 
L 3547 763 
L 3547 4666 
L 4159 4666 
L 4159 0 
L 3309 0 
L 1241 3903 
L 1241 0 
L 628 0 
L 628 4666 
z
" transform="scale(0.015625)"/>
       <path id="DejaVuSans-59" d="M -13 4666 
L 666 4666 
L 1959 2747 
L 3244 4666 
L 3922 4666 
L 2272 2222 
L 2272 0 
L 1638 0 
L 1638 2222 
L -13 4666 
z
" transform="scale(0.015625)"/>
      </defs>
      <use xlink:href="#DejaVuSans-54"/>
      <use xlink:href="#DejaVuSans-42" x="61.083984"/>
      <use xlink:href="#DejaVuSans-42" x="129.6875"/>
      <use xlink:href="#DejaVuSans-5f" x="198.291016"/>
      <use xlink:href="#DejaVuSans-41" x="248.291016"/>
      <use xlink:href="#DejaVuSans-46" x="316.699219"/>
      <use xlink:href="#DejaVuSans-46" x="374.21875"/>
      <use xlink:href="#DejaVuSans-49" x="431.738281"/>
      <use xlink:href="#DejaVuSans-4e" x="461.230469"/>
      <use xlink:href="#DejaVuSans-49" x="536.035156"/>
      <use xlink:href="#DejaVuSans-54" x="565.527344"/>
      <use xlink:href="#DejaVuSans-59" x="626.611328"/>
     </g>
    </g>
    <g id="line2d_27">
     <path d="M 848.579062 93.182188 
L 862.579062 93.182188 
L 876.579062 93.182188 
" style="fill: none; stroke: #ff0000; stroke-width: 1.5; stroke-linecap: square"/>
    </g>
    <g id="text_18">
     <!-- TBB_CONST_AFFINITY -->
     <g transform="translate(887.779063 98.082188) scale(0.14 -0.14)">
      <defs>
       <path id="DejaVuSans-4f" d="M 2522 4238 
Q 1834 4238 1429 3725 
Q 1025 3213 1025 2328 
Q 1025 1447 1429 934 
Q 1834 422 2522 422 
Q 3209 422 3611 934 
Q 4013 1447 4013 2328 
Q 4013 3213 3611 3725 
Q 3209 4238 2522 4238 
z
M 2522 4750 
Q 3503 4750 4090 4092 
Q 4678 3434 4678 2328 
Q 4678 1225 4090 567 
Q 3503 -91 2522 -91 
Q 1538 -91 948 565 
Q 359 1222 359 2328 
Q 359 3434 948 4092 
Q 1538 4750 2522 4750 
z
" transform="scale(0.015625)"/>
      </defs>
      <use xlink:href="#DejaVuSans-54"/>
      <use xlink:href="#DejaVuSans-42" x="61.083984"/>
      <use xlink:href="#DejaVuSans-42" x="129.6875"/>
      <use xlink:href="#DejaVuSans-5f" x="198.291016"/>
      <use xlink:href="#DejaVuSans-43" x="248.291016"/>
      <use xlink:href="#DejaVuSans-4f" x="318.115234"/>
      <use xlink:href="#DejaVuSans-4e" x="396.826172"/>
      <use xlink:href="#DejaVuSans-53" x="471.630859"/>
      <use xlink:href="#DejaVuSans-54" x="535.107422"/>
      <use xlink:href="#DejaVuSans-5f" x="596.191406"/>
      <use xlink:href="#DejaVuSans-41" x="646.191406"/>
      <use xlink:href="#DejaVuSans-46" x="714.599609"/>
      <use xlink:href="#DejaVuSans-46" x="772.119141"/>
      <use xlink:href="#DejaVuSans-49" x="829.638672"/>
      <use xlink:href="#DejaVuSans-4e" x="859.130859"/>
      <use xlink:href="#DejaVuSans-49" x="933.935547"/>
      <use xlink:href="#DejaVuSans-54" x="963.427734"/>
      <use xlink:href="#DejaVuSans-59" x="1024.511719"/>
     </g>
    </g>
    <g id="line2d_28">
     <path d="M 848.579062 114.120937 
L 862.579062 114.120937 
L 876.579062 114.120937 
" style="fill: none; stroke: #00bfbf; stroke-width: 1.5; stroke-linecap: square"/>
    </g>
    <g id="text_19">
     <!-- TBB_SIMPLE -->
     <g transform="translate(887.779063 119.020938) scale(0.14 -0.14)">
      <defs>
       <path id="DejaVuSans-4d" d="M 628 4666 
L 1569 4666 
L 2759 1491 
L 3956 4666 
L 4897 4666 
L 4897 0 
L 4281 0 
L 4281 4097 
L 3078 897 
L 2444 897 
L 1241 4097 
L 1241 0 
L 628 0 
L 628 4666 
z
" transform="scale(0.015625)"/>
       <path id="DejaVuSans-50" d="M 1259 4147 
L 1259 2394 
L 2053 2394 
Q 2494 2394 2734 2622 
Q 2975 2850 2975 3272 
Q 2975 3691 2734 3919 
Q 2494 4147 2053 4147 
L 1259 4147 
z
M 628 4666 
L 2053 4666 
Q 2838 4666 3239 4311 
Q 3641 3956 3641 3272 
Q 3641 2581 3239 2228 
Q 2838 1875 2053 1875 
L 1259 1875 
L 1259 0 
L 628 0 
L 628 4666 
z
" transform="scale(0.015625)"/>
       <path id="DejaVuSans-4c" d="M 628 4666 
L 1259 4666 
L 1259 531 
L 3531 531 
L 3531 0 
L 628 0 
L 628 4666 
z
" transform="scale(0.015625)"/>
       <path id="DejaVuSans-45" d="M 628 4666 
L 3578 4666 
L 3578 4134 
L 1259 4134 
L 1259 2753 
L 3481 2753 
L 3481 2222 
L 1259 2222 
L 1259 531 
L 3634 531 
L 3634 0 
L 628 0 
L 628 4666 
z
" transform="scale(0.015625)"/>
      </defs>
      <use xlink:href="#DejaVuSans-54"/>
      <use xlink:href="#DejaVuSans-42" x="61.083984"/>
      <use xlink:href="#DejaVuSans-42" x="129.6875"/>
      <use xlink:href="#DejaVuSans-5f" x="198.291016"/>
      <use xlink:href="#DejaVuSans-53" x="248.291016"/>
      <use xlink:href="#DejaVuSans-49" x="311.767578"/>
      <use xlink:href="#DejaVuSans-4d" x="341.259766"/>
      <use xlink:href="#DejaVuSans-50" x="427.539062"/>
      <use xlink:href="#DejaVuSans-4c" x="487.841797"/>
      <use xlink:href="#DejaVuSans-45" x="543.554688"/>
     </g>
    </g>
    <g id="line2d_29">
     <path d="M 848.579062 135.059687 
L 862.579062 135.059687 
L 876.579062 135.059687 
" style="fill: none; stroke: #bf00bf; stroke-width: 1.5; stroke-linecap: square"/>
    </g>
    <g id="text_20">
     <!-- TBB_AUTO -->
     <g transform="translate(887.779063 139.959687) scale(0.14 -0.14)">
      <defs>
       <path id="DejaVuSans-55" d="M 556 4666 
L 1191 4666 
L 1191 1831 
Q 1191 1081 1462 751 
Q 1734 422 2344 422 
Q 2950 422 3222 751 
Q 3494 1081 3494 1831 
L 3494 4666 
L 4128 4666 
L 4128 1753 
Q 4128 841 3676 375 
Q 3225 -91 2344 -91 
Q 1459 -91 1007 375 
Q 556 841 556 1753 
L 556 4666 
z
" transform="scale(0.015625)"/>
      </defs>
      <use xlink:href="#DejaVuSans-54"/>
      <use xlink:href="#DejaVuSans-42" x="61.083984"/>
      <use xlink:href="#DejaVuSans-42" x="129.6875"/>
      <use xlink:href="#DejaVuSans-5f" x="198.291016"/>
      <use xlink:href="#DejaVuSans-41" x="248.291016"/>
      <use xlink:href="#DejaVuSans-55" x="316.699219"/>
      <use xlink:href="#DejaVuSans-54" x="389.892578"/>
      <use xlink:href="#DejaVuSans-4f" x="450.976562"/>
     </g>
    </g>
    <g id="line2d_30">
     <path d="M 848.579062 155.998437 
L 862.579062 155.998437 
L 876.579062 155.998437 
" style="fill: none; stroke: #000000; stroke-width: 1.5; stroke-linecap: square"/>
    </g>
    <g id="text_21">
     <!-- EIGEN_SIMPLE -->
     <g transform="translate(887.779063 160.898438) scale(0.14 -0.14)">
      <defs>
       <path id="DejaVuSans-47" d="M 3809 666 
L 3809 1919 
L 2778 1919 
L 2778 2438 
L 4434 2438 
L 4434 434 
Q 4069 175 3628 42 
Q 3188 -91 2688 -91 
Q 1594 -91 976 548 
Q 359 1188 359 2328 
Q 359 3472 976 4111 
Q 1594 4750 2688 4750 
Q 3144 4750 3555 4637 
Q 3966 4525 4313 4306 
L 4313 3634 
Q 3963 3931 3569 4081 
Q 3175 4231 2741 4231 
Q 1884 4231 1454 3753 
Q 1025 3275 1025 2328 
Q 1025 1384 1454 906 
Q 1884 428 2741 428 
Q 3075 428 3337 486 
Q 3600 544 3809 666 
z
" transform="scale(0.015625)"/>
      </defs>
      <use xlink:href="#DejaVuSans-45"/>
      <use xlink:href="#DejaVuSans-49" x="63.183594"/>
      <use xlink:href="#DejaVuSans-47" x="92.675781"/>
      <use xlink:href="#DejaVuSans-45" x="170.166016"/>
      <use xlink:href="#DejaVuSans-4e" x="233.349609"/>
      <use xlink:href="#DejaVuSans-5f" x="308.154297"/>
      <use xlink:href="#DejaVuSans-53" x="358.154297"/>
      <use xlink:href="#DejaVuSans-49" x="421.630859"/>
      <use xlink:href="#DejaVuSans-4d" x="451.123047"/>
      <use xlink:href="#DejaVuSans-50" x="537.402344"/>
      <use xlink:href="#DejaVuSans-4c" x="597.705078"/>
      <use xlink:href="#DejaVuSans-45" x="653.417969"/>
     </g>
    </g>
    <g id="line2d_31">
     <path d="M 848.579062 176.937187 
L 862.579062 176.937187 
L 876.579062 176.937187 
" style="fill: none; stroke-dasharray: 5.55,2.4; stroke-dashoffset: 0; stroke: #0000ff; stroke-width: 1.5"/>
    </g>
    <g id="text_22">
     <!-- EIGEN_STATIC -->
     <g transform="translate(887.779063 181.837187) scale(0.14 -0.14)">
      <use xlink:href="#DejaVuSans-45"/>
      <use xlink:href="#DejaVuSans-49" x="63.183594"/>
      <use xlink:href="#DejaVuSans-47" x="92.675781"/>
      <use xlink:href="#DejaVuSans-45" x="170.166016"/>
      <use xlink:href="#DejaVuSans-4e" x="233.349609"/>
      <use xlink:href="#DejaVuSans-5f" x="308.154297"/>
      <use xlink:href="#DejaVuSans-53" x="358.154297"/>
      <use xlink:href="#DejaVuSans-54" x="421.630859"/>
      <use xlink:href="#DejaVuSans-41" x="474.964844"/>
      <use xlink:href="#DejaVuSans-54" x="535.623047"/>
      <use xlink:href="#DejaVuSans-49" x="596.707031"/>
      <use xlink:href="#DejaVuSans-43" x="626.199219"/>
     </g>
    </g>
    <g id="line2d_32">
     <path d="M 848.579062 197.875937 
L 862.579062 197.875937 
L 876.579062 197.875937 
" style="fill: none; stroke-dasharray: 5.55,2.4; stroke-dashoffset: 0; stroke: #008000; stroke-width: 1.5"/>
    </g>
    <g id="text_23">
     <!-- OMP_DYNAMIC_MONOTONIC -->
     <g transform="translate(887.779063 202.775937) scale(0.14 -0.14)">
      <defs>
       <path id="DejaVuSans-44" d="M 1259 4147 
L 1259 519 
L 2022 519 
Q 2988 519 3436 956 
Q 3884 1394 3884 2338 
Q 3884 3275 3436 3711 
Q 2988 4147 2022 4147 
L 1259 4147 
z
M 628 4666 
L 1925 4666 
Q 3281 4666 3915 4102 
Q 4550 3538 4550 2338 
Q 4550 1131 3912 565 
Q 3275 0 1925 0 
L 628 0 
L 628 4666 
z
" transform="scale(0.015625)"/>
      </defs>
      <use xlink:href="#DejaVuSans-4f"/>
      <use xlink:href="#DejaVuSans-4d" x="78.710938"/>
      <use xlink:href="#DejaVuSans-50" x="164.990234"/>
      <use xlink:href="#DejaVuSans-5f" x="225.292969"/>
      <use xlink:href="#DejaVuSans-44" x="275.292969"/>
      <use xlink:href="#DejaVuSans-59" x="346.794922"/>
      <use xlink:href="#DejaVuSans-4e" x="407.878906"/>
      <use xlink:href="#DejaVuSans-41" x="482.683594"/>
      <use xlink:href="#DejaVuSans-4d" x="551.091797"/>
      <use xlink:href="#DejaVuSans-49" x="637.371094"/>
      <use xlink:href="#DejaVuSans-43" x="666.863281"/>
      <use xlink:href="#DejaVuSans-5f" x="736.6875"/>
      <use xlink:href="#DejaVuSans-4d" x="786.6875"/>
      <use xlink:href="#DejaVuSans-4f" x="872.966797"/>
      <use xlink:href="#DejaVuSans-4e" x="951.677734"/>
      <use xlink:href="#DejaVuSans-4f" x="1026.482422"/>
      <use xlink:href="#DejaVuSans-54" x="1105.193359"/>
      <use xlink:href="#DejaVuSans-4f" x="1166.277344"/>
      <use xlink:href="#DejaVuSans-4e" x="1244.988281"/>
      <use xlink:href="#DejaVuSans-49" x="1319.792969"/>
      <use xlink:href="#DejaVuSans-43" x="1349.285156"/>
     </g>
    </g>
    <g id="line2d_33">
     <path d="M 848.579062 218.814687 
L 862.579062 218.814687 
L 876.579062 218.814687 
" style="fill: none; stroke-dasharray: 5.55,2.4; stroke-dashoffset: 0; stroke: #ff0000; stroke-width: 1.5"/>
    </g>
    <g id="text_24">
     <!-- OMP_STATIC -->
     <g transform="translate(887.779063 223.714687) scale(0.14 -0.14)">
      <use xlink:href="#DejaVuSans-4f"/>
      <use xlink:href="#DejaVuSans-4d" x="78.710938"/>
      <use xlink:href="#DejaVuSans-50" x="164.990234"/>
      <use xlink:href="#DejaVuSans-5f" x="225.292969"/>
      <use xlink:href="#DejaVuSans-53" x="275.292969"/>
      <use xlink:href="#DejaVuSans-54" x="338.769531"/>
      <use xlink:href="#DejaVuSans-41" x="392.103516"/>
      <use xlink:href="#DejaVuSans-54" x="452.761719"/>
      <use xlink:href="#DejaVuSans-49" x="513.845703"/>
      <use xlink:href="#DejaVuSans-43" x="543.337891"/>
     </g>
    </g>
    <g id="line2d_34">
     <path d="M 848.579062 239.753437 
L 862.579062 239.753437 
L 876.579062 239.753437 
" style="fill: none; stroke-dasharray: 5.55,2.4; stroke-dashoffset: 0; stroke: #00bfbf; stroke-width: 1.5"/>
    </g>
    <g id="text_25">
     <!-- OMP_GUIDED_MONOTONIC -->
     <g transform="translate(887.779063 244.653437) scale(0.14 -0.14)">
      <use xlink:href="#DejaVuSans-4f"/>
      <use xlink:href="#DejaVuSans-4d" x="78.710938"/>
      <use xlink:href="#DejaVuSans-50" x="164.990234"/>
      <use xlink:href="#DejaVuSans-5f" x="225.292969"/>
      <use xlink:href="#DejaVuSans-47" x="275.292969"/>
      <use xlink:href="#DejaVuSans-55" x="352.783203"/>
      <use xlink:href="#DejaVuSans-49" x="425.976562"/>
      <use xlink:href="#DejaVuSans-44" x="455.46875"/>
      <use xlink:href="#DejaVuSans-45" x="532.470703"/>
      <use xlink:href="#DejaVuSans-44" x="595.654297"/>
      <use xlink:href="#DejaVuSans-5f" x="672.65625"/>
      <use xlink:href="#DejaVuSans-4d" x="722.65625"/>
      <use xlink:href="#DejaVuSans-4f" x="808.935547"/>
      <use xlink:href="#DejaVuSans-4e" x="887.646484"/>
      <use xlink:href="#DejaVuSans-4f" x="962.451172"/>
      <use xlink:href="#DejaVuSans-54" x="1041.162109"/>
      <use xlink:href="#DejaVuSans-4f" x="1102.246094"/>
      <use xlink:href="#DejaVuSans-4e" x="1180.957031"/>
      <use xlink:href="#DejaVuSans-49" x="1255.761719"/>
      <use xlink:href="#DejaVuSans-43" x="1285.253906"/>
     </g>
    </g>
    <g id="line2d_35">
     <path d="M 848.579062 260.692188 
L 862.579062 260.692188 
L 876.579062 260.692188 
" style="fill: none; stroke-dasharray: 5.55,2.4; stroke-dashoffset: 0; stroke: #bf00bf; stroke-width: 1.5"/>
    </g>
    <g id="text_26">
     <!-- OMP_DYNAMIC_NONMONOTONIC -->
     <g transform="translate(887.779063 265.592188) scale(0.14 -0.14)">
      <use xlink:href="#DejaVuSans-4f"/>
      <use xlink:href="#DejaVuSans-4d" x="78.710938"/>
      <use xlink:href="#DejaVuSans-50" x="164.990234"/>
      <use xlink:href="#DejaVuSans-5f" x="225.292969"/>
      <use xlink:href="#DejaVuSans-44" x="275.292969"/>
      <use xlink:href="#DejaVuSans-59" x="346.794922"/>
      <use xlink:href="#DejaVuSans-4e" x="407.878906"/>
      <use xlink:href="#DejaVuSans-41" x="482.683594"/>
      <use xlink:href="#DejaVuSans-4d" x="551.091797"/>
      <use xlink:href="#DejaVuSans-49" x="637.371094"/>
      <use xlink:href="#DejaVuSans-43" x="666.863281"/>
      <use xlink:href="#DejaVuSans-5f" x="736.6875"/>
      <use xlink:href="#DejaVuSans-4e" x="786.6875"/>
      <use xlink:href="#DejaVuSans-4f" x="861.492188"/>
      <use xlink:href="#DejaVuSans-4e" x="940.203125"/>
      <use xlink:href="#DejaVuSans-4d" x="1015.007812"/>
      <use xlink:href="#DejaVuSans-4f" x="1101.287109"/>
      <use xlink:href="#DejaVuSans-4e" x="1179.998047"/>
      <use xlink:href="#DejaVuSans-4f" x="1254.802734"/>
      <use xlink:href="#DejaVuSans-54" x="1333.513672"/>
      <use xlink:href="#DejaVuSans-4f" x="1394.597656"/>
      <use xlink:href="#DejaVuSans-4e" x="1473.308594"/>
      <use xlink:href="#DejaVuSans-49" x="1548.113281"/>
      <use xlink:href="#DejaVuSans-43" x="1577.605469"/>
     </g>
    </g>
    <g id="line2d_36">
     <path d="M 848.579062 281.630938 
L 862.579062 281.630938 
L 876.579062 281.630938 
" style="fill: none; stroke-dasharray: 5.55,2.4; stroke-dashoffset: 0; stroke: #000000; stroke-width: 1.5"/>
    </g>
    <g id="text_27">
     <!-- OMP_GUIDED_NONMONOTONIC -->
     <g transform="translate(887.779063 286.530937) scale(0.14 -0.14)">
      <use xlink:href="#DejaVuSans-4f"/>
      <use xlink:href="#DejaVuSans-4d" x="78.710938"/>
      <use xlink:href="#DejaVuSans-50" x="164.990234"/>
      <use xlink:href="#DejaVuSans-5f" x="225.292969"/>
      <use xlink:href="#DejaVuSans-47" x="275.292969"/>
      <use xlink:href="#DejaVuSans-55" x="352.783203"/>
      <use xlink:href="#DejaVuSans-49" x="425.976562"/>
      <use xlink:href="#DejaVuSans-44" x="455.46875"/>
      <use xlink:href="#DejaVuSans-45" x="532.470703"/>
      <use xlink:href="#DejaVuSans-44" x="595.654297"/>
      <use xlink:href="#DejaVuSans-5f" x="672.65625"/>
      <use xlink:href="#DejaVuSans-4e" x="722.65625"/>
      <use xlink:href="#DejaVuSans-4f" x="797.460938"/>
      <use xlink:href="#DejaVuSans-4e" x="876.171875"/>
      <use xlink:href="#DejaVuSans-4d" x="950.976562"/>
      <use xlink:href="#DejaVuSans-4f" x="1037.255859"/>
      <use xlink:href="#DejaVuSans-4e" x="1115.966797"/>
      <use xlink:href="#DejaVuSans-4f" x="1190.771484"/>
      <use xlink:href="#DejaVuSans-54" x="1269.482422"/>
      <use xlink:href="#DejaVuSans-4f" x="1330.566406"/>
      <use xlink:href="#DejaVuSans-4e" x="1409.277344"/>
      <use xlink:href="#DejaVuSans-49" x="1484.082031"/>
      <use xlink:href="#DejaVuSans-43" x="1513.574219"/>
     </g>
    </g>
    <g id="line2d_37">
     <path d="M 848.579062 302.569687 
L 862.579062 302.569687 
L 876.579062 302.569687 
" style="fill: none; stroke-dasharray: 9.6,2.4,1.5,2.4; stroke-dashoffset: 0; stroke: #0000ff; stroke-width: 1.5"/>
    </g>
    <g id="text_28">
     <!-- EIGEN_TIMESPAN -->
     <g transform="translate(887.779063 307.469687) scale(0.14 -0.14)">
      <use xlink:href="#DejaVuSans-45"/>
      <use xlink:href="#DejaVuSans-49" x="63.183594"/>
      <use xlink:href="#DejaVuSans-47" x="92.675781"/>
      <use xlink:href="#DejaVuSans-45" x="170.166016"/>
      <use xlink:href="#DejaVuSans-4e" x="233.349609"/>
      <use xlink:href="#DejaVuSans-5f" x="308.154297"/>
      <use xlink:href="#DejaVuSans-54" x="358.154297"/>
      <use xlink:href="#DejaVuSans-49" x="419.238281"/>
      <use xlink:href="#DejaVuSans-4d" x="448.730469"/>
      <use xlink:href="#DejaVuSans-45" x="535.009766"/>
      <use xlink:href="#DejaVuSans-53" x="598.193359"/>
      <use xlink:href="#DejaVuSans-50" x="661.669922"/>
      <use xlink:href="#DejaVuSans-41" x="715.597656"/>
      <use xlink:href="#DejaVuSans-4e" x="784.005859"/>
     </g>
    </g>
   </g>
  </g>
 </g>
 <defs>
  <clipPath id="pddbe3a44f3">
   <rect x="126.63125" y="22.318125" width="1004.4" height="332.64"/>
  </clipPath>
 </defs>
</svg>
