<?xml version="1.0" encoding="utf-8" standalone="no"?>
<!DOCTYPE svg PUBLIC "-//W3C//DTD SVG 1.1//EN"
  "http://www.w3.org/Graphics/SVG/1.1/DTD/svg11.dtd">
<svg xmlns:xlink="http://www.w3.org/1999/xlink" width="1125.50625pt" height="411.870625pt" viewBox="0 0 1125.50625 411.870625" xmlns="http://www.w3.org/2000/svg" version="1.1">
 <metadata>
  <rdf:RDF xmlns:dc="http://purl.org/dc/elements/1.1/" xmlns:cc="http://creativecommons.org/ns#" xmlns:rdf="http://www.w3.org/1999/02/22-rdf-syntax-ns#">
   <cc:Work>
    <dc:type rdf:resource="http://purl.org/dc/dcmitype/StillImage"/>
    <dc:date>2023-02-19T18:43:32.470460</dc:date>
    <dc:format>image/svg+xml</dc:format>
    <dc:creator>
     <cc:Agent>
      <dc:title>Matplotlib v3.6.3, https://matplotlib.org/</dc:title>
     </cc:Agent>
    </dc:creator>
   </cc:Work>
  </rdf:RDF>
 </metadata>
 <defs>
  <style type="text/css">*{stroke-linejoin: round; stroke-linecap: butt}</style>
 </defs>
 <g id="figure_1">
  <g id="patch_1">
   <path d="M -0 411.870625 
L 1125.50625 411.870625 
L 1125.50625 0 
L -0 0 
z
" style="fill: #ffffff"/>
  </g>
  <g id="axes_1">
   <g id="patch_2">
    <path d="M 113.90625 354.958125 
L 1118.30625 354.958125 
L 1118.30625 22.318125 
L 113.90625 22.318125 
z
" style="fill: #ffffff"/>
   </g>
   <g id="matplotlib.axis_1">
    <g id="xtick_1">
     <g id="line2d_1">
      <defs>
       <path id="m53194ac364" d="M 0 0 
L 0 3.5 
" style="stroke: #000000; stroke-width: 0.8"/>
      </defs>
      <g>
       <use xlink:href="#m53194ac364" x="159.560795" y="354.958125" style="stroke: #000000; stroke-width: 0.8"/>
      </g>
     </g>
     <g id="text_1">
      <!-- 0 -->
      <g transform="translate(153.198295 377.155) scale(0.2 -0.2)">
       <defs>
        <path id="DejaVuSans-30" d="M 2034 4250 
Q 1547 4250 1301 3770 
Q 1056 3291 1056 2328 
Q 1056 1369 1301 889 
Q 1547 409 2034 409 
Q 2525 409 2770 889 
Q 3016 1369 3016 2328 
Q 3016 3291 2770 3770 
Q 2525 4250 2034 4250 
z
M 2034 4750 
Q 2819 4750 3233 4129 
Q 3647 3509 3647 2328 
Q 3647 1150 3233 529 
Q 2819 -91 2034 -91 
Q 1250 -91 836 529 
Q 422 1150 422 2328 
Q 422 3509 836 4129 
Q 1250 4750 2034 4750 
z
" transform="scale(0.015625)"/>
       </defs>
       <use xlink:href="#DejaVuSans-30"/>
      </g>
     </g>
    </g>
    <g id="xtick_2">
     <g id="line2d_2">
      <g>
       <use xlink:href="#m53194ac364" x="306.833523" y="354.958125" style="stroke: #000000; stroke-width: 0.8"/>
      </g>
     </g>
     <g id="text_2">
      <!-- 5 -->
      <g transform="translate(300.471023 377.155) scale(0.2 -0.2)">
       <defs>
        <path id="DejaVuSans-35" d="M 691 4666 
L 3169 4666 
L 3169 4134 
L 1269 4134 
L 1269 2991 
Q 1406 3038 1543 3061 
Q 1681 3084 1819 3084 
Q 2600 3084 3056 2656 
Q 3513 2228 3513 1497 
Q 3513 744 3044 326 
Q 2575 -91 1722 -91 
Q 1428 -91 1123 -41 
Q 819 9 494 109 
L 494 744 
Q 775 591 1075 516 
Q 1375 441 1709 441 
Q 2250 441 2565 725 
Q 2881 1009 2881 1497 
Q 2881 1984 2565 2268 
Q 2250 2553 1709 2553 
Q 1456 2553 1204 2497 
Q 953 2441 691 2322 
L 691 4666 
z
" transform="scale(0.015625)"/>
       </defs>
       <use xlink:href="#DejaVuSans-35"/>
      </g>
     </g>
    </g>
    <g id="xtick_3">
     <g id="line2d_3">
      <g>
       <use xlink:href="#m53194ac364" x="454.10625" y="354.958125" style="stroke: #000000; stroke-width: 0.8"/>
      </g>
     </g>
     <g id="text_3">
      <!-- 10 -->
      <g transform="translate(441.38125 377.155) scale(0.2 -0.2)">
       <defs>
        <path id="DejaVuSans-31" d="M 794 531 
L 1825 531 
L 1825 4091 
L 703 3866 
L 703 4441 
L 1819 4666 
L 2450 4666 
L 2450 531 
L 3481 531 
L 3481 0 
L 794 0 
L 794 531 
z
" transform="scale(0.015625)"/>
       </defs>
       <use xlink:href="#DejaVuSans-31"/>
       <use xlink:href="#DejaVuSans-30" x="63.623047"/>
      </g>
     </g>
    </g>
    <g id="xtick_4">
     <g id="line2d_4">
      <g>
       <use xlink:href="#m53194ac364" x="601.378977" y="354.958125" style="stroke: #000000; stroke-width: 0.8"/>
      </g>
     </g>
     <g id="text_4">
      <!-- 15 -->
      <g transform="translate(588.653977 377.155) scale(0.2 -0.2)">
       <use xlink:href="#DejaVuSans-31"/>
       <use xlink:href="#DejaVuSans-35" x="63.623047"/>
      </g>
     </g>
    </g>
    <g id="xtick_5">
     <g id="line2d_5">
      <g>
       <use xlink:href="#m53194ac364" x="748.651705" y="354.958125" style="stroke: #000000; stroke-width: 0.8"/>
      </g>
     </g>
     <g id="text_5">
      <!-- 20 -->
      <g transform="translate(735.926705 377.155) scale(0.2 -0.2)">
       <defs>
        <path id="DejaVuSans-32" d="M 1228 531 
L 3431 531 
L 3431 0 
L 469 0 
L 469 531 
Q 828 903 1448 1529 
Q 2069 2156 2228 2338 
Q 2531 2678 2651 2914 
Q 2772 3150 2772 3378 
Q 2772 3750 2511 3984 
Q 2250 4219 1831 4219 
Q 1534 4219 1204 4116 
Q 875 4013 500 3803 
L 500 4441 
Q 881 4594 1212 4672 
Q 1544 4750 1819 4750 
Q 2544 4750 2975 4387 
Q 3406 4025 3406 3419 
Q 3406 3131 3298 2873 
Q 3191 2616 2906 2266 
Q 2828 2175 2409 1742 
Q 1991 1309 1228 531 
z
" transform="scale(0.015625)"/>
       </defs>
       <use xlink:href="#DejaVuSans-32"/>
       <use xlink:href="#DejaVuSans-30" x="63.623047"/>
      </g>
     </g>
    </g>
    <g id="xtick_6">
     <g id="line2d_6">
      <g>
       <use xlink:href="#m53194ac364" x="895.924432" y="354.958125" style="stroke: #000000; stroke-width: 0.8"/>
      </g>
     </g>
     <g id="text_6">
      <!-- 25 -->
      <g transform="translate(883.199432 377.155) scale(0.2 -0.2)">
       <use xlink:href="#DejaVuSans-32"/>
       <use xlink:href="#DejaVuSans-35" x="63.623047"/>
      </g>
     </g>
    </g>
    <g id="xtick_7">
     <g id="line2d_7">
      <g>
       <use xlink:href="#m53194ac364" x="1043.197159" y="354.958125" style="stroke: #000000; stroke-width: 0.8"/>
      </g>
     </g>
     <g id="text_7">
      <!-- 30 -->
      <g transform="translate(1030.472159 377.155) scale(0.2 -0.2)">
       <defs>
        <path id="DejaVuSans-33" d="M 2597 2516 
Q 3050 2419 3304 2112 
Q 3559 1806 3559 1356 
Q 3559 666 3084 287 
Q 2609 -91 1734 -91 
Q 1441 -91 1130 -33 
Q 819 25 488 141 
L 488 750 
Q 750 597 1062 519 
Q 1375 441 1716 441 
Q 2309 441 2620 675 
Q 2931 909 2931 1356 
Q 2931 1769 2642 2001 
Q 2353 2234 1838 2234 
L 1294 2234 
L 1294 2753 
L 1863 2753 
Q 2328 2753 2575 2939 
Q 2822 3125 2822 3475 
Q 2822 3834 2567 4026 
Q 2313 4219 1838 4219 
Q 1578 4219 1281 4162 
Q 984 4106 628 3988 
L 628 4550 
Q 988 4650 1302 4700 
Q 1616 4750 1894 4750 
Q 2613 4750 3031 4423 
Q 3450 4097 3450 3541 
Q 3450 3153 3228 2886 
Q 3006 2619 2597 2516 
z
" transform="scale(0.015625)"/>
       </defs>
       <use xlink:href="#DejaVuSans-33"/>
       <use xlink:href="#DejaVuSans-30" x="63.623047"/>
      </g>
     </g>
    </g>
    <g id="text_8">
     <!-- Index of thread (sorted by time of first task) -->
     <g transform="translate(395.985938 400.51125) scale(0.2 -0.2)">
      <defs>
       <path id="DejaVuSans-49" d="M 628 4666 
L 1259 4666 
L 1259 0 
L 628 0 
L 628 4666 
z
" transform="scale(0.015625)"/>
       <path id="DejaVuSans-6e" d="M 3513 2113 
L 3513 0 
L 2938 0 
L 2938 2094 
Q 2938 2591 2744 2837 
Q 2550 3084 2163 3084 
Q 1697 3084 1428 2787 
Q 1159 2491 1159 1978 
L 1159 0 
L 581 0 
L 581 3500 
L 1159 3500 
L 1159 2956 
Q 1366 3272 1645 3428 
Q 1925 3584 2291 3584 
Q 2894 3584 3203 3211 
Q 3513 2838 3513 2113 
z
" transform="scale(0.015625)"/>
       <path id="DejaVuSans-64" d="M 2906 2969 
L 2906 4863 
L 3481 4863 
L 3481 0 
L 2906 0 
L 2906 525 
Q 2725 213 2448 61 
Q 2172 -91 1784 -91 
Q 1150 -91 751 415 
Q 353 922 353 1747 
Q 353 2572 751 3078 
Q 1150 3584 1784 3584 
Q 2172 3584 2448 3432 
Q 2725 3281 2906 2969 
z
M 947 1747 
Q 947 1113 1208 752 
Q 1469 391 1925 391 
Q 2381 391 2643 752 
Q 2906 1113 2906 1747 
Q 2906 2381 2643 2742 
Q 2381 3103 1925 3103 
Q 1469 3103 1208 2742 
Q 947 2381 947 1747 
z
" transform="scale(0.015625)"/>
       <path id="DejaVuSans-65" d="M 3597 1894 
L 3597 1613 
L 953 1613 
Q 991 1019 1311 708 
Q 1631 397 2203 397 
Q 2534 397 2845 478 
Q 3156 559 3463 722 
L 3463 178 
Q 3153 47 2828 -22 
Q 2503 -91 2169 -91 
Q 1331 -91 842 396 
Q 353 884 353 1716 
Q 353 2575 817 3079 
Q 1281 3584 2069 3584 
Q 2775 3584 3186 3129 
Q 3597 2675 3597 1894 
z
M 3022 2063 
Q 3016 2534 2758 2815 
Q 2500 3097 2075 3097 
Q 1594 3097 1305 2825 
Q 1016 2553 972 2059 
L 3022 2063 
z
" transform="scale(0.015625)"/>
       <path id="DejaVuSans-78" d="M 3513 3500 
L 2247 1797 
L 3578 0 
L 2900 0 
L 1881 1375 
L 863 0 
L 184 0 
L 1544 1831 
L 300 3500 
L 978 3500 
L 1906 2253 
L 2834 3500 
L 3513 3500 
z
" transform="scale(0.015625)"/>
       <path id="DejaVuSans-20" transform="scale(0.015625)"/>
       <path id="DejaVuSans-6f" d="M 1959 3097 
Q 1497 3097 1228 2736 
Q 959 2375 959 1747 
Q 959 1119 1226 758 
Q 1494 397 1959 397 
Q 2419 397 2687 759 
Q 2956 1122 2956 1747 
Q 2956 2369 2687 2733 
Q 2419 3097 1959 3097 
z
M 1959 3584 
Q 2709 3584 3137 3096 
Q 3566 2609 3566 1747 
Q 3566 888 3137 398 
Q 2709 -91 1959 -91 
Q 1206 -91 779 398 
Q 353 888 353 1747 
Q 353 2609 779 3096 
Q 1206 3584 1959 3584 
z
" transform="scale(0.015625)"/>
       <path id="DejaVuSans-66" d="M 2375 4863 
L 2375 4384 
L 1825 4384 
Q 1516 4384 1395 4259 
Q 1275 4134 1275 3809 
L 1275 3500 
L 2222 3500 
L 2222 3053 
L 1275 3053 
L 1275 0 
L 697 0 
L 697 3053 
L 147 3053 
L 147 3500 
L 697 3500 
L 697 3744 
Q 697 4328 969 4595 
Q 1241 4863 1831 4863 
L 2375 4863 
z
" transform="scale(0.015625)"/>
       <path id="DejaVuSans-74" d="M 1172 4494 
L 1172 3500 
L 2356 3500 
L 2356 3053 
L 1172 3053 
L 1172 1153 
Q 1172 725 1289 603 
Q 1406 481 1766 481 
L 2356 481 
L 2356 0 
L 1766 0 
Q 1100 0 847 248 
Q 594 497 594 1153 
L 594 3053 
L 172 3053 
L 172 3500 
L 594 3500 
L 594 4494 
L 1172 4494 
z
" transform="scale(0.015625)"/>
       <path id="DejaVuSans-68" d="M 3513 2113 
L 3513 0 
L 2938 0 
L 2938 2094 
Q 2938 2591 2744 2837 
Q 2550 3084 2163 3084 
Q 1697 3084 1428 2787 
Q 1159 2491 1159 1978 
L 1159 0 
L 581 0 
L 581 4863 
L 1159 4863 
L 1159 2956 
Q 1366 3272 1645 3428 
Q 1925 3584 2291 3584 
Q 2894 3584 3203 3211 
Q 3513 2838 3513 2113 
z
" transform="scale(0.015625)"/>
       <path id="DejaVuSans-72" d="M 2631 2963 
Q 2534 3019 2420 3045 
Q 2306 3072 2169 3072 
Q 1681 3072 1420 2755 
Q 1159 2438 1159 1844 
L 1159 0 
L 581 0 
L 581 3500 
L 1159 3500 
L 1159 2956 
Q 1341 3275 1631 3429 
Q 1922 3584 2338 3584 
Q 2397 3584 2469 3576 
Q 2541 3569 2628 3553 
L 2631 2963 
z
" transform="scale(0.015625)"/>
       <path id="DejaVuSans-61" d="M 2194 1759 
Q 1497 1759 1228 1600 
Q 959 1441 959 1056 
Q 959 750 1161 570 
Q 1363 391 1709 391 
Q 2188 391 2477 730 
Q 2766 1069 2766 1631 
L 2766 1759 
L 2194 1759 
z
M 3341 1997 
L 3341 0 
L 2766 0 
L 2766 531 
Q 2569 213 2275 61 
Q 1981 -91 1556 -91 
Q 1019 -91 701 211 
Q 384 513 384 1019 
Q 384 1609 779 1909 
Q 1175 2209 1959 2209 
L 2766 2209 
L 2766 2266 
Q 2766 2663 2505 2880 
Q 2244 3097 1772 3097 
Q 1472 3097 1187 3025 
Q 903 2953 641 2809 
L 641 3341 
Q 956 3463 1253 3523 
Q 1550 3584 1831 3584 
Q 2591 3584 2966 3190 
Q 3341 2797 3341 1997 
z
" transform="scale(0.015625)"/>
       <path id="DejaVuSans-28" d="M 1984 4856 
Q 1566 4138 1362 3434 
Q 1159 2731 1159 2009 
Q 1159 1288 1364 580 
Q 1569 -128 1984 -844 
L 1484 -844 
Q 1016 -109 783 600 
Q 550 1309 550 2009 
Q 550 2706 781 3412 
Q 1013 4119 1484 4856 
L 1984 4856 
z
" transform="scale(0.015625)"/>
       <path id="DejaVuSans-73" d="M 2834 3397 
L 2834 2853 
Q 2591 2978 2328 3040 
Q 2066 3103 1784 3103 
Q 1356 3103 1142 2972 
Q 928 2841 928 2578 
Q 928 2378 1081 2264 
Q 1234 2150 1697 2047 
L 1894 2003 
Q 2506 1872 2764 1633 
Q 3022 1394 3022 966 
Q 3022 478 2636 193 
Q 2250 -91 1575 -91 
Q 1294 -91 989 -36 
Q 684 19 347 128 
L 347 722 
Q 666 556 975 473 
Q 1284 391 1588 391 
Q 1994 391 2212 530 
Q 2431 669 2431 922 
Q 2431 1156 2273 1281 
Q 2116 1406 1581 1522 
L 1381 1569 
Q 847 1681 609 1914 
Q 372 2147 372 2553 
Q 372 3047 722 3315 
Q 1072 3584 1716 3584 
Q 2034 3584 2315 3537 
Q 2597 3491 2834 3397 
z
" transform="scale(0.015625)"/>
       <path id="DejaVuSans-62" d="M 3116 1747 
Q 3116 2381 2855 2742 
Q 2594 3103 2138 3103 
Q 1681 3103 1420 2742 
Q 1159 2381 1159 1747 
Q 1159 1113 1420 752 
Q 1681 391 2138 391 
Q 2594 391 2855 752 
Q 3116 1113 3116 1747 
z
M 1159 2969 
Q 1341 3281 1617 3432 
Q 1894 3584 2278 3584 
Q 2916 3584 3314 3078 
Q 3713 2572 3713 1747 
Q 3713 922 3314 415 
Q 2916 -91 2278 -91 
Q 1894 -91 1617 61 
Q 1341 213 1159 525 
L 1159 0 
L 581 0 
L 581 4863 
L 1159 4863 
L 1159 2969 
z
" transform="scale(0.015625)"/>
       <path id="DejaVuSans-79" d="M 2059 -325 
Q 1816 -950 1584 -1140 
Q 1353 -1331 966 -1331 
L 506 -1331 
L 506 -850 
L 844 -850 
Q 1081 -850 1212 -737 
Q 1344 -625 1503 -206 
L 1606 56 
L 191 3500 
L 800 3500 
L 1894 763 
L 2988 3500 
L 3597 3500 
L 2059 -325 
z
" transform="scale(0.015625)"/>
       <path id="DejaVuSans-69" d="M 603 3500 
L 1178 3500 
L 1178 0 
L 603 0 
L 603 3500 
z
M 603 4863 
L 1178 4863 
L 1178 4134 
L 603 4134 
L 603 4863 
z
" transform="scale(0.015625)"/>
       <path id="DejaVuSans-6d" d="M 3328 2828 
Q 3544 3216 3844 3400 
Q 4144 3584 4550 3584 
Q 5097 3584 5394 3201 
Q 5691 2819 5691 2113 
L 5691 0 
L 5113 0 
L 5113 2094 
Q 5113 2597 4934 2840 
Q 4756 3084 4391 3084 
Q 3944 3084 3684 2787 
Q 3425 2491 3425 1978 
L 3425 0 
L 2847 0 
L 2847 2094 
Q 2847 2600 2669 2842 
Q 2491 3084 2119 3084 
Q 1678 3084 1418 2786 
Q 1159 2488 1159 1978 
L 1159 0 
L 581 0 
L 581 3500 
L 1159 3500 
L 1159 2956 
Q 1356 3278 1631 3431 
Q 1906 3584 2284 3584 
Q 2666 3584 2933 3390 
Q 3200 3197 3328 2828 
z
" transform="scale(0.015625)"/>
       <path id="DejaVuSans-6b" d="M 581 4863 
L 1159 4863 
L 1159 1991 
L 2875 3500 
L 3609 3500 
L 1753 1863 
L 3688 0 
L 2938 0 
L 1159 1709 
L 1159 0 
L 581 0 
L 581 4863 
z
" transform="scale(0.015625)"/>
       <path id="DejaVuSans-29" d="M 513 4856 
L 1013 4856 
Q 1481 4119 1714 3412 
Q 1947 2706 1947 2009 
Q 1947 1309 1714 600 
Q 1481 -109 1013 -844 
L 513 -844 
Q 928 -128 1133 580 
Q 1338 1288 1338 2009 
Q 1338 2731 1133 3434 
Q 928 4138 513 4856 
z
" transform="scale(0.015625)"/>
      </defs>
      <use xlink:href="#DejaVuSans-49"/>
      <use xlink:href="#DejaVuSans-6e" x="29.492188"/>
      <use xlink:href="#DejaVuSans-64" x="92.871094"/>
      <use xlink:href="#DejaVuSans-65" x="156.347656"/>
      <use xlink:href="#DejaVuSans-78" x="216.121094"/>
      <use xlink:href="#DejaVuSans-20" x="275.300781"/>
      <use xlink:href="#DejaVuSans-6f" x="307.087891"/>
      <use xlink:href="#DejaVuSans-66" x="368.269531"/>
      <use xlink:href="#DejaVuSans-20" x="403.474609"/>
      <use xlink:href="#DejaVuSans-74" x="435.261719"/>
      <use xlink:href="#DejaVuSans-68" x="474.470703"/>
      <use xlink:href="#DejaVuSans-72" x="537.849609"/>
      <use xlink:href="#DejaVuSans-65" x="576.712891"/>
      <use xlink:href="#DejaVuSans-61" x="638.236328"/>
      <use xlink:href="#DejaVuSans-64" x="699.515625"/>
      <use xlink:href="#DejaVuSans-20" x="762.992188"/>
      <use xlink:href="#DejaVuSans-28" x="794.779297"/>
      <use xlink:href="#DejaVuSans-73" x="833.792969"/>
      <use xlink:href="#DejaVuSans-6f" x="885.892578"/>
      <use xlink:href="#DejaVuSans-72" x="947.074219"/>
      <use xlink:href="#DejaVuSans-74" x="988.1875"/>
      <use xlink:href="#DejaVuSans-65" x="1027.396484"/>
      <use xlink:href="#DejaVuSans-64" x="1088.919922"/>
      <use xlink:href="#DejaVuSans-20" x="1152.396484"/>
      <use xlink:href="#DejaVuSans-62" x="1184.183594"/>
      <use xlink:href="#DejaVuSans-79" x="1247.660156"/>
      <use xlink:href="#DejaVuSans-20" x="1306.839844"/>
      <use xlink:href="#DejaVuSans-74" x="1338.626953"/>
      <use xlink:href="#DejaVuSans-69" x="1377.835938"/>
      <use xlink:href="#DejaVuSans-6d" x="1405.619141"/>
      <use xlink:href="#DejaVuSans-65" x="1503.03125"/>
      <use xlink:href="#DejaVuSans-20" x="1564.554688"/>
      <use xlink:href="#DejaVuSans-6f" x="1596.341797"/>
      <use xlink:href="#DejaVuSans-66" x="1657.523438"/>
      <use xlink:href="#DejaVuSans-20" x="1692.728516"/>
      <use xlink:href="#DejaVuSans-66" x="1724.515625"/>
      <use xlink:href="#DejaVuSans-69" x="1759.720703"/>
      <use xlink:href="#DejaVuSans-72" x="1787.503906"/>
      <use xlink:href="#DejaVuSans-73" x="1828.617188"/>
      <use xlink:href="#DejaVuSans-74" x="1880.716797"/>
      <use xlink:href="#DejaVuSans-20" x="1919.925781"/>
      <use xlink:href="#DejaVuSans-74" x="1951.712891"/>
      <use xlink:href="#DejaVuSans-61" x="1990.921875"/>
      <use xlink:href="#DejaVuSans-73" x="2052.201172"/>
      <use xlink:href="#DejaVuSans-6b" x="2104.300781"/>
      <use xlink:href="#DejaVuSans-29" x="2162.210938"/>
     </g>
    </g>
   </g>
   <g id="matplotlib.axis_2">
    <g id="ytick_1">
     <g id="line2d_8">
      <defs>
       <path id="mb5793055ab" d="M 0 0 
L -3.5 0 
" style="stroke: #000000; stroke-width: 0.8"/>
      </defs>
      <g>
       <use xlink:href="#mb5793055ab" x="113.90625" y="354.958125" style="stroke: #000000; stroke-width: 0.8"/>
      </g>
     </g>
     <g id="text_9">
      <!-- 0 -->
      <g transform="translate(94.18125 362.556563) scale(0.2 -0.2)">
       <use xlink:href="#DejaVuSans-30"/>
      </g>
     </g>
    </g>
    <g id="ytick_2">
     <g id="line2d_9">
      <g>
       <use xlink:href="#mb5793055ab" x="113.90625" y="320.448321" style="stroke: #000000; stroke-width: 0.8"/>
      </g>
     </g>
     <g id="text_10">
      <!-- 30000 -->
      <g transform="translate(43.28125 328.046759) scale(0.2 -0.2)">
       <use xlink:href="#DejaVuSans-33"/>
       <use xlink:href="#DejaVuSans-30" x="63.623047"/>
       <use xlink:href="#DejaVuSans-30" x="127.246094"/>
       <use xlink:href="#DejaVuSans-30" x="190.869141"/>
       <use xlink:href="#DejaVuSans-30" x="254.492188"/>
      </g>
     </g>
    </g>
    <g id="ytick_3">
     <g id="line2d_10">
      <g>
       <use xlink:href="#mb5793055ab" x="113.90625" y="285.938517" style="stroke: #000000; stroke-width: 0.8"/>
      </g>
     </g>
     <g id="text_11">
      <!-- 60000 -->
      <g transform="translate(43.28125 293.536955) scale(0.2 -0.2)">
       <defs>
        <path id="DejaVuSans-36" d="M 2113 2584 
Q 1688 2584 1439 2293 
Q 1191 2003 1191 1497 
Q 1191 994 1439 701 
Q 1688 409 2113 409 
Q 2538 409 2786 701 
Q 3034 994 3034 1497 
Q 3034 2003 2786 2293 
Q 2538 2584 2113 2584 
z
M 3366 4563 
L 3366 3988 
Q 3128 4100 2886 4159 
Q 2644 4219 2406 4219 
Q 1781 4219 1451 3797 
Q 1122 3375 1075 2522 
Q 1259 2794 1537 2939 
Q 1816 3084 2150 3084 
Q 2853 3084 3261 2657 
Q 3669 2231 3669 1497 
Q 3669 778 3244 343 
Q 2819 -91 2113 -91 
Q 1303 -91 875 529 
Q 447 1150 447 2328 
Q 447 3434 972 4092 
Q 1497 4750 2381 4750 
Q 2619 4750 2861 4703 
Q 3103 4656 3366 4563 
z
" transform="scale(0.015625)"/>
       </defs>
       <use xlink:href="#DejaVuSans-36"/>
       <use xlink:href="#DejaVuSans-30" x="63.623047"/>
       <use xlink:href="#DejaVuSans-30" x="127.246094"/>
       <use xlink:href="#DejaVuSans-30" x="190.869141"/>
       <use xlink:href="#DejaVuSans-30" x="254.492188"/>
      </g>
     </g>
    </g>
    <g id="ytick_4">
     <g id="line2d_11">
      <g>
       <use xlink:href="#mb5793055ab" x="113.90625" y="251.428713" style="stroke: #000000; stroke-width: 0.8"/>
      </g>
     </g>
     <g id="text_12">
      <!-- 90000 -->
      <g transform="translate(43.28125 259.027151) scale(0.2 -0.2)">
       <defs>
        <path id="DejaVuSans-39" d="M 703 97 
L 703 672 
Q 941 559 1184 500 
Q 1428 441 1663 441 
Q 2288 441 2617 861 
Q 2947 1281 2994 2138 
Q 2813 1869 2534 1725 
Q 2256 1581 1919 1581 
Q 1219 1581 811 2004 
Q 403 2428 403 3163 
Q 403 3881 828 4315 
Q 1253 4750 1959 4750 
Q 2769 4750 3195 4129 
Q 3622 3509 3622 2328 
Q 3622 1225 3098 567 
Q 2575 -91 1691 -91 
Q 1453 -91 1209 -44 
Q 966 3 703 97 
z
M 1959 2075 
Q 2384 2075 2632 2365 
Q 2881 2656 2881 3163 
Q 2881 3666 2632 3958 
Q 2384 4250 1959 4250 
Q 1534 4250 1286 3958 
Q 1038 3666 1038 3163 
Q 1038 2656 1286 2365 
Q 1534 2075 1959 2075 
z
" transform="scale(0.015625)"/>
       </defs>
       <use xlink:href="#DejaVuSans-39"/>
       <use xlink:href="#DejaVuSans-30" x="63.623047"/>
       <use xlink:href="#DejaVuSans-30" x="127.246094"/>
       <use xlink:href="#DejaVuSans-30" x="190.869141"/>
       <use xlink:href="#DejaVuSans-30" x="254.492188"/>
      </g>
     </g>
    </g>
    <g id="ytick_5">
     <g id="line2d_12">
      <g>
       <use xlink:href="#mb5793055ab" x="113.90625" y="216.918909" style="stroke: #000000; stroke-width: 0.8"/>
      </g>
     </g>
     <g id="text_13">
      <!-- 120000 -->
      <g transform="translate(30.55625 224.517347) scale(0.2 -0.2)">
       <use xlink:href="#DejaVuSans-31"/>
       <use xlink:href="#DejaVuSans-32" x="63.623047"/>
       <use xlink:href="#DejaVuSans-30" x="127.246094"/>
       <use xlink:href="#DejaVuSans-30" x="190.869141"/>
       <use xlink:href="#DejaVuSans-30" x="254.492188"/>
       <use xlink:href="#DejaVuSans-30" x="318.115234"/>
      </g>
     </g>
    </g>
    <g id="ytick_6">
     <g id="line2d_13">
      <g>
       <use xlink:href="#mb5793055ab" x="113.90625" y="182.409105" style="stroke: #000000; stroke-width: 0.8"/>
      </g>
     </g>
     <g id="text_14">
      <!-- 150000 -->
      <g transform="translate(30.55625 190.007543) scale(0.2 -0.2)">
       <use xlink:href="#DejaVuSans-31"/>
       <use xlink:href="#DejaVuSans-35" x="63.623047"/>
       <use xlink:href="#DejaVuSans-30" x="127.246094"/>
       <use xlink:href="#DejaVuSans-30" x="190.869141"/>
       <use xlink:href="#DejaVuSans-30" x="254.492188"/>
       <use xlink:href="#DejaVuSans-30" x="318.115234"/>
      </g>
     </g>
    </g>
    <g id="ytick_7">
     <g id="line2d_14">
      <g>
       <use xlink:href="#mb5793055ab" x="113.90625" y="147.899301" style="stroke: #000000; stroke-width: 0.8"/>
      </g>
     </g>
     <g id="text_15">
      <!-- 180000 -->
      <g transform="translate(30.55625 155.497739) scale(0.2 -0.2)">
       <defs>
        <path id="DejaVuSans-38" d="M 2034 2216 
Q 1584 2216 1326 1975 
Q 1069 1734 1069 1313 
Q 1069 891 1326 650 
Q 1584 409 2034 409 
Q 2484 409 2743 651 
Q 3003 894 3003 1313 
Q 3003 1734 2745 1975 
Q 2488 2216 2034 2216 
z
M 1403 2484 
Q 997 2584 770 2862 
Q 544 3141 544 3541 
Q 544 4100 942 4425 
Q 1341 4750 2034 4750 
Q 2731 4750 3128 4425 
Q 3525 4100 3525 3541 
Q 3525 3141 3298 2862 
Q 3072 2584 2669 2484 
Q 3125 2378 3379 2068 
Q 3634 1759 3634 1313 
Q 3634 634 3220 271 
Q 2806 -91 2034 -91 
Q 1263 -91 848 271 
Q 434 634 434 1313 
Q 434 1759 690 2068 
Q 947 2378 1403 2484 
z
M 1172 3481 
Q 1172 3119 1398 2916 
Q 1625 2713 2034 2713 
Q 2441 2713 2670 2916 
Q 2900 3119 2900 3481 
Q 2900 3844 2670 4047 
Q 2441 4250 2034 4250 
Q 1625 4250 1398 4047 
Q 1172 3844 1172 3481 
z
" transform="scale(0.015625)"/>
       </defs>
       <use xlink:href="#DejaVuSans-31"/>
       <use xlink:href="#DejaVuSans-38" x="63.623047"/>
       <use xlink:href="#DejaVuSans-30" x="127.246094"/>
       <use xlink:href="#DejaVuSans-30" x="190.869141"/>
       <use xlink:href="#DejaVuSans-30" x="254.492188"/>
       <use xlink:href="#DejaVuSans-30" x="318.115234"/>
      </g>
     </g>
    </g>
    <g id="ytick_8">
     <g id="line2d_15">
      <g>
       <use xlink:href="#mb5793055ab" x="113.90625" y="113.389498" style="stroke: #000000; stroke-width: 0.8"/>
      </g>
     </g>
     <g id="text_16">
      <!-- 210000 -->
      <g transform="translate(30.55625 120.987935) scale(0.2 -0.2)">
       <use xlink:href="#DejaVuSans-32"/>
       <use xlink:href="#DejaVuSans-31" x="63.623047"/>
       <use xlink:href="#DejaVuSans-30" x="127.246094"/>
       <use xlink:href="#DejaVuSans-30" x="190.869141"/>
       <use xlink:href="#DejaVuSans-30" x="254.492188"/>
       <use xlink:href="#DejaVuSans-30" x="318.115234"/>
      </g>
     </g>
    </g>
    <g id="ytick_9">
     <g id="line2d_16">
      <g>
       <use xlink:href="#mb5793055ab" x="113.90625" y="78.879694" style="stroke: #000000; stroke-width: 0.8"/>
      </g>
     </g>
     <g id="text_17">
      <!-- 240000 -->
      <g transform="translate(30.55625 86.478131) scale(0.2 -0.2)">
       <defs>
        <path id="DejaVuSans-34" d="M 2419 4116 
L 825 1625 
L 2419 1625 
L 2419 4116 
z
M 2253 4666 
L 3047 4666 
L 3047 1625 
L 3713 1625 
L 3713 1100 
L 3047 1100 
L 3047 0 
L 2419 0 
L 2419 1100 
L 313 1100 
L 313 1709 
L 2253 4666 
z
" transform="scale(0.015625)"/>
       </defs>
       <use xlink:href="#DejaVuSans-32"/>
       <use xlink:href="#DejaVuSans-34" x="63.623047"/>
       <use xlink:href="#DejaVuSans-30" x="127.246094"/>
       <use xlink:href="#DejaVuSans-30" x="190.869141"/>
       <use xlink:href="#DejaVuSans-30" x="254.492188"/>
       <use xlink:href="#DejaVuSans-30" x="318.115234"/>
      </g>
     </g>
    </g>
    <g id="ytick_10">
     <g id="line2d_17">
      <g>
       <use xlink:href="#mb5793055ab" x="113.90625" y="44.36989" style="stroke: #000000; stroke-width: 0.8"/>
      </g>
     </g>
     <g id="text_18">
      <!-- 270000 -->
      <g transform="translate(30.55625 51.968327) scale(0.2 -0.2)">
       <defs>
        <path id="DejaVuSans-37" d="M 525 4666 
L 3525 4666 
L 3525 4397 
L 1831 0 
L 1172 0 
L 2766 4134 
L 525 4134 
L 525 4666 
z
" transform="scale(0.015625)"/>
       </defs>
       <use xlink:href="#DejaVuSans-32"/>
       <use xlink:href="#DejaVuSans-37" x="63.623047"/>
       <use xlink:href="#DejaVuSans-30" x="127.246094"/>
       <use xlink:href="#DejaVuSans-30" x="190.869141"/>
       <use xlink:href="#DejaVuSans-30" x="254.492188"/>
       <use xlink:href="#DejaVuSans-30" x="318.115234"/>
      </g>
     </g>
    </g>
    <g id="text_19">
     <!-- Cycles -->
     <g transform="translate(22.396875 221.17875) rotate(-90) scale(0.2 -0.2)">
      <defs>
       <path id="DejaVuSans-43" d="M 4122 4306 
L 4122 3641 
Q 3803 3938 3442 4084 
Q 3081 4231 2675 4231 
Q 1875 4231 1450 3742 
Q 1025 3253 1025 2328 
Q 1025 1406 1450 917 
Q 1875 428 2675 428 
Q 3081 428 3442 575 
Q 3803 722 4122 1019 
L 4122 359 
Q 3791 134 3420 21 
Q 3050 -91 2638 -91 
Q 1578 -91 968 557 
Q 359 1206 359 2328 
Q 359 3453 968 4101 
Q 1578 4750 2638 4750 
Q 3056 4750 3426 4639 
Q 3797 4528 4122 4306 
z
" transform="scale(0.015625)"/>
       <path id="DejaVuSans-63" d="M 3122 3366 
L 3122 2828 
Q 2878 2963 2633 3030 
Q 2388 3097 2138 3097 
Q 1578 3097 1268 2742 
Q 959 2388 959 1747 
Q 959 1106 1268 751 
Q 1578 397 2138 397 
Q 2388 397 2633 464 
Q 2878 531 3122 666 
L 3122 134 
Q 2881 22 2623 -34 
Q 2366 -91 2075 -91 
Q 1284 -91 818 406 
Q 353 903 353 1747 
Q 353 2603 823 3093 
Q 1294 3584 2113 3584 
Q 2378 3584 2631 3529 
Q 2884 3475 3122 3366 
z
" transform="scale(0.015625)"/>
       <path id="DejaVuSans-6c" d="M 603 4863 
L 1178 4863 
L 1178 0 
L 603 0 
L 603 4863 
z
" transform="scale(0.015625)"/>
      </defs>
      <use xlink:href="#DejaVuSans-43"/>
      <use xlink:href="#DejaVuSans-79" x="69.824219"/>
      <use xlink:href="#DejaVuSans-63" x="129.003906"/>
      <use xlink:href="#DejaVuSans-6c" x="183.984375"/>
      <use xlink:href="#DejaVuSans-65" x="211.767578"/>
      <use xlink:href="#DejaVuSans-73" x="273.291016"/>
     </g>
    </g>
   </g>
   <g id="line2d_18">
    <path d="M 159.560795 347.531615 
L 189.015341 347.310752 
L 218.469886 346.790805 
L 247.924432 346.201837 
L 277.378977 345.355197 
L 306.833523 345.203354 
L 336.288068 345.136635 
L 365.742614 344.145053 
L 395.197159 343.484766 
L 424.651705 343.093654 
L 454.10625 342.049158 
L 483.560795 341.807589 
L 513.015341 341.536112 
L 542.469886 341.034569 
L 571.924432 340.250047 
L 601.378977 338.768426 
L 630.833523 329.453079 
L 660.288068 326.874047 
L 689.742614 326.46223 
L 719.197159 325.507458 
L 748.651705 324.375537 
L 778.10625 322.233628 
L 807.560795 317.043354 
L 837.015341 315.660661 
L 866.469886 307.615275 
L 895.924432 304.214909 
L 925.378977 300.881262 
L 954.833523 298.631223 
L 984.288068 296.061393 
L 1013.742614 293.970099 
L 1043.197159 289.269864 
L 1072.651705 279.285027 
" clip-path="url(#p1e0512a1be)" style="fill: none; stroke: #008000; stroke-width: 1.5; stroke-linecap: square"/>
   </g>
   <g id="line2d_19">
    <path d="M 159.560795 323.758962 
L 189.015341 314.427511 
L 218.469886 312.377628 
L 245.43149 -1 
" clip-path="url(#p1e0512a1be)" style="fill: none; stroke: #ff0000; stroke-width: 1.5; stroke-linecap: square"/>
   </g>
   <g id="line2d_20">
    <path d="M 159.560795 317.554099 
L 189.015341 315.278752 
L 218.469886 312.810151 
L 247.924432 312.193576 
L 277.378977 311.876086 
L 306.833523 311.2227 
L 336.288068 253.38887 
L 365.742614 232.883145 
L 395.197159 185.913001 
L 424.651705 178.599223 
L 454.10625 176.075406 
L 483.560795 153.252922 
L 513.015341 148.419249 
L 542.469886 142.304112 
L 571.924432 139.890726 
L 601.378977 132.360687 
L 630.833523 124.02772 
L 660.288068 123.595197 
L 689.742614 112.506047 
L 719.197159 103.715249 
L 748.651705 103.255118 
L 778.10625 102.569524 
L 807.560795 100.590962 
L 837.015341 99.157654 
L 866.469886 98.911484 
L 895.924432 98.587092 
L 925.378977 97.772661 
L 954.833523 95.078596 
L 984.288068 90.27253 
L 1013.742614 81.838334 
L 1043.197159 72.861184 
L 1072.651705 22.318125 
" clip-path="url(#p1e0512a1be)" style="fill: none; stroke: #00bfbf; stroke-width: 1.5; stroke-linecap: square"/>
   </g>
   <g id="line2d_21">
    <path d="M 159.560795 321.49972 
L 189.015341 320.890047 
L 218.469886 319.797236 
L 247.924432 319.53036 
L 277.378977 317.519589 
L 306.833523 316.8547 
L 336.288068 257.072217 
L 365.742614 239.752896 
L 395.197159 211.935694 
L 424.651705 199.74223 
L 454.10625 196.99755 
L 483.560795 192.232896 
L 513.015341 191.954517 
L 542.469886 186.067145 
L 571.924432 178.541707 
L 601.378977 168.096739 
L 630.833523 159.347354 
L 660.288068 154.870282 
L 689.742614 149.523563 
L 719.197159 143.898465 
L 748.651705 138.758805 
L 778.10625 132.132922 
L 807.560795 126.592949 
L 837.015341 124.356713 
L 866.469886 120.443301 
L 895.924432 116.677132 
L 925.378977 111.546674 
L 954.833523 110.727641 
L 984.288068 109.271328 
L 1013.742614 100.899249 
L 1043.197159 100.427615 
L 1072.651705 90.514099 
" clip-path="url(#p1e0512a1be)" style="fill: none; stroke: #bf00bf; stroke-width: 1.5; stroke-linecap: square"/>
   </g>
   <g id="line2d_22">
    <path d="M 159.560795 311.029445 
L 189.015341 310.544007 
L 218.469886 307.849942 
L 247.924432 306.317707 
L 277.378977 302.63206 
L 306.833523 295.925654 
L 336.288068 209.908818 
L 365.742614 203.420975 
L 395.197159 199.680112 
L 424.651705 195.817315 
L 454.10625 191.954517 
L 483.560795 187.254282 
L 513.015341 184.46819 
L 542.469886 184.224321 
L 571.924432 182.133027 
L 601.378977 147.169994 
L 630.833523 136.826256 
L 660.288068 123.385837 
L 689.742614 121.929524 
L 719.197159 117.825158 
L 748.651705 117.69172 
L 778.10625 117.072844 
L 807.560795 115.200112 
L 837.015341 107.012086 
L 866.469886 101.108609 
L 895.924432 95.65606 
L 925.378977 85.130569 
L 954.833523 83.531615 
L 984.288068 80.128949 
L 1013.742614 75.191746 
L 1043.197159 74.876556 
L 1072.651705 54.094752 
" clip-path="url(#p1e0512a1be)" style="fill: none; stroke: #000000; stroke-width: 1.5; stroke-linecap: square"/>
   </g>
   <g id="line2d_23">
    <path d="M 159.560795 350.936583 
L 189.015341 349.66202 
L 218.469886 348.721053 
L 247.924432 347.731772 
L 277.378977 346.882831 
L 306.833523 345.89585 
L 336.288068 344.941079 
L 365.742614 343.765445 
L 395.197159 341.945628 
L 424.651705 340.802203 
L 454.10625 339.638073 
L 483.560795 338.200164 
L 513.015341 337.178674 
L 542.469886 335.455484 
L 571.924432 334.459301 
L 601.378977 332.3427 
L 630.833523 329.800478 
L 660.288068 326.229864 
L 689.742614 322.302648 
L 719.197159 319.817942 
L 748.651705 317.73585 
L 778.10625 314.675981 
L 807.560795 312.027929 
L 837.015341 309.25104 
L 866.469886 306.020922 
L 895.924432 303.02087 
L 925.378977 298.987824 
L 954.833523 296.070596 
L 984.288068 293.779145 
L 1013.742614 289.92555 
L 1043.197159 286.923197 
L 1072.651705 286.706935 
" clip-path="url(#p1e0512a1be)" style="fill: none; stroke-dasharray: 5.55,2.4; stroke-dashoffset: 0; stroke: #0000ff; stroke-width: 1.5"/>
   </g>
   <g id="line2d_24">
    <path d="M 159.560795 348.313837 
L 189.015341 346.123615 
L 218.469886 344.326805 
L 247.924432 344.230177 
L 277.378977 343.18338 
L 306.833523 343.100556 
L 336.288068 343.020033 
L 365.742614 342.534596 
L 395.197159 342.076766 
L 424.651705 341.612033 
L 454.10625 341.45789 
L 483.560795 341.425681 
L 513.015341 341.393471 
L 542.469886 341.264635 
L 571.924432 340.746988 
L 601.378977 340.664164 
L 630.833523 340.427197 
L 660.288068 340.415694 
L 689.742614 339.895746 
L 719.197159 339.251563 
L 748.651705 338.729315 
L 778.10625 338.266883 
L 807.560795 337.953994 
L 837.015341 337.390334 
L 866.469886 337.365027 
L 895.924432 337.047537 
L 925.378977 336.960112 
L 954.833523 336.782962 
L 984.288068 336.398752 
L 1013.742614 332.262177 
L 1043.197159 332.043615 
L 1072.651705 331.571981 
" clip-path="url(#p1e0512a1be)" style="fill: none; stroke-dasharray: 5.55,2.4; stroke-dashoffset: 0; stroke: #008000; stroke-width: 1.5"/>
   </g>
   <g id="line2d_25">
    <path d="M 159.560795 346.425001 
L 189.015341 346.229445 
L 218.469886 345.877445 
L 247.924432 345.865942 
L 277.378977 345.688792 
L 306.833523 345.553053 
L 336.288068 345.362099 
L 365.742614 345.249367 
L 395.197159 345.18955 
L 424.651705 345.113628 
L 454.10625 344.777733 
L 483.560795 344.377419 
L 513.015341 344.333707 
L 542.469886 344.004713 
L 571.924432 343.891981 
L 601.378977 342.946413 
L 630.833523 342.737053 
L 660.288068 342.647328 
L 689.742614 342.371249 
L 719.197159 342.256217 
L 748.651705 342.125079 
L 778.10625 341.913419 
L 807.560795 341.713262 
L 837.015341 341.533811 
L 866.469886 341.209419 
L 895.924432 341.07138 
L 925.378977 339.967066 
L 954.833523 339.707092 
L 984.288068 339.332086 
L 1013.742614 338.936373 
L 1043.197159 338.60738 
L 1072.651705 338.407223 
" clip-path="url(#p1e0512a1be)" style="fill: none; stroke-dasharray: 5.55,2.4; stroke-dashoffset: 0; stroke: #ff0000; stroke-width: 1.5"/>
   </g>
   <g id="line2d_26">
    <path d="M 159.560795 343.581393 
L 189.015341 343.475563 
L 218.469886 343.349027 
L 247.924432 343.208687 
L 277.378977 343.04304 
L 306.833523 342.976321 
L 336.288068 342.849785 
L 365.742614 342.720949 
L 395.197159 342.615118 
L 424.651705 342.610517 
L 454.10625 342.571406 
L 483.560795 342.51389 
L 513.015341 342.433367 
L 542.469886 342.30223 
L 571.924432 342.260818 
L 601.378977 342.173393 
L 630.833523 341.697158 
L 660.288068 341.575223 
L 689.742614 341.35436 
L 719.197159 341.230125 
L 748.651705 341.004661 
L 778.10625 340.880426 
L 807.560795 340.751589 
L 837.015341 340.622752 
L 866.469886 340.487014 
L 895.924432 340.358177 
L 925.378977 339.987772 
L 954.833523 339.817524 
L 984.288068 339.69789 
L 1013.742614 339.587458 
L 1043.197159 339.467824 
L 1072.651705 339.256164 
" clip-path="url(#p1e0512a1be)" style="fill: none; stroke-dasharray: 5.55,2.4; stroke-dashoffset: 0; stroke: #00bfbf; stroke-width: 1.5"/>
   </g>
   <g id="line2d_27">
    <path d="M 159.560795 348.355249 
L 189.015341 348.272426 
L 218.469886 348.125184 
L 247.924432 348.044661 
L 277.378977 347.93653 
L 306.833523 347.851406 
L 336.288068 347.819197 
L 365.742614 347.747877 
L 395.197159 347.692661 
L 424.651705 347.469498 
L 454.10625 347.356766 
L 483.560795 347.250935 
L 513.015341 347.112896 
L 542.469886 347.007066 
L 571.924432 346.788504 
L 601.378977 346.643563 
L 630.833523 346.293864 
L 660.288068 346.169628 
L 689.742614 346.049994 
L 719.197159 345.921158 
L 748.651705 345.813027 
L 778.10625 345.734805 
L 807.560795 345.624373 
L 837.015341 345.327589 
L 866.469886 345.104426 
L 895.924432 344.964086 
L 925.378977 344.711014 
L 954.833523 344.483249 
L 984.288068 344.200269 
L 1013.742614 344.124347 
L 1043.197159 343.972504 
L 1072.651705 343.875877 
" clip-path="url(#p1e0512a1be)" style="fill: none; stroke-dasharray: 5.55,2.4; stroke-dashoffset: 0; stroke: #bf00bf; stroke-width: 1.5"/>
   </g>
   <g id="line2d_28">
    <path d="M 159.560795 347.494805 
L 189.015341 347.481001 
L 218.469886 347.421184 
L 247.924432 347.395877 
L 277.378977 347.319955 
L 306.833523 347.271641 
L 336.288068 347.115197 
L 365.742614 347.064583 
L 395.197159 347.011667 
L 424.651705 346.988661 
L 454.10625 346.967955 
L 483.560795 346.873628 
L 513.015341 346.873628 
L 542.469886 346.859824 
L 571.924432 346.84372 
L 601.378977 346.832217 
L 630.833523 346.790805 
L 660.288068 346.765498 
L 689.742614 346.751694 
L 719.197159 346.705681 
L 748.651705 346.694177 
L 778.10625 346.687275 
L 807.560795 346.648164 
L 837.015341 346.609053 
L 866.469886 346.406596 
L 895.924432 346.397393 
L 925.378977 346.28006 
L 954.833523 346.171929 
L 984.288068 346.0684 
L 1013.742614 345.877445 
L 1043.197159 345.856739 
L 1072.651705 345.43802 
" clip-path="url(#p1e0512a1be)" style="fill: none; stroke-dasharray: 5.55,2.4; stroke-dashoffset: 0; stroke: #000000; stroke-width: 1.5"/>
   </g>
   <g id="line2d_29">
    <path d="M 159.560795 349.206491 
L 189.015341 348.909707 
L 218.469886 348.806177 
L 247.924432 348.750962 
L 277.378977 348.707249 
L 306.833523 348.688844 
L 336.288068 348.670439 
L 365.742614 348.647432 
L 395.197159 348.520896 
L 424.651705 348.509393 
L 454.10625 348.502491 
L 483.560795 348.502491 
L 513.015341 348.490988 
L 542.469886 348.484086 
L 571.924432 348.373654 
L 601.378977 348.242517 
L 630.833523 347.642047 
L 660.288068 347.605236 
L 689.742614 347.563824 
L 719.197159 347.538517 
L 748.651705 347.531615 
L 778.10625 347.520112 
L 807.560795 347.506308 
L 837.015341 347.504007 
L 866.469886 347.471798 
L 895.924432 347.471798 
L 925.378977 347.467197 
L 954.833523 347.451092 
L 984.288068 347.285445 
L 1013.742614 347.053079 
L 1043.197159 346.997864 
L 1072.651705 346.073001 
" clip-path="url(#p1e0512a1be)" style="fill: none; stroke-dasharray: 9.6,2.4,1.5,2.4; stroke-dashoffset: 0; stroke: #0000ff; stroke-width: 1.5"/>
   </g>
   <g id="patch_3">
    <path d="M 113.90625 354.958125 
L 113.90625 22.318125 
" style="fill: none; stroke: #000000; stroke-width: 0.8; stroke-linejoin: miter; stroke-linecap: square"/>
   </g>
   <g id="patch_4">
    <path d="M 1118.30625 354.958125 
L 1118.30625 22.318125 
" style="fill: none; stroke: #000000; stroke-width: 0.8; stroke-linejoin: miter; stroke-linecap: square"/>
   </g>
   <g id="patch_5">
    <path d="M 113.90625 354.958125 
L 1118.30625 354.958125 
" style="fill: none; stroke: #000000; stroke-width: 0.8; stroke-linejoin: miter; stroke-linecap: square"/>
   </g>
   <g id="patch_6">
    <path d="M 113.90625 22.318125 
L 1118.30625 22.318125 
" style="fill: none; stroke: #000000; stroke-width: 0.8; stroke-linejoin: miter; stroke-linecap: square"/>
   </g>
   <g id="text_20">
    <!-- Scheduling time, all -->
    <g transform="translate(556.660313 16.318125) scale(0.12 -0.12)">
     <defs>
      <path id="DejaVuSans-53" d="M 3425 4513 
L 3425 3897 
Q 3066 4069 2747 4153 
Q 2428 4238 2131 4238 
Q 1616 4238 1336 4038 
Q 1056 3838 1056 3469 
Q 1056 3159 1242 3001 
Q 1428 2844 1947 2747 
L 2328 2669 
Q 3034 2534 3370 2195 
Q 3706 1856 3706 1288 
Q 3706 609 3251 259 
Q 2797 -91 1919 -91 
Q 1588 -91 1214 -16 
Q 841 59 441 206 
L 441 856 
Q 825 641 1194 531 
Q 1563 422 1919 422 
Q 2459 422 2753 634 
Q 3047 847 3047 1241 
Q 3047 1584 2836 1778 
Q 2625 1972 2144 2069 
L 1759 2144 
Q 1053 2284 737 2584 
Q 422 2884 422 3419 
Q 422 4038 858 4394 
Q 1294 4750 2059 4750 
Q 2388 4750 2728 4690 
Q 3069 4631 3425 4513 
z
" transform="scale(0.015625)"/>
      <path id="DejaVuSans-75" d="M 544 1381 
L 544 3500 
L 1119 3500 
L 1119 1403 
Q 1119 906 1312 657 
Q 1506 409 1894 409 
Q 2359 409 2629 706 
Q 2900 1003 2900 1516 
L 2900 3500 
L 3475 3500 
L 3475 0 
L 2900 0 
L 2900 538 
Q 2691 219 2414 64 
Q 2138 -91 1772 -91 
Q 1169 -91 856 284 
Q 544 659 544 1381 
z
M 1991 3584 
L 1991 3584 
z
" transform="scale(0.015625)"/>
      <path id="DejaVuSans-67" d="M 2906 1791 
Q 2906 2416 2648 2759 
Q 2391 3103 1925 3103 
Q 1463 3103 1205 2759 
Q 947 2416 947 1791 
Q 947 1169 1205 825 
Q 1463 481 1925 481 
Q 2391 481 2648 825 
Q 2906 1169 2906 1791 
z
M 3481 434 
Q 3481 -459 3084 -895 
Q 2688 -1331 1869 -1331 
Q 1566 -1331 1297 -1286 
Q 1028 -1241 775 -1147 
L 775 -588 
Q 1028 -725 1275 -790 
Q 1522 -856 1778 -856 
Q 2344 -856 2625 -561 
Q 2906 -266 2906 331 
L 2906 616 
Q 2728 306 2450 153 
Q 2172 0 1784 0 
Q 1141 0 747 490 
Q 353 981 353 1791 
Q 353 2603 747 3093 
Q 1141 3584 1784 3584 
Q 2172 3584 2450 3431 
Q 2728 3278 2906 2969 
L 2906 3500 
L 3481 3500 
L 3481 434 
z
" transform="scale(0.015625)"/>
      <path id="DejaVuSans-2c" d="M 750 794 
L 1409 794 
L 1409 256 
L 897 -744 
L 494 -744 
L 750 256 
L 750 794 
z
" transform="scale(0.015625)"/>
     </defs>
     <use xlink:href="#DejaVuSans-53"/>
     <use xlink:href="#DejaVuSans-63" x="63.476562"/>
     <use xlink:href="#DejaVuSans-68" x="118.457031"/>
     <use xlink:href="#DejaVuSans-65" x="181.835938"/>
     <use xlink:href="#DejaVuSans-64" x="243.359375"/>
     <use xlink:href="#DejaVuSans-75" x="306.835938"/>
     <use xlink:href="#DejaVuSans-6c" x="370.214844"/>
     <use xlink:href="#DejaVuSans-69" x="397.998047"/>
     <use xlink:href="#DejaVuSans-6e" x="425.78125"/>
     <use xlink:href="#DejaVuSans-67" x="489.160156"/>
     <use xlink:href="#DejaVuSans-20" x="552.636719"/>
     <use xlink:href="#DejaVuSans-74" x="584.423828"/>
     <use xlink:href="#DejaVuSans-69" x="623.632812"/>
     <use xlink:href="#DejaVuSans-6d" x="651.416016"/>
     <use xlink:href="#DejaVuSans-65" x="748.828125"/>
     <use xlink:href="#DejaVuSans-2c" x="810.351562"/>
     <use xlink:href="#DejaVuSans-20" x="842.138672"/>
     <use xlink:href="#DejaVuSans-61" x="873.925781"/>
     <use xlink:href="#DejaVuSans-6c" x="935.205078"/>
     <use xlink:href="#DejaVuSans-6c" x="962.988281"/>
    </g>
   </g>
   <g id="legend_1">
    <g id="patch_7">
     <path d="M 123.70625 284.783125 
L 399.158437 284.783125 
Q 401.958438 284.783125 401.958438 281.983125 
L 401.958438 32.118125 
Q 401.958438 29.318125 399.158437 29.318125 
L 123.70625 29.318125 
Q 120.90625 29.318125 120.90625 32.118125 
L 120.90625 281.983125 
Q 120.90625 284.783125 123.70625 284.783125 
z
" style="fill: #ffffff; opacity: 0.8; stroke: #cccccc; stroke-linejoin: miter"/>
    </g>
    <g id="line2d_30">
     <path d="M 126.50625 40.655938 
L 140.50625 40.655938 
L 154.50625 40.655938 
" style="fill: none; stroke: #008000; stroke-width: 1.5; stroke-linecap: square"/>
    </g>
    <g id="text_21">
     <!-- EIGEN_SIMPLE -->
     <g transform="translate(165.70625 45.555938) scale(0.14 -0.14)">
      <defs>
       <path id="DejaVuSans-45" d="M 628 4666 
L 3578 4666 
L 3578 4134 
L 1259 4134 
L 1259 2753 
L 3481 2753 
L 3481 2222 
L 1259 2222 
L 1259 531 
L 3634 531 
L 3634 0 
L 628 0 
L 628 4666 
z
" transform="scale(0.015625)"/>
       <path id="DejaVuSans-47" d="M 3809 666 
L 3809 1919 
L 2778 1919 
L 2778 2438 
L 4434 2438 
L 4434 434 
Q 4069 175 3628 42 
Q 3188 -91 2688 -91 
Q 1594 -91 976 548 
Q 359 1188 359 2328 
Q 359 3472 976 4111 
Q 1594 4750 2688 4750 
Q 3144 4750 3555 4637 
Q 3966 4525 4313 4306 
L 4313 3634 
Q 3963 3931 3569 4081 
Q 3175 4231 2741 4231 
Q 1884 4231 1454 3753 
Q 1025 3275 1025 2328 
Q 1025 1384 1454 906 
Q 1884 428 2741 428 
Q 3075 428 3337 486 
Q 3600 544 3809 666 
z
" transform="scale(0.015625)"/>
       <path id="DejaVuSans-4e" d="M 628 4666 
L 1478 4666 
L 3547 763 
L 3547 4666 
L 4159 4666 
L 4159 0 
L 3309 0 
L 1241 3903 
L 1241 0 
L 628 0 
L 628 4666 
z
" transform="scale(0.015625)"/>
       <path id="DejaVuSans-5f" d="M 3263 -1063 
L 3263 -1509 
L -63 -1509 
L -63 -1063 
L 3263 -1063 
z
" transform="scale(0.015625)"/>
       <path id="DejaVuSans-4d" d="M 628 4666 
L 1569 4666 
L 2759 1491 
L 3956 4666 
L 4897 4666 
L 4897 0 
L 4281 0 
L 4281 4097 
L 3078 897 
L 2444 897 
L 1241 4097 
L 1241 0 
L 628 0 
L 628 4666 
z
" transform="scale(0.015625)"/>
       <path id="DejaVuSans-50" d="M 1259 4147 
L 1259 2394 
L 2053 2394 
Q 2494 2394 2734 2622 
Q 2975 2850 2975 3272 
Q 2975 3691 2734 3919 
Q 2494 4147 2053 4147 
L 1259 4147 
z
M 628 4666 
L 2053 4666 
Q 2838 4666 3239 4311 
Q 3641 3956 3641 3272 
Q 3641 2581 3239 2228 
Q 2838 1875 2053 1875 
L 1259 1875 
L 1259 0 
L 628 0 
L 628 4666 
z
" transform="scale(0.015625)"/>
       <path id="DejaVuSans-4c" d="M 628 4666 
L 1259 4666 
L 1259 531 
L 3531 531 
L 3531 0 
L 628 0 
L 628 4666 
z
" transform="scale(0.015625)"/>
      </defs>
      <use xlink:href="#DejaVuSans-45"/>
      <use xlink:href="#DejaVuSans-49" x="63.183594"/>
      <use xlink:href="#DejaVuSans-47" x="92.675781"/>
      <use xlink:href="#DejaVuSans-45" x="170.166016"/>
      <use xlink:href="#DejaVuSans-4e" x="233.349609"/>
      <use xlink:href="#DejaVuSans-5f" x="308.154297"/>
      <use xlink:href="#DejaVuSans-53" x="358.154297"/>
      <use xlink:href="#DejaVuSans-49" x="421.630859"/>
      <use xlink:href="#DejaVuSans-4d" x="451.123047"/>
      <use xlink:href="#DejaVuSans-50" x="537.402344"/>
      <use xlink:href="#DejaVuSans-4c" x="597.705078"/>
      <use xlink:href="#DejaVuSans-45" x="653.417969"/>
     </g>
    </g>
    <g id="line2d_31">
     <path d="M 126.50625 61.594688 
L 140.50625 61.594688 
L 154.50625 61.594688 
" style="fill: none; stroke: #ff0000; stroke-width: 1.5; stroke-linecap: square"/>
    </g>
    <g id="text_22">
     <!-- TBB_AFFINITY -->
     <g transform="translate(165.70625 66.494688) scale(0.14 -0.14)">
      <defs>
       <path id="DejaVuSans-54" d="M -19 4666 
L 3928 4666 
L 3928 4134 
L 2272 4134 
L 2272 0 
L 1638 0 
L 1638 4134 
L -19 4134 
L -19 4666 
z
" transform="scale(0.015625)"/>
       <path id="DejaVuSans-42" d="M 1259 2228 
L 1259 519 
L 2272 519 
Q 2781 519 3026 730 
Q 3272 941 3272 1375 
Q 3272 1813 3026 2020 
Q 2781 2228 2272 2228 
L 1259 2228 
z
M 1259 4147 
L 1259 2741 
L 2194 2741 
Q 2656 2741 2882 2914 
Q 3109 3088 3109 3444 
Q 3109 3797 2882 3972 
Q 2656 4147 2194 4147 
L 1259 4147 
z
M 628 4666 
L 2241 4666 
Q 2963 4666 3353 4366 
Q 3744 4066 3744 3513 
Q 3744 3084 3544 2831 
Q 3344 2578 2956 2516 
Q 3422 2416 3680 2098 
Q 3938 1781 3938 1306 
Q 3938 681 3513 340 
Q 3088 0 2303 0 
L 628 0 
L 628 4666 
z
" transform="scale(0.015625)"/>
       <path id="DejaVuSans-41" d="M 2188 4044 
L 1331 1722 
L 3047 1722 
L 2188 4044 
z
M 1831 4666 
L 2547 4666 
L 4325 0 
L 3669 0 
L 3244 1197 
L 1141 1197 
L 716 0 
L 50 0 
L 1831 4666 
z
" transform="scale(0.015625)"/>
       <path id="DejaVuSans-46" d="M 628 4666 
L 3309 4666 
L 3309 4134 
L 1259 4134 
L 1259 2759 
L 3109 2759 
L 3109 2228 
L 1259 2228 
L 1259 0 
L 628 0 
L 628 4666 
z
" transform="scale(0.015625)"/>
       <path id="DejaVuSans-59" d="M -13 4666 
L 666 4666 
L 1959 2747 
L 3244 4666 
L 3922 4666 
L 2272 2222 
L 2272 0 
L 1638 0 
L 1638 2222 
L -13 4666 
z
" transform="scale(0.015625)"/>
      </defs>
      <use xlink:href="#DejaVuSans-54"/>
      <use xlink:href="#DejaVuSans-42" x="61.083984"/>
      <use xlink:href="#DejaVuSans-42" x="129.6875"/>
      <use xlink:href="#DejaVuSans-5f" x="198.291016"/>
      <use xlink:href="#DejaVuSans-41" x="248.291016"/>
      <use xlink:href="#DejaVuSans-46" x="316.699219"/>
      <use xlink:href="#DejaVuSans-46" x="374.21875"/>
      <use xlink:href="#DejaVuSans-49" x="431.738281"/>
      <use xlink:href="#DejaVuSans-4e" x="461.230469"/>
      <use xlink:href="#DejaVuSans-49" x="536.035156"/>
      <use xlink:href="#DejaVuSans-54" x="565.527344"/>
      <use xlink:href="#DejaVuSans-59" x="626.611328"/>
     </g>
    </g>
    <g id="line2d_32">
     <path d="M 126.50625 82.533438 
L 140.50625 82.533438 
L 154.50625 82.533438 
" style="fill: none; stroke: #00bfbf; stroke-width: 1.5; stroke-linecap: square"/>
    </g>
    <g id="text_23">
     <!-- TBB_SIMPLE -->
     <g transform="translate(165.70625 87.433438) scale(0.14 -0.14)">
      <use xlink:href="#DejaVuSans-54"/>
      <use xlink:href="#DejaVuSans-42" x="61.083984"/>
      <use xlink:href="#DejaVuSans-42" x="129.6875"/>
      <use xlink:href="#DejaVuSans-5f" x="198.291016"/>
      <use xlink:href="#DejaVuSans-53" x="248.291016"/>
      <use xlink:href="#DejaVuSans-49" x="311.767578"/>
      <use xlink:href="#DejaVuSans-4d" x="341.259766"/>
      <use xlink:href="#DejaVuSans-50" x="427.539062"/>
      <use xlink:href="#DejaVuSans-4c" x="487.841797"/>
      <use xlink:href="#DejaVuSans-45" x="543.554688"/>
     </g>
    </g>
    <g id="line2d_33">
     <path d="M 126.50625 103.472187 
L 140.50625 103.472187 
L 154.50625 103.472187 
" style="fill: none; stroke: #bf00bf; stroke-width: 1.5; stroke-linecap: square"/>
    </g>
    <g id="text_24">
     <!-- TBB_AUTO -->
     <g transform="translate(165.70625 108.372187) scale(0.14 -0.14)">
      <defs>
       <path id="DejaVuSans-55" d="M 556 4666 
L 1191 4666 
L 1191 1831 
Q 1191 1081 1462 751 
Q 1734 422 2344 422 
Q 2950 422 3222 751 
Q 3494 1081 3494 1831 
L 3494 4666 
L 4128 4666 
L 4128 1753 
Q 4128 841 3676 375 
Q 3225 -91 2344 -91 
Q 1459 -91 1007 375 
Q 556 841 556 1753 
L 556 4666 
z
" transform="scale(0.015625)"/>
       <path id="DejaVuSans-4f" d="M 2522 4238 
Q 1834 4238 1429 3725 
Q 1025 3213 1025 2328 
Q 1025 1447 1429 934 
Q 1834 422 2522 422 
Q 3209 422 3611 934 
Q 4013 1447 4013 2328 
Q 4013 3213 3611 3725 
Q 3209 4238 2522 4238 
z
M 2522 4750 
Q 3503 4750 4090 4092 
Q 4678 3434 4678 2328 
Q 4678 1225 4090 567 
Q 3503 -91 2522 -91 
Q 1538 -91 948 565 
Q 359 1222 359 2328 
Q 359 3434 948 4092 
Q 1538 4750 2522 4750 
z
" transform="scale(0.015625)"/>
      </defs>
      <use xlink:href="#DejaVuSans-54"/>
      <use xlink:href="#DejaVuSans-42" x="61.083984"/>
      <use xlink:href="#DejaVuSans-42" x="129.6875"/>
      <use xlink:href="#DejaVuSans-5f" x="198.291016"/>
      <use xlink:href="#DejaVuSans-41" x="248.291016"/>
      <use xlink:href="#DejaVuSans-55" x="316.699219"/>
      <use xlink:href="#DejaVuSans-54" x="389.892578"/>
      <use xlink:href="#DejaVuSans-4f" x="450.976562"/>
     </g>
    </g>
    <g id="line2d_34">
     <path d="M 126.50625 124.410938 
L 140.50625 124.410938 
L 154.50625 124.410938 
" style="fill: none; stroke: #000000; stroke-width: 1.5; stroke-linecap: square"/>
    </g>
    <g id="text_25">
     <!-- TBB_CONST_AFFINITY -->
     <g transform="translate(165.70625 129.310938) scale(0.14 -0.14)">
      <use xlink:href="#DejaVuSans-54"/>
      <use xlink:href="#DejaVuSans-42" x="61.083984"/>
      <use xlink:href="#DejaVuSans-42" x="129.6875"/>
      <use xlink:href="#DejaVuSans-5f" x="198.291016"/>
      <use xlink:href="#DejaVuSans-43" x="248.291016"/>
      <use xlink:href="#DejaVuSans-4f" x="318.115234"/>
      <use xlink:href="#DejaVuSans-4e" x="396.826172"/>
      <use xlink:href="#DejaVuSans-53" x="471.630859"/>
      <use xlink:href="#DejaVuSans-54" x="535.107422"/>
      <use xlink:href="#DejaVuSans-5f" x="596.191406"/>
      <use xlink:href="#DejaVuSans-41" x="646.191406"/>
      <use xlink:href="#DejaVuSans-46" x="714.599609"/>
      <use xlink:href="#DejaVuSans-46" x="772.119141"/>
      <use xlink:href="#DejaVuSans-49" x="829.638672"/>
      <use xlink:href="#DejaVuSans-4e" x="859.130859"/>
      <use xlink:href="#DejaVuSans-49" x="933.935547"/>
      <use xlink:href="#DejaVuSans-54" x="963.427734"/>
      <use xlink:href="#DejaVuSans-59" x="1024.511719"/>
     </g>
    </g>
    <g id="line2d_35">
     <path d="M 126.50625 145.349688 
L 140.50625 145.349688 
L 154.50625 145.349688 
" style="fill: none; stroke-dasharray: 5.55,2.4; stroke-dashoffset: 0; stroke: #0000ff; stroke-width: 1.5"/>
    </g>
    <g id="text_26">
     <!-- EIGEN_STATIC -->
     <g transform="translate(165.70625 150.249688) scale(0.14 -0.14)">
      <use xlink:href="#DejaVuSans-45"/>
      <use xlink:href="#DejaVuSans-49" x="63.183594"/>
      <use xlink:href="#DejaVuSans-47" x="92.675781"/>
      <use xlink:href="#DejaVuSans-45" x="170.166016"/>
      <use xlink:href="#DejaVuSans-4e" x="233.349609"/>
      <use xlink:href="#DejaVuSans-5f" x="308.154297"/>
      <use xlink:href="#DejaVuSans-53" x="358.154297"/>
      <use xlink:href="#DejaVuSans-54" x="421.630859"/>
      <use xlink:href="#DejaVuSans-41" x="474.964844"/>
      <use xlink:href="#DejaVuSans-54" x="535.623047"/>
      <use xlink:href="#DejaVuSans-49" x="596.707031"/>
      <use xlink:href="#DejaVuSans-43" x="626.199219"/>
     </g>
    </g>
    <g id="line2d_36">
     <path d="M 126.50625 166.288438 
L 140.50625 166.288438 
L 154.50625 166.288438 
" style="fill: none; stroke-dasharray: 5.55,2.4; stroke-dashoffset: 0; stroke: #008000; stroke-width: 1.5"/>
    </g>
    <g id="text_27">
     <!-- EIGEN_TIMESPAN -->
     <g transform="translate(165.70625 171.188438) scale(0.14 -0.14)">
      <use xlink:href="#DejaVuSans-45"/>
      <use xlink:href="#DejaVuSans-49" x="63.183594"/>
      <use xlink:href="#DejaVuSans-47" x="92.675781"/>
      <use xlink:href="#DejaVuSans-45" x="170.166016"/>
      <use xlink:href="#DejaVuSans-4e" x="233.349609"/>
      <use xlink:href="#DejaVuSans-5f" x="308.154297"/>
      <use xlink:href="#DejaVuSans-54" x="358.154297"/>
      <use xlink:href="#DejaVuSans-49" x="419.238281"/>
      <use xlink:href="#DejaVuSans-4d" x="448.730469"/>
      <use xlink:href="#DejaVuSans-45" x="535.009766"/>
      <use xlink:href="#DejaVuSans-53" x="598.193359"/>
      <use xlink:href="#DejaVuSans-50" x="661.669922"/>
      <use xlink:href="#DejaVuSans-41" x="715.597656"/>
      <use xlink:href="#DejaVuSans-4e" x="784.005859"/>
     </g>
    </g>
    <g id="line2d_37">
     <path d="M 126.50625 187.227188 
L 140.50625 187.227188 
L 154.50625 187.227188 
" style="fill: none; stroke-dasharray: 5.55,2.4; stroke-dashoffset: 0; stroke: #ff0000; stroke-width: 1.5"/>
    </g>
    <g id="text_28">
     <!-- OMP_GUIDED_NONMONOTONIC -->
     <g transform="translate(165.70625 192.127188) scale(0.14 -0.14)">
      <defs>
       <path id="DejaVuSans-44" d="M 1259 4147 
L 1259 519 
L 2022 519 
Q 2988 519 3436 956 
Q 3884 1394 3884 2338 
Q 3884 3275 3436 3711 
Q 2988 4147 2022 4147 
L 1259 4147 
z
M 628 4666 
L 1925 4666 
Q 3281 4666 3915 4102 
Q 4550 3538 4550 2338 
Q 4550 1131 3912 565 
Q 3275 0 1925 0 
L 628 0 
L 628 4666 
z
" transform="scale(0.015625)"/>
      </defs>
      <use xlink:href="#DejaVuSans-4f"/>
      <use xlink:href="#DejaVuSans-4d" x="78.710938"/>
      <use xlink:href="#DejaVuSans-50" x="164.990234"/>
      <use xlink:href="#DejaVuSans-5f" x="225.292969"/>
      <use xlink:href="#DejaVuSans-47" x="275.292969"/>
      <use xlink:href="#DejaVuSans-55" x="352.783203"/>
      <use xlink:href="#DejaVuSans-49" x="425.976562"/>
      <use xlink:href="#DejaVuSans-44" x="455.46875"/>
      <use xlink:href="#DejaVuSans-45" x="532.470703"/>
      <use xlink:href="#DejaVuSans-44" x="595.654297"/>
      <use xlink:href="#DejaVuSans-5f" x="672.65625"/>
      <use xlink:href="#DejaVuSans-4e" x="722.65625"/>
      <use xlink:href="#DejaVuSans-4f" x="797.460938"/>
      <use xlink:href="#DejaVuSans-4e" x="876.171875"/>
      <use xlink:href="#DejaVuSans-4d" x="950.976562"/>
      <use xlink:href="#DejaVuSans-4f" x="1037.255859"/>
      <use xlink:href="#DejaVuSans-4e" x="1115.966797"/>
      <use xlink:href="#DejaVuSans-4f" x="1190.771484"/>
      <use xlink:href="#DejaVuSans-54" x="1269.482422"/>
      <use xlink:href="#DejaVuSans-4f" x="1330.566406"/>
      <use xlink:href="#DejaVuSans-4e" x="1409.277344"/>
      <use xlink:href="#DejaVuSans-49" x="1484.082031"/>
      <use xlink:href="#DejaVuSans-43" x="1513.574219"/>
     </g>
    </g>
    <g id="line2d_38">
     <path d="M 126.50625 208.165938 
L 140.50625 208.165938 
L 154.50625 208.165938 
" style="fill: none; stroke-dasharray: 5.55,2.4; stroke-dashoffset: 0; stroke: #00bfbf; stroke-width: 1.5"/>
    </g>
    <g id="text_29">
     <!-- OMP_DYNAMIC_MONOTONIC -->
     <g transform="translate(165.70625 213.065938) scale(0.14 -0.14)">
      <use xlink:href="#DejaVuSans-4f"/>
      <use xlink:href="#DejaVuSans-4d" x="78.710938"/>
      <use xlink:href="#DejaVuSans-50" x="164.990234"/>
      <use xlink:href="#DejaVuSans-5f" x="225.292969"/>
      <use xlink:href="#DejaVuSans-44" x="275.292969"/>
      <use xlink:href="#DejaVuSans-59" x="346.794922"/>
      <use xlink:href="#DejaVuSans-4e" x="407.878906"/>
      <use xlink:href="#DejaVuSans-41" x="482.683594"/>
      <use xlink:href="#DejaVuSans-4d" x="551.091797"/>
      <use xlink:href="#DejaVuSans-49" x="637.371094"/>
      <use xlink:href="#DejaVuSans-43" x="666.863281"/>
      <use xlink:href="#DejaVuSans-5f" x="736.6875"/>
      <use xlink:href="#DejaVuSans-4d" x="786.6875"/>
      <use xlink:href="#DejaVuSans-4f" x="872.966797"/>
      <use xlink:href="#DejaVuSans-4e" x="951.677734"/>
      <use xlink:href="#DejaVuSans-4f" x="1026.482422"/>
      <use xlink:href="#DejaVuSans-54" x="1105.193359"/>
      <use xlink:href="#DejaVuSans-4f" x="1166.277344"/>
      <use xlink:href="#DejaVuSans-4e" x="1244.988281"/>
      <use xlink:href="#DejaVuSans-49" x="1319.792969"/>
      <use xlink:href="#DejaVuSans-43" x="1349.285156"/>
     </g>
    </g>
    <g id="line2d_39">
     <path d="M 126.50625 229.104688 
L 140.50625 229.104688 
L 154.50625 229.104688 
" style="fill: none; stroke-dasharray: 5.55,2.4; stroke-dashoffset: 0; stroke: #bf00bf; stroke-width: 1.5"/>
    </g>
    <g id="text_30">
     <!-- OMP_GUIDED_MONOTONIC -->
     <g transform="translate(165.70625 234.004688) scale(0.14 -0.14)">
      <use xlink:href="#DejaVuSans-4f"/>
      <use xlink:href="#DejaVuSans-4d" x="78.710938"/>
      <use xlink:href="#DejaVuSans-50" x="164.990234"/>
      <use xlink:href="#DejaVuSans-5f" x="225.292969"/>
      <use xlink:href="#DejaVuSans-47" x="275.292969"/>
      <use xlink:href="#DejaVuSans-55" x="352.783203"/>
      <use xlink:href="#DejaVuSans-49" x="425.976562"/>
      <use xlink:href="#DejaVuSans-44" x="455.46875"/>
      <use xlink:href="#DejaVuSans-45" x="532.470703"/>
      <use xlink:href="#DejaVuSans-44" x="595.654297"/>
      <use xlink:href="#DejaVuSans-5f" x="672.65625"/>
      <use xlink:href="#DejaVuSans-4d" x="722.65625"/>
      <use xlink:href="#DejaVuSans-4f" x="808.935547"/>
      <use xlink:href="#DejaVuSans-4e" x="887.646484"/>
      <use xlink:href="#DejaVuSans-4f" x="962.451172"/>
      <use xlink:href="#DejaVuSans-54" x="1041.162109"/>
      <use xlink:href="#DejaVuSans-4f" x="1102.246094"/>
      <use xlink:href="#DejaVuSans-4e" x="1180.957031"/>
      <use xlink:href="#DejaVuSans-49" x="1255.761719"/>
      <use xlink:href="#DejaVuSans-43" x="1285.253906"/>
     </g>
    </g>
    <g id="line2d_40">
     <path d="M 126.50625 250.043438 
L 140.50625 250.043438 
L 154.50625 250.043438 
" style="fill: none; stroke-dasharray: 5.55,2.4; stroke-dashoffset: 0; stroke: #000000; stroke-width: 1.5"/>
    </g>
    <g id="text_31">
     <!-- OMP_DYNAMIC_NONMONOTONIC -->
     <g transform="translate(165.70625 254.943438) scale(0.14 -0.14)">
      <use xlink:href="#DejaVuSans-4f"/>
      <use xlink:href="#DejaVuSans-4d" x="78.710938"/>
      <use xlink:href="#DejaVuSans-50" x="164.990234"/>
      <use xlink:href="#DejaVuSans-5f" x="225.292969"/>
      <use xlink:href="#DejaVuSans-44" x="275.292969"/>
      <use xlink:href="#DejaVuSans-59" x="346.794922"/>
      <use xlink:href="#DejaVuSans-4e" x="407.878906"/>
      <use xlink:href="#DejaVuSans-41" x="482.683594"/>
      <use xlink:href="#DejaVuSans-4d" x="551.091797"/>
      <use xlink:href="#DejaVuSans-49" x="637.371094"/>
      <use xlink:href="#DejaVuSans-43" x="666.863281"/>
      <use xlink:href="#DejaVuSans-5f" x="736.6875"/>
      <use xlink:href="#DejaVuSans-4e" x="786.6875"/>
      <use xlink:href="#DejaVuSans-4f" x="861.492188"/>
      <use xlink:href="#DejaVuSans-4e" x="940.203125"/>
      <use xlink:href="#DejaVuSans-4d" x="1015.007812"/>
      <use xlink:href="#DejaVuSans-4f" x="1101.287109"/>
      <use xlink:href="#DejaVuSans-4e" x="1179.998047"/>
      <use xlink:href="#DejaVuSans-4f" x="1254.802734"/>
      <use xlink:href="#DejaVuSans-54" x="1333.513672"/>
      <use xlink:href="#DejaVuSans-4f" x="1394.597656"/>
      <use xlink:href="#DejaVuSans-4e" x="1473.308594"/>
      <use xlink:href="#DejaVuSans-49" x="1548.113281"/>
      <use xlink:href="#DejaVuSans-43" x="1577.605469"/>
     </g>
    </g>
    <g id="line2d_41">
     <path d="M 126.50625 270.982188 
L 140.50625 270.982188 
L 154.50625 270.982188 
" style="fill: none; stroke-dasharray: 9.6,2.4,1.5,2.4; stroke-dashoffset: 0; stroke: #0000ff; stroke-width: 1.5"/>
    </g>
    <g id="text_32">
     <!-- OMP_STATIC -->
     <g transform="translate(165.70625 275.882187) scale(0.14 -0.14)">
      <use xlink:href="#DejaVuSans-4f"/>
      <use xlink:href="#DejaVuSans-4d" x="78.710938"/>
      <use xlink:href="#DejaVuSans-50" x="164.990234"/>
      <use xlink:href="#DejaVuSans-5f" x="225.292969"/>
      <use xlink:href="#DejaVuSans-53" x="275.292969"/>
      <use xlink:href="#DejaVuSans-54" x="338.769531"/>
      <use xlink:href="#DejaVuSans-41" x="392.103516"/>
      <use xlink:href="#DejaVuSans-54" x="452.761719"/>
      <use xlink:href="#DejaVuSans-49" x="513.845703"/>
      <use xlink:href="#DejaVuSans-43" x="543.337891"/>
     </g>
    </g>
   </g>
  </g>
 </g>
 <defs>
  <clipPath id="p1e0512a1be">
   <rect x="113.90625" y="22.318125" width="1004.4" height="332.64"/>
  </clipPath>
 </defs>
</svg>
