<?xml version="1.0" encoding="utf-8" standalone="no"?>
<!DOCTYPE svg PUBLIC "-//W3C//DTD SVG 1.1//EN"
  "http://www.w3.org/Graphics/SVG/1.1/DTD/svg11.dtd">
<svg xmlns:xlink="http://www.w3.org/1999/xlink" width="1125.50625pt" height="411.870625pt" viewBox="0 0 1125.50625 411.870625" xmlns="http://www.w3.org/2000/svg" version="1.1">
 <metadata>
  <rdf:RDF xmlns:dc="http://purl.org/dc/elements/1.1/" xmlns:cc="http://creativecommons.org/ns#" xmlns:rdf="http://www.w3.org/1999/02/22-rdf-syntax-ns#">
   <cc:Work>
    <dc:type rdf:resource="http://purl.org/dc/dcmitype/StillImage"/>
    <dc:date>2023-04-08T21:33:11.864702</dc:date>
    <dc:format>image/svg+xml</dc:format>
    <dc:creator>
     <cc:Agent>
      <dc:title>Matplotlib v3.6.2, https://matplotlib.org/</dc:title>
     </cc:Agent>
    </dc:creator>
   </cc:Work>
  </rdf:RDF>
 </metadata>
 <defs>
  <style type="text/css">*{stroke-linejoin: round; stroke-linecap: butt}</style>
 </defs>
 <g id="figure_1">
  <g id="patch_1">
   <path d="M -0 411.870625 
L 1125.50625 411.870625 
L 1125.50625 0 
L -0 0 
z
" style="fill: #ffffff"/>
  </g>
  <g id="axes_1">
   <g id="patch_2">
    <path d="M 113.90625 354.958125 
L 1118.30625 354.958125 
L 1118.30625 22.318125 
L 113.90625 22.318125 
z
" style="fill: #ffffff"/>
   </g>
   <g id="matplotlib.axis_1">
    <g id="xtick_1">
     <g id="line2d_1">
      <defs>
       <path id="m83f036febc" d="M 0 0 
L 0 3.5 
" style="stroke: #000000; stroke-width: 0.8"/>
      </defs>
      <g>
       <use xlink:href="#m83f036febc" x="159.560795" y="354.958125" style="stroke: #000000; stroke-width: 0.8"/>
      </g>
     </g>
     <g id="text_1">
      <!-- 0 -->
      <g transform="translate(153.198295 377.155) scale(0.2 -0.2)">
       <defs>
        <path id="DejaVuSans-30" d="M 2034 4250 
Q 1547 4250 1301 3770 
Q 1056 3291 1056 2328 
Q 1056 1369 1301 889 
Q 1547 409 2034 409 
Q 2525 409 2770 889 
Q 3016 1369 3016 2328 
Q 3016 3291 2770 3770 
Q 2525 4250 2034 4250 
z
M 2034 4750 
Q 2819 4750 3233 4129 
Q 3647 3509 3647 2328 
Q 3647 1150 3233 529 
Q 2819 -91 2034 -91 
Q 1250 -91 836 529 
Q 422 1150 422 2328 
Q 422 3509 836 4129 
Q 1250 4750 2034 4750 
z
" transform="scale(0.015625)"/>
       </defs>
       <use xlink:href="#DejaVuSans-30"/>
      </g>
     </g>
    </g>
    <g id="xtick_2">
     <g id="line2d_2">
      <g>
       <use xlink:href="#m83f036febc" x="351.790461" y="354.958125" style="stroke: #000000; stroke-width: 0.8"/>
      </g>
     </g>
     <g id="text_2">
      <!-- 20 -->
      <g transform="translate(339.065461 377.155) scale(0.2 -0.2)">
       <defs>
        <path id="DejaVuSans-32" d="M 1228 531 
L 3431 531 
L 3431 0 
L 469 0 
L 469 531 
Q 828 903 1448 1529 
Q 2069 2156 2228 2338 
Q 2531 2678 2651 2914 
Q 2772 3150 2772 3378 
Q 2772 3750 2511 3984 
Q 2250 4219 1831 4219 
Q 1534 4219 1204 4116 
Q 875 4013 500 3803 
L 500 4441 
Q 881 4594 1212 4672 
Q 1544 4750 1819 4750 
Q 2544 4750 2975 4387 
Q 3406 4025 3406 3419 
Q 3406 3131 3298 2873 
Q 3191 2616 2906 2266 
Q 2828 2175 2409 1742 
Q 1991 1309 1228 531 
z
" transform="scale(0.015625)"/>
       </defs>
       <use xlink:href="#DejaVuSans-32"/>
       <use xlink:href="#DejaVuSans-30" x="63.623047"/>
      </g>
     </g>
    </g>
    <g id="xtick_3">
     <g id="line2d_3">
      <g>
       <use xlink:href="#m83f036febc" x="544.020126" y="354.958125" style="stroke: #000000; stroke-width: 0.8"/>
      </g>
     </g>
     <g id="text_3">
      <!-- 40 -->
      <g transform="translate(531.295126 377.155) scale(0.2 -0.2)">
       <defs>
        <path id="DejaVuSans-34" d="M 2419 4116 
L 825 1625 
L 2419 1625 
L 2419 4116 
z
M 2253 4666 
L 3047 4666 
L 3047 1625 
L 3713 1625 
L 3713 1100 
L 3047 1100 
L 3047 0 
L 2419 0 
L 2419 1100 
L 313 1100 
L 313 1709 
L 2253 4666 
z
" transform="scale(0.015625)"/>
       </defs>
       <use xlink:href="#DejaVuSans-34"/>
       <use xlink:href="#DejaVuSans-30" x="63.623047"/>
      </g>
     </g>
    </g>
    <g id="xtick_4">
     <g id="line2d_4">
      <g>
       <use xlink:href="#m83f036febc" x="736.249791" y="354.958125" style="stroke: #000000; stroke-width: 0.8"/>
      </g>
     </g>
     <g id="text_4">
      <!-- 60 -->
      <g transform="translate(723.524791 377.155) scale(0.2 -0.2)">
       <defs>
        <path id="DejaVuSans-36" d="M 2113 2584 
Q 1688 2584 1439 2293 
Q 1191 2003 1191 1497 
Q 1191 994 1439 701 
Q 1688 409 2113 409 
Q 2538 409 2786 701 
Q 3034 994 3034 1497 
Q 3034 2003 2786 2293 
Q 2538 2584 2113 2584 
z
M 3366 4563 
L 3366 3988 
Q 3128 4100 2886 4159 
Q 2644 4219 2406 4219 
Q 1781 4219 1451 3797 
Q 1122 3375 1075 2522 
Q 1259 2794 1537 2939 
Q 1816 3084 2150 3084 
Q 2853 3084 3261 2657 
Q 3669 2231 3669 1497 
Q 3669 778 3244 343 
Q 2819 -91 2113 -91 
Q 1303 -91 875 529 
Q 447 1150 447 2328 
Q 447 3434 972 4092 
Q 1497 4750 2381 4750 
Q 2619 4750 2861 4703 
Q 3103 4656 3366 4563 
z
" transform="scale(0.015625)"/>
       </defs>
       <use xlink:href="#DejaVuSans-36"/>
       <use xlink:href="#DejaVuSans-30" x="63.623047"/>
      </g>
     </g>
    </g>
    <g id="xtick_5">
     <g id="line2d_5">
      <g>
       <use xlink:href="#m83f036febc" x="928.479456" y="354.958125" style="stroke: #000000; stroke-width: 0.8"/>
      </g>
     </g>
     <g id="text_5">
      <!-- 80 -->
      <g transform="translate(915.754456 377.155) scale(0.2 -0.2)">
       <defs>
        <path id="DejaVuSans-38" d="M 2034 2216 
Q 1584 2216 1326 1975 
Q 1069 1734 1069 1313 
Q 1069 891 1326 650 
Q 1584 409 2034 409 
Q 2484 409 2743 651 
Q 3003 894 3003 1313 
Q 3003 1734 2745 1975 
Q 2488 2216 2034 2216 
z
M 1403 2484 
Q 997 2584 770 2862 
Q 544 3141 544 3541 
Q 544 4100 942 4425 
Q 1341 4750 2034 4750 
Q 2731 4750 3128 4425 
Q 3525 4100 3525 3541 
Q 3525 3141 3298 2862 
Q 3072 2584 2669 2484 
Q 3125 2378 3379 2068 
Q 3634 1759 3634 1313 
Q 3634 634 3220 271 
Q 2806 -91 2034 -91 
Q 1263 -91 848 271 
Q 434 634 434 1313 
Q 434 1759 690 2068 
Q 947 2378 1403 2484 
z
M 1172 3481 
Q 1172 3119 1398 2916 
Q 1625 2713 2034 2713 
Q 2441 2713 2670 2916 
Q 2900 3119 2900 3481 
Q 2900 3844 2670 4047 
Q 2441 4250 2034 4250 
Q 1625 4250 1398 4047 
Q 1172 3844 1172 3481 
z
" transform="scale(0.015625)"/>
       </defs>
       <use xlink:href="#DejaVuSans-38"/>
       <use xlink:href="#DejaVuSans-30" x="63.623047"/>
      </g>
     </g>
    </g>
    <g id="text_6">
     <!-- Index of thread (sorted by time of first task) -->
     <g transform="translate(395.985938 400.51125) scale(0.2 -0.2)">
      <defs>
       <path id="DejaVuSans-49" d="M 628 4666 
L 1259 4666 
L 1259 0 
L 628 0 
L 628 4666 
z
" transform="scale(0.015625)"/>
       <path id="DejaVuSans-6e" d="M 3513 2113 
L 3513 0 
L 2938 0 
L 2938 2094 
Q 2938 2591 2744 2837 
Q 2550 3084 2163 3084 
Q 1697 3084 1428 2787 
Q 1159 2491 1159 1978 
L 1159 0 
L 581 0 
L 581 3500 
L 1159 3500 
L 1159 2956 
Q 1366 3272 1645 3428 
Q 1925 3584 2291 3584 
Q 2894 3584 3203 3211 
Q 3513 2838 3513 2113 
z
" transform="scale(0.015625)"/>
       <path id="DejaVuSans-64" d="M 2906 2969 
L 2906 4863 
L 3481 4863 
L 3481 0 
L 2906 0 
L 2906 525 
Q 2725 213 2448 61 
Q 2172 -91 1784 -91 
Q 1150 -91 751 415 
Q 353 922 353 1747 
Q 353 2572 751 3078 
Q 1150 3584 1784 3584 
Q 2172 3584 2448 3432 
Q 2725 3281 2906 2969 
z
M 947 1747 
Q 947 1113 1208 752 
Q 1469 391 1925 391 
Q 2381 391 2643 752 
Q 2906 1113 2906 1747 
Q 2906 2381 2643 2742 
Q 2381 3103 1925 3103 
Q 1469 3103 1208 2742 
Q 947 2381 947 1747 
z
" transform="scale(0.015625)"/>
       <path id="DejaVuSans-65" d="M 3597 1894 
L 3597 1613 
L 953 1613 
Q 991 1019 1311 708 
Q 1631 397 2203 397 
Q 2534 397 2845 478 
Q 3156 559 3463 722 
L 3463 178 
Q 3153 47 2828 -22 
Q 2503 -91 2169 -91 
Q 1331 -91 842 396 
Q 353 884 353 1716 
Q 353 2575 817 3079 
Q 1281 3584 2069 3584 
Q 2775 3584 3186 3129 
Q 3597 2675 3597 1894 
z
M 3022 2063 
Q 3016 2534 2758 2815 
Q 2500 3097 2075 3097 
Q 1594 3097 1305 2825 
Q 1016 2553 972 2059 
L 3022 2063 
z
" transform="scale(0.015625)"/>
       <path id="DejaVuSans-78" d="M 3513 3500 
L 2247 1797 
L 3578 0 
L 2900 0 
L 1881 1375 
L 863 0 
L 184 0 
L 1544 1831 
L 300 3500 
L 978 3500 
L 1906 2253 
L 2834 3500 
L 3513 3500 
z
" transform="scale(0.015625)"/>
       <path id="DejaVuSans-20" transform="scale(0.015625)"/>
       <path id="DejaVuSans-6f" d="M 1959 3097 
Q 1497 3097 1228 2736 
Q 959 2375 959 1747 
Q 959 1119 1226 758 
Q 1494 397 1959 397 
Q 2419 397 2687 759 
Q 2956 1122 2956 1747 
Q 2956 2369 2687 2733 
Q 2419 3097 1959 3097 
z
M 1959 3584 
Q 2709 3584 3137 3096 
Q 3566 2609 3566 1747 
Q 3566 888 3137 398 
Q 2709 -91 1959 -91 
Q 1206 -91 779 398 
Q 353 888 353 1747 
Q 353 2609 779 3096 
Q 1206 3584 1959 3584 
z
" transform="scale(0.015625)"/>
       <path id="DejaVuSans-66" d="M 2375 4863 
L 2375 4384 
L 1825 4384 
Q 1516 4384 1395 4259 
Q 1275 4134 1275 3809 
L 1275 3500 
L 2222 3500 
L 2222 3053 
L 1275 3053 
L 1275 0 
L 697 0 
L 697 3053 
L 147 3053 
L 147 3500 
L 697 3500 
L 697 3744 
Q 697 4328 969 4595 
Q 1241 4863 1831 4863 
L 2375 4863 
z
" transform="scale(0.015625)"/>
       <path id="DejaVuSans-74" d="M 1172 4494 
L 1172 3500 
L 2356 3500 
L 2356 3053 
L 1172 3053 
L 1172 1153 
Q 1172 725 1289 603 
Q 1406 481 1766 481 
L 2356 481 
L 2356 0 
L 1766 0 
Q 1100 0 847 248 
Q 594 497 594 1153 
L 594 3053 
L 172 3053 
L 172 3500 
L 594 3500 
L 594 4494 
L 1172 4494 
z
" transform="scale(0.015625)"/>
       <path id="DejaVuSans-68" d="M 3513 2113 
L 3513 0 
L 2938 0 
L 2938 2094 
Q 2938 2591 2744 2837 
Q 2550 3084 2163 3084 
Q 1697 3084 1428 2787 
Q 1159 2491 1159 1978 
L 1159 0 
L 581 0 
L 581 4863 
L 1159 4863 
L 1159 2956 
Q 1366 3272 1645 3428 
Q 1925 3584 2291 3584 
Q 2894 3584 3203 3211 
Q 3513 2838 3513 2113 
z
" transform="scale(0.015625)"/>
       <path id="DejaVuSans-72" d="M 2631 2963 
Q 2534 3019 2420 3045 
Q 2306 3072 2169 3072 
Q 1681 3072 1420 2755 
Q 1159 2438 1159 1844 
L 1159 0 
L 581 0 
L 581 3500 
L 1159 3500 
L 1159 2956 
Q 1341 3275 1631 3429 
Q 1922 3584 2338 3584 
Q 2397 3584 2469 3576 
Q 2541 3569 2628 3553 
L 2631 2963 
z
" transform="scale(0.015625)"/>
       <path id="DejaVuSans-61" d="M 2194 1759 
Q 1497 1759 1228 1600 
Q 959 1441 959 1056 
Q 959 750 1161 570 
Q 1363 391 1709 391 
Q 2188 391 2477 730 
Q 2766 1069 2766 1631 
L 2766 1759 
L 2194 1759 
z
M 3341 1997 
L 3341 0 
L 2766 0 
L 2766 531 
Q 2569 213 2275 61 
Q 1981 -91 1556 -91 
Q 1019 -91 701 211 
Q 384 513 384 1019 
Q 384 1609 779 1909 
Q 1175 2209 1959 2209 
L 2766 2209 
L 2766 2266 
Q 2766 2663 2505 2880 
Q 2244 3097 1772 3097 
Q 1472 3097 1187 3025 
Q 903 2953 641 2809 
L 641 3341 
Q 956 3463 1253 3523 
Q 1550 3584 1831 3584 
Q 2591 3584 2966 3190 
Q 3341 2797 3341 1997 
z
" transform="scale(0.015625)"/>
       <path id="DejaVuSans-28" d="M 1984 4856 
Q 1566 4138 1362 3434 
Q 1159 2731 1159 2009 
Q 1159 1288 1364 580 
Q 1569 -128 1984 -844 
L 1484 -844 
Q 1016 -109 783 600 
Q 550 1309 550 2009 
Q 550 2706 781 3412 
Q 1013 4119 1484 4856 
L 1984 4856 
z
" transform="scale(0.015625)"/>
       <path id="DejaVuSans-73" d="M 2834 3397 
L 2834 2853 
Q 2591 2978 2328 3040 
Q 2066 3103 1784 3103 
Q 1356 3103 1142 2972 
Q 928 2841 928 2578 
Q 928 2378 1081 2264 
Q 1234 2150 1697 2047 
L 1894 2003 
Q 2506 1872 2764 1633 
Q 3022 1394 3022 966 
Q 3022 478 2636 193 
Q 2250 -91 1575 -91 
Q 1294 -91 989 -36 
Q 684 19 347 128 
L 347 722 
Q 666 556 975 473 
Q 1284 391 1588 391 
Q 1994 391 2212 530 
Q 2431 669 2431 922 
Q 2431 1156 2273 1281 
Q 2116 1406 1581 1522 
L 1381 1569 
Q 847 1681 609 1914 
Q 372 2147 372 2553 
Q 372 3047 722 3315 
Q 1072 3584 1716 3584 
Q 2034 3584 2315 3537 
Q 2597 3491 2834 3397 
z
" transform="scale(0.015625)"/>
       <path id="DejaVuSans-62" d="M 3116 1747 
Q 3116 2381 2855 2742 
Q 2594 3103 2138 3103 
Q 1681 3103 1420 2742 
Q 1159 2381 1159 1747 
Q 1159 1113 1420 752 
Q 1681 391 2138 391 
Q 2594 391 2855 752 
Q 3116 1113 3116 1747 
z
M 1159 2969 
Q 1341 3281 1617 3432 
Q 1894 3584 2278 3584 
Q 2916 3584 3314 3078 
Q 3713 2572 3713 1747 
Q 3713 922 3314 415 
Q 2916 -91 2278 -91 
Q 1894 -91 1617 61 
Q 1341 213 1159 525 
L 1159 0 
L 581 0 
L 581 4863 
L 1159 4863 
L 1159 2969 
z
" transform="scale(0.015625)"/>
       <path id="DejaVuSans-79" d="M 2059 -325 
Q 1816 -950 1584 -1140 
Q 1353 -1331 966 -1331 
L 506 -1331 
L 506 -850 
L 844 -850 
Q 1081 -850 1212 -737 
Q 1344 -625 1503 -206 
L 1606 56 
L 191 3500 
L 800 3500 
L 1894 763 
L 2988 3500 
L 3597 3500 
L 2059 -325 
z
" transform="scale(0.015625)"/>
       <path id="DejaVuSans-69" d="M 603 3500 
L 1178 3500 
L 1178 0 
L 603 0 
L 603 3500 
z
M 603 4863 
L 1178 4863 
L 1178 4134 
L 603 4134 
L 603 4863 
z
" transform="scale(0.015625)"/>
       <path id="DejaVuSans-6d" d="M 3328 2828 
Q 3544 3216 3844 3400 
Q 4144 3584 4550 3584 
Q 5097 3584 5394 3201 
Q 5691 2819 5691 2113 
L 5691 0 
L 5113 0 
L 5113 2094 
Q 5113 2597 4934 2840 
Q 4756 3084 4391 3084 
Q 3944 3084 3684 2787 
Q 3425 2491 3425 1978 
L 3425 0 
L 2847 0 
L 2847 2094 
Q 2847 2600 2669 2842 
Q 2491 3084 2119 3084 
Q 1678 3084 1418 2786 
Q 1159 2488 1159 1978 
L 1159 0 
L 581 0 
L 581 3500 
L 1159 3500 
L 1159 2956 
Q 1356 3278 1631 3431 
Q 1906 3584 2284 3584 
Q 2666 3584 2933 3390 
Q 3200 3197 3328 2828 
z
" transform="scale(0.015625)"/>
       <path id="DejaVuSans-6b" d="M 581 4863 
L 1159 4863 
L 1159 1991 
L 2875 3500 
L 3609 3500 
L 1753 1863 
L 3688 0 
L 2938 0 
L 1159 1709 
L 1159 0 
L 581 0 
L 581 4863 
z
" transform="scale(0.015625)"/>
       <path id="DejaVuSans-29" d="M 513 4856 
L 1013 4856 
Q 1481 4119 1714 3412 
Q 1947 2706 1947 2009 
Q 1947 1309 1714 600 
Q 1481 -109 1013 -844 
L 513 -844 
Q 928 -128 1133 580 
Q 1338 1288 1338 2009 
Q 1338 2731 1133 3434 
Q 928 4138 513 4856 
z
" transform="scale(0.015625)"/>
      </defs>
      <use xlink:href="#DejaVuSans-49"/>
      <use xlink:href="#DejaVuSans-6e" x="29.492188"/>
      <use xlink:href="#DejaVuSans-64" x="92.871094"/>
      <use xlink:href="#DejaVuSans-65" x="156.347656"/>
      <use xlink:href="#DejaVuSans-78" x="216.121094"/>
      <use xlink:href="#DejaVuSans-20" x="275.300781"/>
      <use xlink:href="#DejaVuSans-6f" x="307.087891"/>
      <use xlink:href="#DejaVuSans-66" x="368.269531"/>
      <use xlink:href="#DejaVuSans-20" x="403.474609"/>
      <use xlink:href="#DejaVuSans-74" x="435.261719"/>
      <use xlink:href="#DejaVuSans-68" x="474.470703"/>
      <use xlink:href="#DejaVuSans-72" x="537.849609"/>
      <use xlink:href="#DejaVuSans-65" x="576.712891"/>
      <use xlink:href="#DejaVuSans-61" x="638.236328"/>
      <use xlink:href="#DejaVuSans-64" x="699.515625"/>
      <use xlink:href="#DejaVuSans-20" x="762.992188"/>
      <use xlink:href="#DejaVuSans-28" x="794.779297"/>
      <use xlink:href="#DejaVuSans-73" x="833.792969"/>
      <use xlink:href="#DejaVuSans-6f" x="885.892578"/>
      <use xlink:href="#DejaVuSans-72" x="947.074219"/>
      <use xlink:href="#DejaVuSans-74" x="988.1875"/>
      <use xlink:href="#DejaVuSans-65" x="1027.396484"/>
      <use xlink:href="#DejaVuSans-64" x="1088.919922"/>
      <use xlink:href="#DejaVuSans-20" x="1152.396484"/>
      <use xlink:href="#DejaVuSans-62" x="1184.183594"/>
      <use xlink:href="#DejaVuSans-79" x="1247.660156"/>
      <use xlink:href="#DejaVuSans-20" x="1306.839844"/>
      <use xlink:href="#DejaVuSans-74" x="1338.626953"/>
      <use xlink:href="#DejaVuSans-69" x="1377.835938"/>
      <use xlink:href="#DejaVuSans-6d" x="1405.619141"/>
      <use xlink:href="#DejaVuSans-65" x="1503.03125"/>
      <use xlink:href="#DejaVuSans-20" x="1564.554688"/>
      <use xlink:href="#DejaVuSans-6f" x="1596.341797"/>
      <use xlink:href="#DejaVuSans-66" x="1657.523438"/>
      <use xlink:href="#DejaVuSans-20" x="1692.728516"/>
      <use xlink:href="#DejaVuSans-66" x="1724.515625"/>
      <use xlink:href="#DejaVuSans-69" x="1759.720703"/>
      <use xlink:href="#DejaVuSans-72" x="1787.503906"/>
      <use xlink:href="#DejaVuSans-73" x="1828.617188"/>
      <use xlink:href="#DejaVuSans-74" x="1880.716797"/>
      <use xlink:href="#DejaVuSans-20" x="1919.925781"/>
      <use xlink:href="#DejaVuSans-74" x="1951.712891"/>
      <use xlink:href="#DejaVuSans-61" x="1990.921875"/>
      <use xlink:href="#DejaVuSans-73" x="2052.201172"/>
      <use xlink:href="#DejaVuSans-6b" x="2104.300781"/>
      <use xlink:href="#DejaVuSans-29" x="2162.210938"/>
     </g>
    </g>
   </g>
   <g id="matplotlib.axis_2">
    <g id="ytick_1">
     <g id="line2d_6">
      <defs>
       <path id="m90bff3f1b7" d="M 0 0 
L -3.5 0 
" style="stroke: #000000; stroke-width: 0.8"/>
      </defs>
      <g>
       <use xlink:href="#m90bff3f1b7" x="113.90625" y="354.958125" style="stroke: #000000; stroke-width: 0.8"/>
      </g>
     </g>
     <g id="text_7">
      <!-- 0 -->
      <g transform="translate(94.18125 362.556563) scale(0.2 -0.2)">
       <use xlink:href="#DejaVuSans-30"/>
      </g>
     </g>
    </g>
    <g id="ytick_2">
     <g id="line2d_7">
      <g>
       <use xlink:href="#m90bff3f1b7" x="113.90625" y="321.6726" style="stroke: #000000; stroke-width: 0.8"/>
      </g>
     </g>
     <g id="text_8">
      <!-- 90000 -->
      <g transform="translate(43.28125 329.271038) scale(0.2 -0.2)">
       <defs>
        <path id="DejaVuSans-39" d="M 703 97 
L 703 672 
Q 941 559 1184 500 
Q 1428 441 1663 441 
Q 2288 441 2617 861 
Q 2947 1281 2994 2138 
Q 2813 1869 2534 1725 
Q 2256 1581 1919 1581 
Q 1219 1581 811 2004 
Q 403 2428 403 3163 
Q 403 3881 828 4315 
Q 1253 4750 1959 4750 
Q 2769 4750 3195 4129 
Q 3622 3509 3622 2328 
Q 3622 1225 3098 567 
Q 2575 -91 1691 -91 
Q 1453 -91 1209 -44 
Q 966 3 703 97 
z
M 1959 2075 
Q 2384 2075 2632 2365 
Q 2881 2656 2881 3163 
Q 2881 3666 2632 3958 
Q 2384 4250 1959 4250 
Q 1534 4250 1286 3958 
Q 1038 3666 1038 3163 
Q 1038 2656 1286 2365 
Q 1534 2075 1959 2075 
z
" transform="scale(0.015625)"/>
       </defs>
       <use xlink:href="#DejaVuSans-39"/>
       <use xlink:href="#DejaVuSans-30" x="63.623047"/>
       <use xlink:href="#DejaVuSans-30" x="127.246094"/>
       <use xlink:href="#DejaVuSans-30" x="190.869141"/>
       <use xlink:href="#DejaVuSans-30" x="254.492188"/>
      </g>
     </g>
    </g>
    <g id="ytick_3">
     <g id="line2d_8">
      <g>
       <use xlink:href="#m90bff3f1b7" x="113.90625" y="288.387076" style="stroke: #000000; stroke-width: 0.8"/>
      </g>
     </g>
     <g id="text_9">
      <!-- 180000 -->
      <g transform="translate(30.55625 295.985513) scale(0.2 -0.2)">
       <defs>
        <path id="DejaVuSans-31" d="M 794 531 
L 1825 531 
L 1825 4091 
L 703 3866 
L 703 4441 
L 1819 4666 
L 2450 4666 
L 2450 531 
L 3481 531 
L 3481 0 
L 794 0 
L 794 531 
z
" transform="scale(0.015625)"/>
       </defs>
       <use xlink:href="#DejaVuSans-31"/>
       <use xlink:href="#DejaVuSans-38" x="63.623047"/>
       <use xlink:href="#DejaVuSans-30" x="127.246094"/>
       <use xlink:href="#DejaVuSans-30" x="190.869141"/>
       <use xlink:href="#DejaVuSans-30" x="254.492188"/>
       <use xlink:href="#DejaVuSans-30" x="318.115234"/>
      </g>
     </g>
    </g>
    <g id="ytick_4">
     <g id="line2d_9">
      <g>
       <use xlink:href="#m90bff3f1b7" x="113.90625" y="255.101551" style="stroke: #000000; stroke-width: 0.8"/>
      </g>
     </g>
     <g id="text_10">
      <!-- 270000 -->
      <g transform="translate(30.55625 262.699989) scale(0.2 -0.2)">
       <defs>
        <path id="DejaVuSans-37" d="M 525 4666 
L 3525 4666 
L 3525 4397 
L 1831 0 
L 1172 0 
L 2766 4134 
L 525 4134 
L 525 4666 
z
" transform="scale(0.015625)"/>
       </defs>
       <use xlink:href="#DejaVuSans-32"/>
       <use xlink:href="#DejaVuSans-37" x="63.623047"/>
       <use xlink:href="#DejaVuSans-30" x="127.246094"/>
       <use xlink:href="#DejaVuSans-30" x="190.869141"/>
       <use xlink:href="#DejaVuSans-30" x="254.492188"/>
       <use xlink:href="#DejaVuSans-30" x="318.115234"/>
      </g>
     </g>
    </g>
    <g id="ytick_5">
     <g id="line2d_10">
      <g>
       <use xlink:href="#m90bff3f1b7" x="113.90625" y="221.816026" style="stroke: #000000; stroke-width: 0.8"/>
      </g>
     </g>
     <g id="text_11">
      <!-- 360000 -->
      <g transform="translate(30.55625 229.414464) scale(0.2 -0.2)">
       <defs>
        <path id="DejaVuSans-33" d="M 2597 2516 
Q 3050 2419 3304 2112 
Q 3559 1806 3559 1356 
Q 3559 666 3084 287 
Q 2609 -91 1734 -91 
Q 1441 -91 1130 -33 
Q 819 25 488 141 
L 488 750 
Q 750 597 1062 519 
Q 1375 441 1716 441 
Q 2309 441 2620 675 
Q 2931 909 2931 1356 
Q 2931 1769 2642 2001 
Q 2353 2234 1838 2234 
L 1294 2234 
L 1294 2753 
L 1863 2753 
Q 2328 2753 2575 2939 
Q 2822 3125 2822 3475 
Q 2822 3834 2567 4026 
Q 2313 4219 1838 4219 
Q 1578 4219 1281 4162 
Q 984 4106 628 3988 
L 628 4550 
Q 988 4650 1302 4700 
Q 1616 4750 1894 4750 
Q 2613 4750 3031 4423 
Q 3450 4097 3450 3541 
Q 3450 3153 3228 2886 
Q 3006 2619 2597 2516 
z
" transform="scale(0.015625)"/>
       </defs>
       <use xlink:href="#DejaVuSans-33"/>
       <use xlink:href="#DejaVuSans-36" x="63.623047"/>
       <use xlink:href="#DejaVuSans-30" x="127.246094"/>
       <use xlink:href="#DejaVuSans-30" x="190.869141"/>
       <use xlink:href="#DejaVuSans-30" x="254.492188"/>
       <use xlink:href="#DejaVuSans-30" x="318.115234"/>
      </g>
     </g>
    </g>
    <g id="ytick_6">
     <g id="line2d_11">
      <g>
       <use xlink:href="#m90bff3f1b7" x="113.90625" y="188.530502" style="stroke: #000000; stroke-width: 0.8"/>
      </g>
     </g>
     <g id="text_12">
      <!-- 450000 -->
      <g transform="translate(30.55625 196.128939) scale(0.2 -0.2)">
       <defs>
        <path id="DejaVuSans-35" d="M 691 4666 
L 3169 4666 
L 3169 4134 
L 1269 4134 
L 1269 2991 
Q 1406 3038 1543 3061 
Q 1681 3084 1819 3084 
Q 2600 3084 3056 2656 
Q 3513 2228 3513 1497 
Q 3513 744 3044 326 
Q 2575 -91 1722 -91 
Q 1428 -91 1123 -41 
Q 819 9 494 109 
L 494 744 
Q 775 591 1075 516 
Q 1375 441 1709 441 
Q 2250 441 2565 725 
Q 2881 1009 2881 1497 
Q 2881 1984 2565 2268 
Q 2250 2553 1709 2553 
Q 1456 2553 1204 2497 
Q 953 2441 691 2322 
L 691 4666 
z
" transform="scale(0.015625)"/>
       </defs>
       <use xlink:href="#DejaVuSans-34"/>
       <use xlink:href="#DejaVuSans-35" x="63.623047"/>
       <use xlink:href="#DejaVuSans-30" x="127.246094"/>
       <use xlink:href="#DejaVuSans-30" x="190.869141"/>
       <use xlink:href="#DejaVuSans-30" x="254.492188"/>
       <use xlink:href="#DejaVuSans-30" x="318.115234"/>
      </g>
     </g>
    </g>
    <g id="ytick_7">
     <g id="line2d_12">
      <g>
       <use xlink:href="#m90bff3f1b7" x="113.90625" y="155.244977" style="stroke: #000000; stroke-width: 0.8"/>
      </g>
     </g>
     <g id="text_13">
      <!-- 540000 -->
      <g transform="translate(30.55625 162.843415) scale(0.2 -0.2)">
       <use xlink:href="#DejaVuSans-35"/>
       <use xlink:href="#DejaVuSans-34" x="63.623047"/>
       <use xlink:href="#DejaVuSans-30" x="127.246094"/>
       <use xlink:href="#DejaVuSans-30" x="190.869141"/>
       <use xlink:href="#DejaVuSans-30" x="254.492188"/>
       <use xlink:href="#DejaVuSans-30" x="318.115234"/>
      </g>
     </g>
    </g>
    <g id="ytick_8">
     <g id="line2d_13">
      <g>
       <use xlink:href="#m90bff3f1b7" x="113.90625" y="121.959453" style="stroke: #000000; stroke-width: 0.8"/>
      </g>
     </g>
     <g id="text_14">
      <!-- 630000 -->
      <g transform="translate(30.55625 129.55789) scale(0.2 -0.2)">
       <use xlink:href="#DejaVuSans-36"/>
       <use xlink:href="#DejaVuSans-33" x="63.623047"/>
       <use xlink:href="#DejaVuSans-30" x="127.246094"/>
       <use xlink:href="#DejaVuSans-30" x="190.869141"/>
       <use xlink:href="#DejaVuSans-30" x="254.492188"/>
       <use xlink:href="#DejaVuSans-30" x="318.115234"/>
      </g>
     </g>
    </g>
    <g id="ytick_9">
     <g id="line2d_14">
      <g>
       <use xlink:href="#m90bff3f1b7" x="113.90625" y="88.673928" style="stroke: #000000; stroke-width: 0.8"/>
      </g>
     </g>
     <g id="text_15">
      <!-- 720000 -->
      <g transform="translate(30.55625 96.272365) scale(0.2 -0.2)">
       <use xlink:href="#DejaVuSans-37"/>
       <use xlink:href="#DejaVuSans-32" x="63.623047"/>
       <use xlink:href="#DejaVuSans-30" x="127.246094"/>
       <use xlink:href="#DejaVuSans-30" x="190.869141"/>
       <use xlink:href="#DejaVuSans-30" x="254.492188"/>
       <use xlink:href="#DejaVuSans-30" x="318.115234"/>
      </g>
     </g>
    </g>
    <g id="ytick_10">
     <g id="line2d_15">
      <g>
       <use xlink:href="#m90bff3f1b7" x="113.90625" y="55.388403" style="stroke: #000000; stroke-width: 0.8"/>
      </g>
     </g>
     <g id="text_16">
      <!-- 810000 -->
      <g transform="translate(30.55625 62.986841) scale(0.2 -0.2)">
       <use xlink:href="#DejaVuSans-38"/>
       <use xlink:href="#DejaVuSans-31" x="63.623047"/>
       <use xlink:href="#DejaVuSans-30" x="127.246094"/>
       <use xlink:href="#DejaVuSans-30" x="190.869141"/>
       <use xlink:href="#DejaVuSans-30" x="254.492188"/>
       <use xlink:href="#DejaVuSans-30" x="318.115234"/>
      </g>
     </g>
    </g>
    <g id="text_17">
     <!-- Cycles -->
     <g transform="translate(22.396875 221.17875) rotate(-90) scale(0.2 -0.2)">
      <defs>
       <path id="DejaVuSans-43" d="M 4122 4306 
L 4122 3641 
Q 3803 3938 3442 4084 
Q 3081 4231 2675 4231 
Q 1875 4231 1450 3742 
Q 1025 3253 1025 2328 
Q 1025 1406 1450 917 
Q 1875 428 2675 428 
Q 3081 428 3442 575 
Q 3803 722 4122 1019 
L 4122 359 
Q 3791 134 3420 21 
Q 3050 -91 2638 -91 
Q 1578 -91 968 557 
Q 359 1206 359 2328 
Q 359 3453 968 4101 
Q 1578 4750 2638 4750 
Q 3056 4750 3426 4639 
Q 3797 4528 4122 4306 
z
" transform="scale(0.015625)"/>
       <path id="DejaVuSans-63" d="M 3122 3366 
L 3122 2828 
Q 2878 2963 2633 3030 
Q 2388 3097 2138 3097 
Q 1578 3097 1268 2742 
Q 959 2388 959 1747 
Q 959 1106 1268 751 
Q 1578 397 2138 397 
Q 2388 397 2633 464 
Q 2878 531 3122 666 
L 3122 134 
Q 2881 22 2623 -34 
Q 2366 -91 2075 -91 
Q 1284 -91 818 406 
Q 353 903 353 1747 
Q 353 2603 823 3093 
Q 1294 3584 2113 3584 
Q 2378 3584 2631 3529 
Q 2884 3475 3122 3366 
z
" transform="scale(0.015625)"/>
       <path id="DejaVuSans-6c" d="M 603 4863 
L 1178 4863 
L 1178 0 
L 603 0 
L 603 4863 
z
" transform="scale(0.015625)"/>
      </defs>
      <use xlink:href="#DejaVuSans-43"/>
      <use xlink:href="#DejaVuSans-79" x="69.824219"/>
      <use xlink:href="#DejaVuSans-63" x="129.003906"/>
      <use xlink:href="#DejaVuSans-6c" x="183.984375"/>
      <use xlink:href="#DejaVuSans-65" x="211.767578"/>
      <use xlink:href="#DejaVuSans-73" x="273.291016"/>
     </g>
    </g>
   </g>
   <g id="line2d_16">
    <path d="M 159.560795 352.063764 
L 169.172279 351.986837 
L 178.783762 351.918047 
L 188.395245 351.816711 
L 198.006728 351.802657 
L 207.618212 351.790083 
L 217.229695 351.765673 
L 226.841178 351.720553 
L 236.452661 351.677652 
L 246.064145 351.665077 
L 255.675628 351.626614 
L 265.287111 351.61182 
L 274.898594 351.609601 
L 284.510078 351.605903 
L 294.121561 351.578535 
L 303.733044 351.574836 
L 313.344528 351.561522 
L 322.956011 351.561522 
L 332.567494 351.560782 
L 342.178977 351.54451 
L 351.790461 351.537852 
L 361.401944 351.51936 
L 371.013427 351.513443 
L 380.62491 351.493472 
L 390.236394 351.482377 
L 399.847877 351.482377 
L 409.45936 351.476459 
L 419.070843 351.458707 
L 428.682327 351.441694 
L 438.29381 351.434297 
L 447.905293 351.432818 
L 457.516776 351.420983 
L 467.12826 351.418025 
L 476.739743 351.416545 
L 486.351226 351.390656 
L 495.962709 351.344796 
L 505.574193 351.339619 
L 515.185676 351.339619 
L 524.797159 351.31447 
L 534.408642 351.311511 
L 544.020126 351.302635 
L 553.631609 351.284143 
L 563.243092 351.279705 
L 572.854575 351.231626 
L 582.466059 351.217572 
L 592.077542 351.212394 
L 601.689025 351.202778 
L 611.300508 351.199819 
L 620.911992 351.17467 
L 630.523475 351.173931 
L 640.134958 351.170972 
L 649.746441 351.157658 
L 659.357925 351.153959 
L 668.969408 351.148042 
L 678.580891 351.147302 
L 688.192374 351.144344 
L 697.803858 351.139166 
L 707.415341 351.137686 
L 717.026824 351.124372 
L 726.638307 351.122893 
L 736.249791 351.120674 
L 745.861274 351.104401 
L 755.472757 351.102182 
L 765.08424 351.095525 
L 774.695724 351.095525 
L 784.307207 351.094045 
L 793.91869 351.094045 
L 803.530173 351.089607 
L 813.141657 351.077773 
L 822.75314 351.069636 
L 832.364623 351.055582 
L 841.976106 351.054842 
L 851.58759 351.03783 
L 861.199073 351.027474 
L 870.810556 351.027474 
L 880.422039 351.025255 
L 890.033523 351.023036 
L 899.645006 351.020078 
L 909.256489 351.016379 
L 918.867972 350.986052 
L 928.479456 350.966821 
L 938.090939 350.954246 
L 947.702422 350.940932 
L 957.313906 350.912824 
L 966.925389 350.912824 
L 976.536872 350.911345 
L 986.148355 350.903948 
L 995.759839 350.901729 
L 1005.371322 350.870663 
L 1014.982805 350.858828 
L 1024.594288 350.806311 
L 1034.205772 350.790038 
L 1043.817255 350.788558 
L 1053.428738 350.582188 
L 1063.040221 350.352888 
L 1072.651705 350.34845 
" clip-path="url(#p347b55dd93)" style="fill: none; stroke: #008000; stroke-width: 1.5; stroke-linecap: square"/>
   </g>
   <g id="line2d_17">
    <path d="M 159.560795 353.137037 
L 169.172279 353.134818 
L 178.783762 353.045317 
L 188.395245 353.043098 
L 198.006728 352.999457 
L 207.618212 352.997238 
L 217.229695 352.996498 
L 226.841178 352.994279 
L 236.452661 352.981705 
L 246.064145 352.980965 
L 255.675628 352.979485 
L 265.287111 352.978006 
L 274.898594 352.977266 
L 284.510078 352.975047 
L 294.121561 352.96987 
L 303.733044 352.96913 
L 313.344528 352.967651 
L 322.956011 352.966911 
L 332.567494 352.966171 
L 342.178977 352.963952 
L 351.790461 352.963952 
L 361.401944 352.962473 
L 371.013427 352.961733 
L 380.62491 352.959514 
L 390.236394 352.957295 
L 399.847877 352.955076 
L 409.45936 352.952117 
L 419.070843 352.949898 
L 428.682327 352.947679 
L 438.29381 352.94546 
L 447.905293 352.937324 
L 457.516776 352.935105 
L 467.12826 352.925489 
L 476.739743 352.92327 
L 486.351226 352.912914 
L 495.962709 352.912914 
L 505.574193 352.907737 
L 515.185676 352.895162 
L 524.797159 352.884067 
L 534.408642 352.881108 
L 544.020126 352.851521 
L 553.631609 352.850781 
L 563.243092 352.850042 
L 572.854575 352.848562 
L 582.466059 352.847823 
L 592.077542 352.847823 
L 601.689025 352.774595 
L 611.300508 352.772376 
L 620.911992 352.764979 
L 630.523475 352.76276 
L 640.134958 352.759801 
L 649.746441 352.757582 
L 659.357925 352.755363 
L 668.969408 352.753144 
L 678.580891 352.752404 
L 688.192374 352.750925 
L 697.803858 352.747226 
L 707.415341 352.745747 
L 717.026824 352.745007 
L 726.638307 352.743528 
L 736.249791 352.73909 
L 745.861274 352.73835 
L 755.472757 352.736131 
L 765.08424 352.736131 
L 774.695724 352.735392 
L 784.307207 352.734652 
L 793.91869 352.733173 
L 803.530173 352.732433 
L 813.141657 352.731693 
L 822.75314 352.730954 
L 832.364623 352.730214 
L 841.976106 352.727995 
L 851.58759 352.727995 
L 861.199073 352.727255 
L 870.810556 352.727255 
L 880.422039 352.725776 
L 890.033523 352.725776 
L 899.645006 352.725776 
L 909.256489 352.725036 
L 918.867972 352.724296 
L 928.479456 352.723557 
L 938.090939 352.722817 
L 947.702422 352.717639 
L 957.313906 352.717639 
L 966.925389 352.71542 
L 976.536872 352.71542 
L 986.148355 352.710982 
L 995.759839 352.708024 
L 1005.371322 352.708024 
L 1014.982805 352.705804 
L 1024.594288 352.699147 
L 1034.205772 352.696928 
L 1043.817255 352.696189 
L 1053.428738 352.69397 
L 1063.040221 352.691011 
L 1072.651705 352.626659 
" clip-path="url(#p347b55dd93)" style="fill: none; stroke: #ff0000; stroke-width: 1.5; stroke-linecap: square"/>
   </g>
   <g id="line2d_18">
    <path d="M 159.560795 352.786429 
L 169.172279 352.779772 
L 178.783762 352.708763 
L 188.395245 352.703585 
L 198.006728 352.644411 
L 207.618212 352.639233 
L 217.229695 352.60077 
L 226.841178 352.589675 
L 236.452661 352.564526 
L 246.064145 352.558609 
L 255.675628 352.544555 
L 265.287111 352.522364 
L 274.898594 352.482422 
L 284.510078 352.477244 
L 294.121561 352.444698 
L 303.733044 352.43952 
L 313.344528 352.406235 
L 322.956011 352.357416 
L 332.567494 352.342622 
L 342.178977 352.323391 
L 351.790461 352.318213 
L 361.401944 352.317473 
L 371.013427 352.271613 
L 380.62491 352.264956 
L 390.236394 352.243506 
L 399.847877 352.239067 
L 409.45936 352.206522 
L 419.070843 352.200604 
L 428.682327 352.159182 
L 438.29381 352.143649 
L 447.905293 352.142909 
L 457.516776 352.136992 
L 467.12826 352.128116 
L 476.739743 352.085954 
L 486.351226 352.080037 
L 495.962709 352.04971 
L 505.574193 352.042313 
L 515.185676 352.040094 
L 524.797159 352.009028 
L 534.408642 352.00385 
L 544.020126 351.969085 
L 553.631609 351.963907 
L 563.243092 351.926184 
L 572.854575 351.920266 
L 582.466059 351.915828 
L 592.077542 351.848517 
L 601.689025 351.764934 
L 611.300508 351.757537 
L 620.911992 351.722032 
L 630.523475 351.716115 
L 640.134958 351.685788 
L 649.746441 351.627354 
L 659.357925 351.5201 
L 668.969408 351.515662 
L 678.580891 351.513443 
L 688.192374 351.488294 
L 697.803858 351.441694 
L 707.415341 351.200559 
L 717.026824 351.192423 
L 726.638307 351.15174 
L 736.249791 351.121414 
L 745.861274 351.042268 
L 755.472757 351.039309 
L 765.08424 350.992709 
L 774.695724 350.986052 
L 784.307207 350.980135 
L 793.91869 350.976437 
L 803.530173 350.954246 
L 813.141657 350.948329 
L 822.75314 350.918742 
L 832.364623 350.913564 
L 841.976106 350.868444 
L 851.58759 350.816666 
L 861.199073 350.815187 
L 870.810556 350.787079 
L 880.422039 350.76267 
L 890.033523 350.739 
L 899.645006 350.727905 
L 909.256489 350.702756 
L 918.867972 350.696838 
L 928.479456 350.659854 
L 938.090939 350.654677 
L 947.702422 350.62287 
L 957.313906 350.616953 
L 966.925389 350.579229 
L 976.536872 350.574052 
L 986.148355 350.536328 
L 995.759839 350.523014 
L 1005.371322 350.507481 
L 1014.982805 350.467538 
L 1024.594288 350.423157 
L 1034.205772 350.417979 
L 1043.817255 350.369161 
L 1053.428738 350.366942 
L 1063.040221 350.351408 
L 1072.651705 350.346231 
" clip-path="url(#p347b55dd93)" style="fill: none; stroke: #00bfbf; stroke-width: 1.5; stroke-linecap: square"/>
   </g>
   <g id="line2d_19">
    <path d="M 159.560795 352.14069 
L 169.172279 351.864051 
L 178.783762 351.858873 
L 188.395245 351.776769 
L 198.006728 351.751619 
L 207.618212 351.746442 
L 217.229695 351.644366 
L 226.841178 351.576316 
L 236.452661 351.571878 
L 246.064145 351.406929 
L 255.675628 351.398793 
L 265.287111 351.368466 
L 274.898594 351.361809 
L 284.510078 351.343317 
L 294.121561 351.317428 
L 303.733044 351.31299 
L 313.344528 351.182067 
L 322.956011 351.177629 
L 332.567494 351.134728 
L 342.178977 351.13029 
L 351.790461 351.100703 
L 361.401944 351.067417 
L 371.013427 351.056322 
L 380.62491 350.999367 
L 390.236394 350.94463 
L 399.847877 350.937234 
L 409.45936 350.901729 
L 419.070843 350.89951 
L 428.682327 350.861786 
L 438.29381 350.856609 
L 447.905293 350.848472 
L 457.516776 350.824063 
L 467.12826 350.809269 
L 476.739743 350.766368 
L 486.351226 350.755273 
L 495.962709 350.733822 
L 505.574193 350.685743 
L 515.185676 350.625829 
L 524.797159 350.616953 
L 534.408642 350.536328 
L 544.020126 350.53115 
L 553.631609 350.421678 
L 563.243092 350.408364 
L 572.854575 350.380996 
L 582.466059 350.337355 
L 592.077542 350.198295 
L 601.689025 350.175365 
L 611.300508 350.128765 
L 620.911992 350.096959 
L 630.523475 350.065893 
L 640.134958 350.029648 
L 649.746441 350.022991 
L 659.357925 349.986007 
L 668.969408 349.937189 
L 678.580891 349.929052 
L 688.192374 349.896506 
L 697.803858 349.821059 
L 707.415341 349.81884 
L 717.026824 349.785554 
L 726.638307 349.776678 
L 736.249791 349.758926 
L 745.861274 349.748571 
L 755.472757 349.700491 
L 765.08424 349.698272 
L 774.695724 349.694574 
L 784.307207 349.579184 
L 793.91869 349.567349 
L 803.530173 349.373554 
L 813.141657 349.366157 
L 822.75314 349.204907 
L 832.364623 349.203428 
L 841.976106 349.199729 
L 851.58759 349.168663 
L 861.199073 349.163485 
L 870.810556 349.093955 
L 880.422039 349.088038 
L 890.033523 349.051794 
L 899.645006 349.045876 
L 909.256489 349.011111 
L 918.867972 349.005194 
L 928.479456 348.959334 
L 938.090939 348.912734 
L 947.702422 348.893502 
L 957.313906 348.863915 
L 966.925389 348.858738 
L 976.536872 348.82915 
L 986.148355 348.823233 
L 995.759839 348.777373 
L 1005.371322 348.735211 
L 1014.982805 348.730773 
L 1024.594288 348.694529 
L 1034.205772 348.688612 
L 1043.817255 348.644231 
L 1053.428738 348.62352 
L 1063.040221 348.607247 
L 1072.651705 348.601329 
" clip-path="url(#p347b55dd93)" style="fill: none; stroke: #bf00bf; stroke-width: 1.5; stroke-linecap: square"/>
   </g>
   <g id="line2d_20">
    <path d="M 159.560795 351.491253 
L 169.172279 349.191593 
L 178.783762 349.055492 
L 188.395245 349.03626 
L 198.006728 348.718938 
L 207.618212 348.533279 
L 217.229695 348.355756 
L 226.841178 347.349794 
L 236.452661 346.642661 
L 246.064145 346.440729 
L 255.675628 346.309806 
L 265.287111 346.256549 
L 274.898594 345.709927 
L 284.510078 345.039778 
L 294.121561 344.630736 
L 303.733044 341.254105 
L 313.344528 341.023325 
L 322.956011 339.856113 
L 332.567494 339.390115 
L 342.178977 339.001784 
L 351.790461 338.683722 
L 361.401944 338.55206 
L 371.013427 338.407822 
L 380.62491 338.27542 
L 390.236394 338.269503 
L 399.847877 337.557192 
L 409.45936 337.342686 
L 419.070843 336.932904 
L 428.682327 336.773133 
L 438.29381 336.286425 
L 447.905293 336.030496 
L 457.516776 335.157676 
L 467.12826 334.686501 
L 476.739743 332.054725 
L 486.351226 332.026618 
L 495.962709 330.887513 
L 505.574193 330.335713 
L 515.185676 328.897039 
L 524.797159 327.317825 
L 534.408642 326.901386 
L 544.020126 326.669127 
L 553.631609 326.324437 
L 563.243092 326.277838 
L 572.854575 326.242333 
L 582.466059 326.021909 
L 592.077542 325.734174 
L 601.689025 325.717161 
L 611.300508 325.561829 
L 620.911992 325.147609 
L 630.523475 325.003372 
L 640.134958 324.977483 
L 649.746441 324.393877 
L 659.357925 324.20304 
L 668.969408 324.001108 
L 678.580891 322.858305 
L 688.192374 321.407056 
L 697.803858 321.343444 
L 707.415341 319.804913 
L 717.026824 319.779764 
L 726.638307 319.551203 
L 736.249791 319.05266 
L 745.861274 318.561513 
L 755.472757 318.437987 
L 765.08424 317.958675 
L 774.695724 317.388384 
L 784.307207 317.060706 
L 793.91869 316.673854 
L 803.530173 314.985908 
L 813.141657 314.037641 
L 822.75314 313.549453 
L 832.364623 311.872602 
L 841.976106 311.266066 
L 851.58759 310.076663 
L 861.199073 308.365787 
L 870.810556 306.245869 
L 880.422039 305.110463 
L 890.033523 304.747281 
L 899.645006 304.582333 
L 909.256489 304.441794 
L 918.867972 304.431438 
L 928.479456 303.946209 
L 938.090939 303.747976 
L 947.702422 303.151795 
L 957.313906 302.856663 
L 966.925389 302.65621 
L 976.536872 298.590938 
L 986.148355 291.728942 
L 995.759839 291.637222 
L 1005.371322 290.757745 
L 1014.982805 289.1127 
L 1024.594288 284.429797 
L 1034.205772 281.335722 
L 1043.817255 259.348784 
L 1053.428738 255.590478 
L 1063.040221 162.583326 
L 1072.651705 54.332882 
" clip-path="url(#p347b55dd93)" style="fill: none; stroke: #000000; stroke-width: 1.5; stroke-linecap: square"/>
   </g>
   <g id="line2d_21">
    <path d="M 159.560795 353.464714 
L 169.172279 352.334486 
L 178.783762 351.655461 
L 188.395245 351.136947 
L 198.006728 351.036351 
L 207.618212 350.90025 
L 217.229695 350.898031 
L 226.841178 350.772285 
L 236.452661 350.190898 
L 246.064145 349.884671 
L 255.675628 349.730079 
L 265.287111 349.564391 
L 274.898594 348.977826 
L 284.510078 348.917172 
L 294.121561 348.912734 
L 303.733044 348.431203 
L 313.344528 348.257379 
L 322.956011 348.085774 
L 332.567494 348.00293 
L 342.178977 347.70262 
L 351.790461 347.626433 
L 361.401944 347.574656 
L 371.013427 347.2884 
L 380.62491 346.751394 
L 390.236394 346.602719 
L 399.847877 346.435551 
L 409.45936 346.417799 
L 419.070843 345.874135 
L 428.682327 345.835672 
L 438.29381 345.652972 
L 447.905293 345.411837 
L 457.516776 344.945839 
L 467.12826 344.169177 
L 476.739743 344.090771 
L 486.351226 343.08111 
L 495.962709 342.974596 
L 505.574193 342.75935 
L 515.185676 342.497504 
L 524.797159 342.140239 
L 534.408642 342.037424 
L 544.020126 341.845847 
L 553.631609 341.729718 
L 563.243092 341.452338 
L 572.854575 341.390205 
L 582.466059 340.931605 
L 592.077542 340.730412 
L 601.689025 340.34504 
L 611.300508 339.802856 
L 620.911992 339.764393 
L 630.523475 339.276205 
L 640.134958 338.996606 
L 649.746441 338.774703 
L 659.357925 338.739198 
L 668.969408 338.50546 
L 678.580891 338.334594 
L 688.192374 338.056475 
L 697.803858 338.016533 
L 707.415341 337.662227 
L 717.026824 337.638557 
L 726.638307 337.40112 
L 736.249791 337.390025 
L 745.861274 336.974326 
L 755.472757 336.753162 
L 765.08424 336.668099 
L 774.695724 336.548271 
L 784.307207 335.989074 
L 793.91869 335.358868 
L 803.530173 335.213891 
L 813.141657 334.974236 
L 822.75314 334.969798 
L 832.364623 333.934988 
L 841.976106 333.923892 
L 851.58759 333.832172 
L 861.199073 333.374311 
L 870.810556 333.334369 
L 880.422039 333.199008 
L 890.033523 332.721176 
L 899.645006 332.622059 
L 909.256489 330.263964 
L 918.867972 330.062032 
L 928.479456 329.92963 
L 938.090939 329.326052 
L 947.702422 329.288328 
L 957.313906 327.810451 
L 966.925389 326.430951 
L 976.536872 326.186118 
L 986.148355 325.598813 
L 995.759839 323.321343 
L 1005.371322 322.935971 
L 1014.982805 322.887152 
L 1024.594288 316.507427 
L 1034.205772 311.830441 
L 1043.817255 308.324365 
L 1053.428738 307.80881 
L 1063.040221 283.946787 
L 1072.651705 274.600951 
" clip-path="url(#p347b55dd93)" style="fill: none; stroke-dasharray: 5.55,2.4; stroke-dashoffset: 0; stroke: #0000ff; stroke-width: 1.5"/>
   </g>
   <g id="line2d_22">
    <path d="M 159.560795 352.727995 
L 169.172279 350.288536 
L 178.783762 350.270783 
L 188.395245 349.713066 
L 198.006728 348.701186 
L 207.618212 344.283087 
L 217.229695 342.862905 
L 226.841178 342.451644 
L 236.452661 342.130623 
L 246.064145 342.123966 
L 255.675628 341.544798 
L 265.287111 341.476008 
L 274.898594 341.33325 
L 284.510078 341.302184 
L 294.121561 340.935303 
L 303.733044 340.380545 
L 313.344528 339.888658 
L 322.956011 339.86203 
L 332.567494 339.758475 
L 342.178977 339.174129 
L 351.790461 338.96554 
L 361.401944 338.859766 
L 371.013427 338.68964 
L 380.62491 338.57425 
L 390.236394 338.226601 
L 399.847877 337.981768 
L 409.45936 337.788712 
L 419.070843 337.679239 
L 428.682327 336.55123 
L 438.29381 335.132527 
L 447.905293 334.311484 
L 457.516776 333.986765 
L 467.12826 333.074002 
L 476.739743 331.597604 
L 486.351226 329.787611 
L 495.962709 329.67592 
L 505.574193 328.906654 
L 515.185676 326.956862 
L 524.797159 326.033744 
L 534.408642 325.55961 
L 544.020126 325.339186 
L 553.631609 324.677174 
L 563.243092 323.910867 
L 572.854575 322.645277 
L 582.466059 322.424114 
L 592.077542 321.726597 
L 601.689025 321.333088 
L 611.300508 320.556426 
L 620.911992 311.726886 
L 630.523475 306.966316 
L 640.134958 306.537302 
L 649.746441 305.105285 
L 659.357925 303.620011 
L 668.969408 295.0464 
L 678.580891 292.984177 
L 688.192374 292.598804 
L 697.803858 290.603892 
L 707.415341 289.717017 
L 717.026824 285.343299 
L 726.638307 282.849844 
L 736.249791 281.292821 
L 745.861274 279.897788 
L 755.472757 275.98341 
L 765.08424 272.05054 
L 774.695724 270.830071 
L 784.307207 268.964602 
L 793.91869 267.829936 
L 803.530173 266.842465 
L 813.141657 266.25664 
L 822.75314 264.391911 
L 832.364623 262.881488 
L 841.976106 261.934699 
L 851.58759 258.637213 
L 861.199073 257.336119 
L 870.810556 257.28952 
L 880.422039 255.696992 
L 890.033523 254.57564 
L 899.645006 254.323409 
L 909.256489 250.268493 
L 918.867972 240.738477 
L 928.479456 233.171568 
L 938.090939 204.007531 
L 947.702422 203.281167 
L 957.313906 199.851279 
L 966.925389 195.191305 
L 976.536872 192.457454 
L 986.148355 191.997374 
L 995.759839 190.648201 
L 1005.371322 189.705111 
L 1014.982805 186.612516 
L 1024.594288 184.086514 
L 1034.205772 178.929477 
L 1043.817255 178.112133 
L 1053.428738 175.753298 
L 1063.040221 153.086596 
L 1070.868314 -1 
" clip-path="url(#p347b55dd93)" style="fill: none; stroke-dasharray: 5.55,2.4; stroke-dashoffset: 0; stroke: #008000; stroke-width: 1.5"/>
   </g>
   <g id="line2d_23">
    <path d="M 159.560795 351.645845 
L 169.172279 346.648579 
L 178.783762 344.539756 
L 188.395245 344.331167 
L 198.006728 344.27717 
L 207.618212 344.243145 
L 217.229695 343.936178 
L 226.841178 343.24236 
L 236.452661 342.863645 
L 246.064145 342.372498 
L 255.675628 341.26446 
L 265.287111 341.066966 
L 274.898594 340.910894 
L 284.510078 340.180831 
L 294.121561 339.108298 
L 303.733044 339.049124 
L 313.344528 338.650437 
L 322.956011 338.242135 
L 332.567494 337.619325 
L 342.178977 336.71248 
L 351.790461 335.486093 
L 361.401944 333.26188 
L 371.013427 333.045894 
L 380.62491 332.718217 
L 390.236394 332.323968 
L 399.847877 332.002208 
L 409.45936 331.425999 
L 419.070843 331.129388 
L 428.682327 330.979973 
L 438.29381 330.43409 
L 447.905293 330.235117 
L 457.516776 329.633018 
L 467.12826 329.58272 
L 476.739743 329.279452 
L 486.351226 328.152922 
L 495.962709 327.235721 
L 505.574193 327.113674 
L 515.185676 326.584064 
L 524.797159 326.510097 
L 534.408642 326.332574 
L 544.020126 326.227539 
L 553.631609 325.208263 
L 563.243092 324.831027 
L 572.854575 324.348757 
L 582.466059 321.270955 
L 592.077542 320.060102 
L 601.689025 319.69544 
L 611.300508 319.115532 
L 620.911992 318.165785 
L 630.523475 317.162782 
L 640.134958 316.878745 
L 649.746441 316.620597 
L 659.357925 316.610242 
L 668.969408 316.197501 
L 678.580891 315.427496 
L 688.192374 312.586392 
L 697.803858 312.348215 
L 707.415341 312.157378 
L 717.026824 312.145544 
L 726.638307 311.328939 
L 736.249791 311.328939 
L 745.861274 310.271938 
L 755.472757 309.275592 
L 765.08424 309.02706 
L 774.695724 308.79554 
L 784.307207 308.513723 
L 793.91869 308.213414 
L 803.530173 308.160157 
L 813.141657 307.595782 
L 822.75314 307.014395 
L 832.364623 306.742933 
L 841.976106 306.541001 
L 851.58759 305.94408 
L 861.199073 305.222894 
L 870.810556 300.907611 
L 880.422039 300.809234 
L 890.033523 299.247033 
L 899.645006 298.831334 
L 909.256489 297.940021 
L 918.867972 296.365246 
L 928.479456 292.995272 
L 938.090939 292.120232 
L 947.702422 291.625387 
L 957.313906 287.944748 
L 966.925389 284.589567 
L 976.536872 284.434235 
L 986.148355 279.509456 
L 995.759839 278.095192 
L 1005.371322 275.953083 
L 1014.982805 274.066164 
L 1024.594288 268.967561 
L 1034.205772 266.797345 
L 1043.817255 233.227044 
L 1053.428738 232.72998 
L 1063.040221 167.367565 
L 1072.651705 22.318125 
" clip-path="url(#p347b55dd93)" style="fill: none; stroke-dasharray: 5.55,2.4; stroke-dashoffset: 0; stroke: #ff0000; stroke-width: 1.5"/>
   </g>
   <g id="line2d_24">
    <path d="M 159.560795 354.087524 
L 169.172279 353.913699 
L 178.783762 353.804227 
L 188.395245 353.698453 
L 198.006728 353.432908 
L 207.618212 353.343407 
L 217.229695 353.043837 
L 226.841178 352.849302 
L 236.452661 352.192468 
L 246.064145 352.159922 
L 255.675628 352.139211 
L 265.287111 351.853695 
L 274.898594 351.809314 
L 284.510078 351.746442 
L 294.121561 351.26639 
L 303.733044 351.165794 
L 313.344528 351.051884 
L 322.956011 350.864745 
L 332.567494 350.790038 
L 342.178977 350.662813 
L 351.790461 350.591804 
L 361.401944 350.473455 
L 371.013427 350.34845 
L 380.62491 350.298152 
L 390.236394 350.20865 
L 399.847877 350.022252 
L 409.45936 349.900205 
L 419.070843 349.652412 
L 428.682327 349.586581 
L 438.29381 349.580664 
L 447.905293 349.562911 
L 457.516776 349.467493 
L 467.12826 349.460836 
L 476.739743 349.423112 
L 486.351226 349.361719 
L 495.962709 349.351363 
L 505.574193 349.12872 
L 515.185676 349.109488 
L 524.797159 348.963772 
L 534.408642 348.928267 
L 544.020126 348.832849 
L 553.631609 348.735951 
L 563.243092 348.707103 
L 572.854575 348.676037 
L 582.466059 348.675297 
L 592.077542 348.621301 
L 601.689025 348.587276 
L 611.300508 348.524403 
L 620.911992 348.465229 
L 630.523475 348.384604 
L 640.134958 348.322471 
L 649.746441 348.312855 
L 659.357925 348.266995 
L 668.969408 348.218176 
L 678.580891 348.158262 
L 688.192374 348.14125 
L 697.803858 348.103526 
L 707.415341 348.096129 
L 717.026824 348.066542 
L 726.638307 348.054707 
L 736.249791 348.036955 
L 745.861274 347.960028 
L 755.472757 347.929702 
L 765.08424 347.889019 
L 774.695724 347.74922 
L 784.307207 347.730728 
L 793.91869 347.730728 
L 803.530173 347.730728 
L 813.141657 347.729249 
L 822.75314 347.533234 
L 832.364623 347.445212 
L 841.976106 347.445212 
L 851.58759 347.428939 
L 861.199073 347.4282 
L 870.810556 347.425981 
L 880.422039 347.393435 
L 890.033523 347.391216 
L 899.645006 347.386778 
L 909.256489 347.361629 
L 918.867972 347.356451 
L 928.479456 347.341657 
L 938.090939 347.244759 
L 947.702422 347.047265 
L 957.313906 347.020637 
L 966.925389 346.970339 
L 976.536872 346.957025 
L 986.148355 346.866044 
L 995.759839 346.844593 
L 1005.371322 346.710712 
L 1014.982805 346.708493 
L 1024.594288 346.62343 
L 1034.205772 346.508779 
L 1043.817255 346.41558 
L 1053.428738 346.244714 
L 1063.040221 345.850466 
L 1072.651705 345.820139 
" clip-path="url(#p347b55dd93)" style="fill: none; stroke-dasharray: 5.55,2.4; stroke-dashoffset: 0; stroke: #00bfbf; stroke-width: 1.5"/>
   </g>
   <g id="line2d_25">
    <path d="M 159.560795 352.982444 
L 169.172279 352.977266 
L 178.783762 352.942502 
L 188.395245 352.935105 
L 198.006728 352.906257 
L 207.618212 352.901819 
L 217.229695 352.871492 
L 226.841178 352.866315 
L 236.452661 352.836728 
L 246.064145 352.83155 
L 255.675628 352.797525 
L 265.287111 352.792347 
L 274.898594 352.76128 
L 284.510078 352.753884 
L 294.121561 352.722817 
L 303.733044 352.7169 
L 313.344528 352.688052 
L 322.956011 352.682135 
L 332.567494 352.651808 
L 342.178977 352.642932 
L 351.790461 352.621481 
L 361.401944 352.60003 
L 371.013427 352.592634 
L 380.62491 352.572662 
L 390.236394 352.565266 
L 399.847877 352.529761 
L 409.45936 352.523104 
L 419.070843 352.487599 
L 428.682327 352.482422 
L 438.29381 352.471326 
L 447.905293 352.444698 
L 457.516776 352.412892 
L 467.12826 352.407714 
L 476.739743 352.385524 
L 486.351226 352.296762 
L 495.962709 352.291585 
L 505.574193 352.257559 
L 515.185676 352.254601 
L 524.797159 352.251642 
L 534.408642 352.234629 
L 544.020126 352.216877 
L 553.631609 352.211699 
L 563.243092 352.127376 
L 572.854575 352.108144 
L 582.466059 352.088913 
L 592.077542 352.083735 
L 601.689025 351.969085 
L 611.300508 351.961688 
L 620.911992 351.928403 
L 630.523475 351.923225 
L 640.134958 351.898076 
L 649.746441 351.886241 
L 659.357925 351.881803 
L 668.969408 351.79526 
L 678.580891 351.789343 
L 688.192374 351.782686 
L 697.803858 351.777508 
L 707.415341 351.735347 
L 717.026824 351.72647 
L 726.638307 351.624395 
L 736.249791 351.616998 
L 745.861274 351.582973 
L 755.472757 351.578535 
L 765.08424 351.548208 
L 774.695724 351.515662 
L 784.307207 351.508265 
L 793.91869 351.475719 
L 803.530173 351.468323 
L 813.141657 351.422463 
L 822.75314 351.389917 
L 832.364623 351.38326 
L 841.976106 351.349974 
L 851.58759 351.344796 
L 861.199073 351.276006 
L 870.810556 351.270829 
L 880.422039 351.239022 
L 890.033523 351.234584 
L 899.645006 351.166534 
L 909.256489 351.161356 
L 918.867972 351.120674 
L 928.479456 351.068896 
L 938.090939 350.997148 
L 947.702422 350.94611 
L 957.313906 350.916523 
L 966.925389 350.87658 
L 976.536872 350.870663 
L 986.148355 350.837377 
L 995.759839 350.83146 
L 1005.371322 350.796695 
L 1014.982805 350.790777 
L 1024.594288 350.748616 
L 1034.205772 350.713111 
L 1043.817255 350.706454 
L 1053.428738 350.670949 
L 1063.040221 350.665772 
L 1072.651705 350.619912 
" clip-path="url(#p347b55dd93)" style="fill: none; stroke-dasharray: 5.55,2.4; stroke-dashoffset: 0; stroke: #bf00bf; stroke-width: 1.5"/>
   </g>
   <g id="line2d_26">
    <path d="M 159.560795 353.968435 
L 169.172279 353.884112 
L 178.783762 353.869319 
L 188.395245 353.713246 
L 198.006728 353.619307 
L 207.618212 353.574927 
L 217.229695 353.293849 
L 226.841178 352.587456 
L 236.452661 352.535678 
L 246.064145 352.482422 
L 255.675628 352.16362 
L 265.287111 352.152525 
L 274.898594 351.699102 
L 284.510078 351.623655 
L 294.121561 351.393615 
L 303.733044 351.305593 
L 313.344528 351.289321 
L 322.956011 351.255295 
L 332.567494 351.225708 
L 342.178977 351.163575 
L 351.790461 351.156918 
L 361.401944 350.963122 
L 371.013427 350.751574 
L 380.62491 350.722727 
L 390.236394 350.494166 
L 399.847877 350.380996 
L 409.45936 350.340313 
L 419.070843 350.332177 
L 428.682327 350.224184 
L 438.29381 350.064413 
L 447.905293 350.061454 
L 457.516776 350.039264 
L 467.12826 349.985268 
L 476.739743 349.972693 
L 486.351226 349.960858 
L 495.962709 349.948284 
L 505.574193 349.84251 
L 515.185676 349.568829 
L 524.797159 349.464534 
L 534.408642 349.317338 
L 544.020126 349.286272 
L 553.631609 349.24485 
L 563.243092 349.067327 
L 572.854575 349.052533 
L 582.466059 348.974127 
L 592.077542 348.641272 
L 601.689025 348.602809 
L 611.300508 348.535498 
L 620.911992 348.326169 
L 630.523475 348.303979 
L 640.134958 348.246284 
L 649.746441 348.229271 
L 659.357925 348.190068 
L 668.969408 348.155303 
L 678.580891 348.152345 
L 688.192374 348.11832 
L 697.803858 348.1161 
L 707.415341 348.115361 
L 717.026824 348.053228 
L 726.638307 347.98 
L 736.249791 347.965206 
L 745.861274 347.911949 
L 755.472757 347.889019 
L 765.08424 347.857213 
L 774.695724 347.851296 
L 784.307207 347.844639 
L 793.91869 347.844639 
L 803.530173 347.84168 
L 813.141657 347.781026 
L 822.75314 347.768452 
L 832.364623 347.741823 
L 841.976106 347.603503 
L 851.58759 347.576135 
L 861.199073 347.539891 
L 870.810556 347.485895 
L 880.422039 347.482936 
L 890.033523 347.466663 
L 899.645006 347.444473 
L 909.256489 347.433377 
L 918.867972 347.26695 
L 928.479456 347.264731 
L 938.090939 347.237363 
L 947.702422 347.072414 
L 957.313906 347.043567 
L 966.925389 347.016199 
L 976.536872 346.99105 
L 986.148355 346.98957 
L 995.759839 346.968859 
L 1005.371322 346.934095 
L 1014.982805 346.928177 
L 1024.594288 346.64488 
L 1034.205772 346.610115 
L 1043.817255 346.559817 
L 1053.428738 346.358625 
L 1063.040221 346.220305 
L 1072.651705 346.079766 
" clip-path="url(#p347b55dd93)" style="fill: none; stroke-dasharray: 5.55,2.4; stroke-dashoffset: 0; stroke: #000000; stroke-width: 1.5"/>
   </g>
   <g id="line2d_27">
    <path d="M 159.560795 353.901864 
L 169.172279 353.75023 
L 178.783762 353.608952 
L 188.395245 353.47507 
L 198.006728 353.434388 
L 207.618212 353.414416 
L 217.229695 353.375213 
L 226.841178 353.081561 
L 236.452661 352.64663 
L 246.064145 352.218356 
L 255.675628 352.18803 
L 265.287111 352.130335 
L 274.898594 351.595547 
L 284.510078 351.594068 
L 294.121561 351.489034 
L 303.733044 351.230886 
L 313.344528 351.168013 
L 322.956011 350.916523 
L 332.567494 350.836637 
L 342.178977 350.825542 
L 351.790461 350.771546 
L 361.401944 350.751574 
L 371.013427 350.574052 
L 380.62491 350.352148 
L 390.236394 350.305548 
L 399.847877 350.179063 
L 409.45936 350.105835 
L 419.070843 349.953461 
L 428.682327 349.641317 
L 438.29381 349.430509 
L 447.905293 349.417934 
L 457.516776 349.329913 
L 467.12826 349.319557 
L 476.739743 349.311421 
L 486.351226 349.265561 
L 495.962709 349.158307 
L 505.574193 349.12946 
L 515.185676 349.098393 
L 524.797159 349.068066 
L 534.408642 349.01481 
L 544.020126 348.99114 
L 553.631609 348.946759 
L 563.243092 348.910515 
L 572.854575 348.845423 
L 582.466059 348.750005 
L 592.077542 348.327648 
L 601.689025 348.27883 
L 611.300508 348.27883 
L 620.911992 348.108704 
L 630.523475 348.107964 
L 640.134958 347.971124 
L 649.746441 347.928222 
L 659.357925 347.821709 
L 668.969408 347.815791 
L 678.580891 347.713715 
L 688.192374 347.693004 
L 697.803858 347.682649 
L 707.415341 347.65824 
L 717.026824 347.598326 
L 726.638307 347.577615 
L 736.249791 347.575396 
L 745.861274 347.543589 
L 755.472757 347.514742 
L 765.08424 347.485895 
L 774.695724 347.418584 
L 784.307207 347.391216 
L 793.91869 347.384559 
L 803.530173 347.251417 
L 813.141657 347.115316 
L 822.75314 347.114576 
L 832.364623 347.110138 
L 841.976106 347.042827 
L 851.58759 347.018418 
L 861.199073 346.935574 
L 870.810556 346.918561 
L 880.422039 346.858647 
L 890.033523 346.827581 
L 899.645006 346.785419 
L 909.256489 346.718848 
L 918.867972 346.699616 
L 928.479456 346.69074 
L 938.090939 346.641922 
L 947.702422 346.516176 
L 957.313906 346.348269 
L 966.925389 346.297971 
L 976.536872 346.240276 
L 986.148355 346.201813 
L 995.759839 346.195156 
L 1005.371322 346.18554 
L 1014.982805 346.050179 
L 1024.594288 346.022071 
L 1034.205772 346.003579 
L 1043.817255 346.00062 
L 1053.428738 345.743212 
L 1063.040221 345.721762 
L 1072.651705 345.516131 
" clip-path="url(#p347b55dd93)" style="fill: none; stroke-dasharray: 9.6,2.4,1.5,2.4; stroke-dashoffset: 0; stroke: #0000ff; stroke-width: 1.5"/>
   </g>
   <g id="line2d_28">
    <path d="M 159.560795 353.860442 
L 169.172279 353.833074 
L 178.783762 353.65999 
L 188.395245 353.624485 
L 198.006728 353.379651 
L 207.618212 353.318998 
L 217.229695 352.987622 
L 226.841178 352.194687 
L 236.452661 352.064503 
L 246.064145 352.051929 
L 255.675628 351.760496 
L 265.287111 351.75014 
L 274.898594 351.738305 
L 284.510078 351.723512 
L 294.121561 351.514183 
L 303.733044 351.283403 
L 313.344528 350.739 
L 322.956011 350.664292 
L 332.567494 350.514877 
L 342.178977 350.511179 
L 351.790461 350.351408 
L 361.401944 350.316644 
L 371.013427 350.122108 
L 380.62491 350.091781 
L 390.236394 349.923135 
L 399.847877 349.783335 
L 409.45936 349.718244 
L 419.070843 349.67978 
L 428.682327 349.672384 
L 438.29381 349.595457 
L 447.905293 349.5888 
L 457.516776 349.409798 
L 467.12826 349.374293 
L 476.739743 349.331392 
L 486.351226 349.213783 
L 495.962709 349.076203 
L 505.574193 348.840985 
L 515.185676 348.728554 
L 524.797159 348.562866 
L 534.408642 348.490378 
L 544.020126 348.447476 
L 553.631609 348.311376 
L 563.243092 348.292884 
L 572.854575 348.191548 
L 582.466059 348.167878 
L 592.077542 348.152345 
L 601.689025 348.1161 
L 611.300508 348.084294 
L 620.911992 348.082815 
L 630.523475 348.053968 
L 640.134958 348.018463 
L 649.746441 347.943755 
L 659.357925 347.824667 
L 668.969408 347.816531 
L 678.580891 347.739604 
L 688.192374 347.690785 
L 697.803858 347.673033 
L 707.415341 347.607941 
L 717.026824 347.592408 
L 726.638307 347.566519 
L 736.249791 347.549507 
L 745.861274 347.438555 
L 755.472757 347.414885 
L 765.08424 347.401571 
L 774.695724 347.315769 
L 784.307207 347.275086 
L 793.91869 347.176709 
L 803.530173 347.169312 
L 813.141657 347.15156 
L 822.75314 347.124932 
L 832.364623 347.119014 
L 841.976106 347.101262 
L 851.58759 347.089427 
L 861.199073 346.896371 
L 870.810556 346.877879 
L 880.422039 346.816486 
L 890.033523 346.772845 
L 899.645006 346.758051 
L 909.256489 346.73808 
L 918.867972 346.726985 
L 928.479456 346.706274 
L 938.090939 346.587185 
L 947.702422 346.516916 
L 957.313906 346.390431 
L 966.925389 346.385993 
L 976.536872 346.34605 
L 986.148355 346.266905 
L 995.759839 346.249892 
L 1005.371322 346.151515 
L 1014.982805 346.059795 
L 1024.594288 345.999881 
L 1034.205772 345.995443 
L 1043.817255 345.58862 
L 1053.428738 345.492461 
L 1063.040221 345.458436 
L 1072.651705 344.815656 
" clip-path="url(#p347b55dd93)" style="fill: none; stroke-dasharray: 9.6,2.4,1.5,2.4; stroke-dashoffset: 0; stroke: #008000; stroke-width: 1.5"/>
   </g>
   <g id="patch_3">
    <path d="M 113.90625 354.958125 
L 113.90625 22.318125 
" style="fill: none; stroke: #000000; stroke-width: 0.8; stroke-linejoin: miter; stroke-linecap: square"/>
   </g>
   <g id="patch_4">
    <path d="M 1118.30625 354.958125 
L 1118.30625 22.318125 
" style="fill: none; stroke: #000000; stroke-width: 0.8; stroke-linejoin: miter; stroke-linecap: square"/>
   </g>
   <g id="patch_5">
    <path d="M 113.90625 354.958125 
L 1118.30625 354.958125 
" style="fill: none; stroke: #000000; stroke-width: 0.8; stroke-linejoin: miter; stroke-linecap: square"/>
   </g>
   <g id="patch_6">
    <path d="M 113.90625 22.318125 
L 1118.30625 22.318125 
" style="fill: none; stroke: #000000; stroke-width: 0.8; stroke-linejoin: miter; stroke-linecap: square"/>
   </g>
   <g id="text_18">
    <!-- Scheduling time, all -->
    <g transform="translate(556.660313 16.318125) scale(0.12 -0.12)">
     <defs>
      <path id="DejaVuSans-53" d="M 3425 4513 
L 3425 3897 
Q 3066 4069 2747 4153 
Q 2428 4238 2131 4238 
Q 1616 4238 1336 4038 
Q 1056 3838 1056 3469 
Q 1056 3159 1242 3001 
Q 1428 2844 1947 2747 
L 2328 2669 
Q 3034 2534 3370 2195 
Q 3706 1856 3706 1288 
Q 3706 609 3251 259 
Q 2797 -91 1919 -91 
Q 1588 -91 1214 -16 
Q 841 59 441 206 
L 441 856 
Q 825 641 1194 531 
Q 1563 422 1919 422 
Q 2459 422 2753 634 
Q 3047 847 3047 1241 
Q 3047 1584 2836 1778 
Q 2625 1972 2144 2069 
L 1759 2144 
Q 1053 2284 737 2584 
Q 422 2884 422 3419 
Q 422 4038 858 4394 
Q 1294 4750 2059 4750 
Q 2388 4750 2728 4690 
Q 3069 4631 3425 4513 
z
" transform="scale(0.015625)"/>
      <path id="DejaVuSans-75" d="M 544 1381 
L 544 3500 
L 1119 3500 
L 1119 1403 
Q 1119 906 1312 657 
Q 1506 409 1894 409 
Q 2359 409 2629 706 
Q 2900 1003 2900 1516 
L 2900 3500 
L 3475 3500 
L 3475 0 
L 2900 0 
L 2900 538 
Q 2691 219 2414 64 
Q 2138 -91 1772 -91 
Q 1169 -91 856 284 
Q 544 659 544 1381 
z
M 1991 3584 
L 1991 3584 
z
" transform="scale(0.015625)"/>
      <path id="DejaVuSans-67" d="M 2906 1791 
Q 2906 2416 2648 2759 
Q 2391 3103 1925 3103 
Q 1463 3103 1205 2759 
Q 947 2416 947 1791 
Q 947 1169 1205 825 
Q 1463 481 1925 481 
Q 2391 481 2648 825 
Q 2906 1169 2906 1791 
z
M 3481 434 
Q 3481 -459 3084 -895 
Q 2688 -1331 1869 -1331 
Q 1566 -1331 1297 -1286 
Q 1028 -1241 775 -1147 
L 775 -588 
Q 1028 -725 1275 -790 
Q 1522 -856 1778 -856 
Q 2344 -856 2625 -561 
Q 2906 -266 2906 331 
L 2906 616 
Q 2728 306 2450 153 
Q 2172 0 1784 0 
Q 1141 0 747 490 
Q 353 981 353 1791 
Q 353 2603 747 3093 
Q 1141 3584 1784 3584 
Q 2172 3584 2450 3431 
Q 2728 3278 2906 2969 
L 2906 3500 
L 3481 3500 
L 3481 434 
z
" transform="scale(0.015625)"/>
      <path id="DejaVuSans-2c" d="M 750 794 
L 1409 794 
L 1409 256 
L 897 -744 
L 494 -744 
L 750 256 
L 750 794 
z
" transform="scale(0.015625)"/>
     </defs>
     <use xlink:href="#DejaVuSans-53"/>
     <use xlink:href="#DejaVuSans-63" x="63.476562"/>
     <use xlink:href="#DejaVuSans-68" x="118.457031"/>
     <use xlink:href="#DejaVuSans-65" x="181.835938"/>
     <use xlink:href="#DejaVuSans-64" x="243.359375"/>
     <use xlink:href="#DejaVuSans-75" x="306.835938"/>
     <use xlink:href="#DejaVuSans-6c" x="370.214844"/>
     <use xlink:href="#DejaVuSans-69" x="397.998047"/>
     <use xlink:href="#DejaVuSans-6e" x="425.78125"/>
     <use xlink:href="#DejaVuSans-67" x="489.160156"/>
     <use xlink:href="#DejaVuSans-20" x="552.636719"/>
     <use xlink:href="#DejaVuSans-74" x="584.423828"/>
     <use xlink:href="#DejaVuSans-69" x="623.632812"/>
     <use xlink:href="#DejaVuSans-6d" x="651.416016"/>
     <use xlink:href="#DejaVuSans-65" x="748.828125"/>
     <use xlink:href="#DejaVuSans-2c" x="810.351562"/>
     <use xlink:href="#DejaVuSans-20" x="842.138672"/>
     <use xlink:href="#DejaVuSans-61" x="873.925781"/>
     <use xlink:href="#DejaVuSans-6c" x="935.205078"/>
     <use xlink:href="#DejaVuSans-6c" x="962.988281"/>
    </g>
   </g>
   <g id="legend_1">
    <g id="patch_7">
     <path d="M 123.70625 305.721875 
L 399.158437 305.721875 
Q 401.958438 305.721875 401.958438 302.921875 
L 401.958438 32.118125 
Q 401.958438 29.318125 399.158437 29.318125 
L 123.70625 29.318125 
Q 120.90625 29.318125 120.90625 32.118125 
L 120.90625 302.921875 
Q 120.90625 305.721875 123.70625 305.721875 
z
" style="fill: #ffffff; opacity: 0.8; stroke: #cccccc; stroke-linejoin: miter"/>
    </g>
    <g id="line2d_29">
     <path d="M 126.50625 40.655937 
L 140.50625 40.655937 
L 154.50625 40.655937 
" style="fill: none; stroke: #008000; stroke-width: 1.5; stroke-linecap: square"/>
    </g>
    <g id="text_19">
     <!-- OMP_DYNAMIC_NONMONOTONIC -->
     <g transform="translate(165.70625 45.555937) scale(0.14 -0.14)">
      <defs>
       <path id="DejaVuSans-4f" d="M 2522 4238 
Q 1834 4238 1429 3725 
Q 1025 3213 1025 2328 
Q 1025 1447 1429 934 
Q 1834 422 2522 422 
Q 3209 422 3611 934 
Q 4013 1447 4013 2328 
Q 4013 3213 3611 3725 
Q 3209 4238 2522 4238 
z
M 2522 4750 
Q 3503 4750 4090 4092 
Q 4678 3434 4678 2328 
Q 4678 1225 4090 567 
Q 3503 -91 2522 -91 
Q 1538 -91 948 565 
Q 359 1222 359 2328 
Q 359 3434 948 4092 
Q 1538 4750 2522 4750 
z
" transform="scale(0.015625)"/>
       <path id="DejaVuSans-4d" d="M 628 4666 
L 1569 4666 
L 2759 1491 
L 3956 4666 
L 4897 4666 
L 4897 0 
L 4281 0 
L 4281 4097 
L 3078 897 
L 2444 897 
L 1241 4097 
L 1241 0 
L 628 0 
L 628 4666 
z
" transform="scale(0.015625)"/>
       <path id="DejaVuSans-50" d="M 1259 4147 
L 1259 2394 
L 2053 2394 
Q 2494 2394 2734 2622 
Q 2975 2850 2975 3272 
Q 2975 3691 2734 3919 
Q 2494 4147 2053 4147 
L 1259 4147 
z
M 628 4666 
L 2053 4666 
Q 2838 4666 3239 4311 
Q 3641 3956 3641 3272 
Q 3641 2581 3239 2228 
Q 2838 1875 2053 1875 
L 1259 1875 
L 1259 0 
L 628 0 
L 628 4666 
z
" transform="scale(0.015625)"/>
       <path id="DejaVuSans-5f" d="M 3263 -1063 
L 3263 -1509 
L -63 -1509 
L -63 -1063 
L 3263 -1063 
z
" transform="scale(0.015625)"/>
       <path id="DejaVuSans-44" d="M 1259 4147 
L 1259 519 
L 2022 519 
Q 2988 519 3436 956 
Q 3884 1394 3884 2338 
Q 3884 3275 3436 3711 
Q 2988 4147 2022 4147 
L 1259 4147 
z
M 628 4666 
L 1925 4666 
Q 3281 4666 3915 4102 
Q 4550 3538 4550 2338 
Q 4550 1131 3912 565 
Q 3275 0 1925 0 
L 628 0 
L 628 4666 
z
" transform="scale(0.015625)"/>
       <path id="DejaVuSans-59" d="M -13 4666 
L 666 4666 
L 1959 2747 
L 3244 4666 
L 3922 4666 
L 2272 2222 
L 2272 0 
L 1638 0 
L 1638 2222 
L -13 4666 
z
" transform="scale(0.015625)"/>
       <path id="DejaVuSans-4e" d="M 628 4666 
L 1478 4666 
L 3547 763 
L 3547 4666 
L 4159 4666 
L 4159 0 
L 3309 0 
L 1241 3903 
L 1241 0 
L 628 0 
L 628 4666 
z
" transform="scale(0.015625)"/>
       <path id="DejaVuSans-41" d="M 2188 4044 
L 1331 1722 
L 3047 1722 
L 2188 4044 
z
M 1831 4666 
L 2547 4666 
L 4325 0 
L 3669 0 
L 3244 1197 
L 1141 1197 
L 716 0 
L 50 0 
L 1831 4666 
z
" transform="scale(0.015625)"/>
       <path id="DejaVuSans-54" d="M -19 4666 
L 3928 4666 
L 3928 4134 
L 2272 4134 
L 2272 0 
L 1638 0 
L 1638 4134 
L -19 4134 
L -19 4666 
z
" transform="scale(0.015625)"/>
      </defs>
      <use xlink:href="#DejaVuSans-4f"/>
      <use xlink:href="#DejaVuSans-4d" x="78.710938"/>
      <use xlink:href="#DejaVuSans-50" x="164.990234"/>
      <use xlink:href="#DejaVuSans-5f" x="225.292969"/>
      <use xlink:href="#DejaVuSans-44" x="275.292969"/>
      <use xlink:href="#DejaVuSans-59" x="346.794922"/>
      <use xlink:href="#DejaVuSans-4e" x="407.878906"/>
      <use xlink:href="#DejaVuSans-41" x="482.683594"/>
      <use xlink:href="#DejaVuSans-4d" x="551.091797"/>
      <use xlink:href="#DejaVuSans-49" x="637.371094"/>
      <use xlink:href="#DejaVuSans-43" x="666.863281"/>
      <use xlink:href="#DejaVuSans-5f" x="736.6875"/>
      <use xlink:href="#DejaVuSans-4e" x="786.6875"/>
      <use xlink:href="#DejaVuSans-4f" x="861.492188"/>
      <use xlink:href="#DejaVuSans-4e" x="940.203125"/>
      <use xlink:href="#DejaVuSans-4d" x="1015.007812"/>
      <use xlink:href="#DejaVuSans-4f" x="1101.287109"/>
      <use xlink:href="#DejaVuSans-4e" x="1179.998047"/>
      <use xlink:href="#DejaVuSans-4f" x="1254.802734"/>
      <use xlink:href="#DejaVuSans-54" x="1333.513672"/>
      <use xlink:href="#DejaVuSans-4f" x="1394.597656"/>
      <use xlink:href="#DejaVuSans-4e" x="1473.308594"/>
      <use xlink:href="#DejaVuSans-49" x="1548.113281"/>
      <use xlink:href="#DejaVuSans-43" x="1577.605469"/>
     </g>
    </g>
    <g id="line2d_30">
     <path d="M 126.50625 61.594687 
L 140.50625 61.594687 
L 154.50625 61.594687 
" style="fill: none; stroke: #ff0000; stroke-width: 1.5; stroke-linecap: square"/>
    </g>
    <g id="text_20">
     <!-- OMP_STATIC -->
     <g transform="translate(165.70625 66.494687) scale(0.14 -0.14)">
      <use xlink:href="#DejaVuSans-4f"/>
      <use xlink:href="#DejaVuSans-4d" x="78.710938"/>
      <use xlink:href="#DejaVuSans-50" x="164.990234"/>
      <use xlink:href="#DejaVuSans-5f" x="225.292969"/>
      <use xlink:href="#DejaVuSans-53" x="275.292969"/>
      <use xlink:href="#DejaVuSans-54" x="338.769531"/>
      <use xlink:href="#DejaVuSans-41" x="392.103516"/>
      <use xlink:href="#DejaVuSans-54" x="452.761719"/>
      <use xlink:href="#DejaVuSans-49" x="513.845703"/>
      <use xlink:href="#DejaVuSans-43" x="543.337891"/>
     </g>
    </g>
    <g id="line2d_31">
     <path d="M 126.50625 82.533437 
L 140.50625 82.533437 
L 154.50625 82.533437 
" style="fill: none; stroke: #00bfbf; stroke-width: 1.5; stroke-linecap: square"/>
    </g>
    <g id="text_21">
     <!-- OMP_GUIDED_NONMONOTONIC -->
     <g transform="translate(165.70625 87.433437) scale(0.14 -0.14)">
      <defs>
       <path id="DejaVuSans-47" d="M 3809 666 
L 3809 1919 
L 2778 1919 
L 2778 2438 
L 4434 2438 
L 4434 434 
Q 4069 175 3628 42 
Q 3188 -91 2688 -91 
Q 1594 -91 976 548 
Q 359 1188 359 2328 
Q 359 3472 976 4111 
Q 1594 4750 2688 4750 
Q 3144 4750 3555 4637 
Q 3966 4525 4313 4306 
L 4313 3634 
Q 3963 3931 3569 4081 
Q 3175 4231 2741 4231 
Q 1884 4231 1454 3753 
Q 1025 3275 1025 2328 
Q 1025 1384 1454 906 
Q 1884 428 2741 428 
Q 3075 428 3337 486 
Q 3600 544 3809 666 
z
" transform="scale(0.015625)"/>
       <path id="DejaVuSans-55" d="M 556 4666 
L 1191 4666 
L 1191 1831 
Q 1191 1081 1462 751 
Q 1734 422 2344 422 
Q 2950 422 3222 751 
Q 3494 1081 3494 1831 
L 3494 4666 
L 4128 4666 
L 4128 1753 
Q 4128 841 3676 375 
Q 3225 -91 2344 -91 
Q 1459 -91 1007 375 
Q 556 841 556 1753 
L 556 4666 
z
" transform="scale(0.015625)"/>
       <path id="DejaVuSans-45" d="M 628 4666 
L 3578 4666 
L 3578 4134 
L 1259 4134 
L 1259 2753 
L 3481 2753 
L 3481 2222 
L 1259 2222 
L 1259 531 
L 3634 531 
L 3634 0 
L 628 0 
L 628 4666 
z
" transform="scale(0.015625)"/>
      </defs>
      <use xlink:href="#DejaVuSans-4f"/>
      <use xlink:href="#DejaVuSans-4d" x="78.710938"/>
      <use xlink:href="#DejaVuSans-50" x="164.990234"/>
      <use xlink:href="#DejaVuSans-5f" x="225.292969"/>
      <use xlink:href="#DejaVuSans-47" x="275.292969"/>
      <use xlink:href="#DejaVuSans-55" x="352.783203"/>
      <use xlink:href="#DejaVuSans-49" x="425.976562"/>
      <use xlink:href="#DejaVuSans-44" x="455.46875"/>
      <use xlink:href="#DejaVuSans-45" x="532.470703"/>
      <use xlink:href="#DejaVuSans-44" x="595.654297"/>
      <use xlink:href="#DejaVuSans-5f" x="672.65625"/>
      <use xlink:href="#DejaVuSans-4e" x="722.65625"/>
      <use xlink:href="#DejaVuSans-4f" x="797.460938"/>
      <use xlink:href="#DejaVuSans-4e" x="876.171875"/>
      <use xlink:href="#DejaVuSans-4d" x="950.976562"/>
      <use xlink:href="#DejaVuSans-4f" x="1037.255859"/>
      <use xlink:href="#DejaVuSans-4e" x="1115.966797"/>
      <use xlink:href="#DejaVuSans-4f" x="1190.771484"/>
      <use xlink:href="#DejaVuSans-54" x="1269.482422"/>
      <use xlink:href="#DejaVuSans-4f" x="1330.566406"/>
      <use xlink:href="#DejaVuSans-4e" x="1409.277344"/>
      <use xlink:href="#DejaVuSans-49" x="1484.082031"/>
      <use xlink:href="#DejaVuSans-43" x="1513.574219"/>
     </g>
    </g>
    <g id="line2d_32">
     <path d="M 126.50625 103.472187 
L 140.50625 103.472187 
L 154.50625 103.472187 
" style="fill: none; stroke: #bf00bf; stroke-width: 1.5; stroke-linecap: square"/>
    </g>
    <g id="text_22">
     <!-- OMP_GUIDED_MONOTONIC -->
     <g transform="translate(165.70625 108.372187) scale(0.14 -0.14)">
      <use xlink:href="#DejaVuSans-4f"/>
      <use xlink:href="#DejaVuSans-4d" x="78.710938"/>
      <use xlink:href="#DejaVuSans-50" x="164.990234"/>
      <use xlink:href="#DejaVuSans-5f" x="225.292969"/>
      <use xlink:href="#DejaVuSans-47" x="275.292969"/>
      <use xlink:href="#DejaVuSans-55" x="352.783203"/>
      <use xlink:href="#DejaVuSans-49" x="425.976562"/>
      <use xlink:href="#DejaVuSans-44" x="455.46875"/>
      <use xlink:href="#DejaVuSans-45" x="532.470703"/>
      <use xlink:href="#DejaVuSans-44" x="595.654297"/>
      <use xlink:href="#DejaVuSans-5f" x="672.65625"/>
      <use xlink:href="#DejaVuSans-4d" x="722.65625"/>
      <use xlink:href="#DejaVuSans-4f" x="808.935547"/>
      <use xlink:href="#DejaVuSans-4e" x="887.646484"/>
      <use xlink:href="#DejaVuSans-4f" x="962.451172"/>
      <use xlink:href="#DejaVuSans-54" x="1041.162109"/>
      <use xlink:href="#DejaVuSans-4f" x="1102.246094"/>
      <use xlink:href="#DejaVuSans-4e" x="1180.957031"/>
      <use xlink:href="#DejaVuSans-49" x="1255.761719"/>
      <use xlink:href="#DejaVuSans-43" x="1285.253906"/>
     </g>
    </g>
    <g id="line2d_33">
     <path d="M 126.50625 124.410937 
L 140.50625 124.410937 
L 154.50625 124.410937 
" style="fill: none; stroke: #000000; stroke-width: 1.5; stroke-linecap: square"/>
    </g>
    <g id="text_23">
     <!-- TBB_AFFINITY -->
     <g transform="translate(165.70625 129.310937) scale(0.14 -0.14)">
      <defs>
       <path id="DejaVuSans-42" d="M 1259 2228 
L 1259 519 
L 2272 519 
Q 2781 519 3026 730 
Q 3272 941 3272 1375 
Q 3272 1813 3026 2020 
Q 2781 2228 2272 2228 
L 1259 2228 
z
M 1259 4147 
L 1259 2741 
L 2194 2741 
Q 2656 2741 2882 2914 
Q 3109 3088 3109 3444 
Q 3109 3797 2882 3972 
Q 2656 4147 2194 4147 
L 1259 4147 
z
M 628 4666 
L 2241 4666 
Q 2963 4666 3353 4366 
Q 3744 4066 3744 3513 
Q 3744 3084 3544 2831 
Q 3344 2578 2956 2516 
Q 3422 2416 3680 2098 
Q 3938 1781 3938 1306 
Q 3938 681 3513 340 
Q 3088 0 2303 0 
L 628 0 
L 628 4666 
z
" transform="scale(0.015625)"/>
       <path id="DejaVuSans-46" d="M 628 4666 
L 3309 4666 
L 3309 4134 
L 1259 4134 
L 1259 2759 
L 3109 2759 
L 3109 2228 
L 1259 2228 
L 1259 0 
L 628 0 
L 628 4666 
z
" transform="scale(0.015625)"/>
      </defs>
      <use xlink:href="#DejaVuSans-54"/>
      <use xlink:href="#DejaVuSans-42" x="61.083984"/>
      <use xlink:href="#DejaVuSans-42" x="129.6875"/>
      <use xlink:href="#DejaVuSans-5f" x="198.291016"/>
      <use xlink:href="#DejaVuSans-41" x="248.291016"/>
      <use xlink:href="#DejaVuSans-46" x="316.699219"/>
      <use xlink:href="#DejaVuSans-46" x="374.21875"/>
      <use xlink:href="#DejaVuSans-49" x="431.738281"/>
      <use xlink:href="#DejaVuSans-4e" x="461.230469"/>
      <use xlink:href="#DejaVuSans-49" x="536.035156"/>
      <use xlink:href="#DejaVuSans-54" x="565.527344"/>
      <use xlink:href="#DejaVuSans-59" x="626.611328"/>
     </g>
    </g>
    <g id="line2d_34">
     <path d="M 126.50625 145.349687 
L 140.50625 145.349687 
L 154.50625 145.349687 
" style="fill: none; stroke-dasharray: 5.55,2.4; stroke-dashoffset: 0; stroke: #0000ff; stroke-width: 1.5"/>
    </g>
    <g id="text_24">
     <!-- TBB_SIMPLE -->
     <g transform="translate(165.70625 150.249687) scale(0.14 -0.14)">
      <defs>
       <path id="DejaVuSans-4c" d="M 628 4666 
L 1259 4666 
L 1259 531 
L 3531 531 
L 3531 0 
L 628 0 
L 628 4666 
z
" transform="scale(0.015625)"/>
      </defs>
      <use xlink:href="#DejaVuSans-54"/>
      <use xlink:href="#DejaVuSans-42" x="61.083984"/>
      <use xlink:href="#DejaVuSans-42" x="129.6875"/>
      <use xlink:href="#DejaVuSans-5f" x="198.291016"/>
      <use xlink:href="#DejaVuSans-53" x="248.291016"/>
      <use xlink:href="#DejaVuSans-49" x="311.767578"/>
      <use xlink:href="#DejaVuSans-4d" x="341.259766"/>
      <use xlink:href="#DejaVuSans-50" x="427.539062"/>
      <use xlink:href="#DejaVuSans-4c" x="487.841797"/>
      <use xlink:href="#DejaVuSans-45" x="543.554688"/>
     </g>
    </g>
    <g id="line2d_35">
     <path d="M 126.50625 166.288437 
L 140.50625 166.288437 
L 154.50625 166.288437 
" style="fill: none; stroke-dasharray: 5.55,2.4; stroke-dashoffset: 0; stroke: #008000; stroke-width: 1.5"/>
    </g>
    <g id="text_25">
     <!-- TBB_AUTO -->
     <g transform="translate(165.70625 171.188437) scale(0.14 -0.14)">
      <use xlink:href="#DejaVuSans-54"/>
      <use xlink:href="#DejaVuSans-42" x="61.083984"/>
      <use xlink:href="#DejaVuSans-42" x="129.6875"/>
      <use xlink:href="#DejaVuSans-5f" x="198.291016"/>
      <use xlink:href="#DejaVuSans-41" x="248.291016"/>
      <use xlink:href="#DejaVuSans-55" x="316.699219"/>
      <use xlink:href="#DejaVuSans-54" x="389.892578"/>
      <use xlink:href="#DejaVuSans-4f" x="450.976562"/>
     </g>
    </g>
    <g id="line2d_36">
     <path d="M 126.50625 187.227187 
L 140.50625 187.227187 
L 154.50625 187.227187 
" style="fill: none; stroke-dasharray: 5.55,2.4; stroke-dashoffset: 0; stroke: #ff0000; stroke-width: 1.5"/>
    </g>
    <g id="text_26">
     <!-- TBB_CONST_AFFINITY -->
     <g transform="translate(165.70625 192.127187) scale(0.14 -0.14)">
      <use xlink:href="#DejaVuSans-54"/>
      <use xlink:href="#DejaVuSans-42" x="61.083984"/>
      <use xlink:href="#DejaVuSans-42" x="129.6875"/>
      <use xlink:href="#DejaVuSans-5f" x="198.291016"/>
      <use xlink:href="#DejaVuSans-43" x="248.291016"/>
      <use xlink:href="#DejaVuSans-4f" x="318.115234"/>
      <use xlink:href="#DejaVuSans-4e" x="396.826172"/>
      <use xlink:href="#DejaVuSans-53" x="471.630859"/>
      <use xlink:href="#DejaVuSans-54" x="535.107422"/>
      <use xlink:href="#DejaVuSans-5f" x="596.191406"/>
      <use xlink:href="#DejaVuSans-41" x="646.191406"/>
      <use xlink:href="#DejaVuSans-46" x="714.599609"/>
      <use xlink:href="#DejaVuSans-46" x="772.119141"/>
      <use xlink:href="#DejaVuSans-49" x="829.638672"/>
      <use xlink:href="#DejaVuSans-4e" x="859.130859"/>
      <use xlink:href="#DejaVuSans-49" x="933.935547"/>
      <use xlink:href="#DejaVuSans-54" x="963.427734"/>
      <use xlink:href="#DejaVuSans-59" x="1024.511719"/>
     </g>
    </g>
    <g id="line2d_37">
     <path d="M 126.50625 208.165937 
L 140.50625 208.165937 
L 154.50625 208.165937 
" style="fill: none; stroke-dasharray: 5.55,2.4; stroke-dashoffset: 0; stroke: #00bfbf; stroke-width: 1.5"/>
    </g>
    <g id="text_27">
     <!-- EIGEN_TIMESPAN -->
     <g transform="translate(165.70625 213.065937) scale(0.14 -0.14)">
      <use xlink:href="#DejaVuSans-45"/>
      <use xlink:href="#DejaVuSans-49" x="63.183594"/>
      <use xlink:href="#DejaVuSans-47" x="92.675781"/>
      <use xlink:href="#DejaVuSans-45" x="170.166016"/>
      <use xlink:href="#DejaVuSans-4e" x="233.349609"/>
      <use xlink:href="#DejaVuSans-5f" x="308.154297"/>
      <use xlink:href="#DejaVuSans-54" x="358.154297"/>
      <use xlink:href="#DejaVuSans-49" x="419.238281"/>
      <use xlink:href="#DejaVuSans-4d" x="448.730469"/>
      <use xlink:href="#DejaVuSans-45" x="535.009766"/>
      <use xlink:href="#DejaVuSans-53" x="598.193359"/>
      <use xlink:href="#DejaVuSans-50" x="661.669922"/>
      <use xlink:href="#DejaVuSans-41" x="715.597656"/>
      <use xlink:href="#DejaVuSans-4e" x="784.005859"/>
     </g>
    </g>
    <g id="line2d_38">
     <path d="M 126.50625 229.104687 
L 140.50625 229.104687 
L 154.50625 229.104687 
" style="fill: none; stroke-dasharray: 5.55,2.4; stroke-dashoffset: 0; stroke: #bf00bf; stroke-width: 1.5"/>
    </g>
    <g id="text_28">
     <!-- OMP_DYNAMIC_MONOTONIC -->
     <g transform="translate(165.70625 234.004687) scale(0.14 -0.14)">
      <use xlink:href="#DejaVuSans-4f"/>
      <use xlink:href="#DejaVuSans-4d" x="78.710938"/>
      <use xlink:href="#DejaVuSans-50" x="164.990234"/>
      <use xlink:href="#DejaVuSans-5f" x="225.292969"/>
      <use xlink:href="#DejaVuSans-44" x="275.292969"/>
      <use xlink:href="#DejaVuSans-59" x="346.794922"/>
      <use xlink:href="#DejaVuSans-4e" x="407.878906"/>
      <use xlink:href="#DejaVuSans-41" x="482.683594"/>
      <use xlink:href="#DejaVuSans-4d" x="551.091797"/>
      <use xlink:href="#DejaVuSans-49" x="637.371094"/>
      <use xlink:href="#DejaVuSans-43" x="666.863281"/>
      <use xlink:href="#DejaVuSans-5f" x="736.6875"/>
      <use xlink:href="#DejaVuSans-4d" x="786.6875"/>
      <use xlink:href="#DejaVuSans-4f" x="872.966797"/>
      <use xlink:href="#DejaVuSans-4e" x="951.677734"/>
      <use xlink:href="#DejaVuSans-4f" x="1026.482422"/>
      <use xlink:href="#DejaVuSans-54" x="1105.193359"/>
      <use xlink:href="#DejaVuSans-4f" x="1166.277344"/>
      <use xlink:href="#DejaVuSans-4e" x="1244.988281"/>
      <use xlink:href="#DejaVuSans-49" x="1319.792969"/>
      <use xlink:href="#DejaVuSans-43" x="1349.285156"/>
     </g>
    </g>
    <g id="line2d_39">
     <path d="M 126.50625 250.043437 
L 140.50625 250.043437 
L 154.50625 250.043437 
" style="fill: none; stroke-dasharray: 5.55,2.4; stroke-dashoffset: 0; stroke: #000000; stroke-width: 1.5"/>
    </g>
    <g id="text_29">
     <!-- EIGEN_STATIC -->
     <g transform="translate(165.70625 254.943437) scale(0.14 -0.14)">
      <use xlink:href="#DejaVuSans-45"/>
      <use xlink:href="#DejaVuSans-49" x="63.183594"/>
      <use xlink:href="#DejaVuSans-47" x="92.675781"/>
      <use xlink:href="#DejaVuSans-45" x="170.166016"/>
      <use xlink:href="#DejaVuSans-4e" x="233.349609"/>
      <use xlink:href="#DejaVuSans-5f" x="308.154297"/>
      <use xlink:href="#DejaVuSans-53" x="358.154297"/>
      <use xlink:href="#DejaVuSans-54" x="421.630859"/>
      <use xlink:href="#DejaVuSans-41" x="474.964844"/>
      <use xlink:href="#DejaVuSans-54" x="535.623047"/>
      <use xlink:href="#DejaVuSans-49" x="596.707031"/>
      <use xlink:href="#DejaVuSans-43" x="626.199219"/>
     </g>
    </g>
    <g id="line2d_40">
     <path d="M 126.50625 270.982188 
L 140.50625 270.982188 
L 154.50625 270.982188 
" style="fill: none; stroke-dasharray: 9.6,2.4,1.5,2.4; stroke-dashoffset: 0; stroke: #0000ff; stroke-width: 1.5"/>
    </g>
    <g id="text_30">
     <!-- EIGEN_TIMESPAN_GRAINSIZE -->
     <g transform="translate(165.70625 275.882187) scale(0.14 -0.14)">
      <defs>
       <path id="DejaVuSans-52" d="M 2841 2188 
Q 3044 2119 3236 1894 
Q 3428 1669 3622 1275 
L 4263 0 
L 3584 0 
L 2988 1197 
Q 2756 1666 2539 1819 
Q 2322 1972 1947 1972 
L 1259 1972 
L 1259 0 
L 628 0 
L 628 4666 
L 2053 4666 
Q 2853 4666 3247 4331 
Q 3641 3997 3641 3322 
Q 3641 2881 3436 2590 
Q 3231 2300 2841 2188 
z
M 1259 4147 
L 1259 2491 
L 2053 2491 
Q 2509 2491 2742 2702 
Q 2975 2913 2975 3322 
Q 2975 3731 2742 3939 
Q 2509 4147 2053 4147 
L 1259 4147 
z
" transform="scale(0.015625)"/>
       <path id="DejaVuSans-5a" d="M 359 4666 
L 4025 4666 
L 4025 4184 
L 1075 531 
L 4097 531 
L 4097 0 
L 288 0 
L 288 481 
L 3238 4134 
L 359 4134 
L 359 4666 
z
" transform="scale(0.015625)"/>
      </defs>
      <use xlink:href="#DejaVuSans-45"/>
      <use xlink:href="#DejaVuSans-49" x="63.183594"/>
      <use xlink:href="#DejaVuSans-47" x="92.675781"/>
      <use xlink:href="#DejaVuSans-45" x="170.166016"/>
      <use xlink:href="#DejaVuSans-4e" x="233.349609"/>
      <use xlink:href="#DejaVuSans-5f" x="308.154297"/>
      <use xlink:href="#DejaVuSans-54" x="358.154297"/>
      <use xlink:href="#DejaVuSans-49" x="419.238281"/>
      <use xlink:href="#DejaVuSans-4d" x="448.730469"/>
      <use xlink:href="#DejaVuSans-45" x="535.009766"/>
      <use xlink:href="#DejaVuSans-53" x="598.193359"/>
      <use xlink:href="#DejaVuSans-50" x="661.669922"/>
      <use xlink:href="#DejaVuSans-41" x="715.597656"/>
      <use xlink:href="#DejaVuSans-4e" x="784.005859"/>
      <use xlink:href="#DejaVuSans-5f" x="858.810547"/>
      <use xlink:href="#DejaVuSans-47" x="908.810547"/>
      <use xlink:href="#DejaVuSans-52" x="986.300781"/>
      <use xlink:href="#DejaVuSans-41" x="1051.783203"/>
      <use xlink:href="#DejaVuSans-49" x="1120.191406"/>
      <use xlink:href="#DejaVuSans-4e" x="1149.683594"/>
      <use xlink:href="#DejaVuSans-53" x="1224.488281"/>
      <use xlink:href="#DejaVuSans-49" x="1287.964844"/>
      <use xlink:href="#DejaVuSans-5a" x="1317.457031"/>
      <use xlink:href="#DejaVuSans-45" x="1385.962891"/>
     </g>
    </g>
    <g id="line2d_41">
     <path d="M 126.50625 291.920937 
L 140.50625 291.920937 
L 154.50625 291.920937 
" style="fill: none; stroke-dasharray: 9.6,2.4,1.5,2.4; stroke-dashoffset: 0; stroke: #008000; stroke-width: 1.5"/>
    </g>
    <g id="text_31">
     <!-- EIGEN_SIMPLE -->
     <g transform="translate(165.70625 296.820937) scale(0.14 -0.14)">
      <use xlink:href="#DejaVuSans-45"/>
      <use xlink:href="#DejaVuSans-49" x="63.183594"/>
      <use xlink:href="#DejaVuSans-47" x="92.675781"/>
      <use xlink:href="#DejaVuSans-45" x="170.166016"/>
      <use xlink:href="#DejaVuSans-4e" x="233.349609"/>
      <use xlink:href="#DejaVuSans-5f" x="308.154297"/>
      <use xlink:href="#DejaVuSans-53" x="358.154297"/>
      <use xlink:href="#DejaVuSans-49" x="421.630859"/>
      <use xlink:href="#DejaVuSans-4d" x="451.123047"/>
      <use xlink:href="#DejaVuSans-50" x="537.402344"/>
      <use xlink:href="#DejaVuSans-4c" x="597.705078"/>
      <use xlink:href="#DejaVuSans-45" x="653.417969"/>
     </g>
    </g>
   </g>
  </g>
 </g>
 <defs>
  <clipPath id="p347b55dd93">
   <rect x="113.90625" y="22.318125" width="1004.4" height="332.64"/>
  </clipPath>
 </defs>
</svg>
