<?xml version="1.0" encoding="utf-8" standalone="no"?>
<!DOCTYPE svg PUBLIC "-//W3C//DTD SVG 1.1//EN"
  "http://www.w3.org/Graphics/SVG/1.1/DTD/svg11.dtd">
<svg xmlns:xlink="http://www.w3.org/1999/xlink" width="1112.78125pt" height="411.870625pt" viewBox="0 0 1112.78125 411.870625" xmlns="http://www.w3.org/2000/svg" version="1.1">
 <metadata>
  <rdf:RDF xmlns:dc="http://purl.org/dc/elements/1.1/" xmlns:cc="http://creativecommons.org/ns#" xmlns:rdf="http://www.w3.org/1999/02/22-rdf-syntax-ns#">
   <cc:Work>
    <dc:type rdf:resource="http://purl.org/dc/dcmitype/StillImage"/>
    <dc:date>2023-04-08T21:33:10.003776</dc:date>
    <dc:format>image/svg+xml</dc:format>
    <dc:creator>
     <cc:Agent>
      <dc:title>Matplotlib v3.6.2, https://matplotlib.org/</dc:title>
     </cc:Agent>
    </dc:creator>
   </cc:Work>
  </rdf:RDF>
 </metadata>
 <defs>
  <style type="text/css">*{stroke-linejoin: round; stroke-linecap: butt}</style>
 </defs>
 <g id="figure_1">
  <g id="patch_1">
   <path d="M 0 411.870625 
L 1112.78125 411.870625 
L 1112.78125 0 
L 0 0 
z
" style="fill: #ffffff"/>
  </g>
  <g id="axes_1">
   <g id="patch_2">
    <path d="M 101.18125 354.958125 
L 1105.58125 354.958125 
L 1105.58125 22.318125 
L 101.18125 22.318125 
z
" style="fill: #ffffff"/>
   </g>
   <g id="matplotlib.axis_1">
    <g id="xtick_1">
     <g id="line2d_1">
      <defs>
       <path id="m026a7dd865" d="M 0 0 
L 0 3.5 
" style="stroke: #000000; stroke-width: 0.8"/>
      </defs>
      <g>
       <use xlink:href="#m026a7dd865" x="146.835795" y="354.958125" style="stroke: #000000; stroke-width: 0.8"/>
      </g>
     </g>
     <g id="text_1">
      <!-- 0 -->
      <g transform="translate(140.473295 377.155) scale(0.2 -0.2)">
       <defs>
        <path id="DejaVuSans-30" d="M 2034 4250 
Q 1547 4250 1301 3770 
Q 1056 3291 1056 2328 
Q 1056 1369 1301 889 
Q 1547 409 2034 409 
Q 2525 409 2770 889 
Q 3016 1369 3016 2328 
Q 3016 3291 2770 3770 
Q 2525 4250 2034 4250 
z
M 2034 4750 
Q 2819 4750 3233 4129 
Q 3647 3509 3647 2328 
Q 3647 1150 3233 529 
Q 2819 -91 2034 -91 
Q 1250 -91 836 529 
Q 422 1150 422 2328 
Q 422 3509 836 4129 
Q 1250 4750 2034 4750 
z
" transform="scale(0.015625)"/>
       </defs>
       <use xlink:href="#DejaVuSans-30"/>
      </g>
     </g>
    </g>
    <g id="xtick_2">
     <g id="line2d_2">
      <g>
       <use xlink:href="#m026a7dd865" x="339.065461" y="354.958125" style="stroke: #000000; stroke-width: 0.8"/>
      </g>
     </g>
     <g id="text_2">
      <!-- 20 -->
      <g transform="translate(326.340461 377.155) scale(0.2 -0.2)">
       <defs>
        <path id="DejaVuSans-32" d="M 1228 531 
L 3431 531 
L 3431 0 
L 469 0 
L 469 531 
Q 828 903 1448 1529 
Q 2069 2156 2228 2338 
Q 2531 2678 2651 2914 
Q 2772 3150 2772 3378 
Q 2772 3750 2511 3984 
Q 2250 4219 1831 4219 
Q 1534 4219 1204 4116 
Q 875 4013 500 3803 
L 500 4441 
Q 881 4594 1212 4672 
Q 1544 4750 1819 4750 
Q 2544 4750 2975 4387 
Q 3406 4025 3406 3419 
Q 3406 3131 3298 2873 
Q 3191 2616 2906 2266 
Q 2828 2175 2409 1742 
Q 1991 1309 1228 531 
z
" transform="scale(0.015625)"/>
       </defs>
       <use xlink:href="#DejaVuSans-32"/>
       <use xlink:href="#DejaVuSans-30" x="63.623047"/>
      </g>
     </g>
    </g>
    <g id="xtick_3">
     <g id="line2d_3">
      <g>
       <use xlink:href="#m026a7dd865" x="531.295126" y="354.958125" style="stroke: #000000; stroke-width: 0.8"/>
      </g>
     </g>
     <g id="text_3">
      <!-- 40 -->
      <g transform="translate(518.570126 377.155) scale(0.2 -0.2)">
       <defs>
        <path id="DejaVuSans-34" d="M 2419 4116 
L 825 1625 
L 2419 1625 
L 2419 4116 
z
M 2253 4666 
L 3047 4666 
L 3047 1625 
L 3713 1625 
L 3713 1100 
L 3047 1100 
L 3047 0 
L 2419 0 
L 2419 1100 
L 313 1100 
L 313 1709 
L 2253 4666 
z
" transform="scale(0.015625)"/>
       </defs>
       <use xlink:href="#DejaVuSans-34"/>
       <use xlink:href="#DejaVuSans-30" x="63.623047"/>
      </g>
     </g>
    </g>
    <g id="xtick_4">
     <g id="line2d_4">
      <g>
       <use xlink:href="#m026a7dd865" x="723.524791" y="354.958125" style="stroke: #000000; stroke-width: 0.8"/>
      </g>
     </g>
     <g id="text_4">
      <!-- 60 -->
      <g transform="translate(710.799791 377.155) scale(0.2 -0.2)">
       <defs>
        <path id="DejaVuSans-36" d="M 2113 2584 
Q 1688 2584 1439 2293 
Q 1191 2003 1191 1497 
Q 1191 994 1439 701 
Q 1688 409 2113 409 
Q 2538 409 2786 701 
Q 3034 994 3034 1497 
Q 3034 2003 2786 2293 
Q 2538 2584 2113 2584 
z
M 3366 4563 
L 3366 3988 
Q 3128 4100 2886 4159 
Q 2644 4219 2406 4219 
Q 1781 4219 1451 3797 
Q 1122 3375 1075 2522 
Q 1259 2794 1537 2939 
Q 1816 3084 2150 3084 
Q 2853 3084 3261 2657 
Q 3669 2231 3669 1497 
Q 3669 778 3244 343 
Q 2819 -91 2113 -91 
Q 1303 -91 875 529 
Q 447 1150 447 2328 
Q 447 3434 972 4092 
Q 1497 4750 2381 4750 
Q 2619 4750 2861 4703 
Q 3103 4656 3366 4563 
z
" transform="scale(0.015625)"/>
       </defs>
       <use xlink:href="#DejaVuSans-36"/>
       <use xlink:href="#DejaVuSans-30" x="63.623047"/>
      </g>
     </g>
    </g>
    <g id="xtick_5">
     <g id="line2d_5">
      <g>
       <use xlink:href="#m026a7dd865" x="915.754456" y="354.958125" style="stroke: #000000; stroke-width: 0.8"/>
      </g>
     </g>
     <g id="text_5">
      <!-- 80 -->
      <g transform="translate(903.029456 377.155) scale(0.2 -0.2)">
       <defs>
        <path id="DejaVuSans-38" d="M 2034 2216 
Q 1584 2216 1326 1975 
Q 1069 1734 1069 1313 
Q 1069 891 1326 650 
Q 1584 409 2034 409 
Q 2484 409 2743 651 
Q 3003 894 3003 1313 
Q 3003 1734 2745 1975 
Q 2488 2216 2034 2216 
z
M 1403 2484 
Q 997 2584 770 2862 
Q 544 3141 544 3541 
Q 544 4100 942 4425 
Q 1341 4750 2034 4750 
Q 2731 4750 3128 4425 
Q 3525 4100 3525 3541 
Q 3525 3141 3298 2862 
Q 3072 2584 2669 2484 
Q 3125 2378 3379 2068 
Q 3634 1759 3634 1313 
Q 3634 634 3220 271 
Q 2806 -91 2034 -91 
Q 1263 -91 848 271 
Q 434 634 434 1313 
Q 434 1759 690 2068 
Q 947 2378 1403 2484 
z
M 1172 3481 
Q 1172 3119 1398 2916 
Q 1625 2713 2034 2713 
Q 2441 2713 2670 2916 
Q 2900 3119 2900 3481 
Q 2900 3844 2670 4047 
Q 2441 4250 2034 4250 
Q 1625 4250 1398 4047 
Q 1172 3844 1172 3481 
z
" transform="scale(0.015625)"/>
       </defs>
       <use xlink:href="#DejaVuSans-38"/>
       <use xlink:href="#DejaVuSans-30" x="63.623047"/>
      </g>
     </g>
    </g>
    <g id="text_6">
     <!-- Index of thread (sorted by time of first task) -->
     <g transform="translate(383.260938 400.51125) scale(0.2 -0.2)">
      <defs>
       <path id="DejaVuSans-49" d="M 628 4666 
L 1259 4666 
L 1259 0 
L 628 0 
L 628 4666 
z
" transform="scale(0.015625)"/>
       <path id="DejaVuSans-6e" d="M 3513 2113 
L 3513 0 
L 2938 0 
L 2938 2094 
Q 2938 2591 2744 2837 
Q 2550 3084 2163 3084 
Q 1697 3084 1428 2787 
Q 1159 2491 1159 1978 
L 1159 0 
L 581 0 
L 581 3500 
L 1159 3500 
L 1159 2956 
Q 1366 3272 1645 3428 
Q 1925 3584 2291 3584 
Q 2894 3584 3203 3211 
Q 3513 2838 3513 2113 
z
" transform="scale(0.015625)"/>
       <path id="DejaVuSans-64" d="M 2906 2969 
L 2906 4863 
L 3481 4863 
L 3481 0 
L 2906 0 
L 2906 525 
Q 2725 213 2448 61 
Q 2172 -91 1784 -91 
Q 1150 -91 751 415 
Q 353 922 353 1747 
Q 353 2572 751 3078 
Q 1150 3584 1784 3584 
Q 2172 3584 2448 3432 
Q 2725 3281 2906 2969 
z
M 947 1747 
Q 947 1113 1208 752 
Q 1469 391 1925 391 
Q 2381 391 2643 752 
Q 2906 1113 2906 1747 
Q 2906 2381 2643 2742 
Q 2381 3103 1925 3103 
Q 1469 3103 1208 2742 
Q 947 2381 947 1747 
z
" transform="scale(0.015625)"/>
       <path id="DejaVuSans-65" d="M 3597 1894 
L 3597 1613 
L 953 1613 
Q 991 1019 1311 708 
Q 1631 397 2203 397 
Q 2534 397 2845 478 
Q 3156 559 3463 722 
L 3463 178 
Q 3153 47 2828 -22 
Q 2503 -91 2169 -91 
Q 1331 -91 842 396 
Q 353 884 353 1716 
Q 353 2575 817 3079 
Q 1281 3584 2069 3584 
Q 2775 3584 3186 3129 
Q 3597 2675 3597 1894 
z
M 3022 2063 
Q 3016 2534 2758 2815 
Q 2500 3097 2075 3097 
Q 1594 3097 1305 2825 
Q 1016 2553 972 2059 
L 3022 2063 
z
" transform="scale(0.015625)"/>
       <path id="DejaVuSans-78" d="M 3513 3500 
L 2247 1797 
L 3578 0 
L 2900 0 
L 1881 1375 
L 863 0 
L 184 0 
L 1544 1831 
L 300 3500 
L 978 3500 
L 1906 2253 
L 2834 3500 
L 3513 3500 
z
" transform="scale(0.015625)"/>
       <path id="DejaVuSans-20" transform="scale(0.015625)"/>
       <path id="DejaVuSans-6f" d="M 1959 3097 
Q 1497 3097 1228 2736 
Q 959 2375 959 1747 
Q 959 1119 1226 758 
Q 1494 397 1959 397 
Q 2419 397 2687 759 
Q 2956 1122 2956 1747 
Q 2956 2369 2687 2733 
Q 2419 3097 1959 3097 
z
M 1959 3584 
Q 2709 3584 3137 3096 
Q 3566 2609 3566 1747 
Q 3566 888 3137 398 
Q 2709 -91 1959 -91 
Q 1206 -91 779 398 
Q 353 888 353 1747 
Q 353 2609 779 3096 
Q 1206 3584 1959 3584 
z
" transform="scale(0.015625)"/>
       <path id="DejaVuSans-66" d="M 2375 4863 
L 2375 4384 
L 1825 4384 
Q 1516 4384 1395 4259 
Q 1275 4134 1275 3809 
L 1275 3500 
L 2222 3500 
L 2222 3053 
L 1275 3053 
L 1275 0 
L 697 0 
L 697 3053 
L 147 3053 
L 147 3500 
L 697 3500 
L 697 3744 
Q 697 4328 969 4595 
Q 1241 4863 1831 4863 
L 2375 4863 
z
" transform="scale(0.015625)"/>
       <path id="DejaVuSans-74" d="M 1172 4494 
L 1172 3500 
L 2356 3500 
L 2356 3053 
L 1172 3053 
L 1172 1153 
Q 1172 725 1289 603 
Q 1406 481 1766 481 
L 2356 481 
L 2356 0 
L 1766 0 
Q 1100 0 847 248 
Q 594 497 594 1153 
L 594 3053 
L 172 3053 
L 172 3500 
L 594 3500 
L 594 4494 
L 1172 4494 
z
" transform="scale(0.015625)"/>
       <path id="DejaVuSans-68" d="M 3513 2113 
L 3513 0 
L 2938 0 
L 2938 2094 
Q 2938 2591 2744 2837 
Q 2550 3084 2163 3084 
Q 1697 3084 1428 2787 
Q 1159 2491 1159 1978 
L 1159 0 
L 581 0 
L 581 4863 
L 1159 4863 
L 1159 2956 
Q 1366 3272 1645 3428 
Q 1925 3584 2291 3584 
Q 2894 3584 3203 3211 
Q 3513 2838 3513 2113 
z
" transform="scale(0.015625)"/>
       <path id="DejaVuSans-72" d="M 2631 2963 
Q 2534 3019 2420 3045 
Q 2306 3072 2169 3072 
Q 1681 3072 1420 2755 
Q 1159 2438 1159 1844 
L 1159 0 
L 581 0 
L 581 3500 
L 1159 3500 
L 1159 2956 
Q 1341 3275 1631 3429 
Q 1922 3584 2338 3584 
Q 2397 3584 2469 3576 
Q 2541 3569 2628 3553 
L 2631 2963 
z
" transform="scale(0.015625)"/>
       <path id="DejaVuSans-61" d="M 2194 1759 
Q 1497 1759 1228 1600 
Q 959 1441 959 1056 
Q 959 750 1161 570 
Q 1363 391 1709 391 
Q 2188 391 2477 730 
Q 2766 1069 2766 1631 
L 2766 1759 
L 2194 1759 
z
M 3341 1997 
L 3341 0 
L 2766 0 
L 2766 531 
Q 2569 213 2275 61 
Q 1981 -91 1556 -91 
Q 1019 -91 701 211 
Q 384 513 384 1019 
Q 384 1609 779 1909 
Q 1175 2209 1959 2209 
L 2766 2209 
L 2766 2266 
Q 2766 2663 2505 2880 
Q 2244 3097 1772 3097 
Q 1472 3097 1187 3025 
Q 903 2953 641 2809 
L 641 3341 
Q 956 3463 1253 3523 
Q 1550 3584 1831 3584 
Q 2591 3584 2966 3190 
Q 3341 2797 3341 1997 
z
" transform="scale(0.015625)"/>
       <path id="DejaVuSans-28" d="M 1984 4856 
Q 1566 4138 1362 3434 
Q 1159 2731 1159 2009 
Q 1159 1288 1364 580 
Q 1569 -128 1984 -844 
L 1484 -844 
Q 1016 -109 783 600 
Q 550 1309 550 2009 
Q 550 2706 781 3412 
Q 1013 4119 1484 4856 
L 1984 4856 
z
" transform="scale(0.015625)"/>
       <path id="DejaVuSans-73" d="M 2834 3397 
L 2834 2853 
Q 2591 2978 2328 3040 
Q 2066 3103 1784 3103 
Q 1356 3103 1142 2972 
Q 928 2841 928 2578 
Q 928 2378 1081 2264 
Q 1234 2150 1697 2047 
L 1894 2003 
Q 2506 1872 2764 1633 
Q 3022 1394 3022 966 
Q 3022 478 2636 193 
Q 2250 -91 1575 -91 
Q 1294 -91 989 -36 
Q 684 19 347 128 
L 347 722 
Q 666 556 975 473 
Q 1284 391 1588 391 
Q 1994 391 2212 530 
Q 2431 669 2431 922 
Q 2431 1156 2273 1281 
Q 2116 1406 1581 1522 
L 1381 1569 
Q 847 1681 609 1914 
Q 372 2147 372 2553 
Q 372 3047 722 3315 
Q 1072 3584 1716 3584 
Q 2034 3584 2315 3537 
Q 2597 3491 2834 3397 
z
" transform="scale(0.015625)"/>
       <path id="DejaVuSans-62" d="M 3116 1747 
Q 3116 2381 2855 2742 
Q 2594 3103 2138 3103 
Q 1681 3103 1420 2742 
Q 1159 2381 1159 1747 
Q 1159 1113 1420 752 
Q 1681 391 2138 391 
Q 2594 391 2855 752 
Q 3116 1113 3116 1747 
z
M 1159 2969 
Q 1341 3281 1617 3432 
Q 1894 3584 2278 3584 
Q 2916 3584 3314 3078 
Q 3713 2572 3713 1747 
Q 3713 922 3314 415 
Q 2916 -91 2278 -91 
Q 1894 -91 1617 61 
Q 1341 213 1159 525 
L 1159 0 
L 581 0 
L 581 4863 
L 1159 4863 
L 1159 2969 
z
" transform="scale(0.015625)"/>
       <path id="DejaVuSans-79" d="M 2059 -325 
Q 1816 -950 1584 -1140 
Q 1353 -1331 966 -1331 
L 506 -1331 
L 506 -850 
L 844 -850 
Q 1081 -850 1212 -737 
Q 1344 -625 1503 -206 
L 1606 56 
L 191 3500 
L 800 3500 
L 1894 763 
L 2988 3500 
L 3597 3500 
L 2059 -325 
z
" transform="scale(0.015625)"/>
       <path id="DejaVuSans-69" d="M 603 3500 
L 1178 3500 
L 1178 0 
L 603 0 
L 603 3500 
z
M 603 4863 
L 1178 4863 
L 1178 4134 
L 603 4134 
L 603 4863 
z
" transform="scale(0.015625)"/>
       <path id="DejaVuSans-6d" d="M 3328 2828 
Q 3544 3216 3844 3400 
Q 4144 3584 4550 3584 
Q 5097 3584 5394 3201 
Q 5691 2819 5691 2113 
L 5691 0 
L 5113 0 
L 5113 2094 
Q 5113 2597 4934 2840 
Q 4756 3084 4391 3084 
Q 3944 3084 3684 2787 
Q 3425 2491 3425 1978 
L 3425 0 
L 2847 0 
L 2847 2094 
Q 2847 2600 2669 2842 
Q 2491 3084 2119 3084 
Q 1678 3084 1418 2786 
Q 1159 2488 1159 1978 
L 1159 0 
L 581 0 
L 581 3500 
L 1159 3500 
L 1159 2956 
Q 1356 3278 1631 3431 
Q 1906 3584 2284 3584 
Q 2666 3584 2933 3390 
Q 3200 3197 3328 2828 
z
" transform="scale(0.015625)"/>
       <path id="DejaVuSans-6b" d="M 581 4863 
L 1159 4863 
L 1159 1991 
L 2875 3500 
L 3609 3500 
L 1753 1863 
L 3688 0 
L 2938 0 
L 1159 1709 
L 1159 0 
L 581 0 
L 581 4863 
z
" transform="scale(0.015625)"/>
       <path id="DejaVuSans-29" d="M 513 4856 
L 1013 4856 
Q 1481 4119 1714 3412 
Q 1947 2706 1947 2009 
Q 1947 1309 1714 600 
Q 1481 -109 1013 -844 
L 513 -844 
Q 928 -128 1133 580 
Q 1338 1288 1338 2009 
Q 1338 2731 1133 3434 
Q 928 4138 513 4856 
z
" transform="scale(0.015625)"/>
      </defs>
      <use xlink:href="#DejaVuSans-49"/>
      <use xlink:href="#DejaVuSans-6e" x="29.492188"/>
      <use xlink:href="#DejaVuSans-64" x="92.871094"/>
      <use xlink:href="#DejaVuSans-65" x="156.347656"/>
      <use xlink:href="#DejaVuSans-78" x="216.121094"/>
      <use xlink:href="#DejaVuSans-20" x="275.300781"/>
      <use xlink:href="#DejaVuSans-6f" x="307.087891"/>
      <use xlink:href="#DejaVuSans-66" x="368.269531"/>
      <use xlink:href="#DejaVuSans-20" x="403.474609"/>
      <use xlink:href="#DejaVuSans-74" x="435.261719"/>
      <use xlink:href="#DejaVuSans-68" x="474.470703"/>
      <use xlink:href="#DejaVuSans-72" x="537.849609"/>
      <use xlink:href="#DejaVuSans-65" x="576.712891"/>
      <use xlink:href="#DejaVuSans-61" x="638.236328"/>
      <use xlink:href="#DejaVuSans-64" x="699.515625"/>
      <use xlink:href="#DejaVuSans-20" x="762.992188"/>
      <use xlink:href="#DejaVuSans-28" x="794.779297"/>
      <use xlink:href="#DejaVuSans-73" x="833.792969"/>
      <use xlink:href="#DejaVuSans-6f" x="885.892578"/>
      <use xlink:href="#DejaVuSans-72" x="947.074219"/>
      <use xlink:href="#DejaVuSans-74" x="988.1875"/>
      <use xlink:href="#DejaVuSans-65" x="1027.396484"/>
      <use xlink:href="#DejaVuSans-64" x="1088.919922"/>
      <use xlink:href="#DejaVuSans-20" x="1152.396484"/>
      <use xlink:href="#DejaVuSans-62" x="1184.183594"/>
      <use xlink:href="#DejaVuSans-79" x="1247.660156"/>
      <use xlink:href="#DejaVuSans-20" x="1306.839844"/>
      <use xlink:href="#DejaVuSans-74" x="1338.626953"/>
      <use xlink:href="#DejaVuSans-69" x="1377.835938"/>
      <use xlink:href="#DejaVuSans-6d" x="1405.619141"/>
      <use xlink:href="#DejaVuSans-65" x="1503.03125"/>
      <use xlink:href="#DejaVuSans-20" x="1564.554688"/>
      <use xlink:href="#DejaVuSans-6f" x="1596.341797"/>
      <use xlink:href="#DejaVuSans-66" x="1657.523438"/>
      <use xlink:href="#DejaVuSans-20" x="1692.728516"/>
      <use xlink:href="#DejaVuSans-66" x="1724.515625"/>
      <use xlink:href="#DejaVuSans-69" x="1759.720703"/>
      <use xlink:href="#DejaVuSans-72" x="1787.503906"/>
      <use xlink:href="#DejaVuSans-73" x="1828.617188"/>
      <use xlink:href="#DejaVuSans-74" x="1880.716797"/>
      <use xlink:href="#DejaVuSans-20" x="1919.925781"/>
      <use xlink:href="#DejaVuSans-74" x="1951.712891"/>
      <use xlink:href="#DejaVuSans-61" x="1990.921875"/>
      <use xlink:href="#DejaVuSans-73" x="2052.201172"/>
      <use xlink:href="#DejaVuSans-6b" x="2104.300781"/>
      <use xlink:href="#DejaVuSans-29" x="2162.210938"/>
     </g>
    </g>
   </g>
   <g id="matplotlib.axis_2">
    <g id="ytick_1">
     <g id="line2d_6">
      <defs>
       <path id="m39982039df" d="M 0 0 
L -3.5 0 
" style="stroke: #000000; stroke-width: 0.8"/>
      </defs>
      <g>
       <use xlink:href="#m39982039df" x="101.18125" y="354.958125" style="stroke: #000000; stroke-width: 0.8"/>
      </g>
     </g>
     <g id="text_7">
      <!-- 0 -->
      <g transform="translate(81.45625 362.556563) scale(0.2 -0.2)">
       <use xlink:href="#DejaVuSans-30"/>
      </g>
     </g>
    </g>
    <g id="ytick_2">
     <g id="line2d_7">
      <g>
       <use xlink:href="#m39982039df" x="101.18125" y="317.023053" style="stroke: #000000; stroke-width: 0.8"/>
      </g>
     </g>
     <g id="text_8">
      <!-- 3000 -->
      <g transform="translate(43.28125 324.621491) scale(0.2 -0.2)">
       <defs>
        <path id="DejaVuSans-33" d="M 2597 2516 
Q 3050 2419 3304 2112 
Q 3559 1806 3559 1356 
Q 3559 666 3084 287 
Q 2609 -91 1734 -91 
Q 1441 -91 1130 -33 
Q 819 25 488 141 
L 488 750 
Q 750 597 1062 519 
Q 1375 441 1716 441 
Q 2309 441 2620 675 
Q 2931 909 2931 1356 
Q 2931 1769 2642 2001 
Q 2353 2234 1838 2234 
L 1294 2234 
L 1294 2753 
L 1863 2753 
Q 2328 2753 2575 2939 
Q 2822 3125 2822 3475 
Q 2822 3834 2567 4026 
Q 2313 4219 1838 4219 
Q 1578 4219 1281 4162 
Q 984 4106 628 3988 
L 628 4550 
Q 988 4650 1302 4700 
Q 1616 4750 1894 4750 
Q 2613 4750 3031 4423 
Q 3450 4097 3450 3541 
Q 3450 3153 3228 2886 
Q 3006 2619 2597 2516 
z
" transform="scale(0.015625)"/>
       </defs>
       <use xlink:href="#DejaVuSans-33"/>
       <use xlink:href="#DejaVuSans-30" x="63.623047"/>
       <use xlink:href="#DejaVuSans-30" x="127.246094"/>
       <use xlink:href="#DejaVuSans-30" x="190.869141"/>
      </g>
     </g>
    </g>
    <g id="ytick_3">
     <g id="line2d_8">
      <g>
       <use xlink:href="#m39982039df" x="101.18125" y="279.087981" style="stroke: #000000; stroke-width: 0.8"/>
      </g>
     </g>
     <g id="text_9">
      <!-- 6000 -->
      <g transform="translate(43.28125 286.686419) scale(0.2 -0.2)">
       <use xlink:href="#DejaVuSans-36"/>
       <use xlink:href="#DejaVuSans-30" x="63.623047"/>
       <use xlink:href="#DejaVuSans-30" x="127.246094"/>
       <use xlink:href="#DejaVuSans-30" x="190.869141"/>
      </g>
     </g>
    </g>
    <g id="ytick_4">
     <g id="line2d_9">
      <g>
       <use xlink:href="#m39982039df" x="101.18125" y="241.152909" style="stroke: #000000; stroke-width: 0.8"/>
      </g>
     </g>
     <g id="text_10">
      <!-- 9000 -->
      <g transform="translate(43.28125 248.751347) scale(0.2 -0.2)">
       <defs>
        <path id="DejaVuSans-39" d="M 703 97 
L 703 672 
Q 941 559 1184 500 
Q 1428 441 1663 441 
Q 2288 441 2617 861 
Q 2947 1281 2994 2138 
Q 2813 1869 2534 1725 
Q 2256 1581 1919 1581 
Q 1219 1581 811 2004 
Q 403 2428 403 3163 
Q 403 3881 828 4315 
Q 1253 4750 1959 4750 
Q 2769 4750 3195 4129 
Q 3622 3509 3622 2328 
Q 3622 1225 3098 567 
Q 2575 -91 1691 -91 
Q 1453 -91 1209 -44 
Q 966 3 703 97 
z
M 1959 2075 
Q 2384 2075 2632 2365 
Q 2881 2656 2881 3163 
Q 2881 3666 2632 3958 
Q 2384 4250 1959 4250 
Q 1534 4250 1286 3958 
Q 1038 3666 1038 3163 
Q 1038 2656 1286 2365 
Q 1534 2075 1959 2075 
z
" transform="scale(0.015625)"/>
       </defs>
       <use xlink:href="#DejaVuSans-39"/>
       <use xlink:href="#DejaVuSans-30" x="63.623047"/>
       <use xlink:href="#DejaVuSans-30" x="127.246094"/>
       <use xlink:href="#DejaVuSans-30" x="190.869141"/>
      </g>
     </g>
    </g>
    <g id="ytick_5">
     <g id="line2d_10">
      <g>
       <use xlink:href="#m39982039df" x="101.18125" y="203.217838" style="stroke: #000000; stroke-width: 0.8"/>
      </g>
     </g>
     <g id="text_11">
      <!-- 12000 -->
      <g transform="translate(30.55625 210.816275) scale(0.2 -0.2)">
       <defs>
        <path id="DejaVuSans-31" d="M 794 531 
L 1825 531 
L 1825 4091 
L 703 3866 
L 703 4441 
L 1819 4666 
L 2450 4666 
L 2450 531 
L 3481 531 
L 3481 0 
L 794 0 
L 794 531 
z
" transform="scale(0.015625)"/>
       </defs>
       <use xlink:href="#DejaVuSans-31"/>
       <use xlink:href="#DejaVuSans-32" x="63.623047"/>
       <use xlink:href="#DejaVuSans-30" x="127.246094"/>
       <use xlink:href="#DejaVuSans-30" x="190.869141"/>
       <use xlink:href="#DejaVuSans-30" x="254.492188"/>
      </g>
     </g>
    </g>
    <g id="ytick_6">
     <g id="line2d_11">
      <g>
       <use xlink:href="#m39982039df" x="101.18125" y="165.282766" style="stroke: #000000; stroke-width: 0.8"/>
      </g>
     </g>
     <g id="text_12">
      <!-- 15000 -->
      <g transform="translate(30.55625 172.881203) scale(0.2 -0.2)">
       <defs>
        <path id="DejaVuSans-35" d="M 691 4666 
L 3169 4666 
L 3169 4134 
L 1269 4134 
L 1269 2991 
Q 1406 3038 1543 3061 
Q 1681 3084 1819 3084 
Q 2600 3084 3056 2656 
Q 3513 2228 3513 1497 
Q 3513 744 3044 326 
Q 2575 -91 1722 -91 
Q 1428 -91 1123 -41 
Q 819 9 494 109 
L 494 744 
Q 775 591 1075 516 
Q 1375 441 1709 441 
Q 2250 441 2565 725 
Q 2881 1009 2881 1497 
Q 2881 1984 2565 2268 
Q 2250 2553 1709 2553 
Q 1456 2553 1204 2497 
Q 953 2441 691 2322 
L 691 4666 
z
" transform="scale(0.015625)"/>
       </defs>
       <use xlink:href="#DejaVuSans-31"/>
       <use xlink:href="#DejaVuSans-35" x="63.623047"/>
       <use xlink:href="#DejaVuSans-30" x="127.246094"/>
       <use xlink:href="#DejaVuSans-30" x="190.869141"/>
       <use xlink:href="#DejaVuSans-30" x="254.492188"/>
      </g>
     </g>
    </g>
    <g id="ytick_7">
     <g id="line2d_12">
      <g>
       <use xlink:href="#m39982039df" x="101.18125" y="127.347694" style="stroke: #000000; stroke-width: 0.8"/>
      </g>
     </g>
     <g id="text_13">
      <!-- 18000 -->
      <g transform="translate(30.55625 134.946131) scale(0.2 -0.2)">
       <use xlink:href="#DejaVuSans-31"/>
       <use xlink:href="#DejaVuSans-38" x="63.623047"/>
       <use xlink:href="#DejaVuSans-30" x="127.246094"/>
       <use xlink:href="#DejaVuSans-30" x="190.869141"/>
       <use xlink:href="#DejaVuSans-30" x="254.492188"/>
      </g>
     </g>
    </g>
    <g id="ytick_8">
     <g id="line2d_13">
      <g>
       <use xlink:href="#m39982039df" x="101.18125" y="89.412622" style="stroke: #000000; stroke-width: 0.8"/>
      </g>
     </g>
     <g id="text_14">
      <!-- 21000 -->
      <g transform="translate(30.55625 97.01106) scale(0.2 -0.2)">
       <use xlink:href="#DejaVuSans-32"/>
       <use xlink:href="#DejaVuSans-31" x="63.623047"/>
       <use xlink:href="#DejaVuSans-30" x="127.246094"/>
       <use xlink:href="#DejaVuSans-30" x="190.869141"/>
       <use xlink:href="#DejaVuSans-30" x="254.492188"/>
      </g>
     </g>
    </g>
    <g id="ytick_9">
     <g id="line2d_14">
      <g>
       <use xlink:href="#m39982039df" x="101.18125" y="51.47755" style="stroke: #000000; stroke-width: 0.8"/>
      </g>
     </g>
     <g id="text_15">
      <!-- 24000 -->
      <g transform="translate(30.55625 59.075988) scale(0.2 -0.2)">
       <use xlink:href="#DejaVuSans-32"/>
       <use xlink:href="#DejaVuSans-34" x="63.623047"/>
       <use xlink:href="#DejaVuSans-30" x="127.246094"/>
       <use xlink:href="#DejaVuSans-30" x="190.869141"/>
       <use xlink:href="#DejaVuSans-30" x="254.492188"/>
      </g>
     </g>
    </g>
    <g id="text_16">
     <!-- Cycles -->
     <g transform="translate(22.396875 221.17875) rotate(-90) scale(0.2 -0.2)">
      <defs>
       <path id="DejaVuSans-43" d="M 4122 4306 
L 4122 3641 
Q 3803 3938 3442 4084 
Q 3081 4231 2675 4231 
Q 1875 4231 1450 3742 
Q 1025 3253 1025 2328 
Q 1025 1406 1450 917 
Q 1875 428 2675 428 
Q 3081 428 3442 575 
Q 3803 722 4122 1019 
L 4122 359 
Q 3791 134 3420 21 
Q 3050 -91 2638 -91 
Q 1578 -91 968 557 
Q 359 1206 359 2328 
Q 359 3453 968 4101 
Q 1578 4750 2638 4750 
Q 3056 4750 3426 4639 
Q 3797 4528 4122 4306 
z
" transform="scale(0.015625)"/>
       <path id="DejaVuSans-63" d="M 3122 3366 
L 3122 2828 
Q 2878 2963 2633 3030 
Q 2388 3097 2138 3097 
Q 1578 3097 1268 2742 
Q 959 2388 959 1747 
Q 959 1106 1268 751 
Q 1578 397 2138 397 
Q 2388 397 2633 464 
Q 2878 531 3122 666 
L 3122 134 
Q 2881 22 2623 -34 
Q 2366 -91 2075 -91 
Q 1284 -91 818 406 
Q 353 903 353 1747 
Q 353 2603 823 3093 
Q 1294 3584 2113 3584 
Q 2378 3584 2631 3529 
Q 2884 3475 3122 3366 
z
" transform="scale(0.015625)"/>
       <path id="DejaVuSans-6c" d="M 603 4863 
L 1178 4863 
L 1178 0 
L 603 0 
L 603 4863 
z
" transform="scale(0.015625)"/>
      </defs>
      <use xlink:href="#DejaVuSans-43"/>
      <use xlink:href="#DejaVuSans-79" x="69.824219"/>
      <use xlink:href="#DejaVuSans-63" x="129.003906"/>
      <use xlink:href="#DejaVuSans-6c" x="183.984375"/>
      <use xlink:href="#DejaVuSans-65" x="211.767578"/>
      <use xlink:href="#DejaVuSans-73" x="273.291016"/>
     </g>
    </g>
   </g>
   <g id="line2d_15">
    <path d="M 146.835795 317.427694 
L 156.447279 317.250664 
L 166.058762 316.062031 
L 175.670245 315.859711 
L 185.281728 315.783841 
L 194.893212 314.569919 
L 204.504695 314.367598 
L 214.116178 313.355996 
L 223.727661 312.445554 
L 233.339145 312.217944 
L 242.950628 311.459243 
L 252.562111 311.282212 
L 262.173594 311.155762 
L 271.785078 310.700541 
L 281.396561 310.675251 
L 291.008044 310.624671 
L 300.619528 310.472931 
L 310.231011 310.447641 
L 319.842494 310.27061 
L 329.453977 309.259008 
L 339.065461 309.233718 
L 348.676944 309.006108 
L 358.288427 308.120956 
L 367.89991 307.716316 
L 377.511394 307.615155 
L 387.122877 305.288471 
L 396.73436 305.111441 
L 406.345843 303.998678 
L 415.957327 302.582436 
L 425.56881 300.963873 
L 435.180293 299.42118 
L 444.791776 299.244149 
L 454.40326 297.726747 
L 464.014743 297.246236 
L 473.626226 297.170366 
L 483.237709 294.18614 
L 492.849193 291.454815 
L 502.460676 290.569663 
L 512.072159 290.139732 
L 521.683642 289.633931 
L 531.295126 285.612814 
L 540.906609 285.461073 
L 550.518092 283.6149 
L 560.129575 283.51374 
L 569.741059 282.856198 
L 579.352542 282.679168 
L 588.964025 280.580094 
L 598.575508 280.352484 
L 608.186992 280.074293 
L 617.798475 279.947843 
L 627.409958 279.543202 
L 637.021441 278.733921 
L 646.632925 277.292388 
L 656.244408 277.140648 
L 665.855891 276.761297 
L 675.467374 275.092154 
L 685.078858 267.78333 
L 694.690341 266.923468 
L 704.301824 262.62416 
L 713.913307 260.828567 
L 723.524791 258.653623 
L 733.136274 258.527172 
L 742.747757 256.124618 
L 752.35924 255.972878 
L 761.970724 254.101414 
L 771.582207 253.899094 
L 781.19369 252.786331 
L 790.805173 252.609301 
L 800.416657 251.395379 
L 810.02814 251.193058 
L 819.639623 249.372175 
L 829.251106 249.271015 
L 838.86259 248.790504 
L 848.474073 248.562893 
L 858.085556 246.61556 
L 867.697039 246.53969 
L 877.308523 246.135049 
L 886.920006 242.594442 
L 896.531489 242.569152 
L 906.142972 242.392122 
L 915.754456 239.711377 
L 925.365939 238.674485 
L 934.977422 237.283532 
L 944.588906 236.676571 
L 954.200389 234.653367 
L 963.811872 234.476337 
L 973.423355 233.490025 
L 983.034839 231.820882 
L 992.646322 231.643851 
L 1002.257805 230.65754 
L 1011.869288 228.735496 
L 1021.480772 227.521574 
L 1031.092255 226.282361 
L 1040.703738 223.551036 
L 1050.315221 223.449876 
L 1059.926705 222.514144 
" clip-path="url(#p43286d6bc3)" style="fill: none; stroke: #008000; stroke-width: 1.5; stroke-linecap: square"/>
   </g>
   <g id="line2d_16">
    <path d="M 146.835795 324.331877 
L 156.447279 324.230717 
L 166.058762 322.435123 
L 175.670245 321.929322 
L 185.281728 320.943011 
L 194.893212 320.74069 
L 204.504695 318.641616 
L 214.116178 317.250664 
L 223.727661 317.124213 
L 233.339145 316.694283 
L 242.950628 316.491962 
L 252.562111 314.418178 
L 262.173594 314.064118 
L 271.785078 313.482446 
L 281.396561 313.229546 
L 291.008044 313.229546 
L 300.619528 312.572005 
L 310.231011 311.990334 
L 319.842494 311.282212 
L 329.453977 310.397061 
L 339.065461 309.764809 
L 348.676944 309.587779 
L 358.288427 308.272697 
L 367.89991 306.881744 
L 377.511394 306.755294 
L 387.122877 306.502393 
L 396.73436 306.047172 
L 406.345843 305.617242 
L 415.957327 304.55506 
L 425.56881 304.453899 
L 435.180293 304.378029 
L 444.791776 304.302159 
L 454.40326 303.568748 
L 464.014743 303.290557 
L 473.626226 301.191483 
L 483.237709 300.129301 
L 492.849193 299.851111 
L 502.460676 298.485448 
L 512.072159 296.816305 
L 521.683642 296.386374 
L 531.295126 295.905863 
L 540.906609 295.779413 
L 550.518092 293.073378 
L 560.129575 291.985906 
L 569.741059 290.746693 
L 579.352542 290.468503 
L 588.964025 287.383117 
L 598.575508 285.435783 
L 608.186992 285.410493 
L 617.798475 285.233463 
L 627.409958 283.51374 
L 637.021441 283.033229 
L 646.632925 282.805618 
L 656.244408 281.212345 
L 665.855891 280.757124 
L 675.467374 279.770813 
L 685.078858 279.012111 
L 694.690341 277.115358 
L 704.301824 276.685427 
L 713.913307 274.232292 
L 723.524791 274.131132 
L 733.136274 272.86663 
L 742.747757 272.765469 
L 752.35924 272.386119 
L 761.970724 271.500967 
L 771.582207 269.705374 
L 781.19369 268.263841 
L 790.805173 267.049919 
L 800.416657 265.785416 
L 810.02814 265.709546 
L 819.639623 264.849684 
L 829.251106 264.520914 
L 838.86259 262.927641 
L 848.474073 259.918125 
L 858.085556 258.527172 
L 867.697039 258.451302 
L 877.308523 257.894921 
L 886.920006 257.38912 
L 896.531489 256.630419 
L 906.142972 256.225778 
L 915.754456 255.113016 
L 925.365939 253.873804 
L 934.977422 252.609301 
L 944.588906 251.041318 
L 954.200389 249.928556 
L 963.811872 249.802106 
L 973.423355 249.498625 
L 983.034839 248.664054 
L 992.646322 247.348971 
L 1002.257805 247.222521 
L 1011.869288 246.286789 
L 1021.480772 245.907438 
L 1031.092255 244.845256 
L 1040.703738 243.353144 
L 1050.315221 243.201403 
L 1059.926705 236.29722 
" clip-path="url(#p43286d6bc3)" style="fill: none; stroke: #ff0000; stroke-width: 1.5; stroke-linecap: square"/>
   </g>
   <g id="line2d_17">
    <path d="M 146.835795 319.526768 
L 156.447279 319.349738 
L 166.058762 318.211685 
L 175.670245 318.161105 
L 185.281728 317.984075 
L 194.893212 316.618412 
L 204.504695 316.618412 
L 214.116178 316.390802 
L 223.727661 316.340222 
L 233.339145 315.15159 
L 242.950628 314.974559 
L 252.562111 314.898689 
L 262.173594 314.266438 
L 271.785078 314.089408 
L 281.396561 313.710057 
L 291.008044 313.507736 
L 300.619528 312.900775 
L 310.231011 312.799615 
L 319.842494 311.433953 
L 329.453977 309.81539 
L 339.065461 309.334879 
L 348.676944 308.475017 
L 358.288427 307.564575 
L 367.89991 307.159934 
L 377.511394 306.982904 
L 387.122877 306.856454 
L 396.73436 305.440211 
L 406.345843 305.288471 
L 415.957327 304.200999 
L 425.56881 304.200999 
L 435.180293 304.125129 
L 444.791776 303.897518 
L 454.40326 303.796358 
L 464.014743 303.695198 
L 473.626226 301.242063 
L 483.237709 301.115613 
L 492.849193 300.230461 
L 502.460676 297.220946 
L 512.072159 297.119785 
L 521.683642 295.855283 
L 531.295126 292.011196 
L 540.906609 291.808875 
L 550.518092 290.519083 
L 560.129575 288.521169 
L 569.741059 288.470589 
L 579.352542 287.838338 
L 588.964025 287.155507 
L 598.575508 283.6149 
L 608.186992 282.502138 
L 617.798475 280.832995 
L 627.409958 280.301904 
L 637.021441 280.226033 
L 646.632925 279.694942 
L 656.244408 278.910951 
L 665.855891 278.835081 
L 675.467374 277.317678 
L 685.078858 275.066864 
L 694.690341 272.259668 
L 704.301824 268.719062 
L 713.913307 268.617901 
L 723.524791 268.238551 
L 733.136274 268.112101 
L 742.747757 267.96036 
L 752.35924 266.013027 
L 761.970724 265.886576 
L 771.582207 265.330195 
L 781.19369 262.927641 
L 790.805173 262.72532 
L 800.416657 260.120445 
L 810.02814 259.639934 
L 819.639623 258.805363 
L 829.251106 258.248982 
L 838.86259 257.642021 
L 848.474073 256.478678 
L 858.085556 256.428098 
L 867.697039 253.924384 
L 877.308523 253.747353 
L 886.920006 251.92647 
L 896.531489 251.167768 
L 906.142972 250.737838 
L 915.754456 248.284703 
L 925.365939 246.69143 
L 934.977422 245.123447 
L 944.588906 243.732494 
L 954.200389 242.897923 
L 963.811872 242.670312 
L 973.423355 242.543862 
L 983.034839 240.874719 
L 992.646322 240.672399 
L 1002.257805 239.509056 
L 1011.869288 239.332026 
L 1021.480772 238.320424 
L 1031.092255 238.168684 
L 1040.703738 237.890493 
L 1050.315221 230.505799 
L 1059.926705 229.696518 
" clip-path="url(#p43286d6bc3)" style="fill: none; stroke: #00bfbf; stroke-width: 1.5; stroke-linecap: square"/>
   </g>
   <g id="line2d_18">
    <path d="M 146.835795 316.466672 
L 156.447279 312.976645 
L 166.058762 308.576177 
L 175.670245 308.045086 
L 185.281728 307.817476 
L 194.893212 306.932324 
L 204.504695 306.730004 
L 214.116178 306.325363 
L 223.727661 303.695198 
L 233.339145 302.885916 
L 242.950628 301.823734 
L 252.562111 301.596124 
L 262.173594 300.635102 
L 271.785078 299.52234 
L 281.396561 298.965959 
L 291.008044 298.055517 
L 300.619528 296.057603 
L 310.231011 295.678253 
L 319.842494 294.717231 
L 329.453977 294.590781 
L 339.065461 294.08498 
L 348.676944 293.629759 
L 358.288427 293.478019 
L 367.89991 293.452729 
L 377.511394 293.174538 
L 387.122877 292.820477 
L 396.73436 292.694027 
L 406.345843 292.491707 
L 415.957327 290.544373 
L 425.56881 290.316763 
L 435.180293 290.139732 
L 444.791776 289.861542 
L 454.40326 289.810962 
L 464.014743 289.456901 
L 473.626226 289.431611 
L 483.237709 289.431611 
L 492.849193 289.355741 
L 502.460676 288.77407 
L 512.072159 288.318849 
L 521.683642 288.268269 
L 531.295126 288.116528 
L 540.906609 287.560147 
L 550.518092 287.534857 
L 560.129575 287.357827 
L 569.741059 286.017454 
L 579.352542 285.840424 
L 588.964025 285.612814 
L 598.575508 285.562234 
L 608.186992 285.233463 
L 617.798475 285.182883 
L 627.409958 283.412579 
L 637.021441 282.704458 
L 646.632925 282.299817 
L 656.244408 282.274527 
L 665.855891 282.122787 
L 675.467374 281.288215 
L 685.078858 281.035315 
L 694.690341 280.959445 
L 704.301824 280.428354 
L 713.913307 280.428354 
L 723.524791 279.796103 
L 733.136274 279.467332 
L 742.747757 278.35457 
L 752.35924 278.32928 
L 761.970724 277.949929 
L 771.582207 277.216518 
L 781.19369 277.115358 
L 790.805173 277.039487 
L 800.416657 276.913037 
L 810.02814 276.736007 
L 819.639623 276.053176 
L 829.251106 275.699115 
L 838.86259 275.648535 
L 848.474073 275.218604 
L 858.085556 275.092154 
L 867.697039 274.965703 
L 877.308523 274.232292 
L 886.920006 273.878231 
L 896.531489 273.777071 
L 906.142972 273.549461 
L 915.754456 273.524171 
L 925.365939 272.841339 
L 934.977422 272.563149 
L 944.588906 271.779157 
L 954.200389 271.576837 
L 963.811872 271.551547 
L 973.423355 270.211174 
L 983.034839 269.882404 
L 992.646322 269.073122 
L 1002.257805 268.440871 
L 1011.869288 267.83391 
L 1021.480772 267.505139 
L 1031.092255 266.923468 
L 1040.703738 266.822308 
L 1050.315221 265.608386 
L 1059.926705 263.484022 
" clip-path="url(#p43286d6bc3)" style="fill: none; stroke: #bf00bf; stroke-width: 1.5; stroke-linecap: square"/>
   </g>
   <g id="line2d_19">
    <path d="M 146.835795 327.518423 
L 156.447279 327.341393 
L 166.058762 326.10218 
L 175.670245 325.92515 
L 185.281728 325.74812 
L 194.893212 325.469929 
L 204.504695 325.368769 
L 214.116178 324.104267 
L 223.727661 324.003106 
L 233.339145 323.952526 
L 242.950628 323.750206 
L 252.562111 323.674336 
L 262.173594 323.649046 
L 271.785078 323.649046 
L 281.396561 323.573176 
L 291.008044 323.547886 
L 300.619528 323.370855 
L 310.231011 323.269695 
L 319.842494 323.269695 
L 329.453977 323.092665 
L 339.065461 323.092665 
L 348.676944 322.991504 
L 358.288427 322.814474 
L 367.89991 322.814474 
L 377.511394 322.713314 
L 387.122877 322.662734 
L 396.73436 322.586864 
L 406.345843 322.409833 
L 415.957327 322.232803 
L 425.56881 322.131643 
L 435.180293 322.081063 
L 444.791776 321.929322 
L 454.40326 321.929322 
L 464.014743 321.701712 
L 473.626226 321.549972 
L 483.237709 321.524682 
L 492.849193 321.448812 
L 502.460676 321.271781 
L 512.072159 321.221201 
L 521.683642 321.195911 
L 531.295126 321.094751 
L 540.906609 320.76598 
L 550.518092 318.793357 
L 560.129575 318.742776 
L 569.741059 318.717486 
L 579.352542 318.692196 
L 588.964025 318.616326 
L 598.575508 318.338136 
L 608.186992 316.896603 
L 617.798475 316.517252 
L 627.409958 316.137901 
L 637.021441 315.960871 
L 646.632925 315.960871 
L 656.244408 315.885001 
L 665.855891 315.809131 
L 675.467374 315.733261 
L 685.078858 315.58152 
L 694.690341 315.53094 
L 704.301824 315.42978 
L 713.913307 315.42978 
L 723.524791 315.40449 
L 733.136274 315.32862 
L 742.747757 315.27804 
L 752.35924 315.22746 
L 761.970724 315.17688 
L 771.582207 315.1263 
L 781.19369 315.1263 
L 790.805173 315.075719 
L 800.416657 314.999849 
L 810.02814 314.822819 
L 819.639623 314.772239 
L 829.251106 314.721659 
L 838.86259 314.721659 
L 848.474073 314.671079 
L 858.085556 314.671079 
L 867.697039 314.519338 
L 877.308523 314.494048 
L 886.920006 314.342308 
L 896.531489 314.291728 
L 906.142972 314.139988 
L 915.754456 314.139988 
L 925.365939 314.064118 
L 934.977422 314.038828 
L 944.588906 314.013537 
L 954.200389 313.988247 
L 963.811872 313.811217 
L 973.423355 313.735347 
L 983.034839 313.659477 
L 992.646322 313.659477 
L 1002.257805 313.558317 
L 1011.869288 313.507736 
L 1021.480772 313.052516 
L 1031.092255 312.976645 
L 1040.703738 312.749035 
L 1050.315221 312.622585 
L 1059.926705 312.167364 
" clip-path="url(#p43286d6bc3)" style="fill: none; stroke: #000000; stroke-width: 1.5; stroke-linecap: square"/>
   </g>
   <g id="line2d_20">
    <path d="M 146.835795 322.232803 
L 156.447279 313.001936 
L 166.058762 309.132558 
L 175.670245 309.107268 
L 185.281728 308.955528 
L 194.893212 304.88383 
L 204.504695 303.492878 
L 214.116178 295.400062 
L 223.727661 287.888918 
L 233.339145 277.165938 
L 242.950628 258.628333 
L 252.562111 257.844341 
L 262.173594 253.013942 
L 271.785078 244.238295 
L 281.396561 241.55755 
L 291.008044 241.48168 
L 300.619528 239.635507 
L 310.231011 234.147566 
L 319.842494 230.303479 
L 329.453977 229.367747 
L 339.065461 229.089557 
L 348.676944 228.128535 
L 358.288427 225.953591 
L 367.89991 225.245469 
L 377.511394 217.633165 
L 387.122877 217.633165 
L 396.73436 216.672143 
L 406.345843 211.614134 
L 415.957327 211.158913 
L 425.56881 210.703692 
L 435.180293 209.186289 
L 444.791776 208.250557 
L 454.40326 206.986055 
L 464.014743 203.723639 
L 473.626226 202.889067 
L 483.237709 202.787907 
L 492.849193 201.548694 
L 502.460676 201.118764 
L 512.072159 200.638253 
L 521.683642 194.973282 
L 531.295126 192.975368 
L 540.906609 191.710866 
L 550.518092 189.889982 
L 560.129575 188.87838 
L 569.741059 187.639168 
L 579.352542 186.324086 
L 588.964025 184.225012 
L 598.575508 181.873037 
L 608.186992 180.380924 
L 617.798475 176.663287 
L 627.409958 175.980456 
L 637.021441 175.727556 
L 646.632925 171.908758 
L 656.244408 167.483 
L 665.855891 166.471398 
L 675.467374 165.687407 
L 685.078858 164.827545 
L 694.690341 164.271164 
L 704.301824 164.018263 
L 713.913307 163.563043 
L 723.524791 162.50086 
L 733.136274 155.925448 
L 742.747757 155.571387 
L 752.35924 154.939136 
L 761.970724 154.660946 
L 771.582207 151.373239 
L 781.19369 149.956997 
L 790.805173 148.211983 
L 800.416657 148.211983 
L 810.02814 147.377412 
L 819.639623 143.204554 
L 829.251106 136.755592 
L 838.86259 129.901989 
L 848.474073 128.561616 
L 858.085556 128.182266 
L 867.697039 127.347694 
L 877.308523 125.24862 
L 886.920006 124.262308 
L 896.531489 119.88713 
L 906.142972 118.622627 
L 915.754456 112.375986 
L 925.365939 106.331664 
L 934.977422 98.036528 
L 944.588906 94.698242 
L 954.200389 92.953229 
L 963.811872 92.169237 
L 973.423355 89.943713 
L 983.034839 85.113314 
L 992.646322 80.991036 
L 1002.257805 71.886619 
L 1011.869288 71.406108 
L 1021.480772 57.597742 
L 1031.092255 55.271057 
L 1040.703738 50.820009 
L 1050.315221 46.900052 
L 1059.926705 27.780775 
" clip-path="url(#p43286d6bc3)" style="fill: none; stroke-dasharray: 5.55,2.4; stroke-dashoffset: 0; stroke: #0000ff; stroke-width: 1.5"/>
   </g>
   <g id="line2d_21">
    <path d="M 146.835795 308.348567 
L 156.447279 302.607726 
L 166.058762 302.177795 
L 175.670245 291.859455 
L 185.281728 277.090068 
L 194.893212 269.553633 
L 204.504695 266.291217 
L 214.116178 266.013027 
L 223.727661 265.810706 
L 233.339145 263.231121 
L 242.950628 263.028801 
L 252.562111 252.15408 
L 262.173594 250.282617 
L 271.785078 250.004426 
L 281.396561 249.372175 
L 291.008044 243.125533 
L 300.619528 242.872633 
L 310.231011 242.189801 
L 319.842494 241.25407 
L 329.453977 237.485853 
L 339.065461 236.676571 
L 348.676944 236.19606 
L 358.288427 235.513229 
L 367.89991 232.200233 
L 377.511394 232.023202 
L 387.122877 231.593271 
L 396.73436 228.077955 
L 406.345843 225.37192 
L 415.957327 224.891409 
L 425.56881 224.587928 
L 435.180293 219.605789 
L 444.791776 213.662627 
L 454.40326 213.409727 
L 464.014743 207.896496 
L 473.626226 207.871206 
L 483.237709 206.100903 
L 492.849193 203.293708 
L 502.460676 202.838487 
L 512.072159 201.498114 
L 521.683642 197.476997 
L 531.295126 196.161914 
L 540.906609 195.377923 
L 550.518092 194.391611 
L 560.129575 194.08813 
L 569.741059 193.632909 
L 579.352542 193.430589 
L 588.964025 191.331515 
L 598.575508 191.306225 
L 608.186992 189.889982 
L 617.798475 189.384181 
L 627.409958 189.333601 
L 637.021441 187.057497 
L 646.632925 186.551696 
L 656.244408 186.475826 
L 665.855891 184.579072 
L 675.467374 184.528492 
L 685.078858 184.326172 
L 694.690341 183.795081 
L 704.301824 183.36515 
L 713.913307 181.139626 
L 723.524791 180.583245 
L 733.136274 180.482085 
L 742.747757 180.330344 
L 752.35924 177.371409 
L 761.970724 171.478828 
L 771.582207 168.089961 
L 781.19369 167.154229 
L 790.805173 165.459796 
L 800.416657 163.689493 
L 810.02814 162.526151 
L 819.639623 162.50086 
L 829.251106 158.909674 
L 838.86259 157.619881 
L 848.474073 157.442851 
L 858.085556 156.91176 
L 867.697039 156.73473 
L 877.308523 156.001318 
L 886.920006 155.419647 
L 896.531489 152.966512 
L 906.142972 152.764192 
L 915.754456 149.577646 
L 925.365939 147.453282 
L 934.977422 143.027524 
L 944.588906 132.178093 
L 954.200389 131.343521 
L 963.811872 126.740733 
L 973.423355 123.857667 
L 983.034839 119.204298 
L 992.646322 116.877614 
L 1002.257805 113.362297 
L 1011.869288 108.835379 
L 1021.480772 106.179924 
L 1031.092255 87.667609 
L 1040.703738 43.030674 
L 1050.315221 30.537391 
L 1058.169603 -1 
" clip-path="url(#p43286d6bc3)" style="fill: none; stroke-dasharray: 5.55,2.4; stroke-dashoffset: 0; stroke: #008000; stroke-width: 1.5"/>
   </g>
   <g id="line2d_22">
    <path d="M 146.835795 318.236975 
L 156.447279 316.112611 
L 166.058762 305.870142 
L 175.670245 304.023969 
L 185.281728 301.166193 
L 194.893212 299.117699 
L 204.504695 296.158764 
L 214.116178 280.074293 
L 223.727661 267.6063 
L 233.339145 266.088897 
L 242.950628 259.260584 
L 252.562111 259.184714 
L 262.173594 255.315336 
L 271.785078 252.482851 
L 281.396561 252.22995 
L 291.008044 251.673569 
L 300.619528 250.737838 
L 310.231011 250.257327 
L 319.842494 250.105586 
L 329.453977 249.271015 
L 339.065461 249.043404 
L 348.676944 248.360573 
L 358.288427 246.413239 
L 367.89991 243.226693 
L 377.511394 240.065437 
L 387.122877 237.662883 
L 396.73436 237.182372 
L 406.345843 235.462649 
L 415.957327 233.515315 
L 425.56881 231.643851 
L 435.180293 231.188631 
L 444.791776 230.96102 
L 454.40326 229.696518 
L 464.014743 227.825054 
L 473.626226 227.572154 
L 483.237709 226.889322 
L 492.849193 226.408812 
L 502.460676 220.996741 
L 512.072159 218.214836 
L 521.683642 217.076784 
L 531.295126 215.837572 
L 540.906609 214.750099 
L 550.518092 214.623649 
L 560.129575 213.080956 
L 569.741059 207.567726 
L 579.352542 205.215751 
L 588.964025 204.811111 
L 598.575508 203.192548 
L 608.186992 202.889067 
L 617.798475 200.233612 
L 627.409958 200.081872 
L 637.021441 196.010174 
L 646.632925 195.833144 
L 656.244408 194.998572 
L 665.855891 194.03755 
L 675.467374 193.000658 
L 685.078858 191.786736 
L 694.690341 190.421073 
L 704.301824 189.181861 
L 713.913307 188.069099 
L 723.524791 186.931047 
L 733.136274 181.569557 
L 742.747757 180.836145 
L 752.35924 180.052154 
L 761.970724 178.888812 
L 771.582207 177.497859 
L 781.19369 176.157486 
L 790.805173 175.550525 
L 800.416657 168.292281 
L 810.02814 167.027779 
L 819.639623 158.884384 
L 829.251106 151.55027 
L 838.86259 151.246789 
L 848.474073 150.614538 
L 858.085556 146.21407 
L 867.697039 146.037039 
L 877.308523 144.367896 
L 886.920006 143.887385 
L 896.531489 132.532154 
L 906.142972 129.117997 
L 915.754456 127.904075 
L 925.365939 126.083192 
L 934.977422 124.034698 
L 944.588906 123.579477 
L 954.200389 119.305459 
L 963.811872 116.902904 
L 973.423355 94.824692 
L 983.034839 92.422138 
L 992.646322 92.017497 
L 1002.257805 91.182925 
L 1011.869288 87.212388 
L 1021.480772 77.50101 
L 1031.092255 69.610515 
L 1040.703738 56.206789 
L 1050.315221 42.600743 
L 1059.926705 22.318125 
" clip-path="url(#p43286d6bc3)" style="fill: none; stroke-dasharray: 5.55,2.4; stroke-dashoffset: 0; stroke: #ff0000; stroke-width: 1.5"/>
   </g>
   <g id="line2d_23">
    <path d="M 146.835795 277.975219 
L 156.447279 276.988907 
L 166.058762 273.701201 
L 175.670245 272.86663 
L 185.281728 271.905608 
L 194.893212 270.464075 
L 204.504695 268.112101 
L 214.116178 267.454559 
L 223.727661 267.226949 
L 233.339145 265.709546 
L 242.950628 263.661052 
L 252.562111 263.231121 
L 262.173594 263.205831 
L 271.785078 261.916039 
L 281.396561 260.272186 
L 291.008044 259.665225 
L 300.619528 258.805363 
L 310.231011 258.577752 
L 319.842494 257.667311 
L 329.453977 257.08564 
L 339.065461 256.832739 
L 348.676944 255.719977 
L 358.288427 255.290046 
L 367.89991 254.834825 
L 377.511394 253.241552 
L 387.122877 252.988652 
L 396.73436 251.471249 
L 406.345843 251.344799 
L 415.957327 250.636677 
L 425.56881 247.450131 
L 435.180293 246.81788 
L 444.791776 246.362659 
L 454.40326 246.059179 
L 464.014743 245.376347 
L 473.626226 244.288875 
L 483.237709 244.263585 
L 492.849193 243.100243 
L 502.460676 242.139221 
L 512.072159 241.684 
L 521.683642 241.30465 
L 531.295126 240.722979 
L 540.906609 240.571238 
L 550.518092 240.545948 
L 560.129575 240.267758 
L 569.741059 238.775645 
L 579.352542 238.548035 
L 588.964025 238.446874 
L 598.575508 237.839913 
L 608.186992 237.713463 
L 617.798475 237.662883 
L 627.409958 237.612303 
L 637.021441 237.182372 
L 646.632925 234.678657 
L 656.244408 233.995826 
L 665.855891 233.565895 
L 675.467374 232.958934 
L 685.078858 232.453133 
L 694.690341 231.289791 
L 704.301824 231.213921 
L 713.913307 230.429929 
L 723.524791 228.128535 
L 733.136274 228.027375 
L 742.747757 227.951504 
L 752.35924 227.192803 
L 761.970724 226.130621 
L 771.582207 225.928301 
L 781.19369 225.296049 
L 790.805173 224.208577 
L 800.416657 222.842915 
L 810.02814 221.553122 
L 819.639623 221.553122 
L 829.251106 221.249642 
L 838.86259 220.44036 
L 848.474073 217.886065 
L 858.085556 209.94499 
L 867.697039 209.61622 
L 877.308523 208.199977 
L 886.920006 207.517146 
L 896.531489 204.962851 
L 906.142972 202.029205 
L 915.754456 201.978625 
L 925.365939 200.789993 
L 934.977422 200.638253 
L 944.588906 200.006002 
L 954.200389 197.628737 
L 963.811872 194.568641 
L 973.423355 192.343117 
L 983.034839 190.977454 
L 992.646322 190.168173 
L 1002.257805 187.158657 
L 1011.869288 181.822457 
L 1021.480772 180.203894 
L 1031.092255 176.789738 
L 1040.703738 176.258647 
L 1050.315221 173.577901 
L 1059.926705 162.652601 
" clip-path="url(#p43286d6bc3)" style="fill: none; stroke-dasharray: 5.55,2.4; stroke-dashoffset: 0; stroke: #00bfbf; stroke-width: 1.5"/>
   </g>
   <g id="line2d_24">
    <path d="M 146.835795 329.288726 
L 156.447279 323.851366 
L 166.058762 321.094751 
L 175.670245 319.703798 
L 185.281728 318.919807 
L 194.893212 310.2959 
L 204.504695 307.286385 
L 214.116178 301.924895 
L 223.727661 299.3706 
L 233.339145 289.482191 
L 242.950628 286.826736 
L 252.562111 285.486363 
L 262.173594 284.980562 
L 271.785078 284.398891 
L 281.396561 278.885661 
L 291.008044 275.572665 
L 300.619528 273.524171 
L 310.231011 273.01837 
L 319.842494 272.613729 
L 329.453977 269.528343 
L 339.065461 263.332281 
L 348.676944 261.637848 
L 358.288427 260.777987 
L 367.89991 259.437614 
L 377.511394 251.8506 
L 387.122877 248.512313 
L 396.73436 248.284703 
L 406.345843 247.601872 
L 415.957327 246.61556 
L 425.56881 243.681914 
L 435.180293 233.135964 
L 444.791776 233.135964 
L 454.40326 232.655453 
L 464.014743 231.441531 
L 473.626226 230.531089 
L 483.237709 228.887236 
L 492.849193 226.231781 
L 502.460676 222.286534 
L 512.072159 221.199062 
L 521.683642 220.46565 
L 531.295126 220.06101 
L 540.906609 217.177944 
L 550.518092 217.000914 
L 560.129575 212.726896 
L 569.741059 210.551952 
L 579.352542 210.349631 
L 588.964025 209.79325 
L 598.575508 208.781648 
L 608.186992 207.415986 
L 617.798475 204.22944 
L 627.409958 202.610876 
L 637.021441 200.410642 
L 646.632925 197.906928 
L 656.244408 193.9111 
L 665.855891 193.632909 
L 675.467374 191.660286 
L 685.078858 191.660286 
L 694.690341 189.283021 
L 704.301824 187.183947 
L 713.913307 184.376752 
L 723.524791 182.530578 
L 733.136274 181.190206 
L 742.747757 181.013176 
L 752.35924 180.684405 
L 761.970724 180.153314 
L 771.582207 178.07953 
L 781.19369 176.612707 
L 790.805173 172.97094 
L 800.416657 172.61688 
L 810.02814 172.136369 
L 819.639623 168.570472 
L 829.251106 167.50829 
L 838.86259 167.483 
L 848.474073 163.563043 
L 858.085556 161.843319 
L 867.697039 161.742159 
L 877.308523 161.211068 
L 886.920006 160.882297 
L 896.531489 160.553527 
L 906.142972 155.621967 
L 915.754456 153.699924 
L 925.365939 151.196209 
L 934.977422 143.937965 
L 944.588906 143.002234 
L 954.200389 142.825203 
L 963.811872 139.411047 
L 973.423355 138.500605 
L 983.034839 136.907332 
L 992.646322 133.341435 
L 1002.257805 124.414048 
L 1011.869288 124.363468 
L 1021.480772 115.967172 
L 1031.092255 110.580392 
L 1040.703738 110.378072 
L 1050.315221 100.590823 
L 1059.926705 98.491749 
" clip-path="url(#p43286d6bc3)" style="fill: none; stroke-dasharray: 5.55,2.4; stroke-dashoffset: 0; stroke: #bf00bf; stroke-width: 1.5"/>
   </g>
   <g id="line2d_25">
    <path d="M 146.835795 331.843021 
L 156.447279 328.884086 
L 166.058762 326.936752 
L 175.670245 325.394059 
L 185.281728 321.549972 
L 194.893212 320.968301 
L 204.504695 316.820733 
L 214.116178 315.40449 
L 223.727661 308.449727 
L 233.339145 297.575006 
L 242.950628 296.892175 
L 252.562111 294.868971 
L 262.173594 294.43904 
L 271.785078 293.427438 
L 281.396561 288.90052 
L 291.008044 285.536944 
L 300.619528 280.175453 
L 310.231011 279.796103 
L 319.842494 277.671739 
L 329.453977 273.397721 
L 339.065461 270.792846 
L 348.676944 265.178455 
L 358.288427 263.534602 
L 367.89991 260.879147 
L 377.511394 258.375432 
L 387.122877 258.173112 
L 396.73436 256.883319 
L 406.345843 255.011856 
L 415.957327 254.683085 
L 425.56881 250.358487 
L 435.180293 242.720892 
L 444.791776 242.088641 
L 454.40326 240.596528 
L 464.014743 240.318338 
L 473.626226 235.260328 
L 483.237709 226.358231 
L 492.849193 225.119019 
L 502.460676 223.424586 
L 512.072159 221.249642 
L 521.683642 219.074698 
L 531.295126 218.189546 
L 540.906609 214.294879 
L 550.518092 210.349631 
L 560.129575 210.172601 
L 569.741059 208.452878 
L 579.352542 208.250557 
L 588.964025 207.972367 
L 598.575508 207.694176 
L 608.186992 207.365405 
L 617.798475 205.772132 
L 627.409958 205.569812 
L 637.021441 203.546608 
L 646.632925 202.029205 
L 656.244408 201.675145 
L 665.855891 199.677231 
L 675.467374 198.336858 
L 685.078858 196.996486 
L 694.690341 196.617135 
L 704.301824 196.364235 
L 713.913307 191.685576 
L 723.524791 188.220839 
L 733.136274 187.917359 
L 742.747757 186.045895 
L 752.35924 185.388354 
L 761.970724 184.882553 
L 771.582207 183.56747 
L 781.19369 181.493686 
L 790.805173 180.203894 
L 800.416657 178.711781 
L 810.02814 177.548439 
L 819.639623 177.497859 
L 829.251106 176.941478 
L 838.86259 169.278593 
L 848.474073 165.080445 
L 858.085556 163.006661 
L 867.697039 161.438678 
L 877.308523 160.452367 
L 886.920006 156.203639 
L 896.531489 154.079275 
L 906.142972 152.106651 
L 915.754456 150.184607 
L 925.365939 149.501776 
L 934.977422 149.198295 
L 944.588906 144.696667 
L 954.200389 143.128684 
L 963.811872 141.35838 
L 973.423355 140.245618 
L 983.034839 138.525895 
L 992.646322 135.541669 
L 1002.257805 133.847236 
L 1011.869288 131.419392 
L 1021.480772 126.159062 
L 1031.092255 124.843979 
L 1040.703738 123.705927 
L 1050.315221 120.721701 
L 1059.926705 111.870185 
" clip-path="url(#p43286d6bc3)" style="fill: none; stroke-dasharray: 5.55,2.4; stroke-dashoffset: 0; stroke: #000000; stroke-width: 1.5"/>
   </g>
   <g id="line2d_26">
    <path d="M 146.835795 328.074804 
L 156.447279 324.306587 
L 166.058762 323.851366 
L 175.670245 322.713314 
L 185.281728 320.48779 
L 194.893212 319.830248 
L 204.504695 317.857625 
L 214.116178 300.331622 
L 223.727661 296.866885 
L 233.339145 296.613984 
L 242.950628 294.894261 
L 252.562111 294.38846 
L 262.173594 291.733005 
L 271.785078 290.063862 
L 281.396561 286.396805 
L 291.008044 283.007939 
L 300.619528 279.442042 
L 310.231011 279.416752 
L 319.842494 271.880318 
L 329.453977 267.403979 
L 339.065461 264.116273 
L 348.676944 263.838082 
L 358.288427 260.044575 
L 367.89991 255.972878 
L 377.511394 254.885405 
L 387.122877 254.404895 
L 396.73436 247.703032 
L 406.345843 239.888407 
L 415.957327 238.295134 
L 425.56881 232.301393 
L 435.180293 228.836656 
L 444.791776 227.900924 
L 454.40326 225.6754 
L 464.014743 225.54895 
L 473.626226 224.587928 
L 483.237709 223.019945 
L 492.849193 222.792335 
L 502.460676 221.022031 
L 512.072159 217.026204 
L 521.683642 211.639424 
L 531.295126 211.133623 
L 540.906609 209.59093 
L 550.518092 208.528748 
L 560.129575 207.061925 
L 569.741059 206.809024 
L 579.352542 203.496028 
L 588.964025 202.307396 
L 598.575508 201.295794 
L 608.186992 199.32317 
L 617.798475 198.589759 
L 627.409958 197.982798 
L 637.021441 196.389525 
L 646.632925 194.593931 
L 656.244408 193.025948 
L 665.855891 190.901584 
L 675.467374 190.547524 
L 685.078858 188.069099 
L 694.690341 185.843575 
L 704.301824 185.363064 
L 713.913307 183.820371 
L 723.524791 183.769791 
L 733.136274 182.024777 
L 742.747757 181.316656 
L 752.35924 180.330344 
L 761.970724 178.939392 
L 771.582207 175.221755 
L 781.19369 171.934048 
L 790.805173 166.193207 
L 800.416657 164.802255 
L 810.02814 162.981371 
L 819.639623 162.956081 
L 829.251106 162.930791 
L 838.86259 161.893899 
L 848.474073 160.578817 
L 858.085556 156.83589 
L 867.697039 156.557699 
L 877.308523 156.380669 
L 886.920006 155.647258 
L 896.531489 155.419647 
L 906.142972 155.242617 
L 915.754456 154.787396 
L 925.365939 154.660946 
L 934.977422 153.017093 
L 944.588906 144.696667 
L 954.200389 140.675549 
L 963.811872 135.89573 
L 973.423355 134.378327 
L 983.034839 131.672292 
L 992.646322 130.003149 
L 1002.257805 125.627971 
L 1011.869288 122.036784 
L 1021.480772 120.949312 
L 1031.092255 120.08945 
L 1040.703738 115.815432 
L 1050.315221 108.127258 
L 1059.926705 106.432824 
" clip-path="url(#p43286d6bc3)" style="fill: none; stroke-dasharray: 9.6,2.4,1.5,2.4; stroke-dashoffset: 0; stroke: #0000ff; stroke-width: 1.5"/>
   </g>
   <g id="line2d_27">
    <path d="M 146.835795 328.732345 
L 156.447279 325.84928 
L 166.058762 323.219115 
L 175.670245 321.727002 
L 185.281728 318.236975 
L 194.893212 313.861797 
L 204.504695 309.259008 
L 214.116178 302.734176 
L 223.727661 299.952271 
L 233.339145 290.569663 
L 242.950628 290.443213 
L 252.562111 290.266182 
L 262.173594 288.92581 
L 271.785078 277.368258 
L 281.396561 274.586353 
L 291.008044 271.045746 
L 300.619528 267.505139 
L 310.231011 262.47242 
L 319.842494 261.081467 
L 329.453977 259.538774 
L 339.065461 255.947587 
L 348.676944 255.922297 
L 358.288427 255.821137 
L 367.89991 252.634591 
L 377.511394 248.815794 
L 387.122877 248.208833 
L 396.73436 245.300477 
L 406.345843 242.948503 
L 415.957327 241.48168 
L 425.56881 239.205576 
L 435.180293 239.079126 
L 444.791776 237.334112 
L 454.40326 236.676571 
L 464.014743 236.14548 
L 473.626226 227.673314 
L 483.237709 225.296049 
L 492.849193 224.157997 
L 502.460676 223.222266 
L 512.072159 222.994655 
L 521.683642 221.628992 
L 531.295126 217.658455 
L 540.906609 215.964022 
L 550.518092 213.864948 
L 560.129575 211.437103 
L 569.741059 210.754272 
L 579.352542 208.098817 
L 588.964025 207.061925 
L 598.575508 203.622478 
L 608.186992 201.776305 
L 617.798475 201.396954 
L 627.409958 199.803681 
L 637.021441 196.971196 
L 646.632925 196.288364 
L 656.244408 196.010174 
L 665.855891 193.329429 
L 675.467374 193.025948 
L 685.078858 191.382095 
L 694.690341 190.977454 
L 704.301824 190.142883 
L 713.913307 189.738242 
L 723.524791 188.119679 
L 733.136274 187.892069 
L 742.747757 187.689748 
L 752.35924 186.855177 
L 761.970724 186.779306 
L 771.582207 185.894155 
L 781.19369 185.666544 
L 790.805173 185.287194 
L 800.416657 184.806683 
L 810.02814 181.569557 
L 819.639623 181.392526 
L 829.251106 177.750759 
L 838.86259 175.879296 
L 848.474073 172.92036 
L 858.085556 171.757018 
L 867.697039 168.772792 
L 877.308523 166.092047 
L 886.920006 164.574644 
L 896.531489 164.195294 
L 906.142972 164.018263 
L 915.754456 164.018263 
L 925.365939 161.236358 
L 934.977422 157.898072 
L 944.588906 157.619881 
L 954.200389 157.21524 
L 963.811872 154.559785 
L 973.423355 154.559785 
L 983.034839 153.927534 
L 992.646322 153.522893 
L 1002.257805 151.67672 
L 1011.869288 149.021265 
L 1021.480772 148.995975 
L 1031.092255 141.00432 
L 1040.703738 140.169748 
L 1050.315221 135.314059 
L 1059.926705 131.849322 
" clip-path="url(#p43286d6bc3)" style="fill: none; stroke-dasharray: 9.6,2.4,1.5,2.4; stroke-dashoffset: 0; stroke: #008000; stroke-width: 1.5"/>
   </g>
   <g id="patch_3">
    <path d="M 101.18125 354.958125 
L 101.18125 22.318125 
" style="fill: none; stroke: #000000; stroke-width: 0.8; stroke-linejoin: miter; stroke-linecap: square"/>
   </g>
   <g id="patch_4">
    <path d="M 1105.58125 354.958125 
L 1105.58125 22.318125 
" style="fill: none; stroke: #000000; stroke-width: 0.8; stroke-linejoin: miter; stroke-linecap: square"/>
   </g>
   <g id="patch_5">
    <path d="M 101.18125 354.958125 
L 1105.58125 354.958125 
" style="fill: none; stroke: #000000; stroke-width: 0.8; stroke-linejoin: miter; stroke-linecap: square"/>
   </g>
   <g id="patch_6">
    <path d="M 101.18125 22.318125 
L 1105.58125 22.318125 
" style="fill: none; stroke: #000000; stroke-width: 0.8; stroke-linejoin: miter; stroke-linecap: square"/>
   </g>
   <g id="text_17">
    <!-- Scheduling time, all -->
    <g transform="translate(543.935313 16.318125) scale(0.12 -0.12)">
     <defs>
      <path id="DejaVuSans-53" d="M 3425 4513 
L 3425 3897 
Q 3066 4069 2747 4153 
Q 2428 4238 2131 4238 
Q 1616 4238 1336 4038 
Q 1056 3838 1056 3469 
Q 1056 3159 1242 3001 
Q 1428 2844 1947 2747 
L 2328 2669 
Q 3034 2534 3370 2195 
Q 3706 1856 3706 1288 
Q 3706 609 3251 259 
Q 2797 -91 1919 -91 
Q 1588 -91 1214 -16 
Q 841 59 441 206 
L 441 856 
Q 825 641 1194 531 
Q 1563 422 1919 422 
Q 2459 422 2753 634 
Q 3047 847 3047 1241 
Q 3047 1584 2836 1778 
Q 2625 1972 2144 2069 
L 1759 2144 
Q 1053 2284 737 2584 
Q 422 2884 422 3419 
Q 422 4038 858 4394 
Q 1294 4750 2059 4750 
Q 2388 4750 2728 4690 
Q 3069 4631 3425 4513 
z
" transform="scale(0.015625)"/>
      <path id="DejaVuSans-75" d="M 544 1381 
L 544 3500 
L 1119 3500 
L 1119 1403 
Q 1119 906 1312 657 
Q 1506 409 1894 409 
Q 2359 409 2629 706 
Q 2900 1003 2900 1516 
L 2900 3500 
L 3475 3500 
L 3475 0 
L 2900 0 
L 2900 538 
Q 2691 219 2414 64 
Q 2138 -91 1772 -91 
Q 1169 -91 856 284 
Q 544 659 544 1381 
z
M 1991 3584 
L 1991 3584 
z
" transform="scale(0.015625)"/>
      <path id="DejaVuSans-67" d="M 2906 1791 
Q 2906 2416 2648 2759 
Q 2391 3103 1925 3103 
Q 1463 3103 1205 2759 
Q 947 2416 947 1791 
Q 947 1169 1205 825 
Q 1463 481 1925 481 
Q 2391 481 2648 825 
Q 2906 1169 2906 1791 
z
M 3481 434 
Q 3481 -459 3084 -895 
Q 2688 -1331 1869 -1331 
Q 1566 -1331 1297 -1286 
Q 1028 -1241 775 -1147 
L 775 -588 
Q 1028 -725 1275 -790 
Q 1522 -856 1778 -856 
Q 2344 -856 2625 -561 
Q 2906 -266 2906 331 
L 2906 616 
Q 2728 306 2450 153 
Q 2172 0 1784 0 
Q 1141 0 747 490 
Q 353 981 353 1791 
Q 353 2603 747 3093 
Q 1141 3584 1784 3584 
Q 2172 3584 2450 3431 
Q 2728 3278 2906 2969 
L 2906 3500 
L 3481 3500 
L 3481 434 
z
" transform="scale(0.015625)"/>
      <path id="DejaVuSans-2c" d="M 750 794 
L 1409 794 
L 1409 256 
L 897 -744 
L 494 -744 
L 750 256 
L 750 794 
z
" transform="scale(0.015625)"/>
     </defs>
     <use xlink:href="#DejaVuSans-53"/>
     <use xlink:href="#DejaVuSans-63" x="63.476562"/>
     <use xlink:href="#DejaVuSans-68" x="118.457031"/>
     <use xlink:href="#DejaVuSans-65" x="181.835938"/>
     <use xlink:href="#DejaVuSans-64" x="243.359375"/>
     <use xlink:href="#DejaVuSans-75" x="306.835938"/>
     <use xlink:href="#DejaVuSans-6c" x="370.214844"/>
     <use xlink:href="#DejaVuSans-69" x="397.998047"/>
     <use xlink:href="#DejaVuSans-6e" x="425.78125"/>
     <use xlink:href="#DejaVuSans-67" x="489.160156"/>
     <use xlink:href="#DejaVuSans-20" x="552.636719"/>
     <use xlink:href="#DejaVuSans-74" x="584.423828"/>
     <use xlink:href="#DejaVuSans-69" x="623.632812"/>
     <use xlink:href="#DejaVuSans-6d" x="651.416016"/>
     <use xlink:href="#DejaVuSans-65" x="748.828125"/>
     <use xlink:href="#DejaVuSans-2c" x="810.351562"/>
     <use xlink:href="#DejaVuSans-20" x="842.138672"/>
     <use xlink:href="#DejaVuSans-61" x="873.925781"/>
     <use xlink:href="#DejaVuSans-6c" x="935.205078"/>
     <use xlink:href="#DejaVuSans-6c" x="962.988281"/>
    </g>
   </g>
   <g id="legend_1">
    <g id="patch_7">
     <path d="M 110.98125 305.721875 
L 386.433438 305.721875 
Q 389.233438 305.721875 389.233438 302.921875 
L 389.233438 32.118125 
Q 389.233438 29.318125 386.433438 29.318125 
L 110.98125 29.318125 
Q 108.18125 29.318125 108.18125 32.118125 
L 108.18125 302.921875 
Q 108.18125 305.721875 110.98125 305.721875 
z
" style="fill: #ffffff; opacity: 0.8; stroke: #cccccc; stroke-linejoin: miter"/>
    </g>
    <g id="line2d_28">
     <path d="M 113.78125 40.655937 
L 127.78125 40.655937 
L 141.78125 40.655937 
" style="fill: none; stroke: #008000; stroke-width: 1.5; stroke-linecap: square"/>
    </g>
    <g id="text_18">
     <!-- OMP_GUIDED_MONOTONIC -->
     <g transform="translate(152.98125 45.555937) scale(0.14 -0.14)">
      <defs>
       <path id="DejaVuSans-4f" d="M 2522 4238 
Q 1834 4238 1429 3725 
Q 1025 3213 1025 2328 
Q 1025 1447 1429 934 
Q 1834 422 2522 422 
Q 3209 422 3611 934 
Q 4013 1447 4013 2328 
Q 4013 3213 3611 3725 
Q 3209 4238 2522 4238 
z
M 2522 4750 
Q 3503 4750 4090 4092 
Q 4678 3434 4678 2328 
Q 4678 1225 4090 567 
Q 3503 -91 2522 -91 
Q 1538 -91 948 565 
Q 359 1222 359 2328 
Q 359 3434 948 4092 
Q 1538 4750 2522 4750 
z
" transform="scale(0.015625)"/>
       <path id="DejaVuSans-4d" d="M 628 4666 
L 1569 4666 
L 2759 1491 
L 3956 4666 
L 4897 4666 
L 4897 0 
L 4281 0 
L 4281 4097 
L 3078 897 
L 2444 897 
L 1241 4097 
L 1241 0 
L 628 0 
L 628 4666 
z
" transform="scale(0.015625)"/>
       <path id="DejaVuSans-50" d="M 1259 4147 
L 1259 2394 
L 2053 2394 
Q 2494 2394 2734 2622 
Q 2975 2850 2975 3272 
Q 2975 3691 2734 3919 
Q 2494 4147 2053 4147 
L 1259 4147 
z
M 628 4666 
L 2053 4666 
Q 2838 4666 3239 4311 
Q 3641 3956 3641 3272 
Q 3641 2581 3239 2228 
Q 2838 1875 2053 1875 
L 1259 1875 
L 1259 0 
L 628 0 
L 628 4666 
z
" transform="scale(0.015625)"/>
       <path id="DejaVuSans-5f" d="M 3263 -1063 
L 3263 -1509 
L -63 -1509 
L -63 -1063 
L 3263 -1063 
z
" transform="scale(0.015625)"/>
       <path id="DejaVuSans-47" d="M 3809 666 
L 3809 1919 
L 2778 1919 
L 2778 2438 
L 4434 2438 
L 4434 434 
Q 4069 175 3628 42 
Q 3188 -91 2688 -91 
Q 1594 -91 976 548 
Q 359 1188 359 2328 
Q 359 3472 976 4111 
Q 1594 4750 2688 4750 
Q 3144 4750 3555 4637 
Q 3966 4525 4313 4306 
L 4313 3634 
Q 3963 3931 3569 4081 
Q 3175 4231 2741 4231 
Q 1884 4231 1454 3753 
Q 1025 3275 1025 2328 
Q 1025 1384 1454 906 
Q 1884 428 2741 428 
Q 3075 428 3337 486 
Q 3600 544 3809 666 
z
" transform="scale(0.015625)"/>
       <path id="DejaVuSans-55" d="M 556 4666 
L 1191 4666 
L 1191 1831 
Q 1191 1081 1462 751 
Q 1734 422 2344 422 
Q 2950 422 3222 751 
Q 3494 1081 3494 1831 
L 3494 4666 
L 4128 4666 
L 4128 1753 
Q 4128 841 3676 375 
Q 3225 -91 2344 -91 
Q 1459 -91 1007 375 
Q 556 841 556 1753 
L 556 4666 
z
" transform="scale(0.015625)"/>
       <path id="DejaVuSans-44" d="M 1259 4147 
L 1259 519 
L 2022 519 
Q 2988 519 3436 956 
Q 3884 1394 3884 2338 
Q 3884 3275 3436 3711 
Q 2988 4147 2022 4147 
L 1259 4147 
z
M 628 4666 
L 1925 4666 
Q 3281 4666 3915 4102 
Q 4550 3538 4550 2338 
Q 4550 1131 3912 565 
Q 3275 0 1925 0 
L 628 0 
L 628 4666 
z
" transform="scale(0.015625)"/>
       <path id="DejaVuSans-45" d="M 628 4666 
L 3578 4666 
L 3578 4134 
L 1259 4134 
L 1259 2753 
L 3481 2753 
L 3481 2222 
L 1259 2222 
L 1259 531 
L 3634 531 
L 3634 0 
L 628 0 
L 628 4666 
z
" transform="scale(0.015625)"/>
       <path id="DejaVuSans-4e" d="M 628 4666 
L 1478 4666 
L 3547 763 
L 3547 4666 
L 4159 4666 
L 4159 0 
L 3309 0 
L 1241 3903 
L 1241 0 
L 628 0 
L 628 4666 
z
" transform="scale(0.015625)"/>
       <path id="DejaVuSans-54" d="M -19 4666 
L 3928 4666 
L 3928 4134 
L 2272 4134 
L 2272 0 
L 1638 0 
L 1638 4134 
L -19 4134 
L -19 4666 
z
" transform="scale(0.015625)"/>
      </defs>
      <use xlink:href="#DejaVuSans-4f"/>
      <use xlink:href="#DejaVuSans-4d" x="78.710938"/>
      <use xlink:href="#DejaVuSans-50" x="164.990234"/>
      <use xlink:href="#DejaVuSans-5f" x="225.292969"/>
      <use xlink:href="#DejaVuSans-47" x="275.292969"/>
      <use xlink:href="#DejaVuSans-55" x="352.783203"/>
      <use xlink:href="#DejaVuSans-49" x="425.976562"/>
      <use xlink:href="#DejaVuSans-44" x="455.46875"/>
      <use xlink:href="#DejaVuSans-45" x="532.470703"/>
      <use xlink:href="#DejaVuSans-44" x="595.654297"/>
      <use xlink:href="#DejaVuSans-5f" x="672.65625"/>
      <use xlink:href="#DejaVuSans-4d" x="722.65625"/>
      <use xlink:href="#DejaVuSans-4f" x="808.935547"/>
      <use xlink:href="#DejaVuSans-4e" x="887.646484"/>
      <use xlink:href="#DejaVuSans-4f" x="962.451172"/>
      <use xlink:href="#DejaVuSans-54" x="1041.162109"/>
      <use xlink:href="#DejaVuSans-4f" x="1102.246094"/>
      <use xlink:href="#DejaVuSans-4e" x="1180.957031"/>
      <use xlink:href="#DejaVuSans-49" x="1255.761719"/>
      <use xlink:href="#DejaVuSans-43" x="1285.253906"/>
     </g>
    </g>
    <g id="line2d_29">
     <path d="M 113.78125 61.594687 
L 127.78125 61.594687 
L 141.78125 61.594687 
" style="fill: none; stroke: #ff0000; stroke-width: 1.5; stroke-linecap: square"/>
    </g>
    <g id="text_19">
     <!-- OMP_DYNAMIC_MONOTONIC -->
     <g transform="translate(152.98125 66.494687) scale(0.14 -0.14)">
      <defs>
       <path id="DejaVuSans-59" d="M -13 4666 
L 666 4666 
L 1959 2747 
L 3244 4666 
L 3922 4666 
L 2272 2222 
L 2272 0 
L 1638 0 
L 1638 2222 
L -13 4666 
z
" transform="scale(0.015625)"/>
       <path id="DejaVuSans-41" d="M 2188 4044 
L 1331 1722 
L 3047 1722 
L 2188 4044 
z
M 1831 4666 
L 2547 4666 
L 4325 0 
L 3669 0 
L 3244 1197 
L 1141 1197 
L 716 0 
L 50 0 
L 1831 4666 
z
" transform="scale(0.015625)"/>
      </defs>
      <use xlink:href="#DejaVuSans-4f"/>
      <use xlink:href="#DejaVuSans-4d" x="78.710938"/>
      <use xlink:href="#DejaVuSans-50" x="164.990234"/>
      <use xlink:href="#DejaVuSans-5f" x="225.292969"/>
      <use xlink:href="#DejaVuSans-44" x="275.292969"/>
      <use xlink:href="#DejaVuSans-59" x="346.794922"/>
      <use xlink:href="#DejaVuSans-4e" x="407.878906"/>
      <use xlink:href="#DejaVuSans-41" x="482.683594"/>
      <use xlink:href="#DejaVuSans-4d" x="551.091797"/>
      <use xlink:href="#DejaVuSans-49" x="637.371094"/>
      <use xlink:href="#DejaVuSans-43" x="666.863281"/>
      <use xlink:href="#DejaVuSans-5f" x="736.6875"/>
      <use xlink:href="#DejaVuSans-4d" x="786.6875"/>
      <use xlink:href="#DejaVuSans-4f" x="872.966797"/>
      <use xlink:href="#DejaVuSans-4e" x="951.677734"/>
      <use xlink:href="#DejaVuSans-4f" x="1026.482422"/>
      <use xlink:href="#DejaVuSans-54" x="1105.193359"/>
      <use xlink:href="#DejaVuSans-4f" x="1166.277344"/>
      <use xlink:href="#DejaVuSans-4e" x="1244.988281"/>
      <use xlink:href="#DejaVuSans-49" x="1319.792969"/>
      <use xlink:href="#DejaVuSans-43" x="1349.285156"/>
     </g>
    </g>
    <g id="line2d_30">
     <path d="M 113.78125 82.533437 
L 127.78125 82.533437 
L 141.78125 82.533437 
" style="fill: none; stroke: #00bfbf; stroke-width: 1.5; stroke-linecap: square"/>
    </g>
    <g id="text_20">
     <!-- OMP_GUIDED_NONMONOTONIC -->
     <g transform="translate(152.98125 87.433437) scale(0.14 -0.14)">
      <use xlink:href="#DejaVuSans-4f"/>
      <use xlink:href="#DejaVuSans-4d" x="78.710938"/>
      <use xlink:href="#DejaVuSans-50" x="164.990234"/>
      <use xlink:href="#DejaVuSans-5f" x="225.292969"/>
      <use xlink:href="#DejaVuSans-47" x="275.292969"/>
      <use xlink:href="#DejaVuSans-55" x="352.783203"/>
      <use xlink:href="#DejaVuSans-49" x="425.976562"/>
      <use xlink:href="#DejaVuSans-44" x="455.46875"/>
      <use xlink:href="#DejaVuSans-45" x="532.470703"/>
      <use xlink:href="#DejaVuSans-44" x="595.654297"/>
      <use xlink:href="#DejaVuSans-5f" x="672.65625"/>
      <use xlink:href="#DejaVuSans-4e" x="722.65625"/>
      <use xlink:href="#DejaVuSans-4f" x="797.460938"/>
      <use xlink:href="#DejaVuSans-4e" x="876.171875"/>
      <use xlink:href="#DejaVuSans-4d" x="950.976562"/>
      <use xlink:href="#DejaVuSans-4f" x="1037.255859"/>
      <use xlink:href="#DejaVuSans-4e" x="1115.966797"/>
      <use xlink:href="#DejaVuSans-4f" x="1190.771484"/>
      <use xlink:href="#DejaVuSans-54" x="1269.482422"/>
      <use xlink:href="#DejaVuSans-4f" x="1330.566406"/>
      <use xlink:href="#DejaVuSans-4e" x="1409.277344"/>
      <use xlink:href="#DejaVuSans-49" x="1484.082031"/>
      <use xlink:href="#DejaVuSans-43" x="1513.574219"/>
     </g>
    </g>
    <g id="line2d_31">
     <path d="M 113.78125 103.472187 
L 127.78125 103.472187 
L 141.78125 103.472187 
" style="fill: none; stroke: #bf00bf; stroke-width: 1.5; stroke-linecap: square"/>
    </g>
    <g id="text_21">
     <!-- OMP_DYNAMIC_NONMONOTONIC -->
     <g transform="translate(152.98125 108.372187) scale(0.14 -0.14)">
      <use xlink:href="#DejaVuSans-4f"/>
      <use xlink:href="#DejaVuSans-4d" x="78.710938"/>
      <use xlink:href="#DejaVuSans-50" x="164.990234"/>
      <use xlink:href="#DejaVuSans-5f" x="225.292969"/>
      <use xlink:href="#DejaVuSans-44" x="275.292969"/>
      <use xlink:href="#DejaVuSans-59" x="346.794922"/>
      <use xlink:href="#DejaVuSans-4e" x="407.878906"/>
      <use xlink:href="#DejaVuSans-41" x="482.683594"/>
      <use xlink:href="#DejaVuSans-4d" x="551.091797"/>
      <use xlink:href="#DejaVuSans-49" x="637.371094"/>
      <use xlink:href="#DejaVuSans-43" x="666.863281"/>
      <use xlink:href="#DejaVuSans-5f" x="736.6875"/>
      <use xlink:href="#DejaVuSans-4e" x="786.6875"/>
      <use xlink:href="#DejaVuSans-4f" x="861.492188"/>
      <use xlink:href="#DejaVuSans-4e" x="940.203125"/>
      <use xlink:href="#DejaVuSans-4d" x="1015.007812"/>
      <use xlink:href="#DejaVuSans-4f" x="1101.287109"/>
      <use xlink:href="#DejaVuSans-4e" x="1179.998047"/>
      <use xlink:href="#DejaVuSans-4f" x="1254.802734"/>
      <use xlink:href="#DejaVuSans-54" x="1333.513672"/>
      <use xlink:href="#DejaVuSans-4f" x="1394.597656"/>
      <use xlink:href="#DejaVuSans-4e" x="1473.308594"/>
      <use xlink:href="#DejaVuSans-49" x="1548.113281"/>
      <use xlink:href="#DejaVuSans-43" x="1577.605469"/>
     </g>
    </g>
    <g id="line2d_32">
     <path d="M 113.78125 124.410937 
L 127.78125 124.410937 
L 141.78125 124.410937 
" style="fill: none; stroke: #000000; stroke-width: 1.5; stroke-linecap: square"/>
    </g>
    <g id="text_22">
     <!-- OMP_STATIC -->
     <g transform="translate(152.98125 129.310937) scale(0.14 -0.14)">
      <use xlink:href="#DejaVuSans-4f"/>
      <use xlink:href="#DejaVuSans-4d" x="78.710938"/>
      <use xlink:href="#DejaVuSans-50" x="164.990234"/>
      <use xlink:href="#DejaVuSans-5f" x="225.292969"/>
      <use xlink:href="#DejaVuSans-53" x="275.292969"/>
      <use xlink:href="#DejaVuSans-54" x="338.769531"/>
      <use xlink:href="#DejaVuSans-41" x="392.103516"/>
      <use xlink:href="#DejaVuSans-54" x="452.761719"/>
      <use xlink:href="#DejaVuSans-49" x="513.845703"/>
      <use xlink:href="#DejaVuSans-43" x="543.337891"/>
     </g>
    </g>
    <g id="line2d_33">
     <path d="M 113.78125 145.349687 
L 127.78125 145.349687 
L 141.78125 145.349687 
" style="fill: none; stroke-dasharray: 5.55,2.4; stroke-dashoffset: 0; stroke: #0000ff; stroke-width: 1.5"/>
    </g>
    <g id="text_23">
     <!-- TBB_AUTO -->
     <g transform="translate(152.98125 150.249687) scale(0.14 -0.14)">
      <defs>
       <path id="DejaVuSans-42" d="M 1259 2228 
L 1259 519 
L 2272 519 
Q 2781 519 3026 730 
Q 3272 941 3272 1375 
Q 3272 1813 3026 2020 
Q 2781 2228 2272 2228 
L 1259 2228 
z
M 1259 4147 
L 1259 2741 
L 2194 2741 
Q 2656 2741 2882 2914 
Q 3109 3088 3109 3444 
Q 3109 3797 2882 3972 
Q 2656 4147 2194 4147 
L 1259 4147 
z
M 628 4666 
L 2241 4666 
Q 2963 4666 3353 4366 
Q 3744 4066 3744 3513 
Q 3744 3084 3544 2831 
Q 3344 2578 2956 2516 
Q 3422 2416 3680 2098 
Q 3938 1781 3938 1306 
Q 3938 681 3513 340 
Q 3088 0 2303 0 
L 628 0 
L 628 4666 
z
" transform="scale(0.015625)"/>
      </defs>
      <use xlink:href="#DejaVuSans-54"/>
      <use xlink:href="#DejaVuSans-42" x="61.083984"/>
      <use xlink:href="#DejaVuSans-42" x="129.6875"/>
      <use xlink:href="#DejaVuSans-5f" x="198.291016"/>
      <use xlink:href="#DejaVuSans-41" x="248.291016"/>
      <use xlink:href="#DejaVuSans-55" x="316.699219"/>
      <use xlink:href="#DejaVuSans-54" x="389.892578"/>
      <use xlink:href="#DejaVuSans-4f" x="450.976562"/>
     </g>
    </g>
    <g id="line2d_34">
     <path d="M 113.78125 166.288437 
L 127.78125 166.288437 
L 141.78125 166.288437 
" style="fill: none; stroke-dasharray: 5.55,2.4; stroke-dashoffset: 0; stroke: #008000; stroke-width: 1.5"/>
    </g>
    <g id="text_24">
     <!-- TBB_CONST_AFFINITY -->
     <g transform="translate(152.98125 171.188437) scale(0.14 -0.14)">
      <defs>
       <path id="DejaVuSans-46" d="M 628 4666 
L 3309 4666 
L 3309 4134 
L 1259 4134 
L 1259 2759 
L 3109 2759 
L 3109 2228 
L 1259 2228 
L 1259 0 
L 628 0 
L 628 4666 
z
" transform="scale(0.015625)"/>
      </defs>
      <use xlink:href="#DejaVuSans-54"/>
      <use xlink:href="#DejaVuSans-42" x="61.083984"/>
      <use xlink:href="#DejaVuSans-42" x="129.6875"/>
      <use xlink:href="#DejaVuSans-5f" x="198.291016"/>
      <use xlink:href="#DejaVuSans-43" x="248.291016"/>
      <use xlink:href="#DejaVuSans-4f" x="318.115234"/>
      <use xlink:href="#DejaVuSans-4e" x="396.826172"/>
      <use xlink:href="#DejaVuSans-53" x="471.630859"/>
      <use xlink:href="#DejaVuSans-54" x="535.107422"/>
      <use xlink:href="#DejaVuSans-5f" x="596.191406"/>
      <use xlink:href="#DejaVuSans-41" x="646.191406"/>
      <use xlink:href="#DejaVuSans-46" x="714.599609"/>
      <use xlink:href="#DejaVuSans-46" x="772.119141"/>
      <use xlink:href="#DejaVuSans-49" x="829.638672"/>
      <use xlink:href="#DejaVuSans-4e" x="859.130859"/>
      <use xlink:href="#DejaVuSans-49" x="933.935547"/>
      <use xlink:href="#DejaVuSans-54" x="963.427734"/>
      <use xlink:href="#DejaVuSans-59" x="1024.511719"/>
     </g>
    </g>
    <g id="line2d_35">
     <path d="M 113.78125 187.227187 
L 127.78125 187.227187 
L 141.78125 187.227187 
" style="fill: none; stroke-dasharray: 5.55,2.4; stroke-dashoffset: 0; stroke: #ff0000; stroke-width: 1.5"/>
    </g>
    <g id="text_25">
     <!-- TBB_SIMPLE -->
     <g transform="translate(152.98125 192.127187) scale(0.14 -0.14)">
      <defs>
       <path id="DejaVuSans-4c" d="M 628 4666 
L 1259 4666 
L 1259 531 
L 3531 531 
L 3531 0 
L 628 0 
L 628 4666 
z
" transform="scale(0.015625)"/>
      </defs>
      <use xlink:href="#DejaVuSans-54"/>
      <use xlink:href="#DejaVuSans-42" x="61.083984"/>
      <use xlink:href="#DejaVuSans-42" x="129.6875"/>
      <use xlink:href="#DejaVuSans-5f" x="198.291016"/>
      <use xlink:href="#DejaVuSans-53" x="248.291016"/>
      <use xlink:href="#DejaVuSans-49" x="311.767578"/>
      <use xlink:href="#DejaVuSans-4d" x="341.259766"/>
      <use xlink:href="#DejaVuSans-50" x="427.539062"/>
      <use xlink:href="#DejaVuSans-4c" x="487.841797"/>
      <use xlink:href="#DejaVuSans-45" x="543.554688"/>
     </g>
    </g>
    <g id="line2d_36">
     <path d="M 113.78125 208.165937 
L 127.78125 208.165937 
L 141.78125 208.165937 
" style="fill: none; stroke-dasharray: 5.55,2.4; stroke-dashoffset: 0; stroke: #00bfbf; stroke-width: 1.5"/>
    </g>
    <g id="text_26">
     <!-- TBB_AFFINITY -->
     <g transform="translate(152.98125 213.065937) scale(0.14 -0.14)">
      <use xlink:href="#DejaVuSans-54"/>
      <use xlink:href="#DejaVuSans-42" x="61.083984"/>
      <use xlink:href="#DejaVuSans-42" x="129.6875"/>
      <use xlink:href="#DejaVuSans-5f" x="198.291016"/>
      <use xlink:href="#DejaVuSans-41" x="248.291016"/>
      <use xlink:href="#DejaVuSans-46" x="316.699219"/>
      <use xlink:href="#DejaVuSans-46" x="374.21875"/>
      <use xlink:href="#DejaVuSans-49" x="431.738281"/>
      <use xlink:href="#DejaVuSans-4e" x="461.230469"/>
      <use xlink:href="#DejaVuSans-49" x="536.035156"/>
      <use xlink:href="#DejaVuSans-54" x="565.527344"/>
      <use xlink:href="#DejaVuSans-59" x="626.611328"/>
     </g>
    </g>
    <g id="line2d_37">
     <path d="M 113.78125 229.104687 
L 127.78125 229.104687 
L 141.78125 229.104687 
" style="fill: none; stroke-dasharray: 5.55,2.4; stroke-dashoffset: 0; stroke: #bf00bf; stroke-width: 1.5"/>
    </g>
    <g id="text_27">
     <!-- EIGEN_SIMPLE -->
     <g transform="translate(152.98125 234.004687) scale(0.14 -0.14)">
      <use xlink:href="#DejaVuSans-45"/>
      <use xlink:href="#DejaVuSans-49" x="63.183594"/>
      <use xlink:href="#DejaVuSans-47" x="92.675781"/>
      <use xlink:href="#DejaVuSans-45" x="170.166016"/>
      <use xlink:href="#DejaVuSans-4e" x="233.349609"/>
      <use xlink:href="#DejaVuSans-5f" x="308.154297"/>
      <use xlink:href="#DejaVuSans-53" x="358.154297"/>
      <use xlink:href="#DejaVuSans-49" x="421.630859"/>
      <use xlink:href="#DejaVuSans-4d" x="451.123047"/>
      <use xlink:href="#DejaVuSans-50" x="537.402344"/>
      <use xlink:href="#DejaVuSans-4c" x="597.705078"/>
      <use xlink:href="#DejaVuSans-45" x="653.417969"/>
     </g>
    </g>
    <g id="line2d_38">
     <path d="M 113.78125 250.043437 
L 127.78125 250.043437 
L 141.78125 250.043437 
" style="fill: none; stroke-dasharray: 5.55,2.4; stroke-dashoffset: 0; stroke: #000000; stroke-width: 1.5"/>
    </g>
    <g id="text_28">
     <!-- EIGEN_TIMESPAN_GRAINSIZE -->
     <g transform="translate(152.98125 254.943437) scale(0.14 -0.14)">
      <defs>
       <path id="DejaVuSans-52" d="M 2841 2188 
Q 3044 2119 3236 1894 
Q 3428 1669 3622 1275 
L 4263 0 
L 3584 0 
L 2988 1197 
Q 2756 1666 2539 1819 
Q 2322 1972 1947 1972 
L 1259 1972 
L 1259 0 
L 628 0 
L 628 4666 
L 2053 4666 
Q 2853 4666 3247 4331 
Q 3641 3997 3641 3322 
Q 3641 2881 3436 2590 
Q 3231 2300 2841 2188 
z
M 1259 4147 
L 1259 2491 
L 2053 2491 
Q 2509 2491 2742 2702 
Q 2975 2913 2975 3322 
Q 2975 3731 2742 3939 
Q 2509 4147 2053 4147 
L 1259 4147 
z
" transform="scale(0.015625)"/>
       <path id="DejaVuSans-5a" d="M 359 4666 
L 4025 4666 
L 4025 4184 
L 1075 531 
L 4097 531 
L 4097 0 
L 288 0 
L 288 481 
L 3238 4134 
L 359 4134 
L 359 4666 
z
" transform="scale(0.015625)"/>
      </defs>
      <use xlink:href="#DejaVuSans-45"/>
      <use xlink:href="#DejaVuSans-49" x="63.183594"/>
      <use xlink:href="#DejaVuSans-47" x="92.675781"/>
      <use xlink:href="#DejaVuSans-45" x="170.166016"/>
      <use xlink:href="#DejaVuSans-4e" x="233.349609"/>
      <use xlink:href="#DejaVuSans-5f" x="308.154297"/>
      <use xlink:href="#DejaVuSans-54" x="358.154297"/>
      <use xlink:href="#DejaVuSans-49" x="419.238281"/>
      <use xlink:href="#DejaVuSans-4d" x="448.730469"/>
      <use xlink:href="#DejaVuSans-45" x="535.009766"/>
      <use xlink:href="#DejaVuSans-53" x="598.193359"/>
      <use xlink:href="#DejaVuSans-50" x="661.669922"/>
      <use xlink:href="#DejaVuSans-41" x="715.597656"/>
      <use xlink:href="#DejaVuSans-4e" x="784.005859"/>
      <use xlink:href="#DejaVuSans-5f" x="858.810547"/>
      <use xlink:href="#DejaVuSans-47" x="908.810547"/>
      <use xlink:href="#DejaVuSans-52" x="986.300781"/>
      <use xlink:href="#DejaVuSans-41" x="1051.783203"/>
      <use xlink:href="#DejaVuSans-49" x="1120.191406"/>
      <use xlink:href="#DejaVuSans-4e" x="1149.683594"/>
      <use xlink:href="#DejaVuSans-53" x="1224.488281"/>
      <use xlink:href="#DejaVuSans-49" x="1287.964844"/>
      <use xlink:href="#DejaVuSans-5a" x="1317.457031"/>
      <use xlink:href="#DejaVuSans-45" x="1385.962891"/>
     </g>
    </g>
    <g id="line2d_39">
     <path d="M 113.78125 270.982188 
L 127.78125 270.982188 
L 141.78125 270.982188 
" style="fill: none; stroke-dasharray: 9.6,2.4,1.5,2.4; stroke-dashoffset: 0; stroke: #0000ff; stroke-width: 1.5"/>
    </g>
    <g id="text_29">
     <!-- EIGEN_STATIC -->
     <g transform="translate(152.98125 275.882187) scale(0.14 -0.14)">
      <use xlink:href="#DejaVuSans-45"/>
      <use xlink:href="#DejaVuSans-49" x="63.183594"/>
      <use xlink:href="#DejaVuSans-47" x="92.675781"/>
      <use xlink:href="#DejaVuSans-45" x="170.166016"/>
      <use xlink:href="#DejaVuSans-4e" x="233.349609"/>
      <use xlink:href="#DejaVuSans-5f" x="308.154297"/>
      <use xlink:href="#DejaVuSans-53" x="358.154297"/>
      <use xlink:href="#DejaVuSans-54" x="421.630859"/>
      <use xlink:href="#DejaVuSans-41" x="474.964844"/>
      <use xlink:href="#DejaVuSans-54" x="535.623047"/>
      <use xlink:href="#DejaVuSans-49" x="596.707031"/>
      <use xlink:href="#DejaVuSans-43" x="626.199219"/>
     </g>
    </g>
    <g id="line2d_40">
     <path d="M 113.78125 291.920937 
L 127.78125 291.920937 
L 141.78125 291.920937 
" style="fill: none; stroke-dasharray: 9.6,2.4,1.5,2.4; stroke-dashoffset: 0; stroke: #008000; stroke-width: 1.5"/>
    </g>
    <g id="text_30">
     <!-- EIGEN_TIMESPAN -->
     <g transform="translate(152.98125 296.820937) scale(0.14 -0.14)">
      <use xlink:href="#DejaVuSans-45"/>
      <use xlink:href="#DejaVuSans-49" x="63.183594"/>
      <use xlink:href="#DejaVuSans-47" x="92.675781"/>
      <use xlink:href="#DejaVuSans-45" x="170.166016"/>
      <use xlink:href="#DejaVuSans-4e" x="233.349609"/>
      <use xlink:href="#DejaVuSans-5f" x="308.154297"/>
      <use xlink:href="#DejaVuSans-54" x="358.154297"/>
      <use xlink:href="#DejaVuSans-49" x="419.238281"/>
      <use xlink:href="#DejaVuSans-4d" x="448.730469"/>
      <use xlink:href="#DejaVuSans-45" x="535.009766"/>
      <use xlink:href="#DejaVuSans-53" x="598.193359"/>
      <use xlink:href="#DejaVuSans-50" x="661.669922"/>
      <use xlink:href="#DejaVuSans-41" x="715.597656"/>
      <use xlink:href="#DejaVuSans-4e" x="784.005859"/>
     </g>
    </g>
   </g>
  </g>
 </g>
 <defs>
  <clipPath id="p43286d6bc3">
   <rect x="101.18125" y="22.318125" width="1004.4" height="332.64"/>
  </clipPath>
 </defs>
</svg>
