<?xml version="1.0" encoding="utf-8" standalone="no"?>
<!DOCTYPE svg PUBLIC "-//W3C//DTD SVG 1.1//EN"
  "http://www.w3.org/Graphics/SVG/1.1/DTD/svg11.dtd">
<svg xmlns:xlink="http://www.w3.org/1999/xlink" width="1138.23125pt" height="411.870625pt" viewBox="0 0 1138.23125 411.870625" xmlns="http://www.w3.org/2000/svg" version="1.1">
 <metadata>
  <rdf:RDF xmlns:dc="http://purl.org/dc/elements/1.1/" xmlns:cc="http://creativecommons.org/ns#" xmlns:rdf="http://www.w3.org/1999/02/22-rdf-syntax-ns#">
   <cc:Work>
    <dc:type rdf:resource="http://purl.org/dc/dcmitype/StillImage"/>
    <dc:date>2023-04-08T21:33:11.001423</dc:date>
    <dc:format>image/svg+xml</dc:format>
    <dc:creator>
     <cc:Agent>
      <dc:title>Matplotlib v3.6.2, https://matplotlib.org/</dc:title>
     </cc:Agent>
    </dc:creator>
   </cc:Work>
  </rdf:RDF>
 </metadata>
 <defs>
  <style type="text/css">*{stroke-linejoin: round; stroke-linecap: butt}</style>
 </defs>
 <g id="figure_1">
  <g id="patch_1">
   <path d="M 0 411.870625 
L 1138.23125 411.870625 
L 1138.23125 0 
L 0 0 
z
" style="fill: #ffffff"/>
  </g>
  <g id="axes_1">
   <g id="patch_2">
    <path d="M 126.63125 354.958125 
L 1131.03125 354.958125 
L 1131.03125 22.318125 
L 126.63125 22.318125 
z
" style="fill: #ffffff"/>
   </g>
   <g id="matplotlib.axis_1">
    <g id="xtick_1">
     <g id="line2d_1">
      <defs>
       <path id="md2dc66157d" d="M 0 0 
L 0 3.5 
" style="stroke: #000000; stroke-width: 0.8"/>
      </defs>
      <g>
       <use xlink:href="#md2dc66157d" x="172.285795" y="354.958125" style="stroke: #000000; stroke-width: 0.8"/>
      </g>
     </g>
     <g id="text_1">
      <!-- 0 -->
      <g transform="translate(165.923295 377.155) scale(0.2 -0.2)">
       <defs>
        <path id="DejaVuSans-30" d="M 2034 4250 
Q 1547 4250 1301 3770 
Q 1056 3291 1056 2328 
Q 1056 1369 1301 889 
Q 1547 409 2034 409 
Q 2525 409 2770 889 
Q 3016 1369 3016 2328 
Q 3016 3291 2770 3770 
Q 2525 4250 2034 4250 
z
M 2034 4750 
Q 2819 4750 3233 4129 
Q 3647 3509 3647 2328 
Q 3647 1150 3233 529 
Q 2819 -91 2034 -91 
Q 1250 -91 836 529 
Q 422 1150 422 2328 
Q 422 3509 836 4129 
Q 1250 4750 2034 4750 
z
" transform="scale(0.015625)"/>
       </defs>
       <use xlink:href="#DejaVuSans-30"/>
      </g>
     </g>
    </g>
    <g id="xtick_2">
     <g id="line2d_2">
      <g>
       <use xlink:href="#md2dc66157d" x="364.515461" y="354.958125" style="stroke: #000000; stroke-width: 0.8"/>
      </g>
     </g>
     <g id="text_2">
      <!-- 20 -->
      <g transform="translate(351.790461 377.155) scale(0.2 -0.2)">
       <defs>
        <path id="DejaVuSans-32" d="M 1228 531 
L 3431 531 
L 3431 0 
L 469 0 
L 469 531 
Q 828 903 1448 1529 
Q 2069 2156 2228 2338 
Q 2531 2678 2651 2914 
Q 2772 3150 2772 3378 
Q 2772 3750 2511 3984 
Q 2250 4219 1831 4219 
Q 1534 4219 1204 4116 
Q 875 4013 500 3803 
L 500 4441 
Q 881 4594 1212 4672 
Q 1544 4750 1819 4750 
Q 2544 4750 2975 4387 
Q 3406 4025 3406 3419 
Q 3406 3131 3298 2873 
Q 3191 2616 2906 2266 
Q 2828 2175 2409 1742 
Q 1991 1309 1228 531 
z
" transform="scale(0.015625)"/>
       </defs>
       <use xlink:href="#DejaVuSans-32"/>
       <use xlink:href="#DejaVuSans-30" x="63.623047"/>
      </g>
     </g>
    </g>
    <g id="xtick_3">
     <g id="line2d_3">
      <g>
       <use xlink:href="#md2dc66157d" x="556.745126" y="354.958125" style="stroke: #000000; stroke-width: 0.8"/>
      </g>
     </g>
     <g id="text_3">
      <!-- 40 -->
      <g transform="translate(544.020126 377.155) scale(0.2 -0.2)">
       <defs>
        <path id="DejaVuSans-34" d="M 2419 4116 
L 825 1625 
L 2419 1625 
L 2419 4116 
z
M 2253 4666 
L 3047 4666 
L 3047 1625 
L 3713 1625 
L 3713 1100 
L 3047 1100 
L 3047 0 
L 2419 0 
L 2419 1100 
L 313 1100 
L 313 1709 
L 2253 4666 
z
" transform="scale(0.015625)"/>
       </defs>
       <use xlink:href="#DejaVuSans-34"/>
       <use xlink:href="#DejaVuSans-30" x="63.623047"/>
      </g>
     </g>
    </g>
    <g id="xtick_4">
     <g id="line2d_4">
      <g>
       <use xlink:href="#md2dc66157d" x="748.974791" y="354.958125" style="stroke: #000000; stroke-width: 0.8"/>
      </g>
     </g>
     <g id="text_4">
      <!-- 60 -->
      <g transform="translate(736.249791 377.155) scale(0.2 -0.2)">
       <defs>
        <path id="DejaVuSans-36" d="M 2113 2584 
Q 1688 2584 1439 2293 
Q 1191 2003 1191 1497 
Q 1191 994 1439 701 
Q 1688 409 2113 409 
Q 2538 409 2786 701 
Q 3034 994 3034 1497 
Q 3034 2003 2786 2293 
Q 2538 2584 2113 2584 
z
M 3366 4563 
L 3366 3988 
Q 3128 4100 2886 4159 
Q 2644 4219 2406 4219 
Q 1781 4219 1451 3797 
Q 1122 3375 1075 2522 
Q 1259 2794 1537 2939 
Q 1816 3084 2150 3084 
Q 2853 3084 3261 2657 
Q 3669 2231 3669 1497 
Q 3669 778 3244 343 
Q 2819 -91 2113 -91 
Q 1303 -91 875 529 
Q 447 1150 447 2328 
Q 447 3434 972 4092 
Q 1497 4750 2381 4750 
Q 2619 4750 2861 4703 
Q 3103 4656 3366 4563 
z
" transform="scale(0.015625)"/>
       </defs>
       <use xlink:href="#DejaVuSans-36"/>
       <use xlink:href="#DejaVuSans-30" x="63.623047"/>
      </g>
     </g>
    </g>
    <g id="xtick_5">
     <g id="line2d_5">
      <g>
       <use xlink:href="#md2dc66157d" x="941.204456" y="354.958125" style="stroke: #000000; stroke-width: 0.8"/>
      </g>
     </g>
     <g id="text_5">
      <!-- 80 -->
      <g transform="translate(928.479456 377.155) scale(0.2 -0.2)">
       <defs>
        <path id="DejaVuSans-38" d="M 2034 2216 
Q 1584 2216 1326 1975 
Q 1069 1734 1069 1313 
Q 1069 891 1326 650 
Q 1584 409 2034 409 
Q 2484 409 2743 651 
Q 3003 894 3003 1313 
Q 3003 1734 2745 1975 
Q 2488 2216 2034 2216 
z
M 1403 2484 
Q 997 2584 770 2862 
Q 544 3141 544 3541 
Q 544 4100 942 4425 
Q 1341 4750 2034 4750 
Q 2731 4750 3128 4425 
Q 3525 4100 3525 3541 
Q 3525 3141 3298 2862 
Q 3072 2584 2669 2484 
Q 3125 2378 3379 2068 
Q 3634 1759 3634 1313 
Q 3634 634 3220 271 
Q 2806 -91 2034 -91 
Q 1263 -91 848 271 
Q 434 634 434 1313 
Q 434 1759 690 2068 
Q 947 2378 1403 2484 
z
M 1172 3481 
Q 1172 3119 1398 2916 
Q 1625 2713 2034 2713 
Q 2441 2713 2670 2916 
Q 2900 3119 2900 3481 
Q 2900 3844 2670 4047 
Q 2441 4250 2034 4250 
Q 1625 4250 1398 4047 
Q 1172 3844 1172 3481 
z
" transform="scale(0.015625)"/>
       </defs>
       <use xlink:href="#DejaVuSans-38"/>
       <use xlink:href="#DejaVuSans-30" x="63.623047"/>
      </g>
     </g>
    </g>
    <g id="text_6">
     <!-- Index of thread (sorted by time of first task) -->
     <g transform="translate(408.710937 400.51125) scale(0.2 -0.2)">
      <defs>
       <path id="DejaVuSans-49" d="M 628 4666 
L 1259 4666 
L 1259 0 
L 628 0 
L 628 4666 
z
" transform="scale(0.015625)"/>
       <path id="DejaVuSans-6e" d="M 3513 2113 
L 3513 0 
L 2938 0 
L 2938 2094 
Q 2938 2591 2744 2837 
Q 2550 3084 2163 3084 
Q 1697 3084 1428 2787 
Q 1159 2491 1159 1978 
L 1159 0 
L 581 0 
L 581 3500 
L 1159 3500 
L 1159 2956 
Q 1366 3272 1645 3428 
Q 1925 3584 2291 3584 
Q 2894 3584 3203 3211 
Q 3513 2838 3513 2113 
z
" transform="scale(0.015625)"/>
       <path id="DejaVuSans-64" d="M 2906 2969 
L 2906 4863 
L 3481 4863 
L 3481 0 
L 2906 0 
L 2906 525 
Q 2725 213 2448 61 
Q 2172 -91 1784 -91 
Q 1150 -91 751 415 
Q 353 922 353 1747 
Q 353 2572 751 3078 
Q 1150 3584 1784 3584 
Q 2172 3584 2448 3432 
Q 2725 3281 2906 2969 
z
M 947 1747 
Q 947 1113 1208 752 
Q 1469 391 1925 391 
Q 2381 391 2643 752 
Q 2906 1113 2906 1747 
Q 2906 2381 2643 2742 
Q 2381 3103 1925 3103 
Q 1469 3103 1208 2742 
Q 947 2381 947 1747 
z
" transform="scale(0.015625)"/>
       <path id="DejaVuSans-65" d="M 3597 1894 
L 3597 1613 
L 953 1613 
Q 991 1019 1311 708 
Q 1631 397 2203 397 
Q 2534 397 2845 478 
Q 3156 559 3463 722 
L 3463 178 
Q 3153 47 2828 -22 
Q 2503 -91 2169 -91 
Q 1331 -91 842 396 
Q 353 884 353 1716 
Q 353 2575 817 3079 
Q 1281 3584 2069 3584 
Q 2775 3584 3186 3129 
Q 3597 2675 3597 1894 
z
M 3022 2063 
Q 3016 2534 2758 2815 
Q 2500 3097 2075 3097 
Q 1594 3097 1305 2825 
Q 1016 2553 972 2059 
L 3022 2063 
z
" transform="scale(0.015625)"/>
       <path id="DejaVuSans-78" d="M 3513 3500 
L 2247 1797 
L 3578 0 
L 2900 0 
L 1881 1375 
L 863 0 
L 184 0 
L 1544 1831 
L 300 3500 
L 978 3500 
L 1906 2253 
L 2834 3500 
L 3513 3500 
z
" transform="scale(0.015625)"/>
       <path id="DejaVuSans-20" transform="scale(0.015625)"/>
       <path id="DejaVuSans-6f" d="M 1959 3097 
Q 1497 3097 1228 2736 
Q 959 2375 959 1747 
Q 959 1119 1226 758 
Q 1494 397 1959 397 
Q 2419 397 2687 759 
Q 2956 1122 2956 1747 
Q 2956 2369 2687 2733 
Q 2419 3097 1959 3097 
z
M 1959 3584 
Q 2709 3584 3137 3096 
Q 3566 2609 3566 1747 
Q 3566 888 3137 398 
Q 2709 -91 1959 -91 
Q 1206 -91 779 398 
Q 353 888 353 1747 
Q 353 2609 779 3096 
Q 1206 3584 1959 3584 
z
" transform="scale(0.015625)"/>
       <path id="DejaVuSans-66" d="M 2375 4863 
L 2375 4384 
L 1825 4384 
Q 1516 4384 1395 4259 
Q 1275 4134 1275 3809 
L 1275 3500 
L 2222 3500 
L 2222 3053 
L 1275 3053 
L 1275 0 
L 697 0 
L 697 3053 
L 147 3053 
L 147 3500 
L 697 3500 
L 697 3744 
Q 697 4328 969 4595 
Q 1241 4863 1831 4863 
L 2375 4863 
z
" transform="scale(0.015625)"/>
       <path id="DejaVuSans-74" d="M 1172 4494 
L 1172 3500 
L 2356 3500 
L 2356 3053 
L 1172 3053 
L 1172 1153 
Q 1172 725 1289 603 
Q 1406 481 1766 481 
L 2356 481 
L 2356 0 
L 1766 0 
Q 1100 0 847 248 
Q 594 497 594 1153 
L 594 3053 
L 172 3053 
L 172 3500 
L 594 3500 
L 594 4494 
L 1172 4494 
z
" transform="scale(0.015625)"/>
       <path id="DejaVuSans-68" d="M 3513 2113 
L 3513 0 
L 2938 0 
L 2938 2094 
Q 2938 2591 2744 2837 
Q 2550 3084 2163 3084 
Q 1697 3084 1428 2787 
Q 1159 2491 1159 1978 
L 1159 0 
L 581 0 
L 581 4863 
L 1159 4863 
L 1159 2956 
Q 1366 3272 1645 3428 
Q 1925 3584 2291 3584 
Q 2894 3584 3203 3211 
Q 3513 2838 3513 2113 
z
" transform="scale(0.015625)"/>
       <path id="DejaVuSans-72" d="M 2631 2963 
Q 2534 3019 2420 3045 
Q 2306 3072 2169 3072 
Q 1681 3072 1420 2755 
Q 1159 2438 1159 1844 
L 1159 0 
L 581 0 
L 581 3500 
L 1159 3500 
L 1159 2956 
Q 1341 3275 1631 3429 
Q 1922 3584 2338 3584 
Q 2397 3584 2469 3576 
Q 2541 3569 2628 3553 
L 2631 2963 
z
" transform="scale(0.015625)"/>
       <path id="DejaVuSans-61" d="M 2194 1759 
Q 1497 1759 1228 1600 
Q 959 1441 959 1056 
Q 959 750 1161 570 
Q 1363 391 1709 391 
Q 2188 391 2477 730 
Q 2766 1069 2766 1631 
L 2766 1759 
L 2194 1759 
z
M 3341 1997 
L 3341 0 
L 2766 0 
L 2766 531 
Q 2569 213 2275 61 
Q 1981 -91 1556 -91 
Q 1019 -91 701 211 
Q 384 513 384 1019 
Q 384 1609 779 1909 
Q 1175 2209 1959 2209 
L 2766 2209 
L 2766 2266 
Q 2766 2663 2505 2880 
Q 2244 3097 1772 3097 
Q 1472 3097 1187 3025 
Q 903 2953 641 2809 
L 641 3341 
Q 956 3463 1253 3523 
Q 1550 3584 1831 3584 
Q 2591 3584 2966 3190 
Q 3341 2797 3341 1997 
z
" transform="scale(0.015625)"/>
       <path id="DejaVuSans-28" d="M 1984 4856 
Q 1566 4138 1362 3434 
Q 1159 2731 1159 2009 
Q 1159 1288 1364 580 
Q 1569 -128 1984 -844 
L 1484 -844 
Q 1016 -109 783 600 
Q 550 1309 550 2009 
Q 550 2706 781 3412 
Q 1013 4119 1484 4856 
L 1984 4856 
z
" transform="scale(0.015625)"/>
       <path id="DejaVuSans-73" d="M 2834 3397 
L 2834 2853 
Q 2591 2978 2328 3040 
Q 2066 3103 1784 3103 
Q 1356 3103 1142 2972 
Q 928 2841 928 2578 
Q 928 2378 1081 2264 
Q 1234 2150 1697 2047 
L 1894 2003 
Q 2506 1872 2764 1633 
Q 3022 1394 3022 966 
Q 3022 478 2636 193 
Q 2250 -91 1575 -91 
Q 1294 -91 989 -36 
Q 684 19 347 128 
L 347 722 
Q 666 556 975 473 
Q 1284 391 1588 391 
Q 1994 391 2212 530 
Q 2431 669 2431 922 
Q 2431 1156 2273 1281 
Q 2116 1406 1581 1522 
L 1381 1569 
Q 847 1681 609 1914 
Q 372 2147 372 2553 
Q 372 3047 722 3315 
Q 1072 3584 1716 3584 
Q 2034 3584 2315 3537 
Q 2597 3491 2834 3397 
z
" transform="scale(0.015625)"/>
       <path id="DejaVuSans-62" d="M 3116 1747 
Q 3116 2381 2855 2742 
Q 2594 3103 2138 3103 
Q 1681 3103 1420 2742 
Q 1159 2381 1159 1747 
Q 1159 1113 1420 752 
Q 1681 391 2138 391 
Q 2594 391 2855 752 
Q 3116 1113 3116 1747 
z
M 1159 2969 
Q 1341 3281 1617 3432 
Q 1894 3584 2278 3584 
Q 2916 3584 3314 3078 
Q 3713 2572 3713 1747 
Q 3713 922 3314 415 
Q 2916 -91 2278 -91 
Q 1894 -91 1617 61 
Q 1341 213 1159 525 
L 1159 0 
L 581 0 
L 581 4863 
L 1159 4863 
L 1159 2969 
z
" transform="scale(0.015625)"/>
       <path id="DejaVuSans-79" d="M 2059 -325 
Q 1816 -950 1584 -1140 
Q 1353 -1331 966 -1331 
L 506 -1331 
L 506 -850 
L 844 -850 
Q 1081 -850 1212 -737 
Q 1344 -625 1503 -206 
L 1606 56 
L 191 3500 
L 800 3500 
L 1894 763 
L 2988 3500 
L 3597 3500 
L 2059 -325 
z
" transform="scale(0.015625)"/>
       <path id="DejaVuSans-69" d="M 603 3500 
L 1178 3500 
L 1178 0 
L 603 0 
L 603 3500 
z
M 603 4863 
L 1178 4863 
L 1178 4134 
L 603 4134 
L 603 4863 
z
" transform="scale(0.015625)"/>
       <path id="DejaVuSans-6d" d="M 3328 2828 
Q 3544 3216 3844 3400 
Q 4144 3584 4550 3584 
Q 5097 3584 5394 3201 
Q 5691 2819 5691 2113 
L 5691 0 
L 5113 0 
L 5113 2094 
Q 5113 2597 4934 2840 
Q 4756 3084 4391 3084 
Q 3944 3084 3684 2787 
Q 3425 2491 3425 1978 
L 3425 0 
L 2847 0 
L 2847 2094 
Q 2847 2600 2669 2842 
Q 2491 3084 2119 3084 
Q 1678 3084 1418 2786 
Q 1159 2488 1159 1978 
L 1159 0 
L 581 0 
L 581 3500 
L 1159 3500 
L 1159 2956 
Q 1356 3278 1631 3431 
Q 1906 3584 2284 3584 
Q 2666 3584 2933 3390 
Q 3200 3197 3328 2828 
z
" transform="scale(0.015625)"/>
       <path id="DejaVuSans-6b" d="M 581 4863 
L 1159 4863 
L 1159 1991 
L 2875 3500 
L 3609 3500 
L 1753 1863 
L 3688 0 
L 2938 0 
L 1159 1709 
L 1159 0 
L 581 0 
L 581 4863 
z
" transform="scale(0.015625)"/>
       <path id="DejaVuSans-29" d="M 513 4856 
L 1013 4856 
Q 1481 4119 1714 3412 
Q 1947 2706 1947 2009 
Q 1947 1309 1714 600 
Q 1481 -109 1013 -844 
L 513 -844 
Q 928 -128 1133 580 
Q 1338 1288 1338 2009 
Q 1338 2731 1133 3434 
Q 928 4138 513 4856 
z
" transform="scale(0.015625)"/>
      </defs>
      <use xlink:href="#DejaVuSans-49"/>
      <use xlink:href="#DejaVuSans-6e" x="29.492188"/>
      <use xlink:href="#DejaVuSans-64" x="92.871094"/>
      <use xlink:href="#DejaVuSans-65" x="156.347656"/>
      <use xlink:href="#DejaVuSans-78" x="216.121094"/>
      <use xlink:href="#DejaVuSans-20" x="275.300781"/>
      <use xlink:href="#DejaVuSans-6f" x="307.087891"/>
      <use xlink:href="#DejaVuSans-66" x="368.269531"/>
      <use xlink:href="#DejaVuSans-20" x="403.474609"/>
      <use xlink:href="#DejaVuSans-74" x="435.261719"/>
      <use xlink:href="#DejaVuSans-68" x="474.470703"/>
      <use xlink:href="#DejaVuSans-72" x="537.849609"/>
      <use xlink:href="#DejaVuSans-65" x="576.712891"/>
      <use xlink:href="#DejaVuSans-61" x="638.236328"/>
      <use xlink:href="#DejaVuSans-64" x="699.515625"/>
      <use xlink:href="#DejaVuSans-20" x="762.992188"/>
      <use xlink:href="#DejaVuSans-28" x="794.779297"/>
      <use xlink:href="#DejaVuSans-73" x="833.792969"/>
      <use xlink:href="#DejaVuSans-6f" x="885.892578"/>
      <use xlink:href="#DejaVuSans-72" x="947.074219"/>
      <use xlink:href="#DejaVuSans-74" x="988.1875"/>
      <use xlink:href="#DejaVuSans-65" x="1027.396484"/>
      <use xlink:href="#DejaVuSans-64" x="1088.919922"/>
      <use xlink:href="#DejaVuSans-20" x="1152.396484"/>
      <use xlink:href="#DejaVuSans-62" x="1184.183594"/>
      <use xlink:href="#DejaVuSans-79" x="1247.660156"/>
      <use xlink:href="#DejaVuSans-20" x="1306.839844"/>
      <use xlink:href="#DejaVuSans-74" x="1338.626953"/>
      <use xlink:href="#DejaVuSans-69" x="1377.835938"/>
      <use xlink:href="#DejaVuSans-6d" x="1405.619141"/>
      <use xlink:href="#DejaVuSans-65" x="1503.03125"/>
      <use xlink:href="#DejaVuSans-20" x="1564.554688"/>
      <use xlink:href="#DejaVuSans-6f" x="1596.341797"/>
      <use xlink:href="#DejaVuSans-66" x="1657.523438"/>
      <use xlink:href="#DejaVuSans-20" x="1692.728516"/>
      <use xlink:href="#DejaVuSans-66" x="1724.515625"/>
      <use xlink:href="#DejaVuSans-69" x="1759.720703"/>
      <use xlink:href="#DejaVuSans-72" x="1787.503906"/>
      <use xlink:href="#DejaVuSans-73" x="1828.617188"/>
      <use xlink:href="#DejaVuSans-74" x="1880.716797"/>
      <use xlink:href="#DejaVuSans-20" x="1919.925781"/>
      <use xlink:href="#DejaVuSans-74" x="1951.712891"/>
      <use xlink:href="#DejaVuSans-61" x="1990.921875"/>
      <use xlink:href="#DejaVuSans-73" x="2052.201172"/>
      <use xlink:href="#DejaVuSans-6b" x="2104.300781"/>
      <use xlink:href="#DejaVuSans-29" x="2162.210938"/>
     </g>
    </g>
   </g>
   <g id="matplotlib.axis_2">
    <g id="ytick_1">
     <g id="line2d_6">
      <defs>
       <path id="mbe411ab57e" d="M 0 0 
L -3.5 0 
" style="stroke: #000000; stroke-width: 0.8"/>
      </defs>
      <g>
       <use xlink:href="#mbe411ab57e" x="126.63125" y="354.958125" style="stroke: #000000; stroke-width: 0.8"/>
      </g>
     </g>
     <g id="text_7">
      <!-- 0 -->
      <g transform="translate(106.90625 362.556563) scale(0.2 -0.2)">
       <use xlink:href="#DejaVuSans-30"/>
      </g>
     </g>
    </g>
    <g id="ytick_2">
     <g id="line2d_7">
      <g>
       <use xlink:href="#mbe411ab57e" x="126.63125" y="293.128439" style="stroke: #000000; stroke-width: 0.8"/>
      </g>
     </g>
     <g id="text_8">
      <!-- 200000 -->
      <g transform="translate(43.28125 300.726877) scale(0.2 -0.2)">
       <use xlink:href="#DejaVuSans-32"/>
       <use xlink:href="#DejaVuSans-30" x="63.623047"/>
       <use xlink:href="#DejaVuSans-30" x="127.246094"/>
       <use xlink:href="#DejaVuSans-30" x="190.869141"/>
       <use xlink:href="#DejaVuSans-30" x="254.492188"/>
       <use xlink:href="#DejaVuSans-30" x="318.115234"/>
      </g>
     </g>
    </g>
    <g id="ytick_3">
     <g id="line2d_8">
      <g>
       <use xlink:href="#mbe411ab57e" x="126.63125" y="231.298753" style="stroke: #000000; stroke-width: 0.8"/>
      </g>
     </g>
     <g id="text_9">
      <!-- 400000 -->
      <g transform="translate(43.28125 238.897191) scale(0.2 -0.2)">
       <use xlink:href="#DejaVuSans-34"/>
       <use xlink:href="#DejaVuSans-30" x="63.623047"/>
       <use xlink:href="#DejaVuSans-30" x="127.246094"/>
       <use xlink:href="#DejaVuSans-30" x="190.869141"/>
       <use xlink:href="#DejaVuSans-30" x="254.492188"/>
       <use xlink:href="#DejaVuSans-30" x="318.115234"/>
      </g>
     </g>
    </g>
    <g id="ytick_4">
     <g id="line2d_9">
      <g>
       <use xlink:href="#mbe411ab57e" x="126.63125" y="169.469068" style="stroke: #000000; stroke-width: 0.8"/>
      </g>
     </g>
     <g id="text_10">
      <!-- 600000 -->
      <g transform="translate(43.28125 177.067505) scale(0.2 -0.2)">
       <use xlink:href="#DejaVuSans-36"/>
       <use xlink:href="#DejaVuSans-30" x="63.623047"/>
       <use xlink:href="#DejaVuSans-30" x="127.246094"/>
       <use xlink:href="#DejaVuSans-30" x="190.869141"/>
       <use xlink:href="#DejaVuSans-30" x="254.492188"/>
       <use xlink:href="#DejaVuSans-30" x="318.115234"/>
      </g>
     </g>
    </g>
    <g id="ytick_5">
     <g id="line2d_10">
      <g>
       <use xlink:href="#mbe411ab57e" x="126.63125" y="107.639382" style="stroke: #000000; stroke-width: 0.8"/>
      </g>
     </g>
     <g id="text_11">
      <!-- 800000 -->
      <g transform="translate(43.28125 115.237819) scale(0.2 -0.2)">
       <use xlink:href="#DejaVuSans-38"/>
       <use xlink:href="#DejaVuSans-30" x="63.623047"/>
       <use xlink:href="#DejaVuSans-30" x="127.246094"/>
       <use xlink:href="#DejaVuSans-30" x="190.869141"/>
       <use xlink:href="#DejaVuSans-30" x="254.492188"/>
       <use xlink:href="#DejaVuSans-30" x="318.115234"/>
      </g>
     </g>
    </g>
    <g id="ytick_6">
     <g id="line2d_11">
      <g>
       <use xlink:href="#mbe411ab57e" x="126.63125" y="45.809696" style="stroke: #000000; stroke-width: 0.8"/>
      </g>
     </g>
     <g id="text_12">
      <!-- 1000000 -->
      <g transform="translate(30.55625 53.408133) scale(0.2 -0.2)">
       <defs>
        <path id="DejaVuSans-31" d="M 794 531 
L 1825 531 
L 1825 4091 
L 703 3866 
L 703 4441 
L 1819 4666 
L 2450 4666 
L 2450 531 
L 3481 531 
L 3481 0 
L 794 0 
L 794 531 
z
" transform="scale(0.015625)"/>
       </defs>
       <use xlink:href="#DejaVuSans-31"/>
       <use xlink:href="#DejaVuSans-30" x="63.623047"/>
       <use xlink:href="#DejaVuSans-30" x="127.246094"/>
       <use xlink:href="#DejaVuSans-30" x="190.869141"/>
       <use xlink:href="#DejaVuSans-30" x="254.492188"/>
       <use xlink:href="#DejaVuSans-30" x="318.115234"/>
       <use xlink:href="#DejaVuSans-30" x="381.738281"/>
      </g>
     </g>
    </g>
    <g id="text_13">
     <!-- Cycles -->
     <g transform="translate(22.396875 221.17875) rotate(-90) scale(0.2 -0.2)">
      <defs>
       <path id="DejaVuSans-43" d="M 4122 4306 
L 4122 3641 
Q 3803 3938 3442 4084 
Q 3081 4231 2675 4231 
Q 1875 4231 1450 3742 
Q 1025 3253 1025 2328 
Q 1025 1406 1450 917 
Q 1875 428 2675 428 
Q 3081 428 3442 575 
Q 3803 722 4122 1019 
L 4122 359 
Q 3791 134 3420 21 
Q 3050 -91 2638 -91 
Q 1578 -91 968 557 
Q 359 1206 359 2328 
Q 359 3453 968 4101 
Q 1578 4750 2638 4750 
Q 3056 4750 3426 4639 
Q 3797 4528 4122 4306 
z
" transform="scale(0.015625)"/>
       <path id="DejaVuSans-63" d="M 3122 3366 
L 3122 2828 
Q 2878 2963 2633 3030 
Q 2388 3097 2138 3097 
Q 1578 3097 1268 2742 
Q 959 2388 959 1747 
Q 959 1106 1268 751 
Q 1578 397 2138 397 
Q 2388 397 2633 464 
Q 2878 531 3122 666 
L 3122 134 
Q 2881 22 2623 -34 
Q 2366 -91 2075 -91 
Q 1284 -91 818 406 
Q 353 903 353 1747 
Q 353 2603 823 3093 
Q 1294 3584 2113 3584 
Q 2378 3584 2631 3529 
Q 2884 3475 3122 3366 
z
" transform="scale(0.015625)"/>
       <path id="DejaVuSans-6c" d="M 603 4863 
L 1178 4863 
L 1178 0 
L 603 0 
L 603 4863 
z
" transform="scale(0.015625)"/>
      </defs>
      <use xlink:href="#DejaVuSans-43"/>
      <use xlink:href="#DejaVuSans-79" x="69.824219"/>
      <use xlink:href="#DejaVuSans-63" x="129.003906"/>
      <use xlink:href="#DejaVuSans-6c" x="183.984375"/>
      <use xlink:href="#DejaVuSans-65" x="211.767578"/>
      <use xlink:href="#DejaVuSans-73" x="273.291016"/>
     </g>
    </g>
   </g>
   <g id="line2d_12">
    <path d="M 172.285795 353.184231 
L 181.897279 353.163828 
L 191.508762 353.091487 
L 201.120245 353.089632 
L 210.731728 353.085304 
L 220.343212 353.022856 
L 229.954695 353.005544 
L 239.566178 353.002452 
L 249.177661 353.002452 
L 258.789145 353.001834 
L 268.400628 352.998742 
L 278.012111 352.991323 
L 287.623594 352.990086 
L 297.235078 352.98885 
L 306.846561 352.984521 
L 316.458044 352.984521 
L 326.069528 352.983903 
L 335.681011 352.982048 
L 345.292494 352.979575 
L 354.903977 352.977102 
L 364.515461 352.975247 
L 374.126944 352.975247 
L 383.738427 352.973392 
L 393.34991 352.973392 
L 402.961394 352.972774 
L 412.572877 352.972155 
L 422.18436 352.970301 
L 431.795843 352.968446 
L 441.407327 352.967209 
L 451.01881 352.966591 
L 460.630293 352.964736 
L 470.241776 352.964736 
L 479.85326 352.962881 
L 489.464743 352.962263 
L 499.076226 352.95979 
L 508.687709 352.956698 
L 518.299193 352.955461 
L 527.910676 352.954843 
L 537.522159 352.954225 
L 547.133642 352.954225 
L 556.745126 352.948042 
L 566.356609 352.946805 
L 575.968092 352.944332 
L 585.579575 352.943714 
L 595.191059 352.943714 
L 604.802542 352.940622 
L 614.414025 352.940622 
L 624.025508 352.938767 
L 633.636992 352.934439 
L 643.248475 352.934439 
L 652.859958 352.932584 
L 662.471441 352.932584 
L 672.082925 352.905379 
L 681.694408 352.883739 
L 691.305891 352.453404 
L 700.917374 352.392193 
L 710.528858 352.349531 
L 720.140341 352.339638 
L 729.751824 352.237001 
L 739.363307 352.217215 
L 748.974791 352.203612 
L 758.586274 352.199903 
L 768.197757 352.194956 
L 777.80924 350.737631 
L 787.420724 350.657252 
L 797.032207 350.655397 
L 806.64369 350.653542 
L 816.255173 350.651687 
L 825.866657 350.647359 
L 835.47814 350.646123 
L 845.089623 350.642413 
L 854.701106 350.634993 
L 864.31259 350.627574 
L 873.924073 350.622009 
L 883.535556 350.621391 
L 893.147039 350.620773 
L 902.758523 350.619536 
L 912.370006 350.618918 
L 921.981489 350.615826 
L 931.592972 350.613971 
L 941.204456 350.60346 
L 950.815939 350.601605 
L 960.427422 350.597277 
L 970.038906 350.594804 
L 979.650389 350.592949 
L 989.261872 350.588621 
L 998.873355 350.586148 
L 1008.484839 350.586148 
L 1018.096322 350.583056 
L 1027.707805 350.573782 
L 1037.319288 350.571927 
L 1046.930772 350.566362 
L 1056.542255 350.564508 
L 1066.153738 350.558943 
L 1075.765221 350.557088 
L 1085.376705 350.551523 
" clip-path="url(#p376d91ce7f)" style="fill: none; stroke: #008000; stroke-width: 1.5; stroke-linecap: square"/>
   </g>
   <g id="line2d_13">
    <path d="M 172.285795 352.637039 
L 181.897279 352.605505 
L 191.508762 352.574591 
L 201.120245 352.543676 
L 210.731728 352.505341 
L 220.343212 352.409505 
L 229.954695 352.368079 
L 239.566178 352.339638 
L 249.177661 352.316761 
L 258.789145 352.275335 
L 268.400628 352.247512 
L 278.012111 352.189392 
L 287.623594 352.146111 
L 297.235078 352.113341 
L 306.846561 352.079953 
L 316.458044 352.041 
L 326.069528 351.906212 
L 335.681011 351.873442 
L 345.292494 351.838817 
L 354.903977 351.809757 
L 364.515461 351.744218 
L 374.126944 351.691663 
L 383.738427 351.624268 
L 393.34991 351.576659 
L 402.961394 351.47835 
L 412.572877 351.333669 
L 422.18436 351.150035 
L 431.795843 351.130249 
L 441.407327 351.104899 
L 451.01881 351.072129 
L 460.630293 351.036886 
L 470.241776 350.998552 
L 479.85326 350.990514 
L 489.464743 350.97011 
L 499.076226 350.851397 
L 508.687709 350.804407 
L 518.299193 350.750615 
L 527.910676 350.74876 
L 537.522159 350.680747 
L 547.133642 350.643031 
L 556.745126 350.599132 
L 566.356609 350.557706 
L 575.968092 350.480419 
L 585.579575 350.417971 
L 595.191059 350.26958 
L 604.802542 350.187965 
L 614.414025 350.166943 
L 624.025508 349.987637 
L 633.636992 349.893037 
L 643.248475 349.773088 
L 652.859958 349.64139 
L 662.471441 349.486198 
L 672.082925 349.404583 
L 681.694408 349.237024 
L 691.305891 349.136242 
L 700.917374 349.094816 
L 710.528858 349.021239 
L 720.140341 348.862336 
L 729.751824 348.736204 
L 739.363307 348.312052 
L 748.974791 348.268153 
L 758.586274 348.232292 
L 768.197757 348.161806 
L 777.80924 348.094412 
L 787.420724 348.042475 
L 797.032207 348.014651 
L 806.64369 347.971989 
L 816.255173 347.875534 
L 825.866657 347.774134 
L 835.47814 347.739509 
L 845.089623 347.673351 
L 854.701106 347.471168 
L 864.31259 347.378424 
L 873.924073 347.288771 
L 883.535556 347.2492 
L 893.147039 347.213957 
L 902.758523 347.04207 
L 912.370006 346.847307 
L 921.981489 346.723647 
L 931.592972 346.546815 
L 941.204456 346.458398 
L 950.815939 346.383584 
L 960.427422 346.321754 
L 970.038906 346.150486 
L 979.650389 346.001477 
L 989.261872 345.903168 
L 998.873355 345.861742 
L 1008.484839 342.83827 
L 1018.096322 342.694207 
L 1027.707805 342.630522 
L 1037.319288 342.459872 
L 1046.930772 342.354144 
L 1056.542255 342.256453 
L 1066.153738 342.116718 
L 1075.765221 342.038194 
L 1085.376705 341.980074 
" clip-path="url(#p376d91ce7f)" style="fill: none; stroke: #ff0000; stroke-width: 1.5; stroke-linecap: square"/>
   </g>
   <g id="line2d_14">
    <path d="M 172.285795 352.695777 
L 181.897279 352.663625 
L 191.508762 352.629619 
L 201.120245 352.564698 
L 210.731728 352.512761 
L 220.343212 352.481846 
L 229.954695 352.444748 
L 239.566178 352.389102 
L 249.177661 352.348912 
L 258.789145 352.318616 
L 268.400628 352.284609 
L 278.012111 352.253076 
L 287.623594 352.15724 
L 297.235078 352.120761 
L 306.846561 352.089846 
L 316.458044 352.041 
L 326.069528 351.973606 
L 335.681011 351.81594 
L 345.292494 351.710212 
L 354.903977 351.677442 
L 364.515461 351.580988 
L 374.126944 351.530906 
L 383.738427 351.470312 
L 393.34991 351.415902 
L 402.961394 351.367057 
L 412.572877 351.300281 
L 422.18436 351.246489 
L 431.795843 351.159309 
L 441.407327 351.054199 
L 451.01881 351.017101 
L 460.630293 350.983713 
L 470.241776 350.950325 
L 479.85326 350.865618 
L 489.464743 350.669 
L 499.076226 350.552142 
L 508.687709 350.511334 
L 518.299193 350.480419 
L 527.910676 350.451359 
L 537.522159 350.335738 
L 547.133642 350.254123 
L 556.745126 350.218261 
L 566.356609 350.090892 
L 575.968092 349.991346 
L 585.579575 349.831826 
L 595.191059 349.793491 
L 604.802542 349.768759 
L 614.414025 349.61604 
L 624.025508 349.575233 
L 633.636992 349.564103 
L 643.248475 349.550501 
L 652.859958 349.470122 
L 662.471441 349.439207 
L 672.082925 349.410766 
L 681.694408 349.39098 
L 691.305891 349.356355 
L 700.917374 349.175813 
L 710.528858 349.091724 
L 720.140341 348.903144 
L 729.751824 348.615018 
L 739.363307 348.546387 
L 748.974791 348.522891 
L 758.586274 348.443749 
L 768.197757 348.404797 
L 777.80924 348.342967 
L 787.420724 348.307724 
L 797.032207 348.270008 
L 806.64369 348.212506 
L 816.255173 347.917579 
L 825.866657 347.714159 
L 835.47814 347.683244 
L 845.089623 347.489717 
L 854.701106 347.273932 
L 864.31259 347.12925 
L 873.924073 346.935105 
L 883.535556 346.721174 
L 893.147039 346.63214 
L 902.758523 346.579584 
L 912.370006 346.426865 
L 921.981489 346.285893 
L 931.592972 346.216026 
L 941.204456 346.110915 
L 950.815939 345.929136 
L 960.427422 345.736227 
L 970.038906 345.552593 
L 979.650389 345.399874 
L 989.261872 345.251483 
L 998.873355 345.164921 
L 1008.484839 343.115267 
L 1018.096322 343.079406 
L 1027.707805 342.985425 
L 1037.319288 342.880932 
L 1046.930772 342.752945 
L 1056.542255 342.554472 
L 1066.153738 342.480276 
L 1075.765221 342.344251 
L 1085.376705 342.244087 
" clip-path="url(#p376d91ce7f)" style="fill: none; stroke: #00bfbf; stroke-width: 1.5; stroke-linecap: square"/>
   </g>
   <g id="line2d_15">
    <path d="M 172.285795 352.544294 
L 181.897279 352.540584 
L 191.508762 352.531928 
L 201.120245 352.523272 
L 210.731728 352.520799 
L 220.343212 352.478755 
L 229.954695 352.441038 
L 239.566178 352.437329 
L 249.177661 352.433001 
L 258.789145 352.405177 
L 268.400628 352.351385 
L 278.012111 352.332218 
L 287.623594 352.258641 
L 297.235078 352.177644 
L 306.846561 352.171461 
L 316.458044 352.164041 
L 326.069528 352.148584 
L 335.681011 352.130653 
L 345.292494 352.109013 
L 354.903977 352.107776 
L 364.515461 352.107158 
L 374.126944 352.05213 
L 383.738427 352.006376 
L 393.34991 351.995865 
L 402.961394 351.989063 
L 412.572877 351.980407 
L 422.18436 351.971751 
L 431.795843 351.969278 
L 441.407327 351.948874 
L 451.01881 351.947638 
L 460.630293 351.902502 
L 470.241776 351.888899 
L 479.85326 351.886426 
L 489.464743 351.882098 
L 499.076226 351.880862 
L 508.687709 351.854275 
L 518.299193 351.793063 
L 527.910676 351.789972 
L 537.522159 351.76524 
L 547.133642 351.76153 
L 556.745126 351.736798 
L 566.356609 351.735562 
L 575.968092 351.730615 
L 585.579575 351.728142 
L 595.191059 351.687953 
L 604.802542 351.687335 
L 614.414025 351.672495 
L 624.025508 351.670641 
L 633.636992 351.670022 
L 643.248475 351.668167 
L 652.859958 351.664458 
L 662.471441 351.645909 
L 672.082925 351.645909 
L 681.694408 351.644054 
L 691.305891 351.636634 
L 700.917374 351.608811 
L 710.528858 351.600155 
L 720.140341 351.59459 
L 729.751824 351.591499 
L 739.363307 351.586552 
L 748.974791 351.582224 
L 758.586274 351.579751 
L 768.197757 351.577896 
L 777.80924 351.559347 
L 787.420724 351.558729 
L 797.032207 351.555019 
L 806.64369 351.553782 
L 816.255173 351.529051 
L 825.866657 351.516066 
L 835.47814 351.501227 
L 845.089623 351.493808 
L 854.701106 351.468458 
L 864.31259 351.461656 
L 873.924073 351.435688 
L 883.535556 351.381896 
L 893.147039 351.367057 
L 902.758523 351.333669 
L 912.370006 351.297189 
L 921.981489 351.26071 
L 931.592972 350.908281 
L 941.204456 350.89406 
L 950.815939 350.887877 
L 960.427422 350.886022 
L 970.038906 350.869328 
L 979.650389 350.869328 
L 989.261872 350.861908 
L 998.873355 350.86129 
L 1008.484839 350.840268 
L 1018.096322 350.839031 
L 1027.707805 350.839031 
L 1037.319288 350.838413 
L 1046.930772 350.829757 
L 1056.542255 350.797605 
L 1066.153738 350.780911 
L 1075.765221 350.766072 
L 1085.376705 350.641176 
" clip-path="url(#p376d91ce7f)" style="fill: none; stroke: #bf00bf; stroke-width: 1.5; stroke-linecap: square"/>
   </g>
   <g id="line2d_16">
    <path d="M 172.285795 342.616301 
L 181.897279 339.658988 
L 191.508762 339.195883 
L 201.120245 334.820196 
L 210.731728 332.600511 
L 220.343212 331.185847 
L 229.954695 330.321468 
L 239.566178 328.904332 
L 249.177661 326.83922 
L 258.789145 325.72505 
L 268.400628 325.704027 
L 278.012111 324.518752 
L 287.623594 324.438374 
L 297.235078 324.144064 
L 306.846561 321.902738 
L 316.458044 320.607406 
L 326.069528 320.207368 
L 335.681011 320.166561 
L 345.292494 320.152958 
L 354.903977 319.690472 
L 364.515461 319.516731 
L 374.126944 319.296617 
L 383.738427 318.962737 
L 393.34991 318.944188 
L 402.961394 318.639368 
L 412.572877 318.467481 
L 422.18436 316.55818 
L 431.795843 316.535303 
L 441.407327 316.360325 
L 451.01881 316.093839 
L 460.630293 315.969562 
L 470.241776 314.998217 
L 479.85326 314.678558 
L 489.464743 313.961334 
L 499.076226 313.807996 
L 508.687709 313.604576 
L 518.299193 313.525434 
L 527.910676 313.346128 
L 537.522159 312.413736 
L 547.133642 312.386531 
L 556.745126 312.360563 
L 566.356609 311.987112 
L 575.968092 311.268032 
L 585.579575 310.584814 
L 595.191059 310.247843 
L 604.802542 309.988776 
L 614.414025 309.558442 
L 624.025508 309.548549 
L 633.636992 309.230126 
L 643.248475 308.966113 
L 652.859958 308.789899 
L 662.471441 308.218592 
L 672.082925 306.846592 
L 681.694408 306.769923 
L 691.305891 305.553733 
L 700.917374 305.038073 
L 710.528858 304.467385 
L 720.140341 303.845379 
L 729.751824 302.974817 
L 739.363307 302.938337 
L 748.974791 301.102614 
L 758.586274 299.982878 
L 768.197757 299.909301 
L 777.80924 296.318233 
L 787.420724 294.474471 
L 797.032207 111.602046 
L 806.64369 110.728393 
L 816.255173 107.110738 
L 825.866657 106.265526 
L 835.47814 105.299746 
L 845.089623 102.539051 
L 854.701106 99.466115 
L 864.31259 98.721686 
L 873.924073 95.658025 
L 883.535556 95.214706 
L 893.147039 94.733053 
L 902.758523 93.808081 
L 912.370006 90.735764 
L 921.981489 87.989908 
L 931.592972 87.458791 
L 941.204456 84.482309 
L 950.815939 81.179986 
L 960.427422 78.36859 
L 970.038906 68.23285 
L 979.650389 20.618427 
L 989.261872 14.546133 
L 998.873355 2.740373 
L 1000.670711 -1 
" clip-path="url(#p376d91ce7f)" style="fill: none; stroke: #000000; stroke-width: 1.5; stroke-linecap: square"/>
   </g>
   <g id="line2d_17">
    <path d="M 172.285795 343.331053 
L 181.897279 342.41721 
L 191.508762 341.729045 
L 201.120245 341.116313 
L 210.731728 340.924641 
L 220.343212 340.922168 
L 229.954695 340.808401 
L 239.566178 337.323062 
L 249.177661 337.132008 
L 258.789145 333.052486 
L 268.400628 331.0288 
L 278.012111 330.825999 
L 287.623594 330.377733 
L 297.235078 329.247487 
L 306.846561 328.339827 
L 316.458044 328.148773 
L 326.069528 327.309744 
L 335.681011 324.415497 
L 345.292494 323.071319 
L 354.903977 322.383773 
L 364.515461 319.258283 
L 374.126944 319.202636 
L 383.738427 319.080213 
L 393.34991 318.212743 
L 402.961394 316.631139 
L 412.572877 315.377233 
L 422.18436 312.967112 
L 431.795843 312.912084 
L 441.407327 312.385295 
L 451.01881 311.431263 
L 460.630293 310.76412 
L 470.241776 310.49207 
L 479.85326 310.4593 
L 489.464743 310.161281 
L 499.076226 307.132863 
L 508.687709 306.487979 
L 518.299193 306.116383 
L 527.910676 304.91565 
L 537.522159 304.664622 
L 547.133642 303.744596 
L 556.745126 301.093958 
L 566.356609 300.721125 
L 575.968092 299.681768 
L 585.579575 299.028228 
L 595.191059 298.779054 
L 604.802542 298.489073 
L 614.414025 296.660151 
L 624.025508 296.333072 
L 633.636992 296.031961 
L 643.248475 295.307936 
L 652.859958 294.64574 
L 662.471441 294.125134 
L 672.082925 292.735821 
L 681.694408 292.683265 
L 691.305891 292.584338 
L 700.917374 291.898028 
L 710.528858 290.59404 
L 720.140341 290.012223 
L 729.751824 289.791491 
L 739.363307 288.69896 
L 748.974791 288.687213 
L 758.586274 288.449169 
L 768.197757 287.744928 
L 777.80924 287.599629 
L 787.420724 287.249054 
L 797.032207 286.994934 
L 806.64369 286.126227 
L 816.255173 285.867779 
L 825.866657 285.618606 
L 835.47814 285.371905 
L 845.089623 285.259375 
L 854.701106 285.225987 
L 864.31259 284.887779 
L 873.924073 284.552043 
L 883.535556 284.550189 
L 893.147039 283.397683 
L 902.758523 282.430049 
L 912.370006 281.341846 
L 921.981489 280.656773 
L 931.592972 279.526527 
L 941.204456 278.830324 
L 950.815939 278.502627 
L 960.427422 277.337137 
L 970.038906 276.085705 
L 979.650389 276.033768 
L 989.261872 270.038143 
L 998.873355 265.821358 
L 1008.484839 263.991818 
L 1018.096322 262.332928 
L 1027.707805 262.00894 
L 1037.319288 248.955457 
L 1046.930772 221.52719 
L 1056.542255 142.004321 
L 1066.153738 141.995665 
L 1075.765221 126.509802 
L 1085.376705 108.372682 
" clip-path="url(#p376d91ce7f)" style="fill: none; stroke-dasharray: 5.55,2.4; stroke-dashoffset: 0; stroke: #0000ff; stroke-width: 1.5"/>
   </g>
   <g id="line2d_18">
    <path d="M 172.285795 344.37041 
L 181.897279 344.1707 
L 191.508762 343.394737 
L 201.120245 342.229866 
L 210.731728 340.659392 
L 220.343212 339.751114 
L 229.954695 338.998028 
L 239.566178 338.789662 
L 249.177661 336.973106 
L 258.789145 332.745192 
L 268.400628 331.658226 
L 278.012111 328.728736 
L 287.623594 322.487647 
L 297.235078 322.122234 
L 306.846561 321.367293 
L 316.458044 320.739104 
L 326.069528 319.614422 
L 335.681011 319.210056 
L 345.292494 319.163065 
L 354.903977 318.899671 
L 364.515461 318.154005 
L 374.126944 317.475733 
L 383.738427 317.033651 
L 393.34991 317.006446 
L 402.961394 316.93596 
L 412.572877 316.376401 
L 422.18436 315.047681 
L 431.795843 314.711328 
L 441.407327 314.149296 
L 451.01881 313.96999 
L 460.630293 313.227415 
L 470.241776 313.121686 
L 479.85326 312.509572 
L 489.464743 312.331503 
L 499.076226 311.648903 
L 508.687709 311.579654 
L 518.299193 311.397256 
L 527.910676 310.836461 
L 537.522159 310.720221 
L 547.133642 310.017836 
L 556.745126 309.832965 
L 566.356609 309.651186 
L 575.968092 309.496612 
L 585.579575 308.8474 
L 595.191059 308.028775 
L 604.802542 307.52981 
L 614.414025 304.463675 
L 624.025508 302.846211 
L 633.636992 297.456517 
L 643.248475 295.405626 
L 652.859958 293.843809 
L 662.471441 290.252122 
L 672.082925 287.790682 
L 681.694408 285.858505 
L 691.305891 282.840598 
L 700.917374 279.389883 
L 710.528858 272.971343 
L 720.140341 267.117309 
L 729.751824 264.496967 
L 739.363307 264.066014 
L 748.974791 258.744951 
L 758.586274 255.628735 
L 768.197757 255.386362 
L 777.80924 251.111458 
L 787.420724 250.931533 
L 797.032207 247.735557 
L 806.64369 244.701574 
L 816.255173 244.657675 
L 825.866657 242.577106 
L 835.47814 241.033837 
L 845.089623 239.028701 
L 854.701106 239.002732 
L 864.31259 237.289432 
L 873.924073 235.448762 
L 883.535556 231.324722 
L 893.147039 227.822688 
L 902.758523 227.069603 
L 912.370006 222.450925 
L 921.981489 206.856242 
L 931.592972 189.606378 
L 941.204456 187.281582 
L 950.815939 165.750012 
L 960.427422 163.863588 
L 970.038906 154.793173 
L 979.650389 143.258845 
L 989.261872 141.51092 
L 998.873355 141.215374 
L 1008.484839 141.199917 
L 1018.096322 140.198894 
L 1027.707805 139.716623 
L 1037.319288 136.309189 
L 1046.930772 135.886892 
L 1056.542255 134.824658 
L 1066.153738 126.868414 
L 1075.765221 76.216917 
L 1085.376705 39.402285 
" clip-path="url(#p376d91ce7f)" style="fill: none; stroke-dasharray: 5.55,2.4; stroke-dashoffset: 0; stroke: #008000; stroke-width: 1.5"/>
   </g>
   <g id="line2d_19">
    <path d="M 172.285795 345.563723 
L 181.897279 344.93306 
L 191.508762 344.55899 
L 201.120245 344.345059 
L 210.731728 344.001286 
L 220.343212 343.347747 
L 229.954695 343.258712 
L 239.566178 342.164326 
L 249.177661 333.762909 
L 258.789145 328.579108 
L 268.400628 327.620748 
L 278.012111 326.936911 
L 287.623594 325.617466 
L 297.235078 325.007825 
L 306.846561 323.152935 
L 316.458044 322.995269 
L 326.069528 322.992177 
L 335.681011 321.816795 
L 345.292494 321.790208 
L 354.903977 321.59359 
L 364.515461 321.491571 
L 374.126944 321.351836 
L 383.738427 320.365034 
L 393.34991 319.737463 
L 402.961394 319.269412 
L 412.572877 319.189033 
L 422.18436 319.137715 
L 431.795843 319.071557 
L 441.407327 318.940478 
L 451.01881 318.324654 
L 460.630293 318.009941 
L 470.241776 317.94873 
L 479.85326 317.666168 
L 489.464743 317.664313 
L 499.076226 316.992225 
L 508.687709 315.97389 
L 518.299193 315.917625 
L 527.910676 315.913915 
L 537.522159 315.680817 
L 547.133642 315.631972 
L 556.745126 315.512022 
L 566.356609 314.995126 
L 575.968092 314.764501 
L 585.579575 314.442368 
L 595.191059 313.738747 
L 604.802542 313.608286 
L 614.414025 313.172387 
L 624.025508 312.835415 
L 633.636992 312.547289 
L 643.248475 311.731137 
L 652.859958 311.261849 
L 662.471441 310.974341 
L 672.082925 310.158808 
L 681.694408 307.986113 
L 691.305891 303.408861 
L 700.917374 297.255571 
L 710.528858 291.844855 
L 720.140341 285.891893 
L 729.751824 277.403913 
L 739.363307 265.922759 
L 748.974791 249.069842 
L 758.586274 241.777648 
L 768.197757 227.298373 
L 777.80924 225.415659 
L 787.420724 224.423911 
L 797.032207 221.503076 
L 806.64369 216.935099 
L 816.255173 215.69665 
L 825.866657 207.663119 
L 835.47814 205.424266 
L 845.089623 193.650039 
L 854.701106 184.532634 
L 864.31259 174.505714 
L 873.924073 174.482218 
L 883.535556 171.295516 
L 893.147039 168.242367 
L 902.758523 168.142821 
L 912.370006 155.143748 
L 921.981489 149.133902 
L 931.592972 147.915239 
L 941.204456 146.493156 
L 950.815939 145.085294 
L 960.427422 127.879948 
L 970.038906 126.08936 
L 979.650389 113.466211 
L 989.261872 109.277868 
L 998.873355 106.502334 
L 1008.484839 105.825917 
L 1018.096322 100.23404 
L 1027.707805 99.892122 
L 1037.319288 94.877116 
L 1046.930772 69.735311 
L 1056.542255 59.485186 
L 1066.153738 50.758544 
L 1075.765221 25.760184 
L 1085.376705 22.318125 
" clip-path="url(#p376d91ce7f)" style="fill: none; stroke-dasharray: 5.55,2.4; stroke-dashoffset: 0; stroke: #ff0000; stroke-width: 1.5"/>
   </g>
   <g id="line2d_20">
    <path d="M 172.285795 351.267511 
L 181.897279 350.952798 
L 191.508762 350.790804 
L 201.120245 350.780293 
L 210.731728 350.704243 
L 220.343212 350.686312 
L 229.954695 350.488457 
L 239.566178 350.330173 
L 249.177661 350.301113 
L 258.789145 350.136028 
L 268.400628 350.103876 
L 278.012111 350.080999 
L 287.623594 350.071107 
L 297.235078 350.014842 
L 306.846561 349.950539 
L 316.458044 349.9357 
L 326.069528 349.883763 
L 335.681011 349.82317 
L 345.292494 349.79411 
L 354.903977 349.741554 
L 364.515461 349.576469 
L 374.126944 349.518968 
L 383.738427 349.421895 
L 393.34991 349.287725 
L 402.961394 349.193743 
L 412.572877 349.193743 
L 422.18436 349.076885 
L 431.795843 349.052153 
L 441.407327 348.995888 
L 451.01881 348.947043 
L 460.630293 348.917983 
L 470.241776 348.888305 
L 479.85326 348.874702 
L 489.464743 348.859863 
L 499.076226 348.786286 
L 508.687709 348.511144 
L 518.299193 348.506197 
L 527.910676 348.405415 
L 537.522159 348.348532 
L 547.133642 348.344204 
L 556.745126 348.315762 
L 566.356609 348.300923 
L 575.968092 348.020834 
L 585.579575 347.889137 
L 595.191059 347.63378 
L 604.802542 347.431597 
L 614.414025 347.201591 
L 624.025508 347.098954 
L 633.636992 346.645742 
L 643.248475 346.329174 
L 652.859958 345.750448 
L 662.471441 345.086397 
L 672.082925 345.026423 
L 681.694408 344.942952 
L 691.305891 344.750662 
L 700.917374 344.272719 
L 710.528858 343.123923 
L 720.140341 342.685551 
L 729.751824 342.38444 
L 739.363307 341.635064 
L 748.974791 340.871468 
L 758.586274 336.224348 
L 768.197757 334.009609 
L 777.80924 333.999098 
L 787.420724 333.728284 
L 797.032207 332.95665 
L 806.64369 331.196977 
L 816.255173 331.160497 
L 825.866657 328.558086 
L 835.47814 325.007825 
L 845.089623 322.965591 
L 854.701106 322.820291 
L 864.31259 321.838435 
L 873.924073 321.383987 
L 883.535556 319.938409 
L 893.147039 319.91986 
L 902.758523 319.738699 
L 912.370006 319.412857 
L 921.981489 319.214384 
L 931.592972 318.952844 
L 941.204456 318.256642 
L 950.815939 317.958623 
L 960.427422 315.602912 
L 970.038906 315.163303 
L 979.650389 314.514091 
L 989.261872 313.642911 
L 998.873355 313.208248 
L 1008.484839 310.323893 
L 1018.096322 305.744168 
L 1027.707805 305.525291 
L 1037.319288 304.119284 
L 1046.930772 301.151459 
L 1056.542255 299.515446 
L 1066.153738 296.718889 
L 1075.765221 295.271456 
L 1085.376705 285.65323 
" clip-path="url(#p376d91ce7f)" style="fill: none; stroke-dasharray: 5.55,2.4; stroke-dashoffset: 0; stroke: #00bfbf; stroke-width: 1.5"/>
   </g>
   <g id="line2d_21">
    <path d="M 172.285795 353.966995 
L 181.897279 353.76914 
L 191.508762 353.757393 
L 201.120245 353.677632 
L 210.731728 353.648572 
L 220.343212 353.635588 
L 229.954695 353.584888 
L 239.566178 352.876938 
L 249.177661 352.368079 
L 258.789145 352.054603 
L 268.400628 352.037909 
L 278.012111 351.999575 
L 287.623594 351.841291 
L 297.235078 351.724432 
L 306.846561 351.56924 
L 316.458044 351.559347 
L 326.069528 351.292243 
L 335.681011 351.15189 
L 345.292494 351.140142 
L 354.903977 351.003498 
L 364.515461 350.980621 
L 374.126944 350.950943 
L 383.738427 350.532974 
L 393.34991 350.503914 
L 402.961394 350.296785 
L 412.572877 350.238665 
L 422.18436 350.223208 
L 431.795843 350.191675 
L 441.407327 350.167561 
L 451.01881 350.160141 
L 460.630293 350.123044 
L 470.241776 350.009277 
L 479.85326 349.806476 
L 489.464743 349.655611 
L 499.076226 349.606766 
L 508.687709 349.497327 
L 518.299193 349.488671 
L 527.910676 349.477542 
L 537.522159 349.412002 
L 547.133642 349.396545 
L 556.745126 349.338425 
L 566.356609 349.22404 
L 575.968092 349.211674 
L 585.579575 349.195598 
L 595.191059 349.193125 
L 604.802542 349.190652 
L 614.414025 349.172103 
L 624.025508 349.104709 
L 633.636992 349.087396 
L 643.248475 349.049062 
L 652.859958 349.041642 
L 662.471441 348.925403 
L 672.082925 348.904999 
L 681.694408 348.901907 
L 691.305891 348.85739 
L 700.917374 348.805453 
L 710.528858 348.801125 
L 720.140341 348.79556 
L 729.751824 348.778248 
L 739.363307 348.749188 
L 748.974791 348.743623 
L 758.586274 348.676847 
L 768.197757 348.632948 
L 777.80924 348.593377 
L 787.420724 348.509907 
L 797.032207 348.506816 
L 806.64369 348.500633 
L 816.255173 348.484557 
L 825.866657 348.385011 
L 835.47814 348.329983 
L 845.089623 348.304633 
L 854.701106 348.244039 
L 864.31259 348.195812 
L 873.924073 348.185301 
L 883.535556 348.163661 
L 893.147039 348.099976 
L 902.758523 348.048039 
L 912.370006 347.936128 
L 921.981489 347.875534 
L 931.592972 347.798866 
L 941.204456 347.781553 
L 950.815939 347.779698 
L 960.427422 347.767333 
L 970.038906 347.669023 
L 979.650389 347.638108 
L 989.261872 347.486626 
L 998.873355 347.478588 
L 1008.484839 347.345036 
L 1018.096322 347.340708 
L 1027.707805 347.25291 
L 1037.319288 347.231887 
L 1046.930772 346.784859 
L 1056.542255 346.724266 
L 1066.153738 346.514663 
L 1075.765221 346.212316 
L 1085.376705 345.846284 
" clip-path="url(#p376d91ce7f)" style="fill: none; stroke-dasharray: 5.55,2.4; stroke-dashoffset: 0; stroke: #bf00bf; stroke-width: 1.5"/>
   </g>
   <g id="line2d_22">
    <path d="M 172.285795 353.03955 
L 181.897279 353.024092 
L 191.508762 352.980812 
L 201.120245 352.97772 
L 210.731728 352.951133 
L 220.343212 352.949279 
L 229.954695 352.92331 
L 239.566178 352.882502 
L 249.177661 352.873846 
L 258.789145 352.83984 
L 268.400628 352.83242 
L 278.012111 352.801506 
L 287.623594 352.791613 
L 297.235078 352.766263 
L 306.846561 352.761316 
L 316.458044 352.728547 
L 326.069528 352.691449 
L 335.681011 352.684029 
L 345.292494 352.660534 
L 354.903977 352.595613 
L 364.515461 352.585102 
L 374.126944 352.557278 
L 383.738427 352.555423 
L 393.34991 352.528837 
L 402.961394 352.52018 
L 412.572877 352.489884 
L 422.18436 352.480609 
L 431.795843 352.44042 
L 441.407327 352.392193 
L 451.01881 352.388483 
L 460.630293 352.360042 
L 470.241776 352.355095 
L 479.85326 352.352004 
L 489.464743 352.299449 
L 499.076226 352.294502 
L 508.687709 352.280281 
L 518.299193 352.265442 
L 527.910676 352.259878 
L 537.522159 352.235764 
L 547.133642 352.232672 
L 556.745126 352.218452 
L 566.356609 352.199284 
L 575.968092 352.196193 
L 585.579575 352.187537 
L 595.191059 352.169606 
L 604.802542 352.137455 
L 614.414025 352.129417 
L 624.025508 352.101594 
L 633.636992 352.079335 
L 643.248475 352.029253 
L 652.859958 352.025543 
L 662.471441 351.971751 
L 672.082925 351.967423 
L 681.694408 351.932798 
L 691.305891 351.920433 
L 700.917374 351.869114 
L 710.528858 351.867259 
L 720.140341 351.840054 
L 729.751824 351.812231 
L 739.363307 351.801101 
L 748.974791 351.73989 
L 758.586274 351.733089 
L 768.197757 351.704647 
L 777.80924 351.697227 
L 787.420724 351.652092 
L 797.032207 351.645909 
L 806.64369 351.634779 
L 816.255173 351.591499 
L 825.866657 351.588407 
L 835.47814 351.553782 
L 845.089623 351.548836 
L 854.701106 351.519776 
L 864.31259 351.517303 
L 873.924073 351.485152 
L 883.535556 351.425795 
L 893.147039 351.418375 
L 902.758523 351.381278 
L 912.370006 351.37324 
L 921.981489 351.349745 
L 931.592972 351.341707 
L 941.204456 351.336142 
L 950.815939 351.281732 
L 960.427422 351.277404 
L 970.038906 351.266893 
L 979.650389 351.210009 
L 989.261872 351.201353 
L 998.873355 351.184659 
L 1008.484839 351.143233 
L 1018.096322 351.135196 
L 1027.707805 351.100571 
L 1037.319288 351.099334 
L 1046.930772 351.054199 
L 1056.542255 350.97011 
L 1066.153738 350.965782 
L 1075.765221 350.926211 
L 1085.376705 350.921265 
" clip-path="url(#p376d91ce7f)" style="fill: none; stroke-dasharray: 5.55,2.4; stroke-dashoffset: 0; stroke: #000000; stroke-width: 1.5"/>
   </g>
   <g id="line2d_23">
    <path d="M 172.285795 353.821077 
L 181.897279 353.618894 
L 191.508762 353.565102 
L 201.120245 353.477922 
L 210.731728 353.416093 
L 220.343212 353.400017 
L 229.954695 353.375903 
L 239.566178 352.834275 
L 249.177661 352.528837 
L 258.789145 352.496685 
L 268.400628 352.488029 
L 278.012111 352.410742 
L 287.623594 352.320471 
L 297.235078 352.303158 
L 306.846561 352.228344 
L 316.458044 352.194338 
L 326.069528 352.133127 
L 335.681011 352.118288 
L 345.292494 352.002048 
L 354.903977 351.843764 
L 364.515461 351.719486 
L 374.126944 351.595827 
L 383.738427 351.568622 
L 393.34991 351.539562 
L 402.961394 351.420849 
L 412.572877 351.368912 
L 422.18436 351.334287 
L 431.795843 351.233505 
L 441.407327 351.127158 
L 451.01881 351.09006 
L 460.630293 351.084495 
L 470.241776 351.079549 
L 479.85326 351.005353 
L 489.464743 350.830375 
L 499.076226 350.725265 
L 508.687709 350.701151 
L 518.299193 350.64365 
L 527.910676 350.550905 
L 537.522159 350.528028 
L 547.133642 350.479183 
L 556.745126 350.44394 
L 566.356609 350.401277 
L 575.968092 350.296785 
L 585.579575 350.293694 
L 595.191059 350.134173 
L 604.802542 350.01546 
L 614.414025 349.919006 
L 624.025508 349.90293 
L 633.636992 349.882526 
L 643.248475 349.86645 
L 652.859958 349.839245 
L 662.471441 349.766286 
L 672.082925 349.764431 
L 681.694408 349.740318 
L 691.305891 349.710021 
L 700.917374 349.640772 
L 710.528858 349.612949 
L 720.140341 349.587598 
L 729.751824 349.556684 
L 739.363307 349.547409 
L 748.974791 349.522677 
L 758.586274 349.318021 
L 768.197757 349.274122 
L 777.80924 349.273504 
L 787.420724 349.247535 
L 797.032207 349.195598 
L 806.64369 349.070084 
L 816.255173 349.061428 
L 825.866657 349.040406 
L 835.47814 349.000835 
L 845.089623 348.990942 
L 854.701106 348.892015 
L 864.31259 348.89016 
L 873.924073 348.884595 
L 883.535556 348.859863 
L 893.147039 348.836986 
L 902.758523 348.769592 
L 912.370006 348.739295 
L 921.981489 348.682412 
L 931.592972 348.674374 
L 941.204456 348.663863 
L 950.815939 348.637276 
L 960.427422 348.511144 
L 970.038906 348.50867 
L 979.650389 348.437566 
L 989.261872 348.415926 
L 998.873355 348.404797 
L 1008.484839 348.308342 
L 1018.096322 348.268153 
L 1027.707805 348.247131 
L 1037.319288 348.20014 
L 1046.930772 348.096885 
L 1056.542255 348.056077 
L 1066.153738 348.037528 
L 1075.765221 347.861314 
L 1085.376705 347.251055 
" clip-path="url(#p376d91ce7f)" style="fill: none; stroke-dasharray: 9.6,2.4,1.5,2.4; stroke-dashoffset: 0; stroke: #0000ff; stroke-width: 1.5"/>
   </g>
   <g id="line2d_24">
    <path d="M 172.285795 354.044901 
L 181.897279 353.82355 
L 191.508762 353.686907 
L 201.120245 353.636825 
L 210.731728 353.361064 
L 220.343212 353.321493 
L 229.954695 353.227512 
L 239.566178 353.183613 
L 249.177661 353.136004 
L 258.789145 352.747714 
L 268.400628 352.538729 
L 278.012111 352.526982 
L 287.623594 352.41878 
L 297.235078 352.408887 
L 306.846561 352.367461 
L 316.458044 352.088609 
L 326.069528 352.082426 
L 335.681011 352.005139 
L 345.292494 351.970515 
L 354.903977 351.941455 
L 364.515461 351.799246 
L 374.126944 351.718249 
L 383.738427 351.691044 
L 393.34991 351.580988 
L 402.961394 351.577278 
L 412.572877 351.563675 
L 422.18436 351.474022 
L 431.795843 351.318211 
L 441.407327 351.258855 
L 451.01881 351.213719 
L 460.630293 351.164874 
L 470.241776 350.950325 
L 479.85326 350.914464 
L 489.464743 350.913227 
L 499.076226 350.903952 
L 508.687709 350.787713 
L 518.299193 350.785858 
L 527.910676 350.682602 
L 537.522159 350.618918 
L 547.133642 350.600369 
L 556.745126 350.584293 
L 566.356609 350.515662 
L 575.968092 350.473618 
L 585.579575 350.427864 
L 595.191059 350.373454 
L 604.802542 350.336356 
L 614.414025 350.330791 
L 624.025508 350.26958 
L 633.636992 350.220116 
L 643.248475 350.194148 
L 652.859958 350.163851 
L 662.471441 350.144066 
L 672.082925 350.096457 
L 681.694408 350.026589 
L 691.305891 349.994438 
L 700.917374 349.972797 
L 710.528858 349.905403 
L 720.140341 349.859649 
L 729.751824 349.840482 
L 739.363307 349.786072 
L 748.974791 349.747737 
L 758.586274 349.729188 
L 768.197757 349.686526 
L 777.80924 349.679106 
L 787.420724 349.663031 
L 797.032207 349.582652 
L 806.64369 349.552356 
L 816.255173 349.396545 
L 825.866657 349.363157 
L 835.47814 349.25681 
L 845.089623 349.233933 
L 854.701106 349.190652 
L 864.31259 349.159119 
L 873.924073 349.114601 
L 883.535556 349.096052 
L 893.147039 349.084305 
L 902.758523 349.041642 
L 912.370006 349.007018 
L 921.981489 349.001453 
L 931.592972 348.955699 
L 941.204456 348.914892 
L 950.815939 348.898816 
L 960.427422 348.875321 
L 970.038906 348.841314 
L 979.650389 348.768973 
L 989.261872 348.761554 
L 998.873355 348.720128 
L 1008.484839 348.683648 
L 1018.096322 348.563699 
L 1027.707805 348.561226 
L 1037.319288 348.376355 
L 1046.930772 348.363989 
L 1056.542255 348.139547 
L 1066.153738 348.074008 
L 1075.765221 347.97508 
L 1085.376705 347.547837 
" clip-path="url(#p376d91ce7f)" style="fill: none; stroke-dasharray: 9.6,2.4,1.5,2.4; stroke-dashoffset: 0; stroke: #008000; stroke-width: 1.5"/>
   </g>
   <g id="patch_3">
    <path d="M 126.63125 354.958125 
L 126.63125 22.318125 
" style="fill: none; stroke: #000000; stroke-width: 0.8; stroke-linejoin: miter; stroke-linecap: square"/>
   </g>
   <g id="patch_4">
    <path d="M 1131.03125 354.958125 
L 1131.03125 22.318125 
" style="fill: none; stroke: #000000; stroke-width: 0.8; stroke-linejoin: miter; stroke-linecap: square"/>
   </g>
   <g id="patch_5">
    <path d="M 126.63125 354.958125 
L 1131.03125 354.958125 
" style="fill: none; stroke: #000000; stroke-width: 0.8; stroke-linejoin: miter; stroke-linecap: square"/>
   </g>
   <g id="patch_6">
    <path d="M 126.63125 22.318125 
L 1131.03125 22.318125 
" style="fill: none; stroke: #000000; stroke-width: 0.8; stroke-linejoin: miter; stroke-linecap: square"/>
   </g>
   <g id="text_14">
    <!-- Scheduling time, all -->
    <g transform="translate(569.385312 16.318125) scale(0.12 -0.12)">
     <defs>
      <path id="DejaVuSans-53" d="M 3425 4513 
L 3425 3897 
Q 3066 4069 2747 4153 
Q 2428 4238 2131 4238 
Q 1616 4238 1336 4038 
Q 1056 3838 1056 3469 
Q 1056 3159 1242 3001 
Q 1428 2844 1947 2747 
L 2328 2669 
Q 3034 2534 3370 2195 
Q 3706 1856 3706 1288 
Q 3706 609 3251 259 
Q 2797 -91 1919 -91 
Q 1588 -91 1214 -16 
Q 841 59 441 206 
L 441 856 
Q 825 641 1194 531 
Q 1563 422 1919 422 
Q 2459 422 2753 634 
Q 3047 847 3047 1241 
Q 3047 1584 2836 1778 
Q 2625 1972 2144 2069 
L 1759 2144 
Q 1053 2284 737 2584 
Q 422 2884 422 3419 
Q 422 4038 858 4394 
Q 1294 4750 2059 4750 
Q 2388 4750 2728 4690 
Q 3069 4631 3425 4513 
z
" transform="scale(0.015625)"/>
      <path id="DejaVuSans-75" d="M 544 1381 
L 544 3500 
L 1119 3500 
L 1119 1403 
Q 1119 906 1312 657 
Q 1506 409 1894 409 
Q 2359 409 2629 706 
Q 2900 1003 2900 1516 
L 2900 3500 
L 3475 3500 
L 3475 0 
L 2900 0 
L 2900 538 
Q 2691 219 2414 64 
Q 2138 -91 1772 -91 
Q 1169 -91 856 284 
Q 544 659 544 1381 
z
M 1991 3584 
L 1991 3584 
z
" transform="scale(0.015625)"/>
      <path id="DejaVuSans-67" d="M 2906 1791 
Q 2906 2416 2648 2759 
Q 2391 3103 1925 3103 
Q 1463 3103 1205 2759 
Q 947 2416 947 1791 
Q 947 1169 1205 825 
Q 1463 481 1925 481 
Q 2391 481 2648 825 
Q 2906 1169 2906 1791 
z
M 3481 434 
Q 3481 -459 3084 -895 
Q 2688 -1331 1869 -1331 
Q 1566 -1331 1297 -1286 
Q 1028 -1241 775 -1147 
L 775 -588 
Q 1028 -725 1275 -790 
Q 1522 -856 1778 -856 
Q 2344 -856 2625 -561 
Q 2906 -266 2906 331 
L 2906 616 
Q 2728 306 2450 153 
Q 2172 0 1784 0 
Q 1141 0 747 490 
Q 353 981 353 1791 
Q 353 2603 747 3093 
Q 1141 3584 1784 3584 
Q 2172 3584 2450 3431 
Q 2728 3278 2906 2969 
L 2906 3500 
L 3481 3500 
L 3481 434 
z
" transform="scale(0.015625)"/>
      <path id="DejaVuSans-2c" d="M 750 794 
L 1409 794 
L 1409 256 
L 897 -744 
L 494 -744 
L 750 256 
L 750 794 
z
" transform="scale(0.015625)"/>
     </defs>
     <use xlink:href="#DejaVuSans-53"/>
     <use xlink:href="#DejaVuSans-63" x="63.476562"/>
     <use xlink:href="#DejaVuSans-68" x="118.457031"/>
     <use xlink:href="#DejaVuSans-65" x="181.835938"/>
     <use xlink:href="#DejaVuSans-64" x="243.359375"/>
     <use xlink:href="#DejaVuSans-75" x="306.835938"/>
     <use xlink:href="#DejaVuSans-6c" x="370.214844"/>
     <use xlink:href="#DejaVuSans-69" x="397.998047"/>
     <use xlink:href="#DejaVuSans-6e" x="425.78125"/>
     <use xlink:href="#DejaVuSans-67" x="489.160156"/>
     <use xlink:href="#DejaVuSans-20" x="552.636719"/>
     <use xlink:href="#DejaVuSans-74" x="584.423828"/>
     <use xlink:href="#DejaVuSans-69" x="623.632812"/>
     <use xlink:href="#DejaVuSans-6d" x="651.416016"/>
     <use xlink:href="#DejaVuSans-65" x="748.828125"/>
     <use xlink:href="#DejaVuSans-2c" x="810.351562"/>
     <use xlink:href="#DejaVuSans-20" x="842.138672"/>
     <use xlink:href="#DejaVuSans-61" x="873.925781"/>
     <use xlink:href="#DejaVuSans-6c" x="935.205078"/>
     <use xlink:href="#DejaVuSans-6c" x="962.988281"/>
    </g>
   </g>
   <g id="legend_1">
    <g id="patch_7">
     <path d="M 136.43125 305.721875 
L 411.883438 305.721875 
Q 414.683438 305.721875 414.683438 302.921875 
L 414.683438 32.118125 
Q 414.683438 29.318125 411.883438 29.318125 
L 136.43125 29.318125 
Q 133.63125 29.318125 133.63125 32.118125 
L 133.63125 302.921875 
Q 133.63125 305.721875 136.43125 305.721875 
z
" style="fill: #ffffff; opacity: 0.8; stroke: #cccccc; stroke-linejoin: miter"/>
    </g>
    <g id="line2d_25">
     <path d="M 139.23125 40.655937 
L 153.23125 40.655937 
L 167.23125 40.655937 
" style="fill: none; stroke: #008000; stroke-width: 1.5; stroke-linecap: square"/>
    </g>
    <g id="text_15">
     <!-- OMP_STATIC -->
     <g transform="translate(178.43125 45.555937) scale(0.14 -0.14)">
      <defs>
       <path id="DejaVuSans-4f" d="M 2522 4238 
Q 1834 4238 1429 3725 
Q 1025 3213 1025 2328 
Q 1025 1447 1429 934 
Q 1834 422 2522 422 
Q 3209 422 3611 934 
Q 4013 1447 4013 2328 
Q 4013 3213 3611 3725 
Q 3209 4238 2522 4238 
z
M 2522 4750 
Q 3503 4750 4090 4092 
Q 4678 3434 4678 2328 
Q 4678 1225 4090 567 
Q 3503 -91 2522 -91 
Q 1538 -91 948 565 
Q 359 1222 359 2328 
Q 359 3434 948 4092 
Q 1538 4750 2522 4750 
z
" transform="scale(0.015625)"/>
       <path id="DejaVuSans-4d" d="M 628 4666 
L 1569 4666 
L 2759 1491 
L 3956 4666 
L 4897 4666 
L 4897 0 
L 4281 0 
L 4281 4097 
L 3078 897 
L 2444 897 
L 1241 4097 
L 1241 0 
L 628 0 
L 628 4666 
z
" transform="scale(0.015625)"/>
       <path id="DejaVuSans-50" d="M 1259 4147 
L 1259 2394 
L 2053 2394 
Q 2494 2394 2734 2622 
Q 2975 2850 2975 3272 
Q 2975 3691 2734 3919 
Q 2494 4147 2053 4147 
L 1259 4147 
z
M 628 4666 
L 2053 4666 
Q 2838 4666 3239 4311 
Q 3641 3956 3641 3272 
Q 3641 2581 3239 2228 
Q 2838 1875 2053 1875 
L 1259 1875 
L 1259 0 
L 628 0 
L 628 4666 
z
" transform="scale(0.015625)"/>
       <path id="DejaVuSans-5f" d="M 3263 -1063 
L 3263 -1509 
L -63 -1509 
L -63 -1063 
L 3263 -1063 
z
" transform="scale(0.015625)"/>
       <path id="DejaVuSans-54" d="M -19 4666 
L 3928 4666 
L 3928 4134 
L 2272 4134 
L 2272 0 
L 1638 0 
L 1638 4134 
L -19 4134 
L -19 4666 
z
" transform="scale(0.015625)"/>
       <path id="DejaVuSans-41" d="M 2188 4044 
L 1331 1722 
L 3047 1722 
L 2188 4044 
z
M 1831 4666 
L 2547 4666 
L 4325 0 
L 3669 0 
L 3244 1197 
L 1141 1197 
L 716 0 
L 50 0 
L 1831 4666 
z
" transform="scale(0.015625)"/>
      </defs>
      <use xlink:href="#DejaVuSans-4f"/>
      <use xlink:href="#DejaVuSans-4d" x="78.710938"/>
      <use xlink:href="#DejaVuSans-50" x="164.990234"/>
      <use xlink:href="#DejaVuSans-5f" x="225.292969"/>
      <use xlink:href="#DejaVuSans-53" x="275.292969"/>
      <use xlink:href="#DejaVuSans-54" x="338.769531"/>
      <use xlink:href="#DejaVuSans-41" x="392.103516"/>
      <use xlink:href="#DejaVuSans-54" x="452.761719"/>
      <use xlink:href="#DejaVuSans-49" x="513.845703"/>
      <use xlink:href="#DejaVuSans-43" x="543.337891"/>
     </g>
    </g>
    <g id="line2d_26">
     <path d="M 139.23125 61.594687 
L 153.23125 61.594687 
L 167.23125 61.594687 
" style="fill: none; stroke: #ff0000; stroke-width: 1.5; stroke-linecap: square"/>
    </g>
    <g id="text_16">
     <!-- OMP_GUIDED_MONOTONIC -->
     <g transform="translate(178.43125 66.494687) scale(0.14 -0.14)">
      <defs>
       <path id="DejaVuSans-47" d="M 3809 666 
L 3809 1919 
L 2778 1919 
L 2778 2438 
L 4434 2438 
L 4434 434 
Q 4069 175 3628 42 
Q 3188 -91 2688 -91 
Q 1594 -91 976 548 
Q 359 1188 359 2328 
Q 359 3472 976 4111 
Q 1594 4750 2688 4750 
Q 3144 4750 3555 4637 
Q 3966 4525 4313 4306 
L 4313 3634 
Q 3963 3931 3569 4081 
Q 3175 4231 2741 4231 
Q 1884 4231 1454 3753 
Q 1025 3275 1025 2328 
Q 1025 1384 1454 906 
Q 1884 428 2741 428 
Q 3075 428 3337 486 
Q 3600 544 3809 666 
z
" transform="scale(0.015625)"/>
       <path id="DejaVuSans-55" d="M 556 4666 
L 1191 4666 
L 1191 1831 
Q 1191 1081 1462 751 
Q 1734 422 2344 422 
Q 2950 422 3222 751 
Q 3494 1081 3494 1831 
L 3494 4666 
L 4128 4666 
L 4128 1753 
Q 4128 841 3676 375 
Q 3225 -91 2344 -91 
Q 1459 -91 1007 375 
Q 556 841 556 1753 
L 556 4666 
z
" transform="scale(0.015625)"/>
       <path id="DejaVuSans-44" d="M 1259 4147 
L 1259 519 
L 2022 519 
Q 2988 519 3436 956 
Q 3884 1394 3884 2338 
Q 3884 3275 3436 3711 
Q 2988 4147 2022 4147 
L 1259 4147 
z
M 628 4666 
L 1925 4666 
Q 3281 4666 3915 4102 
Q 4550 3538 4550 2338 
Q 4550 1131 3912 565 
Q 3275 0 1925 0 
L 628 0 
L 628 4666 
z
" transform="scale(0.015625)"/>
       <path id="DejaVuSans-45" d="M 628 4666 
L 3578 4666 
L 3578 4134 
L 1259 4134 
L 1259 2753 
L 3481 2753 
L 3481 2222 
L 1259 2222 
L 1259 531 
L 3634 531 
L 3634 0 
L 628 0 
L 628 4666 
z
" transform="scale(0.015625)"/>
       <path id="DejaVuSans-4e" d="M 628 4666 
L 1478 4666 
L 3547 763 
L 3547 4666 
L 4159 4666 
L 4159 0 
L 3309 0 
L 1241 3903 
L 1241 0 
L 628 0 
L 628 4666 
z
" transform="scale(0.015625)"/>
      </defs>
      <use xlink:href="#DejaVuSans-4f"/>
      <use xlink:href="#DejaVuSans-4d" x="78.710938"/>
      <use xlink:href="#DejaVuSans-50" x="164.990234"/>
      <use xlink:href="#DejaVuSans-5f" x="225.292969"/>
      <use xlink:href="#DejaVuSans-47" x="275.292969"/>
      <use xlink:href="#DejaVuSans-55" x="352.783203"/>
      <use xlink:href="#DejaVuSans-49" x="425.976562"/>
      <use xlink:href="#DejaVuSans-44" x="455.46875"/>
      <use xlink:href="#DejaVuSans-45" x="532.470703"/>
      <use xlink:href="#DejaVuSans-44" x="595.654297"/>
      <use xlink:href="#DejaVuSans-5f" x="672.65625"/>
      <use xlink:href="#DejaVuSans-4d" x="722.65625"/>
      <use xlink:href="#DejaVuSans-4f" x="808.935547"/>
      <use xlink:href="#DejaVuSans-4e" x="887.646484"/>
      <use xlink:href="#DejaVuSans-4f" x="962.451172"/>
      <use xlink:href="#DejaVuSans-54" x="1041.162109"/>
      <use xlink:href="#DejaVuSans-4f" x="1102.246094"/>
      <use xlink:href="#DejaVuSans-4e" x="1180.957031"/>
      <use xlink:href="#DejaVuSans-49" x="1255.761719"/>
      <use xlink:href="#DejaVuSans-43" x="1285.253906"/>
     </g>
    </g>
    <g id="line2d_27">
     <path d="M 139.23125 82.533437 
L 153.23125 82.533437 
L 167.23125 82.533437 
" style="fill: none; stroke: #00bfbf; stroke-width: 1.5; stroke-linecap: square"/>
    </g>
    <g id="text_17">
     <!-- OMP_GUIDED_NONMONOTONIC -->
     <g transform="translate(178.43125 87.433437) scale(0.14 -0.14)">
      <use xlink:href="#DejaVuSans-4f"/>
      <use xlink:href="#DejaVuSans-4d" x="78.710938"/>
      <use xlink:href="#DejaVuSans-50" x="164.990234"/>
      <use xlink:href="#DejaVuSans-5f" x="225.292969"/>
      <use xlink:href="#DejaVuSans-47" x="275.292969"/>
      <use xlink:href="#DejaVuSans-55" x="352.783203"/>
      <use xlink:href="#DejaVuSans-49" x="425.976562"/>
      <use xlink:href="#DejaVuSans-44" x="455.46875"/>
      <use xlink:href="#DejaVuSans-45" x="532.470703"/>
      <use xlink:href="#DejaVuSans-44" x="595.654297"/>
      <use xlink:href="#DejaVuSans-5f" x="672.65625"/>
      <use xlink:href="#DejaVuSans-4e" x="722.65625"/>
      <use xlink:href="#DejaVuSans-4f" x="797.460938"/>
      <use xlink:href="#DejaVuSans-4e" x="876.171875"/>
      <use xlink:href="#DejaVuSans-4d" x="950.976562"/>
      <use xlink:href="#DejaVuSans-4f" x="1037.255859"/>
      <use xlink:href="#DejaVuSans-4e" x="1115.966797"/>
      <use xlink:href="#DejaVuSans-4f" x="1190.771484"/>
      <use xlink:href="#DejaVuSans-54" x="1269.482422"/>
      <use xlink:href="#DejaVuSans-4f" x="1330.566406"/>
      <use xlink:href="#DejaVuSans-4e" x="1409.277344"/>
      <use xlink:href="#DejaVuSans-49" x="1484.082031"/>
      <use xlink:href="#DejaVuSans-43" x="1513.574219"/>
     </g>
    </g>
    <g id="line2d_28">
     <path d="M 139.23125 103.472187 
L 153.23125 103.472187 
L 167.23125 103.472187 
" style="fill: none; stroke: #bf00bf; stroke-width: 1.5; stroke-linecap: square"/>
    </g>
    <g id="text_18">
     <!-- OMP_DYNAMIC_NONMONOTONIC -->
     <g transform="translate(178.43125 108.372187) scale(0.14 -0.14)">
      <defs>
       <path id="DejaVuSans-59" d="M -13 4666 
L 666 4666 
L 1959 2747 
L 3244 4666 
L 3922 4666 
L 2272 2222 
L 2272 0 
L 1638 0 
L 1638 2222 
L -13 4666 
z
" transform="scale(0.015625)"/>
      </defs>
      <use xlink:href="#DejaVuSans-4f"/>
      <use xlink:href="#DejaVuSans-4d" x="78.710938"/>
      <use xlink:href="#DejaVuSans-50" x="164.990234"/>
      <use xlink:href="#DejaVuSans-5f" x="225.292969"/>
      <use xlink:href="#DejaVuSans-44" x="275.292969"/>
      <use xlink:href="#DejaVuSans-59" x="346.794922"/>
      <use xlink:href="#DejaVuSans-4e" x="407.878906"/>
      <use xlink:href="#DejaVuSans-41" x="482.683594"/>
      <use xlink:href="#DejaVuSans-4d" x="551.091797"/>
      <use xlink:href="#DejaVuSans-49" x="637.371094"/>
      <use xlink:href="#DejaVuSans-43" x="666.863281"/>
      <use xlink:href="#DejaVuSans-5f" x="736.6875"/>
      <use xlink:href="#DejaVuSans-4e" x="786.6875"/>
      <use xlink:href="#DejaVuSans-4f" x="861.492188"/>
      <use xlink:href="#DejaVuSans-4e" x="940.203125"/>
      <use xlink:href="#DejaVuSans-4d" x="1015.007812"/>
      <use xlink:href="#DejaVuSans-4f" x="1101.287109"/>
      <use xlink:href="#DejaVuSans-4e" x="1179.998047"/>
      <use xlink:href="#DejaVuSans-4f" x="1254.802734"/>
      <use xlink:href="#DejaVuSans-54" x="1333.513672"/>
      <use xlink:href="#DejaVuSans-4f" x="1394.597656"/>
      <use xlink:href="#DejaVuSans-4e" x="1473.308594"/>
      <use xlink:href="#DejaVuSans-49" x="1548.113281"/>
      <use xlink:href="#DejaVuSans-43" x="1577.605469"/>
     </g>
    </g>
    <g id="line2d_29">
     <path d="M 139.23125 124.410937 
L 153.23125 124.410937 
L 167.23125 124.410937 
" style="fill: none; stroke: #000000; stroke-width: 1.5; stroke-linecap: square"/>
    </g>
    <g id="text_19">
     <!-- TBB_AFFINITY -->
     <g transform="translate(178.43125 129.310937) scale(0.14 -0.14)">
      <defs>
       <path id="DejaVuSans-42" d="M 1259 2228 
L 1259 519 
L 2272 519 
Q 2781 519 3026 730 
Q 3272 941 3272 1375 
Q 3272 1813 3026 2020 
Q 2781 2228 2272 2228 
L 1259 2228 
z
M 1259 4147 
L 1259 2741 
L 2194 2741 
Q 2656 2741 2882 2914 
Q 3109 3088 3109 3444 
Q 3109 3797 2882 3972 
Q 2656 4147 2194 4147 
L 1259 4147 
z
M 628 4666 
L 2241 4666 
Q 2963 4666 3353 4366 
Q 3744 4066 3744 3513 
Q 3744 3084 3544 2831 
Q 3344 2578 2956 2516 
Q 3422 2416 3680 2098 
Q 3938 1781 3938 1306 
Q 3938 681 3513 340 
Q 3088 0 2303 0 
L 628 0 
L 628 4666 
z
" transform="scale(0.015625)"/>
       <path id="DejaVuSans-46" d="M 628 4666 
L 3309 4666 
L 3309 4134 
L 1259 4134 
L 1259 2759 
L 3109 2759 
L 3109 2228 
L 1259 2228 
L 1259 0 
L 628 0 
L 628 4666 
z
" transform="scale(0.015625)"/>
      </defs>
      <use xlink:href="#DejaVuSans-54"/>
      <use xlink:href="#DejaVuSans-42" x="61.083984"/>
      <use xlink:href="#DejaVuSans-42" x="129.6875"/>
      <use xlink:href="#DejaVuSans-5f" x="198.291016"/>
      <use xlink:href="#DejaVuSans-41" x="248.291016"/>
      <use xlink:href="#DejaVuSans-46" x="316.699219"/>
      <use xlink:href="#DejaVuSans-46" x="374.21875"/>
      <use xlink:href="#DejaVuSans-49" x="431.738281"/>
      <use xlink:href="#DejaVuSans-4e" x="461.230469"/>
      <use xlink:href="#DejaVuSans-49" x="536.035156"/>
      <use xlink:href="#DejaVuSans-54" x="565.527344"/>
      <use xlink:href="#DejaVuSans-59" x="626.611328"/>
     </g>
    </g>
    <g id="line2d_30">
     <path d="M 139.23125 145.349687 
L 153.23125 145.349687 
L 167.23125 145.349687 
" style="fill: none; stroke-dasharray: 5.55,2.4; stroke-dashoffset: 0; stroke: #0000ff; stroke-width: 1.5"/>
    </g>
    <g id="text_20">
     <!-- TBB_CONST_AFFINITY -->
     <g transform="translate(178.43125 150.249687) scale(0.14 -0.14)">
      <use xlink:href="#DejaVuSans-54"/>
      <use xlink:href="#DejaVuSans-42" x="61.083984"/>
      <use xlink:href="#DejaVuSans-42" x="129.6875"/>
      <use xlink:href="#DejaVuSans-5f" x="198.291016"/>
      <use xlink:href="#DejaVuSans-43" x="248.291016"/>
      <use xlink:href="#DejaVuSans-4f" x="318.115234"/>
      <use xlink:href="#DejaVuSans-4e" x="396.826172"/>
      <use xlink:href="#DejaVuSans-53" x="471.630859"/>
      <use xlink:href="#DejaVuSans-54" x="535.107422"/>
      <use xlink:href="#DejaVuSans-5f" x="596.191406"/>
      <use xlink:href="#DejaVuSans-41" x="646.191406"/>
      <use xlink:href="#DejaVuSans-46" x="714.599609"/>
      <use xlink:href="#DejaVuSans-46" x="772.119141"/>
      <use xlink:href="#DejaVuSans-49" x="829.638672"/>
      <use xlink:href="#DejaVuSans-4e" x="859.130859"/>
      <use xlink:href="#DejaVuSans-49" x="933.935547"/>
      <use xlink:href="#DejaVuSans-54" x="963.427734"/>
      <use xlink:href="#DejaVuSans-59" x="1024.511719"/>
     </g>
    </g>
    <g id="line2d_31">
     <path d="M 139.23125 166.288437 
L 153.23125 166.288437 
L 167.23125 166.288437 
" style="fill: none; stroke-dasharray: 5.55,2.4; stroke-dashoffset: 0; stroke: #008000; stroke-width: 1.5"/>
    </g>
    <g id="text_21">
     <!-- TBB_SIMPLE -->
     <g transform="translate(178.43125 171.188437) scale(0.14 -0.14)">
      <defs>
       <path id="DejaVuSans-4c" d="M 628 4666 
L 1259 4666 
L 1259 531 
L 3531 531 
L 3531 0 
L 628 0 
L 628 4666 
z
" transform="scale(0.015625)"/>
      </defs>
      <use xlink:href="#DejaVuSans-54"/>
      <use xlink:href="#DejaVuSans-42" x="61.083984"/>
      <use xlink:href="#DejaVuSans-42" x="129.6875"/>
      <use xlink:href="#DejaVuSans-5f" x="198.291016"/>
      <use xlink:href="#DejaVuSans-53" x="248.291016"/>
      <use xlink:href="#DejaVuSans-49" x="311.767578"/>
      <use xlink:href="#DejaVuSans-4d" x="341.259766"/>
      <use xlink:href="#DejaVuSans-50" x="427.539062"/>
      <use xlink:href="#DejaVuSans-4c" x="487.841797"/>
      <use xlink:href="#DejaVuSans-45" x="543.554688"/>
     </g>
    </g>
    <g id="line2d_32">
     <path d="M 139.23125 187.227187 
L 153.23125 187.227187 
L 167.23125 187.227187 
" style="fill: none; stroke-dasharray: 5.55,2.4; stroke-dashoffset: 0; stroke: #ff0000; stroke-width: 1.5"/>
    </g>
    <g id="text_22">
     <!-- TBB_AUTO -->
     <g transform="translate(178.43125 192.127187) scale(0.14 -0.14)">
      <use xlink:href="#DejaVuSans-54"/>
      <use xlink:href="#DejaVuSans-42" x="61.083984"/>
      <use xlink:href="#DejaVuSans-42" x="129.6875"/>
      <use xlink:href="#DejaVuSans-5f" x="198.291016"/>
      <use xlink:href="#DejaVuSans-41" x="248.291016"/>
      <use xlink:href="#DejaVuSans-55" x="316.699219"/>
      <use xlink:href="#DejaVuSans-54" x="389.892578"/>
      <use xlink:href="#DejaVuSans-4f" x="450.976562"/>
     </g>
    </g>
    <g id="line2d_33">
     <path d="M 139.23125 208.165937 
L 153.23125 208.165937 
L 167.23125 208.165937 
" style="fill: none; stroke-dasharray: 5.55,2.4; stroke-dashoffset: 0; stroke: #00bfbf; stroke-width: 1.5"/>
    </g>
    <g id="text_23">
     <!-- EIGEN_SIMPLE -->
     <g transform="translate(178.43125 213.065937) scale(0.14 -0.14)">
      <use xlink:href="#DejaVuSans-45"/>
      <use xlink:href="#DejaVuSans-49" x="63.183594"/>
      <use xlink:href="#DejaVuSans-47" x="92.675781"/>
      <use xlink:href="#DejaVuSans-45" x="170.166016"/>
      <use xlink:href="#DejaVuSans-4e" x="233.349609"/>
      <use xlink:href="#DejaVuSans-5f" x="308.154297"/>
      <use xlink:href="#DejaVuSans-53" x="358.154297"/>
      <use xlink:href="#DejaVuSans-49" x="421.630859"/>
      <use xlink:href="#DejaVuSans-4d" x="451.123047"/>
      <use xlink:href="#DejaVuSans-50" x="537.402344"/>
      <use xlink:href="#DejaVuSans-4c" x="597.705078"/>
      <use xlink:href="#DejaVuSans-45" x="653.417969"/>
     </g>
    </g>
    <g id="line2d_34">
     <path d="M 139.23125 229.104687 
L 153.23125 229.104687 
L 167.23125 229.104687 
" style="fill: none; stroke-dasharray: 5.55,2.4; stroke-dashoffset: 0; stroke: #bf00bf; stroke-width: 1.5"/>
    </g>
    <g id="text_24">
     <!-- EIGEN_STATIC -->
     <g transform="translate(178.43125 234.004687) scale(0.14 -0.14)">
      <use xlink:href="#DejaVuSans-45"/>
      <use xlink:href="#DejaVuSans-49" x="63.183594"/>
      <use xlink:href="#DejaVuSans-47" x="92.675781"/>
      <use xlink:href="#DejaVuSans-45" x="170.166016"/>
      <use xlink:href="#DejaVuSans-4e" x="233.349609"/>
      <use xlink:href="#DejaVuSans-5f" x="308.154297"/>
      <use xlink:href="#DejaVuSans-53" x="358.154297"/>
      <use xlink:href="#DejaVuSans-54" x="421.630859"/>
      <use xlink:href="#DejaVuSans-41" x="474.964844"/>
      <use xlink:href="#DejaVuSans-54" x="535.623047"/>
      <use xlink:href="#DejaVuSans-49" x="596.707031"/>
      <use xlink:href="#DejaVuSans-43" x="626.199219"/>
     </g>
    </g>
    <g id="line2d_35">
     <path d="M 139.23125 250.043437 
L 153.23125 250.043437 
L 167.23125 250.043437 
" style="fill: none; stroke-dasharray: 5.55,2.4; stroke-dashoffset: 0; stroke: #000000; stroke-width: 1.5"/>
    </g>
    <g id="text_25">
     <!-- OMP_DYNAMIC_MONOTONIC -->
     <g transform="translate(178.43125 254.943437) scale(0.14 -0.14)">
      <use xlink:href="#DejaVuSans-4f"/>
      <use xlink:href="#DejaVuSans-4d" x="78.710938"/>
      <use xlink:href="#DejaVuSans-50" x="164.990234"/>
      <use xlink:href="#DejaVuSans-5f" x="225.292969"/>
      <use xlink:href="#DejaVuSans-44" x="275.292969"/>
      <use xlink:href="#DejaVuSans-59" x="346.794922"/>
      <use xlink:href="#DejaVuSans-4e" x="407.878906"/>
      <use xlink:href="#DejaVuSans-41" x="482.683594"/>
      <use xlink:href="#DejaVuSans-4d" x="551.091797"/>
      <use xlink:href="#DejaVuSans-49" x="637.371094"/>
      <use xlink:href="#DejaVuSans-43" x="666.863281"/>
      <use xlink:href="#DejaVuSans-5f" x="736.6875"/>
      <use xlink:href="#DejaVuSans-4d" x="786.6875"/>
      <use xlink:href="#DejaVuSans-4f" x="872.966797"/>
      <use xlink:href="#DejaVuSans-4e" x="951.677734"/>
      <use xlink:href="#DejaVuSans-4f" x="1026.482422"/>
      <use xlink:href="#DejaVuSans-54" x="1105.193359"/>
      <use xlink:href="#DejaVuSans-4f" x="1166.277344"/>
      <use xlink:href="#DejaVuSans-4e" x="1244.988281"/>
      <use xlink:href="#DejaVuSans-49" x="1319.792969"/>
      <use xlink:href="#DejaVuSans-43" x="1349.285156"/>
     </g>
    </g>
    <g id="line2d_36">
     <path d="M 139.23125 270.982188 
L 153.23125 270.982188 
L 167.23125 270.982188 
" style="fill: none; stroke-dasharray: 9.6,2.4,1.5,2.4; stroke-dashoffset: 0; stroke: #0000ff; stroke-width: 1.5"/>
    </g>
    <g id="text_26">
     <!-- EIGEN_TIMESPAN -->
     <g transform="translate(178.43125 275.882187) scale(0.14 -0.14)">
      <use xlink:href="#DejaVuSans-45"/>
      <use xlink:href="#DejaVuSans-49" x="63.183594"/>
      <use xlink:href="#DejaVuSans-47" x="92.675781"/>
      <use xlink:href="#DejaVuSans-45" x="170.166016"/>
      <use xlink:href="#DejaVuSans-4e" x="233.349609"/>
      <use xlink:href="#DejaVuSans-5f" x="308.154297"/>
      <use xlink:href="#DejaVuSans-54" x="358.154297"/>
      <use xlink:href="#DejaVuSans-49" x="419.238281"/>
      <use xlink:href="#DejaVuSans-4d" x="448.730469"/>
      <use xlink:href="#DejaVuSans-45" x="535.009766"/>
      <use xlink:href="#DejaVuSans-53" x="598.193359"/>
      <use xlink:href="#DejaVuSans-50" x="661.669922"/>
      <use xlink:href="#DejaVuSans-41" x="715.597656"/>
      <use xlink:href="#DejaVuSans-4e" x="784.005859"/>
     </g>
    </g>
    <g id="line2d_37">
     <path d="M 139.23125 291.920937 
L 153.23125 291.920937 
L 167.23125 291.920937 
" style="fill: none; stroke-dasharray: 9.6,2.4,1.5,2.4; stroke-dashoffset: 0; stroke: #008000; stroke-width: 1.5"/>
    </g>
    <g id="text_27">
     <!-- EIGEN_TIMESPAN_GRAINSIZE -->
     <g transform="translate(178.43125 296.820937) scale(0.14 -0.14)">
      <defs>
       <path id="DejaVuSans-52" d="M 2841 2188 
Q 3044 2119 3236 1894 
Q 3428 1669 3622 1275 
L 4263 0 
L 3584 0 
L 2988 1197 
Q 2756 1666 2539 1819 
Q 2322 1972 1947 1972 
L 1259 1972 
L 1259 0 
L 628 0 
L 628 4666 
L 2053 4666 
Q 2853 4666 3247 4331 
Q 3641 3997 3641 3322 
Q 3641 2881 3436 2590 
Q 3231 2300 2841 2188 
z
M 1259 4147 
L 1259 2491 
L 2053 2491 
Q 2509 2491 2742 2702 
Q 2975 2913 2975 3322 
Q 2975 3731 2742 3939 
Q 2509 4147 2053 4147 
L 1259 4147 
z
" transform="scale(0.015625)"/>
       <path id="DejaVuSans-5a" d="M 359 4666 
L 4025 4666 
L 4025 4184 
L 1075 531 
L 4097 531 
L 4097 0 
L 288 0 
L 288 481 
L 3238 4134 
L 359 4134 
L 359 4666 
z
" transform="scale(0.015625)"/>
      </defs>
      <use xlink:href="#DejaVuSans-45"/>
      <use xlink:href="#DejaVuSans-49" x="63.183594"/>
      <use xlink:href="#DejaVuSans-47" x="92.675781"/>
      <use xlink:href="#DejaVuSans-45" x="170.166016"/>
      <use xlink:href="#DejaVuSans-4e" x="233.349609"/>
      <use xlink:href="#DejaVuSans-5f" x="308.154297"/>
      <use xlink:href="#DejaVuSans-54" x="358.154297"/>
      <use xlink:href="#DejaVuSans-49" x="419.238281"/>
      <use xlink:href="#DejaVuSans-4d" x="448.730469"/>
      <use xlink:href="#DejaVuSans-45" x="535.009766"/>
      <use xlink:href="#DejaVuSans-53" x="598.193359"/>
      <use xlink:href="#DejaVuSans-50" x="661.669922"/>
      <use xlink:href="#DejaVuSans-41" x="715.597656"/>
      <use xlink:href="#DejaVuSans-4e" x="784.005859"/>
      <use xlink:href="#DejaVuSans-5f" x="858.810547"/>
      <use xlink:href="#DejaVuSans-47" x="908.810547"/>
      <use xlink:href="#DejaVuSans-52" x="986.300781"/>
      <use xlink:href="#DejaVuSans-41" x="1051.783203"/>
      <use xlink:href="#DejaVuSans-49" x="1120.191406"/>
      <use xlink:href="#DejaVuSans-4e" x="1149.683594"/>
      <use xlink:href="#DejaVuSans-53" x="1224.488281"/>
      <use xlink:href="#DejaVuSans-49" x="1287.964844"/>
      <use xlink:href="#DejaVuSans-5a" x="1317.457031"/>
      <use xlink:href="#DejaVuSans-45" x="1385.962891"/>
     </g>
    </g>
   </g>
  </g>
 </g>
 <defs>
  <clipPath id="p376d91ce7f">
   <rect x="126.63125" y="22.318125" width="1004.4" height="332.64"/>
  </clipPath>
 </defs>
</svg>
