<?xml version="1.0" encoding="utf-8" standalone="no"?>
<!DOCTYPE svg PUBLIC "-//W3C//DTD SVG 1.1//EN"
  "http://www.w3.org/Graphics/SVG/1.1/DTD/svg11.dtd">
<svg xmlns:xlink="http://www.w3.org/1999/xlink" width="1125.50625pt" height="411.870625pt" viewBox="0 0 1125.50625 411.870625" xmlns="http://www.w3.org/2000/svg" version="1.1">
 <metadata>
  <rdf:RDF xmlns:dc="http://purl.org/dc/elements/1.1/" xmlns:cc="http://creativecommons.org/ns#" xmlns:rdf="http://www.w3.org/1999/02/22-rdf-syntax-ns#">
   <cc:Work>
    <dc:type rdf:resource="http://purl.org/dc/dcmitype/StillImage"/>
    <dc:date>2023-02-13T22:45:27.379124</dc:date>
    <dc:format>image/svg+xml</dc:format>
    <dc:creator>
     <cc:Agent>
      <dc:title>Matplotlib v3.6.3, https://matplotlib.org/</dc:title>
     </cc:Agent>
    </dc:creator>
   </cc:Work>
  </rdf:RDF>
 </metadata>
 <defs>
  <style type="text/css">*{stroke-linejoin: round; stroke-linecap: butt}</style>
 </defs>
 <g id="figure_1">
  <g id="patch_1">
   <path d="M -0 411.870625 
L 1125.50625 411.870625 
L 1125.50625 0 
L -0 0 
z
" style="fill: #ffffff"/>
  </g>
  <g id="axes_1">
   <g id="patch_2">
    <path d="M 113.90625 354.958125 
L 1118.30625 354.958125 
L 1118.30625 22.318125 
L 113.90625 22.318125 
z
" style="fill: #ffffff"/>
   </g>
   <g id="matplotlib.axis_1">
    <g id="xtick_1">
     <g id="line2d_1">
      <defs>
       <path id="mfb472caf92" d="M 0 0 
L 0 3.5 
" style="stroke: #000000; stroke-width: 0.8"/>
      </defs>
      <g>
       <use xlink:href="#mfb472caf92" x="159.560795" y="354.958125" style="stroke: #000000; stroke-width: 0.8"/>
      </g>
     </g>
     <g id="text_1">
      <!-- 0 -->
      <g transform="translate(153.198295 377.155) scale(0.2 -0.2)">
       <defs>
        <path id="DejaVuSans-30" d="M 2034 4250 
Q 1547 4250 1301 3770 
Q 1056 3291 1056 2328 
Q 1056 1369 1301 889 
Q 1547 409 2034 409 
Q 2525 409 2770 889 
Q 3016 1369 3016 2328 
Q 3016 3291 2770 3770 
Q 2525 4250 2034 4250 
z
M 2034 4750 
Q 2819 4750 3233 4129 
Q 3647 3509 3647 2328 
Q 3647 1150 3233 529 
Q 2819 -91 2034 -91 
Q 1250 -91 836 529 
Q 422 1150 422 2328 
Q 422 3509 836 4129 
Q 1250 4750 2034 4750 
z
" transform="scale(0.015625)"/>
       </defs>
       <use xlink:href="#DejaVuSans-30"/>
      </g>
     </g>
    </g>
    <g id="xtick_2">
     <g id="line2d_2">
      <g>
       <use xlink:href="#mfb472caf92" x="306.833523" y="354.958125" style="stroke: #000000; stroke-width: 0.8"/>
      </g>
     </g>
     <g id="text_2">
      <!-- 5 -->
      <g transform="translate(300.471023 377.155) scale(0.2 -0.2)">
       <defs>
        <path id="DejaVuSans-35" d="M 691 4666 
L 3169 4666 
L 3169 4134 
L 1269 4134 
L 1269 2991 
Q 1406 3038 1543 3061 
Q 1681 3084 1819 3084 
Q 2600 3084 3056 2656 
Q 3513 2228 3513 1497 
Q 3513 744 3044 326 
Q 2575 -91 1722 -91 
Q 1428 -91 1123 -41 
Q 819 9 494 109 
L 494 744 
Q 775 591 1075 516 
Q 1375 441 1709 441 
Q 2250 441 2565 725 
Q 2881 1009 2881 1497 
Q 2881 1984 2565 2268 
Q 2250 2553 1709 2553 
Q 1456 2553 1204 2497 
Q 953 2441 691 2322 
L 691 4666 
z
" transform="scale(0.015625)"/>
       </defs>
       <use xlink:href="#DejaVuSans-35"/>
      </g>
     </g>
    </g>
    <g id="xtick_3">
     <g id="line2d_3">
      <g>
       <use xlink:href="#mfb472caf92" x="454.10625" y="354.958125" style="stroke: #000000; stroke-width: 0.8"/>
      </g>
     </g>
     <g id="text_3">
      <!-- 10 -->
      <g transform="translate(441.38125 377.155) scale(0.2 -0.2)">
       <defs>
        <path id="DejaVuSans-31" d="M 794 531 
L 1825 531 
L 1825 4091 
L 703 3866 
L 703 4441 
L 1819 4666 
L 2450 4666 
L 2450 531 
L 3481 531 
L 3481 0 
L 794 0 
L 794 531 
z
" transform="scale(0.015625)"/>
       </defs>
       <use xlink:href="#DejaVuSans-31"/>
       <use xlink:href="#DejaVuSans-30" x="63.623047"/>
      </g>
     </g>
    </g>
    <g id="xtick_4">
     <g id="line2d_4">
      <g>
       <use xlink:href="#mfb472caf92" x="601.378977" y="354.958125" style="stroke: #000000; stroke-width: 0.8"/>
      </g>
     </g>
     <g id="text_4">
      <!-- 15 -->
      <g transform="translate(588.653977 377.155) scale(0.2 -0.2)">
       <use xlink:href="#DejaVuSans-31"/>
       <use xlink:href="#DejaVuSans-35" x="63.623047"/>
      </g>
     </g>
    </g>
    <g id="xtick_5">
     <g id="line2d_5">
      <g>
       <use xlink:href="#mfb472caf92" x="748.651705" y="354.958125" style="stroke: #000000; stroke-width: 0.8"/>
      </g>
     </g>
     <g id="text_5">
      <!-- 20 -->
      <g transform="translate(735.926705 377.155) scale(0.2 -0.2)">
       <defs>
        <path id="DejaVuSans-32" d="M 1228 531 
L 3431 531 
L 3431 0 
L 469 0 
L 469 531 
Q 828 903 1448 1529 
Q 2069 2156 2228 2338 
Q 2531 2678 2651 2914 
Q 2772 3150 2772 3378 
Q 2772 3750 2511 3984 
Q 2250 4219 1831 4219 
Q 1534 4219 1204 4116 
Q 875 4013 500 3803 
L 500 4441 
Q 881 4594 1212 4672 
Q 1544 4750 1819 4750 
Q 2544 4750 2975 4387 
Q 3406 4025 3406 3419 
Q 3406 3131 3298 2873 
Q 3191 2616 2906 2266 
Q 2828 2175 2409 1742 
Q 1991 1309 1228 531 
z
" transform="scale(0.015625)"/>
       </defs>
       <use xlink:href="#DejaVuSans-32"/>
       <use xlink:href="#DejaVuSans-30" x="63.623047"/>
      </g>
     </g>
    </g>
    <g id="xtick_6">
     <g id="line2d_6">
      <g>
       <use xlink:href="#mfb472caf92" x="895.924432" y="354.958125" style="stroke: #000000; stroke-width: 0.8"/>
      </g>
     </g>
     <g id="text_6">
      <!-- 25 -->
      <g transform="translate(883.199432 377.155) scale(0.2 -0.2)">
       <use xlink:href="#DejaVuSans-32"/>
       <use xlink:href="#DejaVuSans-35" x="63.623047"/>
      </g>
     </g>
    </g>
    <g id="xtick_7">
     <g id="line2d_7">
      <g>
       <use xlink:href="#mfb472caf92" x="1043.197159" y="354.958125" style="stroke: #000000; stroke-width: 0.8"/>
      </g>
     </g>
     <g id="text_7">
      <!-- 30 -->
      <g transform="translate(1030.472159 377.155) scale(0.2 -0.2)">
       <defs>
        <path id="DejaVuSans-33" d="M 2597 2516 
Q 3050 2419 3304 2112 
Q 3559 1806 3559 1356 
Q 3559 666 3084 287 
Q 2609 -91 1734 -91 
Q 1441 -91 1130 -33 
Q 819 25 488 141 
L 488 750 
Q 750 597 1062 519 
Q 1375 441 1716 441 
Q 2309 441 2620 675 
Q 2931 909 2931 1356 
Q 2931 1769 2642 2001 
Q 2353 2234 1838 2234 
L 1294 2234 
L 1294 2753 
L 1863 2753 
Q 2328 2753 2575 2939 
Q 2822 3125 2822 3475 
Q 2822 3834 2567 4026 
Q 2313 4219 1838 4219 
Q 1578 4219 1281 4162 
Q 984 4106 628 3988 
L 628 4550 
Q 988 4650 1302 4700 
Q 1616 4750 1894 4750 
Q 2613 4750 3031 4423 
Q 3450 4097 3450 3541 
Q 3450 3153 3228 2886 
Q 3006 2619 2597 2516 
z
" transform="scale(0.015625)"/>
       </defs>
       <use xlink:href="#DejaVuSans-33"/>
       <use xlink:href="#DejaVuSans-30" x="63.623047"/>
      </g>
     </g>
    </g>
    <g id="text_8">
     <!-- Index of thread (sorted by time of first task) -->
     <g transform="translate(395.985938 400.51125) scale(0.2 -0.2)">
      <defs>
       <path id="DejaVuSans-49" d="M 628 4666 
L 1259 4666 
L 1259 0 
L 628 0 
L 628 4666 
z
" transform="scale(0.015625)"/>
       <path id="DejaVuSans-6e" d="M 3513 2113 
L 3513 0 
L 2938 0 
L 2938 2094 
Q 2938 2591 2744 2837 
Q 2550 3084 2163 3084 
Q 1697 3084 1428 2787 
Q 1159 2491 1159 1978 
L 1159 0 
L 581 0 
L 581 3500 
L 1159 3500 
L 1159 2956 
Q 1366 3272 1645 3428 
Q 1925 3584 2291 3584 
Q 2894 3584 3203 3211 
Q 3513 2838 3513 2113 
z
" transform="scale(0.015625)"/>
       <path id="DejaVuSans-64" d="M 2906 2969 
L 2906 4863 
L 3481 4863 
L 3481 0 
L 2906 0 
L 2906 525 
Q 2725 213 2448 61 
Q 2172 -91 1784 -91 
Q 1150 -91 751 415 
Q 353 922 353 1747 
Q 353 2572 751 3078 
Q 1150 3584 1784 3584 
Q 2172 3584 2448 3432 
Q 2725 3281 2906 2969 
z
M 947 1747 
Q 947 1113 1208 752 
Q 1469 391 1925 391 
Q 2381 391 2643 752 
Q 2906 1113 2906 1747 
Q 2906 2381 2643 2742 
Q 2381 3103 1925 3103 
Q 1469 3103 1208 2742 
Q 947 2381 947 1747 
z
" transform="scale(0.015625)"/>
       <path id="DejaVuSans-65" d="M 3597 1894 
L 3597 1613 
L 953 1613 
Q 991 1019 1311 708 
Q 1631 397 2203 397 
Q 2534 397 2845 478 
Q 3156 559 3463 722 
L 3463 178 
Q 3153 47 2828 -22 
Q 2503 -91 2169 -91 
Q 1331 -91 842 396 
Q 353 884 353 1716 
Q 353 2575 817 3079 
Q 1281 3584 2069 3584 
Q 2775 3584 3186 3129 
Q 3597 2675 3597 1894 
z
M 3022 2063 
Q 3016 2534 2758 2815 
Q 2500 3097 2075 3097 
Q 1594 3097 1305 2825 
Q 1016 2553 972 2059 
L 3022 2063 
z
" transform="scale(0.015625)"/>
       <path id="DejaVuSans-78" d="M 3513 3500 
L 2247 1797 
L 3578 0 
L 2900 0 
L 1881 1375 
L 863 0 
L 184 0 
L 1544 1831 
L 300 3500 
L 978 3500 
L 1906 2253 
L 2834 3500 
L 3513 3500 
z
" transform="scale(0.015625)"/>
       <path id="DejaVuSans-20" transform="scale(0.015625)"/>
       <path id="DejaVuSans-6f" d="M 1959 3097 
Q 1497 3097 1228 2736 
Q 959 2375 959 1747 
Q 959 1119 1226 758 
Q 1494 397 1959 397 
Q 2419 397 2687 759 
Q 2956 1122 2956 1747 
Q 2956 2369 2687 2733 
Q 2419 3097 1959 3097 
z
M 1959 3584 
Q 2709 3584 3137 3096 
Q 3566 2609 3566 1747 
Q 3566 888 3137 398 
Q 2709 -91 1959 -91 
Q 1206 -91 779 398 
Q 353 888 353 1747 
Q 353 2609 779 3096 
Q 1206 3584 1959 3584 
z
" transform="scale(0.015625)"/>
       <path id="DejaVuSans-66" d="M 2375 4863 
L 2375 4384 
L 1825 4384 
Q 1516 4384 1395 4259 
Q 1275 4134 1275 3809 
L 1275 3500 
L 2222 3500 
L 2222 3053 
L 1275 3053 
L 1275 0 
L 697 0 
L 697 3053 
L 147 3053 
L 147 3500 
L 697 3500 
L 697 3744 
Q 697 4328 969 4595 
Q 1241 4863 1831 4863 
L 2375 4863 
z
" transform="scale(0.015625)"/>
       <path id="DejaVuSans-74" d="M 1172 4494 
L 1172 3500 
L 2356 3500 
L 2356 3053 
L 1172 3053 
L 1172 1153 
Q 1172 725 1289 603 
Q 1406 481 1766 481 
L 2356 481 
L 2356 0 
L 1766 0 
Q 1100 0 847 248 
Q 594 497 594 1153 
L 594 3053 
L 172 3053 
L 172 3500 
L 594 3500 
L 594 4494 
L 1172 4494 
z
" transform="scale(0.015625)"/>
       <path id="DejaVuSans-68" d="M 3513 2113 
L 3513 0 
L 2938 0 
L 2938 2094 
Q 2938 2591 2744 2837 
Q 2550 3084 2163 3084 
Q 1697 3084 1428 2787 
Q 1159 2491 1159 1978 
L 1159 0 
L 581 0 
L 581 4863 
L 1159 4863 
L 1159 2956 
Q 1366 3272 1645 3428 
Q 1925 3584 2291 3584 
Q 2894 3584 3203 3211 
Q 3513 2838 3513 2113 
z
" transform="scale(0.015625)"/>
       <path id="DejaVuSans-72" d="M 2631 2963 
Q 2534 3019 2420 3045 
Q 2306 3072 2169 3072 
Q 1681 3072 1420 2755 
Q 1159 2438 1159 1844 
L 1159 0 
L 581 0 
L 581 3500 
L 1159 3500 
L 1159 2956 
Q 1341 3275 1631 3429 
Q 1922 3584 2338 3584 
Q 2397 3584 2469 3576 
Q 2541 3569 2628 3553 
L 2631 2963 
z
" transform="scale(0.015625)"/>
       <path id="DejaVuSans-61" d="M 2194 1759 
Q 1497 1759 1228 1600 
Q 959 1441 959 1056 
Q 959 750 1161 570 
Q 1363 391 1709 391 
Q 2188 391 2477 730 
Q 2766 1069 2766 1631 
L 2766 1759 
L 2194 1759 
z
M 3341 1997 
L 3341 0 
L 2766 0 
L 2766 531 
Q 2569 213 2275 61 
Q 1981 -91 1556 -91 
Q 1019 -91 701 211 
Q 384 513 384 1019 
Q 384 1609 779 1909 
Q 1175 2209 1959 2209 
L 2766 2209 
L 2766 2266 
Q 2766 2663 2505 2880 
Q 2244 3097 1772 3097 
Q 1472 3097 1187 3025 
Q 903 2953 641 2809 
L 641 3341 
Q 956 3463 1253 3523 
Q 1550 3584 1831 3584 
Q 2591 3584 2966 3190 
Q 3341 2797 3341 1997 
z
" transform="scale(0.015625)"/>
       <path id="DejaVuSans-28" d="M 1984 4856 
Q 1566 4138 1362 3434 
Q 1159 2731 1159 2009 
Q 1159 1288 1364 580 
Q 1569 -128 1984 -844 
L 1484 -844 
Q 1016 -109 783 600 
Q 550 1309 550 2009 
Q 550 2706 781 3412 
Q 1013 4119 1484 4856 
L 1984 4856 
z
" transform="scale(0.015625)"/>
       <path id="DejaVuSans-73" d="M 2834 3397 
L 2834 2853 
Q 2591 2978 2328 3040 
Q 2066 3103 1784 3103 
Q 1356 3103 1142 2972 
Q 928 2841 928 2578 
Q 928 2378 1081 2264 
Q 1234 2150 1697 2047 
L 1894 2003 
Q 2506 1872 2764 1633 
Q 3022 1394 3022 966 
Q 3022 478 2636 193 
Q 2250 -91 1575 -91 
Q 1294 -91 989 -36 
Q 684 19 347 128 
L 347 722 
Q 666 556 975 473 
Q 1284 391 1588 391 
Q 1994 391 2212 530 
Q 2431 669 2431 922 
Q 2431 1156 2273 1281 
Q 2116 1406 1581 1522 
L 1381 1569 
Q 847 1681 609 1914 
Q 372 2147 372 2553 
Q 372 3047 722 3315 
Q 1072 3584 1716 3584 
Q 2034 3584 2315 3537 
Q 2597 3491 2834 3397 
z
" transform="scale(0.015625)"/>
       <path id="DejaVuSans-62" d="M 3116 1747 
Q 3116 2381 2855 2742 
Q 2594 3103 2138 3103 
Q 1681 3103 1420 2742 
Q 1159 2381 1159 1747 
Q 1159 1113 1420 752 
Q 1681 391 2138 391 
Q 2594 391 2855 752 
Q 3116 1113 3116 1747 
z
M 1159 2969 
Q 1341 3281 1617 3432 
Q 1894 3584 2278 3584 
Q 2916 3584 3314 3078 
Q 3713 2572 3713 1747 
Q 3713 922 3314 415 
Q 2916 -91 2278 -91 
Q 1894 -91 1617 61 
Q 1341 213 1159 525 
L 1159 0 
L 581 0 
L 581 4863 
L 1159 4863 
L 1159 2969 
z
" transform="scale(0.015625)"/>
       <path id="DejaVuSans-79" d="M 2059 -325 
Q 1816 -950 1584 -1140 
Q 1353 -1331 966 -1331 
L 506 -1331 
L 506 -850 
L 844 -850 
Q 1081 -850 1212 -737 
Q 1344 -625 1503 -206 
L 1606 56 
L 191 3500 
L 800 3500 
L 1894 763 
L 2988 3500 
L 3597 3500 
L 2059 -325 
z
" transform="scale(0.015625)"/>
       <path id="DejaVuSans-69" d="M 603 3500 
L 1178 3500 
L 1178 0 
L 603 0 
L 603 3500 
z
M 603 4863 
L 1178 4863 
L 1178 4134 
L 603 4134 
L 603 4863 
z
" transform="scale(0.015625)"/>
       <path id="DejaVuSans-6d" d="M 3328 2828 
Q 3544 3216 3844 3400 
Q 4144 3584 4550 3584 
Q 5097 3584 5394 3201 
Q 5691 2819 5691 2113 
L 5691 0 
L 5113 0 
L 5113 2094 
Q 5113 2597 4934 2840 
Q 4756 3084 4391 3084 
Q 3944 3084 3684 2787 
Q 3425 2491 3425 1978 
L 3425 0 
L 2847 0 
L 2847 2094 
Q 2847 2600 2669 2842 
Q 2491 3084 2119 3084 
Q 1678 3084 1418 2786 
Q 1159 2488 1159 1978 
L 1159 0 
L 581 0 
L 581 3500 
L 1159 3500 
L 1159 2956 
Q 1356 3278 1631 3431 
Q 1906 3584 2284 3584 
Q 2666 3584 2933 3390 
Q 3200 3197 3328 2828 
z
" transform="scale(0.015625)"/>
       <path id="DejaVuSans-6b" d="M 581 4863 
L 1159 4863 
L 1159 1991 
L 2875 3500 
L 3609 3500 
L 1753 1863 
L 3688 0 
L 2938 0 
L 1159 1709 
L 1159 0 
L 581 0 
L 581 4863 
z
" transform="scale(0.015625)"/>
       <path id="DejaVuSans-29" d="M 513 4856 
L 1013 4856 
Q 1481 4119 1714 3412 
Q 1947 2706 1947 2009 
Q 1947 1309 1714 600 
Q 1481 -109 1013 -844 
L 513 -844 
Q 928 -128 1133 580 
Q 1338 1288 1338 2009 
Q 1338 2731 1133 3434 
Q 928 4138 513 4856 
z
" transform="scale(0.015625)"/>
      </defs>
      <use xlink:href="#DejaVuSans-49"/>
      <use xlink:href="#DejaVuSans-6e" x="29.492188"/>
      <use xlink:href="#DejaVuSans-64" x="92.871094"/>
      <use xlink:href="#DejaVuSans-65" x="156.347656"/>
      <use xlink:href="#DejaVuSans-78" x="216.121094"/>
      <use xlink:href="#DejaVuSans-20" x="275.300781"/>
      <use xlink:href="#DejaVuSans-6f" x="307.087891"/>
      <use xlink:href="#DejaVuSans-66" x="368.269531"/>
      <use xlink:href="#DejaVuSans-20" x="403.474609"/>
      <use xlink:href="#DejaVuSans-74" x="435.261719"/>
      <use xlink:href="#DejaVuSans-68" x="474.470703"/>
      <use xlink:href="#DejaVuSans-72" x="537.849609"/>
      <use xlink:href="#DejaVuSans-65" x="576.712891"/>
      <use xlink:href="#DejaVuSans-61" x="638.236328"/>
      <use xlink:href="#DejaVuSans-64" x="699.515625"/>
      <use xlink:href="#DejaVuSans-20" x="762.992188"/>
      <use xlink:href="#DejaVuSans-28" x="794.779297"/>
      <use xlink:href="#DejaVuSans-73" x="833.792969"/>
      <use xlink:href="#DejaVuSans-6f" x="885.892578"/>
      <use xlink:href="#DejaVuSans-72" x="947.074219"/>
      <use xlink:href="#DejaVuSans-74" x="988.1875"/>
      <use xlink:href="#DejaVuSans-65" x="1027.396484"/>
      <use xlink:href="#DejaVuSans-64" x="1088.919922"/>
      <use xlink:href="#DejaVuSans-20" x="1152.396484"/>
      <use xlink:href="#DejaVuSans-62" x="1184.183594"/>
      <use xlink:href="#DejaVuSans-79" x="1247.660156"/>
      <use xlink:href="#DejaVuSans-20" x="1306.839844"/>
      <use xlink:href="#DejaVuSans-74" x="1338.626953"/>
      <use xlink:href="#DejaVuSans-69" x="1377.835938"/>
      <use xlink:href="#DejaVuSans-6d" x="1405.619141"/>
      <use xlink:href="#DejaVuSans-65" x="1503.03125"/>
      <use xlink:href="#DejaVuSans-20" x="1564.554688"/>
      <use xlink:href="#DejaVuSans-6f" x="1596.341797"/>
      <use xlink:href="#DejaVuSans-66" x="1657.523438"/>
      <use xlink:href="#DejaVuSans-20" x="1692.728516"/>
      <use xlink:href="#DejaVuSans-66" x="1724.515625"/>
      <use xlink:href="#DejaVuSans-69" x="1759.720703"/>
      <use xlink:href="#DejaVuSans-72" x="1787.503906"/>
      <use xlink:href="#DejaVuSans-73" x="1828.617188"/>
      <use xlink:href="#DejaVuSans-74" x="1880.716797"/>
      <use xlink:href="#DejaVuSans-20" x="1919.925781"/>
      <use xlink:href="#DejaVuSans-74" x="1951.712891"/>
      <use xlink:href="#DejaVuSans-61" x="1990.921875"/>
      <use xlink:href="#DejaVuSans-73" x="2052.201172"/>
      <use xlink:href="#DejaVuSans-6b" x="2104.300781"/>
      <use xlink:href="#DejaVuSans-29" x="2162.210938"/>
     </g>
    </g>
   </g>
   <g id="matplotlib.axis_2">
    <g id="ytick_1">
     <g id="line2d_8">
      <defs>
       <path id="m5f8d0f3f6c" d="M 0 0 
L -3.5 0 
" style="stroke: #000000; stroke-width: 0.8"/>
      </defs>
      <g>
       <use xlink:href="#m5f8d0f3f6c" x="113.90625" y="354.958125" style="stroke: #000000; stroke-width: 0.8"/>
      </g>
     </g>
     <g id="text_9">
      <!-- 0 -->
      <g transform="translate(94.18125 362.556563) scale(0.2 -0.2)">
       <use xlink:href="#DejaVuSans-30"/>
      </g>
     </g>
    </g>
    <g id="ytick_2">
     <g id="line2d_9">
      <g>
       <use xlink:href="#m5f8d0f3f6c" x="113.90625" y="318.777142" style="stroke: #000000; stroke-width: 0.8"/>
      </g>
     </g>
     <g id="text_10">
      <!-- 100000 -->
      <g transform="translate(30.55625 326.375579) scale(0.2 -0.2)">
       <use xlink:href="#DejaVuSans-31"/>
       <use xlink:href="#DejaVuSans-30" x="63.623047"/>
       <use xlink:href="#DejaVuSans-30" x="127.246094"/>
       <use xlink:href="#DejaVuSans-30" x="190.869141"/>
       <use xlink:href="#DejaVuSans-30" x="254.492188"/>
       <use xlink:href="#DejaVuSans-30" x="318.115234"/>
      </g>
     </g>
    </g>
    <g id="ytick_3">
     <g id="line2d_10">
      <g>
       <use xlink:href="#m5f8d0f3f6c" x="113.90625" y="282.596159" style="stroke: #000000; stroke-width: 0.8"/>
      </g>
     </g>
     <g id="text_11">
      <!-- 200000 -->
      <g transform="translate(30.55625 290.194596) scale(0.2 -0.2)">
       <use xlink:href="#DejaVuSans-32"/>
       <use xlink:href="#DejaVuSans-30" x="63.623047"/>
       <use xlink:href="#DejaVuSans-30" x="127.246094"/>
       <use xlink:href="#DejaVuSans-30" x="190.869141"/>
       <use xlink:href="#DejaVuSans-30" x="254.492188"/>
       <use xlink:href="#DejaVuSans-30" x="318.115234"/>
      </g>
     </g>
    </g>
    <g id="ytick_4">
     <g id="line2d_11">
      <g>
       <use xlink:href="#m5f8d0f3f6c" x="113.90625" y="246.415175" style="stroke: #000000; stroke-width: 0.8"/>
      </g>
     </g>
     <g id="text_12">
      <!-- 300000 -->
      <g transform="translate(30.55625 254.013613) scale(0.2 -0.2)">
       <use xlink:href="#DejaVuSans-33"/>
       <use xlink:href="#DejaVuSans-30" x="63.623047"/>
       <use xlink:href="#DejaVuSans-30" x="127.246094"/>
       <use xlink:href="#DejaVuSans-30" x="190.869141"/>
       <use xlink:href="#DejaVuSans-30" x="254.492188"/>
       <use xlink:href="#DejaVuSans-30" x="318.115234"/>
      </g>
     </g>
    </g>
    <g id="ytick_5">
     <g id="line2d_12">
      <g>
       <use xlink:href="#m5f8d0f3f6c" x="113.90625" y="210.234192" style="stroke: #000000; stroke-width: 0.8"/>
      </g>
     </g>
     <g id="text_13">
      <!-- 400000 -->
      <g transform="translate(30.55625 217.83263) scale(0.2 -0.2)">
       <defs>
        <path id="DejaVuSans-34" d="M 2419 4116 
L 825 1625 
L 2419 1625 
L 2419 4116 
z
M 2253 4666 
L 3047 4666 
L 3047 1625 
L 3713 1625 
L 3713 1100 
L 3047 1100 
L 3047 0 
L 2419 0 
L 2419 1100 
L 313 1100 
L 313 1709 
L 2253 4666 
z
" transform="scale(0.015625)"/>
       </defs>
       <use xlink:href="#DejaVuSans-34"/>
       <use xlink:href="#DejaVuSans-30" x="63.623047"/>
       <use xlink:href="#DejaVuSans-30" x="127.246094"/>
       <use xlink:href="#DejaVuSans-30" x="190.869141"/>
       <use xlink:href="#DejaVuSans-30" x="254.492188"/>
       <use xlink:href="#DejaVuSans-30" x="318.115234"/>
      </g>
     </g>
    </g>
    <g id="ytick_6">
     <g id="line2d_13">
      <g>
       <use xlink:href="#m5f8d0f3f6c" x="113.90625" y="174.053209" style="stroke: #000000; stroke-width: 0.8"/>
      </g>
     </g>
     <g id="text_14">
      <!-- 500000 -->
      <g transform="translate(30.55625 181.651646) scale(0.2 -0.2)">
       <use xlink:href="#DejaVuSans-35"/>
       <use xlink:href="#DejaVuSans-30" x="63.623047"/>
       <use xlink:href="#DejaVuSans-30" x="127.246094"/>
       <use xlink:href="#DejaVuSans-30" x="190.869141"/>
       <use xlink:href="#DejaVuSans-30" x="254.492188"/>
       <use xlink:href="#DejaVuSans-30" x="318.115234"/>
      </g>
     </g>
    </g>
    <g id="ytick_7">
     <g id="line2d_14">
      <g>
       <use xlink:href="#m5f8d0f3f6c" x="113.90625" y="137.872226" style="stroke: #000000; stroke-width: 0.8"/>
      </g>
     </g>
     <g id="text_15">
      <!-- 600000 -->
      <g transform="translate(30.55625 145.470663) scale(0.2 -0.2)">
       <defs>
        <path id="DejaVuSans-36" d="M 2113 2584 
Q 1688 2584 1439 2293 
Q 1191 2003 1191 1497 
Q 1191 994 1439 701 
Q 1688 409 2113 409 
Q 2538 409 2786 701 
Q 3034 994 3034 1497 
Q 3034 2003 2786 2293 
Q 2538 2584 2113 2584 
z
M 3366 4563 
L 3366 3988 
Q 3128 4100 2886 4159 
Q 2644 4219 2406 4219 
Q 1781 4219 1451 3797 
Q 1122 3375 1075 2522 
Q 1259 2794 1537 2939 
Q 1816 3084 2150 3084 
Q 2853 3084 3261 2657 
Q 3669 2231 3669 1497 
Q 3669 778 3244 343 
Q 2819 -91 2113 -91 
Q 1303 -91 875 529 
Q 447 1150 447 2328 
Q 447 3434 972 4092 
Q 1497 4750 2381 4750 
Q 2619 4750 2861 4703 
Q 3103 4656 3366 4563 
z
" transform="scale(0.015625)"/>
       </defs>
       <use xlink:href="#DejaVuSans-36"/>
       <use xlink:href="#DejaVuSans-30" x="63.623047"/>
       <use xlink:href="#DejaVuSans-30" x="127.246094"/>
       <use xlink:href="#DejaVuSans-30" x="190.869141"/>
       <use xlink:href="#DejaVuSans-30" x="254.492188"/>
       <use xlink:href="#DejaVuSans-30" x="318.115234"/>
      </g>
     </g>
    </g>
    <g id="ytick_8">
     <g id="line2d_15">
      <g>
       <use xlink:href="#m5f8d0f3f6c" x="113.90625" y="101.691242" style="stroke: #000000; stroke-width: 0.8"/>
      </g>
     </g>
     <g id="text_16">
      <!-- 700000 -->
      <g transform="translate(30.55625 109.28968) scale(0.2 -0.2)">
       <defs>
        <path id="DejaVuSans-37" d="M 525 4666 
L 3525 4666 
L 3525 4397 
L 1831 0 
L 1172 0 
L 2766 4134 
L 525 4134 
L 525 4666 
z
" transform="scale(0.015625)"/>
       </defs>
       <use xlink:href="#DejaVuSans-37"/>
       <use xlink:href="#DejaVuSans-30" x="63.623047"/>
       <use xlink:href="#DejaVuSans-30" x="127.246094"/>
       <use xlink:href="#DejaVuSans-30" x="190.869141"/>
       <use xlink:href="#DejaVuSans-30" x="254.492188"/>
       <use xlink:href="#DejaVuSans-30" x="318.115234"/>
      </g>
     </g>
    </g>
    <g id="ytick_9">
     <g id="line2d_16">
      <g>
       <use xlink:href="#m5f8d0f3f6c" x="113.90625" y="65.510259" style="stroke: #000000; stroke-width: 0.8"/>
      </g>
     </g>
     <g id="text_17">
      <!-- 800000 -->
      <g transform="translate(30.55625 73.108697) scale(0.2 -0.2)">
       <defs>
        <path id="DejaVuSans-38" d="M 2034 2216 
Q 1584 2216 1326 1975 
Q 1069 1734 1069 1313 
Q 1069 891 1326 650 
Q 1584 409 2034 409 
Q 2484 409 2743 651 
Q 3003 894 3003 1313 
Q 3003 1734 2745 1975 
Q 2488 2216 2034 2216 
z
M 1403 2484 
Q 997 2584 770 2862 
Q 544 3141 544 3541 
Q 544 4100 942 4425 
Q 1341 4750 2034 4750 
Q 2731 4750 3128 4425 
Q 3525 4100 3525 3541 
Q 3525 3141 3298 2862 
Q 3072 2584 2669 2484 
Q 3125 2378 3379 2068 
Q 3634 1759 3634 1313 
Q 3634 634 3220 271 
Q 2806 -91 2034 -91 
Q 1263 -91 848 271 
Q 434 634 434 1313 
Q 434 1759 690 2068 
Q 947 2378 1403 2484 
z
M 1172 3481 
Q 1172 3119 1398 2916 
Q 1625 2713 2034 2713 
Q 2441 2713 2670 2916 
Q 2900 3119 2900 3481 
Q 2900 3844 2670 4047 
Q 2441 4250 2034 4250 
Q 1625 4250 1398 4047 
Q 1172 3844 1172 3481 
z
" transform="scale(0.015625)"/>
       </defs>
       <use xlink:href="#DejaVuSans-38"/>
       <use xlink:href="#DejaVuSans-30" x="63.623047"/>
       <use xlink:href="#DejaVuSans-30" x="127.246094"/>
       <use xlink:href="#DejaVuSans-30" x="190.869141"/>
       <use xlink:href="#DejaVuSans-30" x="254.492188"/>
       <use xlink:href="#DejaVuSans-30" x="318.115234"/>
      </g>
     </g>
    </g>
    <g id="ytick_10">
     <g id="line2d_17">
      <g>
       <use xlink:href="#m5f8d0f3f6c" x="113.90625" y="29.329276" style="stroke: #000000; stroke-width: 0.8"/>
      </g>
     </g>
     <g id="text_18">
      <!-- 900000 -->
      <g transform="translate(30.55625 36.927713) scale(0.2 -0.2)">
       <defs>
        <path id="DejaVuSans-39" d="M 703 97 
L 703 672 
Q 941 559 1184 500 
Q 1428 441 1663 441 
Q 2288 441 2617 861 
Q 2947 1281 2994 2138 
Q 2813 1869 2534 1725 
Q 2256 1581 1919 1581 
Q 1219 1581 811 2004 
Q 403 2428 403 3163 
Q 403 3881 828 4315 
Q 1253 4750 1959 4750 
Q 2769 4750 3195 4129 
Q 3622 3509 3622 2328 
Q 3622 1225 3098 567 
Q 2575 -91 1691 -91 
Q 1453 -91 1209 -44 
Q 966 3 703 97 
z
M 1959 2075 
Q 2384 2075 2632 2365 
Q 2881 2656 2881 3163 
Q 2881 3666 2632 3958 
Q 2384 4250 1959 4250 
Q 1534 4250 1286 3958 
Q 1038 3666 1038 3163 
Q 1038 2656 1286 2365 
Q 1534 2075 1959 2075 
z
" transform="scale(0.015625)"/>
       </defs>
       <use xlink:href="#DejaVuSans-39"/>
       <use xlink:href="#DejaVuSans-30" x="63.623047"/>
       <use xlink:href="#DejaVuSans-30" x="127.246094"/>
       <use xlink:href="#DejaVuSans-30" x="190.869141"/>
       <use xlink:href="#DejaVuSans-30" x="254.492188"/>
       <use xlink:href="#DejaVuSans-30" x="318.115234"/>
      </g>
     </g>
    </g>
    <g id="text_19">
     <!-- Cycles -->
     <g transform="translate(22.396875 221.17875) rotate(-90) scale(0.2 -0.2)">
      <defs>
       <path id="DejaVuSans-43" d="M 4122 4306 
L 4122 3641 
Q 3803 3938 3442 4084 
Q 3081 4231 2675 4231 
Q 1875 4231 1450 3742 
Q 1025 3253 1025 2328 
Q 1025 1406 1450 917 
Q 1875 428 2675 428 
Q 3081 428 3442 575 
Q 3803 722 4122 1019 
L 4122 359 
Q 3791 134 3420 21 
Q 3050 -91 2638 -91 
Q 1578 -91 968 557 
Q 359 1206 359 2328 
Q 359 3453 968 4101 
Q 1578 4750 2638 4750 
Q 3056 4750 3426 4639 
Q 3797 4528 4122 4306 
z
" transform="scale(0.015625)"/>
       <path id="DejaVuSans-63" d="M 3122 3366 
L 3122 2828 
Q 2878 2963 2633 3030 
Q 2388 3097 2138 3097 
Q 1578 3097 1268 2742 
Q 959 2388 959 1747 
Q 959 1106 1268 751 
Q 1578 397 2138 397 
Q 2388 397 2633 464 
Q 2878 531 3122 666 
L 3122 134 
Q 2881 22 2623 -34 
Q 2366 -91 2075 -91 
Q 1284 -91 818 406 
Q 353 903 353 1747 
Q 353 2603 823 3093 
Q 1294 3584 2113 3584 
Q 2378 3584 2631 3529 
Q 2884 3475 3122 3366 
z
" transform="scale(0.015625)"/>
       <path id="DejaVuSans-6c" d="M 603 4863 
L 1178 4863 
L 1178 0 
L 603 0 
L 603 4863 
z
" transform="scale(0.015625)"/>
      </defs>
      <use xlink:href="#DejaVuSans-43"/>
      <use xlink:href="#DejaVuSans-79" x="69.824219"/>
      <use xlink:href="#DejaVuSans-63" x="129.003906"/>
      <use xlink:href="#DejaVuSans-6c" x="183.984375"/>
      <use xlink:href="#DejaVuSans-65" x="211.767578"/>
      <use xlink:href="#DejaVuSans-73" x="273.291016"/>
     </g>
    </g>
   </g>
   <g id="line2d_18">
    <path d="M 159.560795 353.133156 
L 189.015341 353.071649 
L 218.469886 352.916794 
L 247.924432 352.880613 
L 277.378977 352.846603 
L 306.833523 352.767005 
L 336.288068 352.707668 
L 365.742614 352.641818 
L 395.197159 352.462361 
L 424.651705 352.441376 
L 454.10625 352.273496 
L 483.560795 352.088249 
L 513.015341 351.9305 
L 542.469886 351.908792 
L 571.924432 351.905897 
L 601.378977 351.899385 
L 630.833523 351.617173 
L 660.288068 351.56652 
L 689.742614 351.316147 
L 719.197159 351.282861 
L 748.651705 351.259705 
L 778.10625 350.656206 
L 807.560795 350.342155 
L 837.015341 350.305251 
L 866.469886 347.308018 
L 895.924432 346.85069 
L 925.378977 346.650971 
L 954.833523 343.607427 
L 984.288068 343.339688 
L 1013.742614 343.275286 
L 1043.197159 340.006695 
L 1072.651705 339.931439 
" clip-path="url(#p86ebfedc64)" style="fill: none; stroke: #008000; stroke-width: 1.5; stroke-linecap: square"/>
   </g>
   <g id="line2d_19">
    <path d="M 159.560795 345.225441 
L 189.015341 342.605214 
L 218.469886 342.167424 
L 247.924432 341.28099 
L 277.378977 339.769348 
L 306.833523 339.623177 
L 336.288068 305.529837 
L 365.742614 245.548279 
L 395.197159 243.940396 
L 424.651705 241.883869 
L 454.10625 238.224524 
L 483.560795 234.444335 
L 513.015341 230.635925 
L 542.469886 229.585953 
L 571.924432 222.270882 
L 601.378977 218.797507 
L 630.833523 214.687347 
L 660.288068 209.280461 
L 689.742614 208.039454 
L 719.197159 201.397349 
L 748.651705 194.258841 
L 778.10625 153.691275 
L 807.560795 147.479 
L 837.015341 146.694597 
L 866.469886 125.47445 
L 895.924432 125.310912 
L 925.378977 121.876613 
L 954.833523 83.678178 
L 984.288068 10.745276 
L 1013.742614 0.263645 
L 1014.413375 -1 
" clip-path="url(#p86ebfedc64)" style="fill: none; stroke: #ff0000; stroke-width: 1.5; stroke-linecap: square"/>
   </g>
   <g id="line2d_20">
    <path d="M 159.560795 343.113195 
L 189.015341 342.537917 
L 218.469886 342.280308 
L 247.924432 339.718695 
L 277.378977 302.69976 
L 306.833523 288.792514 
L 336.288068 288.772252 
L 365.742614 285.835804 
L 395.197159 285.209873 
L 424.651705 284.894375 
L 454.10625 284.60565 
L 483.560795 284.534012 
L 513.015341 283.440623 
L 542.469886 276.989553 
L 571.924432 276.475783 
L 601.378977 276.349874 
L 630.833523 272.95465 
L 660.288068 272.951032 
L 689.742614 272.464036 
L 719.197159 271.092777 
L 748.651705 270.465398 
L 778.10625 270.262785 
L 807.560795 269.670864 
L 837.015341 269.295305 
L 866.469886 269.261295 
L 895.924432 268.596289 
L 925.378977 268.578922 
L 954.833523 268.234479 
L 984.288068 268.000026 
L 1013.742614 267.464548 
L 1043.197159 265.857388 
L 1072.651705 264.282792 
" clip-path="url(#p86ebfedc64)" style="fill: none; stroke: #00bfbf; stroke-width: 1.5; stroke-linecap: square"/>
   </g>
   <g id="line2d_21">
    <path d="M 159.560795 344.655228 
L 189.015341 344.589379 
L 218.469886 343.105235 
L 247.924432 341.854096 
L 277.378977 331.276948 
L 306.833523 295.506257 
L 336.288068 283.455819 
L 365.742614 252.949461 
L 395.197159 252.224394 
L 424.651705 245.822531 
L 454.10625 245.494007 
L 483.560795 233.425479 
L 513.015341 229.414455 
L 542.469886 229.117047 
L 571.924432 221.17098 
L 601.378977 213.787888 
L 630.833523 211.941211 
L 660.288068 209.94185 
L 689.742614 208.893325 
L 719.197159 189.304217 
L 748.651705 177.378965 
L 778.10625 175.796409 
L 807.560795 173.022774 
L 837.015341 164.058574 
L 866.469886 160.480998 
L 895.924432 139.922964 
L 925.378977 96.384939 
L 954.833523 95.800255 
L 984.288068 87.960559 
L 1013.742614 82.747603 
L 1043.197159 75.278401 
L 1072.651705 22.318125 
" clip-path="url(#p86ebfedc64)" style="fill: none; stroke: #bf00bf; stroke-width: 1.5; stroke-linecap: square"/>
   </g>
   <g id="line2d_22">
    <path d="M 159.560795 345.891171 
L 189.015341 343.62407 
L 218.469886 342.809274 
L 247.924432 342.053092 
L 277.378977 341.872911 
L 306.833523 340.965492 
L 336.288068 340.952466 
L 365.742614 318.202588 
L 395.197159 315.647487 
L 424.651705 313.848568 
L 454.10625 311.862232 
L 483.560795 302.276443 
L 513.015341 300.785062 
L 542.469886 298.922465 
L 571.924432 296.142319 
L 601.378977 290.934428 
L 630.833523 287.875688 
L 660.288068 284.213448 
L 689.742614 283.903739 
L 719.197159 282.636681 
L 748.651705 276.492427 
L 778.10625 275.095841 
L 807.560795 274.00607 
L 837.015341 272.977082 
L 866.469886 272.636981 
L 895.924432 272.51686 
L 925.378977 268.602078 
L 954.833523 265.000623 
L 984.288068 263.263212 
L 1013.742614 262.577221 
L 1043.197159 261.768937 
L 1072.651705 258.481533 
" clip-path="url(#p86ebfedc64)" style="fill: none; stroke: #000000; stroke-width: 1.5; stroke-linecap: square"/>
   </g>
   <g id="line2d_23">
    <path d="M 159.560795 353.903088 
L 189.015341 353.561539 
L 218.469886 353.218543 
L 247.924432 352.748191 
L 277.378977 352.485517 
L 306.833523 352.086079 
L 336.288068 351.57665 
L 365.742614 351.150438 
L 395.197159 350.666337 
L 424.651705 350.168486 
L 454.10625 349.81536 
L 483.560795 349.248042 
L 513.015341 348.68579 
L 542.469886 348.079396 
L 571.924432 347.549707 
L 601.378977 346.848519 
L 630.833523 346.009844 
L 660.288068 344.839028 
L 689.742614 344.268092 
L 719.197159 343.19424 
L 748.651705 341.990861 
L 778.10625 340.953914 
L 807.560795 339.760665 
L 837.015341 338.946593 
L 866.469886 337.888661 
L 895.924432 336.376296 
L 925.378977 335.594786 
L 954.833523 334.702563 
L 984.288068 333.222038 
L 1013.742614 331.823281 
L 1043.197159 330.666213 
L 1072.651705 330.380383 
" clip-path="url(#p86ebfedc64)" style="fill: none; stroke-dasharray: 5.55,2.4; stroke-dashoffset: 0; stroke: #0000ff; stroke-width: 1.5"/>
   </g>
   <g id="line2d_24">
    <path d="M 159.560795 352.700432 
L 189.015341 352.684512 
L 218.469886 352.655567 
L 247.924432 352.617939 
L 277.378977 352.613597 
L 306.833523 352.583929 
L 336.288068 352.55209 
L 365.742614 352.515909 
L 395.197159 352.483346 
L 424.651705 352.450059 
L 454.10625 352.41822 
L 483.560795 352.374803 
L 513.015341 352.366843 
L 542.469886 352.328491 
L 571.924432 352.08246 
L 601.378977 351.793013 
L 630.833523 351.766239 
L 660.288068 351.753214 
L 689.742614 351.730781 
L 719.197159 351.690259 
L 748.651705 351.648289 
L 778.10625 351.609213 
L 807.560795 351.574479 
L 837.015341 351.463766 
L 866.469886 351.423967 
L 895.924432 351.387062 
L 925.378977 351.350881 
L 954.833523 351.311082 
L 984.288068 351.21484 
L 1013.742614 351.161293 
L 1043.197159 351.117152 
L 1072.651705 351.086036 
" clip-path="url(#p86ebfedc64)" style="fill: none; stroke-dasharray: 5.55,2.4; stroke-dashoffset: 0; stroke: #008000; stroke-width: 1.5"/>
   </g>
   <g id="line2d_25">
    <path d="M 159.560795 351.563625 
L 189.015341 351.51659 
L 218.469886 351.439163 
L 247.924432 351.405876 
L 277.378977 351.344368 
L 306.833523 351.340027 
L 336.288068 351.311082 
L 365.742614 351.309635 
L 395.197159 351.28865 
L 424.651705 351.26477 
L 454.10625 351.255363 
L 483.560795 351.215564 
L 513.015341 351.18083 
L 542.469886 351.163463 
L 571.924432 351.11281 
L 601.378977 351.097614 
L 630.833523 351.093272 
L 660.288068 351.085313 
L 689.742614 351.078076 
L 719.197159 351.050579 
L 748.651705 351.023081 
L 778.10625 350.895724 
L 807.560795 350.88487 
L 837.015341 350.744488 
L 866.469886 350.696005 
L 895.924432 350.633774 
L 925.378977 350.554176 
L 954.833523 350.536085 
L 984.288068 350.447804 
L 1013.742614 350.216969 
L 1043.197159 350.065009 
L 1072.651705 350.057049 
" clip-path="url(#p86ebfedc64)" style="fill: none; stroke-dasharray: 5.55,2.4; stroke-dashoffset: 0; stroke: #ff0000; stroke-width: 1.5"/>
   </g>
   <g id="line2d_26">
    <path d="M 159.560795 351.667826 
L 189.015341 351.625133 
L 218.469886 351.585334 
L 247.924432 351.547706 
L 277.378977 351.541917 
L 306.833523 351.507183 
L 336.288068 351.467384 
L 365.742614 351.427585 
L 395.197159 351.384167 
L 424.651705 351.367524 
L 454.10625 351.340027 
L 483.560795 351.302398 
L 513.015341 351.258981 
L 542.469886 351.185172 
L 571.924432 351.174318 
L 601.378977 351.108468 
L 630.833523 350.959403 
L 660.288068 350.919604 
L 689.742614 350.908026 
L 719.197159 350.811061 
L 748.651705 350.780669 
L 778.10625 350.736528 
L 807.560795 350.692387 
L 837.015341 350.649694 
L 866.469886 350.61496 
L 895.924432 350.535362 
L 925.378977 350.504246 
L 954.833523 350.42899 
L 984.288068 350.398597 
L 1013.742614 350.36314 
L 1043.197159 350.330577 
L 1072.651705 350.118557 
" clip-path="url(#p86ebfedc64)" style="fill: none; stroke-dasharray: 5.55,2.4; stroke-dashoffset: 0; stroke: #00bfbf; stroke-width: 1.5"/>
   </g>
   <g id="line2d_27">
    <path d="M 159.560795 353.533318 
L 189.015341 353.491348 
L 218.469886 353.466021 
L 247.924432 353.460232 
L 277.378977 353.431288 
L 306.833523 353.412473 
L 336.288068 353.39583 
L 365.742614 353.36182 
L 395.197159 353.353137 
L 424.651705 353.349518 
L 454.10625 353.348071 
L 483.560795 353.345177 
L 513.015341 353.300312 
L 542.469886 353.281498 
L 571.924432 353.274986 
L 601.378977 353.253277 
L 630.833523 353.248212 
L 660.288068 353.24387 
L 689.742614 353.239528 
L 719.197159 353.237357 
L 748.651705 353.231568 
L 778.10625 353.22578 
L 807.560795 353.196111 
L 837.015341 353.178021 
L 866.469886 353.17585 
L 895.924432 353.17585 
L 925.378977 353.148352 
L 954.833523 353.144734 
L 984.288068 353.143287 
L 1013.742614 353.143287 
L 1043.197159 353.116513 
L 1072.651705 352.915347 
" clip-path="url(#p86ebfedc64)" style="fill: none; stroke-dasharray: 5.55,2.4; stroke-dashoffset: 0; stroke: #bf00bf; stroke-width: 1.5"/>
   </g>
   <g id="line2d_28">
    <path d="M 159.560795 352.819105 
L 189.015341 352.774241 
L 218.469886 352.733718 
L 247.924432 352.727929 
L 277.378977 352.692472 
L 306.833523 352.651226 
L 336.288068 352.637477 
L 365.742614 352.612874 
L 395.197159 352.499265 
L 424.651705 352.471768 
L 454.10625 352.456572 
L 483.560795 352.312572 
L 513.015341 352.203305 
L 542.469886 352.161335 
L 571.924432 352.007928 
L 601.378977 351.96234 
L 630.833523 351.923264 
L 660.288068 351.873334 
L 689.742614 351.818339 
L 719.197159 351.772028 
L 748.651705 351.72861 
L 778.10625 351.692429 
L 807.560795 351.583163 
L 837.015341 351.510077 
L 866.469886 351.471002 
L 895.924432 351.319042 
L 925.378977 351.274901 
L 954.833523 351.206157 
L 984.288068 351.165634 
L 1013.742614 351.063604 
L 1043.197159 351.020187 
L 1072.651705 350.963744 
" clip-path="url(#p86ebfedc64)" style="fill: none; stroke-dasharray: 5.55,2.4; stroke-dashoffset: 0; stroke: #000000; stroke-width: 1.5"/>
   </g>
   <g id="line2d_29">
    <path d="M 159.560795 353.637519 
L 189.015341 353.557197 
L 218.469886 353.290905 
L 247.924432 353.235187 
L 277.378977 353.157759 
L 306.833523 352.942844 
L 336.288068 352.929095 
L 365.742614 352.649778 
L 395.197159 352.525316 
L 424.651705 352.485517 
L 454.10625 352.427627 
L 483.560795 352.41822 
L 513.015341 352.304612 
L 542.469886 352.188109 
L 571.924432 352.151204 
L 601.378977 352.046279 
L 630.833523 351.973918 
L 660.288068 351.969576 
L 689.742614 351.766239 
L 719.197159 351.664208 
L 748.651705 351.526721 
L 778.10625 351.368971 
L 807.560795 351.355946 
L 837.015341 351.250298 
L 866.469886 351.231484 
L 895.924432 351.198921 
L 925.378977 351.196026 
L 954.833523 351.113534 
L 984.288068 351.017292 
L 1013.742614 350.983282 
L 1043.197159 350.839282 
L 1072.651705 350.499181 
" clip-path="url(#p86ebfedc64)" style="fill: none; stroke-dasharray: 9.6,2.4,1.5,2.4; stroke-dashoffset: 0; stroke: #0000ff; stroke-width: 1.5"/>
   </g>
   <g id="patch_3">
    <path d="M 113.90625 354.958125 
L 113.90625 22.318125 
" style="fill: none; stroke: #000000; stroke-width: 0.8; stroke-linejoin: miter; stroke-linecap: square"/>
   </g>
   <g id="patch_4">
    <path d="M 1118.30625 354.958125 
L 1118.30625 22.318125 
" style="fill: none; stroke: #000000; stroke-width: 0.8; stroke-linejoin: miter; stroke-linecap: square"/>
   </g>
   <g id="patch_5">
    <path d="M 113.90625 354.958125 
L 1118.30625 354.958125 
" style="fill: none; stroke: #000000; stroke-width: 0.8; stroke-linejoin: miter; stroke-linecap: square"/>
   </g>
   <g id="patch_6">
    <path d="M 113.90625 22.318125 
L 1118.30625 22.318125 
" style="fill: none; stroke: #000000; stroke-width: 0.8; stroke-linejoin: miter; stroke-linecap: square"/>
   </g>
   <g id="text_20">
    <!-- Scheduling time, all -->
    <g transform="translate(556.660313 16.318125) scale(0.12 -0.12)">
     <defs>
      <path id="DejaVuSans-53" d="M 3425 4513 
L 3425 3897 
Q 3066 4069 2747 4153 
Q 2428 4238 2131 4238 
Q 1616 4238 1336 4038 
Q 1056 3838 1056 3469 
Q 1056 3159 1242 3001 
Q 1428 2844 1947 2747 
L 2328 2669 
Q 3034 2534 3370 2195 
Q 3706 1856 3706 1288 
Q 3706 609 3251 259 
Q 2797 -91 1919 -91 
Q 1588 -91 1214 -16 
Q 841 59 441 206 
L 441 856 
Q 825 641 1194 531 
Q 1563 422 1919 422 
Q 2459 422 2753 634 
Q 3047 847 3047 1241 
Q 3047 1584 2836 1778 
Q 2625 1972 2144 2069 
L 1759 2144 
Q 1053 2284 737 2584 
Q 422 2884 422 3419 
Q 422 4038 858 4394 
Q 1294 4750 2059 4750 
Q 2388 4750 2728 4690 
Q 3069 4631 3425 4513 
z
" transform="scale(0.015625)"/>
      <path id="DejaVuSans-75" d="M 544 1381 
L 544 3500 
L 1119 3500 
L 1119 1403 
Q 1119 906 1312 657 
Q 1506 409 1894 409 
Q 2359 409 2629 706 
Q 2900 1003 2900 1516 
L 2900 3500 
L 3475 3500 
L 3475 0 
L 2900 0 
L 2900 538 
Q 2691 219 2414 64 
Q 2138 -91 1772 -91 
Q 1169 -91 856 284 
Q 544 659 544 1381 
z
M 1991 3584 
L 1991 3584 
z
" transform="scale(0.015625)"/>
      <path id="DejaVuSans-67" d="M 2906 1791 
Q 2906 2416 2648 2759 
Q 2391 3103 1925 3103 
Q 1463 3103 1205 2759 
Q 947 2416 947 1791 
Q 947 1169 1205 825 
Q 1463 481 1925 481 
Q 2391 481 2648 825 
Q 2906 1169 2906 1791 
z
M 3481 434 
Q 3481 -459 3084 -895 
Q 2688 -1331 1869 -1331 
Q 1566 -1331 1297 -1286 
Q 1028 -1241 775 -1147 
L 775 -588 
Q 1028 -725 1275 -790 
Q 1522 -856 1778 -856 
Q 2344 -856 2625 -561 
Q 2906 -266 2906 331 
L 2906 616 
Q 2728 306 2450 153 
Q 2172 0 1784 0 
Q 1141 0 747 490 
Q 353 981 353 1791 
Q 353 2603 747 3093 
Q 1141 3584 1784 3584 
Q 2172 3584 2450 3431 
Q 2728 3278 2906 2969 
L 2906 3500 
L 3481 3500 
L 3481 434 
z
" transform="scale(0.015625)"/>
      <path id="DejaVuSans-2c" d="M 750 794 
L 1409 794 
L 1409 256 
L 897 -744 
L 494 -744 
L 750 256 
L 750 794 
z
" transform="scale(0.015625)"/>
     </defs>
     <use xlink:href="#DejaVuSans-53"/>
     <use xlink:href="#DejaVuSans-63" x="63.476562"/>
     <use xlink:href="#DejaVuSans-68" x="118.457031"/>
     <use xlink:href="#DejaVuSans-65" x="181.835938"/>
     <use xlink:href="#DejaVuSans-64" x="243.359375"/>
     <use xlink:href="#DejaVuSans-75" x="306.835938"/>
     <use xlink:href="#DejaVuSans-6c" x="370.214844"/>
     <use xlink:href="#DejaVuSans-69" x="397.998047"/>
     <use xlink:href="#DejaVuSans-6e" x="425.78125"/>
     <use xlink:href="#DejaVuSans-67" x="489.160156"/>
     <use xlink:href="#DejaVuSans-20" x="552.636719"/>
     <use xlink:href="#DejaVuSans-74" x="584.423828"/>
     <use xlink:href="#DejaVuSans-69" x="623.632812"/>
     <use xlink:href="#DejaVuSans-6d" x="651.416016"/>
     <use xlink:href="#DejaVuSans-65" x="748.828125"/>
     <use xlink:href="#DejaVuSans-2c" x="810.351562"/>
     <use xlink:href="#DejaVuSans-20" x="842.138672"/>
     <use xlink:href="#DejaVuSans-61" x="873.925781"/>
     <use xlink:href="#DejaVuSans-6c" x="935.205078"/>
     <use xlink:href="#DejaVuSans-6c" x="962.988281"/>
    </g>
   </g>
   <g id="legend_1">
    <g id="patch_7">
     <path d="M 123.70625 284.783125 
L 399.158437 284.783125 
Q 401.958438 284.783125 401.958438 281.983125 
L 401.958438 32.118125 
Q 401.958438 29.318125 399.158437 29.318125 
L 123.70625 29.318125 
Q 120.90625 29.318125 120.90625 32.118125 
L 120.90625 281.983125 
Q 120.90625 284.783125 123.70625 284.783125 
z
" style="fill: #ffffff; opacity: 0.8; stroke: #cccccc; stroke-linejoin: miter"/>
    </g>
    <g id="line2d_30">
     <path d="M 126.50625 40.655938 
L 140.50625 40.655938 
L 154.50625 40.655938 
" style="fill: none; stroke: #008000; stroke-width: 1.5; stroke-linecap: square"/>
    </g>
    <g id="text_21">
     <!-- EIGEN_SIMPLE -->
     <g transform="translate(165.70625 45.555938) scale(0.14 -0.14)">
      <defs>
       <path id="DejaVuSans-45" d="M 628 4666 
L 3578 4666 
L 3578 4134 
L 1259 4134 
L 1259 2753 
L 3481 2753 
L 3481 2222 
L 1259 2222 
L 1259 531 
L 3634 531 
L 3634 0 
L 628 0 
L 628 4666 
z
" transform="scale(0.015625)"/>
       <path id="DejaVuSans-47" d="M 3809 666 
L 3809 1919 
L 2778 1919 
L 2778 2438 
L 4434 2438 
L 4434 434 
Q 4069 175 3628 42 
Q 3188 -91 2688 -91 
Q 1594 -91 976 548 
Q 359 1188 359 2328 
Q 359 3472 976 4111 
Q 1594 4750 2688 4750 
Q 3144 4750 3555 4637 
Q 3966 4525 4313 4306 
L 4313 3634 
Q 3963 3931 3569 4081 
Q 3175 4231 2741 4231 
Q 1884 4231 1454 3753 
Q 1025 3275 1025 2328 
Q 1025 1384 1454 906 
Q 1884 428 2741 428 
Q 3075 428 3337 486 
Q 3600 544 3809 666 
z
" transform="scale(0.015625)"/>
       <path id="DejaVuSans-4e" d="M 628 4666 
L 1478 4666 
L 3547 763 
L 3547 4666 
L 4159 4666 
L 4159 0 
L 3309 0 
L 1241 3903 
L 1241 0 
L 628 0 
L 628 4666 
z
" transform="scale(0.015625)"/>
       <path id="DejaVuSans-5f" d="M 3263 -1063 
L 3263 -1509 
L -63 -1509 
L -63 -1063 
L 3263 -1063 
z
" transform="scale(0.015625)"/>
       <path id="DejaVuSans-4d" d="M 628 4666 
L 1569 4666 
L 2759 1491 
L 3956 4666 
L 4897 4666 
L 4897 0 
L 4281 0 
L 4281 4097 
L 3078 897 
L 2444 897 
L 1241 4097 
L 1241 0 
L 628 0 
L 628 4666 
z
" transform="scale(0.015625)"/>
       <path id="DejaVuSans-50" d="M 1259 4147 
L 1259 2394 
L 2053 2394 
Q 2494 2394 2734 2622 
Q 2975 2850 2975 3272 
Q 2975 3691 2734 3919 
Q 2494 4147 2053 4147 
L 1259 4147 
z
M 628 4666 
L 2053 4666 
Q 2838 4666 3239 4311 
Q 3641 3956 3641 3272 
Q 3641 2581 3239 2228 
Q 2838 1875 2053 1875 
L 1259 1875 
L 1259 0 
L 628 0 
L 628 4666 
z
" transform="scale(0.015625)"/>
       <path id="DejaVuSans-4c" d="M 628 4666 
L 1259 4666 
L 1259 531 
L 3531 531 
L 3531 0 
L 628 0 
L 628 4666 
z
" transform="scale(0.015625)"/>
      </defs>
      <use xlink:href="#DejaVuSans-45"/>
      <use xlink:href="#DejaVuSans-49" x="63.183594"/>
      <use xlink:href="#DejaVuSans-47" x="92.675781"/>
      <use xlink:href="#DejaVuSans-45" x="170.166016"/>
      <use xlink:href="#DejaVuSans-4e" x="233.349609"/>
      <use xlink:href="#DejaVuSans-5f" x="308.154297"/>
      <use xlink:href="#DejaVuSans-53" x="358.154297"/>
      <use xlink:href="#DejaVuSans-49" x="421.630859"/>
      <use xlink:href="#DejaVuSans-4d" x="451.123047"/>
      <use xlink:href="#DejaVuSans-50" x="537.402344"/>
      <use xlink:href="#DejaVuSans-4c" x="597.705078"/>
      <use xlink:href="#DejaVuSans-45" x="653.417969"/>
     </g>
    </g>
    <g id="line2d_31">
     <path d="M 126.50625 61.594688 
L 140.50625 61.594688 
L 154.50625 61.594688 
" style="fill: none; stroke: #ff0000; stroke-width: 1.5; stroke-linecap: square"/>
    </g>
    <g id="text_22">
     <!-- TBB_CONST_AFFINITY -->
     <g transform="translate(165.70625 66.494688) scale(0.14 -0.14)">
      <defs>
       <path id="DejaVuSans-54" d="M -19 4666 
L 3928 4666 
L 3928 4134 
L 2272 4134 
L 2272 0 
L 1638 0 
L 1638 4134 
L -19 4134 
L -19 4666 
z
" transform="scale(0.015625)"/>
       <path id="DejaVuSans-42" d="M 1259 2228 
L 1259 519 
L 2272 519 
Q 2781 519 3026 730 
Q 3272 941 3272 1375 
Q 3272 1813 3026 2020 
Q 2781 2228 2272 2228 
L 1259 2228 
z
M 1259 4147 
L 1259 2741 
L 2194 2741 
Q 2656 2741 2882 2914 
Q 3109 3088 3109 3444 
Q 3109 3797 2882 3972 
Q 2656 4147 2194 4147 
L 1259 4147 
z
M 628 4666 
L 2241 4666 
Q 2963 4666 3353 4366 
Q 3744 4066 3744 3513 
Q 3744 3084 3544 2831 
Q 3344 2578 2956 2516 
Q 3422 2416 3680 2098 
Q 3938 1781 3938 1306 
Q 3938 681 3513 340 
Q 3088 0 2303 0 
L 628 0 
L 628 4666 
z
" transform="scale(0.015625)"/>
       <path id="DejaVuSans-4f" d="M 2522 4238 
Q 1834 4238 1429 3725 
Q 1025 3213 1025 2328 
Q 1025 1447 1429 934 
Q 1834 422 2522 422 
Q 3209 422 3611 934 
Q 4013 1447 4013 2328 
Q 4013 3213 3611 3725 
Q 3209 4238 2522 4238 
z
M 2522 4750 
Q 3503 4750 4090 4092 
Q 4678 3434 4678 2328 
Q 4678 1225 4090 567 
Q 3503 -91 2522 -91 
Q 1538 -91 948 565 
Q 359 1222 359 2328 
Q 359 3434 948 4092 
Q 1538 4750 2522 4750 
z
" transform="scale(0.015625)"/>
       <path id="DejaVuSans-41" d="M 2188 4044 
L 1331 1722 
L 3047 1722 
L 2188 4044 
z
M 1831 4666 
L 2547 4666 
L 4325 0 
L 3669 0 
L 3244 1197 
L 1141 1197 
L 716 0 
L 50 0 
L 1831 4666 
z
" transform="scale(0.015625)"/>
       <path id="DejaVuSans-46" d="M 628 4666 
L 3309 4666 
L 3309 4134 
L 1259 4134 
L 1259 2759 
L 3109 2759 
L 3109 2228 
L 1259 2228 
L 1259 0 
L 628 0 
L 628 4666 
z
" transform="scale(0.015625)"/>
       <path id="DejaVuSans-59" d="M -13 4666 
L 666 4666 
L 1959 2747 
L 3244 4666 
L 3922 4666 
L 2272 2222 
L 2272 0 
L 1638 0 
L 1638 2222 
L -13 4666 
z
" transform="scale(0.015625)"/>
      </defs>
      <use xlink:href="#DejaVuSans-54"/>
      <use xlink:href="#DejaVuSans-42" x="61.083984"/>
      <use xlink:href="#DejaVuSans-42" x="129.6875"/>
      <use xlink:href="#DejaVuSans-5f" x="198.291016"/>
      <use xlink:href="#DejaVuSans-43" x="248.291016"/>
      <use xlink:href="#DejaVuSans-4f" x="318.115234"/>
      <use xlink:href="#DejaVuSans-4e" x="396.826172"/>
      <use xlink:href="#DejaVuSans-53" x="471.630859"/>
      <use xlink:href="#DejaVuSans-54" x="535.107422"/>
      <use xlink:href="#DejaVuSans-5f" x="596.191406"/>
      <use xlink:href="#DejaVuSans-41" x="646.191406"/>
      <use xlink:href="#DejaVuSans-46" x="714.599609"/>
      <use xlink:href="#DejaVuSans-46" x="772.119141"/>
      <use xlink:href="#DejaVuSans-49" x="829.638672"/>
      <use xlink:href="#DejaVuSans-4e" x="859.130859"/>
      <use xlink:href="#DejaVuSans-49" x="933.935547"/>
      <use xlink:href="#DejaVuSans-54" x="963.427734"/>
      <use xlink:href="#DejaVuSans-59" x="1024.511719"/>
     </g>
    </g>
    <g id="line2d_32">
     <path d="M 126.50625 82.533438 
L 140.50625 82.533438 
L 154.50625 82.533438 
" style="fill: none; stroke: #00bfbf; stroke-width: 1.5; stroke-linecap: square"/>
    </g>
    <g id="text_23">
     <!-- TBB_AFFINITY -->
     <g transform="translate(165.70625 87.433438) scale(0.14 -0.14)">
      <use xlink:href="#DejaVuSans-54"/>
      <use xlink:href="#DejaVuSans-42" x="61.083984"/>
      <use xlink:href="#DejaVuSans-42" x="129.6875"/>
      <use xlink:href="#DejaVuSans-5f" x="198.291016"/>
      <use xlink:href="#DejaVuSans-41" x="248.291016"/>
      <use xlink:href="#DejaVuSans-46" x="316.699219"/>
      <use xlink:href="#DejaVuSans-46" x="374.21875"/>
      <use xlink:href="#DejaVuSans-49" x="431.738281"/>
      <use xlink:href="#DejaVuSans-4e" x="461.230469"/>
      <use xlink:href="#DejaVuSans-49" x="536.035156"/>
      <use xlink:href="#DejaVuSans-54" x="565.527344"/>
      <use xlink:href="#DejaVuSans-59" x="626.611328"/>
     </g>
    </g>
    <g id="line2d_33">
     <path d="M 126.50625 103.472187 
L 140.50625 103.472187 
L 154.50625 103.472187 
" style="fill: none; stroke: #bf00bf; stroke-width: 1.5; stroke-linecap: square"/>
    </g>
    <g id="text_24">
     <!-- TBB_AUTO -->
     <g transform="translate(165.70625 108.372187) scale(0.14 -0.14)">
      <defs>
       <path id="DejaVuSans-55" d="M 556 4666 
L 1191 4666 
L 1191 1831 
Q 1191 1081 1462 751 
Q 1734 422 2344 422 
Q 2950 422 3222 751 
Q 3494 1081 3494 1831 
L 3494 4666 
L 4128 4666 
L 4128 1753 
Q 4128 841 3676 375 
Q 3225 -91 2344 -91 
Q 1459 -91 1007 375 
Q 556 841 556 1753 
L 556 4666 
z
" transform="scale(0.015625)"/>
      </defs>
      <use xlink:href="#DejaVuSans-54"/>
      <use xlink:href="#DejaVuSans-42" x="61.083984"/>
      <use xlink:href="#DejaVuSans-42" x="129.6875"/>
      <use xlink:href="#DejaVuSans-5f" x="198.291016"/>
      <use xlink:href="#DejaVuSans-41" x="248.291016"/>
      <use xlink:href="#DejaVuSans-55" x="316.699219"/>
      <use xlink:href="#DejaVuSans-54" x="389.892578"/>
      <use xlink:href="#DejaVuSans-4f" x="450.976562"/>
     </g>
    </g>
    <g id="line2d_34">
     <path d="M 126.50625 124.410938 
L 140.50625 124.410938 
L 154.50625 124.410938 
" style="fill: none; stroke: #000000; stroke-width: 1.5; stroke-linecap: square"/>
    </g>
    <g id="text_25">
     <!-- TBB_SIMPLE -->
     <g transform="translate(165.70625 129.310938) scale(0.14 -0.14)">
      <use xlink:href="#DejaVuSans-54"/>
      <use xlink:href="#DejaVuSans-42" x="61.083984"/>
      <use xlink:href="#DejaVuSans-42" x="129.6875"/>
      <use xlink:href="#DejaVuSans-5f" x="198.291016"/>
      <use xlink:href="#DejaVuSans-53" x="248.291016"/>
      <use xlink:href="#DejaVuSans-49" x="311.767578"/>
      <use xlink:href="#DejaVuSans-4d" x="341.259766"/>
      <use xlink:href="#DejaVuSans-50" x="427.539062"/>
      <use xlink:href="#DejaVuSans-4c" x="487.841797"/>
      <use xlink:href="#DejaVuSans-45" x="543.554688"/>
     </g>
    </g>
    <g id="line2d_35">
     <path d="M 126.50625 145.349688 
L 140.50625 145.349688 
L 154.50625 145.349688 
" style="fill: none; stroke-dasharray: 5.55,2.4; stroke-dashoffset: 0; stroke: #0000ff; stroke-width: 1.5"/>
    </g>
    <g id="text_26">
     <!-- EIGEN_STATIC -->
     <g transform="translate(165.70625 150.249688) scale(0.14 -0.14)">
      <use xlink:href="#DejaVuSans-45"/>
      <use xlink:href="#DejaVuSans-49" x="63.183594"/>
      <use xlink:href="#DejaVuSans-47" x="92.675781"/>
      <use xlink:href="#DejaVuSans-45" x="170.166016"/>
      <use xlink:href="#DejaVuSans-4e" x="233.349609"/>
      <use xlink:href="#DejaVuSans-5f" x="308.154297"/>
      <use xlink:href="#DejaVuSans-53" x="358.154297"/>
      <use xlink:href="#DejaVuSans-54" x="421.630859"/>
      <use xlink:href="#DejaVuSans-41" x="474.964844"/>
      <use xlink:href="#DejaVuSans-54" x="535.623047"/>
      <use xlink:href="#DejaVuSans-49" x="596.707031"/>
      <use xlink:href="#DejaVuSans-43" x="626.199219"/>
     </g>
    </g>
    <g id="line2d_36">
     <path d="M 126.50625 166.288438 
L 140.50625 166.288438 
L 154.50625 166.288438 
" style="fill: none; stroke-dasharray: 5.55,2.4; stroke-dashoffset: 0; stroke: #008000; stroke-width: 1.5"/>
    </g>
    <g id="text_27">
     <!-- OMP_GUIDED_NONMONOTONIC -->
     <g transform="translate(165.70625 171.188438) scale(0.14 -0.14)">
      <defs>
       <path id="DejaVuSans-44" d="M 1259 4147 
L 1259 519 
L 2022 519 
Q 2988 519 3436 956 
Q 3884 1394 3884 2338 
Q 3884 3275 3436 3711 
Q 2988 4147 2022 4147 
L 1259 4147 
z
M 628 4666 
L 1925 4666 
Q 3281 4666 3915 4102 
Q 4550 3538 4550 2338 
Q 4550 1131 3912 565 
Q 3275 0 1925 0 
L 628 0 
L 628 4666 
z
" transform="scale(0.015625)"/>
      </defs>
      <use xlink:href="#DejaVuSans-4f"/>
      <use xlink:href="#DejaVuSans-4d" x="78.710938"/>
      <use xlink:href="#DejaVuSans-50" x="164.990234"/>
      <use xlink:href="#DejaVuSans-5f" x="225.292969"/>
      <use xlink:href="#DejaVuSans-47" x="275.292969"/>
      <use xlink:href="#DejaVuSans-55" x="352.783203"/>
      <use xlink:href="#DejaVuSans-49" x="425.976562"/>
      <use xlink:href="#DejaVuSans-44" x="455.46875"/>
      <use xlink:href="#DejaVuSans-45" x="532.470703"/>
      <use xlink:href="#DejaVuSans-44" x="595.654297"/>
      <use xlink:href="#DejaVuSans-5f" x="672.65625"/>
      <use xlink:href="#DejaVuSans-4e" x="722.65625"/>
      <use xlink:href="#DejaVuSans-4f" x="797.460938"/>
      <use xlink:href="#DejaVuSans-4e" x="876.171875"/>
      <use xlink:href="#DejaVuSans-4d" x="950.976562"/>
      <use xlink:href="#DejaVuSans-4f" x="1037.255859"/>
      <use xlink:href="#DejaVuSans-4e" x="1115.966797"/>
      <use xlink:href="#DejaVuSans-4f" x="1190.771484"/>
      <use xlink:href="#DejaVuSans-54" x="1269.482422"/>
      <use xlink:href="#DejaVuSans-4f" x="1330.566406"/>
      <use xlink:href="#DejaVuSans-4e" x="1409.277344"/>
      <use xlink:href="#DejaVuSans-49" x="1484.082031"/>
      <use xlink:href="#DejaVuSans-43" x="1513.574219"/>
     </g>
    </g>
    <g id="line2d_37">
     <path d="M 126.50625 187.227188 
L 140.50625 187.227188 
L 154.50625 187.227188 
" style="fill: none; stroke-dasharray: 5.55,2.4; stroke-dashoffset: 0; stroke: #ff0000; stroke-width: 1.5"/>
    </g>
    <g id="text_28">
     <!-- OMP_DYNAMIC_NONMONOTONIC -->
     <g transform="translate(165.70625 192.127188) scale(0.14 -0.14)">
      <use xlink:href="#DejaVuSans-4f"/>
      <use xlink:href="#DejaVuSans-4d" x="78.710938"/>
      <use xlink:href="#DejaVuSans-50" x="164.990234"/>
      <use xlink:href="#DejaVuSans-5f" x="225.292969"/>
      <use xlink:href="#DejaVuSans-44" x="275.292969"/>
      <use xlink:href="#DejaVuSans-59" x="346.794922"/>
      <use xlink:href="#DejaVuSans-4e" x="407.878906"/>
      <use xlink:href="#DejaVuSans-41" x="482.683594"/>
      <use xlink:href="#DejaVuSans-4d" x="551.091797"/>
      <use xlink:href="#DejaVuSans-49" x="637.371094"/>
      <use xlink:href="#DejaVuSans-43" x="666.863281"/>
      <use xlink:href="#DejaVuSans-5f" x="736.6875"/>
      <use xlink:href="#DejaVuSans-4e" x="786.6875"/>
      <use xlink:href="#DejaVuSans-4f" x="861.492188"/>
      <use xlink:href="#DejaVuSans-4e" x="940.203125"/>
      <use xlink:href="#DejaVuSans-4d" x="1015.007812"/>
      <use xlink:href="#DejaVuSans-4f" x="1101.287109"/>
      <use xlink:href="#DejaVuSans-4e" x="1179.998047"/>
      <use xlink:href="#DejaVuSans-4f" x="1254.802734"/>
      <use xlink:href="#DejaVuSans-54" x="1333.513672"/>
      <use xlink:href="#DejaVuSans-4f" x="1394.597656"/>
      <use xlink:href="#DejaVuSans-4e" x="1473.308594"/>
      <use xlink:href="#DejaVuSans-49" x="1548.113281"/>
      <use xlink:href="#DejaVuSans-43" x="1577.605469"/>
     </g>
    </g>
    <g id="line2d_38">
     <path d="M 126.50625 208.165938 
L 140.50625 208.165938 
L 154.50625 208.165938 
" style="fill: none; stroke-dasharray: 5.55,2.4; stroke-dashoffset: 0; stroke: #00bfbf; stroke-width: 1.5"/>
    </g>
    <g id="text_29">
     <!-- OMP_DYNAMIC_MONOTONIC -->
     <g transform="translate(165.70625 213.065938) scale(0.14 -0.14)">
      <use xlink:href="#DejaVuSans-4f"/>
      <use xlink:href="#DejaVuSans-4d" x="78.710938"/>
      <use xlink:href="#DejaVuSans-50" x="164.990234"/>
      <use xlink:href="#DejaVuSans-5f" x="225.292969"/>
      <use xlink:href="#DejaVuSans-44" x="275.292969"/>
      <use xlink:href="#DejaVuSans-59" x="346.794922"/>
      <use xlink:href="#DejaVuSans-4e" x="407.878906"/>
      <use xlink:href="#DejaVuSans-41" x="482.683594"/>
      <use xlink:href="#DejaVuSans-4d" x="551.091797"/>
      <use xlink:href="#DejaVuSans-49" x="637.371094"/>
      <use xlink:href="#DejaVuSans-43" x="666.863281"/>
      <use xlink:href="#DejaVuSans-5f" x="736.6875"/>
      <use xlink:href="#DejaVuSans-4d" x="786.6875"/>
      <use xlink:href="#DejaVuSans-4f" x="872.966797"/>
      <use xlink:href="#DejaVuSans-4e" x="951.677734"/>
      <use xlink:href="#DejaVuSans-4f" x="1026.482422"/>
      <use xlink:href="#DejaVuSans-54" x="1105.193359"/>
      <use xlink:href="#DejaVuSans-4f" x="1166.277344"/>
      <use xlink:href="#DejaVuSans-4e" x="1244.988281"/>
      <use xlink:href="#DejaVuSans-49" x="1319.792969"/>
      <use xlink:href="#DejaVuSans-43" x="1349.285156"/>
     </g>
    </g>
    <g id="line2d_39">
     <path d="M 126.50625 229.104688 
L 140.50625 229.104688 
L 154.50625 229.104688 
" style="fill: none; stroke-dasharray: 5.55,2.4; stroke-dashoffset: 0; stroke: #bf00bf; stroke-width: 1.5"/>
    </g>
    <g id="text_30">
     <!-- OMP_STATIC -->
     <g transform="translate(165.70625 234.004688) scale(0.14 -0.14)">
      <use xlink:href="#DejaVuSans-4f"/>
      <use xlink:href="#DejaVuSans-4d" x="78.710938"/>
      <use xlink:href="#DejaVuSans-50" x="164.990234"/>
      <use xlink:href="#DejaVuSans-5f" x="225.292969"/>
      <use xlink:href="#DejaVuSans-53" x="275.292969"/>
      <use xlink:href="#DejaVuSans-54" x="338.769531"/>
      <use xlink:href="#DejaVuSans-41" x="392.103516"/>
      <use xlink:href="#DejaVuSans-54" x="452.761719"/>
      <use xlink:href="#DejaVuSans-49" x="513.845703"/>
      <use xlink:href="#DejaVuSans-43" x="543.337891"/>
     </g>
    </g>
    <g id="line2d_40">
     <path d="M 126.50625 250.043438 
L 140.50625 250.043438 
L 154.50625 250.043438 
" style="fill: none; stroke-dasharray: 5.55,2.4; stroke-dashoffset: 0; stroke: #000000; stroke-width: 1.5"/>
    </g>
    <g id="text_31">
     <!-- OMP_GUIDED_MONOTONIC -->
     <g transform="translate(165.70625 254.943438) scale(0.14 -0.14)">
      <use xlink:href="#DejaVuSans-4f"/>
      <use xlink:href="#DejaVuSans-4d" x="78.710938"/>
      <use xlink:href="#DejaVuSans-50" x="164.990234"/>
      <use xlink:href="#DejaVuSans-5f" x="225.292969"/>
      <use xlink:href="#DejaVuSans-47" x="275.292969"/>
      <use xlink:href="#DejaVuSans-55" x="352.783203"/>
      <use xlink:href="#DejaVuSans-49" x="425.976562"/>
      <use xlink:href="#DejaVuSans-44" x="455.46875"/>
      <use xlink:href="#DejaVuSans-45" x="532.470703"/>
      <use xlink:href="#DejaVuSans-44" x="595.654297"/>
      <use xlink:href="#DejaVuSans-5f" x="672.65625"/>
      <use xlink:href="#DejaVuSans-4d" x="722.65625"/>
      <use xlink:href="#DejaVuSans-4f" x="808.935547"/>
      <use xlink:href="#DejaVuSans-4e" x="887.646484"/>
      <use xlink:href="#DejaVuSans-4f" x="962.451172"/>
      <use xlink:href="#DejaVuSans-54" x="1041.162109"/>
      <use xlink:href="#DejaVuSans-4f" x="1102.246094"/>
      <use xlink:href="#DejaVuSans-4e" x="1180.957031"/>
      <use xlink:href="#DejaVuSans-49" x="1255.761719"/>
      <use xlink:href="#DejaVuSans-43" x="1285.253906"/>
     </g>
    </g>
    <g id="line2d_41">
     <path d="M 126.50625 270.982188 
L 140.50625 270.982188 
L 154.50625 270.982188 
" style="fill: none; stroke-dasharray: 9.6,2.4,1.5,2.4; stroke-dashoffset: 0; stroke: #0000ff; stroke-width: 1.5"/>
    </g>
    <g id="text_32">
     <!-- EIGEN_TIMESPAN -->
     <g transform="translate(165.70625 275.882187) scale(0.14 -0.14)">
      <use xlink:href="#DejaVuSans-45"/>
      <use xlink:href="#DejaVuSans-49" x="63.183594"/>
      <use xlink:href="#DejaVuSans-47" x="92.675781"/>
      <use xlink:href="#DejaVuSans-45" x="170.166016"/>
      <use xlink:href="#DejaVuSans-4e" x="233.349609"/>
      <use xlink:href="#DejaVuSans-5f" x="308.154297"/>
      <use xlink:href="#DejaVuSans-54" x="358.154297"/>
      <use xlink:href="#DejaVuSans-49" x="419.238281"/>
      <use xlink:href="#DejaVuSans-4d" x="448.730469"/>
      <use xlink:href="#DejaVuSans-45" x="535.009766"/>
      <use xlink:href="#DejaVuSans-53" x="598.193359"/>
      <use xlink:href="#DejaVuSans-50" x="661.669922"/>
      <use xlink:href="#DejaVuSans-41" x="715.597656"/>
      <use xlink:href="#DejaVuSans-4e" x="784.005859"/>
     </g>
    </g>
   </g>
  </g>
 </g>
 <defs>
  <clipPath id="p86ebfedc64">
   <rect x="113.90625" y="22.318125" width="1004.4" height="332.64"/>
  </clipPath>
 </defs>
</svg>
