<?xml version="1.0" encoding="utf-8" standalone="no"?>
<!DOCTYPE svg PUBLIC "-//W3C//DTD SVG 1.1//EN"
  "http://www.w3.org/Graphics/SVG/1.1/DTD/svg11.dtd">
<svg xmlns:xlink="http://www.w3.org/1999/xlink" width="1138.23125pt" height="411.870625pt" viewBox="0 0 1138.23125 411.870625" xmlns="http://www.w3.org/2000/svg" version="1.1">
 <metadata>
  <rdf:RDF xmlns:dc="http://purl.org/dc/elements/1.1/" xmlns:cc="http://creativecommons.org/ns#" xmlns:rdf="http://www.w3.org/1999/02/22-rdf-syntax-ns#">
   <cc:Work>
    <dc:type rdf:resource="http://purl.org/dc/dcmitype/StillImage"/>
    <dc:date>2023-04-08T21:33:10.401274</dc:date>
    <dc:format>image/svg+xml</dc:format>
    <dc:creator>
     <cc:Agent>
      <dc:title>Matplotlib v3.6.2, https://matplotlib.org/</dc:title>
     </cc:Agent>
    </dc:creator>
   </cc:Work>
  </rdf:RDF>
 </metadata>
 <defs>
  <style type="text/css">*{stroke-linejoin: round; stroke-linecap: butt}</style>
 </defs>
 <g id="figure_1">
  <g id="patch_1">
   <path d="M 0 411.870625 
L 1138.23125 411.870625 
L 1138.23125 0 
L 0 0 
z
" style="fill: #ffffff"/>
  </g>
  <g id="axes_1">
   <g id="patch_2">
    <path d="M 126.63125 354.958125 
L 1131.03125 354.958125 
L 1131.03125 22.318125 
L 126.63125 22.318125 
z
" style="fill: #ffffff"/>
   </g>
   <g id="matplotlib.axis_1">
    <g id="xtick_1">
     <g id="line2d_1">
      <defs>
       <path id="mbf5eb807ec" d="M 0 0 
L 0 3.5 
" style="stroke: #000000; stroke-width: 0.8"/>
      </defs>
      <g>
       <use xlink:href="#mbf5eb807ec" x="172.285795" y="354.958125" style="stroke: #000000; stroke-width: 0.8"/>
      </g>
     </g>
     <g id="text_1">
      <!-- 0 -->
      <g transform="translate(165.923295 377.155) scale(0.2 -0.2)">
       <defs>
        <path id="DejaVuSans-30" d="M 2034 4250 
Q 1547 4250 1301 3770 
Q 1056 3291 1056 2328 
Q 1056 1369 1301 889 
Q 1547 409 2034 409 
Q 2525 409 2770 889 
Q 3016 1369 3016 2328 
Q 3016 3291 2770 3770 
Q 2525 4250 2034 4250 
z
M 2034 4750 
Q 2819 4750 3233 4129 
Q 3647 3509 3647 2328 
Q 3647 1150 3233 529 
Q 2819 -91 2034 -91 
Q 1250 -91 836 529 
Q 422 1150 422 2328 
Q 422 3509 836 4129 
Q 1250 4750 2034 4750 
z
" transform="scale(0.015625)"/>
       </defs>
       <use xlink:href="#DejaVuSans-30"/>
      </g>
     </g>
    </g>
    <g id="xtick_2">
     <g id="line2d_2">
      <g>
       <use xlink:href="#mbf5eb807ec" x="364.515461" y="354.958125" style="stroke: #000000; stroke-width: 0.8"/>
      </g>
     </g>
     <g id="text_2">
      <!-- 20 -->
      <g transform="translate(351.790461 377.155) scale(0.2 -0.2)">
       <defs>
        <path id="DejaVuSans-32" d="M 1228 531 
L 3431 531 
L 3431 0 
L 469 0 
L 469 531 
Q 828 903 1448 1529 
Q 2069 2156 2228 2338 
Q 2531 2678 2651 2914 
Q 2772 3150 2772 3378 
Q 2772 3750 2511 3984 
Q 2250 4219 1831 4219 
Q 1534 4219 1204 4116 
Q 875 4013 500 3803 
L 500 4441 
Q 881 4594 1212 4672 
Q 1544 4750 1819 4750 
Q 2544 4750 2975 4387 
Q 3406 4025 3406 3419 
Q 3406 3131 3298 2873 
Q 3191 2616 2906 2266 
Q 2828 2175 2409 1742 
Q 1991 1309 1228 531 
z
" transform="scale(0.015625)"/>
       </defs>
       <use xlink:href="#DejaVuSans-32"/>
       <use xlink:href="#DejaVuSans-30" x="63.623047"/>
      </g>
     </g>
    </g>
    <g id="xtick_3">
     <g id="line2d_3">
      <g>
       <use xlink:href="#mbf5eb807ec" x="556.745126" y="354.958125" style="stroke: #000000; stroke-width: 0.8"/>
      </g>
     </g>
     <g id="text_3">
      <!-- 40 -->
      <g transform="translate(544.020126 377.155) scale(0.2 -0.2)">
       <defs>
        <path id="DejaVuSans-34" d="M 2419 4116 
L 825 1625 
L 2419 1625 
L 2419 4116 
z
M 2253 4666 
L 3047 4666 
L 3047 1625 
L 3713 1625 
L 3713 1100 
L 3047 1100 
L 3047 0 
L 2419 0 
L 2419 1100 
L 313 1100 
L 313 1709 
L 2253 4666 
z
" transform="scale(0.015625)"/>
       </defs>
       <use xlink:href="#DejaVuSans-34"/>
       <use xlink:href="#DejaVuSans-30" x="63.623047"/>
      </g>
     </g>
    </g>
    <g id="xtick_4">
     <g id="line2d_4">
      <g>
       <use xlink:href="#mbf5eb807ec" x="748.974791" y="354.958125" style="stroke: #000000; stroke-width: 0.8"/>
      </g>
     </g>
     <g id="text_4">
      <!-- 60 -->
      <g transform="translate(736.249791 377.155) scale(0.2 -0.2)">
       <defs>
        <path id="DejaVuSans-36" d="M 2113 2584 
Q 1688 2584 1439 2293 
Q 1191 2003 1191 1497 
Q 1191 994 1439 701 
Q 1688 409 2113 409 
Q 2538 409 2786 701 
Q 3034 994 3034 1497 
Q 3034 2003 2786 2293 
Q 2538 2584 2113 2584 
z
M 3366 4563 
L 3366 3988 
Q 3128 4100 2886 4159 
Q 2644 4219 2406 4219 
Q 1781 4219 1451 3797 
Q 1122 3375 1075 2522 
Q 1259 2794 1537 2939 
Q 1816 3084 2150 3084 
Q 2853 3084 3261 2657 
Q 3669 2231 3669 1497 
Q 3669 778 3244 343 
Q 2819 -91 2113 -91 
Q 1303 -91 875 529 
Q 447 1150 447 2328 
Q 447 3434 972 4092 
Q 1497 4750 2381 4750 
Q 2619 4750 2861 4703 
Q 3103 4656 3366 4563 
z
" transform="scale(0.015625)"/>
       </defs>
       <use xlink:href="#DejaVuSans-36"/>
       <use xlink:href="#DejaVuSans-30" x="63.623047"/>
      </g>
     </g>
    </g>
    <g id="xtick_5">
     <g id="line2d_5">
      <g>
       <use xlink:href="#mbf5eb807ec" x="941.204456" y="354.958125" style="stroke: #000000; stroke-width: 0.8"/>
      </g>
     </g>
     <g id="text_5">
      <!-- 80 -->
      <g transform="translate(928.479456 377.155) scale(0.2 -0.2)">
       <defs>
        <path id="DejaVuSans-38" d="M 2034 2216 
Q 1584 2216 1326 1975 
Q 1069 1734 1069 1313 
Q 1069 891 1326 650 
Q 1584 409 2034 409 
Q 2484 409 2743 651 
Q 3003 894 3003 1313 
Q 3003 1734 2745 1975 
Q 2488 2216 2034 2216 
z
M 1403 2484 
Q 997 2584 770 2862 
Q 544 3141 544 3541 
Q 544 4100 942 4425 
Q 1341 4750 2034 4750 
Q 2731 4750 3128 4425 
Q 3525 4100 3525 3541 
Q 3525 3141 3298 2862 
Q 3072 2584 2669 2484 
Q 3125 2378 3379 2068 
Q 3634 1759 3634 1313 
Q 3634 634 3220 271 
Q 2806 -91 2034 -91 
Q 1263 -91 848 271 
Q 434 634 434 1313 
Q 434 1759 690 2068 
Q 947 2378 1403 2484 
z
M 1172 3481 
Q 1172 3119 1398 2916 
Q 1625 2713 2034 2713 
Q 2441 2713 2670 2916 
Q 2900 3119 2900 3481 
Q 2900 3844 2670 4047 
Q 2441 4250 2034 4250 
Q 1625 4250 1398 4047 
Q 1172 3844 1172 3481 
z
" transform="scale(0.015625)"/>
       </defs>
       <use xlink:href="#DejaVuSans-38"/>
       <use xlink:href="#DejaVuSans-30" x="63.623047"/>
      </g>
     </g>
    </g>
    <g id="text_6">
     <!-- Index of thread (sorted by time of first task) -->
     <g transform="translate(408.710937 400.51125) scale(0.2 -0.2)">
      <defs>
       <path id="DejaVuSans-49" d="M 628 4666 
L 1259 4666 
L 1259 0 
L 628 0 
L 628 4666 
z
" transform="scale(0.015625)"/>
       <path id="DejaVuSans-6e" d="M 3513 2113 
L 3513 0 
L 2938 0 
L 2938 2094 
Q 2938 2591 2744 2837 
Q 2550 3084 2163 3084 
Q 1697 3084 1428 2787 
Q 1159 2491 1159 1978 
L 1159 0 
L 581 0 
L 581 3500 
L 1159 3500 
L 1159 2956 
Q 1366 3272 1645 3428 
Q 1925 3584 2291 3584 
Q 2894 3584 3203 3211 
Q 3513 2838 3513 2113 
z
" transform="scale(0.015625)"/>
       <path id="DejaVuSans-64" d="M 2906 2969 
L 2906 4863 
L 3481 4863 
L 3481 0 
L 2906 0 
L 2906 525 
Q 2725 213 2448 61 
Q 2172 -91 1784 -91 
Q 1150 -91 751 415 
Q 353 922 353 1747 
Q 353 2572 751 3078 
Q 1150 3584 1784 3584 
Q 2172 3584 2448 3432 
Q 2725 3281 2906 2969 
z
M 947 1747 
Q 947 1113 1208 752 
Q 1469 391 1925 391 
Q 2381 391 2643 752 
Q 2906 1113 2906 1747 
Q 2906 2381 2643 2742 
Q 2381 3103 1925 3103 
Q 1469 3103 1208 2742 
Q 947 2381 947 1747 
z
" transform="scale(0.015625)"/>
       <path id="DejaVuSans-65" d="M 3597 1894 
L 3597 1613 
L 953 1613 
Q 991 1019 1311 708 
Q 1631 397 2203 397 
Q 2534 397 2845 478 
Q 3156 559 3463 722 
L 3463 178 
Q 3153 47 2828 -22 
Q 2503 -91 2169 -91 
Q 1331 -91 842 396 
Q 353 884 353 1716 
Q 353 2575 817 3079 
Q 1281 3584 2069 3584 
Q 2775 3584 3186 3129 
Q 3597 2675 3597 1894 
z
M 3022 2063 
Q 3016 2534 2758 2815 
Q 2500 3097 2075 3097 
Q 1594 3097 1305 2825 
Q 1016 2553 972 2059 
L 3022 2063 
z
" transform="scale(0.015625)"/>
       <path id="DejaVuSans-78" d="M 3513 3500 
L 2247 1797 
L 3578 0 
L 2900 0 
L 1881 1375 
L 863 0 
L 184 0 
L 1544 1831 
L 300 3500 
L 978 3500 
L 1906 2253 
L 2834 3500 
L 3513 3500 
z
" transform="scale(0.015625)"/>
       <path id="DejaVuSans-20" transform="scale(0.015625)"/>
       <path id="DejaVuSans-6f" d="M 1959 3097 
Q 1497 3097 1228 2736 
Q 959 2375 959 1747 
Q 959 1119 1226 758 
Q 1494 397 1959 397 
Q 2419 397 2687 759 
Q 2956 1122 2956 1747 
Q 2956 2369 2687 2733 
Q 2419 3097 1959 3097 
z
M 1959 3584 
Q 2709 3584 3137 3096 
Q 3566 2609 3566 1747 
Q 3566 888 3137 398 
Q 2709 -91 1959 -91 
Q 1206 -91 779 398 
Q 353 888 353 1747 
Q 353 2609 779 3096 
Q 1206 3584 1959 3584 
z
" transform="scale(0.015625)"/>
       <path id="DejaVuSans-66" d="M 2375 4863 
L 2375 4384 
L 1825 4384 
Q 1516 4384 1395 4259 
Q 1275 4134 1275 3809 
L 1275 3500 
L 2222 3500 
L 2222 3053 
L 1275 3053 
L 1275 0 
L 697 0 
L 697 3053 
L 147 3053 
L 147 3500 
L 697 3500 
L 697 3744 
Q 697 4328 969 4595 
Q 1241 4863 1831 4863 
L 2375 4863 
z
" transform="scale(0.015625)"/>
       <path id="DejaVuSans-74" d="M 1172 4494 
L 1172 3500 
L 2356 3500 
L 2356 3053 
L 1172 3053 
L 1172 1153 
Q 1172 725 1289 603 
Q 1406 481 1766 481 
L 2356 481 
L 2356 0 
L 1766 0 
Q 1100 0 847 248 
Q 594 497 594 1153 
L 594 3053 
L 172 3053 
L 172 3500 
L 594 3500 
L 594 4494 
L 1172 4494 
z
" transform="scale(0.015625)"/>
       <path id="DejaVuSans-68" d="M 3513 2113 
L 3513 0 
L 2938 0 
L 2938 2094 
Q 2938 2591 2744 2837 
Q 2550 3084 2163 3084 
Q 1697 3084 1428 2787 
Q 1159 2491 1159 1978 
L 1159 0 
L 581 0 
L 581 4863 
L 1159 4863 
L 1159 2956 
Q 1366 3272 1645 3428 
Q 1925 3584 2291 3584 
Q 2894 3584 3203 3211 
Q 3513 2838 3513 2113 
z
" transform="scale(0.015625)"/>
       <path id="DejaVuSans-72" d="M 2631 2963 
Q 2534 3019 2420 3045 
Q 2306 3072 2169 3072 
Q 1681 3072 1420 2755 
Q 1159 2438 1159 1844 
L 1159 0 
L 581 0 
L 581 3500 
L 1159 3500 
L 1159 2956 
Q 1341 3275 1631 3429 
Q 1922 3584 2338 3584 
Q 2397 3584 2469 3576 
Q 2541 3569 2628 3553 
L 2631 2963 
z
" transform="scale(0.015625)"/>
       <path id="DejaVuSans-61" d="M 2194 1759 
Q 1497 1759 1228 1600 
Q 959 1441 959 1056 
Q 959 750 1161 570 
Q 1363 391 1709 391 
Q 2188 391 2477 730 
Q 2766 1069 2766 1631 
L 2766 1759 
L 2194 1759 
z
M 3341 1997 
L 3341 0 
L 2766 0 
L 2766 531 
Q 2569 213 2275 61 
Q 1981 -91 1556 -91 
Q 1019 -91 701 211 
Q 384 513 384 1019 
Q 384 1609 779 1909 
Q 1175 2209 1959 2209 
L 2766 2209 
L 2766 2266 
Q 2766 2663 2505 2880 
Q 2244 3097 1772 3097 
Q 1472 3097 1187 3025 
Q 903 2953 641 2809 
L 641 3341 
Q 956 3463 1253 3523 
Q 1550 3584 1831 3584 
Q 2591 3584 2966 3190 
Q 3341 2797 3341 1997 
z
" transform="scale(0.015625)"/>
       <path id="DejaVuSans-28" d="M 1984 4856 
Q 1566 4138 1362 3434 
Q 1159 2731 1159 2009 
Q 1159 1288 1364 580 
Q 1569 -128 1984 -844 
L 1484 -844 
Q 1016 -109 783 600 
Q 550 1309 550 2009 
Q 550 2706 781 3412 
Q 1013 4119 1484 4856 
L 1984 4856 
z
" transform="scale(0.015625)"/>
       <path id="DejaVuSans-73" d="M 2834 3397 
L 2834 2853 
Q 2591 2978 2328 3040 
Q 2066 3103 1784 3103 
Q 1356 3103 1142 2972 
Q 928 2841 928 2578 
Q 928 2378 1081 2264 
Q 1234 2150 1697 2047 
L 1894 2003 
Q 2506 1872 2764 1633 
Q 3022 1394 3022 966 
Q 3022 478 2636 193 
Q 2250 -91 1575 -91 
Q 1294 -91 989 -36 
Q 684 19 347 128 
L 347 722 
Q 666 556 975 473 
Q 1284 391 1588 391 
Q 1994 391 2212 530 
Q 2431 669 2431 922 
Q 2431 1156 2273 1281 
Q 2116 1406 1581 1522 
L 1381 1569 
Q 847 1681 609 1914 
Q 372 2147 372 2553 
Q 372 3047 722 3315 
Q 1072 3584 1716 3584 
Q 2034 3584 2315 3537 
Q 2597 3491 2834 3397 
z
" transform="scale(0.015625)"/>
       <path id="DejaVuSans-62" d="M 3116 1747 
Q 3116 2381 2855 2742 
Q 2594 3103 2138 3103 
Q 1681 3103 1420 2742 
Q 1159 2381 1159 1747 
Q 1159 1113 1420 752 
Q 1681 391 2138 391 
Q 2594 391 2855 752 
Q 3116 1113 3116 1747 
z
M 1159 2969 
Q 1341 3281 1617 3432 
Q 1894 3584 2278 3584 
Q 2916 3584 3314 3078 
Q 3713 2572 3713 1747 
Q 3713 922 3314 415 
Q 2916 -91 2278 -91 
Q 1894 -91 1617 61 
Q 1341 213 1159 525 
L 1159 0 
L 581 0 
L 581 4863 
L 1159 4863 
L 1159 2969 
z
" transform="scale(0.015625)"/>
       <path id="DejaVuSans-79" d="M 2059 -325 
Q 1816 -950 1584 -1140 
Q 1353 -1331 966 -1331 
L 506 -1331 
L 506 -850 
L 844 -850 
Q 1081 -850 1212 -737 
Q 1344 -625 1503 -206 
L 1606 56 
L 191 3500 
L 800 3500 
L 1894 763 
L 2988 3500 
L 3597 3500 
L 2059 -325 
z
" transform="scale(0.015625)"/>
       <path id="DejaVuSans-69" d="M 603 3500 
L 1178 3500 
L 1178 0 
L 603 0 
L 603 3500 
z
M 603 4863 
L 1178 4863 
L 1178 4134 
L 603 4134 
L 603 4863 
z
" transform="scale(0.015625)"/>
       <path id="DejaVuSans-6d" d="M 3328 2828 
Q 3544 3216 3844 3400 
Q 4144 3584 4550 3584 
Q 5097 3584 5394 3201 
Q 5691 2819 5691 2113 
L 5691 0 
L 5113 0 
L 5113 2094 
Q 5113 2597 4934 2840 
Q 4756 3084 4391 3084 
Q 3944 3084 3684 2787 
Q 3425 2491 3425 1978 
L 3425 0 
L 2847 0 
L 2847 2094 
Q 2847 2600 2669 2842 
Q 2491 3084 2119 3084 
Q 1678 3084 1418 2786 
Q 1159 2488 1159 1978 
L 1159 0 
L 581 0 
L 581 3500 
L 1159 3500 
L 1159 2956 
Q 1356 3278 1631 3431 
Q 1906 3584 2284 3584 
Q 2666 3584 2933 3390 
Q 3200 3197 3328 2828 
z
" transform="scale(0.015625)"/>
       <path id="DejaVuSans-6b" d="M 581 4863 
L 1159 4863 
L 1159 1991 
L 2875 3500 
L 3609 3500 
L 1753 1863 
L 3688 0 
L 2938 0 
L 1159 1709 
L 1159 0 
L 581 0 
L 581 4863 
z
" transform="scale(0.015625)"/>
       <path id="DejaVuSans-29" d="M 513 4856 
L 1013 4856 
Q 1481 4119 1714 3412 
Q 1947 2706 1947 2009 
Q 1947 1309 1714 600 
Q 1481 -109 1013 -844 
L 513 -844 
Q 928 -128 1133 580 
Q 1338 1288 1338 2009 
Q 1338 2731 1133 3434 
Q 928 4138 513 4856 
z
" transform="scale(0.015625)"/>
      </defs>
      <use xlink:href="#DejaVuSans-49"/>
      <use xlink:href="#DejaVuSans-6e" x="29.492188"/>
      <use xlink:href="#DejaVuSans-64" x="92.871094"/>
      <use xlink:href="#DejaVuSans-65" x="156.347656"/>
      <use xlink:href="#DejaVuSans-78" x="216.121094"/>
      <use xlink:href="#DejaVuSans-20" x="275.300781"/>
      <use xlink:href="#DejaVuSans-6f" x="307.087891"/>
      <use xlink:href="#DejaVuSans-66" x="368.269531"/>
      <use xlink:href="#DejaVuSans-20" x="403.474609"/>
      <use xlink:href="#DejaVuSans-74" x="435.261719"/>
      <use xlink:href="#DejaVuSans-68" x="474.470703"/>
      <use xlink:href="#DejaVuSans-72" x="537.849609"/>
      <use xlink:href="#DejaVuSans-65" x="576.712891"/>
      <use xlink:href="#DejaVuSans-61" x="638.236328"/>
      <use xlink:href="#DejaVuSans-64" x="699.515625"/>
      <use xlink:href="#DejaVuSans-20" x="762.992188"/>
      <use xlink:href="#DejaVuSans-28" x="794.779297"/>
      <use xlink:href="#DejaVuSans-73" x="833.792969"/>
      <use xlink:href="#DejaVuSans-6f" x="885.892578"/>
      <use xlink:href="#DejaVuSans-72" x="947.074219"/>
      <use xlink:href="#DejaVuSans-74" x="988.1875"/>
      <use xlink:href="#DejaVuSans-65" x="1027.396484"/>
      <use xlink:href="#DejaVuSans-64" x="1088.919922"/>
      <use xlink:href="#DejaVuSans-20" x="1152.396484"/>
      <use xlink:href="#DejaVuSans-62" x="1184.183594"/>
      <use xlink:href="#DejaVuSans-79" x="1247.660156"/>
      <use xlink:href="#DejaVuSans-20" x="1306.839844"/>
      <use xlink:href="#DejaVuSans-74" x="1338.626953"/>
      <use xlink:href="#DejaVuSans-69" x="1377.835938"/>
      <use xlink:href="#DejaVuSans-6d" x="1405.619141"/>
      <use xlink:href="#DejaVuSans-65" x="1503.03125"/>
      <use xlink:href="#DejaVuSans-20" x="1564.554688"/>
      <use xlink:href="#DejaVuSans-6f" x="1596.341797"/>
      <use xlink:href="#DejaVuSans-66" x="1657.523438"/>
      <use xlink:href="#DejaVuSans-20" x="1692.728516"/>
      <use xlink:href="#DejaVuSans-66" x="1724.515625"/>
      <use xlink:href="#DejaVuSans-69" x="1759.720703"/>
      <use xlink:href="#DejaVuSans-72" x="1787.503906"/>
      <use xlink:href="#DejaVuSans-73" x="1828.617188"/>
      <use xlink:href="#DejaVuSans-74" x="1880.716797"/>
      <use xlink:href="#DejaVuSans-20" x="1919.925781"/>
      <use xlink:href="#DejaVuSans-74" x="1951.712891"/>
      <use xlink:href="#DejaVuSans-61" x="1990.921875"/>
      <use xlink:href="#DejaVuSans-73" x="2052.201172"/>
      <use xlink:href="#DejaVuSans-6b" x="2104.300781"/>
      <use xlink:href="#DejaVuSans-29" x="2162.210938"/>
     </g>
    </g>
   </g>
   <g id="matplotlib.axis_2">
    <g id="ytick_1">
     <g id="line2d_6">
      <defs>
       <path id="meaadc3f5c1" d="M 0 0 
L -3.5 0 
" style="stroke: #000000; stroke-width: 0.8"/>
      </defs>
      <g>
       <use xlink:href="#meaadc3f5c1" x="126.63125" y="346.395638" style="stroke: #000000; stroke-width: 0.8"/>
      </g>
     </g>
     <g id="text_7">
      <!-- 0 -->
      <g transform="translate(106.90625 353.994075) scale(0.2 -0.2)">
       <use xlink:href="#DejaVuSans-30"/>
      </g>
     </g>
    </g>
    <g id="ytick_2">
     <g id="line2d_7">
      <g>
       <use xlink:href="#meaadc3f5c1" x="126.63125" y="303.23707" style="stroke: #000000; stroke-width: 0.8"/>
      </g>
     </g>
     <g id="text_8">
      <!-- 200000 -->
      <g transform="translate(43.28125 310.835508) scale(0.2 -0.2)">
       <use xlink:href="#DejaVuSans-32"/>
       <use xlink:href="#DejaVuSans-30" x="63.623047"/>
       <use xlink:href="#DejaVuSans-30" x="127.246094"/>
       <use xlink:href="#DejaVuSans-30" x="190.869141"/>
       <use xlink:href="#DejaVuSans-30" x="254.492188"/>
       <use xlink:href="#DejaVuSans-30" x="318.115234"/>
      </g>
     </g>
    </g>
    <g id="ytick_3">
     <g id="line2d_8">
      <g>
       <use xlink:href="#meaadc3f5c1" x="126.63125" y="260.078502" style="stroke: #000000; stroke-width: 0.8"/>
      </g>
     </g>
     <g id="text_9">
      <!-- 400000 -->
      <g transform="translate(43.28125 267.67694) scale(0.2 -0.2)">
       <use xlink:href="#DejaVuSans-34"/>
       <use xlink:href="#DejaVuSans-30" x="63.623047"/>
       <use xlink:href="#DejaVuSans-30" x="127.246094"/>
       <use xlink:href="#DejaVuSans-30" x="190.869141"/>
       <use xlink:href="#DejaVuSans-30" x="254.492188"/>
       <use xlink:href="#DejaVuSans-30" x="318.115234"/>
      </g>
     </g>
    </g>
    <g id="ytick_4">
     <g id="line2d_9">
      <g>
       <use xlink:href="#meaadc3f5c1" x="126.63125" y="216.919934" style="stroke: #000000; stroke-width: 0.8"/>
      </g>
     </g>
     <g id="text_10">
      <!-- 600000 -->
      <g transform="translate(43.28125 224.518372) scale(0.2 -0.2)">
       <use xlink:href="#DejaVuSans-36"/>
       <use xlink:href="#DejaVuSans-30" x="63.623047"/>
       <use xlink:href="#DejaVuSans-30" x="127.246094"/>
       <use xlink:href="#DejaVuSans-30" x="190.869141"/>
       <use xlink:href="#DejaVuSans-30" x="254.492188"/>
       <use xlink:href="#DejaVuSans-30" x="318.115234"/>
      </g>
     </g>
    </g>
    <g id="ytick_5">
     <g id="line2d_10">
      <g>
       <use xlink:href="#meaadc3f5c1" x="126.63125" y="173.761367" style="stroke: #000000; stroke-width: 0.8"/>
      </g>
     </g>
     <g id="text_11">
      <!-- 800000 -->
      <g transform="translate(43.28125 181.359804) scale(0.2 -0.2)">
       <use xlink:href="#DejaVuSans-38"/>
       <use xlink:href="#DejaVuSans-30" x="63.623047"/>
       <use xlink:href="#DejaVuSans-30" x="127.246094"/>
       <use xlink:href="#DejaVuSans-30" x="190.869141"/>
       <use xlink:href="#DejaVuSans-30" x="254.492188"/>
       <use xlink:href="#DejaVuSans-30" x="318.115234"/>
      </g>
     </g>
    </g>
    <g id="ytick_6">
     <g id="line2d_11">
      <g>
       <use xlink:href="#meaadc3f5c1" x="126.63125" y="130.602799" style="stroke: #000000; stroke-width: 0.8"/>
      </g>
     </g>
     <g id="text_12">
      <!-- 1000000 -->
      <g transform="translate(30.55625 138.201236) scale(0.2 -0.2)">
       <defs>
        <path id="DejaVuSans-31" d="M 794 531 
L 1825 531 
L 1825 4091 
L 703 3866 
L 703 4441 
L 1819 4666 
L 2450 4666 
L 2450 531 
L 3481 531 
L 3481 0 
L 794 0 
L 794 531 
z
" transform="scale(0.015625)"/>
       </defs>
       <use xlink:href="#DejaVuSans-31"/>
       <use xlink:href="#DejaVuSans-30" x="63.623047"/>
       <use xlink:href="#DejaVuSans-30" x="127.246094"/>
       <use xlink:href="#DejaVuSans-30" x="190.869141"/>
       <use xlink:href="#DejaVuSans-30" x="254.492188"/>
       <use xlink:href="#DejaVuSans-30" x="318.115234"/>
       <use xlink:href="#DejaVuSans-30" x="381.738281"/>
      </g>
     </g>
    </g>
    <g id="ytick_7">
     <g id="line2d_12">
      <g>
       <use xlink:href="#meaadc3f5c1" x="126.63125" y="87.444231" style="stroke: #000000; stroke-width: 0.8"/>
      </g>
     </g>
     <g id="text_13">
      <!-- 1200000 -->
      <g transform="translate(30.55625 95.042669) scale(0.2 -0.2)">
       <use xlink:href="#DejaVuSans-31"/>
       <use xlink:href="#DejaVuSans-32" x="63.623047"/>
       <use xlink:href="#DejaVuSans-30" x="127.246094"/>
       <use xlink:href="#DejaVuSans-30" x="190.869141"/>
       <use xlink:href="#DejaVuSans-30" x="254.492188"/>
       <use xlink:href="#DejaVuSans-30" x="318.115234"/>
       <use xlink:href="#DejaVuSans-30" x="381.738281"/>
      </g>
     </g>
    </g>
    <g id="ytick_8">
     <g id="line2d_13">
      <g>
       <use xlink:href="#meaadc3f5c1" x="126.63125" y="44.285663" style="stroke: #000000; stroke-width: 0.8"/>
      </g>
     </g>
     <g id="text_14">
      <!-- 1400000 -->
      <g transform="translate(30.55625 51.884101) scale(0.2 -0.2)">
       <use xlink:href="#DejaVuSans-31"/>
       <use xlink:href="#DejaVuSans-34" x="63.623047"/>
       <use xlink:href="#DejaVuSans-30" x="127.246094"/>
       <use xlink:href="#DejaVuSans-30" x="190.869141"/>
       <use xlink:href="#DejaVuSans-30" x="254.492188"/>
       <use xlink:href="#DejaVuSans-30" x="318.115234"/>
       <use xlink:href="#DejaVuSans-30" x="381.738281"/>
      </g>
     </g>
    </g>
    <g id="text_15">
     <!-- Cycles -->
     <g transform="translate(22.396875 221.17875) rotate(-90) scale(0.2 -0.2)">
      <defs>
       <path id="DejaVuSans-43" d="M 4122 4306 
L 4122 3641 
Q 3803 3938 3442 4084 
Q 3081 4231 2675 4231 
Q 1875 4231 1450 3742 
Q 1025 3253 1025 2328 
Q 1025 1406 1450 917 
Q 1875 428 2675 428 
Q 3081 428 3442 575 
Q 3803 722 4122 1019 
L 4122 359 
Q 3791 134 3420 21 
Q 3050 -91 2638 -91 
Q 1578 -91 968 557 
Q 359 1206 359 2328 
Q 359 3453 968 4101 
Q 1578 4750 2638 4750 
Q 3056 4750 3426 4639 
Q 3797 4528 4122 4306 
z
" transform="scale(0.015625)"/>
       <path id="DejaVuSans-63" d="M 3122 3366 
L 3122 2828 
Q 2878 2963 2633 3030 
Q 2388 3097 2138 3097 
Q 1578 3097 1268 2742 
Q 959 2388 959 1747 
Q 959 1106 1268 751 
Q 1578 397 2138 397 
Q 2388 397 2633 464 
Q 2878 531 3122 666 
L 3122 134 
Q 2881 22 2623 -34 
Q 2366 -91 2075 -91 
Q 1284 -91 818 406 
Q 353 903 353 1747 
Q 353 2603 823 3093 
Q 1294 3584 2113 3584 
Q 2378 3584 2631 3529 
Q 2884 3475 3122 3366 
z
" transform="scale(0.015625)"/>
       <path id="DejaVuSans-6c" d="M 603 4863 
L 1178 4863 
L 1178 0 
L 603 0 
L 603 4863 
z
" transform="scale(0.015625)"/>
      </defs>
      <use xlink:href="#DejaVuSans-43"/>
      <use xlink:href="#DejaVuSans-79" x="69.824219"/>
      <use xlink:href="#DejaVuSans-63" x="129.003906"/>
      <use xlink:href="#DejaVuSans-6c" x="183.984375"/>
      <use xlink:href="#DejaVuSans-65" x="211.767578"/>
      <use xlink:href="#DejaVuSans-73" x="273.291016"/>
     </g>
    </g>
   </g>
   <g id="line2d_14">
    <path d="M 172.285795 337.780756 
L 181.897279 335.716482 
L 191.508762 335.393224 
L 201.120245 332.338892 
L 210.731728 330.7895 
L 220.343212 329.802032 
L 229.954695 329.198675 
L 239.566178 328.20948 
L 249.177661 326.767984 
L 258.789145 325.990267 
L 268.400628 325.975593 
L 278.012111 325.148243 
L 287.623594 325.092137 
L 297.235078 324.886702 
L 306.846561 323.322204 
L 316.458044 322.418032 
L 326.069528 322.138796 
L 335.681011 322.110312 
L 345.292494 322.100817 
L 354.903977 321.777991 
L 364.515461 321.656715 
L 374.126944 321.503071 
L 383.738427 321.270014 
L 393.34991 321.257067 
L 402.961394 321.044295 
L 412.572877 320.924314 
L 422.18436 319.591578 
L 431.795843 319.575609 
L 441.407327 319.45347 
L 451.01881 319.267457 
L 460.630293 319.180708 
L 470.241776 318.502687 
L 479.85326 318.279557 
L 489.464743 317.778918 
L 499.076226 317.671885 
L 508.687709 317.529893 
L 518.299193 317.47465 
L 527.910676 317.34949 
L 537.522159 316.698659 
L 547.133642 316.679669 
L 556.745126 316.661543 
L 566.356609 316.400865 
L 575.968092 315.898931 
L 585.579575 315.422028 
L 595.191059 315.186814 
L 604.802542 315.00598 
L 614.414025 314.705596 
L 624.025508 314.698691 
L 633.636992 314.476424 
L 643.248475 314.292137 
L 652.859958 314.169135 
L 662.471441 313.77035 
L 672.082925 312.812661 
L 681.694408 312.759145 
L 691.305891 311.910216 
L 700.917374 311.550273 
L 710.528858 311.15192 
L 720.140341 310.717745 
L 729.751824 310.110072 
L 739.363307 310.084608 
L 748.974791 308.80323 
L 758.586274 308.021629 
L 768.197757 307.97027 
L 777.80924 305.463621 
L 787.420724 304.176632 
L 797.032207 176.527399 
L 806.64369 175.917569 
L 816.255173 173.392361 
L 825.866657 172.802383 
L 835.47814 172.128246 
L 845.089623 170.201216 
L 854.701106 168.056236 
L 864.31259 167.536606 
L 873.924073 165.398099 
L 883.535556 165.088652 
L 893.147039 164.752447 
L 902.758523 164.106795 
L 912.370006 161.962246 
L 921.981489 160.045574 
L 931.592972 159.674842 
L 941.204456 157.597188 
L 950.815939 155.292089 
L 960.427422 153.329669 
L 970.038906 146.254685 
L 979.650389 113.018704 
L 989.261872 108.780101 
L 998.873355 100.539404 
L 1008.484839 86.577607 
L 1018.096322 85.441674 
L 1027.707805 85.189628 
L 1037.319288 84.051105 
L 1046.930772 82.965667 
L 1056.542255 82.821949 
L 1066.153738 75.436654 
L 1075.765221 64.648739 
L 1085.376705 37.438125 
" clip-path="url(#pd7bac74056)" style="fill: none; stroke: #000000; stroke-width: 1.5; stroke-linecap: square"/>
   </g>
   <g id="line2d_15">
    <path d="M 172.285795 338.279669 
L 181.897279 337.641785 
L 191.508762 337.161431 
L 201.120245 336.733729 
L 210.731728 336.599938 
L 220.343212 336.598211 
L 229.954695 336.5188 
L 239.566178 334.085951 
L 249.177661 333.952591 
L 258.789145 331.104989 
L 268.400628 329.692409 
L 278.012111 329.550849 
L 287.623594 329.237949 
L 297.235078 328.449011 
L 306.846561 327.815443 
L 316.458044 327.682083 
L 326.069528 327.096421 
L 335.681011 325.076168 
L 345.292494 324.137901 
L 354.903977 323.657978 
L 364.515461 321.476312 
L 374.126944 321.43747 
L 383.738427 321.352016 
L 393.34991 320.746501 
L 402.961394 319.642505 
L 412.572877 318.767249 
L 422.18436 317.084928 
L 431.795843 317.046517 
L 441.407327 316.678806 
L 451.01881 316.012869 
L 460.630293 315.547188 
L 470.241776 315.357291 
L 479.85326 315.334417 
L 489.464743 315.126392 
L 499.076226 313.012486 
L 508.687709 312.562342 
L 518.299193 312.302959 
L 527.910676 311.464819 
L 537.522159 311.289596 
L 547.133642 310.647396 
L 556.745126 308.797188 
L 566.356609 308.536942 
L 575.968092 307.811447 
L 585.579575 307.355261 
L 595.191059 307.181332 
L 604.802542 306.978918 
L 614.414025 305.702287 
L 624.025508 305.473979 
L 633.636992 305.263796 
L 643.248475 304.75841 
L 652.859958 304.296181 
L 662.471441 303.932786 
L 672.082925 302.963013 
L 681.694408 302.926328 
L 691.305891 302.857275 
L 700.917374 302.378215 
L 710.528858 301.468 
L 720.140341 301.061878 
L 729.751824 300.907802 
L 739.363307 300.14519 
L 748.974791 300.13699 
L 758.586274 299.97083 
L 768.197757 299.479254 
L 777.80924 299.377831 
L 787.420724 299.133122 
L 797.032207 298.95574 
L 806.64369 298.349362 
L 816.255173 298.168959 
L 825.866657 297.99503 
L 835.47814 297.822828 
L 845.089623 297.744279 
L 854.701106 297.720973 
L 864.31259 297.484896 
L 873.924073 297.250545 
L 883.535556 297.24925 
L 893.147039 296.444775 
L 902.758523 295.769343 
L 912.370006 295.009752 
L 921.981489 294.531555 
L 931.592972 293.742617 
L 941.204456 293.256651 
L 950.815939 293.027911 
L 960.427422 292.214372 
L 970.038906 291.340842 
L 979.650389 291.304589 
L 989.261872 287.119503 
L 998.873355 284.176089 
L 1008.484839 282.899027 
L 1018.096322 281.741082 
L 1027.707805 281.514931 
L 1037.319288 272.403294 
L 1046.930772 253.257722 
L 1056.542255 197.748899 
L 1066.153738 197.742856 
L 1075.765221 186.933362 
L 1085.376705 174.273227 
" clip-path="url(#pd7bac74056)" style="fill: none; stroke-dasharray: 5.55,2.4; stroke-dashoffset: 0; stroke: #0000ff; stroke-width: 1.5"/>
   </g>
   <g id="line2d_16">
    <path d="M 172.285795 339.005165 
L 181.897279 338.865762 
L 191.508762 338.324122 
L 201.120245 337.511015 
L 210.731728 336.414787 
L 220.343212 335.780788 
L 229.954695 335.255117 
L 239.566178 335.109672 
L 249.177661 333.841674 
L 258.789145 330.890491 
L 268.400628 330.131763 
L 278.012111 328.08691 
L 287.623594 323.730484 
L 297.235078 323.475417 
L 306.846561 322.948451 
L 316.458044 322.50996 
L 326.069528 321.724906 
L 335.681011 321.442649 
L 345.292494 321.409848 
L 354.903977 321.225993 
L 364.515461 320.7055 
L 374.126944 320.232051 
L 383.738427 319.923467 
L 393.34991 319.904477 
L 402.961394 319.855277 
L 412.572877 319.464691 
L 422.18436 318.537214 
L 431.795843 318.302431 
L 441.407327 317.91012 
L 451.01881 317.78496 
L 460.630293 317.266626 
L 470.241776 317.192824 
L 479.85326 316.765555 
L 489.464743 316.641258 
L 499.076226 316.164787 
L 508.687709 316.11645 
L 518.299193 315.989132 
L 527.910676 315.597684 
L 537.522159 315.516546 
L 547.133642 315.026264 
L 556.745126 314.89722 
L 566.356609 314.770334 
L 575.968092 314.662438 
L 585.579575 314.209273 
L 595.191059 313.637853 
L 604.802542 313.289564 
L 614.414025 311.14933 
L 624.025508 310.020302 
L 633.636992 306.25817 
L 643.248475 304.8266 
L 652.859958 303.736415 
L 662.471441 301.229333 
L 672.082925 299.511191 
L 681.694408 298.162486 
L 691.305891 296.055916 
L 700.917374 293.647236 
L 710.528858 289.166945 
L 720.140341 285.080692 
L 729.751824 283.251632 
L 739.363307 282.950817 
L 748.974791 279.23659 
L 758.586274 277.061399 
L 768.197757 276.892217 
L 777.80924 273.908234 
L 787.420724 273.782642 
L 797.032207 271.551776 
L 806.64369 269.433985 
L 816.255173 269.403342 
L 825.866657 267.951057 
L 835.47814 266.873819 
L 845.089623 265.474186 
L 854.701106 265.45606 
L 864.31259 264.260136 
L 873.924073 262.975305 
L 883.535556 260.096629 
L 893.147039 257.652128 
L 902.758523 257.126456 
L 912.370006 253.902511 
L 921.981489 243.017057 
L 931.592972 230.976248 
L 941.204456 229.353486 
L 950.815939 214.323947 
L 960.427422 213.007179 
L 970.038906 206.675817 
L 979.650389 198.624586 
L 989.261872 197.404493 
L 998.873355 197.198195 
L 1008.484839 197.187406 
L 1018.096322 196.488668 
L 1027.707805 196.152032 
L 1037.319288 193.773563 
L 1046.930772 193.47879 
L 1056.542255 192.737326 
L 1066.153738 187.183681 
L 1075.765221 151.827751 
L 1085.376705 126.130277 
" clip-path="url(#pd7bac74056)" style="fill: none; stroke-dasharray: 5.55,2.4; stroke-dashoffset: 0; stroke: #008000; stroke-width: 1.5"/>
   </g>
   <g id="line2d_17">
    <path d="M 172.285795 339.838125 
L 181.897279 339.397908 
L 191.508762 339.136798 
L 201.120245 338.98747 
L 210.731728 338.747508 
L 220.343212 338.291322 
L 229.954695 338.229174 
L 239.566178 337.465267 
L 249.177661 331.600881 
L 258.789145 327.982466 
L 268.400628 327.313509 
L 278.012111 326.836175 
L 287.623594 325.915171 
L 297.235078 325.489628 
L 306.846561 324.194871 
L 316.458044 324.084816 
L 326.069528 324.082658 
L 335.681011 323.262214 
L 345.292494 323.243656 
L 354.903977 323.106411 
L 364.515461 323.0352 
L 374.126944 322.937661 
L 383.738427 322.248851 
L 393.34991 321.810791 
L 402.961394 321.484081 
L 412.572877 321.427975 
L 422.18436 321.392153 
L 431.795843 321.345973 
L 441.407327 321.254477 
L 451.01881 320.824618 
L 460.630293 320.604941 
L 470.241776 320.562214 
L 479.85326 320.364979 
L 489.464743 320.363684 
L 499.076226 319.894551 
L 508.687709 319.183729 
L 518.299193 319.144455 
L 527.910676 319.141865 
L 537.522159 318.979158 
L 547.133642 318.945062 
L 556.745126 318.861335 
L 566.356609 318.500529 
L 575.968092 318.339548 
L 585.579575 318.114691 
L 595.191059 317.623547 
L 604.802542 317.532482 
L 614.414025 317.228215 
L 624.025508 316.993 
L 633.636992 316.791881 
L 643.248475 316.222188 
L 652.859958 315.894615 
L 662.471441 315.693927 
L 672.082925 315.124666 
L 681.694408 313.608074 
L 691.305891 310.413045 
L 700.917374 306.117904 
L 710.528858 302.341098 
L 720.140341 298.185791 
L 729.751824 292.260983 
L 739.363307 284.246869 
L 748.974791 272.483138 
L 758.586274 267.393016 
L 768.197757 257.286143 
L 777.80924 255.971965 
L 787.420724 255.279701 
L 797.032207 253.24089 
L 806.64369 250.052335 
L 816.255173 249.187869 
L 825.866657 243.580277 
L 835.47814 242.017505 
L 845.089623 233.798819 
L 854.701106 227.434656 
L 864.31259 220.435631 
L 873.924073 220.419231 
L 883.535556 218.194839 
L 893.147039 216.063668 
L 902.758523 215.994183 
L 912.370006 206.920526 
L 921.981489 202.725513 
L 931.592972 201.874858 
L 941.204456 200.882211 
L 950.815939 199.89949 
L 960.427422 187.889755 
L 970.038906 186.639883 
L 979.650389 177.82863 
L 989.261872 174.905069 
L 998.873355 172.967681 
L 1008.484839 172.495526 
L 1018.096322 168.592265 
L 1027.707805 168.353598 
L 1037.319288 164.853007 
L 1046.930772 147.303438 
L 1056.542255 140.148611 
L 1066.153738 134.057211 
L 1075.765221 116.60777 
L 1085.376705 114.205133 
" clip-path="url(#pd7bac74056)" style="fill: none; stroke-dasharray: 5.55,2.4; stroke-dashoffset: 0; stroke: #ff0000; stroke-width: 1.5"/>
   </g>
   <g id="patch_3">
    <path d="M 126.63125 354.958125 
L 126.63125 22.318125 
" style="fill: none; stroke: #000000; stroke-width: 0.8; stroke-linejoin: miter; stroke-linecap: square"/>
   </g>
   <g id="patch_4">
    <path d="M 1131.03125 354.958125 
L 1131.03125 22.318125 
" style="fill: none; stroke: #000000; stroke-width: 0.8; stroke-linejoin: miter; stroke-linecap: square"/>
   </g>
   <g id="patch_5">
    <path d="M 126.63125 354.958125 
L 1131.03125 354.958125 
" style="fill: none; stroke: #000000; stroke-width: 0.8; stroke-linejoin: miter; stroke-linecap: square"/>
   </g>
   <g id="patch_6">
    <path d="M 126.63125 22.318125 
L 1131.03125 22.318125 
" style="fill: none; stroke: #000000; stroke-width: 0.8; stroke-linejoin: miter; stroke-linecap: square"/>
   </g>
   <g id="text_16">
    <!-- Scheduling time, TBB -->
    <g transform="translate(564.498125 16.318125) scale(0.12 -0.12)">
     <defs>
      <path id="DejaVuSans-53" d="M 3425 4513 
L 3425 3897 
Q 3066 4069 2747 4153 
Q 2428 4238 2131 4238 
Q 1616 4238 1336 4038 
Q 1056 3838 1056 3469 
Q 1056 3159 1242 3001 
Q 1428 2844 1947 2747 
L 2328 2669 
Q 3034 2534 3370 2195 
Q 3706 1856 3706 1288 
Q 3706 609 3251 259 
Q 2797 -91 1919 -91 
Q 1588 -91 1214 -16 
Q 841 59 441 206 
L 441 856 
Q 825 641 1194 531 
Q 1563 422 1919 422 
Q 2459 422 2753 634 
Q 3047 847 3047 1241 
Q 3047 1584 2836 1778 
Q 2625 1972 2144 2069 
L 1759 2144 
Q 1053 2284 737 2584 
Q 422 2884 422 3419 
Q 422 4038 858 4394 
Q 1294 4750 2059 4750 
Q 2388 4750 2728 4690 
Q 3069 4631 3425 4513 
z
" transform="scale(0.015625)"/>
      <path id="DejaVuSans-75" d="M 544 1381 
L 544 3500 
L 1119 3500 
L 1119 1403 
Q 1119 906 1312 657 
Q 1506 409 1894 409 
Q 2359 409 2629 706 
Q 2900 1003 2900 1516 
L 2900 3500 
L 3475 3500 
L 3475 0 
L 2900 0 
L 2900 538 
Q 2691 219 2414 64 
Q 2138 -91 1772 -91 
Q 1169 -91 856 284 
Q 544 659 544 1381 
z
M 1991 3584 
L 1991 3584 
z
" transform="scale(0.015625)"/>
      <path id="DejaVuSans-67" d="M 2906 1791 
Q 2906 2416 2648 2759 
Q 2391 3103 1925 3103 
Q 1463 3103 1205 2759 
Q 947 2416 947 1791 
Q 947 1169 1205 825 
Q 1463 481 1925 481 
Q 2391 481 2648 825 
Q 2906 1169 2906 1791 
z
M 3481 434 
Q 3481 -459 3084 -895 
Q 2688 -1331 1869 -1331 
Q 1566 -1331 1297 -1286 
Q 1028 -1241 775 -1147 
L 775 -588 
Q 1028 -725 1275 -790 
Q 1522 -856 1778 -856 
Q 2344 -856 2625 -561 
Q 2906 -266 2906 331 
L 2906 616 
Q 2728 306 2450 153 
Q 2172 0 1784 0 
Q 1141 0 747 490 
Q 353 981 353 1791 
Q 353 2603 747 3093 
Q 1141 3584 1784 3584 
Q 2172 3584 2450 3431 
Q 2728 3278 2906 2969 
L 2906 3500 
L 3481 3500 
L 3481 434 
z
" transform="scale(0.015625)"/>
      <path id="DejaVuSans-2c" d="M 750 794 
L 1409 794 
L 1409 256 
L 897 -744 
L 494 -744 
L 750 256 
L 750 794 
z
" transform="scale(0.015625)"/>
      <path id="DejaVuSans-54" d="M -19 4666 
L 3928 4666 
L 3928 4134 
L 2272 4134 
L 2272 0 
L 1638 0 
L 1638 4134 
L -19 4134 
L -19 4666 
z
" transform="scale(0.015625)"/>
      <path id="DejaVuSans-42" d="M 1259 2228 
L 1259 519 
L 2272 519 
Q 2781 519 3026 730 
Q 3272 941 3272 1375 
Q 3272 1813 3026 2020 
Q 2781 2228 2272 2228 
L 1259 2228 
z
M 1259 4147 
L 1259 2741 
L 2194 2741 
Q 2656 2741 2882 2914 
Q 3109 3088 3109 3444 
Q 3109 3797 2882 3972 
Q 2656 4147 2194 4147 
L 1259 4147 
z
M 628 4666 
L 2241 4666 
Q 2963 4666 3353 4366 
Q 3744 4066 3744 3513 
Q 3744 3084 3544 2831 
Q 3344 2578 2956 2516 
Q 3422 2416 3680 2098 
Q 3938 1781 3938 1306 
Q 3938 681 3513 340 
Q 3088 0 2303 0 
L 628 0 
L 628 4666 
z
" transform="scale(0.015625)"/>
     </defs>
     <use xlink:href="#DejaVuSans-53"/>
     <use xlink:href="#DejaVuSans-63" x="63.476562"/>
     <use xlink:href="#DejaVuSans-68" x="118.457031"/>
     <use xlink:href="#DejaVuSans-65" x="181.835938"/>
     <use xlink:href="#DejaVuSans-64" x="243.359375"/>
     <use xlink:href="#DejaVuSans-75" x="306.835938"/>
     <use xlink:href="#DejaVuSans-6c" x="370.214844"/>
     <use xlink:href="#DejaVuSans-69" x="397.998047"/>
     <use xlink:href="#DejaVuSans-6e" x="425.78125"/>
     <use xlink:href="#DejaVuSans-67" x="489.160156"/>
     <use xlink:href="#DejaVuSans-20" x="552.636719"/>
     <use xlink:href="#DejaVuSans-74" x="584.423828"/>
     <use xlink:href="#DejaVuSans-69" x="623.632812"/>
     <use xlink:href="#DejaVuSans-6d" x="651.416016"/>
     <use xlink:href="#DejaVuSans-65" x="748.828125"/>
     <use xlink:href="#DejaVuSans-2c" x="810.351562"/>
     <use xlink:href="#DejaVuSans-20" x="842.138672"/>
     <use xlink:href="#DejaVuSans-54" x="873.925781"/>
     <use xlink:href="#DejaVuSans-42" x="935.009766"/>
     <use xlink:href="#DejaVuSans-42" x="1003.613281"/>
    </g>
   </g>
   <g id="legend_1">
    <g id="patch_7">
     <path d="M 136.43125 117.273125 
L 333.21875 117.273125 
Q 336.01875 117.273125 336.01875 114.473125 
L 336.01875 32.118125 
Q 336.01875 29.318125 333.21875 29.318125 
L 136.43125 29.318125 
Q 133.63125 29.318125 133.63125 32.118125 
L 133.63125 114.473125 
Q 133.63125 117.273125 136.43125 117.273125 
z
" style="fill: #ffffff; opacity: 0.8; stroke: #cccccc; stroke-linejoin: miter"/>
    </g>
    <g id="line2d_18">
     <path d="M 139.23125 40.655938 
L 153.23125 40.655938 
L 167.23125 40.655938 
" style="fill: none; stroke: #000000; stroke-width: 1.5; stroke-linecap: square"/>
    </g>
    <g id="text_17">
     <!-- TBB_AFFINITY -->
     <g transform="translate(178.43125 45.555938) scale(0.14 -0.14)">
      <defs>
       <path id="DejaVuSans-5f" d="M 3263 -1063 
L 3263 -1509 
L -63 -1509 
L -63 -1063 
L 3263 -1063 
z
" transform="scale(0.015625)"/>
       <path id="DejaVuSans-41" d="M 2188 4044 
L 1331 1722 
L 3047 1722 
L 2188 4044 
z
M 1831 4666 
L 2547 4666 
L 4325 0 
L 3669 0 
L 3244 1197 
L 1141 1197 
L 716 0 
L 50 0 
L 1831 4666 
z
" transform="scale(0.015625)"/>
       <path id="DejaVuSans-46" d="M 628 4666 
L 3309 4666 
L 3309 4134 
L 1259 4134 
L 1259 2759 
L 3109 2759 
L 3109 2228 
L 1259 2228 
L 1259 0 
L 628 0 
L 628 4666 
z
" transform="scale(0.015625)"/>
       <path id="DejaVuSans-4e" d="M 628 4666 
L 1478 4666 
L 3547 763 
L 3547 4666 
L 4159 4666 
L 4159 0 
L 3309 0 
L 1241 3903 
L 1241 0 
L 628 0 
L 628 4666 
z
" transform="scale(0.015625)"/>
       <path id="DejaVuSans-59" d="M -13 4666 
L 666 4666 
L 1959 2747 
L 3244 4666 
L 3922 4666 
L 2272 2222 
L 2272 0 
L 1638 0 
L 1638 2222 
L -13 4666 
z
" transform="scale(0.015625)"/>
      </defs>
      <use xlink:href="#DejaVuSans-54"/>
      <use xlink:href="#DejaVuSans-42" x="61.083984"/>
      <use xlink:href="#DejaVuSans-42" x="129.6875"/>
      <use xlink:href="#DejaVuSans-5f" x="198.291016"/>
      <use xlink:href="#DejaVuSans-41" x="248.291016"/>
      <use xlink:href="#DejaVuSans-46" x="316.699219"/>
      <use xlink:href="#DejaVuSans-46" x="374.21875"/>
      <use xlink:href="#DejaVuSans-49" x="431.738281"/>
      <use xlink:href="#DejaVuSans-4e" x="461.230469"/>
      <use xlink:href="#DejaVuSans-49" x="536.035156"/>
      <use xlink:href="#DejaVuSans-54" x="565.527344"/>
      <use xlink:href="#DejaVuSans-59" x="626.611328"/>
     </g>
    </g>
    <g id="line2d_19">
     <path d="M 139.23125 61.594688 
L 153.23125 61.594688 
L 167.23125 61.594688 
" style="fill: none; stroke-dasharray: 5.55,2.4; stroke-dashoffset: 0; stroke: #0000ff; stroke-width: 1.5"/>
    </g>
    <g id="text_18">
     <!-- TBB_CONST_AFFINITY -->
     <g transform="translate(178.43125 66.494688) scale(0.14 -0.14)">
      <defs>
       <path id="DejaVuSans-4f" d="M 2522 4238 
Q 1834 4238 1429 3725 
Q 1025 3213 1025 2328 
Q 1025 1447 1429 934 
Q 1834 422 2522 422 
Q 3209 422 3611 934 
Q 4013 1447 4013 2328 
Q 4013 3213 3611 3725 
Q 3209 4238 2522 4238 
z
M 2522 4750 
Q 3503 4750 4090 4092 
Q 4678 3434 4678 2328 
Q 4678 1225 4090 567 
Q 3503 -91 2522 -91 
Q 1538 -91 948 565 
Q 359 1222 359 2328 
Q 359 3434 948 4092 
Q 1538 4750 2522 4750 
z
" transform="scale(0.015625)"/>
      </defs>
      <use xlink:href="#DejaVuSans-54"/>
      <use xlink:href="#DejaVuSans-42" x="61.083984"/>
      <use xlink:href="#DejaVuSans-42" x="129.6875"/>
      <use xlink:href="#DejaVuSans-5f" x="198.291016"/>
      <use xlink:href="#DejaVuSans-43" x="248.291016"/>
      <use xlink:href="#DejaVuSans-4f" x="318.115234"/>
      <use xlink:href="#DejaVuSans-4e" x="396.826172"/>
      <use xlink:href="#DejaVuSans-53" x="471.630859"/>
      <use xlink:href="#DejaVuSans-54" x="535.107422"/>
      <use xlink:href="#DejaVuSans-5f" x="596.191406"/>
      <use xlink:href="#DejaVuSans-41" x="646.191406"/>
      <use xlink:href="#DejaVuSans-46" x="714.599609"/>
      <use xlink:href="#DejaVuSans-46" x="772.119141"/>
      <use xlink:href="#DejaVuSans-49" x="829.638672"/>
      <use xlink:href="#DejaVuSans-4e" x="859.130859"/>
      <use xlink:href="#DejaVuSans-49" x="933.935547"/>
      <use xlink:href="#DejaVuSans-54" x="963.427734"/>
      <use xlink:href="#DejaVuSans-59" x="1024.511719"/>
     </g>
    </g>
    <g id="line2d_20">
     <path d="M 139.23125 82.533438 
L 153.23125 82.533438 
L 167.23125 82.533438 
" style="fill: none; stroke-dasharray: 5.55,2.4; stroke-dashoffset: 0; stroke: #008000; stroke-width: 1.5"/>
    </g>
    <g id="text_19">
     <!-- TBB_SIMPLE -->
     <g transform="translate(178.43125 87.433438) scale(0.14 -0.14)">
      <defs>
       <path id="DejaVuSans-4d" d="M 628 4666 
L 1569 4666 
L 2759 1491 
L 3956 4666 
L 4897 4666 
L 4897 0 
L 4281 0 
L 4281 4097 
L 3078 897 
L 2444 897 
L 1241 4097 
L 1241 0 
L 628 0 
L 628 4666 
z
" transform="scale(0.015625)"/>
       <path id="DejaVuSans-50" d="M 1259 4147 
L 1259 2394 
L 2053 2394 
Q 2494 2394 2734 2622 
Q 2975 2850 2975 3272 
Q 2975 3691 2734 3919 
Q 2494 4147 2053 4147 
L 1259 4147 
z
M 628 4666 
L 2053 4666 
Q 2838 4666 3239 4311 
Q 3641 3956 3641 3272 
Q 3641 2581 3239 2228 
Q 2838 1875 2053 1875 
L 1259 1875 
L 1259 0 
L 628 0 
L 628 4666 
z
" transform="scale(0.015625)"/>
       <path id="DejaVuSans-4c" d="M 628 4666 
L 1259 4666 
L 1259 531 
L 3531 531 
L 3531 0 
L 628 0 
L 628 4666 
z
" transform="scale(0.015625)"/>
       <path id="DejaVuSans-45" d="M 628 4666 
L 3578 4666 
L 3578 4134 
L 1259 4134 
L 1259 2753 
L 3481 2753 
L 3481 2222 
L 1259 2222 
L 1259 531 
L 3634 531 
L 3634 0 
L 628 0 
L 628 4666 
z
" transform="scale(0.015625)"/>
      </defs>
      <use xlink:href="#DejaVuSans-54"/>
      <use xlink:href="#DejaVuSans-42" x="61.083984"/>
      <use xlink:href="#DejaVuSans-42" x="129.6875"/>
      <use xlink:href="#DejaVuSans-5f" x="198.291016"/>
      <use xlink:href="#DejaVuSans-53" x="248.291016"/>
      <use xlink:href="#DejaVuSans-49" x="311.767578"/>
      <use xlink:href="#DejaVuSans-4d" x="341.259766"/>
      <use xlink:href="#DejaVuSans-50" x="427.539062"/>
      <use xlink:href="#DejaVuSans-4c" x="487.841797"/>
      <use xlink:href="#DejaVuSans-45" x="543.554688"/>
     </g>
    </g>
    <g id="line2d_21">
     <path d="M 139.23125 103.472187 
L 153.23125 103.472187 
L 167.23125 103.472187 
" style="fill: none; stroke-dasharray: 5.55,2.4; stroke-dashoffset: 0; stroke: #ff0000; stroke-width: 1.5"/>
    </g>
    <g id="text_20">
     <!-- TBB_AUTO -->
     <g transform="translate(178.43125 108.372187) scale(0.14 -0.14)">
      <defs>
       <path id="DejaVuSans-55" d="M 556 4666 
L 1191 4666 
L 1191 1831 
Q 1191 1081 1462 751 
Q 1734 422 2344 422 
Q 2950 422 3222 751 
Q 3494 1081 3494 1831 
L 3494 4666 
L 4128 4666 
L 4128 1753 
Q 4128 841 3676 375 
Q 3225 -91 2344 -91 
Q 1459 -91 1007 375 
Q 556 841 556 1753 
L 556 4666 
z
" transform="scale(0.015625)"/>
      </defs>
      <use xlink:href="#DejaVuSans-54"/>
      <use xlink:href="#DejaVuSans-42" x="61.083984"/>
      <use xlink:href="#DejaVuSans-42" x="129.6875"/>
      <use xlink:href="#DejaVuSans-5f" x="198.291016"/>
      <use xlink:href="#DejaVuSans-41" x="248.291016"/>
      <use xlink:href="#DejaVuSans-55" x="316.699219"/>
      <use xlink:href="#DejaVuSans-54" x="389.892578"/>
      <use xlink:href="#DejaVuSans-4f" x="450.976562"/>
     </g>
    </g>
   </g>
  </g>
 </g>
 <defs>
  <clipPath id="pd7bac74056">
   <rect x="126.63125" y="22.318125" width="1004.4" height="332.64"/>
  </clipPath>
 </defs>
</svg>
