<?xml version="1.0" encoding="utf-8" standalone="no"?>
<!DOCTYPE svg PUBLIC "-//W3C//DTD SVG 1.1//EN"
  "http://www.w3.org/Graphics/SVG/1.1/DTD/svg11.dtd">
<svg xmlns:xlink="http://www.w3.org/1999/xlink" width="1243.703125pt" height="373.39625pt" viewBox="0 0 1243.703125 373.39625" xmlns="http://www.w3.org/2000/svg" version="1.1">
 <metadata>
  <rdf:RDF xmlns:dc="http://purl.org/dc/elements/1.1/" xmlns:cc="http://creativecommons.org/ns#" xmlns:rdf="http://www.w3.org/1999/02/22-rdf-syntax-ns#">
   <cc:Work>
    <dc:type rdf:resource="http://purl.org/dc/dcmitype/StillImage"/>
    <dc:date>2023-04-04T10:41:33.058403</dc:date>
    <dc:format>image/svg+xml</dc:format>
    <dc:creator>
     <cc:Agent>
      <dc:title>Matplotlib v3.6.2, https://matplotlib.org/</dc:title>
     </cc:Agent>
    </dc:creator>
   </cc:Work>
  </rdf:RDF>
 </metadata>
 <defs>
  <style type="text/css">*{stroke-linejoin: round; stroke-linecap: butt}</style>
 </defs>
 <g id="figure_1">
  <g id="patch_1">
   <path d="M 0 373.39625 
L 1243.703125 373.39625 
L 1243.703125 0 
L 0 0 
z
" style="fill: #ffffff"/>
  </g>
  <g id="axes_1">
   <g id="patch_2">
    <path d="M 343.703125 339.84 
L 1236.503125 339.84 
L 1236.503125 7.2 
L 343.703125 7.2 
z
" style="fill: #ffffff"/>
   </g>
   <g id="patch_3">
    <path d="M 343.703125 324.72 
L 758.84788 324.72 
L 758.84788 300.034286 
L 343.703125 300.034286 
z
" clip-path="url(#pbf4ee3d8f8)" style="fill: #1f77b4"/>
   </g>
   <g id="patch_4">
    <path d="M 343.703125 293.862857 
L 789.556191 293.862857 
L 789.556191 269.177143 
L 343.703125 269.177143 
z
" clip-path="url(#pbf4ee3d8f8)" style="fill: #1f77b4"/>
   </g>
   <g id="patch_5">
    <path d="M 343.703125 263.005714 
L 824.035462 263.005714 
L 824.035462 238.32 
L 343.703125 238.32 
z
" clip-path="url(#pbf4ee3d8f8)" style="fill: #1f77b4"/>
   </g>
   <g id="patch_6">
    <path d="M 343.703125 232.148571 
L 915.153939 232.148571 
L 915.153939 207.462857 
L 343.703125 207.462857 
z
" clip-path="url(#pbf4ee3d8f8)" style="fill: #1f77b4"/>
   </g>
   <g id="patch_7">
    <path d="M 343.703125 201.291429 
L 963.808855 201.291429 
L 963.808855 176.605714 
L 343.703125 176.605714 
z
" clip-path="url(#pbf4ee3d8f8)" style="fill: #1f77b4"/>
   </g>
   <g id="patch_8">
    <path d="M 343.703125 170.434286 
L 1000.07102 170.434286 
L 1000.07102 145.748571 
L 343.703125 145.748571 
z
" clip-path="url(#pbf4ee3d8f8)" style="fill: #1f77b4"/>
   </g>
   <g id="patch_9">
    <path d="M 343.703125 139.577143 
L 1004.659477 139.577143 
L 1004.659477 114.891429 
L 343.703125 114.891429 
z
" clip-path="url(#pbf4ee3d8f8)" style="fill: #1f77b4"/>
   </g>
   <g id="patch_10">
    <path d="M 343.703125 108.72 
L 1040.883647 108.72 
L 1040.883647 84.034286 
L 343.703125 84.034286 
z
" clip-path="url(#pbf4ee3d8f8)" style="fill: #1f77b4"/>
   </g>
   <g id="patch_11">
    <path d="M 343.703125 77.862857 
L 1076.138506 77.862857 
L 1076.138506 53.177143 
L 343.703125 53.177143 
z
" clip-path="url(#pbf4ee3d8f8)" style="fill: #1f77b4"/>
   </g>
   <g id="patch_12">
    <path d="M 343.703125 47.005714 
L 1193.988839 47.005714 
L 1193.988839 22.32 
L 343.703125 22.32 
z
" clip-path="url(#pbf4ee3d8f8)" style="fill: #1f77b4"/>
   </g>
   <g id="matplotlib.axis_1">
    <g id="xtick_1">
     <g id="line2d_1">
      <defs>
       <path id="m72a1f52446" d="M 0 0 
L 0 3.5 
" style="stroke: #000000; stroke-width: 0.8"/>
      </defs>
      <g>
       <use xlink:href="#m72a1f52446" x="343.703125" y="339.84" style="stroke: #000000; stroke-width: 0.8"/>
      </g>
     </g>
     <g id="text_1">
      <!-- 0 -->
      <g transform="translate(337.340625 362.036875) scale(0.2 -0.2)">
       <defs>
        <path id="DejaVuSans-30" d="M 2034 4250 
Q 1547 4250 1301 3770 
Q 1056 3291 1056 2328 
Q 1056 1369 1301 889 
Q 1547 409 2034 409 
Q 2525 409 2770 889 
Q 3016 1369 3016 2328 
Q 3016 3291 2770 3770 
Q 2525 4250 2034 4250 
z
M 2034 4750 
Q 2819 4750 3233 4129 
Q 3647 3509 3647 2328 
Q 3647 1150 3233 529 
Q 2819 -91 2034 -91 
Q 1250 -91 836 529 
Q 422 1150 422 2328 
Q 422 3509 836 4129 
Q 1250 4750 2034 4750 
z
" transform="scale(0.015625)"/>
       </defs>
       <use xlink:href="#DejaVuSans-30"/>
      </g>
     </g>
    </g>
    <g id="xtick_2">
     <g id="line2d_2">
      <g>
       <use xlink:href="#m72a1f52446" x="434.185162" y="339.84" style="stroke: #000000; stroke-width: 0.8"/>
      </g>
     </g>
     <g id="text_2">
      <!-- 25 -->
      <g transform="translate(421.460162 362.036875) scale(0.2 -0.2)">
       <defs>
        <path id="DejaVuSans-32" d="M 1228 531 
L 3431 531 
L 3431 0 
L 469 0 
L 469 531 
Q 828 903 1448 1529 
Q 2069 2156 2228 2338 
Q 2531 2678 2651 2914 
Q 2772 3150 2772 3378 
Q 2772 3750 2511 3984 
Q 2250 4219 1831 4219 
Q 1534 4219 1204 4116 
Q 875 4013 500 3803 
L 500 4441 
Q 881 4594 1212 4672 
Q 1544 4750 1819 4750 
Q 2544 4750 2975 4387 
Q 3406 4025 3406 3419 
Q 3406 3131 3298 2873 
Q 3191 2616 2906 2266 
Q 2828 2175 2409 1742 
Q 1991 1309 1228 531 
z
" transform="scale(0.015625)"/>
        <path id="DejaVuSans-35" d="M 691 4666 
L 3169 4666 
L 3169 4134 
L 1269 4134 
L 1269 2991 
Q 1406 3038 1543 3061 
Q 1681 3084 1819 3084 
Q 2600 3084 3056 2656 
Q 3513 2228 3513 1497 
Q 3513 744 3044 326 
Q 2575 -91 1722 -91 
Q 1428 -91 1123 -41 
Q 819 9 494 109 
L 494 744 
Q 775 591 1075 516 
Q 1375 441 1709 441 
Q 2250 441 2565 725 
Q 2881 1009 2881 1497 
Q 2881 1984 2565 2268 
Q 2250 2553 1709 2553 
Q 1456 2553 1204 2497 
Q 953 2441 691 2322 
L 691 4666 
z
" transform="scale(0.015625)"/>
       </defs>
       <use xlink:href="#DejaVuSans-32"/>
       <use xlink:href="#DejaVuSans-35" x="63.623047"/>
      </g>
     </g>
    </g>
    <g id="xtick_3">
     <g id="line2d_3">
      <g>
       <use xlink:href="#m72a1f52446" x="524.667199" y="339.84" style="stroke: #000000; stroke-width: 0.8"/>
      </g>
     </g>
     <g id="text_3">
      <!-- 50 -->
      <g transform="translate(511.942199 362.036875) scale(0.2 -0.2)">
       <use xlink:href="#DejaVuSans-35"/>
       <use xlink:href="#DejaVuSans-30" x="63.623047"/>
      </g>
     </g>
    </g>
    <g id="xtick_4">
     <g id="line2d_4">
      <g>
       <use xlink:href="#m72a1f52446" x="615.149236" y="339.84" style="stroke: #000000; stroke-width: 0.8"/>
      </g>
     </g>
     <g id="text_4">
      <!-- 75 -->
      <g transform="translate(602.424236 362.036875) scale(0.2 -0.2)">
       <defs>
        <path id="DejaVuSans-37" d="M 525 4666 
L 3525 4666 
L 3525 4397 
L 1831 0 
L 1172 0 
L 2766 4134 
L 525 4134 
L 525 4666 
z
" transform="scale(0.015625)"/>
       </defs>
       <use xlink:href="#DejaVuSans-37"/>
       <use xlink:href="#DejaVuSans-35" x="63.623047"/>
      </g>
     </g>
    </g>
    <g id="xtick_5">
     <g id="line2d_5">
      <g>
       <use xlink:href="#m72a1f52446" x="705.631272" y="339.84" style="stroke: #000000; stroke-width: 0.8"/>
      </g>
     </g>
     <g id="text_5">
      <!-- 100 -->
      <g transform="translate(686.543772 362.036875) scale(0.2 -0.2)">
       <defs>
        <path id="DejaVuSans-31" d="M 794 531 
L 1825 531 
L 1825 4091 
L 703 3866 
L 703 4441 
L 1819 4666 
L 2450 4666 
L 2450 531 
L 3481 531 
L 3481 0 
L 794 0 
L 794 531 
z
" transform="scale(0.015625)"/>
       </defs>
       <use xlink:href="#DejaVuSans-31"/>
       <use xlink:href="#DejaVuSans-30" x="63.623047"/>
       <use xlink:href="#DejaVuSans-30" x="127.246094"/>
      </g>
     </g>
    </g>
    <g id="xtick_6">
     <g id="line2d_6">
      <g>
       <use xlink:href="#m72a1f52446" x="796.113309" y="339.84" style="stroke: #000000; stroke-width: 0.8"/>
      </g>
     </g>
     <g id="text_6">
      <!-- 125 -->
      <g transform="translate(777.025809 362.036875) scale(0.2 -0.2)">
       <use xlink:href="#DejaVuSans-31"/>
       <use xlink:href="#DejaVuSans-32" x="63.623047"/>
       <use xlink:href="#DejaVuSans-35" x="127.246094"/>
      </g>
     </g>
    </g>
    <g id="xtick_7">
     <g id="line2d_7">
      <g>
       <use xlink:href="#m72a1f52446" x="886.595346" y="339.84" style="stroke: #000000; stroke-width: 0.8"/>
      </g>
     </g>
     <g id="text_7">
      <!-- 150 -->
      <g transform="translate(867.507846 362.036875) scale(0.2 -0.2)">
       <use xlink:href="#DejaVuSans-31"/>
       <use xlink:href="#DejaVuSans-35" x="63.623047"/>
       <use xlink:href="#DejaVuSans-30" x="127.246094"/>
      </g>
     </g>
    </g>
    <g id="xtick_8">
     <g id="line2d_8">
      <g>
       <use xlink:href="#m72a1f52446" x="977.077383" y="339.84" style="stroke: #000000; stroke-width: 0.8"/>
      </g>
     </g>
     <g id="text_8">
      <!-- 175 -->
      <g transform="translate(957.989883 362.036875) scale(0.2 -0.2)">
       <use xlink:href="#DejaVuSans-31"/>
       <use xlink:href="#DejaVuSans-37" x="63.623047"/>
       <use xlink:href="#DejaVuSans-35" x="127.246094"/>
      </g>
     </g>
    </g>
    <g id="xtick_9">
     <g id="line2d_9">
      <g>
       <use xlink:href="#m72a1f52446" x="1067.55942" y="339.84" style="stroke: #000000; stroke-width: 0.8"/>
      </g>
     </g>
     <g id="text_9">
      <!-- 200 -->
      <g transform="translate(1048.47192 362.036875) scale(0.2 -0.2)">
       <use xlink:href="#DejaVuSans-32"/>
       <use xlink:href="#DejaVuSans-30" x="63.623047"/>
       <use xlink:href="#DejaVuSans-30" x="127.246094"/>
      </g>
     </g>
    </g>
    <g id="xtick_10">
     <g id="line2d_10">
      <g>
       <use xlink:href="#m72a1f52446" x="1158.041457" y="339.84" style="stroke: #000000; stroke-width: 0.8"/>
      </g>
     </g>
     <g id="text_10">
      <!-- 225 -->
      <g transform="translate(1138.953957 362.036875) scale(0.2 -0.2)">
       <use xlink:href="#DejaVuSans-32"/>
       <use xlink:href="#DejaVuSans-32" x="63.623047"/>
       <use xlink:href="#DejaVuSans-35" x="127.246094"/>
      </g>
     </g>
    </g>
    <g id="xtick_11">
     <g id="line2d_11">
      <defs>
       <path id="m21cf37ed05" d="M 0 0 
L 0 2 
" style="stroke: #000000; stroke-width: 0.6"/>
      </defs>
      <g>
       <use xlink:href="#m21cf37ed05" x="361.799532" y="339.84" style="stroke: #000000; stroke-width: 0.6"/>
      </g>
     </g>
    </g>
    <g id="xtick_12">
     <g id="line2d_12">
      <g>
       <use xlink:href="#m21cf37ed05" x="379.89594" y="339.84" style="stroke: #000000; stroke-width: 0.6"/>
      </g>
     </g>
    </g>
    <g id="xtick_13">
     <g id="line2d_13">
      <g>
       <use xlink:href="#m21cf37ed05" x="397.992347" y="339.84" style="stroke: #000000; stroke-width: 0.6"/>
      </g>
     </g>
    </g>
    <g id="xtick_14">
     <g id="line2d_14">
      <g>
       <use xlink:href="#m21cf37ed05" x="416.088754" y="339.84" style="stroke: #000000; stroke-width: 0.6"/>
      </g>
     </g>
    </g>
    <g id="xtick_15">
     <g id="line2d_15">
      <g>
       <use xlink:href="#m21cf37ed05" x="452.281569" y="339.84" style="stroke: #000000; stroke-width: 0.6"/>
      </g>
     </g>
    </g>
    <g id="xtick_16">
     <g id="line2d_16">
      <g>
       <use xlink:href="#m21cf37ed05" x="470.377977" y="339.84" style="stroke: #000000; stroke-width: 0.6"/>
      </g>
     </g>
    </g>
    <g id="xtick_17">
     <g id="line2d_17">
      <g>
       <use xlink:href="#m21cf37ed05" x="488.474384" y="339.84" style="stroke: #000000; stroke-width: 0.6"/>
      </g>
     </g>
    </g>
    <g id="xtick_18">
     <g id="line2d_18">
      <g>
       <use xlink:href="#m21cf37ed05" x="506.570791" y="339.84" style="stroke: #000000; stroke-width: 0.6"/>
      </g>
     </g>
    </g>
    <g id="xtick_19">
     <g id="line2d_19">
      <g>
       <use xlink:href="#m21cf37ed05" x="542.763606" y="339.84" style="stroke: #000000; stroke-width: 0.6"/>
      </g>
     </g>
    </g>
    <g id="xtick_20">
     <g id="line2d_20">
      <g>
       <use xlink:href="#m21cf37ed05" x="560.860013" y="339.84" style="stroke: #000000; stroke-width: 0.6"/>
      </g>
     </g>
    </g>
    <g id="xtick_21">
     <g id="line2d_21">
      <g>
       <use xlink:href="#m21cf37ed05" x="578.956421" y="339.84" style="stroke: #000000; stroke-width: 0.6"/>
      </g>
     </g>
    </g>
    <g id="xtick_22">
     <g id="line2d_22">
      <g>
       <use xlink:href="#m21cf37ed05" x="597.052828" y="339.84" style="stroke: #000000; stroke-width: 0.6"/>
      </g>
     </g>
    </g>
    <g id="xtick_23">
     <g id="line2d_23">
      <g>
       <use xlink:href="#m21cf37ed05" x="633.245643" y="339.84" style="stroke: #000000; stroke-width: 0.6"/>
      </g>
     </g>
    </g>
    <g id="xtick_24">
     <g id="line2d_24">
      <g>
       <use xlink:href="#m21cf37ed05" x="651.34205" y="339.84" style="stroke: #000000; stroke-width: 0.6"/>
      </g>
     </g>
    </g>
    <g id="xtick_25">
     <g id="line2d_25">
      <g>
       <use xlink:href="#m21cf37ed05" x="669.438458" y="339.84" style="stroke: #000000; stroke-width: 0.6"/>
      </g>
     </g>
    </g>
    <g id="xtick_26">
     <g id="line2d_26">
      <g>
       <use xlink:href="#m21cf37ed05" x="687.534865" y="339.84" style="stroke: #000000; stroke-width: 0.6"/>
      </g>
     </g>
    </g>
    <g id="xtick_27">
     <g id="line2d_27">
      <g>
       <use xlink:href="#m21cf37ed05" x="723.72768" y="339.84" style="stroke: #000000; stroke-width: 0.6"/>
      </g>
     </g>
    </g>
    <g id="xtick_28">
     <g id="line2d_28">
      <g>
       <use xlink:href="#m21cf37ed05" x="741.824087" y="339.84" style="stroke: #000000; stroke-width: 0.6"/>
      </g>
     </g>
    </g>
    <g id="xtick_29">
     <g id="line2d_29">
      <g>
       <use xlink:href="#m21cf37ed05" x="759.920495" y="339.84" style="stroke: #000000; stroke-width: 0.6"/>
      </g>
     </g>
    </g>
    <g id="xtick_30">
     <g id="line2d_30">
      <g>
       <use xlink:href="#m21cf37ed05" x="778.016902" y="339.84" style="stroke: #000000; stroke-width: 0.6"/>
      </g>
     </g>
    </g>
    <g id="xtick_31">
     <g id="line2d_31">
      <g>
       <use xlink:href="#m21cf37ed05" x="814.209717" y="339.84" style="stroke: #000000; stroke-width: 0.6"/>
      </g>
     </g>
    </g>
    <g id="xtick_32">
     <g id="line2d_32">
      <g>
       <use xlink:href="#m21cf37ed05" x="832.306124" y="339.84" style="stroke: #000000; stroke-width: 0.6"/>
      </g>
     </g>
    </g>
    <g id="xtick_33">
     <g id="line2d_33">
      <g>
       <use xlink:href="#m21cf37ed05" x="850.402531" y="339.84" style="stroke: #000000; stroke-width: 0.6"/>
      </g>
     </g>
    </g>
    <g id="xtick_34">
     <g id="line2d_34">
      <g>
       <use xlink:href="#m21cf37ed05" x="868.498939" y="339.84" style="stroke: #000000; stroke-width: 0.6"/>
      </g>
     </g>
    </g>
    <g id="xtick_35">
     <g id="line2d_35">
      <g>
       <use xlink:href="#m21cf37ed05" x="904.691754" y="339.84" style="stroke: #000000; stroke-width: 0.6"/>
      </g>
     </g>
    </g>
    <g id="xtick_36">
     <g id="line2d_36">
      <g>
       <use xlink:href="#m21cf37ed05" x="922.788161" y="339.84" style="stroke: #000000; stroke-width: 0.6"/>
      </g>
     </g>
    </g>
    <g id="xtick_37">
     <g id="line2d_37">
      <g>
       <use xlink:href="#m21cf37ed05" x="940.884568" y="339.84" style="stroke: #000000; stroke-width: 0.6"/>
      </g>
     </g>
    </g>
    <g id="xtick_38">
     <g id="line2d_38">
      <g>
       <use xlink:href="#m21cf37ed05" x="958.980976" y="339.84" style="stroke: #000000; stroke-width: 0.6"/>
      </g>
     </g>
    </g>
    <g id="xtick_39">
     <g id="line2d_39">
      <g>
       <use xlink:href="#m21cf37ed05" x="995.17379" y="339.84" style="stroke: #000000; stroke-width: 0.6"/>
      </g>
     </g>
    </g>
    <g id="xtick_40">
     <g id="line2d_40">
      <g>
       <use xlink:href="#m21cf37ed05" x="1013.270198" y="339.84" style="stroke: #000000; stroke-width: 0.6"/>
      </g>
     </g>
    </g>
    <g id="xtick_41">
     <g id="line2d_41">
      <g>
       <use xlink:href="#m21cf37ed05" x="1031.366605" y="339.84" style="stroke: #000000; stroke-width: 0.6"/>
      </g>
     </g>
    </g>
    <g id="xtick_42">
     <g id="line2d_42">
      <g>
       <use xlink:href="#m21cf37ed05" x="1049.463013" y="339.84" style="stroke: #000000; stroke-width: 0.6"/>
      </g>
     </g>
    </g>
    <g id="xtick_43">
     <g id="line2d_43">
      <g>
       <use xlink:href="#m21cf37ed05" x="1085.655827" y="339.84" style="stroke: #000000; stroke-width: 0.6"/>
      </g>
     </g>
    </g>
    <g id="xtick_44">
     <g id="line2d_44">
      <g>
       <use xlink:href="#m21cf37ed05" x="1103.752235" y="339.84" style="stroke: #000000; stroke-width: 0.6"/>
      </g>
     </g>
    </g>
    <g id="xtick_45">
     <g id="line2d_45">
      <g>
       <use xlink:href="#m21cf37ed05" x="1121.848642" y="339.84" style="stroke: #000000; stroke-width: 0.6"/>
      </g>
     </g>
    </g>
    <g id="xtick_46">
     <g id="line2d_46">
      <g>
       <use xlink:href="#m21cf37ed05" x="1139.945049" y="339.84" style="stroke: #000000; stroke-width: 0.6"/>
      </g>
     </g>
    </g>
    <g id="xtick_47">
     <g id="line2d_47">
      <g>
       <use xlink:href="#m21cf37ed05" x="1176.137864" y="339.84" style="stroke: #000000; stroke-width: 0.6"/>
      </g>
     </g>
    </g>
    <g id="xtick_48">
     <g id="line2d_48">
      <g>
       <use xlink:href="#m21cf37ed05" x="1194.234272" y="339.84" style="stroke: #000000; stroke-width: 0.6"/>
      </g>
     </g>
    </g>
    <g id="xtick_49">
     <g id="line2d_49">
      <g>
       <use xlink:href="#m21cf37ed05" x="1212.330679" y="339.84" style="stroke: #000000; stroke-width: 0.6"/>
      </g>
     </g>
    </g>
    <g id="xtick_50">
     <g id="line2d_50">
      <g>
       <use xlink:href="#m21cf37ed05" x="1230.427086" y="339.84" style="stroke: #000000; stroke-width: 0.6"/>
      </g>
     </g>
    </g>
   </g>
   <g id="matplotlib.axis_2">
    <g id="ytick_1">
     <g id="line2d_51">
      <defs>
       <path id="mfa7a5bbed2" d="M 0 0 
L -3.5 0 
" style="stroke: #000000; stroke-width: 0.8"/>
      </defs>
      <g>
       <use xlink:href="#mfa7a5bbed2" x="343.703125" y="312.377143" style="stroke: #000000; stroke-width: 0.8"/>
      </g>
     </g>
     <g id="text_11">
      <!-- TBB_AFFINITY -->
      <g transform="translate(199.1625 319.697455) scale(0.2 -0.2)">
       <defs>
        <path id="DejaVuSans-54" d="M -19 4666 
L 3928 4666 
L 3928 4134 
L 2272 4134 
L 2272 0 
L 1638 0 
L 1638 4134 
L -19 4134 
L -19 4666 
z
" transform="scale(0.015625)"/>
        <path id="DejaVuSans-42" d="M 1259 2228 
L 1259 519 
L 2272 519 
Q 2781 519 3026 730 
Q 3272 941 3272 1375 
Q 3272 1813 3026 2020 
Q 2781 2228 2272 2228 
L 1259 2228 
z
M 1259 4147 
L 1259 2741 
L 2194 2741 
Q 2656 2741 2882 2914 
Q 3109 3088 3109 3444 
Q 3109 3797 2882 3972 
Q 2656 4147 2194 4147 
L 1259 4147 
z
M 628 4666 
L 2241 4666 
Q 2963 4666 3353 4366 
Q 3744 4066 3744 3513 
Q 3744 3084 3544 2831 
Q 3344 2578 2956 2516 
Q 3422 2416 3680 2098 
Q 3938 1781 3938 1306 
Q 3938 681 3513 340 
Q 3088 0 2303 0 
L 628 0 
L 628 4666 
z
" transform="scale(0.015625)"/>
        <path id="DejaVuSans-5f" d="M 3263 -1063 
L 3263 -1509 
L -63 -1509 
L -63 -1063 
L 3263 -1063 
z
" transform="scale(0.015625)"/>
        <path id="DejaVuSans-41" d="M 2188 4044 
L 1331 1722 
L 3047 1722 
L 2188 4044 
z
M 1831 4666 
L 2547 4666 
L 4325 0 
L 3669 0 
L 3244 1197 
L 1141 1197 
L 716 0 
L 50 0 
L 1831 4666 
z
" transform="scale(0.015625)"/>
        <path id="DejaVuSans-46" d="M 628 4666 
L 3309 4666 
L 3309 4134 
L 1259 4134 
L 1259 2759 
L 3109 2759 
L 3109 2228 
L 1259 2228 
L 1259 0 
L 628 0 
L 628 4666 
z
" transform="scale(0.015625)"/>
        <path id="DejaVuSans-49" d="M 628 4666 
L 1259 4666 
L 1259 0 
L 628 0 
L 628 4666 
z
" transform="scale(0.015625)"/>
        <path id="DejaVuSans-4e" d="M 628 4666 
L 1478 4666 
L 3547 763 
L 3547 4666 
L 4159 4666 
L 4159 0 
L 3309 0 
L 1241 3903 
L 1241 0 
L 628 0 
L 628 4666 
z
" transform="scale(0.015625)"/>
        <path id="DejaVuSans-59" d="M -13 4666 
L 666 4666 
L 1959 2747 
L 3244 4666 
L 3922 4666 
L 2272 2222 
L 2272 0 
L 1638 0 
L 1638 2222 
L -13 4666 
z
" transform="scale(0.015625)"/>
       </defs>
       <use xlink:href="#DejaVuSans-54"/>
       <use xlink:href="#DejaVuSans-42" x="61.083984"/>
       <use xlink:href="#DejaVuSans-42" x="129.6875"/>
       <use xlink:href="#DejaVuSans-5f" x="198.291016"/>
       <use xlink:href="#DejaVuSans-41" x="248.291016"/>
       <use xlink:href="#DejaVuSans-46" x="316.699219"/>
       <use xlink:href="#DejaVuSans-46" x="374.21875"/>
       <use xlink:href="#DejaVuSans-49" x="431.738281"/>
       <use xlink:href="#DejaVuSans-4e" x="461.230469"/>
       <use xlink:href="#DejaVuSans-49" x="536.035156"/>
       <use xlink:href="#DejaVuSans-54" x="565.527344"/>
       <use xlink:href="#DejaVuSans-59" x="626.611328"/>
      </g>
     </g>
    </g>
    <g id="ytick_2">
     <g id="line2d_52">
      <g>
       <use xlink:href="#mfa7a5bbed2" x="343.703125" y="281.52" style="stroke: #000000; stroke-width: 0.8"/>
      </g>
     </g>
     <g id="text_12">
      <!-- OMP_GUIDED_NONMONOTONIC -->
      <g transform="translate(20.009375 288.941875) scale(0.2 -0.2)">
       <defs>
        <path id="DejaVuSans-4f" d="M 2522 4238 
Q 1834 4238 1429 3725 
Q 1025 3213 1025 2328 
Q 1025 1447 1429 934 
Q 1834 422 2522 422 
Q 3209 422 3611 934 
Q 4013 1447 4013 2328 
Q 4013 3213 3611 3725 
Q 3209 4238 2522 4238 
z
M 2522 4750 
Q 3503 4750 4090 4092 
Q 4678 3434 4678 2328 
Q 4678 1225 4090 567 
Q 3503 -91 2522 -91 
Q 1538 -91 948 565 
Q 359 1222 359 2328 
Q 359 3434 948 4092 
Q 1538 4750 2522 4750 
z
" transform="scale(0.015625)"/>
        <path id="DejaVuSans-4d" d="M 628 4666 
L 1569 4666 
L 2759 1491 
L 3956 4666 
L 4897 4666 
L 4897 0 
L 4281 0 
L 4281 4097 
L 3078 897 
L 2444 897 
L 1241 4097 
L 1241 0 
L 628 0 
L 628 4666 
z
" transform="scale(0.015625)"/>
        <path id="DejaVuSans-50" d="M 1259 4147 
L 1259 2394 
L 2053 2394 
Q 2494 2394 2734 2622 
Q 2975 2850 2975 3272 
Q 2975 3691 2734 3919 
Q 2494 4147 2053 4147 
L 1259 4147 
z
M 628 4666 
L 2053 4666 
Q 2838 4666 3239 4311 
Q 3641 3956 3641 3272 
Q 3641 2581 3239 2228 
Q 2838 1875 2053 1875 
L 1259 1875 
L 1259 0 
L 628 0 
L 628 4666 
z
" transform="scale(0.015625)"/>
        <path id="DejaVuSans-47" d="M 3809 666 
L 3809 1919 
L 2778 1919 
L 2778 2438 
L 4434 2438 
L 4434 434 
Q 4069 175 3628 42 
Q 3188 -91 2688 -91 
Q 1594 -91 976 548 
Q 359 1188 359 2328 
Q 359 3472 976 4111 
Q 1594 4750 2688 4750 
Q 3144 4750 3555 4637 
Q 3966 4525 4313 4306 
L 4313 3634 
Q 3963 3931 3569 4081 
Q 3175 4231 2741 4231 
Q 1884 4231 1454 3753 
Q 1025 3275 1025 2328 
Q 1025 1384 1454 906 
Q 1884 428 2741 428 
Q 3075 428 3337 486 
Q 3600 544 3809 666 
z
" transform="scale(0.015625)"/>
        <path id="DejaVuSans-55" d="M 556 4666 
L 1191 4666 
L 1191 1831 
Q 1191 1081 1462 751 
Q 1734 422 2344 422 
Q 2950 422 3222 751 
Q 3494 1081 3494 1831 
L 3494 4666 
L 4128 4666 
L 4128 1753 
Q 4128 841 3676 375 
Q 3225 -91 2344 -91 
Q 1459 -91 1007 375 
Q 556 841 556 1753 
L 556 4666 
z
" transform="scale(0.015625)"/>
        <path id="DejaVuSans-44" d="M 1259 4147 
L 1259 519 
L 2022 519 
Q 2988 519 3436 956 
Q 3884 1394 3884 2338 
Q 3884 3275 3436 3711 
Q 2988 4147 2022 4147 
L 1259 4147 
z
M 628 4666 
L 1925 4666 
Q 3281 4666 3915 4102 
Q 4550 3538 4550 2338 
Q 4550 1131 3912 565 
Q 3275 0 1925 0 
L 628 0 
L 628 4666 
z
" transform="scale(0.015625)"/>
        <path id="DejaVuSans-45" d="M 628 4666 
L 3578 4666 
L 3578 4134 
L 1259 4134 
L 1259 2753 
L 3481 2753 
L 3481 2222 
L 1259 2222 
L 1259 531 
L 3634 531 
L 3634 0 
L 628 0 
L 628 4666 
z
" transform="scale(0.015625)"/>
        <path id="DejaVuSans-43" d="M 4122 4306 
L 4122 3641 
Q 3803 3938 3442 4084 
Q 3081 4231 2675 4231 
Q 1875 4231 1450 3742 
Q 1025 3253 1025 2328 
Q 1025 1406 1450 917 
Q 1875 428 2675 428 
Q 3081 428 3442 575 
Q 3803 722 4122 1019 
L 4122 359 
Q 3791 134 3420 21 
Q 3050 -91 2638 -91 
Q 1578 -91 968 557 
Q 359 1206 359 2328 
Q 359 3453 968 4101 
Q 1578 4750 2638 4750 
Q 3056 4750 3426 4639 
Q 3797 4528 4122 4306 
z
" transform="scale(0.015625)"/>
       </defs>
       <use xlink:href="#DejaVuSans-4f"/>
       <use xlink:href="#DejaVuSans-4d" x="78.710938"/>
       <use xlink:href="#DejaVuSans-50" x="164.990234"/>
       <use xlink:href="#DejaVuSans-5f" x="225.292969"/>
       <use xlink:href="#DejaVuSans-47" x="275.292969"/>
       <use xlink:href="#DejaVuSans-55" x="352.783203"/>
       <use xlink:href="#DejaVuSans-49" x="425.976562"/>
       <use xlink:href="#DejaVuSans-44" x="455.46875"/>
       <use xlink:href="#DejaVuSans-45" x="532.470703"/>
       <use xlink:href="#DejaVuSans-44" x="595.654297"/>
       <use xlink:href="#DejaVuSans-5f" x="672.65625"/>
       <use xlink:href="#DejaVuSans-4e" x="722.65625"/>
       <use xlink:href="#DejaVuSans-4f" x="797.460938"/>
       <use xlink:href="#DejaVuSans-4e" x="876.171875"/>
       <use xlink:href="#DejaVuSans-4d" x="950.976562"/>
       <use xlink:href="#DejaVuSans-4f" x="1037.255859"/>
       <use xlink:href="#DejaVuSans-4e" x="1115.966797"/>
       <use xlink:href="#DejaVuSans-4f" x="1190.771484"/>
       <use xlink:href="#DejaVuSans-54" x="1269.482422"/>
       <use xlink:href="#DejaVuSans-4f" x="1330.566406"/>
       <use xlink:href="#DejaVuSans-4e" x="1409.277344"/>
       <use xlink:href="#DejaVuSans-49" x="1484.082031"/>
       <use xlink:href="#DejaVuSans-43" x="1513.574219"/>
      </g>
     </g>
    </g>
    <g id="ytick_3">
     <g id="line2d_53">
      <g>
       <use xlink:href="#mfa7a5bbed2" x="343.703125" y="250.662857" style="stroke: #000000; stroke-width: 0.8"/>
      </g>
     </g>
     <g id="text_13">
      <!-- TBB_AUTO -->
      <g transform="translate(230.765625 258.084732) scale(0.2 -0.2)">
       <use xlink:href="#DejaVuSans-54"/>
       <use xlink:href="#DejaVuSans-42" x="61.083984"/>
       <use xlink:href="#DejaVuSans-42" x="129.6875"/>
       <use xlink:href="#DejaVuSans-5f" x="198.291016"/>
       <use xlink:href="#DejaVuSans-41" x="248.291016"/>
       <use xlink:href="#DejaVuSans-55" x="316.699219"/>
       <use xlink:href="#DejaVuSans-54" x="389.892578"/>
       <use xlink:href="#DejaVuSans-4f" x="450.976562"/>
      </g>
     </g>
    </g>
    <g id="ytick_4">
     <g id="line2d_54">
      <g>
       <use xlink:href="#mfa7a5bbed2" x="343.703125" y="219.805714" style="stroke: #000000; stroke-width: 0.8"/>
      </g>
     </g>
     <g id="text_14">
      <!-- EIGEN_TIMESPAN_GRAINSIZE -->
      <g transform="translate(46.8625 227.227589) scale(0.2 -0.2)">
       <defs>
        <path id="DejaVuSans-53" d="M 3425 4513 
L 3425 3897 
Q 3066 4069 2747 4153 
Q 2428 4238 2131 4238 
Q 1616 4238 1336 4038 
Q 1056 3838 1056 3469 
Q 1056 3159 1242 3001 
Q 1428 2844 1947 2747 
L 2328 2669 
Q 3034 2534 3370 2195 
Q 3706 1856 3706 1288 
Q 3706 609 3251 259 
Q 2797 -91 1919 -91 
Q 1588 -91 1214 -16 
Q 841 59 441 206 
L 441 856 
Q 825 641 1194 531 
Q 1563 422 1919 422 
Q 2459 422 2753 634 
Q 3047 847 3047 1241 
Q 3047 1584 2836 1778 
Q 2625 1972 2144 2069 
L 1759 2144 
Q 1053 2284 737 2584 
Q 422 2884 422 3419 
Q 422 4038 858 4394 
Q 1294 4750 2059 4750 
Q 2388 4750 2728 4690 
Q 3069 4631 3425 4513 
z
" transform="scale(0.015625)"/>
        <path id="DejaVuSans-52" d="M 2841 2188 
Q 3044 2119 3236 1894 
Q 3428 1669 3622 1275 
L 4263 0 
L 3584 0 
L 2988 1197 
Q 2756 1666 2539 1819 
Q 2322 1972 1947 1972 
L 1259 1972 
L 1259 0 
L 628 0 
L 628 4666 
L 2053 4666 
Q 2853 4666 3247 4331 
Q 3641 3997 3641 3322 
Q 3641 2881 3436 2590 
Q 3231 2300 2841 2188 
z
M 1259 4147 
L 1259 2491 
L 2053 2491 
Q 2509 2491 2742 2702 
Q 2975 2913 2975 3322 
Q 2975 3731 2742 3939 
Q 2509 4147 2053 4147 
L 1259 4147 
z
" transform="scale(0.015625)"/>
        <path id="DejaVuSans-5a" d="M 359 4666 
L 4025 4666 
L 4025 4184 
L 1075 531 
L 4097 531 
L 4097 0 
L 288 0 
L 288 481 
L 3238 4134 
L 359 4134 
L 359 4666 
z
" transform="scale(0.015625)"/>
       </defs>
       <use xlink:href="#DejaVuSans-45"/>
       <use xlink:href="#DejaVuSans-49" x="63.183594"/>
       <use xlink:href="#DejaVuSans-47" x="92.675781"/>
       <use xlink:href="#DejaVuSans-45" x="170.166016"/>
       <use xlink:href="#DejaVuSans-4e" x="233.349609"/>
       <use xlink:href="#DejaVuSans-5f" x="308.154297"/>
       <use xlink:href="#DejaVuSans-54" x="358.154297"/>
       <use xlink:href="#DejaVuSans-49" x="419.238281"/>
       <use xlink:href="#DejaVuSans-4d" x="448.730469"/>
       <use xlink:href="#DejaVuSans-45" x="535.009766"/>
       <use xlink:href="#DejaVuSans-53" x="598.193359"/>
       <use xlink:href="#DejaVuSans-50" x="661.669922"/>
       <use xlink:href="#DejaVuSans-41" x="715.597656"/>
       <use xlink:href="#DejaVuSans-4e" x="784.005859"/>
       <use xlink:href="#DejaVuSans-5f" x="858.810547"/>
       <use xlink:href="#DejaVuSans-47" x="908.810547"/>
       <use xlink:href="#DejaVuSans-52" x="986.300781"/>
       <use xlink:href="#DejaVuSans-41" x="1051.783203"/>
       <use xlink:href="#DejaVuSans-49" x="1120.191406"/>
       <use xlink:href="#DejaVuSans-4e" x="1149.683594"/>
       <use xlink:href="#DejaVuSans-53" x="1224.488281"/>
       <use xlink:href="#DejaVuSans-49" x="1287.964844"/>
       <use xlink:href="#DejaVuSans-5a" x="1317.457031"/>
       <use xlink:href="#DejaVuSans-45" x="1385.962891"/>
      </g>
     </g>
    </g>
    <g id="ytick_5">
     <g id="line2d_55">
      <g>
       <use xlink:href="#mfa7a5bbed2" x="343.703125" y="188.948571" style="stroke: #000000; stroke-width: 0.8"/>
      </g>
     </g>
     <g id="text_15">
      <!-- EIGEN_TIMESPAN -->
      <g transform="translate(164.934375 196.370446) scale(0.2 -0.2)">
       <use xlink:href="#DejaVuSans-45"/>
       <use xlink:href="#DejaVuSans-49" x="63.183594"/>
       <use xlink:href="#DejaVuSans-47" x="92.675781"/>
       <use xlink:href="#DejaVuSans-45" x="170.166016"/>
       <use xlink:href="#DejaVuSans-4e" x="233.349609"/>
       <use xlink:href="#DejaVuSans-5f" x="308.154297"/>
       <use xlink:href="#DejaVuSans-54" x="358.154297"/>
       <use xlink:href="#DejaVuSans-49" x="419.238281"/>
       <use xlink:href="#DejaVuSans-4d" x="448.730469"/>
       <use xlink:href="#DejaVuSans-45" x="535.009766"/>
       <use xlink:href="#DejaVuSans-53" x="598.193359"/>
       <use xlink:href="#DejaVuSans-50" x="661.669922"/>
       <use xlink:href="#DejaVuSans-41" x="715.597656"/>
       <use xlink:href="#DejaVuSans-4e" x="784.005859"/>
      </g>
     </g>
    </g>
    <g id="ytick_6">
     <g id="line2d_56">
      <g>
       <use xlink:href="#mfa7a5bbed2" x="343.703125" y="158.091429" style="stroke: #000000; stroke-width: 0.8"/>
      </g>
     </g>
     <g id="text_16">
      <!-- EIGEN_SIMPLE -->
      <g transform="translate(193.375 165.513304) scale(0.2 -0.2)">
       <defs>
        <path id="DejaVuSans-4c" d="M 628 4666 
L 1259 4666 
L 1259 531 
L 3531 531 
L 3531 0 
L 628 0 
L 628 4666 
z
" transform="scale(0.015625)"/>
       </defs>
       <use xlink:href="#DejaVuSans-45"/>
       <use xlink:href="#DejaVuSans-49" x="63.183594"/>
       <use xlink:href="#DejaVuSans-47" x="92.675781"/>
       <use xlink:href="#DejaVuSans-45" x="170.166016"/>
       <use xlink:href="#DejaVuSans-4e" x="233.349609"/>
       <use xlink:href="#DejaVuSans-5f" x="308.154297"/>
       <use xlink:href="#DejaVuSans-53" x="358.154297"/>
       <use xlink:href="#DejaVuSans-49" x="421.630859"/>
       <use xlink:href="#DejaVuSans-4d" x="451.123047"/>
       <use xlink:href="#DejaVuSans-50" x="537.402344"/>
       <use xlink:href="#DejaVuSans-4c" x="597.705078"/>
       <use xlink:href="#DejaVuSans-45" x="653.417969"/>
      </g>
     </g>
    </g>
    <g id="ytick_7">
     <g id="line2d_57">
      <g>
       <use xlink:href="#mfa7a5bbed2" x="343.703125" y="127.234286" style="stroke: #000000; stroke-width: 0.8"/>
      </g>
     </g>
     <g id="text_17">
      <!-- OMP_STATIC -->
      <g transform="translate(214.06875 134.656161) scale(0.2 -0.2)">
       <use xlink:href="#DejaVuSans-4f"/>
       <use xlink:href="#DejaVuSans-4d" x="78.710938"/>
       <use xlink:href="#DejaVuSans-50" x="164.990234"/>
       <use xlink:href="#DejaVuSans-5f" x="225.292969"/>
       <use xlink:href="#DejaVuSans-53" x="275.292969"/>
       <use xlink:href="#DejaVuSans-54" x="338.769531"/>
       <use xlink:href="#DejaVuSans-41" x="392.103516"/>
       <use xlink:href="#DejaVuSans-54" x="452.761719"/>
       <use xlink:href="#DejaVuSans-49" x="513.845703"/>
       <use xlink:href="#DejaVuSans-43" x="543.337891"/>
      </g>
     </g>
    </g>
    <g id="ytick_8">
     <g id="line2d_58">
      <g>
       <use xlink:href="#mfa7a5bbed2" x="343.703125" y="96.377143" style="stroke: #000000; stroke-width: 0.8"/>
      </g>
     </g>
     <g id="text_18">
      <!-- EIGEN_STATIC -->
      <g transform="translate(197.49375 103.799018) scale(0.2 -0.2)">
       <use xlink:href="#DejaVuSans-45"/>
       <use xlink:href="#DejaVuSans-49" x="63.183594"/>
       <use xlink:href="#DejaVuSans-47" x="92.675781"/>
       <use xlink:href="#DejaVuSans-45" x="170.166016"/>
       <use xlink:href="#DejaVuSans-4e" x="233.349609"/>
       <use xlink:href="#DejaVuSans-5f" x="308.154297"/>
       <use xlink:href="#DejaVuSans-53" x="358.154297"/>
       <use xlink:href="#DejaVuSans-54" x="421.630859"/>
       <use xlink:href="#DejaVuSans-41" x="474.964844"/>
       <use xlink:href="#DejaVuSans-54" x="535.623047"/>
       <use xlink:href="#DejaVuSans-49" x="596.707031"/>
       <use xlink:href="#DejaVuSans-43" x="626.199219"/>
      </g>
     </g>
    </g>
    <g id="ytick_9">
     <g id="line2d_59">
      <g>
       <use xlink:href="#mfa7a5bbed2" x="343.703125" y="65.52" style="stroke: #000000; stroke-width: 0.8"/>
      </g>
     </g>
     <g id="text_19">
      <!-- TBB_SIMPLE -->
      <g transform="translate(215.35 72.941875) scale(0.2 -0.2)">
       <use xlink:href="#DejaVuSans-54"/>
       <use xlink:href="#DejaVuSans-42" x="61.083984"/>
       <use xlink:href="#DejaVuSans-42" x="129.6875"/>
       <use xlink:href="#DejaVuSans-5f" x="198.291016"/>
       <use xlink:href="#DejaVuSans-53" x="248.291016"/>
       <use xlink:href="#DejaVuSans-49" x="311.767578"/>
       <use xlink:href="#DejaVuSans-4d" x="341.259766"/>
       <use xlink:href="#DejaVuSans-50" x="427.539062"/>
       <use xlink:href="#DejaVuSans-4c" x="487.841797"/>
       <use xlink:href="#DejaVuSans-45" x="543.554688"/>
      </g>
     </g>
    </g>
    <g id="ytick_10">
     <g id="line2d_60">
      <g>
       <use xlink:href="#mfa7a5bbed2" x="343.703125" y="34.662857" style="stroke: #000000; stroke-width: 0.8"/>
      </g>
     </g>
     <g id="text_20">
      <!-- OMP_DYNAMIC_NONMONOTONIC -->
      <g transform="translate(7.2 42.084732) scale(0.2 -0.2)">
       <use xlink:href="#DejaVuSans-4f"/>
       <use xlink:href="#DejaVuSans-4d" x="78.710938"/>
       <use xlink:href="#DejaVuSans-50" x="164.990234"/>
       <use xlink:href="#DejaVuSans-5f" x="225.292969"/>
       <use xlink:href="#DejaVuSans-44" x="275.292969"/>
       <use xlink:href="#DejaVuSans-59" x="346.794922"/>
       <use xlink:href="#DejaVuSans-4e" x="407.878906"/>
       <use xlink:href="#DejaVuSans-41" x="482.683594"/>
       <use xlink:href="#DejaVuSans-4d" x="551.091797"/>
       <use xlink:href="#DejaVuSans-49" x="637.371094"/>
       <use xlink:href="#DejaVuSans-43" x="666.863281"/>
       <use xlink:href="#DejaVuSans-5f" x="736.6875"/>
       <use xlink:href="#DejaVuSans-4e" x="786.6875"/>
       <use xlink:href="#DejaVuSans-4f" x="861.492188"/>
       <use xlink:href="#DejaVuSans-4e" x="940.203125"/>
       <use xlink:href="#DejaVuSans-4d" x="1015.007812"/>
       <use xlink:href="#DejaVuSans-4f" x="1101.287109"/>
       <use xlink:href="#DejaVuSans-4e" x="1179.998047"/>
       <use xlink:href="#DejaVuSans-4f" x="1254.802734"/>
       <use xlink:href="#DejaVuSans-54" x="1333.513672"/>
       <use xlink:href="#DejaVuSans-4f" x="1394.597656"/>
       <use xlink:href="#DejaVuSans-4e" x="1473.308594"/>
       <use xlink:href="#DejaVuSans-49" x="1548.113281"/>
       <use xlink:href="#DejaVuSans-43" x="1577.605469"/>
      </g>
     </g>
    </g>
   </g>
   <g id="patch_13">
    <path d="M 343.703125 339.84 
L 343.703125 7.2 
" style="fill: none; stroke: #000000; stroke-width: 0.8; stroke-linejoin: miter; stroke-linecap: square"/>
   </g>
   <g id="patch_14">
    <path d="M 1236.503125 339.84 
L 1236.503125 7.2 
" style="fill: none; stroke: #000000; stroke-width: 0.8; stroke-linejoin: miter; stroke-linecap: square"/>
   </g>
   <g id="patch_15">
    <path d="M 343.703125 339.84 
L 1236.503125 339.84 
" style="fill: none; stroke: #000000; stroke-width: 0.8; stroke-linejoin: miter; stroke-linecap: square"/>
   </g>
   <g id="patch_16">
    <path d="M 343.703125 7.2 
L 1236.503125 7.2 
" style="fill: none; stroke: #000000; stroke-width: 0.8; stroke-linejoin: miter; stroke-linecap: square"/>
   </g>
  </g>
 </g>
 <defs>
  <clipPath id="pbf4ee3d8f8">
   <rect x="343.703125" y="7.2" width="892.8" height="332.64"/>
  </clipPath>
 </defs>
</svg>
