<?xml version="1.0" encoding="utf-8" standalone="no"?>
<!DOCTYPE svg PUBLIC "-//W3C//DTD SVG 1.1//EN"
  "http://www.w3.org/Graphics/SVG/1.1/DTD/svg11.dtd">
<svg xmlns:xlink="http://www.w3.org/1999/xlink" width="1243.703125pt" height="373.39625pt" viewBox="0 0 1243.703125 373.39625" xmlns="http://www.w3.org/2000/svg" version="1.1">
 <metadata>
  <rdf:RDF xmlns:dc="http://purl.org/dc/elements/1.1/" xmlns:cc="http://creativecommons.org/ns#" xmlns:rdf="http://www.w3.org/1999/02/22-rdf-syntax-ns#">
   <cc:Work>
    <dc:type rdf:resource="http://purl.org/dc/dcmitype/StillImage"/>
    <dc:date>2023-05-01T18:10:38.777166</dc:date>
    <dc:format>image/svg+xml</dc:format>
    <dc:creator>
     <cc:Agent>
      <dc:title>Matplotlib v3.7.1, https://matplotlib.org/</dc:title>
     </cc:Agent>
    </dc:creator>
   </cc:Work>
  </rdf:RDF>
 </metadata>
 <defs>
  <style type="text/css">*{stroke-linejoin: round; stroke-linecap: butt}</style>
 </defs>
 <g id="figure_1">
  <g id="patch_1">
   <path d="M 0 373.39625 
L 1243.703125 373.39625 
L 1243.703125 0 
L 0 0 
z
" style="fill: #ffffff"/>
  </g>
  <g id="axes_1">
   <g id="patch_2">
    <path d="M 343.703125 339.84 
L 1236.503125 339.84 
L 1236.503125 7.2 
L 343.703125 7.2 
z
" style="fill: #ffffff"/>
   </g>
   <g id="matplotlib.axis_1">
    <g id="xtick_1">
     <g id="line2d_1">
      <path d="M 343.703125 339.84 
L 343.703125 7.2 
" clip-path="url(#p726495b9b8)" style="fill: none; stroke: #dddddd; stroke-width: 0.8; stroke-linecap: square"/>
     </g>
     <g id="line2d_2">
      <defs>
       <path id="md7fade9efc" d="M 0 0 
L 0 3.5 
" style="stroke: #000000; stroke-width: 0.8"/>
      </defs>
      <g>
       <use xlink:href="#md7fade9efc" x="343.703125" y="339.84" style="stroke: #000000; stroke-width: 0.8"/>
      </g>
     </g>
     <g id="text_1">
      <!-- 0 -->
      <g transform="translate(337.340625 362.036875) scale(0.2 -0.2)">
       <defs>
        <path id="DejaVuSans-30" d="M 2034 4250 
Q 1547 4250 1301 3770 
Q 1056 3291 1056 2328 
Q 1056 1369 1301 889 
Q 1547 409 2034 409 
Q 2525 409 2770 889 
Q 3016 1369 3016 2328 
Q 3016 3291 2770 3770 
Q 2525 4250 2034 4250 
z
M 2034 4750 
Q 2819 4750 3233 4129 
Q 3647 3509 3647 2328 
Q 3647 1150 3233 529 
Q 2819 -91 2034 -91 
Q 1250 -91 836 529 
Q 422 1150 422 2328 
Q 422 3509 836 4129 
Q 1250 4750 2034 4750 
z
" transform="scale(0.015625)"/>
       </defs>
       <use xlink:href="#DejaVuSans-30"/>
      </g>
     </g>
    </g>
    <g id="xtick_2">
     <g id="line2d_3">
      <path d="M 435.699199 339.84 
L 435.699199 7.2 
" clip-path="url(#p726495b9b8)" style="fill: none; stroke: #dddddd; stroke-width: 0.8; stroke-linecap: square"/>
     </g>
     <g id="line2d_4">
      <g>
       <use xlink:href="#md7fade9efc" x="435.699199" y="339.84" style="stroke: #000000; stroke-width: 0.8"/>
      </g>
     </g>
     <g id="text_2">
      <!-- 15000 -->
      <g transform="translate(403.886699 362.036875) scale(0.2 -0.2)">
       <defs>
        <path id="DejaVuSans-31" d="M 794 531 
L 1825 531 
L 1825 4091 
L 703 3866 
L 703 4441 
L 1819 4666 
L 2450 4666 
L 2450 531 
L 3481 531 
L 3481 0 
L 794 0 
L 794 531 
z
" transform="scale(0.015625)"/>
        <path id="DejaVuSans-35" d="M 691 4666 
L 3169 4666 
L 3169 4134 
L 1269 4134 
L 1269 2991 
Q 1406 3038 1543 3061 
Q 1681 3084 1819 3084 
Q 2600 3084 3056 2656 
Q 3513 2228 3513 1497 
Q 3513 744 3044 326 
Q 2575 -91 1722 -91 
Q 1428 -91 1123 -41 
Q 819 9 494 109 
L 494 744 
Q 775 591 1075 516 
Q 1375 441 1709 441 
Q 2250 441 2565 725 
Q 2881 1009 2881 1497 
Q 2881 1984 2565 2268 
Q 2250 2553 1709 2553 
Q 1456 2553 1204 2497 
Q 953 2441 691 2322 
L 691 4666 
z
" transform="scale(0.015625)"/>
       </defs>
       <use xlink:href="#DejaVuSans-31"/>
       <use xlink:href="#DejaVuSans-35" x="63.623047"/>
       <use xlink:href="#DejaVuSans-30" x="127.246094"/>
       <use xlink:href="#DejaVuSans-30" x="190.869141"/>
       <use xlink:href="#DejaVuSans-30" x="254.492188"/>
      </g>
     </g>
    </g>
    <g id="xtick_3">
     <g id="line2d_5">
      <path d="M 527.695273 339.84 
L 527.695273 7.2 
" clip-path="url(#p726495b9b8)" style="fill: none; stroke: #dddddd; stroke-width: 0.8; stroke-linecap: square"/>
     </g>
     <g id="line2d_6">
      <g>
       <use xlink:href="#md7fade9efc" x="527.695273" y="339.84" style="stroke: #000000; stroke-width: 0.8"/>
      </g>
     </g>
     <g id="text_3">
      <!-- 30000 -->
      <g transform="translate(495.882773 362.036875) scale(0.2 -0.2)">
       <defs>
        <path id="DejaVuSans-33" d="M 2597 2516 
Q 3050 2419 3304 2112 
Q 3559 1806 3559 1356 
Q 3559 666 3084 287 
Q 2609 -91 1734 -91 
Q 1441 -91 1130 -33 
Q 819 25 488 141 
L 488 750 
Q 750 597 1062 519 
Q 1375 441 1716 441 
Q 2309 441 2620 675 
Q 2931 909 2931 1356 
Q 2931 1769 2642 2001 
Q 2353 2234 1838 2234 
L 1294 2234 
L 1294 2753 
L 1863 2753 
Q 2328 2753 2575 2939 
Q 2822 3125 2822 3475 
Q 2822 3834 2567 4026 
Q 2313 4219 1838 4219 
Q 1578 4219 1281 4162 
Q 984 4106 628 3988 
L 628 4550 
Q 988 4650 1302 4700 
Q 1616 4750 1894 4750 
Q 2613 4750 3031 4423 
Q 3450 4097 3450 3541 
Q 3450 3153 3228 2886 
Q 3006 2619 2597 2516 
z
" transform="scale(0.015625)"/>
       </defs>
       <use xlink:href="#DejaVuSans-33"/>
       <use xlink:href="#DejaVuSans-30" x="63.623047"/>
       <use xlink:href="#DejaVuSans-30" x="127.246094"/>
       <use xlink:href="#DejaVuSans-30" x="190.869141"/>
       <use xlink:href="#DejaVuSans-30" x="254.492188"/>
      </g>
     </g>
    </g>
    <g id="xtick_4">
     <g id="line2d_7">
      <path d="M 619.691348 339.84 
L 619.691348 7.2 
" clip-path="url(#p726495b9b8)" style="fill: none; stroke: #dddddd; stroke-width: 0.8; stroke-linecap: square"/>
     </g>
     <g id="line2d_8">
      <g>
       <use xlink:href="#md7fade9efc" x="619.691348" y="339.84" style="stroke: #000000; stroke-width: 0.8"/>
      </g>
     </g>
     <g id="text_4">
      <!-- 45000 -->
      <g transform="translate(587.878848 362.036875) scale(0.2 -0.2)">
       <defs>
        <path id="DejaVuSans-34" d="M 2419 4116 
L 825 1625 
L 2419 1625 
L 2419 4116 
z
M 2253 4666 
L 3047 4666 
L 3047 1625 
L 3713 1625 
L 3713 1100 
L 3047 1100 
L 3047 0 
L 2419 0 
L 2419 1100 
L 313 1100 
L 313 1709 
L 2253 4666 
z
" transform="scale(0.015625)"/>
       </defs>
       <use xlink:href="#DejaVuSans-34"/>
       <use xlink:href="#DejaVuSans-35" x="63.623047"/>
       <use xlink:href="#DejaVuSans-30" x="127.246094"/>
       <use xlink:href="#DejaVuSans-30" x="190.869141"/>
       <use xlink:href="#DejaVuSans-30" x="254.492188"/>
      </g>
     </g>
    </g>
    <g id="xtick_5">
     <g id="line2d_9">
      <path d="M 711.687422 339.84 
L 711.687422 7.2 
" clip-path="url(#p726495b9b8)" style="fill: none; stroke: #dddddd; stroke-width: 0.8; stroke-linecap: square"/>
     </g>
     <g id="line2d_10">
      <g>
       <use xlink:href="#md7fade9efc" x="711.687422" y="339.84" style="stroke: #000000; stroke-width: 0.8"/>
      </g>
     </g>
     <g id="text_5">
      <!-- 60000 -->
      <g transform="translate(679.874922 362.036875) scale(0.2 -0.2)">
       <defs>
        <path id="DejaVuSans-36" d="M 2113 2584 
Q 1688 2584 1439 2293 
Q 1191 2003 1191 1497 
Q 1191 994 1439 701 
Q 1688 409 2113 409 
Q 2538 409 2786 701 
Q 3034 994 3034 1497 
Q 3034 2003 2786 2293 
Q 2538 2584 2113 2584 
z
M 3366 4563 
L 3366 3988 
Q 3128 4100 2886 4159 
Q 2644 4219 2406 4219 
Q 1781 4219 1451 3797 
Q 1122 3375 1075 2522 
Q 1259 2794 1537 2939 
Q 1816 3084 2150 3084 
Q 2853 3084 3261 2657 
Q 3669 2231 3669 1497 
Q 3669 778 3244 343 
Q 2819 -91 2113 -91 
Q 1303 -91 875 529 
Q 447 1150 447 2328 
Q 447 3434 972 4092 
Q 1497 4750 2381 4750 
Q 2619 4750 2861 4703 
Q 3103 4656 3366 4563 
z
" transform="scale(0.015625)"/>
       </defs>
       <use xlink:href="#DejaVuSans-36"/>
       <use xlink:href="#DejaVuSans-30" x="63.623047"/>
       <use xlink:href="#DejaVuSans-30" x="127.246094"/>
       <use xlink:href="#DejaVuSans-30" x="190.869141"/>
       <use xlink:href="#DejaVuSans-30" x="254.492188"/>
      </g>
     </g>
    </g>
    <g id="xtick_6">
     <g id="line2d_11">
      <path d="M 803.683496 339.84 
L 803.683496 7.2 
" clip-path="url(#p726495b9b8)" style="fill: none; stroke: #dddddd; stroke-width: 0.8; stroke-linecap: square"/>
     </g>
     <g id="line2d_12">
      <g>
       <use xlink:href="#md7fade9efc" x="803.683496" y="339.84" style="stroke: #000000; stroke-width: 0.8"/>
      </g>
     </g>
     <g id="text_6">
      <!-- 75000 -->
      <g transform="translate(771.870996 362.036875) scale(0.2 -0.2)">
       <defs>
        <path id="DejaVuSans-37" d="M 525 4666 
L 3525 4666 
L 3525 4397 
L 1831 0 
L 1172 0 
L 2766 4134 
L 525 4134 
L 525 4666 
z
" transform="scale(0.015625)"/>
       </defs>
       <use xlink:href="#DejaVuSans-37"/>
       <use xlink:href="#DejaVuSans-35" x="63.623047"/>
       <use xlink:href="#DejaVuSans-30" x="127.246094"/>
       <use xlink:href="#DejaVuSans-30" x="190.869141"/>
       <use xlink:href="#DejaVuSans-30" x="254.492188"/>
      </g>
     </g>
    </g>
    <g id="xtick_7">
     <g id="line2d_13">
      <path d="M 895.67957 339.84 
L 895.67957 7.2 
" clip-path="url(#p726495b9b8)" style="fill: none; stroke: #dddddd; stroke-width: 0.8; stroke-linecap: square"/>
     </g>
     <g id="line2d_14">
      <g>
       <use xlink:href="#md7fade9efc" x="895.67957" y="339.84" style="stroke: #000000; stroke-width: 0.8"/>
      </g>
     </g>
     <g id="text_7">
      <!-- 90000 -->
      <g transform="translate(863.86707 362.036875) scale(0.2 -0.2)">
       <defs>
        <path id="DejaVuSans-39" d="M 703 97 
L 703 672 
Q 941 559 1184 500 
Q 1428 441 1663 441 
Q 2288 441 2617 861 
Q 2947 1281 2994 2138 
Q 2813 1869 2534 1725 
Q 2256 1581 1919 1581 
Q 1219 1581 811 2004 
Q 403 2428 403 3163 
Q 403 3881 828 4315 
Q 1253 4750 1959 4750 
Q 2769 4750 3195 4129 
Q 3622 3509 3622 2328 
Q 3622 1225 3098 567 
Q 2575 -91 1691 -91 
Q 1453 -91 1209 -44 
Q 966 3 703 97 
z
M 1959 2075 
Q 2384 2075 2632 2365 
Q 2881 2656 2881 3163 
Q 2881 3666 2632 3958 
Q 2384 4250 1959 4250 
Q 1534 4250 1286 3958 
Q 1038 3666 1038 3163 
Q 1038 2656 1286 2365 
Q 1534 2075 1959 2075 
z
" transform="scale(0.015625)"/>
       </defs>
       <use xlink:href="#DejaVuSans-39"/>
       <use xlink:href="#DejaVuSans-30" x="63.623047"/>
       <use xlink:href="#DejaVuSans-30" x="127.246094"/>
       <use xlink:href="#DejaVuSans-30" x="190.869141"/>
       <use xlink:href="#DejaVuSans-30" x="254.492188"/>
      </g>
     </g>
    </g>
    <g id="xtick_8">
     <g id="line2d_15">
      <path d="M 987.675644 339.84 
L 987.675644 7.2 
" clip-path="url(#p726495b9b8)" style="fill: none; stroke: #dddddd; stroke-width: 0.8; stroke-linecap: square"/>
     </g>
     <g id="line2d_16">
      <g>
       <use xlink:href="#md7fade9efc" x="987.675644" y="339.84" style="stroke: #000000; stroke-width: 0.8"/>
      </g>
     </g>
     <g id="text_8">
      <!-- 105000 -->
      <g transform="translate(949.500644 362.036875) scale(0.2 -0.2)">
       <use xlink:href="#DejaVuSans-31"/>
       <use xlink:href="#DejaVuSans-30" x="63.623047"/>
       <use xlink:href="#DejaVuSans-35" x="127.246094"/>
       <use xlink:href="#DejaVuSans-30" x="190.869141"/>
       <use xlink:href="#DejaVuSans-30" x="254.492188"/>
       <use xlink:href="#DejaVuSans-30" x="318.115234"/>
      </g>
     </g>
    </g>
    <g id="xtick_9">
     <g id="line2d_17">
      <path d="M 1079.671718 339.84 
L 1079.671718 7.2 
" clip-path="url(#p726495b9b8)" style="fill: none; stroke: #dddddd; stroke-width: 0.8; stroke-linecap: square"/>
     </g>
     <g id="line2d_18">
      <g>
       <use xlink:href="#md7fade9efc" x="1079.671718" y="339.84" style="stroke: #000000; stroke-width: 0.8"/>
      </g>
     </g>
     <g id="text_9">
      <!-- 120000 -->
      <g transform="translate(1041.496718 362.036875) scale(0.2 -0.2)">
       <defs>
        <path id="DejaVuSans-32" d="M 1228 531 
L 3431 531 
L 3431 0 
L 469 0 
L 469 531 
Q 828 903 1448 1529 
Q 2069 2156 2228 2338 
Q 2531 2678 2651 2914 
Q 2772 3150 2772 3378 
Q 2772 3750 2511 3984 
Q 2250 4219 1831 4219 
Q 1534 4219 1204 4116 
Q 875 4013 500 3803 
L 500 4441 
Q 881 4594 1212 4672 
Q 1544 4750 1819 4750 
Q 2544 4750 2975 4387 
Q 3406 4025 3406 3419 
Q 3406 3131 3298 2873 
Q 3191 2616 2906 2266 
Q 2828 2175 2409 1742 
Q 1991 1309 1228 531 
z
" transform="scale(0.015625)"/>
       </defs>
       <use xlink:href="#DejaVuSans-31"/>
       <use xlink:href="#DejaVuSans-32" x="63.623047"/>
       <use xlink:href="#DejaVuSans-30" x="127.246094"/>
       <use xlink:href="#DejaVuSans-30" x="190.869141"/>
       <use xlink:href="#DejaVuSans-30" x="254.492188"/>
       <use xlink:href="#DejaVuSans-30" x="318.115234"/>
      </g>
     </g>
    </g>
    <g id="xtick_10">
     <g id="line2d_19">
      <path d="M 1171.667793 339.84 
L 1171.667793 7.2 
" clip-path="url(#p726495b9b8)" style="fill: none; stroke: #dddddd; stroke-width: 0.8; stroke-linecap: square"/>
     </g>
     <g id="line2d_20">
      <g>
       <use xlink:href="#md7fade9efc" x="1171.667793" y="339.84" style="stroke: #000000; stroke-width: 0.8"/>
      </g>
     </g>
     <g id="text_10">
      <!-- 135000 -->
      <g transform="translate(1133.492793 362.036875) scale(0.2 -0.2)">
       <use xlink:href="#DejaVuSans-31"/>
       <use xlink:href="#DejaVuSans-33" x="63.623047"/>
       <use xlink:href="#DejaVuSans-35" x="127.246094"/>
       <use xlink:href="#DejaVuSans-30" x="190.869141"/>
       <use xlink:href="#DejaVuSans-30" x="254.492188"/>
       <use xlink:href="#DejaVuSans-30" x="318.115234"/>
      </g>
     </g>
    </g>
    <g id="xtick_11">
     <g id="line2d_21">
      <path d="M 362.10234 339.84 
L 362.10234 7.2 
" clip-path="url(#p726495b9b8)" style="fill: none; stroke: #eeeeee; stroke-width: 0.5; stroke-linecap: square"/>
     </g>
     <g id="line2d_22">
      <defs>
       <path id="m8909b963ea" d="M 0 0 
L 0 2 
" style="stroke: #000000; stroke-width: 0.6"/>
      </defs>
      <g>
       <use xlink:href="#m8909b963ea" x="362.10234" y="339.84" style="stroke: #000000; stroke-width: 0.6"/>
      </g>
     </g>
    </g>
    <g id="xtick_12">
     <g id="line2d_23">
      <path d="M 380.501555 339.84 
L 380.501555 7.2 
" clip-path="url(#p726495b9b8)" style="fill: none; stroke: #eeeeee; stroke-width: 0.5; stroke-linecap: square"/>
     </g>
     <g id="line2d_24">
      <g>
       <use xlink:href="#m8909b963ea" x="380.501555" y="339.84" style="stroke: #000000; stroke-width: 0.6"/>
      </g>
     </g>
    </g>
    <g id="xtick_13">
     <g id="line2d_25">
      <path d="M 398.90077 339.84 
L 398.90077 7.2 
" clip-path="url(#p726495b9b8)" style="fill: none; stroke: #eeeeee; stroke-width: 0.5; stroke-linecap: square"/>
     </g>
     <g id="line2d_26">
      <g>
       <use xlink:href="#m8909b963ea" x="398.90077" y="339.84" style="stroke: #000000; stroke-width: 0.6"/>
      </g>
     </g>
    </g>
    <g id="xtick_14">
     <g id="line2d_27">
      <path d="M 417.299984 339.84 
L 417.299984 7.2 
" clip-path="url(#p726495b9b8)" style="fill: none; stroke: #eeeeee; stroke-width: 0.5; stroke-linecap: square"/>
     </g>
     <g id="line2d_28">
      <g>
       <use xlink:href="#m8909b963ea" x="417.299984" y="339.84" style="stroke: #000000; stroke-width: 0.6"/>
      </g>
     </g>
    </g>
    <g id="xtick_15">
     <g id="line2d_29">
      <path d="M 454.098414 339.84 
L 454.098414 7.2 
" clip-path="url(#p726495b9b8)" style="fill: none; stroke: #eeeeee; stroke-width: 0.5; stroke-linecap: square"/>
     </g>
     <g id="line2d_30">
      <g>
       <use xlink:href="#m8909b963ea" x="454.098414" y="339.84" style="stroke: #000000; stroke-width: 0.6"/>
      </g>
     </g>
    </g>
    <g id="xtick_16">
     <g id="line2d_31">
      <path d="M 472.497629 339.84 
L 472.497629 7.2 
" clip-path="url(#p726495b9b8)" style="fill: none; stroke: #eeeeee; stroke-width: 0.5; stroke-linecap: square"/>
     </g>
     <g id="line2d_32">
      <g>
       <use xlink:href="#m8909b963ea" x="472.497629" y="339.84" style="stroke: #000000; stroke-width: 0.6"/>
      </g>
     </g>
    </g>
    <g id="xtick_17">
     <g id="line2d_33">
      <path d="M 490.896844 339.84 
L 490.896844 7.2 
" clip-path="url(#p726495b9b8)" style="fill: none; stroke: #eeeeee; stroke-width: 0.5; stroke-linecap: square"/>
     </g>
     <g id="line2d_34">
      <g>
       <use xlink:href="#m8909b963ea" x="490.896844" y="339.84" style="stroke: #000000; stroke-width: 0.6"/>
      </g>
     </g>
    </g>
    <g id="xtick_18">
     <g id="line2d_35">
      <path d="M 509.296059 339.84 
L 509.296059 7.2 
" clip-path="url(#p726495b9b8)" style="fill: none; stroke: #eeeeee; stroke-width: 0.5; stroke-linecap: square"/>
     </g>
     <g id="line2d_36">
      <g>
       <use xlink:href="#m8909b963ea" x="509.296059" y="339.84" style="stroke: #000000; stroke-width: 0.6"/>
      </g>
     </g>
    </g>
    <g id="xtick_19">
     <g id="line2d_37">
      <path d="M 546.094488 339.84 
L 546.094488 7.2 
" clip-path="url(#p726495b9b8)" style="fill: none; stroke: #eeeeee; stroke-width: 0.5; stroke-linecap: square"/>
     </g>
     <g id="line2d_38">
      <g>
       <use xlink:href="#m8909b963ea" x="546.094488" y="339.84" style="stroke: #000000; stroke-width: 0.6"/>
      </g>
     </g>
    </g>
    <g id="xtick_20">
     <g id="line2d_39">
      <path d="M 564.493703 339.84 
L 564.493703 7.2 
" clip-path="url(#p726495b9b8)" style="fill: none; stroke: #eeeeee; stroke-width: 0.5; stroke-linecap: square"/>
     </g>
     <g id="line2d_40">
      <g>
       <use xlink:href="#m8909b963ea" x="564.493703" y="339.84" style="stroke: #000000; stroke-width: 0.6"/>
      </g>
     </g>
    </g>
    <g id="xtick_21">
     <g id="line2d_41">
      <path d="M 582.892918 339.84 
L 582.892918 7.2 
" clip-path="url(#p726495b9b8)" style="fill: none; stroke: #eeeeee; stroke-width: 0.5; stroke-linecap: square"/>
     </g>
     <g id="line2d_42">
      <g>
       <use xlink:href="#m8909b963ea" x="582.892918" y="339.84" style="stroke: #000000; stroke-width: 0.6"/>
      </g>
     </g>
    </g>
    <g id="xtick_22">
     <g id="line2d_43">
      <path d="M 601.292133 339.84 
L 601.292133 7.2 
" clip-path="url(#p726495b9b8)" style="fill: none; stroke: #eeeeee; stroke-width: 0.5; stroke-linecap: square"/>
     </g>
     <g id="line2d_44">
      <g>
       <use xlink:href="#m8909b963ea" x="601.292133" y="339.84" style="stroke: #000000; stroke-width: 0.6"/>
      </g>
     </g>
    </g>
    <g id="xtick_23">
     <g id="line2d_45">
      <path d="M 638.090562 339.84 
L 638.090562 7.2 
" clip-path="url(#p726495b9b8)" style="fill: none; stroke: #eeeeee; stroke-width: 0.5; stroke-linecap: square"/>
     </g>
     <g id="line2d_46">
      <g>
       <use xlink:href="#m8909b963ea" x="638.090562" y="339.84" style="stroke: #000000; stroke-width: 0.6"/>
      </g>
     </g>
    </g>
    <g id="xtick_24">
     <g id="line2d_47">
      <path d="M 656.489777 339.84 
L 656.489777 7.2 
" clip-path="url(#p726495b9b8)" style="fill: none; stroke: #eeeeee; stroke-width: 0.5; stroke-linecap: square"/>
     </g>
     <g id="line2d_48">
      <g>
       <use xlink:href="#m8909b963ea" x="656.489777" y="339.84" style="stroke: #000000; stroke-width: 0.6"/>
      </g>
     </g>
    </g>
    <g id="xtick_25">
     <g id="line2d_49">
      <path d="M 674.888992 339.84 
L 674.888992 7.2 
" clip-path="url(#p726495b9b8)" style="fill: none; stroke: #eeeeee; stroke-width: 0.5; stroke-linecap: square"/>
     </g>
     <g id="line2d_50">
      <g>
       <use xlink:href="#m8909b963ea" x="674.888992" y="339.84" style="stroke: #000000; stroke-width: 0.6"/>
      </g>
     </g>
    </g>
    <g id="xtick_26">
     <g id="line2d_51">
      <path d="M 693.288207 339.84 
L 693.288207 7.2 
" clip-path="url(#p726495b9b8)" style="fill: none; stroke: #eeeeee; stroke-width: 0.5; stroke-linecap: square"/>
     </g>
     <g id="line2d_52">
      <g>
       <use xlink:href="#m8909b963ea" x="693.288207" y="339.84" style="stroke: #000000; stroke-width: 0.6"/>
      </g>
     </g>
    </g>
    <g id="xtick_27">
     <g id="line2d_53">
      <path d="M 730.086637 339.84 
L 730.086637 7.2 
" clip-path="url(#p726495b9b8)" style="fill: none; stroke: #eeeeee; stroke-width: 0.5; stroke-linecap: square"/>
     </g>
     <g id="line2d_54">
      <g>
       <use xlink:href="#m8909b963ea" x="730.086637" y="339.84" style="stroke: #000000; stroke-width: 0.6"/>
      </g>
     </g>
    </g>
    <g id="xtick_28">
     <g id="line2d_55">
      <path d="M 748.485851 339.84 
L 748.485851 7.2 
" clip-path="url(#p726495b9b8)" style="fill: none; stroke: #eeeeee; stroke-width: 0.5; stroke-linecap: square"/>
     </g>
     <g id="line2d_56">
      <g>
       <use xlink:href="#m8909b963ea" x="748.485851" y="339.84" style="stroke: #000000; stroke-width: 0.6"/>
      </g>
     </g>
    </g>
    <g id="xtick_29">
     <g id="line2d_57">
      <path d="M 766.885066 339.84 
L 766.885066 7.2 
" clip-path="url(#p726495b9b8)" style="fill: none; stroke: #eeeeee; stroke-width: 0.5; stroke-linecap: square"/>
     </g>
     <g id="line2d_58">
      <g>
       <use xlink:href="#m8909b963ea" x="766.885066" y="339.84" style="stroke: #000000; stroke-width: 0.6"/>
      </g>
     </g>
    </g>
    <g id="xtick_30">
     <g id="line2d_59">
      <path d="M 785.284281 339.84 
L 785.284281 7.2 
" clip-path="url(#p726495b9b8)" style="fill: none; stroke: #eeeeee; stroke-width: 0.5; stroke-linecap: square"/>
     </g>
     <g id="line2d_60">
      <g>
       <use xlink:href="#m8909b963ea" x="785.284281" y="339.84" style="stroke: #000000; stroke-width: 0.6"/>
      </g>
     </g>
    </g>
    <g id="xtick_31">
     <g id="line2d_61">
      <path d="M 822.082711 339.84 
L 822.082711 7.2 
" clip-path="url(#p726495b9b8)" style="fill: none; stroke: #eeeeee; stroke-width: 0.5; stroke-linecap: square"/>
     </g>
     <g id="line2d_62">
      <g>
       <use xlink:href="#m8909b963ea" x="822.082711" y="339.84" style="stroke: #000000; stroke-width: 0.6"/>
      </g>
     </g>
    </g>
    <g id="xtick_32">
     <g id="line2d_63">
      <path d="M 840.481926 339.84 
L 840.481926 7.2 
" clip-path="url(#p726495b9b8)" style="fill: none; stroke: #eeeeee; stroke-width: 0.5; stroke-linecap: square"/>
     </g>
     <g id="line2d_64">
      <g>
       <use xlink:href="#m8909b963ea" x="840.481926" y="339.84" style="stroke: #000000; stroke-width: 0.6"/>
      </g>
     </g>
    </g>
    <g id="xtick_33">
     <g id="line2d_65">
      <path d="M 858.88114 339.84 
L 858.88114 7.2 
" clip-path="url(#p726495b9b8)" style="fill: none; stroke: #eeeeee; stroke-width: 0.5; stroke-linecap: square"/>
     </g>
     <g id="line2d_66">
      <g>
       <use xlink:href="#m8909b963ea" x="858.88114" y="339.84" style="stroke: #000000; stroke-width: 0.6"/>
      </g>
     </g>
    </g>
    <g id="xtick_34">
     <g id="line2d_67">
      <path d="M 877.280355 339.84 
L 877.280355 7.2 
" clip-path="url(#p726495b9b8)" style="fill: none; stroke: #eeeeee; stroke-width: 0.5; stroke-linecap: square"/>
     </g>
     <g id="line2d_68">
      <g>
       <use xlink:href="#m8909b963ea" x="877.280355" y="339.84" style="stroke: #000000; stroke-width: 0.6"/>
      </g>
     </g>
    </g>
    <g id="xtick_35">
     <g id="line2d_69">
      <path d="M 914.078785 339.84 
L 914.078785 7.2 
" clip-path="url(#p726495b9b8)" style="fill: none; stroke: #eeeeee; stroke-width: 0.5; stroke-linecap: square"/>
     </g>
     <g id="line2d_70">
      <g>
       <use xlink:href="#m8909b963ea" x="914.078785" y="339.84" style="stroke: #000000; stroke-width: 0.6"/>
      </g>
     </g>
    </g>
    <g id="xtick_36">
     <g id="line2d_71">
      <path d="M 932.478 339.84 
L 932.478 7.2 
" clip-path="url(#p726495b9b8)" style="fill: none; stroke: #eeeeee; stroke-width: 0.5; stroke-linecap: square"/>
     </g>
     <g id="line2d_72">
      <g>
       <use xlink:href="#m8909b963ea" x="932.478" y="339.84" style="stroke: #000000; stroke-width: 0.6"/>
      </g>
     </g>
    </g>
    <g id="xtick_37">
     <g id="line2d_73">
      <path d="M 950.877215 339.84 
L 950.877215 7.2 
" clip-path="url(#p726495b9b8)" style="fill: none; stroke: #eeeeee; stroke-width: 0.5; stroke-linecap: square"/>
     </g>
     <g id="line2d_74">
      <g>
       <use xlink:href="#m8909b963ea" x="950.877215" y="339.84" style="stroke: #000000; stroke-width: 0.6"/>
      </g>
     </g>
    </g>
    <g id="xtick_38">
     <g id="line2d_75">
      <path d="M 969.276429 339.84 
L 969.276429 7.2 
" clip-path="url(#p726495b9b8)" style="fill: none; stroke: #eeeeee; stroke-width: 0.5; stroke-linecap: square"/>
     </g>
     <g id="line2d_76">
      <g>
       <use xlink:href="#m8909b963ea" x="969.276429" y="339.84" style="stroke: #000000; stroke-width: 0.6"/>
      </g>
     </g>
    </g>
    <g id="xtick_39">
     <g id="line2d_77">
      <path d="M 1006.074859 339.84 
L 1006.074859 7.2 
" clip-path="url(#p726495b9b8)" style="fill: none; stroke: #eeeeee; stroke-width: 0.5; stroke-linecap: square"/>
     </g>
     <g id="line2d_78">
      <g>
       <use xlink:href="#m8909b963ea" x="1006.074859" y="339.84" style="stroke: #000000; stroke-width: 0.6"/>
      </g>
     </g>
    </g>
    <g id="xtick_40">
     <g id="line2d_79">
      <path d="M 1024.474074 339.84 
L 1024.474074 7.2 
" clip-path="url(#p726495b9b8)" style="fill: none; stroke: #eeeeee; stroke-width: 0.5; stroke-linecap: square"/>
     </g>
     <g id="line2d_80">
      <g>
       <use xlink:href="#m8909b963ea" x="1024.474074" y="339.84" style="stroke: #000000; stroke-width: 0.6"/>
      </g>
     </g>
    </g>
    <g id="xtick_41">
     <g id="line2d_81">
      <path d="M 1042.873289 339.84 
L 1042.873289 7.2 
" clip-path="url(#p726495b9b8)" style="fill: none; stroke: #eeeeee; stroke-width: 0.5; stroke-linecap: square"/>
     </g>
     <g id="line2d_82">
      <g>
       <use xlink:href="#m8909b963ea" x="1042.873289" y="339.84" style="stroke: #000000; stroke-width: 0.6"/>
      </g>
     </g>
    </g>
    <g id="xtick_42">
     <g id="line2d_83">
      <path d="M 1061.272504 339.84 
L 1061.272504 7.2 
" clip-path="url(#p726495b9b8)" style="fill: none; stroke: #eeeeee; stroke-width: 0.5; stroke-linecap: square"/>
     </g>
     <g id="line2d_84">
      <g>
       <use xlink:href="#m8909b963ea" x="1061.272504" y="339.84" style="stroke: #000000; stroke-width: 0.6"/>
      </g>
     </g>
    </g>
    <g id="xtick_43">
     <g id="line2d_85">
      <path d="M 1098.070933 339.84 
L 1098.070933 7.2 
" clip-path="url(#p726495b9b8)" style="fill: none; stroke: #eeeeee; stroke-width: 0.5; stroke-linecap: square"/>
     </g>
     <g id="line2d_86">
      <g>
       <use xlink:href="#m8909b963ea" x="1098.070933" y="339.84" style="stroke: #000000; stroke-width: 0.6"/>
      </g>
     </g>
    </g>
    <g id="xtick_44">
     <g id="line2d_87">
      <path d="M 1116.470148 339.84 
L 1116.470148 7.2 
" clip-path="url(#p726495b9b8)" style="fill: none; stroke: #eeeeee; stroke-width: 0.5; stroke-linecap: square"/>
     </g>
     <g id="line2d_88">
      <g>
       <use xlink:href="#m8909b963ea" x="1116.470148" y="339.84" style="stroke: #000000; stroke-width: 0.6"/>
      </g>
     </g>
    </g>
    <g id="xtick_45">
     <g id="line2d_89">
      <path d="M 1134.869363 339.84 
L 1134.869363 7.2 
" clip-path="url(#p726495b9b8)" style="fill: none; stroke: #eeeeee; stroke-width: 0.5; stroke-linecap: square"/>
     </g>
     <g id="line2d_90">
      <g>
       <use xlink:href="#m8909b963ea" x="1134.869363" y="339.84" style="stroke: #000000; stroke-width: 0.6"/>
      </g>
     </g>
    </g>
    <g id="xtick_46">
     <g id="line2d_91">
      <path d="M 1153.268578 339.84 
L 1153.268578 7.2 
" clip-path="url(#p726495b9b8)" style="fill: none; stroke: #eeeeee; stroke-width: 0.5; stroke-linecap: square"/>
     </g>
     <g id="line2d_92">
      <g>
       <use xlink:href="#m8909b963ea" x="1153.268578" y="339.84" style="stroke: #000000; stroke-width: 0.6"/>
      </g>
     </g>
    </g>
    <g id="xtick_47">
     <g id="line2d_93">
      <path d="M 1190.067007 339.84 
L 1190.067007 7.2 
" clip-path="url(#p726495b9b8)" style="fill: none; stroke: #eeeeee; stroke-width: 0.5; stroke-linecap: square"/>
     </g>
     <g id="line2d_94">
      <g>
       <use xlink:href="#m8909b963ea" x="1190.067007" y="339.84" style="stroke: #000000; stroke-width: 0.6"/>
      </g>
     </g>
    </g>
    <g id="xtick_48">
     <g id="line2d_95">
      <path d="M 1208.466222 339.84 
L 1208.466222 7.2 
" clip-path="url(#p726495b9b8)" style="fill: none; stroke: #eeeeee; stroke-width: 0.5; stroke-linecap: square"/>
     </g>
     <g id="line2d_96">
      <g>
       <use xlink:href="#m8909b963ea" x="1208.466222" y="339.84" style="stroke: #000000; stroke-width: 0.6"/>
      </g>
     </g>
    </g>
    <g id="xtick_49">
     <g id="line2d_97">
      <path d="M 1226.865437 339.84 
L 1226.865437 7.2 
" clip-path="url(#p726495b9b8)" style="fill: none; stroke: #eeeeee; stroke-width: 0.5; stroke-linecap: square"/>
     </g>
     <g id="line2d_98">
      <g>
       <use xlink:href="#m8909b963ea" x="1226.865437" y="339.84" style="stroke: #000000; stroke-width: 0.6"/>
      </g>
     </g>
    </g>
   </g>
   <g id="matplotlib.axis_2">
    <g id="ytick_1">
     <g id="line2d_99">
      <path d="M 343.703125 309.212308 
L 1236.503125 309.212308 
" clip-path="url(#p726495b9b8)" style="fill: none; stroke: #dddddd; stroke-width: 0.8; stroke-linecap: square"/>
     </g>
     <g id="line2d_100">
      <defs>
       <path id="mc1193cb787" d="M 0 0 
L -3.5 0 
" style="stroke: #000000; stroke-width: 0.8"/>
      </defs>
      <g>
       <use xlink:href="#mc1193cb787" x="343.703125" y="309.212308" style="stroke: #000000; stroke-width: 0.8"/>
      </g>
     </g>
     <g id="text_11">
      <!-- OMP_STATIC -->
      <g transform="translate(214.06875 316.634183) scale(0.2 -0.2)">
       <defs>
        <path id="DejaVuSans-4f" d="M 2522 4238 
Q 1834 4238 1429 3725 
Q 1025 3213 1025 2328 
Q 1025 1447 1429 934 
Q 1834 422 2522 422 
Q 3209 422 3611 934 
Q 4013 1447 4013 2328 
Q 4013 3213 3611 3725 
Q 3209 4238 2522 4238 
z
M 2522 4750 
Q 3503 4750 4090 4092 
Q 4678 3434 4678 2328 
Q 4678 1225 4090 567 
Q 3503 -91 2522 -91 
Q 1538 -91 948 565 
Q 359 1222 359 2328 
Q 359 3434 948 4092 
Q 1538 4750 2522 4750 
z
" transform="scale(0.015625)"/>
        <path id="DejaVuSans-4d" d="M 628 4666 
L 1569 4666 
L 2759 1491 
L 3956 4666 
L 4897 4666 
L 4897 0 
L 4281 0 
L 4281 4097 
L 3078 897 
L 2444 897 
L 1241 4097 
L 1241 0 
L 628 0 
L 628 4666 
z
" transform="scale(0.015625)"/>
        <path id="DejaVuSans-50" d="M 1259 4147 
L 1259 2394 
L 2053 2394 
Q 2494 2394 2734 2622 
Q 2975 2850 2975 3272 
Q 2975 3691 2734 3919 
Q 2494 4147 2053 4147 
L 1259 4147 
z
M 628 4666 
L 2053 4666 
Q 2838 4666 3239 4311 
Q 3641 3956 3641 3272 
Q 3641 2581 3239 2228 
Q 2838 1875 2053 1875 
L 1259 1875 
L 1259 0 
L 628 0 
L 628 4666 
z
" transform="scale(0.015625)"/>
        <path id="DejaVuSans-5f" d="M 3263 -1063 
L 3263 -1509 
L -63 -1509 
L -63 -1063 
L 3263 -1063 
z
" transform="scale(0.015625)"/>
        <path id="DejaVuSans-53" d="M 3425 4513 
L 3425 3897 
Q 3066 4069 2747 4153 
Q 2428 4238 2131 4238 
Q 1616 4238 1336 4038 
Q 1056 3838 1056 3469 
Q 1056 3159 1242 3001 
Q 1428 2844 1947 2747 
L 2328 2669 
Q 3034 2534 3370 2195 
Q 3706 1856 3706 1288 
Q 3706 609 3251 259 
Q 2797 -91 1919 -91 
Q 1588 -91 1214 -16 
Q 841 59 441 206 
L 441 856 
Q 825 641 1194 531 
Q 1563 422 1919 422 
Q 2459 422 2753 634 
Q 3047 847 3047 1241 
Q 3047 1584 2836 1778 
Q 2625 1972 2144 2069 
L 1759 2144 
Q 1053 2284 737 2584 
Q 422 2884 422 3419 
Q 422 4038 858 4394 
Q 1294 4750 2059 4750 
Q 2388 4750 2728 4690 
Q 3069 4631 3425 4513 
z
" transform="scale(0.015625)"/>
        <path id="DejaVuSans-54" d="M -19 4666 
L 3928 4666 
L 3928 4134 
L 2272 4134 
L 2272 0 
L 1638 0 
L 1638 4134 
L -19 4134 
L -19 4666 
z
" transform="scale(0.015625)"/>
        <path id="DejaVuSans-41" d="M 2188 4044 
L 1331 1722 
L 3047 1722 
L 2188 4044 
z
M 1831 4666 
L 2547 4666 
L 4325 0 
L 3669 0 
L 3244 1197 
L 1141 1197 
L 716 0 
L 50 0 
L 1831 4666 
z
" transform="scale(0.015625)"/>
        <path id="DejaVuSans-49" d="M 628 4666 
L 1259 4666 
L 1259 0 
L 628 0 
L 628 4666 
z
" transform="scale(0.015625)"/>
        <path id="DejaVuSans-43" d="M 4122 4306 
L 4122 3641 
Q 3803 3938 3442 4084 
Q 3081 4231 2675 4231 
Q 1875 4231 1450 3742 
Q 1025 3253 1025 2328 
Q 1025 1406 1450 917 
Q 1875 428 2675 428 
Q 3081 428 3442 575 
Q 3803 722 4122 1019 
L 4122 359 
Q 3791 134 3420 21 
Q 3050 -91 2638 -91 
Q 1578 -91 968 557 
Q 359 1206 359 2328 
Q 359 3453 968 4101 
Q 1578 4750 2638 4750 
Q 3056 4750 3426 4639 
Q 3797 4528 4122 4306 
z
" transform="scale(0.015625)"/>
       </defs>
       <use xlink:href="#DejaVuSans-4f"/>
       <use xlink:href="#DejaVuSans-4d" x="78.710938"/>
       <use xlink:href="#DejaVuSans-50" x="164.990234"/>
       <use xlink:href="#DejaVuSans-5f" x="225.292969"/>
       <use xlink:href="#DejaVuSans-53" x="275.292969"/>
       <use xlink:href="#DejaVuSans-54" x="338.769531"/>
       <use xlink:href="#DejaVuSans-41" x="392.103516"/>
       <use xlink:href="#DejaVuSans-54" x="452.761719"/>
       <use xlink:href="#DejaVuSans-49" x="513.845703"/>
       <use xlink:href="#DejaVuSans-43" x="543.337891"/>
      </g>
     </g>
    </g>
    <g id="ytick_2">
     <g id="line2d_101">
      <path d="M 343.703125 270.443077 
L 1236.503125 270.443077 
" clip-path="url(#p726495b9b8)" style="fill: none; stroke: #dddddd; stroke-width: 0.8; stroke-linecap: square"/>
     </g>
     <g id="line2d_102">
      <g>
       <use xlink:href="#mc1193cb787" x="343.703125" y="270.443077" style="stroke: #000000; stroke-width: 0.8"/>
      </g>
     </g>
     <g id="text_12">
      <!-- TBB_AFFINITY -->
      <g transform="translate(199.1625 277.763389) scale(0.2 -0.2)">
       <defs>
        <path id="DejaVuSans-42" d="M 1259 2228 
L 1259 519 
L 2272 519 
Q 2781 519 3026 730 
Q 3272 941 3272 1375 
Q 3272 1813 3026 2020 
Q 2781 2228 2272 2228 
L 1259 2228 
z
M 1259 4147 
L 1259 2741 
L 2194 2741 
Q 2656 2741 2882 2914 
Q 3109 3088 3109 3444 
Q 3109 3797 2882 3972 
Q 2656 4147 2194 4147 
L 1259 4147 
z
M 628 4666 
L 2241 4666 
Q 2963 4666 3353 4366 
Q 3744 4066 3744 3513 
Q 3744 3084 3544 2831 
Q 3344 2578 2956 2516 
Q 3422 2416 3680 2098 
Q 3938 1781 3938 1306 
Q 3938 681 3513 340 
Q 3088 0 2303 0 
L 628 0 
L 628 4666 
z
" transform="scale(0.015625)"/>
        <path id="DejaVuSans-46" d="M 628 4666 
L 3309 4666 
L 3309 4134 
L 1259 4134 
L 1259 2759 
L 3109 2759 
L 3109 2228 
L 1259 2228 
L 1259 0 
L 628 0 
L 628 4666 
z
" transform="scale(0.015625)"/>
        <path id="DejaVuSans-4e" d="M 628 4666 
L 1478 4666 
L 3547 763 
L 3547 4666 
L 4159 4666 
L 4159 0 
L 3309 0 
L 1241 3903 
L 1241 0 
L 628 0 
L 628 4666 
z
" transform="scale(0.015625)"/>
        <path id="DejaVuSans-59" d="M -13 4666 
L 666 4666 
L 1959 2747 
L 3244 4666 
L 3922 4666 
L 2272 2222 
L 2272 0 
L 1638 0 
L 1638 2222 
L -13 4666 
z
" transform="scale(0.015625)"/>
       </defs>
       <use xlink:href="#DejaVuSans-54"/>
       <use xlink:href="#DejaVuSans-42" x="61.083984"/>
       <use xlink:href="#DejaVuSans-42" x="129.6875"/>
       <use xlink:href="#DejaVuSans-5f" x="198.291016"/>
       <use xlink:href="#DejaVuSans-41" x="248.291016"/>
       <use xlink:href="#DejaVuSans-46" x="316.699219"/>
       <use xlink:href="#DejaVuSans-46" x="374.21875"/>
       <use xlink:href="#DejaVuSans-49" x="431.738281"/>
       <use xlink:href="#DejaVuSans-4e" x="461.230469"/>
       <use xlink:href="#DejaVuSans-49" x="536.035156"/>
       <use xlink:href="#DejaVuSans-54" x="565.527344"/>
       <use xlink:href="#DejaVuSans-59" x="626.611328"/>
      </g>
     </g>
    </g>
    <g id="ytick_3">
     <g id="line2d_103">
      <path d="M 343.703125 231.673846 
L 1236.503125 231.673846 
" clip-path="url(#p726495b9b8)" style="fill: none; stroke: #dddddd; stroke-width: 0.8; stroke-linecap: square"/>
     </g>
     <g id="line2d_104">
      <g>
       <use xlink:href="#mc1193cb787" x="343.703125" y="231.673846" style="stroke: #000000; stroke-width: 0.8"/>
      </g>
     </g>
     <g id="text_13">
      <!-- TBB_AUTO -->
      <g transform="translate(230.765625 239.095721) scale(0.2 -0.2)">
       <defs>
        <path id="DejaVuSans-55" d="M 556 4666 
L 1191 4666 
L 1191 1831 
Q 1191 1081 1462 751 
Q 1734 422 2344 422 
Q 2950 422 3222 751 
Q 3494 1081 3494 1831 
L 3494 4666 
L 4128 4666 
L 4128 1753 
Q 4128 841 3676 375 
Q 3225 -91 2344 -91 
Q 1459 -91 1007 375 
Q 556 841 556 1753 
L 556 4666 
z
" transform="scale(0.015625)"/>
       </defs>
       <use xlink:href="#DejaVuSans-54"/>
       <use xlink:href="#DejaVuSans-42" x="61.083984"/>
       <use xlink:href="#DejaVuSans-42" x="129.6875"/>
       <use xlink:href="#DejaVuSans-5f" x="198.291016"/>
       <use xlink:href="#DejaVuSans-41" x="248.291016"/>
       <use xlink:href="#DejaVuSans-55" x="316.699219"/>
       <use xlink:href="#DejaVuSans-54" x="389.892578"/>
       <use xlink:href="#DejaVuSans-4f" x="450.976562"/>
      </g>
     </g>
    </g>
    <g id="ytick_4">
     <g id="line2d_105">
      <path d="M 343.703125 192.904615 
L 1236.503125 192.904615 
" clip-path="url(#p726495b9b8)" style="fill: none; stroke: #dddddd; stroke-width: 0.8; stroke-linecap: square"/>
     </g>
     <g id="line2d_106">
      <g>
       <use xlink:href="#mc1193cb787" x="343.703125" y="192.904615" style="stroke: #000000; stroke-width: 0.8"/>
      </g>
     </g>
     <g id="text_14">
      <!-- OMP_GUIDED_NONMONOTONIC -->
      <g transform="translate(20.009375 200.32649) scale(0.2 -0.2)">
       <defs>
        <path id="DejaVuSans-47" d="M 3809 666 
L 3809 1919 
L 2778 1919 
L 2778 2438 
L 4434 2438 
L 4434 434 
Q 4069 175 3628 42 
Q 3188 -91 2688 -91 
Q 1594 -91 976 548 
Q 359 1188 359 2328 
Q 359 3472 976 4111 
Q 1594 4750 2688 4750 
Q 3144 4750 3555 4637 
Q 3966 4525 4313 4306 
L 4313 3634 
Q 3963 3931 3569 4081 
Q 3175 4231 2741 4231 
Q 1884 4231 1454 3753 
Q 1025 3275 1025 2328 
Q 1025 1384 1454 906 
Q 1884 428 2741 428 
Q 3075 428 3337 486 
Q 3600 544 3809 666 
z
" transform="scale(0.015625)"/>
        <path id="DejaVuSans-44" d="M 1259 4147 
L 1259 519 
L 2022 519 
Q 2988 519 3436 956 
Q 3884 1394 3884 2338 
Q 3884 3275 3436 3711 
Q 2988 4147 2022 4147 
L 1259 4147 
z
M 628 4666 
L 1925 4666 
Q 3281 4666 3915 4102 
Q 4550 3538 4550 2338 
Q 4550 1131 3912 565 
Q 3275 0 1925 0 
L 628 0 
L 628 4666 
z
" transform="scale(0.015625)"/>
        <path id="DejaVuSans-45" d="M 628 4666 
L 3578 4666 
L 3578 4134 
L 1259 4134 
L 1259 2753 
L 3481 2753 
L 3481 2222 
L 1259 2222 
L 1259 531 
L 3634 531 
L 3634 0 
L 628 0 
L 628 4666 
z
" transform="scale(0.015625)"/>
       </defs>
       <use xlink:href="#DejaVuSans-4f"/>
       <use xlink:href="#DejaVuSans-4d" x="78.710938"/>
       <use xlink:href="#DejaVuSans-50" x="164.990234"/>
       <use xlink:href="#DejaVuSans-5f" x="225.292969"/>
       <use xlink:href="#DejaVuSans-47" x="275.292969"/>
       <use xlink:href="#DejaVuSans-55" x="352.783203"/>
       <use xlink:href="#DejaVuSans-49" x="425.976562"/>
       <use xlink:href="#DejaVuSans-44" x="455.46875"/>
       <use xlink:href="#DejaVuSans-45" x="532.470703"/>
       <use xlink:href="#DejaVuSans-44" x="595.654297"/>
       <use xlink:href="#DejaVuSans-5f" x="672.65625"/>
       <use xlink:href="#DejaVuSans-4e" x="722.65625"/>
       <use xlink:href="#DejaVuSans-4f" x="797.460938"/>
       <use xlink:href="#DejaVuSans-4e" x="876.171875"/>
       <use xlink:href="#DejaVuSans-4d" x="950.976562"/>
       <use xlink:href="#DejaVuSans-4f" x="1037.255859"/>
       <use xlink:href="#DejaVuSans-4e" x="1115.966797"/>
       <use xlink:href="#DejaVuSans-4f" x="1190.771484"/>
       <use xlink:href="#DejaVuSans-54" x="1269.482422"/>
       <use xlink:href="#DejaVuSans-4f" x="1330.566406"/>
       <use xlink:href="#DejaVuSans-4e" x="1409.277344"/>
       <use xlink:href="#DejaVuSans-49" x="1484.082031"/>
       <use xlink:href="#DejaVuSans-43" x="1513.574219"/>
      </g>
     </g>
    </g>
    <g id="ytick_5">
     <g id="line2d_107">
      <path d="M 343.703125 154.135385 
L 1236.503125 154.135385 
" clip-path="url(#p726495b9b8)" style="fill: none; stroke: #dddddd; stroke-width: 0.8; stroke-linecap: square"/>
     </g>
     <g id="line2d_108">
      <g>
       <use xlink:href="#mc1193cb787" x="343.703125" y="154.135385" style="stroke: #000000; stroke-width: 0.8"/>
      </g>
     </g>
     <g id="text_15">
      <!-- OMP_GUIDED_MONOTONIC -->
      <g transform="translate(65.678125 161.55726) scale(0.2 -0.2)">
       <use xlink:href="#DejaVuSans-4f"/>
       <use xlink:href="#DejaVuSans-4d" x="78.710938"/>
       <use xlink:href="#DejaVuSans-50" x="164.990234"/>
       <use xlink:href="#DejaVuSans-5f" x="225.292969"/>
       <use xlink:href="#DejaVuSans-47" x="275.292969"/>
       <use xlink:href="#DejaVuSans-55" x="352.783203"/>
       <use xlink:href="#DejaVuSans-49" x="425.976562"/>
       <use xlink:href="#DejaVuSans-44" x="455.46875"/>
       <use xlink:href="#DejaVuSans-45" x="532.470703"/>
       <use xlink:href="#DejaVuSans-44" x="595.654297"/>
       <use xlink:href="#DejaVuSans-5f" x="672.65625"/>
       <use xlink:href="#DejaVuSans-4d" x="722.65625"/>
       <use xlink:href="#DejaVuSans-4f" x="808.935547"/>
       <use xlink:href="#DejaVuSans-4e" x="887.646484"/>
       <use xlink:href="#DejaVuSans-4f" x="962.451172"/>
       <use xlink:href="#DejaVuSans-54" x="1041.162109"/>
       <use xlink:href="#DejaVuSans-4f" x="1102.246094"/>
       <use xlink:href="#DejaVuSans-4e" x="1180.957031"/>
       <use xlink:href="#DejaVuSans-49" x="1255.761719"/>
       <use xlink:href="#DejaVuSans-43" x="1285.253906"/>
      </g>
     </g>
    </g>
    <g id="ytick_6">
     <g id="line2d_109">
      <path d="M 343.703125 115.366154 
L 1236.503125 115.366154 
" clip-path="url(#p726495b9b8)" style="fill: none; stroke: #dddddd; stroke-width: 0.8; stroke-linecap: square"/>
     </g>
     <g id="line2d_110">
      <g>
       <use xlink:href="#mc1193cb787" x="343.703125" y="115.366154" style="stroke: #000000; stroke-width: 0.8"/>
      </g>
     </g>
     <g id="text_16">
      <!-- TBB_SIMPLE -->
      <g transform="translate(215.35 122.788029) scale(0.2 -0.2)">
       <defs>
        <path id="DejaVuSans-4c" d="M 628 4666 
L 1259 4666 
L 1259 531 
L 3531 531 
L 3531 0 
L 628 0 
L 628 4666 
z
" transform="scale(0.015625)"/>
       </defs>
       <use xlink:href="#DejaVuSans-54"/>
       <use xlink:href="#DejaVuSans-42" x="61.083984"/>
       <use xlink:href="#DejaVuSans-42" x="129.6875"/>
       <use xlink:href="#DejaVuSans-5f" x="198.291016"/>
       <use xlink:href="#DejaVuSans-53" x="248.291016"/>
       <use xlink:href="#DejaVuSans-49" x="311.767578"/>
       <use xlink:href="#DejaVuSans-4d" x="341.259766"/>
       <use xlink:href="#DejaVuSans-50" x="427.539062"/>
       <use xlink:href="#DejaVuSans-4c" x="487.841797"/>
       <use xlink:href="#DejaVuSans-45" x="543.554688"/>
      </g>
     </g>
    </g>
    <g id="ytick_7">
     <g id="line2d_111">
      <path d="M 343.703125 76.596923 
L 1236.503125 76.596923 
" clip-path="url(#p726495b9b8)" style="fill: none; stroke: #dddddd; stroke-width: 0.8; stroke-linecap: square"/>
     </g>
     <g id="line2d_112">
      <g>
       <use xlink:href="#mc1193cb787" x="343.703125" y="76.596923" style="stroke: #000000; stroke-width: 0.8"/>
      </g>
     </g>
     <g id="text_17">
      <!-- OMP_DYNAMIC_NONMONOTONIC -->
      <g transform="translate(7.2 84.018798) scale(0.2 -0.2)">
       <use xlink:href="#DejaVuSans-4f"/>
       <use xlink:href="#DejaVuSans-4d" x="78.710938"/>
       <use xlink:href="#DejaVuSans-50" x="164.990234"/>
       <use xlink:href="#DejaVuSans-5f" x="225.292969"/>
       <use xlink:href="#DejaVuSans-44" x="275.292969"/>
       <use xlink:href="#DejaVuSans-59" x="346.794922"/>
       <use xlink:href="#DejaVuSans-4e" x="407.878906"/>
       <use xlink:href="#DejaVuSans-41" x="482.683594"/>
       <use xlink:href="#DejaVuSans-4d" x="551.091797"/>
       <use xlink:href="#DejaVuSans-49" x="637.371094"/>
       <use xlink:href="#DejaVuSans-43" x="666.863281"/>
       <use xlink:href="#DejaVuSans-5f" x="736.6875"/>
       <use xlink:href="#DejaVuSans-4e" x="786.6875"/>
       <use xlink:href="#DejaVuSans-4f" x="861.492188"/>
       <use xlink:href="#DejaVuSans-4e" x="940.203125"/>
       <use xlink:href="#DejaVuSans-4d" x="1015.007812"/>
       <use xlink:href="#DejaVuSans-4f" x="1101.287109"/>
       <use xlink:href="#DejaVuSans-4e" x="1179.998047"/>
       <use xlink:href="#DejaVuSans-4f" x="1254.802734"/>
       <use xlink:href="#DejaVuSans-54" x="1333.513672"/>
       <use xlink:href="#DejaVuSans-4f" x="1394.597656"/>
       <use xlink:href="#DejaVuSans-4e" x="1473.308594"/>
       <use xlink:href="#DejaVuSans-49" x="1548.113281"/>
       <use xlink:href="#DejaVuSans-43" x="1577.605469"/>
      </g>
     </g>
    </g>
    <g id="ytick_8">
     <g id="line2d_113">
      <path d="M 343.703125 37.827692 
L 1236.503125 37.827692 
" clip-path="url(#p726495b9b8)" style="fill: none; stroke: #dddddd; stroke-width: 0.8; stroke-linecap: square"/>
     </g>
     <g id="line2d_114">
      <g>
       <use xlink:href="#mc1193cb787" x="343.703125" y="37.827692" style="stroke: #000000; stroke-width: 0.8"/>
      </g>
     </g>
     <g id="text_18">
      <!-- OMP_DYNAMIC_MONOTONIC -->
      <g transform="translate(52.86875 45.249567) scale(0.2 -0.2)">
       <use xlink:href="#DejaVuSans-4f"/>
       <use xlink:href="#DejaVuSans-4d" x="78.710938"/>
       <use xlink:href="#DejaVuSans-50" x="164.990234"/>
       <use xlink:href="#DejaVuSans-5f" x="225.292969"/>
       <use xlink:href="#DejaVuSans-44" x="275.292969"/>
       <use xlink:href="#DejaVuSans-59" x="346.794922"/>
       <use xlink:href="#DejaVuSans-4e" x="407.878906"/>
       <use xlink:href="#DejaVuSans-41" x="482.683594"/>
       <use xlink:href="#DejaVuSans-4d" x="551.091797"/>
       <use xlink:href="#DejaVuSans-49" x="637.371094"/>
       <use xlink:href="#DejaVuSans-43" x="666.863281"/>
       <use xlink:href="#DejaVuSans-5f" x="736.6875"/>
       <use xlink:href="#DejaVuSans-4d" x="786.6875"/>
       <use xlink:href="#DejaVuSans-4f" x="872.966797"/>
       <use xlink:href="#DejaVuSans-4e" x="951.677734"/>
       <use xlink:href="#DejaVuSans-4f" x="1026.482422"/>
       <use xlink:href="#DejaVuSans-54" x="1105.193359"/>
       <use xlink:href="#DejaVuSans-4f" x="1166.277344"/>
       <use xlink:href="#DejaVuSans-4e" x="1244.988281"/>
       <use xlink:href="#DejaVuSans-49" x="1319.792969"/>
       <use xlink:href="#DejaVuSans-43" x="1349.285156"/>
      </g>
     </g>
    </g>
   </g>
   <g id="patch_3">
    <path d="M 343.703125 339.84 
L 343.703125 7.2 
" style="fill: none; stroke: #000000; stroke-width: 0.8; stroke-linejoin: miter; stroke-linecap: square"/>
   </g>
   <g id="patch_4">
    <path d="M 1236.503125 339.84 
L 1236.503125 7.2 
" style="fill: none; stroke: #000000; stroke-width: 0.8; stroke-linejoin: miter; stroke-linecap: square"/>
   </g>
   <g id="patch_5">
    <path d="M 343.703125 339.84 
L 1236.503125 339.84 
" style="fill: none; stroke: #000000; stroke-width: 0.8; stroke-linejoin: miter; stroke-linecap: square"/>
   </g>
   <g id="patch_6">
    <path d="M 343.703125 7.2 
L 1236.503125 7.2 
" style="fill: none; stroke: #000000; stroke-width: 0.8; stroke-linejoin: miter; stroke-linecap: square"/>
   </g>
   <g id="patch_7">
    <path d="M 343.703125 324.72 
L 345.537129 324.72 
L 345.537129 293.704615 
L 343.703125 293.704615 
z
" clip-path="url(#p726495b9b8)" style="fill: #1f77b4"/>
   </g>
   <g id="patch_8">
    <path d="M 343.703125 285.950769 
L 348.868313 285.950769 
L 348.868313 254.935385 
L 343.703125 254.935385 
z
" clip-path="url(#p726495b9b8)" style="fill: #1f77b4"/>
   </g>
   <g id="patch_9">
    <path d="M 343.703125 247.181538 
L 351.173751 247.181538 
L 351.173751 216.166154 
L 343.703125 216.166154 
z
" clip-path="url(#p726495b9b8)" style="fill: #1f77b4"/>
   </g>
   <g id="patch_10">
    <path d="M 343.703125 208.412308 
L 357.783 208.412308 
L 357.783 177.396923 
L 343.703125 177.396923 
z
" clip-path="url(#p726495b9b8)" style="fill: #1f77b4"/>
   </g>
   <g id="patch_11">
    <path d="M 343.703125 169.643077 
L 357.84929 169.643077 
L 357.84929 138.627692 
L 343.703125 138.627692 
z
" clip-path="url(#p726495b9b8)" style="fill: #1f77b4"/>
   </g>
   <g id="patch_12">
    <path d="M 343.703125 130.873846 
L 371.456295 130.873846 
L 371.456295 99.858462 
L 343.703125 99.858462 
z
" clip-path="url(#p726495b9b8)" style="fill: #1f77b4"/>
   </g>
   <g id="patch_13">
    <path d="M 343.703125 92.104615 
L 374.228798 92.104615 
L 374.228798 61.089231 
L 343.703125 61.089231 
z
" clip-path="url(#p726495b9b8)" style="fill: #1f77b4"/>
   </g>
   <g id="patch_14">
    <path d="M 343.703125 53.335385 
L 1193.988839 53.335385 
L 1193.988839 22.32 
L 343.703125 22.32 
z
" clip-path="url(#p726495b9b8)" style="fill: #1f77b4"/>
   </g>
  </g>
 </g>
 <defs>
  <clipPath id="p726495b9b8">
   <rect x="343.703125" y="7.2" width="892.8" height="332.64"/>
  </clipPath>
 </defs>
</svg>
